M48
;DRILL file {KiCad 4.0.7} date Saturday, February 10, 2018 'PMt' 06:07:51 PM
;FORMAT={-:-/ absolute / metric / decimal}
FMAT,2
METRIC,TZ
T1C0.400
T2C0.800
T3C0.900
T4C1.000
T5C1.200
%
G90
G05
M71
T1
X69.85Y-78.74
X69.85Y-85.09
X71.12Y-82.55
X74.93Y-81.28
X76.2Y-76.2
X77.47Y-81.28
X81.28Y-78.74
X114.3Y-88.9
X132.08Y-64.77
X133.35Y-69.85
X135.89Y-78.74
X138.43Y-64.77
X143.51Y-74.93
T2
X115.57Y-93.98
X115.57Y-96.48
X123.19Y-97.6
X123.19Y-99.6
X123.19Y-101.6
X129.54Y-97.6
X129.54Y-99.6
X129.54Y-101.6
X135.89Y-97.6
X135.89Y-99.6
X135.89Y-101.6
X142.24Y-97.6
X142.24Y-99.6
X142.24Y-101.6
X151.13Y-93.98
X151.13Y-96.48
T3
X83.82Y-78.74
X83.82Y-87.63
X86.36Y-78.74
X86.36Y-87.63
T4
X62.23Y-71.12
X62.23Y-73.66
X62.23Y-76.2
X62.23Y-78.74
X62.23Y-85.09
X62.23Y-87.63
X62.23Y-90.17
X113.03Y-69.85
X113.03Y-72.39
X113.03Y-74.93
X120.65Y-90.17
X123.19Y-90.17
X125.73Y-90.17
X133.35Y-90.17
X135.89Y-90.17
X138.43Y-90.17
X144.78Y-63.5
X144.78Y-66.04
T5
X148.59Y-79.05
X148.59Y-82.55
T0
M30
