G04 #@! TF.FileFunction,Copper,L2,Bot,Signal*
%FSLAX46Y46*%
G04 Gerber Fmt 4.6, Leading zero omitted, Abs format (unit mm)*
G04 Created by KiCad (PCBNEW 4.0.7) date Saturday, February 10, 2018 'PMt' 05:25:13 PM*
%MOMM*%
%LPD*%
G01*
G04 APERTURE LIST*
%ADD10C,0.100000*%
%ADD11C,2.400000*%
%ADD12R,2.400000X2.400000*%
%ADD13R,2.000000X1.700000*%
%ADD14R,1.700000X2.000000*%
%ADD15R,2.000000X1.600000*%
%ADD16R,1.600000X2.000000*%
%ADD17R,1.800000X1.800000*%
%ADD18O,1.800000X1.800000*%
%ADD19R,1.500000X1.500000*%
%ADD20C,1.500000*%
%ADD21C,1.800000*%
%ADD22R,1.700000X1.700000*%
%ADD23O,1.700000X1.700000*%
%ADD24R,1.600000X1.600000*%
%ADD25C,1.600000*%
%ADD26R,2.000000X3.800000*%
%ADD27R,2.000000X1.500000*%
%ADD28C,0.600000*%
%ADD29C,0.250000*%
%ADD30C,0.600000*%
G04 APERTURE END LIST*
D10*
D11*
X148590000Y-79050000D03*
D12*
X148590000Y-82550000D03*
D13*
X137890000Y-86360000D03*
X133890000Y-86360000D03*
D14*
X133350000Y-82010000D03*
X133350000Y-78010000D03*
D15*
X133890000Y-67310000D03*
X137890000Y-67310000D03*
X137890000Y-62230000D03*
X133890000Y-62230000D03*
D16*
X138430000Y-82010000D03*
X138430000Y-78010000D03*
X120650000Y-82010000D03*
X120650000Y-78010000D03*
D13*
X125190000Y-86360000D03*
X121190000Y-86360000D03*
D14*
X125730000Y-78010000D03*
X125730000Y-82010000D03*
D17*
X133350000Y-90170000D03*
D18*
X135890000Y-90170000D03*
X138430000Y-90170000D03*
D17*
X120650000Y-90170000D03*
D18*
X123190000Y-90170000D03*
X125730000Y-90170000D03*
D19*
X142240000Y-101600000D03*
D20*
X142240000Y-99600000D03*
X142240000Y-97600000D03*
D19*
X135890000Y-101600000D03*
D20*
X135890000Y-99600000D03*
X135890000Y-97600000D03*
D19*
X129540000Y-101600000D03*
D20*
X129540000Y-99600000D03*
X129540000Y-97600000D03*
D19*
X123190000Y-101600000D03*
D20*
X123190000Y-99600000D03*
X123190000Y-97600000D03*
D17*
X83820000Y-78740000D03*
D21*
X86360000Y-78740000D03*
D17*
X83820000Y-87630000D03*
D21*
X86360000Y-87630000D03*
D22*
X144780000Y-66040000D03*
D23*
X144780000Y-63500000D03*
D22*
X62230000Y-78740000D03*
D23*
X62230000Y-76200000D03*
X62230000Y-73660000D03*
X62230000Y-71120000D03*
D22*
X113030000Y-74930000D03*
D23*
X113030000Y-72390000D03*
X113030000Y-69850000D03*
D22*
X62230000Y-90170000D03*
D23*
X62230000Y-87630000D03*
X62230000Y-85090000D03*
D24*
X151130000Y-93980000D03*
D25*
X151130000Y-96480000D03*
D24*
X115570000Y-93980000D03*
D25*
X115570000Y-96480000D03*
D26*
X121310000Y-64770000D03*
D27*
X127610000Y-64770000D03*
X127610000Y-67070000D03*
X127610000Y-62470000D03*
D28*
X76200000Y-76200000D03*
X74930000Y-81280000D03*
X69850000Y-78740000D03*
X133350000Y-69850000D03*
X135890000Y-78740000D03*
X138430000Y-64770000D03*
X132080000Y-64770000D03*
X71120000Y-82550000D03*
X81280000Y-78740000D03*
X114300000Y-88900000D03*
X143510000Y-74930000D03*
X69850000Y-85090000D03*
X77470000Y-81280000D03*
D29*
X76200000Y-80010000D02*
X76200000Y-76200000D01*
X74930000Y-81280000D02*
X76200000Y-80010000D01*
D30*
X69850000Y-78740000D02*
X62230000Y-78740000D01*
X133890000Y-86360000D02*
X133350000Y-86360000D01*
X133350000Y-86360000D02*
X133350000Y-82010000D01*
X133350000Y-90170000D02*
X133350000Y-86360000D01*
X133350000Y-86360000D02*
X133890000Y-86360000D01*
X138430000Y-82010000D02*
X136620000Y-82010000D01*
X133890000Y-69310000D02*
X133890000Y-67310000D01*
X133350000Y-69850000D02*
X133890000Y-69310000D01*
X135890000Y-81280000D02*
X135890000Y-78740000D01*
X136620000Y-82010000D02*
X135890000Y-81280000D01*
X133890000Y-67310000D02*
X133350000Y-67310000D01*
X138430000Y-82550000D02*
X138430000Y-82010000D01*
X138430000Y-82010000D02*
X138430000Y-82550000D01*
X138430000Y-82550000D02*
X142240000Y-78740000D01*
X142240000Y-78740000D02*
X148590000Y-78740000D01*
X148590000Y-78740000D02*
X148590000Y-79050000D01*
X123190000Y-90170000D02*
X123190000Y-85090000D01*
X123190000Y-85090000D02*
X120650000Y-82550000D01*
X120650000Y-82550000D02*
X120650000Y-82010000D01*
X138430000Y-82010000D02*
X138430000Y-82550000D01*
X138430000Y-82550000D02*
X135890000Y-85090000D01*
X135890000Y-85090000D02*
X135890000Y-90170000D01*
X135890000Y-90170000D02*
X134620000Y-91440000D01*
X134620000Y-91440000D02*
X124460000Y-91440000D01*
X124460000Y-91440000D02*
X123190000Y-90170000D01*
X127610000Y-67070000D02*
X127000000Y-67310000D01*
X127000000Y-67310000D02*
X133890000Y-67310000D01*
X127610000Y-64770000D02*
X132080000Y-64770000D01*
X137890000Y-64230000D02*
X137890000Y-62230000D01*
X138430000Y-64770000D02*
X137890000Y-64230000D01*
X121310000Y-64770000D02*
X121920000Y-64770000D01*
X121920000Y-64770000D02*
X116840000Y-69850000D01*
X116840000Y-69850000D02*
X113030000Y-69850000D01*
X137160000Y-62230000D02*
X137890000Y-62230000D01*
X137890000Y-62230000D02*
X138430000Y-62230000D01*
X138430000Y-62230000D02*
X139700000Y-63500000D01*
X139700000Y-63500000D02*
X144780000Y-63500000D01*
D29*
X121310000Y-64770000D02*
X121920000Y-64770000D01*
X137160000Y-62230000D02*
X137890000Y-62230000D01*
X137890000Y-62230000D02*
X138430000Y-62230000D01*
X127610000Y-64770000D02*
X121310000Y-64770000D01*
D30*
X142240000Y-99600000D02*
X142240000Y-99060000D01*
X142240000Y-99060000D02*
X143510000Y-99060000D01*
X143510000Y-99060000D02*
X148590000Y-93980000D01*
X148590000Y-93980000D02*
X151130000Y-93980000D01*
X138430000Y-90170000D02*
X138430000Y-92710000D01*
X138430000Y-92710000D02*
X134620000Y-96520000D01*
X134620000Y-96520000D02*
X134620000Y-99060000D01*
X134620000Y-99060000D02*
X135890000Y-99060000D01*
X135890000Y-99060000D02*
X135890000Y-99600000D01*
X135890000Y-99600000D02*
X135890000Y-99060000D01*
X135890000Y-99060000D02*
X142240000Y-99060000D01*
X142240000Y-99060000D02*
X142240000Y-99600000D01*
X138430000Y-90170000D02*
X138430000Y-86360000D01*
X138430000Y-86360000D02*
X137890000Y-86360000D01*
X123190000Y-99600000D02*
X123190000Y-99060000D01*
X123190000Y-99060000D02*
X121920000Y-99060000D01*
X121920000Y-99060000D02*
X116840000Y-93980000D01*
X116840000Y-93980000D02*
X115570000Y-93980000D01*
X123190000Y-99600000D02*
X123190000Y-99060000D01*
X123190000Y-99060000D02*
X129540000Y-99060000D01*
X129540000Y-99060000D02*
X129540000Y-99600000D01*
X125730000Y-90170000D02*
X125730000Y-86360000D01*
X125730000Y-86360000D02*
X125190000Y-86360000D01*
D29*
X69850000Y-76200000D02*
X62230000Y-76200000D01*
X71120000Y-77470000D02*
X69850000Y-76200000D01*
X71120000Y-82550000D02*
X71120000Y-77470000D01*
X81280000Y-73660000D02*
X62230000Y-73660000D01*
X81280000Y-78740000D02*
X81280000Y-73660000D01*
D30*
X121190000Y-86360000D02*
X120650000Y-86360000D01*
X120650000Y-86360000D02*
X120650000Y-85090000D01*
X120650000Y-85090000D02*
X119380000Y-83820000D01*
X119380000Y-83820000D02*
X119380000Y-80010000D01*
X119380000Y-80010000D02*
X121920000Y-80010000D01*
X121920000Y-80010000D02*
X124460000Y-77470000D01*
X124460000Y-77470000D02*
X125730000Y-77470000D01*
X125730000Y-77470000D02*
X125730000Y-78010000D01*
X120650000Y-90170000D02*
X120650000Y-86360000D01*
X120650000Y-86360000D02*
X121190000Y-86360000D01*
D29*
X123190000Y-97600000D02*
X123190000Y-97790000D01*
X123190000Y-97790000D02*
X114300000Y-88900000D01*
D30*
X137890000Y-67310000D02*
X138430000Y-67310000D01*
X138430000Y-67310000D02*
X135890000Y-64770000D01*
X135890000Y-64770000D02*
X134620000Y-64770000D01*
X134620000Y-64770000D02*
X134620000Y-63500000D01*
X134620000Y-63500000D02*
X133350000Y-62230000D01*
X133350000Y-62230000D02*
X133890000Y-62230000D01*
X125730000Y-82010000D02*
X125730000Y-81280000D01*
X125730000Y-81280000D02*
X127000000Y-80010000D01*
X127000000Y-80010000D02*
X127000000Y-76200000D01*
X127000000Y-76200000D02*
X123190000Y-76200000D01*
X123190000Y-76200000D02*
X121920000Y-77470000D01*
X121920000Y-77470000D02*
X120650000Y-77470000D01*
X120650000Y-77470000D02*
X120650000Y-78010000D01*
X137890000Y-67310000D02*
X138430000Y-67310000D01*
X133350000Y-62230000D02*
X133890000Y-62230000D01*
X143510000Y-74930000D02*
X140970000Y-77470000D01*
X140970000Y-77470000D02*
X138430000Y-77470000D01*
X138430000Y-77470000D02*
X138430000Y-78010000D01*
X123190000Y-101600000D02*
X121920000Y-101600000D01*
X121920000Y-101600000D02*
X116840000Y-96520000D01*
X116840000Y-96520000D02*
X115570000Y-96520000D01*
X115570000Y-96520000D02*
X115570000Y-96480000D01*
X133350000Y-78010000D02*
X133350000Y-77470000D01*
X133350000Y-77470000D02*
X128270000Y-82550000D01*
X128270000Y-82550000D02*
X125730000Y-82550000D01*
X125730000Y-82550000D02*
X125730000Y-82010000D01*
X151130000Y-96480000D02*
X151130000Y-96520000D01*
X151130000Y-96520000D02*
X146050000Y-101600000D01*
X146050000Y-101600000D02*
X142240000Y-101600000D01*
X120650000Y-78010000D02*
X120650000Y-77470000D01*
X120650000Y-77470000D02*
X118110000Y-74930000D01*
X118110000Y-74930000D02*
X113030000Y-74930000D01*
X137890000Y-67310000D02*
X138430000Y-67310000D01*
X138430000Y-67310000D02*
X139700000Y-66040000D01*
X139700000Y-66040000D02*
X144780000Y-66040000D01*
X138430000Y-78010000D02*
X138430000Y-67310000D01*
X138430000Y-67310000D02*
X137890000Y-67310000D01*
X133890000Y-62230000D02*
X127000000Y-62230000D01*
X127000000Y-62230000D02*
X127610000Y-62470000D01*
X142240000Y-101600000D02*
X135890000Y-101600000D01*
X135890000Y-101600000D02*
X129540000Y-101600000D01*
X129540000Y-101600000D02*
X123190000Y-101600000D01*
X138430000Y-78010000D02*
X138430000Y-77470000D01*
X138430000Y-77470000D02*
X133350000Y-77470000D01*
X133350000Y-77470000D02*
X133350000Y-78010000D01*
X69850000Y-85090000D02*
X62230000Y-85090000D01*
D29*
X62230000Y-87630000D02*
X71120000Y-87630000D01*
X71120000Y-87630000D02*
X77470000Y-81280000D01*
M02*
