G04 #@! TF.FileFunction,Legend,Top*
%FSLAX46Y46*%
G04 Gerber Fmt 4.6, Leading zero omitted, Abs format (unit mm)*
G04 Created by KiCad (PCBNEW 4.0.7) date Saturday, June 09, 2018 'PMt' 12:28:08 PM*
%MOMM*%
%LPD*%
G01*
G04 APERTURE LIST*
%ADD10C,0.100000*%
%ADD11C,0.200000*%
%ADD12C,0.300000*%
%ADD13C,0.120000*%
%ADD14C,0.010000*%
%ADD15C,0.150000*%
G04 APERTURE END LIST*
D10*
D11*
X136117381Y-108386429D02*
X135117381Y-108386429D01*
X135117381Y-108148334D01*
X135165000Y-108005476D01*
X135260238Y-107910238D01*
X135355476Y-107862619D01*
X135545952Y-107815000D01*
X135688810Y-107815000D01*
X135879286Y-107862619D01*
X135974524Y-107910238D01*
X136069762Y-108005476D01*
X136117381Y-108148334D01*
X136117381Y-108386429D01*
X135831667Y-107434048D02*
X135831667Y-106957857D01*
X136117381Y-107529286D02*
X135117381Y-107195953D01*
X136117381Y-106862619D01*
X135117381Y-106672143D02*
X135117381Y-106100714D01*
X136117381Y-106386429D02*
X135117381Y-106386429D01*
X139517381Y-107934047D02*
X139517381Y-108505476D01*
X139517381Y-108219762D02*
X138517381Y-108219762D01*
X138660238Y-108315000D01*
X138755476Y-108410238D01*
X138803095Y-108505476D01*
X138612619Y-107553095D02*
X138565000Y-107505476D01*
X138517381Y-107410238D01*
X138517381Y-107172142D01*
X138565000Y-107076904D01*
X138612619Y-107029285D01*
X138707857Y-106981666D01*
X138803095Y-106981666D01*
X138945952Y-107029285D01*
X139517381Y-107600714D01*
X139517381Y-106981666D01*
X138517381Y-106695952D02*
X139517381Y-106362619D01*
X138517381Y-106029285D01*
X141965000Y-108076904D02*
X141917381Y-108172142D01*
X141917381Y-108314999D01*
X141965000Y-108457857D01*
X142060238Y-108553095D01*
X142155476Y-108600714D01*
X142345952Y-108648333D01*
X142488810Y-108648333D01*
X142679286Y-108600714D01*
X142774524Y-108553095D01*
X142869762Y-108457857D01*
X142917381Y-108314999D01*
X142917381Y-108219761D01*
X142869762Y-108076904D01*
X142822143Y-108029285D01*
X142488810Y-108029285D01*
X142488810Y-108219761D01*
X142917381Y-107600714D02*
X141917381Y-107600714D01*
X142917381Y-107029285D01*
X141917381Y-107029285D01*
X142917381Y-106553095D02*
X141917381Y-106553095D01*
X141917381Y-106315000D01*
X141965000Y-106172142D01*
X142060238Y-106076904D01*
X142155476Y-106029285D01*
X142345952Y-105981666D01*
X142488810Y-105981666D01*
X142679286Y-106029285D01*
X142774524Y-106076904D01*
X142869762Y-106172142D01*
X142917381Y-106315000D01*
X142917381Y-106553095D01*
D12*
X146967144Y-105858571D02*
X147467144Y-107358571D01*
X147967144Y-105858571D01*
X149038572Y-107287143D02*
X148895715Y-107358571D01*
X148610001Y-107358571D01*
X148467144Y-107287143D01*
X148395715Y-107144286D01*
X148395715Y-106572857D01*
X148467144Y-106430000D01*
X148610001Y-106358571D01*
X148895715Y-106358571D01*
X149038572Y-106430000D01*
X149110001Y-106572857D01*
X149110001Y-106715714D01*
X148395715Y-106858571D01*
X149752858Y-107358571D02*
X149752858Y-106358571D01*
X149752858Y-106644286D02*
X149824286Y-106501429D01*
X149895715Y-106430000D01*
X150038572Y-106358571D01*
X150181429Y-106358571D01*
X152538572Y-105858571D02*
X151824286Y-105858571D01*
X151752857Y-106572857D01*
X151824286Y-106501429D01*
X151967143Y-106430000D01*
X152324286Y-106430000D01*
X152467143Y-106501429D01*
X152538572Y-106572857D01*
X152610000Y-106715714D01*
X152610000Y-107072857D01*
X152538572Y-107215714D01*
X152467143Y-107287143D01*
X152324286Y-107358571D01*
X151967143Y-107358571D01*
X151824286Y-107287143D01*
X151752857Y-107215714D01*
X127195716Y-98873571D02*
X127552859Y-100373571D01*
X127838573Y-99302143D01*
X128124287Y-100373571D01*
X128481430Y-98873571D01*
X129695716Y-100373571D02*
X129695716Y-99587857D01*
X129624287Y-99445000D01*
X129481430Y-99373571D01*
X129195716Y-99373571D01*
X129052859Y-99445000D01*
X129695716Y-100302143D02*
X129552859Y-100373571D01*
X129195716Y-100373571D01*
X129052859Y-100302143D01*
X128981430Y-100159286D01*
X128981430Y-100016429D01*
X129052859Y-99873571D01*
X129195716Y-99802143D01*
X129552859Y-99802143D01*
X129695716Y-99730714D01*
X130624288Y-100373571D02*
X130481430Y-100302143D01*
X130410002Y-100159286D01*
X130410002Y-98873571D01*
X131838573Y-100302143D02*
X131695716Y-100373571D01*
X131410002Y-100373571D01*
X131267144Y-100302143D01*
X131195716Y-100230714D01*
X131124287Y-100087857D01*
X131124287Y-99659286D01*
X131195716Y-99516429D01*
X131267144Y-99445000D01*
X131410002Y-99373571D01*
X131695716Y-99373571D01*
X131838573Y-99445000D01*
X132481430Y-100373571D02*
X132481430Y-98873571D01*
X133124287Y-100373571D02*
X133124287Y-99587857D01*
X133052858Y-99445000D01*
X132910001Y-99373571D01*
X132695716Y-99373571D01*
X132552858Y-99445000D01*
X132481430Y-99516429D01*
X133838573Y-100373571D02*
X133838573Y-98873571D01*
X133981430Y-99802143D02*
X134410001Y-100373571D01*
X134410001Y-99373571D02*
X133838573Y-99945000D01*
X135267145Y-100373571D02*
X135124287Y-100302143D01*
X135052859Y-100230714D01*
X134981430Y-100087857D01*
X134981430Y-99659286D01*
X135052859Y-99516429D01*
X135124287Y-99445000D01*
X135267145Y-99373571D01*
X135481430Y-99373571D01*
X135624287Y-99445000D01*
X135695716Y-99516429D01*
X135767145Y-99659286D01*
X135767145Y-100087857D01*
X135695716Y-100230714D01*
X135624287Y-100302143D01*
X135481430Y-100373571D01*
X135267145Y-100373571D01*
X137981430Y-100945000D02*
X137910002Y-100873571D01*
X137767145Y-100659286D01*
X137695716Y-100516429D01*
X137624287Y-100302143D01*
X137552859Y-99945000D01*
X137552859Y-99659286D01*
X137624287Y-99302143D01*
X137695716Y-99087857D01*
X137767145Y-98945000D01*
X137910002Y-98730714D01*
X137981430Y-98659286D01*
X139195716Y-100302143D02*
X139052859Y-100373571D01*
X138767145Y-100373571D01*
X138624287Y-100302143D01*
X138552859Y-100230714D01*
X138481430Y-100087857D01*
X138481430Y-99659286D01*
X138552859Y-99516429D01*
X138624287Y-99445000D01*
X138767145Y-99373571D01*
X139052859Y-99373571D01*
X139195716Y-99445000D01*
X139695716Y-100945000D02*
X139767144Y-100873571D01*
X139910001Y-100659286D01*
X139981430Y-100516429D01*
X140052859Y-100302143D01*
X140124287Y-99945000D01*
X140124287Y-99659286D01*
X140052859Y-99302143D01*
X139981430Y-99087857D01*
X139910001Y-98945000D01*
X139767144Y-98730714D01*
X139695716Y-98659286D01*
X141910001Y-99016429D02*
X141981430Y-98945000D01*
X142124287Y-98873571D01*
X142481430Y-98873571D01*
X142624287Y-98945000D01*
X142695716Y-99016429D01*
X142767144Y-99159286D01*
X142767144Y-99302143D01*
X142695716Y-99516429D01*
X141838573Y-100373571D01*
X142767144Y-100373571D01*
X143695715Y-98873571D02*
X143838572Y-98873571D01*
X143981429Y-98945000D01*
X144052858Y-99016429D01*
X144124287Y-99159286D01*
X144195715Y-99445000D01*
X144195715Y-99802143D01*
X144124287Y-100087857D01*
X144052858Y-100230714D01*
X143981429Y-100302143D01*
X143838572Y-100373571D01*
X143695715Y-100373571D01*
X143552858Y-100302143D01*
X143481429Y-100230714D01*
X143410001Y-100087857D01*
X143338572Y-99802143D01*
X143338572Y-99445000D01*
X143410001Y-99159286D01*
X143481429Y-99016429D01*
X143552858Y-98945000D01*
X143695715Y-98873571D01*
X145624286Y-100373571D02*
X144767143Y-100373571D01*
X145195715Y-100373571D02*
X145195715Y-98873571D01*
X145052858Y-99087857D01*
X144910000Y-99230714D01*
X144767143Y-99302143D01*
X146481429Y-99516429D02*
X146338571Y-99445000D01*
X146267143Y-99373571D01*
X146195714Y-99230714D01*
X146195714Y-99159286D01*
X146267143Y-99016429D01*
X146338571Y-98945000D01*
X146481429Y-98873571D01*
X146767143Y-98873571D01*
X146910000Y-98945000D01*
X146981429Y-99016429D01*
X147052857Y-99159286D01*
X147052857Y-99230714D01*
X146981429Y-99373571D01*
X146910000Y-99445000D01*
X146767143Y-99516429D01*
X146481429Y-99516429D01*
X146338571Y-99587857D01*
X146267143Y-99659286D01*
X146195714Y-99802143D01*
X146195714Y-100087857D01*
X146267143Y-100230714D01*
X146338571Y-100302143D01*
X146481429Y-100373571D01*
X146767143Y-100373571D01*
X146910000Y-100302143D01*
X146981429Y-100230714D01*
X147052857Y-100087857D01*
X147052857Y-99802143D01*
X146981429Y-99659286D01*
X146910000Y-99587857D01*
X146767143Y-99516429D01*
D13*
X125020000Y-106995000D02*
X125020000Y-105095000D01*
X125020000Y-105095000D02*
X120320000Y-105095000D01*
X125020000Y-106995000D02*
X120320000Y-106995000D01*
X120115000Y-83080000D02*
X121115000Y-82080000D01*
X111215000Y-78180000D02*
X111215000Y-83080000D01*
X111215000Y-83080000D02*
X120115000Y-83080000D01*
X121115000Y-82080000D02*
X121115000Y-78180000D01*
X121115000Y-78180000D02*
X111215000Y-78180000D01*
X142935000Y-104835000D02*
X142935000Y-102175000D01*
X137795000Y-104835000D02*
X142935000Y-104835000D01*
X137795000Y-102175000D02*
X142935000Y-102175000D01*
X137795000Y-104835000D02*
X137795000Y-102175000D01*
X136525000Y-104835000D02*
X135195000Y-104835000D01*
X135195000Y-104835000D02*
X135195000Y-103505000D01*
X120115000Y-76730000D02*
X121115000Y-75730000D01*
X111215000Y-71830000D02*
X111215000Y-76730000D01*
X111215000Y-76730000D02*
X120115000Y-76730000D01*
X121115000Y-75730000D02*
X121115000Y-71830000D01*
X121115000Y-71830000D02*
X111215000Y-71830000D01*
X120115000Y-89430000D02*
X121115000Y-88430000D01*
X111215000Y-84530000D02*
X111215000Y-89430000D01*
X111215000Y-89430000D02*
X120115000Y-89430000D01*
X121115000Y-88430000D02*
X121115000Y-84530000D01*
X121115000Y-84530000D02*
X111215000Y-84530000D01*
X120115000Y-97685000D02*
X121115000Y-96685000D01*
X111215000Y-92785000D02*
X111215000Y-97685000D01*
X111215000Y-97685000D02*
X120115000Y-97685000D01*
X121115000Y-96685000D02*
X121115000Y-92785000D01*
X121115000Y-92785000D02*
X111215000Y-92785000D01*
X120920000Y-101165000D02*
X122920000Y-101165000D01*
X122920000Y-103305000D02*
X120920000Y-103305000D01*
X155675000Y-89430000D02*
X156675000Y-88430000D01*
X146775000Y-84530000D02*
X146775000Y-89430000D01*
X146775000Y-89430000D02*
X155675000Y-89430000D01*
X156675000Y-88430000D02*
X156675000Y-84530000D01*
X156675000Y-84530000D02*
X146775000Y-84530000D01*
X155675000Y-97685000D02*
X156675000Y-96685000D01*
X146775000Y-92785000D02*
X146775000Y-97685000D01*
X146775000Y-97685000D02*
X155675000Y-97685000D01*
X156675000Y-96685000D02*
X156675000Y-92785000D01*
X156675000Y-92785000D02*
X146775000Y-92785000D01*
X155675000Y-83080000D02*
X156675000Y-82080000D01*
X146775000Y-78180000D02*
X146775000Y-83080000D01*
X146775000Y-83080000D02*
X155675000Y-83080000D01*
X156675000Y-82080000D02*
X156675000Y-78180000D01*
X156675000Y-78180000D02*
X146775000Y-78180000D01*
X155675000Y-76730000D02*
X156675000Y-75730000D01*
X146775000Y-71830000D02*
X146775000Y-76730000D01*
X146775000Y-76730000D02*
X155675000Y-76730000D01*
X156675000Y-75730000D02*
X156675000Y-71830000D01*
X156675000Y-71830000D02*
X146775000Y-71830000D01*
D14*
G36*
X129483886Y-77514505D02*
X129558539Y-77551727D01*
X129624431Y-77620261D01*
X129642577Y-77645648D01*
X129662345Y-77678866D01*
X129675172Y-77714945D01*
X129682510Y-77763098D01*
X129685813Y-77832536D01*
X129686538Y-77924206D01*
X129683263Y-78049830D01*
X129671877Y-78144154D01*
X129650041Y-78214523D01*
X129615419Y-78268286D01*
X129565670Y-78312788D01*
X129562014Y-78315423D01*
X129512985Y-78342377D01*
X129453945Y-78355712D01*
X129378859Y-78359000D01*
X129256795Y-78359000D01*
X129256744Y-78477497D01*
X129255608Y-78543492D01*
X129248686Y-78582202D01*
X129230598Y-78605419D01*
X129195962Y-78624933D01*
X129187645Y-78628920D01*
X129148720Y-78647603D01*
X129118583Y-78659403D01*
X129096174Y-78660422D01*
X129080433Y-78646761D01*
X129070302Y-78614522D01*
X129064723Y-78559804D01*
X129062635Y-78478711D01*
X129062981Y-78367344D01*
X129064700Y-78221802D01*
X129065237Y-78178269D01*
X129067172Y-78028205D01*
X129068904Y-77930042D01*
X129256692Y-77930042D01*
X129257748Y-78013364D01*
X129262438Y-78067880D01*
X129273051Y-78103837D01*
X129291872Y-78131482D01*
X129304650Y-78144965D01*
X129356890Y-78184417D01*
X129403142Y-78187628D01*
X129450867Y-78155049D01*
X129452077Y-78153846D01*
X129471494Y-78128668D01*
X129483307Y-78094447D01*
X129489265Y-78041748D01*
X129491120Y-77961131D01*
X129491154Y-77943271D01*
X129486670Y-77832175D01*
X129472074Y-77755161D01*
X129445650Y-77708147D01*
X129405683Y-77687050D01*
X129382584Y-77684923D01*
X129327762Y-77694900D01*
X129290158Y-77727752D01*
X129267523Y-77787857D01*
X129257606Y-77879598D01*
X129256692Y-77930042D01*
X129068904Y-77930042D01*
X129069222Y-77912060D01*
X129071873Y-77824679D01*
X129075606Y-77760905D01*
X129080907Y-77715582D01*
X129088258Y-77683555D01*
X129098143Y-77659668D01*
X129111046Y-77638764D01*
X129116579Y-77630898D01*
X129189969Y-77556595D01*
X129282760Y-77514467D01*
X129390096Y-77502722D01*
X129483886Y-77514505D01*
X129483886Y-77514505D01*
G37*
X129483886Y-77514505D02*
X129558539Y-77551727D01*
X129624431Y-77620261D01*
X129642577Y-77645648D01*
X129662345Y-77678866D01*
X129675172Y-77714945D01*
X129682510Y-77763098D01*
X129685813Y-77832536D01*
X129686538Y-77924206D01*
X129683263Y-78049830D01*
X129671877Y-78144154D01*
X129650041Y-78214523D01*
X129615419Y-78268286D01*
X129565670Y-78312788D01*
X129562014Y-78315423D01*
X129512985Y-78342377D01*
X129453945Y-78355712D01*
X129378859Y-78359000D01*
X129256795Y-78359000D01*
X129256744Y-78477497D01*
X129255608Y-78543492D01*
X129248686Y-78582202D01*
X129230598Y-78605419D01*
X129195962Y-78624933D01*
X129187645Y-78628920D01*
X129148720Y-78647603D01*
X129118583Y-78659403D01*
X129096174Y-78660422D01*
X129080433Y-78646761D01*
X129070302Y-78614522D01*
X129064723Y-78559804D01*
X129062635Y-78478711D01*
X129062981Y-78367344D01*
X129064700Y-78221802D01*
X129065237Y-78178269D01*
X129067172Y-78028205D01*
X129068904Y-77930042D01*
X129256692Y-77930042D01*
X129257748Y-78013364D01*
X129262438Y-78067880D01*
X129273051Y-78103837D01*
X129291872Y-78131482D01*
X129304650Y-78144965D01*
X129356890Y-78184417D01*
X129403142Y-78187628D01*
X129450867Y-78155049D01*
X129452077Y-78153846D01*
X129471494Y-78128668D01*
X129483307Y-78094447D01*
X129489265Y-78041748D01*
X129491120Y-77961131D01*
X129491154Y-77943271D01*
X129486670Y-77832175D01*
X129472074Y-77755161D01*
X129445650Y-77708147D01*
X129405683Y-77687050D01*
X129382584Y-77684923D01*
X129327762Y-77694900D01*
X129290158Y-77727752D01*
X129267523Y-77787857D01*
X129257606Y-77879598D01*
X129256692Y-77930042D01*
X129068904Y-77930042D01*
X129069222Y-77912060D01*
X129071873Y-77824679D01*
X129075606Y-77760905D01*
X129080907Y-77715582D01*
X129088258Y-77683555D01*
X129098143Y-77659668D01*
X129111046Y-77638764D01*
X129116579Y-77630898D01*
X129189969Y-77556595D01*
X129282760Y-77514467D01*
X129390096Y-77502722D01*
X129483886Y-77514505D01*
G36*
X130986664Y-77525089D02*
X131049367Y-77561358D01*
X131092961Y-77597358D01*
X131124845Y-77635075D01*
X131146810Y-77681199D01*
X131160649Y-77742421D01*
X131168153Y-77825431D01*
X131171117Y-77936919D01*
X131171461Y-78017062D01*
X131171461Y-78312065D01*
X131005385Y-78386515D01*
X130995615Y-78063402D01*
X130991579Y-77942729D01*
X130987344Y-77855141D01*
X130982097Y-77794650D01*
X130975025Y-77755268D01*
X130965311Y-77731007D01*
X130952144Y-77715880D01*
X130947919Y-77712606D01*
X130883909Y-77687034D01*
X130819208Y-77697153D01*
X130780692Y-77724000D01*
X130765025Y-77743024D01*
X130754180Y-77767988D01*
X130747288Y-77805834D01*
X130743479Y-77863502D01*
X130741883Y-77947935D01*
X130741615Y-78035928D01*
X130741563Y-78146323D01*
X130739672Y-78224463D01*
X130733345Y-78277165D01*
X130719983Y-78311242D01*
X130696985Y-78333511D01*
X130661754Y-78350787D01*
X130614697Y-78368738D01*
X130563303Y-78388278D01*
X130569421Y-78041485D01*
X130571884Y-77916468D01*
X130574767Y-77824082D01*
X130578898Y-77757881D01*
X130585107Y-77711420D01*
X130594226Y-77678256D01*
X130607083Y-77651944D01*
X130622584Y-77628729D01*
X130697371Y-77554569D01*
X130788628Y-77511684D01*
X130887883Y-77501412D01*
X130986664Y-77525089D01*
X130986664Y-77525089D01*
G37*
X130986664Y-77525089D02*
X131049367Y-77561358D01*
X131092961Y-77597358D01*
X131124845Y-77635075D01*
X131146810Y-77681199D01*
X131160649Y-77742421D01*
X131168153Y-77825431D01*
X131171117Y-77936919D01*
X131171461Y-78017062D01*
X131171461Y-78312065D01*
X131005385Y-78386515D01*
X130995615Y-78063402D01*
X130991579Y-77942729D01*
X130987344Y-77855141D01*
X130982097Y-77794650D01*
X130975025Y-77755268D01*
X130965311Y-77731007D01*
X130952144Y-77715880D01*
X130947919Y-77712606D01*
X130883909Y-77687034D01*
X130819208Y-77697153D01*
X130780692Y-77724000D01*
X130765025Y-77743024D01*
X130754180Y-77767988D01*
X130747288Y-77805834D01*
X130743479Y-77863502D01*
X130741883Y-77947935D01*
X130741615Y-78035928D01*
X130741563Y-78146323D01*
X130739672Y-78224463D01*
X130733345Y-78277165D01*
X130719983Y-78311242D01*
X130696985Y-78333511D01*
X130661754Y-78350787D01*
X130614697Y-78368738D01*
X130563303Y-78388278D01*
X130569421Y-78041485D01*
X130571884Y-77916468D01*
X130574767Y-77824082D01*
X130578898Y-77757881D01*
X130585107Y-77711420D01*
X130594226Y-77678256D01*
X130607083Y-77651944D01*
X130622584Y-77628729D01*
X130697371Y-77554569D01*
X130788628Y-77511684D01*
X130887883Y-77501412D01*
X130986664Y-77525089D01*
G36*
X128731886Y-77517256D02*
X128823464Y-77565409D01*
X128891049Y-77642905D01*
X128915057Y-77692727D01*
X128933738Y-77767533D01*
X128943301Y-77862052D01*
X128944208Y-77965210D01*
X128936921Y-78065935D01*
X128921903Y-78153153D01*
X128899615Y-78215791D01*
X128892765Y-78226579D01*
X128811632Y-78307105D01*
X128715266Y-78355336D01*
X128610701Y-78369450D01*
X128504968Y-78347629D01*
X128475543Y-78334547D01*
X128418241Y-78294231D01*
X128367950Y-78240775D01*
X128363197Y-78233995D01*
X128343878Y-78201321D01*
X128331108Y-78166394D01*
X128323564Y-78120414D01*
X128319924Y-78054584D01*
X128318865Y-77960105D01*
X128318846Y-77938923D01*
X128318894Y-77932182D01*
X128514231Y-77932182D01*
X128515368Y-78021349D01*
X128519841Y-78080520D01*
X128529246Y-78118741D01*
X128545176Y-78145053D01*
X128553308Y-78153846D01*
X128600058Y-78187261D01*
X128645447Y-78185737D01*
X128691340Y-78156752D01*
X128718712Y-78125809D01*
X128734923Y-78080643D01*
X128744026Y-78009420D01*
X128744651Y-78001114D01*
X128746204Y-77872037D01*
X128729965Y-77776172D01*
X128696152Y-77714107D01*
X128644984Y-77686432D01*
X128626720Y-77684923D01*
X128578760Y-77692513D01*
X128545953Y-77718808D01*
X128525895Y-77769095D01*
X128516178Y-77848664D01*
X128514231Y-77932182D01*
X128318894Y-77932182D01*
X128319574Y-77838249D01*
X128322629Y-77767906D01*
X128329322Y-77719163D01*
X128340960Y-77683288D01*
X128358853Y-77651548D01*
X128362808Y-77645648D01*
X128429267Y-77566104D01*
X128501685Y-77519929D01*
X128589849Y-77501599D01*
X128619787Y-77500703D01*
X128731886Y-77517256D01*
X128731886Y-77517256D01*
G37*
X128731886Y-77517256D02*
X128823464Y-77565409D01*
X128891049Y-77642905D01*
X128915057Y-77692727D01*
X128933738Y-77767533D01*
X128943301Y-77862052D01*
X128944208Y-77965210D01*
X128936921Y-78065935D01*
X128921903Y-78153153D01*
X128899615Y-78215791D01*
X128892765Y-78226579D01*
X128811632Y-78307105D01*
X128715266Y-78355336D01*
X128610701Y-78369450D01*
X128504968Y-78347629D01*
X128475543Y-78334547D01*
X128418241Y-78294231D01*
X128367950Y-78240775D01*
X128363197Y-78233995D01*
X128343878Y-78201321D01*
X128331108Y-78166394D01*
X128323564Y-78120414D01*
X128319924Y-78054584D01*
X128318865Y-77960105D01*
X128318846Y-77938923D01*
X128318894Y-77932182D01*
X128514231Y-77932182D01*
X128515368Y-78021349D01*
X128519841Y-78080520D01*
X128529246Y-78118741D01*
X128545176Y-78145053D01*
X128553308Y-78153846D01*
X128600058Y-78187261D01*
X128645447Y-78185737D01*
X128691340Y-78156752D01*
X128718712Y-78125809D01*
X128734923Y-78080643D01*
X128744026Y-78009420D01*
X128744651Y-78001114D01*
X128746204Y-77872037D01*
X128729965Y-77776172D01*
X128696152Y-77714107D01*
X128644984Y-77686432D01*
X128626720Y-77684923D01*
X128578760Y-77692513D01*
X128545953Y-77718808D01*
X128525895Y-77769095D01*
X128516178Y-77848664D01*
X128514231Y-77932182D01*
X128318894Y-77932182D01*
X128319574Y-77838249D01*
X128322629Y-77767906D01*
X128329322Y-77719163D01*
X128340960Y-77683288D01*
X128358853Y-77651548D01*
X128362808Y-77645648D01*
X128429267Y-77566104D01*
X128501685Y-77519929D01*
X128589849Y-77501599D01*
X128619787Y-77500703D01*
X128731886Y-77517256D01*
G36*
X130249254Y-77529745D02*
X130326286Y-77581567D01*
X130385816Y-77656412D01*
X130421378Y-77751654D01*
X130428571Y-77821756D01*
X130427754Y-77851009D01*
X130420914Y-77873407D01*
X130402112Y-77893474D01*
X130365408Y-77915733D01*
X130304862Y-77944709D01*
X130214534Y-77984927D01*
X130214077Y-77985129D01*
X130130933Y-78023210D01*
X130062753Y-78057025D01*
X130016505Y-78082933D01*
X129999158Y-78097295D01*
X129999154Y-78097411D01*
X130014443Y-78128685D01*
X130050196Y-78163157D01*
X130091242Y-78187990D01*
X130112037Y-78192923D01*
X130168770Y-78175862D01*
X130217627Y-78133133D01*
X130241465Y-78086155D01*
X130264397Y-78051522D01*
X130309318Y-78012081D01*
X130362123Y-77978009D01*
X130408710Y-77959480D01*
X130418452Y-77958462D01*
X130429418Y-77975215D01*
X130430079Y-78018039D01*
X130422020Y-78075781D01*
X130406827Y-78137289D01*
X130386086Y-78191409D01*
X130385038Y-78193510D01*
X130322621Y-78280660D01*
X130241726Y-78339939D01*
X130149856Y-78369034D01*
X130054513Y-78365634D01*
X129963198Y-78327428D01*
X129959138Y-78324741D01*
X129887306Y-78259642D01*
X129840073Y-78174705D01*
X129813934Y-78063021D01*
X129810426Y-78031643D01*
X129804213Y-77883536D01*
X129811661Y-77814468D01*
X129999154Y-77814468D01*
X130001590Y-77857552D01*
X130014914Y-77870126D01*
X130048132Y-77860719D01*
X130100494Y-77838483D01*
X130159024Y-77810610D01*
X130160479Y-77809872D01*
X130210089Y-77783777D01*
X130230000Y-77766363D01*
X130225090Y-77748107D01*
X130204416Y-77724120D01*
X130151819Y-77689406D01*
X130095177Y-77686856D01*
X130044369Y-77712119D01*
X130009276Y-77760847D01*
X129999154Y-77814468D01*
X129811661Y-77814468D01*
X129816992Y-77765036D01*
X129849778Y-77671055D01*
X129895421Y-77605215D01*
X129977802Y-77538681D01*
X130068546Y-77505676D01*
X130161185Y-77503573D01*
X130249254Y-77529745D01*
X130249254Y-77529745D01*
G37*
X130249254Y-77529745D02*
X130326286Y-77581567D01*
X130385816Y-77656412D01*
X130421378Y-77751654D01*
X130428571Y-77821756D01*
X130427754Y-77851009D01*
X130420914Y-77873407D01*
X130402112Y-77893474D01*
X130365408Y-77915733D01*
X130304862Y-77944709D01*
X130214534Y-77984927D01*
X130214077Y-77985129D01*
X130130933Y-78023210D01*
X130062753Y-78057025D01*
X130016505Y-78082933D01*
X129999158Y-78097295D01*
X129999154Y-78097411D01*
X130014443Y-78128685D01*
X130050196Y-78163157D01*
X130091242Y-78187990D01*
X130112037Y-78192923D01*
X130168770Y-78175862D01*
X130217627Y-78133133D01*
X130241465Y-78086155D01*
X130264397Y-78051522D01*
X130309318Y-78012081D01*
X130362123Y-77978009D01*
X130408710Y-77959480D01*
X130418452Y-77958462D01*
X130429418Y-77975215D01*
X130430079Y-78018039D01*
X130422020Y-78075781D01*
X130406827Y-78137289D01*
X130386086Y-78191409D01*
X130385038Y-78193510D01*
X130322621Y-78280660D01*
X130241726Y-78339939D01*
X130149856Y-78369034D01*
X130054513Y-78365634D01*
X129963198Y-78327428D01*
X129959138Y-78324741D01*
X129887306Y-78259642D01*
X129840073Y-78174705D01*
X129813934Y-78063021D01*
X129810426Y-78031643D01*
X129804213Y-77883536D01*
X129811661Y-77814468D01*
X129999154Y-77814468D01*
X130001590Y-77857552D01*
X130014914Y-77870126D01*
X130048132Y-77860719D01*
X130100494Y-77838483D01*
X130159024Y-77810610D01*
X130160479Y-77809872D01*
X130210089Y-77783777D01*
X130230000Y-77766363D01*
X130225090Y-77748107D01*
X130204416Y-77724120D01*
X130151819Y-77689406D01*
X130095177Y-77686856D01*
X130044369Y-77712119D01*
X130009276Y-77760847D01*
X129999154Y-77814468D01*
X129811661Y-77814468D01*
X129816992Y-77765036D01*
X129849778Y-77671055D01*
X129895421Y-77605215D01*
X129977802Y-77538681D01*
X130068546Y-77505676D01*
X130161185Y-77503573D01*
X130249254Y-77529745D01*
G36*
X131874846Y-77422120D02*
X131880572Y-77501980D01*
X131887149Y-77549039D01*
X131896262Y-77569566D01*
X131909598Y-77569829D01*
X131913923Y-77567378D01*
X131971444Y-77549636D01*
X132046268Y-77550672D01*
X132122339Y-77568910D01*
X132169918Y-77592505D01*
X132218702Y-77630198D01*
X132254364Y-77672855D01*
X132278845Y-77727057D01*
X132294087Y-77799384D01*
X132302030Y-77896419D01*
X132304616Y-78024742D01*
X132304662Y-78049358D01*
X132304692Y-78325870D01*
X132243161Y-78347320D01*
X132199459Y-78361912D01*
X132175482Y-78368706D01*
X132174777Y-78368769D01*
X132172415Y-78350345D01*
X132170406Y-78299526D01*
X132168901Y-78222993D01*
X132168053Y-78127430D01*
X132167923Y-78069329D01*
X132167651Y-77954771D01*
X132166252Y-77872667D01*
X132162849Y-77816393D01*
X132156567Y-77779326D01*
X132146529Y-77754844D01*
X132131861Y-77736325D01*
X132122702Y-77727406D01*
X132059789Y-77691466D01*
X131991136Y-77688775D01*
X131928848Y-77719170D01*
X131917329Y-77730144D01*
X131900433Y-77750779D01*
X131888714Y-77775256D01*
X131881233Y-77810647D01*
X131877054Y-77864026D01*
X131875237Y-77942466D01*
X131874846Y-78050617D01*
X131874846Y-78325870D01*
X131813315Y-78347320D01*
X131769613Y-78361912D01*
X131745636Y-78368706D01*
X131744930Y-78368769D01*
X131743126Y-78350069D01*
X131741500Y-78297322D01*
X131740117Y-78215557D01*
X131739042Y-78109805D01*
X131738340Y-77985094D01*
X131738077Y-77846455D01*
X131738077Y-77311806D01*
X131865077Y-77258236D01*
X131874846Y-77422120D01*
X131874846Y-77422120D01*
G37*
X131874846Y-77422120D02*
X131880572Y-77501980D01*
X131887149Y-77549039D01*
X131896262Y-77569566D01*
X131909598Y-77569829D01*
X131913923Y-77567378D01*
X131971444Y-77549636D01*
X132046268Y-77550672D01*
X132122339Y-77568910D01*
X132169918Y-77592505D01*
X132218702Y-77630198D01*
X132254364Y-77672855D01*
X132278845Y-77727057D01*
X132294087Y-77799384D01*
X132302030Y-77896419D01*
X132304616Y-78024742D01*
X132304662Y-78049358D01*
X132304692Y-78325870D01*
X132243161Y-78347320D01*
X132199459Y-78361912D01*
X132175482Y-78368706D01*
X132174777Y-78368769D01*
X132172415Y-78350345D01*
X132170406Y-78299526D01*
X132168901Y-78222993D01*
X132168053Y-78127430D01*
X132167923Y-78069329D01*
X132167651Y-77954771D01*
X132166252Y-77872667D01*
X132162849Y-77816393D01*
X132156567Y-77779326D01*
X132146529Y-77754844D01*
X132131861Y-77736325D01*
X132122702Y-77727406D01*
X132059789Y-77691466D01*
X131991136Y-77688775D01*
X131928848Y-77719170D01*
X131917329Y-77730144D01*
X131900433Y-77750779D01*
X131888714Y-77775256D01*
X131881233Y-77810647D01*
X131877054Y-77864026D01*
X131875237Y-77942466D01*
X131874846Y-78050617D01*
X131874846Y-78325870D01*
X131813315Y-78347320D01*
X131769613Y-78361912D01*
X131745636Y-78368706D01*
X131744930Y-78368769D01*
X131743126Y-78350069D01*
X131741500Y-78297322D01*
X131740117Y-78215557D01*
X131739042Y-78109805D01*
X131738340Y-77985094D01*
X131738077Y-77846455D01*
X131738077Y-77311806D01*
X131865077Y-77258236D01*
X131874846Y-77422120D01*
G36*
X132768501Y-77556303D02*
X132845060Y-77584733D01*
X132845936Y-77585279D01*
X132893285Y-77620127D01*
X132928241Y-77660852D01*
X132952825Y-77713925D01*
X132969062Y-77785814D01*
X132978975Y-77882992D01*
X132984586Y-78011928D01*
X132985077Y-78030298D01*
X132992141Y-78307287D01*
X132932695Y-78338028D01*
X132889681Y-78358802D01*
X132863710Y-78368646D01*
X132862509Y-78368769D01*
X132858014Y-78350606D01*
X132854444Y-78301612D01*
X132852248Y-78230031D01*
X132851769Y-78172068D01*
X132851758Y-78078170D01*
X132847466Y-78019203D01*
X132832503Y-77991079D01*
X132800482Y-77989706D01*
X132745014Y-78010998D01*
X132661269Y-78050136D01*
X132599689Y-78082643D01*
X132568017Y-78110845D01*
X132558706Y-78141582D01*
X132558692Y-78143104D01*
X132574057Y-78196054D01*
X132619547Y-78224660D01*
X132689166Y-78228803D01*
X132739313Y-78228084D01*
X132765754Y-78242527D01*
X132782243Y-78277218D01*
X132791733Y-78321416D01*
X132778057Y-78346493D01*
X132772907Y-78350082D01*
X132724425Y-78364496D01*
X132656531Y-78366537D01*
X132586612Y-78356983D01*
X132537068Y-78339522D01*
X132468570Y-78281364D01*
X132429634Y-78200408D01*
X132421923Y-78137160D01*
X132427807Y-78080111D01*
X132449101Y-78033542D01*
X132491265Y-77992181D01*
X132559759Y-77950755D01*
X132660044Y-77903993D01*
X132666154Y-77901350D01*
X132756490Y-77859617D01*
X132812235Y-77825391D01*
X132836129Y-77794635D01*
X132830913Y-77763311D01*
X132799328Y-77727383D01*
X132789883Y-77719116D01*
X132726617Y-77687058D01*
X132661064Y-77688407D01*
X132603972Y-77719838D01*
X132566093Y-77778024D01*
X132562574Y-77789446D01*
X132528300Y-77844837D01*
X132484809Y-77871518D01*
X132421923Y-77897960D01*
X132421923Y-77829548D01*
X132441052Y-77730110D01*
X132497831Y-77638902D01*
X132527378Y-77608389D01*
X132594542Y-77569228D01*
X132679956Y-77551500D01*
X132768501Y-77556303D01*
X132768501Y-77556303D01*
G37*
X132768501Y-77556303D02*
X132845060Y-77584733D01*
X132845936Y-77585279D01*
X132893285Y-77620127D01*
X132928241Y-77660852D01*
X132952825Y-77713925D01*
X132969062Y-77785814D01*
X132978975Y-77882992D01*
X132984586Y-78011928D01*
X132985077Y-78030298D01*
X132992141Y-78307287D01*
X132932695Y-78338028D01*
X132889681Y-78358802D01*
X132863710Y-78368646D01*
X132862509Y-78368769D01*
X132858014Y-78350606D01*
X132854444Y-78301612D01*
X132852248Y-78230031D01*
X132851769Y-78172068D01*
X132851758Y-78078170D01*
X132847466Y-78019203D01*
X132832503Y-77991079D01*
X132800482Y-77989706D01*
X132745014Y-78010998D01*
X132661269Y-78050136D01*
X132599689Y-78082643D01*
X132568017Y-78110845D01*
X132558706Y-78141582D01*
X132558692Y-78143104D01*
X132574057Y-78196054D01*
X132619547Y-78224660D01*
X132689166Y-78228803D01*
X132739313Y-78228084D01*
X132765754Y-78242527D01*
X132782243Y-78277218D01*
X132791733Y-78321416D01*
X132778057Y-78346493D01*
X132772907Y-78350082D01*
X132724425Y-78364496D01*
X132656531Y-78366537D01*
X132586612Y-78356983D01*
X132537068Y-78339522D01*
X132468570Y-78281364D01*
X132429634Y-78200408D01*
X132421923Y-78137160D01*
X132427807Y-78080111D01*
X132449101Y-78033542D01*
X132491265Y-77992181D01*
X132559759Y-77950755D01*
X132660044Y-77903993D01*
X132666154Y-77901350D01*
X132756490Y-77859617D01*
X132812235Y-77825391D01*
X132836129Y-77794635D01*
X132830913Y-77763311D01*
X132799328Y-77727383D01*
X132789883Y-77719116D01*
X132726617Y-77687058D01*
X132661064Y-77688407D01*
X132603972Y-77719838D01*
X132566093Y-77778024D01*
X132562574Y-77789446D01*
X132528300Y-77844837D01*
X132484809Y-77871518D01*
X132421923Y-77897960D01*
X132421923Y-77829548D01*
X132441052Y-77730110D01*
X132497831Y-77638902D01*
X132527378Y-77608389D01*
X132594542Y-77569228D01*
X132679956Y-77551500D01*
X132768501Y-77556303D01*
G36*
X133428362Y-77554670D02*
X133517117Y-77587421D01*
X133589022Y-77645350D01*
X133617144Y-77686128D01*
X133647802Y-77760954D01*
X133647165Y-77815058D01*
X133614987Y-77851446D01*
X133603081Y-77857633D01*
X133551675Y-77876925D01*
X133525422Y-77871982D01*
X133516530Y-77839587D01*
X133516077Y-77821692D01*
X133499797Y-77755859D01*
X133457365Y-77709807D01*
X133398388Y-77687564D01*
X133332475Y-77693161D01*
X133278895Y-77722229D01*
X133260798Y-77738810D01*
X133247971Y-77758925D01*
X133239306Y-77789332D01*
X133233696Y-77836788D01*
X133230035Y-77908050D01*
X133227215Y-78009875D01*
X133226484Y-78042115D01*
X133223820Y-78152410D01*
X133220792Y-78230036D01*
X133216250Y-78281396D01*
X133209046Y-78312890D01*
X133198033Y-78330920D01*
X133182060Y-78341888D01*
X133171834Y-78346733D01*
X133128406Y-78363301D01*
X133102842Y-78368769D01*
X133094395Y-78350507D01*
X133089239Y-78295296D01*
X133087346Y-78202499D01*
X133088689Y-78071478D01*
X133089107Y-78051269D01*
X133092058Y-77931733D01*
X133095548Y-77844449D01*
X133100514Y-77782591D01*
X133107893Y-77739336D01*
X133118624Y-77707860D01*
X133133645Y-77681339D01*
X133141502Y-77669975D01*
X133186553Y-77619692D01*
X133236940Y-77580581D01*
X133243108Y-77577167D01*
X133333458Y-77550212D01*
X133428362Y-77554670D01*
X133428362Y-77554670D01*
G37*
X133428362Y-77554670D02*
X133517117Y-77587421D01*
X133589022Y-77645350D01*
X133617144Y-77686128D01*
X133647802Y-77760954D01*
X133647165Y-77815058D01*
X133614987Y-77851446D01*
X133603081Y-77857633D01*
X133551675Y-77876925D01*
X133525422Y-77871982D01*
X133516530Y-77839587D01*
X133516077Y-77821692D01*
X133499797Y-77755859D01*
X133457365Y-77709807D01*
X133398388Y-77687564D01*
X133332475Y-77693161D01*
X133278895Y-77722229D01*
X133260798Y-77738810D01*
X133247971Y-77758925D01*
X133239306Y-77789332D01*
X133233696Y-77836788D01*
X133230035Y-77908050D01*
X133227215Y-78009875D01*
X133226484Y-78042115D01*
X133223820Y-78152410D01*
X133220792Y-78230036D01*
X133216250Y-78281396D01*
X133209046Y-78312890D01*
X133198033Y-78330920D01*
X133182060Y-78341888D01*
X133171834Y-78346733D01*
X133128406Y-78363301D01*
X133102842Y-78368769D01*
X133094395Y-78350507D01*
X133089239Y-78295296D01*
X133087346Y-78202499D01*
X133088689Y-78071478D01*
X133089107Y-78051269D01*
X133092058Y-77931733D01*
X133095548Y-77844449D01*
X133100514Y-77782591D01*
X133107893Y-77739336D01*
X133118624Y-77707860D01*
X133133645Y-77681339D01*
X133141502Y-77669975D01*
X133186553Y-77619692D01*
X133236940Y-77580581D01*
X133243108Y-77577167D01*
X133333458Y-77550212D01*
X133428362Y-77554670D01*
G36*
X134317081Y-77710289D02*
X134316833Y-77856320D01*
X134315872Y-77968655D01*
X134313794Y-78052678D01*
X134310193Y-78113769D01*
X134304665Y-78157309D01*
X134296804Y-78188679D01*
X134286207Y-78213262D01*
X134278182Y-78227294D01*
X134211728Y-78303388D01*
X134127470Y-78351084D01*
X134034249Y-78368199D01*
X133940900Y-78352546D01*
X133885312Y-78324418D01*
X133826957Y-78275760D01*
X133787186Y-78216333D01*
X133763190Y-78138507D01*
X133752161Y-78034652D01*
X133750599Y-77958462D01*
X133750809Y-77952986D01*
X133887308Y-77952986D01*
X133888141Y-78040355D01*
X133891961Y-78098192D01*
X133900746Y-78136029D01*
X133916474Y-78163398D01*
X133935266Y-78184042D01*
X133998375Y-78223890D01*
X134066137Y-78227295D01*
X134130179Y-78194025D01*
X134135164Y-78189517D01*
X134156439Y-78166067D01*
X134169779Y-78138166D01*
X134177001Y-78096641D01*
X134179923Y-78032316D01*
X134180385Y-77961200D01*
X134179383Y-77871858D01*
X134175238Y-77812258D01*
X134166236Y-77773089D01*
X134150667Y-77745040D01*
X134137902Y-77730144D01*
X134078600Y-77692575D01*
X134010301Y-77688057D01*
X133945110Y-77716753D01*
X133932528Y-77727406D01*
X133911111Y-77751063D01*
X133897744Y-77779251D01*
X133890566Y-77821245D01*
X133887719Y-77886319D01*
X133887308Y-77952986D01*
X133750809Y-77952986D01*
X133755322Y-77835765D01*
X133771362Y-77743577D01*
X133801528Y-77674269D01*
X133848629Y-77620211D01*
X133885312Y-77592505D01*
X133951990Y-77562572D01*
X134029272Y-77548678D01*
X134101110Y-77552397D01*
X134141308Y-77567400D01*
X134157082Y-77571670D01*
X134167550Y-77555750D01*
X134174856Y-77513089D01*
X134180385Y-77448106D01*
X134186437Y-77375732D01*
X134194844Y-77332187D01*
X134210141Y-77307287D01*
X134236864Y-77290845D01*
X134253654Y-77283564D01*
X134317154Y-77256963D01*
X134317081Y-77710289D01*
X134317081Y-77710289D01*
G37*
X134317081Y-77710289D02*
X134316833Y-77856320D01*
X134315872Y-77968655D01*
X134313794Y-78052678D01*
X134310193Y-78113769D01*
X134304665Y-78157309D01*
X134296804Y-78188679D01*
X134286207Y-78213262D01*
X134278182Y-78227294D01*
X134211728Y-78303388D01*
X134127470Y-78351084D01*
X134034249Y-78368199D01*
X133940900Y-78352546D01*
X133885312Y-78324418D01*
X133826957Y-78275760D01*
X133787186Y-78216333D01*
X133763190Y-78138507D01*
X133752161Y-78034652D01*
X133750599Y-77958462D01*
X133750809Y-77952986D01*
X133887308Y-77952986D01*
X133888141Y-78040355D01*
X133891961Y-78098192D01*
X133900746Y-78136029D01*
X133916474Y-78163398D01*
X133935266Y-78184042D01*
X133998375Y-78223890D01*
X134066137Y-78227295D01*
X134130179Y-78194025D01*
X134135164Y-78189517D01*
X134156439Y-78166067D01*
X134169779Y-78138166D01*
X134177001Y-78096641D01*
X134179923Y-78032316D01*
X134180385Y-77961200D01*
X134179383Y-77871858D01*
X134175238Y-77812258D01*
X134166236Y-77773089D01*
X134150667Y-77745040D01*
X134137902Y-77730144D01*
X134078600Y-77692575D01*
X134010301Y-77688057D01*
X133945110Y-77716753D01*
X133932528Y-77727406D01*
X133911111Y-77751063D01*
X133897744Y-77779251D01*
X133890566Y-77821245D01*
X133887719Y-77886319D01*
X133887308Y-77952986D01*
X133750809Y-77952986D01*
X133755322Y-77835765D01*
X133771362Y-77743577D01*
X133801528Y-77674269D01*
X133848629Y-77620211D01*
X133885312Y-77592505D01*
X133951990Y-77562572D01*
X134029272Y-77548678D01*
X134101110Y-77552397D01*
X134141308Y-77567400D01*
X134157082Y-77571670D01*
X134167550Y-77555750D01*
X134174856Y-77513089D01*
X134180385Y-77448106D01*
X134186437Y-77375732D01*
X134194844Y-77332187D01*
X134210141Y-77307287D01*
X134236864Y-77290845D01*
X134253654Y-77283564D01*
X134317154Y-77256963D01*
X134317081Y-77710289D01*
G36*
X135110929Y-77566662D02*
X135113911Y-77618068D01*
X135116247Y-77696192D01*
X135117749Y-77794857D01*
X135118231Y-77898343D01*
X135118231Y-78248533D01*
X135056401Y-78310363D01*
X135013793Y-78348462D01*
X134976390Y-78363895D01*
X134925270Y-78362918D01*
X134904978Y-78360433D01*
X134841554Y-78353200D01*
X134789095Y-78349055D01*
X134776308Y-78348672D01*
X134733199Y-78351176D01*
X134671544Y-78357462D01*
X134647638Y-78360433D01*
X134588922Y-78365028D01*
X134549464Y-78355046D01*
X134510338Y-78324228D01*
X134496215Y-78310363D01*
X134434385Y-78248533D01*
X134434385Y-77593503D01*
X134484150Y-77570829D01*
X134527002Y-77554034D01*
X134552073Y-77548154D01*
X134558501Y-77566736D01*
X134564509Y-77618655D01*
X134569697Y-77698172D01*
X134573664Y-77799546D01*
X134575577Y-77885192D01*
X134580923Y-78222231D01*
X134627560Y-78228825D01*
X134669976Y-78224214D01*
X134690760Y-78209287D01*
X134696570Y-78181377D01*
X134701530Y-78121925D01*
X134705246Y-78038466D01*
X134707324Y-77938532D01*
X134707624Y-77887104D01*
X134707923Y-77591054D01*
X134769454Y-77569604D01*
X134813004Y-77555020D01*
X134836694Y-77548219D01*
X134837377Y-77548154D01*
X134839754Y-77566642D01*
X134842366Y-77617906D01*
X134844995Y-77695649D01*
X134847421Y-77793574D01*
X134849115Y-77885192D01*
X134854461Y-78222231D01*
X134971692Y-78222231D01*
X134977072Y-77914746D01*
X134982451Y-77607261D01*
X135039601Y-77577707D01*
X135081797Y-77557413D01*
X135106770Y-77548204D01*
X135107491Y-77548154D01*
X135110929Y-77566662D01*
X135110929Y-77566662D01*
G37*
X135110929Y-77566662D02*
X135113911Y-77618068D01*
X135116247Y-77696192D01*
X135117749Y-77794857D01*
X135118231Y-77898343D01*
X135118231Y-78248533D01*
X135056401Y-78310363D01*
X135013793Y-78348462D01*
X134976390Y-78363895D01*
X134925270Y-78362918D01*
X134904978Y-78360433D01*
X134841554Y-78353200D01*
X134789095Y-78349055D01*
X134776308Y-78348672D01*
X134733199Y-78351176D01*
X134671544Y-78357462D01*
X134647638Y-78360433D01*
X134588922Y-78365028D01*
X134549464Y-78355046D01*
X134510338Y-78324228D01*
X134496215Y-78310363D01*
X134434385Y-78248533D01*
X134434385Y-77593503D01*
X134484150Y-77570829D01*
X134527002Y-77554034D01*
X134552073Y-77548154D01*
X134558501Y-77566736D01*
X134564509Y-77618655D01*
X134569697Y-77698172D01*
X134573664Y-77799546D01*
X134575577Y-77885192D01*
X134580923Y-78222231D01*
X134627560Y-78228825D01*
X134669976Y-78224214D01*
X134690760Y-78209287D01*
X134696570Y-78181377D01*
X134701530Y-78121925D01*
X134705246Y-78038466D01*
X134707324Y-77938532D01*
X134707624Y-77887104D01*
X134707923Y-77591054D01*
X134769454Y-77569604D01*
X134813004Y-77555020D01*
X134836694Y-77548219D01*
X134837377Y-77548154D01*
X134839754Y-77566642D01*
X134842366Y-77617906D01*
X134844995Y-77695649D01*
X134847421Y-77793574D01*
X134849115Y-77885192D01*
X134854461Y-78222231D01*
X134971692Y-78222231D01*
X134977072Y-77914746D01*
X134982451Y-77607261D01*
X135039601Y-77577707D01*
X135081797Y-77557413D01*
X135106770Y-77548204D01*
X135107491Y-77548154D01*
X135110929Y-77566662D01*
G36*
X135602333Y-77563528D02*
X135658590Y-77589117D01*
X135702747Y-77620124D01*
X135735101Y-77654795D01*
X135757438Y-77699520D01*
X135771546Y-77760692D01*
X135779211Y-77844701D01*
X135782220Y-77957940D01*
X135782538Y-78032509D01*
X135782538Y-78323420D01*
X135732773Y-78346095D01*
X135693576Y-78362667D01*
X135674157Y-78368769D01*
X135670442Y-78350610D01*
X135667495Y-78301648D01*
X135665691Y-78230153D01*
X135665308Y-78173385D01*
X135663661Y-78091371D01*
X135659222Y-78026309D01*
X135652740Y-77986467D01*
X135647590Y-77978000D01*
X135612977Y-77986646D01*
X135558640Y-78008823D01*
X135495722Y-78038886D01*
X135435368Y-78071192D01*
X135388721Y-78100098D01*
X135366926Y-78119961D01*
X135366839Y-78120175D01*
X135368714Y-78156935D01*
X135385525Y-78192026D01*
X135415039Y-78220528D01*
X135458116Y-78230061D01*
X135494932Y-78228950D01*
X135547074Y-78228133D01*
X135574444Y-78240349D01*
X135590882Y-78272624D01*
X135592955Y-78278710D01*
X135600081Y-78324739D01*
X135581024Y-78352687D01*
X135531353Y-78366007D01*
X135477697Y-78368470D01*
X135381142Y-78350210D01*
X135331159Y-78324131D01*
X135269429Y-78262868D01*
X135236690Y-78187670D01*
X135233753Y-78108211D01*
X135261424Y-78034167D01*
X135303047Y-77987769D01*
X135344604Y-77961793D01*
X135409922Y-77928907D01*
X135486038Y-77895557D01*
X135498726Y-77890461D01*
X135582333Y-77853565D01*
X135630530Y-77821046D01*
X135646030Y-77788718D01*
X135631550Y-77752394D01*
X135606692Y-77724000D01*
X135547939Y-77689039D01*
X135483293Y-77686417D01*
X135424008Y-77713358D01*
X135381339Y-77767088D01*
X135375739Y-77780950D01*
X135343133Y-77831936D01*
X135295530Y-77869787D01*
X135235461Y-77900850D01*
X135235461Y-77812768D01*
X135238997Y-77758951D01*
X135254156Y-77716534D01*
X135287768Y-77671279D01*
X135320035Y-77636420D01*
X135370209Y-77587062D01*
X135409193Y-77560547D01*
X135451064Y-77549911D01*
X135498460Y-77548154D01*
X135602333Y-77563528D01*
X135602333Y-77563528D01*
G37*
X135602333Y-77563528D02*
X135658590Y-77589117D01*
X135702747Y-77620124D01*
X135735101Y-77654795D01*
X135757438Y-77699520D01*
X135771546Y-77760692D01*
X135779211Y-77844701D01*
X135782220Y-77957940D01*
X135782538Y-78032509D01*
X135782538Y-78323420D01*
X135732773Y-78346095D01*
X135693576Y-78362667D01*
X135674157Y-78368769D01*
X135670442Y-78350610D01*
X135667495Y-78301648D01*
X135665691Y-78230153D01*
X135665308Y-78173385D01*
X135663661Y-78091371D01*
X135659222Y-78026309D01*
X135652740Y-77986467D01*
X135647590Y-77978000D01*
X135612977Y-77986646D01*
X135558640Y-78008823D01*
X135495722Y-78038886D01*
X135435368Y-78071192D01*
X135388721Y-78100098D01*
X135366926Y-78119961D01*
X135366839Y-78120175D01*
X135368714Y-78156935D01*
X135385525Y-78192026D01*
X135415039Y-78220528D01*
X135458116Y-78230061D01*
X135494932Y-78228950D01*
X135547074Y-78228133D01*
X135574444Y-78240349D01*
X135590882Y-78272624D01*
X135592955Y-78278710D01*
X135600081Y-78324739D01*
X135581024Y-78352687D01*
X135531353Y-78366007D01*
X135477697Y-78368470D01*
X135381142Y-78350210D01*
X135331159Y-78324131D01*
X135269429Y-78262868D01*
X135236690Y-78187670D01*
X135233753Y-78108211D01*
X135261424Y-78034167D01*
X135303047Y-77987769D01*
X135344604Y-77961793D01*
X135409922Y-77928907D01*
X135486038Y-77895557D01*
X135498726Y-77890461D01*
X135582333Y-77853565D01*
X135630530Y-77821046D01*
X135646030Y-77788718D01*
X135631550Y-77752394D01*
X135606692Y-77724000D01*
X135547939Y-77689039D01*
X135483293Y-77686417D01*
X135424008Y-77713358D01*
X135381339Y-77767088D01*
X135375739Y-77780950D01*
X135343133Y-77831936D01*
X135295530Y-77869787D01*
X135235461Y-77900850D01*
X135235461Y-77812768D01*
X135238997Y-77758951D01*
X135254156Y-77716534D01*
X135287768Y-77671279D01*
X135320035Y-77636420D01*
X135370209Y-77587062D01*
X135409193Y-77560547D01*
X135451064Y-77549911D01*
X135498460Y-77548154D01*
X135602333Y-77563528D01*
G36*
X136285807Y-77566782D02*
X136309161Y-77576988D01*
X136364902Y-77621134D01*
X136412569Y-77684967D01*
X136442048Y-77753087D01*
X136446846Y-77786670D01*
X136430760Y-77833556D01*
X136395475Y-77858365D01*
X136357644Y-77873387D01*
X136340321Y-77876155D01*
X136331886Y-77856066D01*
X136315230Y-77812351D01*
X136307923Y-77792598D01*
X136266948Y-77724271D01*
X136207622Y-77690191D01*
X136131552Y-77691239D01*
X136125918Y-77692581D01*
X136085305Y-77711836D01*
X136055448Y-77749375D01*
X136035055Y-77809809D01*
X136022836Y-77897751D01*
X136017500Y-78017813D01*
X136017000Y-78081698D01*
X136016752Y-78182403D01*
X136015126Y-78251054D01*
X136010801Y-78294673D01*
X136002454Y-78320282D01*
X135988765Y-78334903D01*
X135968411Y-78345558D01*
X135967234Y-78346095D01*
X135928038Y-78362667D01*
X135908619Y-78368769D01*
X135905635Y-78350319D01*
X135903081Y-78299323D01*
X135901140Y-78222308D01*
X135899997Y-78125805D01*
X135899769Y-78055184D01*
X135900932Y-77918525D01*
X135905479Y-77814851D01*
X135914999Y-77738108D01*
X135931081Y-77682246D01*
X135955313Y-77641212D01*
X135989286Y-77608954D01*
X136022833Y-77586440D01*
X136103499Y-77556476D01*
X136197381Y-77549718D01*
X136285807Y-77566782D01*
X136285807Y-77566782D01*
G37*
X136285807Y-77566782D02*
X136309161Y-77576988D01*
X136364902Y-77621134D01*
X136412569Y-77684967D01*
X136442048Y-77753087D01*
X136446846Y-77786670D01*
X136430760Y-77833556D01*
X136395475Y-77858365D01*
X136357644Y-77873387D01*
X136340321Y-77876155D01*
X136331886Y-77856066D01*
X136315230Y-77812351D01*
X136307923Y-77792598D01*
X136266948Y-77724271D01*
X136207622Y-77690191D01*
X136131552Y-77691239D01*
X136125918Y-77692581D01*
X136085305Y-77711836D01*
X136055448Y-77749375D01*
X136035055Y-77809809D01*
X136022836Y-77897751D01*
X136017500Y-78017813D01*
X136017000Y-78081698D01*
X136016752Y-78182403D01*
X136015126Y-78251054D01*
X136010801Y-78294673D01*
X136002454Y-78320282D01*
X135988765Y-78334903D01*
X135968411Y-78345558D01*
X135967234Y-78346095D01*
X135928038Y-78362667D01*
X135908619Y-78368769D01*
X135905635Y-78350319D01*
X135903081Y-78299323D01*
X135901140Y-78222308D01*
X135899997Y-78125805D01*
X135899769Y-78055184D01*
X135900932Y-77918525D01*
X135905479Y-77814851D01*
X135914999Y-77738108D01*
X135931081Y-77682246D01*
X135955313Y-77641212D01*
X135989286Y-77608954D01*
X136022833Y-77586440D01*
X136103499Y-77556476D01*
X136197381Y-77549718D01*
X136285807Y-77566782D01*
G36*
X136960224Y-77577838D02*
X137037528Y-77628361D01*
X137074814Y-77673590D01*
X137104353Y-77755663D01*
X137106699Y-77820607D01*
X137101385Y-77907445D01*
X136901115Y-77995103D01*
X136803739Y-78039887D01*
X136740113Y-78075913D01*
X136707029Y-78107117D01*
X136701280Y-78137436D01*
X136719658Y-78170805D01*
X136739923Y-78192923D01*
X136798889Y-78228393D01*
X136863024Y-78230879D01*
X136921926Y-78203235D01*
X136965197Y-78148320D01*
X136972936Y-78128928D01*
X137010006Y-78068364D01*
X137052654Y-78042552D01*
X137111154Y-78020471D01*
X137111154Y-78104184D01*
X137105982Y-78161150D01*
X137085723Y-78209189D01*
X137043262Y-78264346D01*
X137036951Y-78271514D01*
X136989720Y-78320585D01*
X136949121Y-78346920D01*
X136898328Y-78359035D01*
X136856220Y-78363003D01*
X136780902Y-78363991D01*
X136727286Y-78351466D01*
X136693838Y-78332869D01*
X136641268Y-78291975D01*
X136604879Y-78247748D01*
X136581850Y-78192126D01*
X136569359Y-78117047D01*
X136564587Y-78014449D01*
X136564206Y-77962376D01*
X136565501Y-77899948D01*
X136683471Y-77899948D01*
X136684839Y-77933438D01*
X136688249Y-77938923D01*
X136710753Y-77931472D01*
X136759182Y-77911753D01*
X136823908Y-77883718D01*
X136837443Y-77877692D01*
X136919244Y-77836096D01*
X136964312Y-77799538D01*
X136974217Y-77765296D01*
X136950526Y-77730648D01*
X136930960Y-77715339D01*
X136860360Y-77684721D01*
X136794280Y-77689780D01*
X136738959Y-77727151D01*
X136700636Y-77793473D01*
X136688349Y-77846116D01*
X136683471Y-77899948D01*
X136565501Y-77899948D01*
X136566730Y-77840720D01*
X136576032Y-77750710D01*
X136594460Y-77685167D01*
X136624360Y-77636912D01*
X136668080Y-77598767D01*
X136687141Y-77586440D01*
X136773726Y-77554336D01*
X136868522Y-77552316D01*
X136960224Y-77577838D01*
X136960224Y-77577838D01*
G37*
X136960224Y-77577838D02*
X137037528Y-77628361D01*
X137074814Y-77673590D01*
X137104353Y-77755663D01*
X137106699Y-77820607D01*
X137101385Y-77907445D01*
X136901115Y-77995103D01*
X136803739Y-78039887D01*
X136740113Y-78075913D01*
X136707029Y-78107117D01*
X136701280Y-78137436D01*
X136719658Y-78170805D01*
X136739923Y-78192923D01*
X136798889Y-78228393D01*
X136863024Y-78230879D01*
X136921926Y-78203235D01*
X136965197Y-78148320D01*
X136972936Y-78128928D01*
X137010006Y-78068364D01*
X137052654Y-78042552D01*
X137111154Y-78020471D01*
X137111154Y-78104184D01*
X137105982Y-78161150D01*
X137085723Y-78209189D01*
X137043262Y-78264346D01*
X137036951Y-78271514D01*
X136989720Y-78320585D01*
X136949121Y-78346920D01*
X136898328Y-78359035D01*
X136856220Y-78363003D01*
X136780902Y-78363991D01*
X136727286Y-78351466D01*
X136693838Y-78332869D01*
X136641268Y-78291975D01*
X136604879Y-78247748D01*
X136581850Y-78192126D01*
X136569359Y-78117047D01*
X136564587Y-78014449D01*
X136564206Y-77962376D01*
X136565501Y-77899948D01*
X136683471Y-77899948D01*
X136684839Y-77933438D01*
X136688249Y-77938923D01*
X136710753Y-77931472D01*
X136759182Y-77911753D01*
X136823908Y-77883718D01*
X136837443Y-77877692D01*
X136919244Y-77836096D01*
X136964312Y-77799538D01*
X136974217Y-77765296D01*
X136950526Y-77730648D01*
X136930960Y-77715339D01*
X136860360Y-77684721D01*
X136794280Y-77689780D01*
X136738959Y-77727151D01*
X136700636Y-77793473D01*
X136688349Y-77846116D01*
X136683471Y-77899948D01*
X136565501Y-77899948D01*
X136566730Y-77840720D01*
X136576032Y-77750710D01*
X136594460Y-77685167D01*
X136624360Y-77636912D01*
X136668080Y-77598767D01*
X136687141Y-77586440D01*
X136773726Y-77554336D01*
X136868522Y-77552316D01*
X136960224Y-77577838D01*
G36*
X132854878Y-71217776D02*
X132960612Y-71218355D01*
X133037132Y-71219922D01*
X133089372Y-71222972D01*
X133122263Y-71227996D01*
X133140737Y-71235489D01*
X133149727Y-71245944D01*
X133154163Y-71259853D01*
X133154594Y-71261654D01*
X133161333Y-71294145D01*
X133173808Y-71358252D01*
X133190719Y-71447151D01*
X133210771Y-71554019D01*
X133232664Y-71672033D01*
X133233429Y-71676178D01*
X133255359Y-71791831D01*
X133275877Y-71894014D01*
X133293659Y-71976598D01*
X133307381Y-72033456D01*
X133315718Y-72058458D01*
X133316116Y-72058901D01*
X133340677Y-72071110D01*
X133391315Y-72091456D01*
X133457095Y-72115545D01*
X133457461Y-72115674D01*
X133540317Y-72146818D01*
X133638000Y-72186491D01*
X133730077Y-72226381D01*
X133734434Y-72228353D01*
X133884407Y-72296420D01*
X134216498Y-72069639D01*
X134318374Y-72000504D01*
X134410657Y-71938697D01*
X134488003Y-71887733D01*
X134545064Y-71851127D01*
X134576495Y-71832394D01*
X134579479Y-71831004D01*
X134602321Y-71837190D01*
X134644982Y-71867035D01*
X134709128Y-71921947D01*
X134796421Y-72003334D01*
X134885535Y-72089922D01*
X134971441Y-72175247D01*
X135048327Y-72253108D01*
X135111564Y-72318697D01*
X135156523Y-72367205D01*
X135178576Y-72393825D01*
X135179396Y-72395195D01*
X135181834Y-72413463D01*
X135172650Y-72443295D01*
X135149574Y-72488721D01*
X135110337Y-72553770D01*
X135052670Y-72642470D01*
X134975795Y-72756657D01*
X134907570Y-72857162D01*
X134846582Y-72947303D01*
X134796356Y-73021849D01*
X134760416Y-73075565D01*
X134742287Y-73103218D01*
X134741146Y-73105095D01*
X134743359Y-73131590D01*
X134760138Y-73183086D01*
X134788142Y-73249851D01*
X134798122Y-73271172D01*
X134841672Y-73366159D01*
X134888134Y-73473937D01*
X134925877Y-73567192D01*
X134953073Y-73636406D01*
X134974675Y-73689006D01*
X134987158Y-73716497D01*
X134988709Y-73718616D01*
X135011668Y-73722124D01*
X135065786Y-73731738D01*
X135143868Y-73746089D01*
X135238719Y-73763807D01*
X135343143Y-73783525D01*
X135449944Y-73803874D01*
X135551926Y-73823486D01*
X135641894Y-73840991D01*
X135712653Y-73855022D01*
X135757006Y-73864209D01*
X135767885Y-73866807D01*
X135779122Y-73873218D01*
X135787605Y-73887697D01*
X135793714Y-73915133D01*
X135797832Y-73960411D01*
X135800341Y-74028420D01*
X135801621Y-74124047D01*
X135802054Y-74252180D01*
X135802077Y-74304701D01*
X135802077Y-74731845D01*
X135699500Y-74752091D01*
X135642431Y-74763070D01*
X135557269Y-74779095D01*
X135454372Y-74798233D01*
X135344096Y-74818551D01*
X135313615Y-74824132D01*
X135211855Y-74843917D01*
X135123205Y-74863373D01*
X135055108Y-74880697D01*
X135015004Y-74894088D01*
X135008323Y-74898079D01*
X134991919Y-74926342D01*
X134968399Y-74981109D01*
X134942316Y-75051588D01*
X134937142Y-75066769D01*
X134902956Y-75160896D01*
X134860523Y-75267101D01*
X134818997Y-75362473D01*
X134818792Y-75362916D01*
X134749640Y-75512525D01*
X135204512Y-76181617D01*
X134912500Y-76474116D01*
X134824180Y-76561170D01*
X134743625Y-76637909D01*
X134675360Y-76700237D01*
X134623908Y-76744056D01*
X134593794Y-76765270D01*
X134589474Y-76766616D01*
X134564111Y-76756016D01*
X134512358Y-76726547D01*
X134439868Y-76681705D01*
X134352294Y-76624984D01*
X134257612Y-76561462D01*
X134161516Y-76496668D01*
X134075837Y-76440287D01*
X134006016Y-76395788D01*
X133957494Y-76366639D01*
X133935782Y-76356308D01*
X133909293Y-76365050D01*
X133859062Y-76388087D01*
X133795451Y-76420631D01*
X133788708Y-76424249D01*
X133703046Y-76467210D01*
X133644306Y-76488279D01*
X133607772Y-76488503D01*
X133588731Y-76468928D01*
X133588620Y-76468654D01*
X133579102Y-76445472D01*
X133556403Y-76390441D01*
X133522282Y-76307822D01*
X133478500Y-76201872D01*
X133426816Y-76076852D01*
X133368992Y-75937020D01*
X133312991Y-75801637D01*
X133251447Y-75652234D01*
X133194939Y-75513832D01*
X133145161Y-75390673D01*
X133103806Y-75287002D01*
X133072568Y-75207059D01*
X133053141Y-75155088D01*
X133047154Y-75135692D01*
X133062168Y-75113443D01*
X133101439Y-75077982D01*
X133153807Y-75038887D01*
X133302941Y-74915245D01*
X133419511Y-74773522D01*
X133502118Y-74616704D01*
X133549366Y-74447775D01*
X133559857Y-74269722D01*
X133552231Y-74187539D01*
X133510682Y-74017031D01*
X133439123Y-73866459D01*
X133341995Y-73737309D01*
X133223734Y-73631064D01*
X133088780Y-73549210D01*
X132941571Y-73493232D01*
X132786544Y-73464615D01*
X132628139Y-73464844D01*
X132470794Y-73495405D01*
X132318946Y-73557782D01*
X132177035Y-73653460D01*
X132117803Y-73707572D01*
X132004203Y-73846520D01*
X131925106Y-73998361D01*
X131879986Y-74158667D01*
X131868316Y-74323012D01*
X131889569Y-74486971D01*
X131943220Y-74646118D01*
X132028740Y-74796025D01*
X132145605Y-74932267D01*
X132276193Y-75038887D01*
X132330588Y-75079642D01*
X132369014Y-75114718D01*
X132382846Y-75135726D01*
X132375603Y-75158635D01*
X132355005Y-75213365D01*
X132322746Y-75295672D01*
X132280521Y-75401315D01*
X132230023Y-75526050D01*
X132172948Y-75665636D01*
X132116854Y-75801670D01*
X132054967Y-75951201D01*
X131997644Y-76089767D01*
X131946644Y-76213107D01*
X131903727Y-76316964D01*
X131870653Y-76397080D01*
X131849181Y-76449195D01*
X131841225Y-76468654D01*
X131822429Y-76488423D01*
X131786074Y-76488365D01*
X131727479Y-76467441D01*
X131641968Y-76424613D01*
X131641292Y-76424249D01*
X131576907Y-76391012D01*
X131524861Y-76366802D01*
X131495512Y-76356404D01*
X131494217Y-76356308D01*
X131472124Y-76366855D01*
X131423348Y-76396184D01*
X131353331Y-76440827D01*
X131267514Y-76497314D01*
X131172388Y-76561462D01*
X131075540Y-76626411D01*
X130988253Y-76682896D01*
X130916181Y-76727421D01*
X130864977Y-76756490D01*
X130840526Y-76766616D01*
X130818010Y-76753307D01*
X130772742Y-76716112D01*
X130709244Y-76659128D01*
X130632039Y-76586449D01*
X130545651Y-76502171D01*
X130517399Y-76474016D01*
X130225287Y-76181416D01*
X130447631Y-75855104D01*
X130515202Y-75754897D01*
X130574507Y-75664963D01*
X130622217Y-75590510D01*
X130655007Y-75536751D01*
X130669548Y-75508894D01*
X130669974Y-75506912D01*
X130662308Y-75480655D01*
X130641689Y-75427837D01*
X130611685Y-75357310D01*
X130590625Y-75310093D01*
X130551248Y-75219694D01*
X130514165Y-75128366D01*
X130485415Y-75051200D01*
X130477605Y-75027692D01*
X130455417Y-74964916D01*
X130433727Y-74916411D01*
X130421813Y-74898079D01*
X130395523Y-74886859D01*
X130338142Y-74870954D01*
X130257118Y-74852167D01*
X130159895Y-74832299D01*
X130116385Y-74824132D01*
X130005896Y-74803829D01*
X129899916Y-74784170D01*
X129808801Y-74767088D01*
X129742908Y-74754518D01*
X129730500Y-74752091D01*
X129627923Y-74731845D01*
X129627923Y-74304701D01*
X129628153Y-74164246D01*
X129629099Y-74057979D01*
X129631141Y-73981013D01*
X129634662Y-73928460D01*
X129640043Y-73895433D01*
X129647666Y-73877045D01*
X129657912Y-73868408D01*
X129662115Y-73866807D01*
X129687470Y-73861127D01*
X129743484Y-73849795D01*
X129822964Y-73834179D01*
X129918712Y-73815647D01*
X130023533Y-73795569D01*
X130130232Y-73775312D01*
X130231613Y-73756246D01*
X130320479Y-73739739D01*
X130389637Y-73727159D01*
X130431889Y-73719875D01*
X130441290Y-73718616D01*
X130449807Y-73701763D01*
X130468660Y-73656870D01*
X130494324Y-73592430D01*
X130504123Y-73567192D01*
X130543648Y-73469686D01*
X130590192Y-73361959D01*
X130631877Y-73271172D01*
X130662550Y-73201753D01*
X130682956Y-73144710D01*
X130689768Y-73109777D01*
X130688682Y-73105095D01*
X130674285Y-73082991D01*
X130641412Y-73033831D01*
X130593590Y-72962848D01*
X130534348Y-72875278D01*
X130467215Y-72776357D01*
X130453941Y-72756830D01*
X130376046Y-72641140D01*
X130318787Y-72553044D01*
X130279881Y-72488486D01*
X130257044Y-72443411D01*
X130247994Y-72413763D01*
X130250448Y-72395485D01*
X130250511Y-72395369D01*
X130269827Y-72371361D01*
X130312551Y-72324947D01*
X130374051Y-72260937D01*
X130449698Y-72184145D01*
X130534861Y-72099382D01*
X130544465Y-72089922D01*
X130651790Y-71985989D01*
X130734615Y-71909675D01*
X130794605Y-71859571D01*
X130833423Y-71834270D01*
X130850520Y-71831004D01*
X130875473Y-71845250D01*
X130927255Y-71878156D01*
X131000520Y-71926208D01*
X131089920Y-71985890D01*
X131190111Y-72053688D01*
X131213501Y-72069639D01*
X131545593Y-72296420D01*
X131695565Y-72228353D01*
X131786770Y-72188685D01*
X131884669Y-72148791D01*
X131968831Y-72116983D01*
X131972538Y-72115674D01*
X132038369Y-72091576D01*
X132089116Y-72071200D01*
X132113842Y-72058936D01*
X132113884Y-72058901D01*
X132121729Y-72036734D01*
X132135066Y-71982217D01*
X132152570Y-71901480D01*
X132172917Y-71800650D01*
X132194782Y-71685856D01*
X132196571Y-71676178D01*
X132218504Y-71557904D01*
X132238640Y-71450542D01*
X132255680Y-71360917D01*
X132268328Y-71295851D01*
X132275284Y-71262168D01*
X132275406Y-71261654D01*
X132279639Y-71247325D01*
X132287871Y-71236507D01*
X132305033Y-71228706D01*
X132336058Y-71223429D01*
X132385878Y-71220182D01*
X132459424Y-71218472D01*
X132561629Y-71217807D01*
X132697425Y-71217693D01*
X132715000Y-71217692D01*
X132854878Y-71217776D01*
X132854878Y-71217776D01*
G37*
X132854878Y-71217776D02*
X132960612Y-71218355D01*
X133037132Y-71219922D01*
X133089372Y-71222972D01*
X133122263Y-71227996D01*
X133140737Y-71235489D01*
X133149727Y-71245944D01*
X133154163Y-71259853D01*
X133154594Y-71261654D01*
X133161333Y-71294145D01*
X133173808Y-71358252D01*
X133190719Y-71447151D01*
X133210771Y-71554019D01*
X133232664Y-71672033D01*
X133233429Y-71676178D01*
X133255359Y-71791831D01*
X133275877Y-71894014D01*
X133293659Y-71976598D01*
X133307381Y-72033456D01*
X133315718Y-72058458D01*
X133316116Y-72058901D01*
X133340677Y-72071110D01*
X133391315Y-72091456D01*
X133457095Y-72115545D01*
X133457461Y-72115674D01*
X133540317Y-72146818D01*
X133638000Y-72186491D01*
X133730077Y-72226381D01*
X133734434Y-72228353D01*
X133884407Y-72296420D01*
X134216498Y-72069639D01*
X134318374Y-72000504D01*
X134410657Y-71938697D01*
X134488003Y-71887733D01*
X134545064Y-71851127D01*
X134576495Y-71832394D01*
X134579479Y-71831004D01*
X134602321Y-71837190D01*
X134644982Y-71867035D01*
X134709128Y-71921947D01*
X134796421Y-72003334D01*
X134885535Y-72089922D01*
X134971441Y-72175247D01*
X135048327Y-72253108D01*
X135111564Y-72318697D01*
X135156523Y-72367205D01*
X135178576Y-72393825D01*
X135179396Y-72395195D01*
X135181834Y-72413463D01*
X135172650Y-72443295D01*
X135149574Y-72488721D01*
X135110337Y-72553770D01*
X135052670Y-72642470D01*
X134975795Y-72756657D01*
X134907570Y-72857162D01*
X134846582Y-72947303D01*
X134796356Y-73021849D01*
X134760416Y-73075565D01*
X134742287Y-73103218D01*
X134741146Y-73105095D01*
X134743359Y-73131590D01*
X134760138Y-73183086D01*
X134788142Y-73249851D01*
X134798122Y-73271172D01*
X134841672Y-73366159D01*
X134888134Y-73473937D01*
X134925877Y-73567192D01*
X134953073Y-73636406D01*
X134974675Y-73689006D01*
X134987158Y-73716497D01*
X134988709Y-73718616D01*
X135011668Y-73722124D01*
X135065786Y-73731738D01*
X135143868Y-73746089D01*
X135238719Y-73763807D01*
X135343143Y-73783525D01*
X135449944Y-73803874D01*
X135551926Y-73823486D01*
X135641894Y-73840991D01*
X135712653Y-73855022D01*
X135757006Y-73864209D01*
X135767885Y-73866807D01*
X135779122Y-73873218D01*
X135787605Y-73887697D01*
X135793714Y-73915133D01*
X135797832Y-73960411D01*
X135800341Y-74028420D01*
X135801621Y-74124047D01*
X135802054Y-74252180D01*
X135802077Y-74304701D01*
X135802077Y-74731845D01*
X135699500Y-74752091D01*
X135642431Y-74763070D01*
X135557269Y-74779095D01*
X135454372Y-74798233D01*
X135344096Y-74818551D01*
X135313615Y-74824132D01*
X135211855Y-74843917D01*
X135123205Y-74863373D01*
X135055108Y-74880697D01*
X135015004Y-74894088D01*
X135008323Y-74898079D01*
X134991919Y-74926342D01*
X134968399Y-74981109D01*
X134942316Y-75051588D01*
X134937142Y-75066769D01*
X134902956Y-75160896D01*
X134860523Y-75267101D01*
X134818997Y-75362473D01*
X134818792Y-75362916D01*
X134749640Y-75512525D01*
X135204512Y-76181617D01*
X134912500Y-76474116D01*
X134824180Y-76561170D01*
X134743625Y-76637909D01*
X134675360Y-76700237D01*
X134623908Y-76744056D01*
X134593794Y-76765270D01*
X134589474Y-76766616D01*
X134564111Y-76756016D01*
X134512358Y-76726547D01*
X134439868Y-76681705D01*
X134352294Y-76624984D01*
X134257612Y-76561462D01*
X134161516Y-76496668D01*
X134075837Y-76440287D01*
X134006016Y-76395788D01*
X133957494Y-76366639D01*
X133935782Y-76356308D01*
X133909293Y-76365050D01*
X133859062Y-76388087D01*
X133795451Y-76420631D01*
X133788708Y-76424249D01*
X133703046Y-76467210D01*
X133644306Y-76488279D01*
X133607772Y-76488503D01*
X133588731Y-76468928D01*
X133588620Y-76468654D01*
X133579102Y-76445472D01*
X133556403Y-76390441D01*
X133522282Y-76307822D01*
X133478500Y-76201872D01*
X133426816Y-76076852D01*
X133368992Y-75937020D01*
X133312991Y-75801637D01*
X133251447Y-75652234D01*
X133194939Y-75513832D01*
X133145161Y-75390673D01*
X133103806Y-75287002D01*
X133072568Y-75207059D01*
X133053141Y-75155088D01*
X133047154Y-75135692D01*
X133062168Y-75113443D01*
X133101439Y-75077982D01*
X133153807Y-75038887D01*
X133302941Y-74915245D01*
X133419511Y-74773522D01*
X133502118Y-74616704D01*
X133549366Y-74447775D01*
X133559857Y-74269722D01*
X133552231Y-74187539D01*
X133510682Y-74017031D01*
X133439123Y-73866459D01*
X133341995Y-73737309D01*
X133223734Y-73631064D01*
X133088780Y-73549210D01*
X132941571Y-73493232D01*
X132786544Y-73464615D01*
X132628139Y-73464844D01*
X132470794Y-73495405D01*
X132318946Y-73557782D01*
X132177035Y-73653460D01*
X132117803Y-73707572D01*
X132004203Y-73846520D01*
X131925106Y-73998361D01*
X131879986Y-74158667D01*
X131868316Y-74323012D01*
X131889569Y-74486971D01*
X131943220Y-74646118D01*
X132028740Y-74796025D01*
X132145605Y-74932267D01*
X132276193Y-75038887D01*
X132330588Y-75079642D01*
X132369014Y-75114718D01*
X132382846Y-75135726D01*
X132375603Y-75158635D01*
X132355005Y-75213365D01*
X132322746Y-75295672D01*
X132280521Y-75401315D01*
X132230023Y-75526050D01*
X132172948Y-75665636D01*
X132116854Y-75801670D01*
X132054967Y-75951201D01*
X131997644Y-76089767D01*
X131946644Y-76213107D01*
X131903727Y-76316964D01*
X131870653Y-76397080D01*
X131849181Y-76449195D01*
X131841225Y-76468654D01*
X131822429Y-76488423D01*
X131786074Y-76488365D01*
X131727479Y-76467441D01*
X131641968Y-76424613D01*
X131641292Y-76424249D01*
X131576907Y-76391012D01*
X131524861Y-76366802D01*
X131495512Y-76356404D01*
X131494217Y-76356308D01*
X131472124Y-76366855D01*
X131423348Y-76396184D01*
X131353331Y-76440827D01*
X131267514Y-76497314D01*
X131172388Y-76561462D01*
X131075540Y-76626411D01*
X130988253Y-76682896D01*
X130916181Y-76727421D01*
X130864977Y-76756490D01*
X130840526Y-76766616D01*
X130818010Y-76753307D01*
X130772742Y-76716112D01*
X130709244Y-76659128D01*
X130632039Y-76586449D01*
X130545651Y-76502171D01*
X130517399Y-76474016D01*
X130225287Y-76181416D01*
X130447631Y-75855104D01*
X130515202Y-75754897D01*
X130574507Y-75664963D01*
X130622217Y-75590510D01*
X130655007Y-75536751D01*
X130669548Y-75508894D01*
X130669974Y-75506912D01*
X130662308Y-75480655D01*
X130641689Y-75427837D01*
X130611685Y-75357310D01*
X130590625Y-75310093D01*
X130551248Y-75219694D01*
X130514165Y-75128366D01*
X130485415Y-75051200D01*
X130477605Y-75027692D01*
X130455417Y-74964916D01*
X130433727Y-74916411D01*
X130421813Y-74898079D01*
X130395523Y-74886859D01*
X130338142Y-74870954D01*
X130257118Y-74852167D01*
X130159895Y-74832299D01*
X130116385Y-74824132D01*
X130005896Y-74803829D01*
X129899916Y-74784170D01*
X129808801Y-74767088D01*
X129742908Y-74754518D01*
X129730500Y-74752091D01*
X129627923Y-74731845D01*
X129627923Y-74304701D01*
X129628153Y-74164246D01*
X129629099Y-74057979D01*
X129631141Y-73981013D01*
X129634662Y-73928460D01*
X129640043Y-73895433D01*
X129647666Y-73877045D01*
X129657912Y-73868408D01*
X129662115Y-73866807D01*
X129687470Y-73861127D01*
X129743484Y-73849795D01*
X129822964Y-73834179D01*
X129918712Y-73815647D01*
X130023533Y-73795569D01*
X130130232Y-73775312D01*
X130231613Y-73756246D01*
X130320479Y-73739739D01*
X130389637Y-73727159D01*
X130431889Y-73719875D01*
X130441290Y-73718616D01*
X130449807Y-73701763D01*
X130468660Y-73656870D01*
X130494324Y-73592430D01*
X130504123Y-73567192D01*
X130543648Y-73469686D01*
X130590192Y-73361959D01*
X130631877Y-73271172D01*
X130662550Y-73201753D01*
X130682956Y-73144710D01*
X130689768Y-73109777D01*
X130688682Y-73105095D01*
X130674285Y-73082991D01*
X130641412Y-73033831D01*
X130593590Y-72962848D01*
X130534348Y-72875278D01*
X130467215Y-72776357D01*
X130453941Y-72756830D01*
X130376046Y-72641140D01*
X130318787Y-72553044D01*
X130279881Y-72488486D01*
X130257044Y-72443411D01*
X130247994Y-72413763D01*
X130250448Y-72395485D01*
X130250511Y-72395369D01*
X130269827Y-72371361D01*
X130312551Y-72324947D01*
X130374051Y-72260937D01*
X130449698Y-72184145D01*
X130534861Y-72099382D01*
X130544465Y-72089922D01*
X130651790Y-71985989D01*
X130734615Y-71909675D01*
X130794605Y-71859571D01*
X130833423Y-71834270D01*
X130850520Y-71831004D01*
X130875473Y-71845250D01*
X130927255Y-71878156D01*
X131000520Y-71926208D01*
X131089920Y-71985890D01*
X131190111Y-72053688D01*
X131213501Y-72069639D01*
X131545593Y-72296420D01*
X131695565Y-72228353D01*
X131786770Y-72188685D01*
X131884669Y-72148791D01*
X131968831Y-72116983D01*
X131972538Y-72115674D01*
X132038369Y-72091576D01*
X132089116Y-72071200D01*
X132113842Y-72058936D01*
X132113884Y-72058901D01*
X132121729Y-72036734D01*
X132135066Y-71982217D01*
X132152570Y-71901480D01*
X132172917Y-71800650D01*
X132194782Y-71685856D01*
X132196571Y-71676178D01*
X132218504Y-71557904D01*
X132238640Y-71450542D01*
X132255680Y-71360917D01*
X132268328Y-71295851D01*
X132275284Y-71262168D01*
X132275406Y-71261654D01*
X132279639Y-71247325D01*
X132287871Y-71236507D01*
X132305033Y-71228706D01*
X132336058Y-71223429D01*
X132385878Y-71220182D01*
X132459424Y-71218472D01*
X132561629Y-71217807D01*
X132697425Y-71217693D01*
X132715000Y-71217692D01*
X132854878Y-71217776D01*
D13*
X134515000Y-88165000D02*
X133515000Y-87165000D01*
X129615000Y-97065000D02*
X134515000Y-97065000D01*
X134515000Y-97065000D02*
X134515000Y-88165000D01*
X133515000Y-87165000D02*
X129615000Y-87165000D01*
X129615000Y-87165000D02*
X129615000Y-97065000D01*
D15*
X127040000Y-60670000D02*
X127040000Y-60170000D01*
X132040000Y-62170000D02*
X122040000Y-62170000D01*
X132040000Y-67070000D02*
X122040000Y-67070000D01*
X132040000Y-60670000D02*
X122040000Y-60670000D01*
X132040000Y-60170000D02*
X122040000Y-60170000D01*
X122040000Y-60170000D02*
X122040000Y-69970000D01*
X122040000Y-69970000D02*
X132040000Y-69970000D01*
X132040000Y-69970000D02*
X132040000Y-60170000D01*
X126540000Y-64670000D02*
G75*
G03X126540000Y-64670000I-2000000J0D01*
G01*
X131540000Y-64670000D02*
G75*
G03X131540000Y-64670000I-2000000J0D01*
G01*
X140375000Y-60670000D02*
X140375000Y-60170000D01*
X145375000Y-62170000D02*
X135375000Y-62170000D01*
X145375000Y-67070000D02*
X135375000Y-67070000D01*
X145375000Y-60670000D02*
X135375000Y-60670000D01*
X145375000Y-60170000D02*
X135375000Y-60170000D01*
X135375000Y-60170000D02*
X135375000Y-69970000D01*
X135375000Y-69970000D02*
X145375000Y-69970000D01*
X145375000Y-69970000D02*
X145375000Y-60170000D01*
X139875000Y-64670000D02*
G75*
G03X139875000Y-64670000I-2000000J0D01*
G01*
X144875000Y-64670000D02*
G75*
G03X144875000Y-64670000I-2000000J0D01*
G01*
X126817381Y-106783095D02*
X125817381Y-106783095D01*
X125817381Y-106545000D01*
X125865000Y-106402142D01*
X125960238Y-106306904D01*
X126055476Y-106259285D01*
X126245952Y-106211666D01*
X126388810Y-106211666D01*
X126579286Y-106259285D01*
X126674524Y-106306904D01*
X126769762Y-106402142D01*
X126817381Y-106545000D01*
X126817381Y-106783095D01*
X126817381Y-105259285D02*
X126817381Y-105830714D01*
X126817381Y-105545000D02*
X125817381Y-105545000D01*
X125960238Y-105640238D01*
X126055476Y-105735476D01*
X126103095Y-105830714D01*
X117927381Y-107378333D02*
X116927381Y-107378333D01*
X116927381Y-106997380D01*
X116975000Y-106902142D01*
X117022619Y-106854523D01*
X117117857Y-106806904D01*
X117260714Y-106806904D01*
X117355952Y-106854523D01*
X117403571Y-106902142D01*
X117451190Y-106997380D01*
X117451190Y-107378333D01*
X116927381Y-106473571D02*
X117927381Y-106235476D01*
X117213095Y-106044999D01*
X117927381Y-105854523D01*
X116927381Y-105616428D01*
X117927381Y-104664047D02*
X117451190Y-104997381D01*
X117927381Y-105235476D02*
X116927381Y-105235476D01*
X116927381Y-104854523D01*
X116975000Y-104759285D01*
X117022619Y-104711666D01*
X117117857Y-104664047D01*
X117260714Y-104664047D01*
X117355952Y-104711666D01*
X117403571Y-104759285D01*
X117451190Y-104854523D01*
X117451190Y-105235476D01*
X110847143Y-82541904D02*
X110894762Y-82589523D01*
X110942381Y-82732380D01*
X110942381Y-82827618D01*
X110894762Y-82970476D01*
X110799524Y-83065714D01*
X110704286Y-83113333D01*
X110513810Y-83160952D01*
X110370952Y-83160952D01*
X110180476Y-83113333D01*
X110085238Y-83065714D01*
X109990000Y-82970476D01*
X109942381Y-82827618D01*
X109942381Y-82732380D01*
X109990000Y-82589523D01*
X110037619Y-82541904D01*
X110942381Y-81589523D02*
X110942381Y-82160952D01*
X110942381Y-81875238D02*
X109942381Y-81875238D01*
X110085238Y-81970476D01*
X110180476Y-82065714D01*
X110228095Y-82160952D01*
X110561429Y-81160952D02*
X110561429Y-80399047D01*
X110037619Y-79970476D02*
X109990000Y-79922857D01*
X109942381Y-79827619D01*
X109942381Y-79589523D01*
X109990000Y-79494285D01*
X110037619Y-79446666D01*
X110132857Y-79399047D01*
X110228095Y-79399047D01*
X110370952Y-79446666D01*
X110942381Y-80018095D01*
X110942381Y-79399047D01*
X110942381Y-76049047D02*
X110942381Y-76525238D01*
X109942381Y-76525238D01*
X110418571Y-75715714D02*
X110418571Y-75382380D01*
X110942381Y-75239523D02*
X110942381Y-75715714D01*
X109942381Y-75715714D01*
X109942381Y-75239523D01*
X109990000Y-74287142D02*
X109942381Y-74382380D01*
X109942381Y-74525237D01*
X109990000Y-74668095D01*
X110085238Y-74763333D01*
X110180476Y-74810952D01*
X110370952Y-74858571D01*
X110513810Y-74858571D01*
X110704286Y-74810952D01*
X110799524Y-74763333D01*
X110894762Y-74668095D01*
X110942381Y-74525237D01*
X110942381Y-74429999D01*
X110894762Y-74287142D01*
X110847143Y-74239523D01*
X110513810Y-74239523D01*
X110513810Y-74429999D01*
X110942381Y-73287142D02*
X110942381Y-73858571D01*
X110942381Y-73572857D02*
X109942381Y-73572857D01*
X110085238Y-73668095D01*
X110180476Y-73763333D01*
X110228095Y-73858571D01*
X110942381Y-88749047D02*
X110942381Y-89225238D01*
X109942381Y-89225238D01*
X110418571Y-88415714D02*
X110418571Y-88082380D01*
X110942381Y-87939523D02*
X110942381Y-88415714D01*
X109942381Y-88415714D01*
X109942381Y-87939523D01*
X109990000Y-86987142D02*
X109942381Y-87082380D01*
X109942381Y-87225237D01*
X109990000Y-87368095D01*
X110085238Y-87463333D01*
X110180476Y-87510952D01*
X110370952Y-87558571D01*
X110513810Y-87558571D01*
X110704286Y-87510952D01*
X110799524Y-87463333D01*
X110894762Y-87368095D01*
X110942381Y-87225237D01*
X110942381Y-87129999D01*
X110894762Y-86987142D01*
X110847143Y-86939523D01*
X110513810Y-86939523D01*
X110513810Y-87129999D01*
X110037619Y-86558571D02*
X109990000Y-86510952D01*
X109942381Y-86415714D01*
X109942381Y-86177618D01*
X109990000Y-86082380D01*
X110037619Y-86034761D01*
X110132857Y-85987142D01*
X110228095Y-85987142D01*
X110370952Y-86034761D01*
X110942381Y-86606190D01*
X110942381Y-85987142D01*
X110418571Y-96956429D02*
X110418571Y-96623095D01*
X110942381Y-96480238D02*
X110942381Y-96956429D01*
X109942381Y-96956429D01*
X109942381Y-96480238D01*
X109942381Y-96146905D02*
X110942381Y-95480238D01*
X109942381Y-95480238D02*
X110942381Y-96146905D01*
X109942381Y-95242143D02*
X109942381Y-94670714D01*
X110942381Y-94956429D02*
X109942381Y-94956429D01*
X126817381Y-102401666D02*
X126341190Y-102735000D01*
X126817381Y-102973095D02*
X125817381Y-102973095D01*
X125817381Y-102592142D01*
X125865000Y-102496904D01*
X125912619Y-102449285D01*
X126007857Y-102401666D01*
X126150714Y-102401666D01*
X126245952Y-102449285D01*
X126293571Y-102496904D01*
X126341190Y-102592142D01*
X126341190Y-102973095D01*
X126817381Y-101449285D02*
X126817381Y-102020714D01*
X126817381Y-101735000D02*
X125817381Y-101735000D01*
X125960238Y-101830238D01*
X126055476Y-101925476D01*
X126103095Y-102020714D01*
X120515238Y-99877619D02*
X120562857Y-99830000D01*
X120658095Y-99782381D01*
X120896191Y-99782381D01*
X120991429Y-99830000D01*
X121039048Y-99877619D01*
X121086667Y-99972857D01*
X121086667Y-100068095D01*
X121039048Y-100210952D01*
X120467619Y-100782381D01*
X121086667Y-100782381D01*
X121515238Y-100687143D02*
X121562857Y-100734762D01*
X121515238Y-100782381D01*
X121467619Y-100734762D01*
X121515238Y-100687143D01*
X121515238Y-100782381D01*
X122420000Y-100115714D02*
X122420000Y-100782381D01*
X122181904Y-99734762D02*
X121943809Y-100449048D01*
X122562857Y-100449048D01*
X122943809Y-100782381D02*
X122943809Y-99782381D01*
X123039047Y-100401429D02*
X123324762Y-100782381D01*
X123324762Y-100115714D02*
X122943809Y-100496667D01*
X157932381Y-88749047D02*
X157932381Y-89225238D01*
X156932381Y-89225238D01*
X157408571Y-88415714D02*
X157408571Y-88082380D01*
X157932381Y-87939523D02*
X157932381Y-88415714D01*
X156932381Y-88415714D01*
X156932381Y-87939523D01*
X156980000Y-86987142D02*
X156932381Y-87082380D01*
X156932381Y-87225237D01*
X156980000Y-87368095D01*
X157075238Y-87463333D01*
X157170476Y-87510952D01*
X157360952Y-87558571D01*
X157503810Y-87558571D01*
X157694286Y-87510952D01*
X157789524Y-87463333D01*
X157884762Y-87368095D01*
X157932381Y-87225237D01*
X157932381Y-87129999D01*
X157884762Y-86987142D01*
X157837143Y-86939523D01*
X157503810Y-86939523D01*
X157503810Y-87129999D01*
X157265714Y-86082380D02*
X157932381Y-86082380D01*
X156884762Y-86320476D02*
X157599048Y-86558571D01*
X157599048Y-85939523D01*
X157408571Y-96956429D02*
X157408571Y-96623095D01*
X157932381Y-96480238D02*
X157932381Y-96956429D01*
X156932381Y-96956429D01*
X156932381Y-96480238D01*
X156932381Y-96146905D02*
X157932381Y-95480238D01*
X156932381Y-95480238D02*
X157932381Y-96146905D01*
X156932381Y-95242143D02*
X156932381Y-94670714D01*
X157932381Y-94956429D02*
X156932381Y-94956429D01*
X157837143Y-82541904D02*
X157884762Y-82589523D01*
X157932381Y-82732380D01*
X157932381Y-82827618D01*
X157884762Y-82970476D01*
X157789524Y-83065714D01*
X157694286Y-83113333D01*
X157503810Y-83160952D01*
X157360952Y-83160952D01*
X157170476Y-83113333D01*
X157075238Y-83065714D01*
X156980000Y-82970476D01*
X156932381Y-82827618D01*
X156932381Y-82732380D01*
X156980000Y-82589523D01*
X157027619Y-82541904D01*
X156932381Y-82208571D02*
X156932381Y-81589523D01*
X157313333Y-81922857D01*
X157313333Y-81779999D01*
X157360952Y-81684761D01*
X157408571Y-81637142D01*
X157503810Y-81589523D01*
X157741905Y-81589523D01*
X157837143Y-81637142D01*
X157884762Y-81684761D01*
X157932381Y-81779999D01*
X157932381Y-82065714D01*
X157884762Y-82160952D01*
X157837143Y-82208571D01*
X157551429Y-81160952D02*
X157551429Y-80399047D01*
X157265714Y-79494285D02*
X157932381Y-79494285D01*
X156884762Y-79732381D02*
X157599048Y-79970476D01*
X157599048Y-79351428D01*
X157932381Y-76049047D02*
X157932381Y-76525238D01*
X156932381Y-76525238D01*
X157408571Y-75715714D02*
X157408571Y-75382380D01*
X157932381Y-75239523D02*
X157932381Y-75715714D01*
X156932381Y-75715714D01*
X156932381Y-75239523D01*
X156980000Y-74287142D02*
X156932381Y-74382380D01*
X156932381Y-74525237D01*
X156980000Y-74668095D01*
X157075238Y-74763333D01*
X157170476Y-74810952D01*
X157360952Y-74858571D01*
X157503810Y-74858571D01*
X157694286Y-74810952D01*
X157789524Y-74763333D01*
X157884762Y-74668095D01*
X157932381Y-74525237D01*
X157932381Y-74429999D01*
X157884762Y-74287142D01*
X157837143Y-74239523D01*
X157503810Y-74239523D01*
X157503810Y-74429999D01*
X156932381Y-73906190D02*
X156932381Y-73287142D01*
X157313333Y-73620476D01*
X157313333Y-73477618D01*
X157360952Y-73382380D01*
X157408571Y-73334761D01*
X157503810Y-73287142D01*
X157741905Y-73287142D01*
X157837143Y-73334761D01*
X157884762Y-73382380D01*
X157932381Y-73477618D01*
X157932381Y-73763333D01*
X157884762Y-73858571D01*
X157837143Y-73906190D01*
X135707381Y-92503571D02*
X135231190Y-92836905D01*
X135707381Y-93075000D02*
X134707381Y-93075000D01*
X134707381Y-92694047D01*
X134755000Y-92598809D01*
X134802619Y-92551190D01*
X134897857Y-92503571D01*
X135040714Y-92503571D01*
X135135952Y-92551190D01*
X135183571Y-92598809D01*
X135231190Y-92694047D01*
X135231190Y-93075000D01*
X135707381Y-92075000D02*
X134707381Y-92075000D01*
X134707381Y-91694047D01*
X134755000Y-91598809D01*
X134802619Y-91551190D01*
X134897857Y-91503571D01*
X135040714Y-91503571D01*
X135135952Y-91551190D01*
X135183571Y-91598809D01*
X135231190Y-91694047D01*
X135231190Y-92075000D01*
X135707381Y-91075000D02*
X135040714Y-91075000D01*
X134707381Y-91075000D02*
X134755000Y-91122619D01*
X134802619Y-91075000D01*
X134755000Y-91027381D01*
X134707381Y-91075000D01*
X134802619Y-91075000D01*
X126706667Y-58322381D02*
X126706667Y-59036667D01*
X126659047Y-59179524D01*
X126563809Y-59274762D01*
X126420952Y-59322381D01*
X126325714Y-59322381D01*
X127087619Y-58322381D02*
X127754286Y-58322381D01*
X127325714Y-59322381D01*
X121102381Y-67619285D02*
X121102381Y-68095476D01*
X120102381Y-68095476D01*
X120578571Y-67285952D02*
X120578571Y-66952618D01*
X121102381Y-66809761D02*
X121102381Y-67285952D01*
X120102381Y-67285952D01*
X120102381Y-66809761D01*
X120150000Y-65857380D02*
X120102381Y-65952618D01*
X120102381Y-66095475D01*
X120150000Y-66238333D01*
X120245238Y-66333571D01*
X120340476Y-66381190D01*
X120530952Y-66428809D01*
X120673810Y-66428809D01*
X120864286Y-66381190D01*
X120959524Y-66333571D01*
X121054762Y-66238333D01*
X121102381Y-66095475D01*
X121102381Y-66000237D01*
X121054762Y-65857380D01*
X121007143Y-65809761D01*
X120673810Y-65809761D01*
X120673810Y-66000237D01*
X121102381Y-64857380D02*
X121102381Y-65428809D01*
X121102381Y-65143095D02*
X120102381Y-65143095D01*
X120245238Y-65238333D01*
X120340476Y-65333571D01*
X120388095Y-65428809D01*
X120721429Y-64428809D02*
X120721429Y-63666904D01*
X120197619Y-63238333D02*
X120150000Y-63190714D01*
X120102381Y-63095476D01*
X120102381Y-62857380D01*
X120150000Y-62762142D01*
X120197619Y-62714523D01*
X120292857Y-62666904D01*
X120388095Y-62666904D01*
X120530952Y-62714523D01*
X121102381Y-63285952D01*
X121102381Y-62666904D01*
X139565477Y-58322381D02*
X139565477Y-59036667D01*
X139517857Y-59179524D01*
X139422619Y-59274762D01*
X139279762Y-59322381D01*
X139184524Y-59322381D01*
X140565477Y-59322381D02*
X139994048Y-59322381D01*
X140279762Y-59322381D02*
X140279762Y-58322381D01*
X140184524Y-58465238D01*
X140089286Y-58560476D01*
X139994048Y-58608095D01*
X141422620Y-58322381D02*
X141232143Y-58322381D01*
X141136905Y-58370000D01*
X141089286Y-58417619D01*
X140994048Y-58560476D01*
X140946429Y-58750952D01*
X140946429Y-59131905D01*
X140994048Y-59227143D01*
X141041667Y-59274762D01*
X141136905Y-59322381D01*
X141327382Y-59322381D01*
X141422620Y-59274762D01*
X141470239Y-59227143D01*
X141517858Y-59131905D01*
X141517858Y-58893810D01*
X141470239Y-58798571D01*
X141422620Y-58750952D01*
X141327382Y-58703333D01*
X141136905Y-58703333D01*
X141041667Y-58750952D01*
X140994048Y-58798571D01*
X140946429Y-58893810D01*
X134437381Y-67619285D02*
X134437381Y-68095476D01*
X133437381Y-68095476D01*
X133913571Y-67285952D02*
X133913571Y-66952618D01*
X134437381Y-66809761D02*
X134437381Y-67285952D01*
X133437381Y-67285952D01*
X133437381Y-66809761D01*
X133485000Y-65857380D02*
X133437381Y-65952618D01*
X133437381Y-66095475D01*
X133485000Y-66238333D01*
X133580238Y-66333571D01*
X133675476Y-66381190D01*
X133865952Y-66428809D01*
X134008810Y-66428809D01*
X134199286Y-66381190D01*
X134294524Y-66333571D01*
X134389762Y-66238333D01*
X134437381Y-66095475D01*
X134437381Y-66000237D01*
X134389762Y-65857380D01*
X134342143Y-65809761D01*
X134008810Y-65809761D01*
X134008810Y-66000237D01*
X133437381Y-65476428D02*
X133437381Y-64857380D01*
X133818333Y-65190714D01*
X133818333Y-65047856D01*
X133865952Y-64952618D01*
X133913571Y-64904999D01*
X134008810Y-64857380D01*
X134246905Y-64857380D01*
X134342143Y-64904999D01*
X134389762Y-64952618D01*
X134437381Y-65047856D01*
X134437381Y-65333571D01*
X134389762Y-65428809D01*
X134342143Y-65476428D01*
X134056429Y-64428809D02*
X134056429Y-63666904D01*
X133770714Y-62762142D02*
X134437381Y-62762142D01*
X133389762Y-63000238D02*
X134104048Y-63238333D01*
X134104048Y-62619285D01*
M02*
