M48
;DRILL file {KiCad 4.0.7} date Tuesday, February 20, 2018 'PMt' 07:47:27 PM
;FORMAT={-:-/ absolute / metric / decimal}
FMAT,2
METRIC,TZ
T1C0.400
T2C0.800
T3C1.000
T4C1.200
%
G90
G05
M71
T1
X58.42Y-43.18
X58.42Y-48.26
X63.5Y-41.91
X63.5Y-44.45
X64.77Y-41.91
X76.2Y-41.91
X76.2Y-44.45
X78.74Y-36.83
X81.28Y-34.29
X92.71Y-25.4
T2
X87.63Y-39.37
X87.67Y-31.75
X89.63Y-39.37
X90.17Y-31.75
X91.63Y-39.37
T3
X54.61Y-40.64
X54.61Y-43.18
X54.61Y-45.72
X54.61Y-48.26
X71.12Y-19.05
X71.12Y-21.59
X71.12Y-24.13
T4
X87.63Y-46.99
X90.17Y-46.99
X92.71Y-46.99
T3
X53.69Y-28.21G85X53.69Y-30.21
G05
X55.69Y-33.91G85X57.69Y-33.91
G05
X59.69Y-28.21G85X59.69Y-30.21
G05
T0
M30
