G04 #@! TF.FileFunction,Copper,L2,Bot,Signal*
%FSLAX46Y46*%
G04 Gerber Fmt 4.6, Leading zero omitted, Abs format (unit mm)*
G04 Created by KiCad (PCBNEW 4.0.7) date Tuesday, February 20, 2018 'PMt' 07:47:19 PM*
%MOMM*%
%LPD*%
G01*
G04 APERTURE LIST*
%ADD10C,0.100000*%
%ADD11R,1.600000X2.000000*%
%ADD12R,1.600000X1.600000*%
%ADD13C,1.600000*%
%ADD14R,3.500000X3.500000*%
%ADD15R,1.700000X1.700000*%
%ADD16O,1.700000X1.700000*%
%ADD17R,2.000000X1.700000*%
%ADD18R,1.700000X2.000000*%
%ADD19R,1.800000X1.800000*%
%ADD20O,1.800000X1.800000*%
%ADD21R,1.500000X0.600000*%
%ADD22R,1.500000X1.500000*%
%ADD23C,1.500000*%
%ADD24R,2.000000X2.600000*%
%ADD25O,2.000000X2.600000*%
%ADD26R,2.000000X3.800000*%
%ADD27R,2.000000X1.500000*%
%ADD28C,0.600000*%
%ADD29C,0.250000*%
%ADD30C,0.750000*%
%ADD31C,0.254000*%
G04 APERTURE END LIST*
D10*
D11*
X80010000Y-19590000D03*
X80010000Y-23590000D03*
D12*
X90170000Y-31750000D03*
D13*
X87670000Y-31750000D03*
D11*
X66040000Y-28480000D03*
X66040000Y-32480000D03*
D14*
X59690000Y-29210000D03*
X53690000Y-29210000D03*
X56690000Y-33910000D03*
D15*
X54610000Y-40640000D03*
D16*
X54610000Y-43180000D03*
X54610000Y-45720000D03*
X54610000Y-48260000D03*
D17*
X65500000Y-21590000D03*
X61500000Y-21590000D03*
X65500000Y-16510000D03*
X61500000Y-16510000D03*
D18*
X71120000Y-45180000D03*
X71120000Y-41180000D03*
D19*
X71120000Y-19050000D03*
D20*
X71120000Y-21590000D03*
X71120000Y-24130000D03*
D21*
X60800000Y-45720000D03*
X60800000Y-44450000D03*
X60800000Y-43180000D03*
X60800000Y-41910000D03*
X60800000Y-40640000D03*
X60800000Y-39370000D03*
X60800000Y-38100000D03*
X66200000Y-38100000D03*
X66200000Y-39370000D03*
X66200000Y-40640000D03*
X66200000Y-41910000D03*
X66200000Y-43180000D03*
X66200000Y-44450000D03*
X66200000Y-45720000D03*
D22*
X87630000Y-39370000D03*
D23*
X89630000Y-39370000D03*
X91630000Y-39370000D03*
D24*
X92710000Y-46990000D03*
D25*
X90170000Y-46990000D03*
X87630000Y-46990000D03*
D26*
X78080000Y-30480000D03*
D27*
X71780000Y-30480000D03*
X71780000Y-28180000D03*
X71780000Y-32780000D03*
D28*
X92710000Y-25400000D03*
X76200000Y-44450000D03*
X81280000Y-34290000D03*
X78740000Y-36830000D03*
X58420000Y-43180000D03*
X58420000Y-48260000D03*
X63500000Y-41910000D03*
X63500000Y-44450000D03*
X64770000Y-41910000D03*
X76200000Y-41910000D03*
D29*
X78740000Y-16510000D02*
X79470000Y-16510000D01*
X74930000Y-16510000D02*
X74930000Y-16510000D01*
X74930000Y-16510000D02*
X75470000Y-16510000D01*
D30*
X92710000Y-25400000D02*
X91440000Y-24130000D01*
X91440000Y-24130000D02*
X80010000Y-24130000D01*
X80010000Y-24130000D02*
X80010000Y-23590000D01*
X66040000Y-32480000D02*
X64040000Y-32480000D01*
X62610000Y-33910000D02*
X56690000Y-33910000D01*
X64040000Y-32480000D02*
X62610000Y-33910000D01*
D29*
X60800000Y-38100000D02*
X57150000Y-38100000D01*
X57150000Y-38100000D02*
X54610000Y-40640000D01*
X66200000Y-39370000D02*
X63500000Y-39370000D01*
X63500000Y-38100000D02*
X60800000Y-38100000D01*
X63500000Y-39370000D02*
X63500000Y-38100000D01*
D30*
X61500000Y-16510000D02*
X61500000Y-17240000D01*
X61500000Y-17240000D02*
X58420000Y-20320000D01*
X58420000Y-24480000D02*
X53690000Y-29210000D01*
X58420000Y-20320000D02*
X58420000Y-24480000D01*
D29*
X60800000Y-38100000D02*
X60960000Y-38100000D01*
X57150000Y-34290000D02*
X56690000Y-33910000D01*
X87670000Y-31750000D02*
X87630000Y-31750000D01*
D30*
X87630000Y-31750000D02*
X83820000Y-35560000D01*
X77470000Y-33020000D02*
X72390000Y-33020000D01*
X80010000Y-35560000D02*
X77470000Y-33020000D01*
X83820000Y-35560000D02*
X80010000Y-35560000D01*
D29*
X72390000Y-33020000D02*
X71780000Y-32780000D01*
X61500000Y-16510000D02*
X60960000Y-16510000D01*
X71780000Y-32780000D02*
X72390000Y-33020000D01*
D30*
X72390000Y-33020000D02*
X66040000Y-33020000D01*
D29*
X66040000Y-33020000D02*
X66040000Y-32480000D01*
X66040000Y-32480000D02*
X66040000Y-35560000D01*
X66040000Y-35560000D02*
X64770000Y-36830000D01*
X64770000Y-36830000D02*
X64770000Y-39370000D01*
X64770000Y-39370000D02*
X66200000Y-39370000D01*
X76200000Y-44450000D02*
X74930000Y-45720000D01*
X74930000Y-45720000D02*
X71120000Y-45720000D01*
X71120000Y-45720000D02*
X71120000Y-45180000D01*
X81280000Y-34290000D02*
X77470000Y-30480000D01*
X77470000Y-30480000D02*
X78080000Y-30480000D01*
X71780000Y-30480000D02*
X69850000Y-30480000D01*
X69850000Y-30480000D02*
X67310000Y-27940000D01*
X67310000Y-27940000D02*
X66040000Y-27940000D01*
X66040000Y-27940000D02*
X66040000Y-28480000D01*
X78080000Y-30480000D02*
X71780000Y-30480000D01*
D30*
X78740000Y-36830000D02*
X88900000Y-36830000D01*
X88900000Y-36830000D02*
X90170000Y-39370000D01*
D29*
X90170000Y-39370000D02*
X89630000Y-39370000D01*
D30*
X71120000Y-21590000D02*
X65500000Y-21590000D01*
D29*
X54610000Y-48260000D02*
X58420000Y-48260000D01*
X58420000Y-43180000D02*
X60800000Y-43180000D01*
X66200000Y-43180000D02*
X64770000Y-43180000D01*
X55880000Y-45720000D02*
X54610000Y-45720000D01*
X57150000Y-46990000D02*
X55880000Y-45720000D01*
X62230000Y-46990000D02*
X57150000Y-46990000D01*
X64770000Y-44450000D02*
X62230000Y-46990000D01*
X64770000Y-43180000D02*
X64770000Y-44450000D01*
X60800000Y-45720000D02*
X62230000Y-45720000D01*
X64770000Y-40640000D02*
X66200000Y-40640000D01*
X63500000Y-41910000D02*
X64770000Y-40640000D01*
X62230000Y-45720000D02*
X63500000Y-44450000D01*
X60800000Y-45720000D02*
X60960000Y-45720000D01*
X54610000Y-43180000D02*
X58420000Y-45720000D01*
X58420000Y-45720000D02*
X60800000Y-45720000D01*
X66200000Y-41910000D02*
X64770000Y-41910000D01*
X87820000Y-43180000D02*
X91630000Y-39370000D01*
X77470000Y-43180000D02*
X87820000Y-43180000D01*
X76200000Y-41910000D02*
X77470000Y-43180000D01*
X64770000Y-41910000D02*
X62230000Y-44450000D01*
X62230000Y-44450000D02*
X60800000Y-44450000D01*
X61500000Y-21590000D02*
X60960000Y-21590000D01*
X60960000Y-21590000D02*
X66040000Y-16510000D01*
X66040000Y-16510000D02*
X65500000Y-16510000D01*
X65500000Y-16510000D02*
X66040000Y-16510000D01*
X66040000Y-16510000D02*
X68580000Y-19050000D01*
X68580000Y-19050000D02*
X71120000Y-19050000D01*
X66200000Y-38100000D02*
X66040000Y-38100000D01*
X68580000Y-38100000D02*
X71120000Y-40640000D01*
X71120000Y-40640000D02*
X71120000Y-41180000D01*
X66200000Y-44450000D02*
X68580000Y-44450000D01*
X68580000Y-44450000D02*
X68580000Y-38100000D01*
X68580000Y-38100000D02*
X66200000Y-38100000D01*
D30*
X71120000Y-24130000D02*
X76200000Y-19050000D01*
X76200000Y-19050000D02*
X80010000Y-19050000D01*
X80010000Y-19050000D02*
X80010000Y-19590000D01*
X90170000Y-31750000D02*
X86360000Y-27940000D01*
X86360000Y-27940000D02*
X72390000Y-27940000D01*
D29*
X72390000Y-27940000D02*
X71780000Y-28180000D01*
X71780000Y-28180000D02*
X72390000Y-27940000D01*
X72390000Y-27940000D02*
X71120000Y-27940000D01*
D30*
X71120000Y-27940000D02*
X69850000Y-26670000D01*
X62230000Y-29210000D02*
X59690000Y-29210000D01*
X64770000Y-26670000D02*
X62230000Y-29210000D01*
X69850000Y-26670000D02*
X64770000Y-26670000D01*
X90170000Y-31750000D02*
X90170000Y-35560000D01*
X90170000Y-44450000D02*
X90170000Y-46990000D01*
X95250000Y-41910000D02*
X90170000Y-44450000D01*
X95250000Y-38100000D02*
X95250000Y-41910000D01*
X90170000Y-35560000D02*
X95250000Y-38100000D01*
D29*
X71780000Y-28180000D02*
X72390000Y-27940000D01*
D30*
X72390000Y-27940000D02*
X72390000Y-25400000D01*
X72390000Y-25400000D02*
X71120000Y-24130000D01*
D31*
G36*
X99620000Y-58980000D02*
X51510000Y-58980000D01*
X51510000Y-56322619D01*
X52374613Y-56322619D01*
X52714155Y-57144372D01*
X53342321Y-57773636D01*
X54163481Y-58114611D01*
X55052619Y-58115387D01*
X55874372Y-57775845D01*
X56503636Y-57147679D01*
X56844611Y-56326519D01*
X56844614Y-56322619D01*
X94284613Y-56322619D01*
X94624155Y-57144372D01*
X95252321Y-57773636D01*
X96073481Y-58114611D01*
X96962619Y-58115387D01*
X97784372Y-57775845D01*
X98413636Y-57147679D01*
X98754611Y-56326519D01*
X98755387Y-55437381D01*
X98415845Y-54615628D01*
X97787679Y-53986364D01*
X96966519Y-53645389D01*
X96077381Y-53644613D01*
X95255628Y-53984155D01*
X94626364Y-54612321D01*
X94285389Y-55433481D01*
X94284613Y-56322619D01*
X56844614Y-56322619D01*
X56845387Y-55437381D01*
X56505845Y-54615628D01*
X55877679Y-53986364D01*
X55056519Y-53645389D01*
X54167381Y-53644613D01*
X53345628Y-53984155D01*
X52716364Y-54612321D01*
X52375389Y-55433481D01*
X52374613Y-56322619D01*
X51510000Y-56322619D01*
X51510000Y-43180000D01*
X53095907Y-43180000D01*
X53208946Y-43748285D01*
X53530853Y-44230054D01*
X53860026Y-44450000D01*
X53530853Y-44669946D01*
X53208946Y-45151715D01*
X53095907Y-45720000D01*
X53208946Y-46288285D01*
X53530853Y-46770054D01*
X53860026Y-46990000D01*
X53530853Y-47209946D01*
X53208946Y-47691715D01*
X53095907Y-48260000D01*
X53208946Y-48828285D01*
X53530853Y-49310054D01*
X54012622Y-49631961D01*
X54580907Y-49745000D01*
X54639093Y-49745000D01*
X55207378Y-49631961D01*
X55689147Y-49310054D01*
X55882954Y-49020000D01*
X57857537Y-49020000D01*
X57889673Y-49052192D01*
X58233201Y-49194838D01*
X58605167Y-49195162D01*
X58948943Y-49053117D01*
X59212192Y-48790327D01*
X59354838Y-48446799D01*
X59355162Y-48074833D01*
X59220944Y-47750000D01*
X62230000Y-47750000D01*
X62520839Y-47692148D01*
X62767401Y-47527401D01*
X63177802Y-47117000D01*
X85995000Y-47117000D01*
X85995000Y-47417000D01*
X86168058Y-48033020D01*
X86563683Y-48535922D01*
X87121645Y-48849144D01*
X87249566Y-48880124D01*
X87503000Y-48760777D01*
X87503000Y-47117000D01*
X85995000Y-47117000D01*
X63177802Y-47117000D01*
X64802560Y-45492242D01*
X64802560Y-46020000D01*
X64846838Y-46255317D01*
X64985910Y-46471441D01*
X65198110Y-46616431D01*
X65450000Y-46667440D01*
X66950000Y-46667440D01*
X67185317Y-46623162D01*
X67401441Y-46484090D01*
X67546431Y-46271890D01*
X67597440Y-46020000D01*
X67597440Y-45420000D01*
X67557926Y-45210000D01*
X68580000Y-45210000D01*
X68870839Y-45152148D01*
X69117401Y-44987401D01*
X69282148Y-44740839D01*
X69340000Y-44450000D01*
X69340000Y-44180000D01*
X69622560Y-44180000D01*
X69622560Y-46180000D01*
X69666838Y-46415317D01*
X69805910Y-46631441D01*
X70018110Y-46776431D01*
X70270000Y-46827440D01*
X71970000Y-46827440D01*
X72205317Y-46783162D01*
X72421441Y-46644090D01*
X72476847Y-46563000D01*
X85995000Y-46563000D01*
X85995000Y-46863000D01*
X87503000Y-46863000D01*
X87503000Y-45219223D01*
X87249566Y-45099876D01*
X87121645Y-45130856D01*
X86563683Y-45444078D01*
X86168058Y-45946980D01*
X85995000Y-46563000D01*
X72476847Y-46563000D01*
X72533559Y-46480000D01*
X74930000Y-46480000D01*
X75220839Y-46422148D01*
X75467401Y-46257401D01*
X76339680Y-45385122D01*
X76385167Y-45385162D01*
X76728943Y-45243117D01*
X76992192Y-44980327D01*
X77134838Y-44636799D01*
X77135162Y-44264833D01*
X76993117Y-43921057D01*
X76730327Y-43657808D01*
X76386799Y-43515162D01*
X76014833Y-43514838D01*
X75671057Y-43656883D01*
X75407808Y-43919673D01*
X75265162Y-44263201D01*
X75265121Y-44310077D01*
X74615198Y-44960000D01*
X72617440Y-44960000D01*
X72617440Y-44180000D01*
X72573162Y-43944683D01*
X72434090Y-43728559D01*
X72221890Y-43583569D01*
X71970000Y-43532560D01*
X70270000Y-43532560D01*
X70034683Y-43576838D01*
X69818559Y-43715910D01*
X69673569Y-43928110D01*
X69622560Y-44180000D01*
X69340000Y-44180000D01*
X69340000Y-39934802D01*
X69622560Y-40217362D01*
X69622560Y-42180000D01*
X69666838Y-42415317D01*
X69805910Y-42631441D01*
X70018110Y-42776431D01*
X70270000Y-42827440D01*
X71970000Y-42827440D01*
X72205317Y-42783162D01*
X72421441Y-42644090D01*
X72566431Y-42431890D01*
X72617440Y-42180000D01*
X72617440Y-40180000D01*
X72573162Y-39944683D01*
X72434090Y-39728559D01*
X72327531Y-39655750D01*
X86245000Y-39655750D01*
X86245000Y-40246310D01*
X86341673Y-40479699D01*
X86520302Y-40658327D01*
X86753691Y-40755000D01*
X87344250Y-40755000D01*
X87503000Y-40596250D01*
X87503000Y-39497000D01*
X86403750Y-39497000D01*
X86245000Y-39655750D01*
X72327531Y-39655750D01*
X72221890Y-39583569D01*
X71970000Y-39532560D01*
X71087362Y-39532560D01*
X70048492Y-38493690D01*
X86245000Y-38493690D01*
X86245000Y-39084250D01*
X86403750Y-39243000D01*
X87503000Y-39243000D01*
X87503000Y-38143750D01*
X87344250Y-37985000D01*
X86753691Y-37985000D01*
X86520302Y-38081673D01*
X86341673Y-38260301D01*
X86245000Y-38493690D01*
X70048492Y-38493690D01*
X69117401Y-37562599D01*
X68870839Y-37397852D01*
X68580000Y-37340000D01*
X67401563Y-37340000D01*
X67201890Y-37203569D01*
X66950000Y-37152560D01*
X65450000Y-37152560D01*
X65214683Y-37196838D01*
X64998559Y-37335910D01*
X64853569Y-37548110D01*
X64802560Y-37800000D01*
X64802560Y-38400000D01*
X64846838Y-38635317D01*
X64905178Y-38725980D01*
X64815000Y-38943690D01*
X64815000Y-39084250D01*
X64973750Y-39243000D01*
X66073000Y-39243000D01*
X66073000Y-39223000D01*
X66327000Y-39223000D01*
X66327000Y-39243000D01*
X67426250Y-39243000D01*
X67585000Y-39084250D01*
X67585000Y-38943690D01*
X67550334Y-38860000D01*
X67820000Y-38860000D01*
X67820000Y-43690000D01*
X67554914Y-43690000D01*
X67597440Y-43480000D01*
X67597440Y-42880000D01*
X67553162Y-42644683D01*
X67489322Y-42545472D01*
X67546431Y-42461890D01*
X67597440Y-42210000D01*
X67597440Y-41610000D01*
X67553162Y-41374683D01*
X67489322Y-41275472D01*
X67546431Y-41191890D01*
X67597440Y-40940000D01*
X67597440Y-40340000D01*
X67553162Y-40104683D01*
X67494822Y-40014020D01*
X67585000Y-39796310D01*
X67585000Y-39655750D01*
X67426250Y-39497000D01*
X66327000Y-39497000D01*
X66327000Y-39517000D01*
X66073000Y-39517000D01*
X66073000Y-39497000D01*
X64973750Y-39497000D01*
X64815000Y-39655750D01*
X64815000Y-39796310D01*
X64849666Y-39880000D01*
X64770000Y-39880000D01*
X64479160Y-39937852D01*
X64232599Y-40102599D01*
X63360320Y-40974878D01*
X63314833Y-40974838D01*
X62971057Y-41116883D01*
X62707808Y-41379673D01*
X62565162Y-41723201D01*
X62564838Y-42095167D01*
X62706883Y-42438943D01*
X62936369Y-42668829D01*
X62197440Y-43407758D01*
X62197440Y-42880000D01*
X62153162Y-42644683D01*
X62089322Y-42545472D01*
X62146431Y-42461890D01*
X62197440Y-42210000D01*
X62197440Y-41610000D01*
X62153162Y-41374683D01*
X62089322Y-41275472D01*
X62146431Y-41191890D01*
X62197440Y-40940000D01*
X62197440Y-40340000D01*
X62153162Y-40104683D01*
X62089322Y-40005472D01*
X62146431Y-39921890D01*
X62197440Y-39670000D01*
X62197440Y-39070000D01*
X62153162Y-38834683D01*
X62094822Y-38744020D01*
X62185000Y-38526310D01*
X62185000Y-38385750D01*
X62026250Y-38227000D01*
X60927000Y-38227000D01*
X60927000Y-38247000D01*
X60673000Y-38247000D01*
X60673000Y-38227000D01*
X59573750Y-38227000D01*
X59415000Y-38385750D01*
X59415000Y-38526310D01*
X59504806Y-38743122D01*
X59453569Y-38818110D01*
X59402560Y-39070000D01*
X59402560Y-39670000D01*
X59446838Y-39905317D01*
X59510678Y-40004528D01*
X59453569Y-40088110D01*
X59402560Y-40340000D01*
X59402560Y-40940000D01*
X59446838Y-41175317D01*
X59510678Y-41274528D01*
X59453569Y-41358110D01*
X59402560Y-41610000D01*
X59402560Y-42210000D01*
X59442074Y-42420000D01*
X58982463Y-42420000D01*
X58950327Y-42387808D01*
X58606799Y-42245162D01*
X58234833Y-42244838D01*
X57891057Y-42386883D01*
X57627808Y-42649673D01*
X57485162Y-42993201D01*
X57484838Y-43365167D01*
X57626883Y-43708943D01*
X57889673Y-43972192D01*
X58233201Y-44114838D01*
X58605167Y-44115162D01*
X58948943Y-43973117D01*
X58982118Y-43940000D01*
X59445086Y-43940000D01*
X59402560Y-44150000D01*
X59402560Y-44750000D01*
X59442074Y-44960000D01*
X58650109Y-44960000D01*
X56107235Y-43264751D01*
X56124093Y-43180000D01*
X56011054Y-42611715D01*
X55689147Y-42129946D01*
X55645223Y-42100597D01*
X55819698Y-42028327D01*
X55998327Y-41849699D01*
X56095000Y-41616310D01*
X56095000Y-40925750D01*
X55936250Y-40767000D01*
X54737000Y-40767000D01*
X54737000Y-40787000D01*
X54483000Y-40787000D01*
X54483000Y-40767000D01*
X53283750Y-40767000D01*
X53125000Y-40925750D01*
X53125000Y-41616310D01*
X53221673Y-41849699D01*
X53400302Y-42028327D01*
X53574777Y-42100597D01*
X53530853Y-42129946D01*
X53208946Y-42611715D01*
X53095907Y-43180000D01*
X51510000Y-43180000D01*
X51510000Y-39663690D01*
X53125000Y-39663690D01*
X53125000Y-40354250D01*
X53283750Y-40513000D01*
X54483000Y-40513000D01*
X54483000Y-39313750D01*
X54737000Y-39313750D01*
X54737000Y-40513000D01*
X55936250Y-40513000D01*
X56095000Y-40354250D01*
X56095000Y-39663690D01*
X55998327Y-39430301D01*
X55819698Y-39251673D01*
X55586309Y-39155000D01*
X54895750Y-39155000D01*
X54737000Y-39313750D01*
X54483000Y-39313750D01*
X54324250Y-39155000D01*
X53633691Y-39155000D01*
X53400302Y-39251673D01*
X53221673Y-39430301D01*
X53125000Y-39663690D01*
X51510000Y-39663690D01*
X51510000Y-37673690D01*
X59415000Y-37673690D01*
X59415000Y-37814250D01*
X59573750Y-37973000D01*
X60673000Y-37973000D01*
X60673000Y-37323750D01*
X60927000Y-37323750D01*
X60927000Y-37973000D01*
X62026250Y-37973000D01*
X62185000Y-37814250D01*
X62185000Y-37673690D01*
X62088327Y-37440301D01*
X61909698Y-37261673D01*
X61676309Y-37165000D01*
X61085750Y-37165000D01*
X60927000Y-37323750D01*
X60673000Y-37323750D01*
X60514250Y-37165000D01*
X59923691Y-37165000D01*
X59690302Y-37261673D01*
X59511673Y-37440301D01*
X59415000Y-37673690D01*
X51510000Y-37673690D01*
X51510000Y-34195750D01*
X54305000Y-34195750D01*
X54305000Y-35786310D01*
X54401673Y-36019699D01*
X54580302Y-36198327D01*
X54813691Y-36295000D01*
X56404250Y-36295000D01*
X56563000Y-36136250D01*
X56563000Y-34037000D01*
X56817000Y-34037000D01*
X56817000Y-36136250D01*
X56975750Y-36295000D01*
X58566309Y-36295000D01*
X58799698Y-36198327D01*
X58978327Y-36019699D01*
X59075000Y-35786310D01*
X59075000Y-34195750D01*
X58916250Y-34037000D01*
X56817000Y-34037000D01*
X56563000Y-34037000D01*
X54463750Y-34037000D01*
X54305000Y-34195750D01*
X51510000Y-34195750D01*
X51510000Y-31428025D01*
X51580302Y-31498327D01*
X51813691Y-31595000D01*
X53404250Y-31595000D01*
X53563000Y-31436250D01*
X53563000Y-29337000D01*
X53817000Y-29337000D01*
X53817000Y-31436250D01*
X53975750Y-31595000D01*
X54644696Y-31595000D01*
X54580302Y-31621673D01*
X54401673Y-31800301D01*
X54305000Y-32033690D01*
X54305000Y-33624250D01*
X54463750Y-33783000D01*
X56563000Y-33783000D01*
X56563000Y-31683750D01*
X56817000Y-31683750D01*
X56817000Y-33783000D01*
X58916250Y-33783000D01*
X59075000Y-33624250D01*
X59075000Y-32765750D01*
X64605000Y-32765750D01*
X64605000Y-33606309D01*
X64701673Y-33839698D01*
X64880301Y-34018327D01*
X65113690Y-34115000D01*
X65754250Y-34115000D01*
X65913000Y-33956250D01*
X65913000Y-32607000D01*
X66167000Y-32607000D01*
X66167000Y-33956250D01*
X66325750Y-34115000D01*
X66966310Y-34115000D01*
X67199699Y-34018327D01*
X67378327Y-33839698D01*
X67475000Y-33606309D01*
X67475000Y-33065750D01*
X70145000Y-33065750D01*
X70145000Y-33656310D01*
X70241673Y-33889699D01*
X70420302Y-34068327D01*
X70653691Y-34165000D01*
X71494250Y-34165000D01*
X71653000Y-34006250D01*
X71653000Y-32907000D01*
X71907000Y-32907000D01*
X71907000Y-34006250D01*
X72065750Y-34165000D01*
X72906309Y-34165000D01*
X73139698Y-34068327D01*
X73318327Y-33889699D01*
X73415000Y-33656310D01*
X73415000Y-33065750D01*
X73256250Y-32907000D01*
X71907000Y-32907000D01*
X71653000Y-32907000D01*
X70303750Y-32907000D01*
X70145000Y-33065750D01*
X67475000Y-33065750D01*
X67475000Y-32765750D01*
X67316250Y-32607000D01*
X66167000Y-32607000D01*
X65913000Y-32607000D01*
X64763750Y-32607000D01*
X64605000Y-32765750D01*
X59075000Y-32765750D01*
X59075000Y-32033690D01*
X58978327Y-31800301D01*
X58799698Y-31621673D01*
X58765337Y-31607440D01*
X61440000Y-31607440D01*
X61675317Y-31563162D01*
X61891441Y-31424090D01*
X61939542Y-31353691D01*
X64605000Y-31353691D01*
X64605000Y-32194250D01*
X64763750Y-32353000D01*
X65913000Y-32353000D01*
X65913000Y-31003750D01*
X66167000Y-31003750D01*
X66167000Y-32353000D01*
X67316250Y-32353000D01*
X67475000Y-32194250D01*
X67475000Y-31353691D01*
X67378327Y-31120302D01*
X67199699Y-30941673D01*
X66966310Y-30845000D01*
X66325750Y-30845000D01*
X66167000Y-31003750D01*
X65913000Y-31003750D01*
X65754250Y-30845000D01*
X65113690Y-30845000D01*
X64880301Y-30941673D01*
X64701673Y-31120302D01*
X64605000Y-31353691D01*
X61939542Y-31353691D01*
X62036431Y-31211890D01*
X62087440Y-30960000D01*
X62087440Y-30220000D01*
X62230000Y-30220000D01*
X62616510Y-30143118D01*
X62944178Y-29924178D01*
X64592560Y-28275796D01*
X64592560Y-29480000D01*
X64636838Y-29715317D01*
X64775910Y-29931441D01*
X64988110Y-30076431D01*
X65240000Y-30127440D01*
X66840000Y-30127440D01*
X67075317Y-30083162D01*
X67291441Y-29944090D01*
X67436431Y-29731890D01*
X67487440Y-29480000D01*
X67487440Y-29192242D01*
X69312599Y-31017401D01*
X69559160Y-31182148D01*
X69607414Y-31191746D01*
X69850000Y-31240000D01*
X70134442Y-31240000D01*
X70176838Y-31465317D01*
X70282482Y-31629492D01*
X70241673Y-31670301D01*
X70145000Y-31903690D01*
X70145000Y-32494250D01*
X70303750Y-32653000D01*
X71653000Y-32653000D01*
X71653000Y-32633000D01*
X71907000Y-32633000D01*
X71907000Y-32653000D01*
X73256250Y-32653000D01*
X73415000Y-32494250D01*
X73415000Y-31903690D01*
X73318327Y-31670301D01*
X73276366Y-31628340D01*
X73376431Y-31481890D01*
X73425415Y-31240000D01*
X76432560Y-31240000D01*
X76432560Y-32380000D01*
X76476838Y-32615317D01*
X76615910Y-32831441D01*
X76828110Y-32976431D01*
X77080000Y-33027440D01*
X78942638Y-33027440D01*
X80344878Y-34429680D01*
X80344838Y-34475167D01*
X80486883Y-34818943D01*
X80749673Y-35082192D01*
X81093201Y-35224838D01*
X81465167Y-35225162D01*
X81808943Y-35083117D01*
X82072192Y-34820327D01*
X82214838Y-34476799D01*
X82215162Y-34104833D01*
X82073117Y-33761057D01*
X81810327Y-33497808D01*
X81466799Y-33355162D01*
X81419923Y-33355121D01*
X80822547Y-32757745D01*
X86841861Y-32757745D01*
X86915995Y-33003864D01*
X87453223Y-33196965D01*
X88023454Y-33169778D01*
X88424005Y-33003864D01*
X88498139Y-32757745D01*
X87670000Y-31929605D01*
X86841861Y-32757745D01*
X80822547Y-32757745D01*
X79727440Y-31662638D01*
X79727440Y-31533223D01*
X86223035Y-31533223D01*
X86250222Y-32103454D01*
X86416136Y-32504005D01*
X86662255Y-32578139D01*
X87490395Y-31750000D01*
X86662255Y-30921861D01*
X86416136Y-30995995D01*
X86223035Y-31533223D01*
X79727440Y-31533223D01*
X79727440Y-28950000D01*
X85941644Y-28950000D01*
X87321624Y-30329980D01*
X87316546Y-30330222D01*
X86915995Y-30496136D01*
X86841861Y-30742255D01*
X87670000Y-31570395D01*
X87684142Y-31556252D01*
X87863748Y-31735858D01*
X87849605Y-31750000D01*
X88677745Y-32578139D01*
X88725167Y-32563855D01*
X88766838Y-32785317D01*
X88905910Y-33001441D01*
X89118110Y-33146431D01*
X89160000Y-33154914D01*
X89160000Y-35560000D01*
X89191582Y-35718775D01*
X89210739Y-35870739D01*
X89058775Y-35851582D01*
X88900000Y-35820000D01*
X78740000Y-35820000D01*
X78353490Y-35896882D01*
X78025822Y-36115822D01*
X77806882Y-36443490D01*
X77730000Y-36830000D01*
X77806882Y-37216510D01*
X78025822Y-37544178D01*
X78353490Y-37763118D01*
X78740000Y-37840000D01*
X88275786Y-37840000D01*
X88348286Y-37985000D01*
X87915750Y-37985000D01*
X87757000Y-38143750D01*
X87757000Y-39243000D01*
X87777000Y-39243000D01*
X87777000Y-39497000D01*
X87757000Y-39497000D01*
X87757000Y-40596250D01*
X87915750Y-40755000D01*
X88506309Y-40755000D01*
X88739698Y-40658327D01*
X88851593Y-40546433D01*
X89224091Y-40701107D01*
X87505198Y-42420000D01*
X77784802Y-42420000D01*
X77135122Y-41770320D01*
X77135162Y-41724833D01*
X76993117Y-41381057D01*
X76730327Y-41117808D01*
X76386799Y-40975162D01*
X76014833Y-40974838D01*
X75671057Y-41116883D01*
X75407808Y-41379673D01*
X75265162Y-41723201D01*
X75264838Y-42095167D01*
X75406883Y-42438943D01*
X75669673Y-42702192D01*
X76013201Y-42844838D01*
X76060077Y-42844879D01*
X76932599Y-43717401D01*
X77179160Y-43882148D01*
X77470000Y-43940000D01*
X87820000Y-43940000D01*
X88110839Y-43882148D01*
X88357401Y-43717401D01*
X91329800Y-40745002D01*
X91353298Y-40754759D01*
X91904285Y-40755240D01*
X92413515Y-40544831D01*
X92803461Y-40155564D01*
X93014759Y-39646702D01*
X93015240Y-39095715D01*
X92804831Y-38586485D01*
X92415564Y-38196539D01*
X91906702Y-37985241D01*
X91355715Y-37984760D01*
X90846485Y-38195169D01*
X90756642Y-38284856D01*
X89888428Y-36548428D01*
X94240000Y-38724214D01*
X94240000Y-41285786D01*
X89718314Y-43546629D01*
X89590427Y-43645882D01*
X89455822Y-43735822D01*
X89435660Y-43765997D01*
X89406992Y-43788246D01*
X89326821Y-43928886D01*
X89236882Y-44063490D01*
X89229802Y-44099082D01*
X89211830Y-44130610D01*
X89191582Y-44291225D01*
X89160000Y-44450000D01*
X89160000Y-45398337D01*
X89013880Y-45495971D01*
X88886781Y-45686188D01*
X88696317Y-45444078D01*
X88138355Y-45130856D01*
X88010434Y-45099876D01*
X87757000Y-45219223D01*
X87757000Y-46863000D01*
X87777000Y-46863000D01*
X87777000Y-47117000D01*
X87757000Y-47117000D01*
X87757000Y-48760777D01*
X88010434Y-48880124D01*
X88138355Y-48849144D01*
X88696317Y-48535922D01*
X88886781Y-48293812D01*
X89013880Y-48484029D01*
X89544313Y-48838452D01*
X90170000Y-48962909D01*
X90795687Y-48838452D01*
X91154192Y-48598907D01*
X91245910Y-48741441D01*
X91458110Y-48886431D01*
X91710000Y-48937440D01*
X93710000Y-48937440D01*
X93945317Y-48893162D01*
X94161441Y-48754090D01*
X94306431Y-48541890D01*
X94357440Y-48290000D01*
X94357440Y-45690000D01*
X94313162Y-45454683D01*
X94174090Y-45238559D01*
X93961890Y-45093569D01*
X93710000Y-45042560D01*
X91710000Y-45042560D01*
X91474683Y-45086838D01*
X91258559Y-45225910D01*
X91180000Y-45340885D01*
X91180000Y-45074214D01*
X95701686Y-42813371D01*
X95829569Y-42714120D01*
X95964178Y-42624178D01*
X95984341Y-42594001D01*
X96013008Y-42571753D01*
X96093179Y-42431114D01*
X96183118Y-42296510D01*
X96190197Y-42260920D01*
X96208171Y-42229390D01*
X96228419Y-42068767D01*
X96260000Y-41910000D01*
X96260000Y-38100000D01*
X96228419Y-37941233D01*
X96208171Y-37780610D01*
X96190197Y-37749080D01*
X96183118Y-37713490D01*
X96093179Y-37578886D01*
X96013008Y-37438247D01*
X95984341Y-37415999D01*
X95964178Y-37385822D01*
X95829569Y-37295880D01*
X95701686Y-37196629D01*
X91180000Y-34935786D01*
X91180000Y-33157926D01*
X91205317Y-33153162D01*
X91421441Y-33014090D01*
X91566431Y-32801890D01*
X91617440Y-32550000D01*
X91617440Y-30950000D01*
X91573162Y-30714683D01*
X91434090Y-30498559D01*
X91221890Y-30353569D01*
X90970000Y-30302560D01*
X90150916Y-30302560D01*
X87074178Y-27225822D01*
X86746510Y-27006882D01*
X86360000Y-26930000D01*
X73400000Y-26930000D01*
X73400000Y-25400000D01*
X73323118Y-25013490D01*
X73104178Y-24685822D01*
X72642296Y-24223940D01*
X72655000Y-24160072D01*
X72655000Y-24099928D01*
X72642296Y-24036060D01*
X72802606Y-23875750D01*
X78575000Y-23875750D01*
X78575000Y-24716309D01*
X78671673Y-24949698D01*
X78850301Y-25128327D01*
X79083690Y-25225000D01*
X79724250Y-25225000D01*
X79883000Y-25066250D01*
X79883000Y-23717000D01*
X80137000Y-23717000D01*
X80137000Y-25066250D01*
X80295750Y-25225000D01*
X80936310Y-25225000D01*
X81169699Y-25128327D01*
X81348327Y-24949698D01*
X81445000Y-24716309D01*
X81445000Y-23875750D01*
X81286250Y-23717000D01*
X80137000Y-23717000D01*
X79883000Y-23717000D01*
X78733750Y-23717000D01*
X78575000Y-23875750D01*
X72802606Y-23875750D01*
X74214665Y-22463691D01*
X78575000Y-22463691D01*
X78575000Y-23304250D01*
X78733750Y-23463000D01*
X79883000Y-23463000D01*
X79883000Y-22113750D01*
X80137000Y-22113750D01*
X80137000Y-23463000D01*
X81286250Y-23463000D01*
X81445000Y-23304250D01*
X81445000Y-22463691D01*
X81348327Y-22230302D01*
X81169699Y-22051673D01*
X80936310Y-21955000D01*
X80295750Y-21955000D01*
X80137000Y-22113750D01*
X79883000Y-22113750D01*
X79724250Y-21955000D01*
X79083690Y-21955000D01*
X78850301Y-22051673D01*
X78671673Y-22230302D01*
X78575000Y-22463691D01*
X74214665Y-22463691D01*
X75135081Y-21543275D01*
X85395000Y-21543275D01*
X85395000Y-21636725D01*
X85576547Y-22549425D01*
X86093550Y-23323175D01*
X86867300Y-23840178D01*
X87780000Y-24021725D01*
X88692700Y-23840178D01*
X89466450Y-23323175D01*
X89983453Y-22549425D01*
X90165000Y-21636725D01*
X90165000Y-21543275D01*
X89983453Y-20630575D01*
X89466450Y-19856825D01*
X88921377Y-19492619D01*
X94284613Y-19492619D01*
X94624155Y-20314372D01*
X95252321Y-20943636D01*
X96073481Y-21284611D01*
X96962619Y-21285387D01*
X97784372Y-20945845D01*
X98413636Y-20317679D01*
X98754611Y-19496519D01*
X98755387Y-18607381D01*
X98415845Y-17785628D01*
X97787679Y-17156364D01*
X96966519Y-16815389D01*
X96077381Y-16814613D01*
X95255628Y-17154155D01*
X94626364Y-17782321D01*
X94285389Y-18603481D01*
X94284613Y-19492619D01*
X88921377Y-19492619D01*
X88692700Y-19339822D01*
X87780000Y-19158275D01*
X86867300Y-19339822D01*
X86093550Y-19856825D01*
X85576547Y-20630575D01*
X85395000Y-21543275D01*
X75135081Y-21543275D01*
X76618356Y-20060000D01*
X78562560Y-20060000D01*
X78562560Y-20590000D01*
X78606838Y-20825317D01*
X78745910Y-21041441D01*
X78958110Y-21186431D01*
X79210000Y-21237440D01*
X80810000Y-21237440D01*
X81045317Y-21193162D01*
X81261441Y-21054090D01*
X81406431Y-20841890D01*
X81457440Y-20590000D01*
X81457440Y-18590000D01*
X81413162Y-18354683D01*
X81274090Y-18138559D01*
X81061890Y-17993569D01*
X80810000Y-17942560D01*
X79210000Y-17942560D01*
X78974683Y-17986838D01*
X78892067Y-18040000D01*
X76200000Y-18040000D01*
X75813490Y-18116882D01*
X75485822Y-18335822D01*
X72589750Y-21231894D01*
X72538155Y-20972509D01*
X72257163Y-20551974D01*
X72471441Y-20414090D01*
X72616431Y-20201890D01*
X72667440Y-19950000D01*
X72667440Y-18150000D01*
X72623162Y-17914683D01*
X72484090Y-17698559D01*
X72271890Y-17553569D01*
X72020000Y-17502560D01*
X70220000Y-17502560D01*
X69984683Y-17546838D01*
X69768559Y-17685910D01*
X69623569Y-17898110D01*
X69572560Y-18150000D01*
X69572560Y-18290000D01*
X68894802Y-18290000D01*
X67147440Y-16542638D01*
X67147440Y-16510000D01*
X74170000Y-16510000D01*
X74227852Y-16800839D01*
X74392599Y-17047401D01*
X74639161Y-17212148D01*
X74930000Y-17270000D01*
X75470000Y-17270000D01*
X75760839Y-17212148D01*
X76007401Y-17047401D01*
X76172148Y-16800839D01*
X76230000Y-16510000D01*
X77980000Y-16510000D01*
X78037852Y-16800839D01*
X78202599Y-17047401D01*
X78449161Y-17212148D01*
X78740000Y-17270000D01*
X79470000Y-17270000D01*
X79760839Y-17212148D01*
X80007401Y-17047401D01*
X80172148Y-16800839D01*
X80230000Y-16510000D01*
X80172148Y-16219161D01*
X80007401Y-15972599D01*
X79760839Y-15807852D01*
X79470000Y-15750000D01*
X78740000Y-15750000D01*
X78449161Y-15807852D01*
X78202599Y-15972599D01*
X78037852Y-16219161D01*
X77980000Y-16510000D01*
X76230000Y-16510000D01*
X76172148Y-16219161D01*
X76007401Y-15972599D01*
X75760839Y-15807852D01*
X75470000Y-15750000D01*
X74930000Y-15750000D01*
X74639161Y-15807852D01*
X74392599Y-15972599D01*
X74227852Y-16219161D01*
X74170000Y-16510000D01*
X67147440Y-16510000D01*
X67147440Y-15660000D01*
X67103162Y-15424683D01*
X66964090Y-15208559D01*
X66751890Y-15063569D01*
X66500000Y-15012560D01*
X64500000Y-15012560D01*
X64264683Y-15056838D01*
X64048559Y-15195910D01*
X63903569Y-15408110D01*
X63852560Y-15660000D01*
X63852560Y-17360000D01*
X63894153Y-17581045D01*
X61382638Y-20092560D01*
X60500000Y-20092560D01*
X60264683Y-20136838D01*
X60048559Y-20275910D01*
X59903569Y-20488110D01*
X59852560Y-20740000D01*
X59852560Y-22440000D01*
X59896838Y-22675317D01*
X60035910Y-22891441D01*
X60248110Y-23036431D01*
X60500000Y-23087440D01*
X62500000Y-23087440D01*
X62735317Y-23043162D01*
X62951441Y-22904090D01*
X63096431Y-22691890D01*
X63147440Y-22440000D01*
X63147440Y-20740000D01*
X63105847Y-20518955D01*
X65617362Y-18007440D01*
X66462638Y-18007440D01*
X68042599Y-19587401D01*
X68289160Y-19752148D01*
X68337414Y-19761746D01*
X68580000Y-19810000D01*
X69572560Y-19810000D01*
X69572560Y-19950000D01*
X69616838Y-20185317D01*
X69755910Y-20401441D01*
X69968110Y-20546431D01*
X69984344Y-20549719D01*
X69964111Y-20580000D01*
X67117334Y-20580000D01*
X67103162Y-20504683D01*
X66964090Y-20288559D01*
X66751890Y-20143569D01*
X66500000Y-20092560D01*
X64500000Y-20092560D01*
X64264683Y-20136838D01*
X64048559Y-20275910D01*
X63903569Y-20488110D01*
X63852560Y-20740000D01*
X63852560Y-22440000D01*
X63896838Y-22675317D01*
X64035910Y-22891441D01*
X64248110Y-23036431D01*
X64500000Y-23087440D01*
X66500000Y-23087440D01*
X66735317Y-23043162D01*
X66951441Y-22904090D01*
X67096431Y-22691890D01*
X67115039Y-22600000D01*
X69964111Y-22600000D01*
X70034591Y-22705481D01*
X70265845Y-22860000D01*
X70034591Y-23014519D01*
X69701845Y-23512509D01*
X69585000Y-24099928D01*
X69585000Y-24160072D01*
X69701845Y-24747491D01*
X70034591Y-25245481D01*
X70532581Y-25578227D01*
X71120000Y-25695072D01*
X71234033Y-25672389D01*
X71380000Y-25818356D01*
X71380000Y-26771644D01*
X70564178Y-25955822D01*
X70236510Y-25736882D01*
X69850000Y-25660000D01*
X64770000Y-25660000D01*
X64383489Y-25736882D01*
X64055822Y-25955822D01*
X62087440Y-27924204D01*
X62087440Y-27460000D01*
X62043162Y-27224683D01*
X61904090Y-27008559D01*
X61691890Y-26863569D01*
X61440000Y-26812560D01*
X57940000Y-26812560D01*
X57704683Y-26856838D01*
X57488559Y-26995910D01*
X57343569Y-27208110D01*
X57292560Y-27460000D01*
X57292560Y-30960000D01*
X57336838Y-31195317D01*
X57475910Y-31411441D01*
X57642109Y-31525000D01*
X56975750Y-31525000D01*
X56817000Y-31683750D01*
X56563000Y-31683750D01*
X56404250Y-31525000D01*
X55735304Y-31525000D01*
X55799698Y-31498327D01*
X55978327Y-31319699D01*
X56075000Y-31086310D01*
X56075000Y-29495750D01*
X55916250Y-29337000D01*
X53817000Y-29337000D01*
X53563000Y-29337000D01*
X53543000Y-29337000D01*
X53543000Y-29083000D01*
X53563000Y-29083000D01*
X53563000Y-26983750D01*
X53817000Y-26983750D01*
X53817000Y-29083000D01*
X55916250Y-29083000D01*
X56075000Y-28924250D01*
X56075000Y-27333690D01*
X55978327Y-27100301D01*
X55799698Y-26921673D01*
X55566309Y-26825000D01*
X53975750Y-26825000D01*
X53817000Y-26983750D01*
X53563000Y-26983750D01*
X53404250Y-26825000D01*
X51813691Y-26825000D01*
X51580302Y-26921673D01*
X51510000Y-26991975D01*
X51510000Y-19492619D01*
X52374613Y-19492619D01*
X52714155Y-20314372D01*
X53342321Y-20943636D01*
X54163481Y-21284611D01*
X55052619Y-21285387D01*
X55874372Y-20945845D01*
X56503636Y-20317679D01*
X56844611Y-19496519D01*
X56845387Y-18607381D01*
X56505845Y-17785628D01*
X55877679Y-17156364D01*
X55056519Y-16815389D01*
X54167381Y-16814613D01*
X53345628Y-17154155D01*
X52716364Y-17782321D01*
X52375389Y-18603481D01*
X52374613Y-19492619D01*
X51510000Y-19492619D01*
X51510000Y-16795750D01*
X59865000Y-16795750D01*
X59865000Y-17486310D01*
X59961673Y-17719699D01*
X60140302Y-17898327D01*
X60373691Y-17995000D01*
X61214250Y-17995000D01*
X61373000Y-17836250D01*
X61373000Y-16637000D01*
X61627000Y-16637000D01*
X61627000Y-17836250D01*
X61785750Y-17995000D01*
X62626309Y-17995000D01*
X62859698Y-17898327D01*
X63038327Y-17719699D01*
X63135000Y-17486310D01*
X63135000Y-16795750D01*
X62976250Y-16637000D01*
X61627000Y-16637000D01*
X61373000Y-16637000D01*
X60023750Y-16637000D01*
X59865000Y-16795750D01*
X51510000Y-16795750D01*
X51510000Y-15533690D01*
X59865000Y-15533690D01*
X59865000Y-16224250D01*
X60023750Y-16383000D01*
X61373000Y-16383000D01*
X61373000Y-15183750D01*
X61627000Y-15183750D01*
X61627000Y-16383000D01*
X62976250Y-16383000D01*
X63135000Y-16224250D01*
X63135000Y-15533690D01*
X63038327Y-15300301D01*
X62859698Y-15121673D01*
X62626309Y-15025000D01*
X61785750Y-15025000D01*
X61627000Y-15183750D01*
X61373000Y-15183750D01*
X61214250Y-15025000D01*
X60373691Y-15025000D01*
X60140302Y-15121673D01*
X59961673Y-15300301D01*
X59865000Y-15533690D01*
X51510000Y-15533690D01*
X51510000Y-14680000D01*
X99620000Y-14680000D01*
X99620000Y-58980000D01*
X99620000Y-58980000D01*
G37*
X99620000Y-58980000D02*
X51510000Y-58980000D01*
X51510000Y-56322619D01*
X52374613Y-56322619D01*
X52714155Y-57144372D01*
X53342321Y-57773636D01*
X54163481Y-58114611D01*
X55052619Y-58115387D01*
X55874372Y-57775845D01*
X56503636Y-57147679D01*
X56844611Y-56326519D01*
X56844614Y-56322619D01*
X94284613Y-56322619D01*
X94624155Y-57144372D01*
X95252321Y-57773636D01*
X96073481Y-58114611D01*
X96962619Y-58115387D01*
X97784372Y-57775845D01*
X98413636Y-57147679D01*
X98754611Y-56326519D01*
X98755387Y-55437381D01*
X98415845Y-54615628D01*
X97787679Y-53986364D01*
X96966519Y-53645389D01*
X96077381Y-53644613D01*
X95255628Y-53984155D01*
X94626364Y-54612321D01*
X94285389Y-55433481D01*
X94284613Y-56322619D01*
X56844614Y-56322619D01*
X56845387Y-55437381D01*
X56505845Y-54615628D01*
X55877679Y-53986364D01*
X55056519Y-53645389D01*
X54167381Y-53644613D01*
X53345628Y-53984155D01*
X52716364Y-54612321D01*
X52375389Y-55433481D01*
X52374613Y-56322619D01*
X51510000Y-56322619D01*
X51510000Y-43180000D01*
X53095907Y-43180000D01*
X53208946Y-43748285D01*
X53530853Y-44230054D01*
X53860026Y-44450000D01*
X53530853Y-44669946D01*
X53208946Y-45151715D01*
X53095907Y-45720000D01*
X53208946Y-46288285D01*
X53530853Y-46770054D01*
X53860026Y-46990000D01*
X53530853Y-47209946D01*
X53208946Y-47691715D01*
X53095907Y-48260000D01*
X53208946Y-48828285D01*
X53530853Y-49310054D01*
X54012622Y-49631961D01*
X54580907Y-49745000D01*
X54639093Y-49745000D01*
X55207378Y-49631961D01*
X55689147Y-49310054D01*
X55882954Y-49020000D01*
X57857537Y-49020000D01*
X57889673Y-49052192D01*
X58233201Y-49194838D01*
X58605167Y-49195162D01*
X58948943Y-49053117D01*
X59212192Y-48790327D01*
X59354838Y-48446799D01*
X59355162Y-48074833D01*
X59220944Y-47750000D01*
X62230000Y-47750000D01*
X62520839Y-47692148D01*
X62767401Y-47527401D01*
X63177802Y-47117000D01*
X85995000Y-47117000D01*
X85995000Y-47417000D01*
X86168058Y-48033020D01*
X86563683Y-48535922D01*
X87121645Y-48849144D01*
X87249566Y-48880124D01*
X87503000Y-48760777D01*
X87503000Y-47117000D01*
X85995000Y-47117000D01*
X63177802Y-47117000D01*
X64802560Y-45492242D01*
X64802560Y-46020000D01*
X64846838Y-46255317D01*
X64985910Y-46471441D01*
X65198110Y-46616431D01*
X65450000Y-46667440D01*
X66950000Y-46667440D01*
X67185317Y-46623162D01*
X67401441Y-46484090D01*
X67546431Y-46271890D01*
X67597440Y-46020000D01*
X67597440Y-45420000D01*
X67557926Y-45210000D01*
X68580000Y-45210000D01*
X68870839Y-45152148D01*
X69117401Y-44987401D01*
X69282148Y-44740839D01*
X69340000Y-44450000D01*
X69340000Y-44180000D01*
X69622560Y-44180000D01*
X69622560Y-46180000D01*
X69666838Y-46415317D01*
X69805910Y-46631441D01*
X70018110Y-46776431D01*
X70270000Y-46827440D01*
X71970000Y-46827440D01*
X72205317Y-46783162D01*
X72421441Y-46644090D01*
X72476847Y-46563000D01*
X85995000Y-46563000D01*
X85995000Y-46863000D01*
X87503000Y-46863000D01*
X87503000Y-45219223D01*
X87249566Y-45099876D01*
X87121645Y-45130856D01*
X86563683Y-45444078D01*
X86168058Y-45946980D01*
X85995000Y-46563000D01*
X72476847Y-46563000D01*
X72533559Y-46480000D01*
X74930000Y-46480000D01*
X75220839Y-46422148D01*
X75467401Y-46257401D01*
X76339680Y-45385122D01*
X76385167Y-45385162D01*
X76728943Y-45243117D01*
X76992192Y-44980327D01*
X77134838Y-44636799D01*
X77135162Y-44264833D01*
X76993117Y-43921057D01*
X76730327Y-43657808D01*
X76386799Y-43515162D01*
X76014833Y-43514838D01*
X75671057Y-43656883D01*
X75407808Y-43919673D01*
X75265162Y-44263201D01*
X75265121Y-44310077D01*
X74615198Y-44960000D01*
X72617440Y-44960000D01*
X72617440Y-44180000D01*
X72573162Y-43944683D01*
X72434090Y-43728559D01*
X72221890Y-43583569D01*
X71970000Y-43532560D01*
X70270000Y-43532560D01*
X70034683Y-43576838D01*
X69818559Y-43715910D01*
X69673569Y-43928110D01*
X69622560Y-44180000D01*
X69340000Y-44180000D01*
X69340000Y-39934802D01*
X69622560Y-40217362D01*
X69622560Y-42180000D01*
X69666838Y-42415317D01*
X69805910Y-42631441D01*
X70018110Y-42776431D01*
X70270000Y-42827440D01*
X71970000Y-42827440D01*
X72205317Y-42783162D01*
X72421441Y-42644090D01*
X72566431Y-42431890D01*
X72617440Y-42180000D01*
X72617440Y-40180000D01*
X72573162Y-39944683D01*
X72434090Y-39728559D01*
X72327531Y-39655750D01*
X86245000Y-39655750D01*
X86245000Y-40246310D01*
X86341673Y-40479699D01*
X86520302Y-40658327D01*
X86753691Y-40755000D01*
X87344250Y-40755000D01*
X87503000Y-40596250D01*
X87503000Y-39497000D01*
X86403750Y-39497000D01*
X86245000Y-39655750D01*
X72327531Y-39655750D01*
X72221890Y-39583569D01*
X71970000Y-39532560D01*
X71087362Y-39532560D01*
X70048492Y-38493690D01*
X86245000Y-38493690D01*
X86245000Y-39084250D01*
X86403750Y-39243000D01*
X87503000Y-39243000D01*
X87503000Y-38143750D01*
X87344250Y-37985000D01*
X86753691Y-37985000D01*
X86520302Y-38081673D01*
X86341673Y-38260301D01*
X86245000Y-38493690D01*
X70048492Y-38493690D01*
X69117401Y-37562599D01*
X68870839Y-37397852D01*
X68580000Y-37340000D01*
X67401563Y-37340000D01*
X67201890Y-37203569D01*
X66950000Y-37152560D01*
X65450000Y-37152560D01*
X65214683Y-37196838D01*
X64998559Y-37335910D01*
X64853569Y-37548110D01*
X64802560Y-37800000D01*
X64802560Y-38400000D01*
X64846838Y-38635317D01*
X64905178Y-38725980D01*
X64815000Y-38943690D01*
X64815000Y-39084250D01*
X64973750Y-39243000D01*
X66073000Y-39243000D01*
X66073000Y-39223000D01*
X66327000Y-39223000D01*
X66327000Y-39243000D01*
X67426250Y-39243000D01*
X67585000Y-39084250D01*
X67585000Y-38943690D01*
X67550334Y-38860000D01*
X67820000Y-38860000D01*
X67820000Y-43690000D01*
X67554914Y-43690000D01*
X67597440Y-43480000D01*
X67597440Y-42880000D01*
X67553162Y-42644683D01*
X67489322Y-42545472D01*
X67546431Y-42461890D01*
X67597440Y-42210000D01*
X67597440Y-41610000D01*
X67553162Y-41374683D01*
X67489322Y-41275472D01*
X67546431Y-41191890D01*
X67597440Y-40940000D01*
X67597440Y-40340000D01*
X67553162Y-40104683D01*
X67494822Y-40014020D01*
X67585000Y-39796310D01*
X67585000Y-39655750D01*
X67426250Y-39497000D01*
X66327000Y-39497000D01*
X66327000Y-39517000D01*
X66073000Y-39517000D01*
X66073000Y-39497000D01*
X64973750Y-39497000D01*
X64815000Y-39655750D01*
X64815000Y-39796310D01*
X64849666Y-39880000D01*
X64770000Y-39880000D01*
X64479160Y-39937852D01*
X64232599Y-40102599D01*
X63360320Y-40974878D01*
X63314833Y-40974838D01*
X62971057Y-41116883D01*
X62707808Y-41379673D01*
X62565162Y-41723201D01*
X62564838Y-42095167D01*
X62706883Y-42438943D01*
X62936369Y-42668829D01*
X62197440Y-43407758D01*
X62197440Y-42880000D01*
X62153162Y-42644683D01*
X62089322Y-42545472D01*
X62146431Y-42461890D01*
X62197440Y-42210000D01*
X62197440Y-41610000D01*
X62153162Y-41374683D01*
X62089322Y-41275472D01*
X62146431Y-41191890D01*
X62197440Y-40940000D01*
X62197440Y-40340000D01*
X62153162Y-40104683D01*
X62089322Y-40005472D01*
X62146431Y-39921890D01*
X62197440Y-39670000D01*
X62197440Y-39070000D01*
X62153162Y-38834683D01*
X62094822Y-38744020D01*
X62185000Y-38526310D01*
X62185000Y-38385750D01*
X62026250Y-38227000D01*
X60927000Y-38227000D01*
X60927000Y-38247000D01*
X60673000Y-38247000D01*
X60673000Y-38227000D01*
X59573750Y-38227000D01*
X59415000Y-38385750D01*
X59415000Y-38526310D01*
X59504806Y-38743122D01*
X59453569Y-38818110D01*
X59402560Y-39070000D01*
X59402560Y-39670000D01*
X59446838Y-39905317D01*
X59510678Y-40004528D01*
X59453569Y-40088110D01*
X59402560Y-40340000D01*
X59402560Y-40940000D01*
X59446838Y-41175317D01*
X59510678Y-41274528D01*
X59453569Y-41358110D01*
X59402560Y-41610000D01*
X59402560Y-42210000D01*
X59442074Y-42420000D01*
X58982463Y-42420000D01*
X58950327Y-42387808D01*
X58606799Y-42245162D01*
X58234833Y-42244838D01*
X57891057Y-42386883D01*
X57627808Y-42649673D01*
X57485162Y-42993201D01*
X57484838Y-43365167D01*
X57626883Y-43708943D01*
X57889673Y-43972192D01*
X58233201Y-44114838D01*
X58605167Y-44115162D01*
X58948943Y-43973117D01*
X58982118Y-43940000D01*
X59445086Y-43940000D01*
X59402560Y-44150000D01*
X59402560Y-44750000D01*
X59442074Y-44960000D01*
X58650109Y-44960000D01*
X56107235Y-43264751D01*
X56124093Y-43180000D01*
X56011054Y-42611715D01*
X55689147Y-42129946D01*
X55645223Y-42100597D01*
X55819698Y-42028327D01*
X55998327Y-41849699D01*
X56095000Y-41616310D01*
X56095000Y-40925750D01*
X55936250Y-40767000D01*
X54737000Y-40767000D01*
X54737000Y-40787000D01*
X54483000Y-40787000D01*
X54483000Y-40767000D01*
X53283750Y-40767000D01*
X53125000Y-40925750D01*
X53125000Y-41616310D01*
X53221673Y-41849699D01*
X53400302Y-42028327D01*
X53574777Y-42100597D01*
X53530853Y-42129946D01*
X53208946Y-42611715D01*
X53095907Y-43180000D01*
X51510000Y-43180000D01*
X51510000Y-39663690D01*
X53125000Y-39663690D01*
X53125000Y-40354250D01*
X53283750Y-40513000D01*
X54483000Y-40513000D01*
X54483000Y-39313750D01*
X54737000Y-39313750D01*
X54737000Y-40513000D01*
X55936250Y-40513000D01*
X56095000Y-40354250D01*
X56095000Y-39663690D01*
X55998327Y-39430301D01*
X55819698Y-39251673D01*
X55586309Y-39155000D01*
X54895750Y-39155000D01*
X54737000Y-39313750D01*
X54483000Y-39313750D01*
X54324250Y-39155000D01*
X53633691Y-39155000D01*
X53400302Y-39251673D01*
X53221673Y-39430301D01*
X53125000Y-39663690D01*
X51510000Y-39663690D01*
X51510000Y-37673690D01*
X59415000Y-37673690D01*
X59415000Y-37814250D01*
X59573750Y-37973000D01*
X60673000Y-37973000D01*
X60673000Y-37323750D01*
X60927000Y-37323750D01*
X60927000Y-37973000D01*
X62026250Y-37973000D01*
X62185000Y-37814250D01*
X62185000Y-37673690D01*
X62088327Y-37440301D01*
X61909698Y-37261673D01*
X61676309Y-37165000D01*
X61085750Y-37165000D01*
X60927000Y-37323750D01*
X60673000Y-37323750D01*
X60514250Y-37165000D01*
X59923691Y-37165000D01*
X59690302Y-37261673D01*
X59511673Y-37440301D01*
X59415000Y-37673690D01*
X51510000Y-37673690D01*
X51510000Y-34195750D01*
X54305000Y-34195750D01*
X54305000Y-35786310D01*
X54401673Y-36019699D01*
X54580302Y-36198327D01*
X54813691Y-36295000D01*
X56404250Y-36295000D01*
X56563000Y-36136250D01*
X56563000Y-34037000D01*
X56817000Y-34037000D01*
X56817000Y-36136250D01*
X56975750Y-36295000D01*
X58566309Y-36295000D01*
X58799698Y-36198327D01*
X58978327Y-36019699D01*
X59075000Y-35786310D01*
X59075000Y-34195750D01*
X58916250Y-34037000D01*
X56817000Y-34037000D01*
X56563000Y-34037000D01*
X54463750Y-34037000D01*
X54305000Y-34195750D01*
X51510000Y-34195750D01*
X51510000Y-31428025D01*
X51580302Y-31498327D01*
X51813691Y-31595000D01*
X53404250Y-31595000D01*
X53563000Y-31436250D01*
X53563000Y-29337000D01*
X53817000Y-29337000D01*
X53817000Y-31436250D01*
X53975750Y-31595000D01*
X54644696Y-31595000D01*
X54580302Y-31621673D01*
X54401673Y-31800301D01*
X54305000Y-32033690D01*
X54305000Y-33624250D01*
X54463750Y-33783000D01*
X56563000Y-33783000D01*
X56563000Y-31683750D01*
X56817000Y-31683750D01*
X56817000Y-33783000D01*
X58916250Y-33783000D01*
X59075000Y-33624250D01*
X59075000Y-32765750D01*
X64605000Y-32765750D01*
X64605000Y-33606309D01*
X64701673Y-33839698D01*
X64880301Y-34018327D01*
X65113690Y-34115000D01*
X65754250Y-34115000D01*
X65913000Y-33956250D01*
X65913000Y-32607000D01*
X66167000Y-32607000D01*
X66167000Y-33956250D01*
X66325750Y-34115000D01*
X66966310Y-34115000D01*
X67199699Y-34018327D01*
X67378327Y-33839698D01*
X67475000Y-33606309D01*
X67475000Y-33065750D01*
X70145000Y-33065750D01*
X70145000Y-33656310D01*
X70241673Y-33889699D01*
X70420302Y-34068327D01*
X70653691Y-34165000D01*
X71494250Y-34165000D01*
X71653000Y-34006250D01*
X71653000Y-32907000D01*
X71907000Y-32907000D01*
X71907000Y-34006250D01*
X72065750Y-34165000D01*
X72906309Y-34165000D01*
X73139698Y-34068327D01*
X73318327Y-33889699D01*
X73415000Y-33656310D01*
X73415000Y-33065750D01*
X73256250Y-32907000D01*
X71907000Y-32907000D01*
X71653000Y-32907000D01*
X70303750Y-32907000D01*
X70145000Y-33065750D01*
X67475000Y-33065750D01*
X67475000Y-32765750D01*
X67316250Y-32607000D01*
X66167000Y-32607000D01*
X65913000Y-32607000D01*
X64763750Y-32607000D01*
X64605000Y-32765750D01*
X59075000Y-32765750D01*
X59075000Y-32033690D01*
X58978327Y-31800301D01*
X58799698Y-31621673D01*
X58765337Y-31607440D01*
X61440000Y-31607440D01*
X61675317Y-31563162D01*
X61891441Y-31424090D01*
X61939542Y-31353691D01*
X64605000Y-31353691D01*
X64605000Y-32194250D01*
X64763750Y-32353000D01*
X65913000Y-32353000D01*
X65913000Y-31003750D01*
X66167000Y-31003750D01*
X66167000Y-32353000D01*
X67316250Y-32353000D01*
X67475000Y-32194250D01*
X67475000Y-31353691D01*
X67378327Y-31120302D01*
X67199699Y-30941673D01*
X66966310Y-30845000D01*
X66325750Y-30845000D01*
X66167000Y-31003750D01*
X65913000Y-31003750D01*
X65754250Y-30845000D01*
X65113690Y-30845000D01*
X64880301Y-30941673D01*
X64701673Y-31120302D01*
X64605000Y-31353691D01*
X61939542Y-31353691D01*
X62036431Y-31211890D01*
X62087440Y-30960000D01*
X62087440Y-30220000D01*
X62230000Y-30220000D01*
X62616510Y-30143118D01*
X62944178Y-29924178D01*
X64592560Y-28275796D01*
X64592560Y-29480000D01*
X64636838Y-29715317D01*
X64775910Y-29931441D01*
X64988110Y-30076431D01*
X65240000Y-30127440D01*
X66840000Y-30127440D01*
X67075317Y-30083162D01*
X67291441Y-29944090D01*
X67436431Y-29731890D01*
X67487440Y-29480000D01*
X67487440Y-29192242D01*
X69312599Y-31017401D01*
X69559160Y-31182148D01*
X69607414Y-31191746D01*
X69850000Y-31240000D01*
X70134442Y-31240000D01*
X70176838Y-31465317D01*
X70282482Y-31629492D01*
X70241673Y-31670301D01*
X70145000Y-31903690D01*
X70145000Y-32494250D01*
X70303750Y-32653000D01*
X71653000Y-32653000D01*
X71653000Y-32633000D01*
X71907000Y-32633000D01*
X71907000Y-32653000D01*
X73256250Y-32653000D01*
X73415000Y-32494250D01*
X73415000Y-31903690D01*
X73318327Y-31670301D01*
X73276366Y-31628340D01*
X73376431Y-31481890D01*
X73425415Y-31240000D01*
X76432560Y-31240000D01*
X76432560Y-32380000D01*
X76476838Y-32615317D01*
X76615910Y-32831441D01*
X76828110Y-32976431D01*
X77080000Y-33027440D01*
X78942638Y-33027440D01*
X80344878Y-34429680D01*
X80344838Y-34475167D01*
X80486883Y-34818943D01*
X80749673Y-35082192D01*
X81093201Y-35224838D01*
X81465167Y-35225162D01*
X81808943Y-35083117D01*
X82072192Y-34820327D01*
X82214838Y-34476799D01*
X82215162Y-34104833D01*
X82073117Y-33761057D01*
X81810327Y-33497808D01*
X81466799Y-33355162D01*
X81419923Y-33355121D01*
X80822547Y-32757745D01*
X86841861Y-32757745D01*
X86915995Y-33003864D01*
X87453223Y-33196965D01*
X88023454Y-33169778D01*
X88424005Y-33003864D01*
X88498139Y-32757745D01*
X87670000Y-31929605D01*
X86841861Y-32757745D01*
X80822547Y-32757745D01*
X79727440Y-31662638D01*
X79727440Y-31533223D01*
X86223035Y-31533223D01*
X86250222Y-32103454D01*
X86416136Y-32504005D01*
X86662255Y-32578139D01*
X87490395Y-31750000D01*
X86662255Y-30921861D01*
X86416136Y-30995995D01*
X86223035Y-31533223D01*
X79727440Y-31533223D01*
X79727440Y-28950000D01*
X85941644Y-28950000D01*
X87321624Y-30329980D01*
X87316546Y-30330222D01*
X86915995Y-30496136D01*
X86841861Y-30742255D01*
X87670000Y-31570395D01*
X87684142Y-31556252D01*
X87863748Y-31735858D01*
X87849605Y-31750000D01*
X88677745Y-32578139D01*
X88725167Y-32563855D01*
X88766838Y-32785317D01*
X88905910Y-33001441D01*
X89118110Y-33146431D01*
X89160000Y-33154914D01*
X89160000Y-35560000D01*
X89191582Y-35718775D01*
X89210739Y-35870739D01*
X89058775Y-35851582D01*
X88900000Y-35820000D01*
X78740000Y-35820000D01*
X78353490Y-35896882D01*
X78025822Y-36115822D01*
X77806882Y-36443490D01*
X77730000Y-36830000D01*
X77806882Y-37216510D01*
X78025822Y-37544178D01*
X78353490Y-37763118D01*
X78740000Y-37840000D01*
X88275786Y-37840000D01*
X88348286Y-37985000D01*
X87915750Y-37985000D01*
X87757000Y-38143750D01*
X87757000Y-39243000D01*
X87777000Y-39243000D01*
X87777000Y-39497000D01*
X87757000Y-39497000D01*
X87757000Y-40596250D01*
X87915750Y-40755000D01*
X88506309Y-40755000D01*
X88739698Y-40658327D01*
X88851593Y-40546433D01*
X89224091Y-40701107D01*
X87505198Y-42420000D01*
X77784802Y-42420000D01*
X77135122Y-41770320D01*
X77135162Y-41724833D01*
X76993117Y-41381057D01*
X76730327Y-41117808D01*
X76386799Y-40975162D01*
X76014833Y-40974838D01*
X75671057Y-41116883D01*
X75407808Y-41379673D01*
X75265162Y-41723201D01*
X75264838Y-42095167D01*
X75406883Y-42438943D01*
X75669673Y-42702192D01*
X76013201Y-42844838D01*
X76060077Y-42844879D01*
X76932599Y-43717401D01*
X77179160Y-43882148D01*
X77470000Y-43940000D01*
X87820000Y-43940000D01*
X88110839Y-43882148D01*
X88357401Y-43717401D01*
X91329800Y-40745002D01*
X91353298Y-40754759D01*
X91904285Y-40755240D01*
X92413515Y-40544831D01*
X92803461Y-40155564D01*
X93014759Y-39646702D01*
X93015240Y-39095715D01*
X92804831Y-38586485D01*
X92415564Y-38196539D01*
X91906702Y-37985241D01*
X91355715Y-37984760D01*
X90846485Y-38195169D01*
X90756642Y-38284856D01*
X89888428Y-36548428D01*
X94240000Y-38724214D01*
X94240000Y-41285786D01*
X89718314Y-43546629D01*
X89590427Y-43645882D01*
X89455822Y-43735822D01*
X89435660Y-43765997D01*
X89406992Y-43788246D01*
X89326821Y-43928886D01*
X89236882Y-44063490D01*
X89229802Y-44099082D01*
X89211830Y-44130610D01*
X89191582Y-44291225D01*
X89160000Y-44450000D01*
X89160000Y-45398337D01*
X89013880Y-45495971D01*
X88886781Y-45686188D01*
X88696317Y-45444078D01*
X88138355Y-45130856D01*
X88010434Y-45099876D01*
X87757000Y-45219223D01*
X87757000Y-46863000D01*
X87777000Y-46863000D01*
X87777000Y-47117000D01*
X87757000Y-47117000D01*
X87757000Y-48760777D01*
X88010434Y-48880124D01*
X88138355Y-48849144D01*
X88696317Y-48535922D01*
X88886781Y-48293812D01*
X89013880Y-48484029D01*
X89544313Y-48838452D01*
X90170000Y-48962909D01*
X90795687Y-48838452D01*
X91154192Y-48598907D01*
X91245910Y-48741441D01*
X91458110Y-48886431D01*
X91710000Y-48937440D01*
X93710000Y-48937440D01*
X93945317Y-48893162D01*
X94161441Y-48754090D01*
X94306431Y-48541890D01*
X94357440Y-48290000D01*
X94357440Y-45690000D01*
X94313162Y-45454683D01*
X94174090Y-45238559D01*
X93961890Y-45093569D01*
X93710000Y-45042560D01*
X91710000Y-45042560D01*
X91474683Y-45086838D01*
X91258559Y-45225910D01*
X91180000Y-45340885D01*
X91180000Y-45074214D01*
X95701686Y-42813371D01*
X95829569Y-42714120D01*
X95964178Y-42624178D01*
X95984341Y-42594001D01*
X96013008Y-42571753D01*
X96093179Y-42431114D01*
X96183118Y-42296510D01*
X96190197Y-42260920D01*
X96208171Y-42229390D01*
X96228419Y-42068767D01*
X96260000Y-41910000D01*
X96260000Y-38100000D01*
X96228419Y-37941233D01*
X96208171Y-37780610D01*
X96190197Y-37749080D01*
X96183118Y-37713490D01*
X96093179Y-37578886D01*
X96013008Y-37438247D01*
X95984341Y-37415999D01*
X95964178Y-37385822D01*
X95829569Y-37295880D01*
X95701686Y-37196629D01*
X91180000Y-34935786D01*
X91180000Y-33157926D01*
X91205317Y-33153162D01*
X91421441Y-33014090D01*
X91566431Y-32801890D01*
X91617440Y-32550000D01*
X91617440Y-30950000D01*
X91573162Y-30714683D01*
X91434090Y-30498559D01*
X91221890Y-30353569D01*
X90970000Y-30302560D01*
X90150916Y-30302560D01*
X87074178Y-27225822D01*
X86746510Y-27006882D01*
X86360000Y-26930000D01*
X73400000Y-26930000D01*
X73400000Y-25400000D01*
X73323118Y-25013490D01*
X73104178Y-24685822D01*
X72642296Y-24223940D01*
X72655000Y-24160072D01*
X72655000Y-24099928D01*
X72642296Y-24036060D01*
X72802606Y-23875750D01*
X78575000Y-23875750D01*
X78575000Y-24716309D01*
X78671673Y-24949698D01*
X78850301Y-25128327D01*
X79083690Y-25225000D01*
X79724250Y-25225000D01*
X79883000Y-25066250D01*
X79883000Y-23717000D01*
X80137000Y-23717000D01*
X80137000Y-25066250D01*
X80295750Y-25225000D01*
X80936310Y-25225000D01*
X81169699Y-25128327D01*
X81348327Y-24949698D01*
X81445000Y-24716309D01*
X81445000Y-23875750D01*
X81286250Y-23717000D01*
X80137000Y-23717000D01*
X79883000Y-23717000D01*
X78733750Y-23717000D01*
X78575000Y-23875750D01*
X72802606Y-23875750D01*
X74214665Y-22463691D01*
X78575000Y-22463691D01*
X78575000Y-23304250D01*
X78733750Y-23463000D01*
X79883000Y-23463000D01*
X79883000Y-22113750D01*
X80137000Y-22113750D01*
X80137000Y-23463000D01*
X81286250Y-23463000D01*
X81445000Y-23304250D01*
X81445000Y-22463691D01*
X81348327Y-22230302D01*
X81169699Y-22051673D01*
X80936310Y-21955000D01*
X80295750Y-21955000D01*
X80137000Y-22113750D01*
X79883000Y-22113750D01*
X79724250Y-21955000D01*
X79083690Y-21955000D01*
X78850301Y-22051673D01*
X78671673Y-22230302D01*
X78575000Y-22463691D01*
X74214665Y-22463691D01*
X75135081Y-21543275D01*
X85395000Y-21543275D01*
X85395000Y-21636725D01*
X85576547Y-22549425D01*
X86093550Y-23323175D01*
X86867300Y-23840178D01*
X87780000Y-24021725D01*
X88692700Y-23840178D01*
X89466450Y-23323175D01*
X89983453Y-22549425D01*
X90165000Y-21636725D01*
X90165000Y-21543275D01*
X89983453Y-20630575D01*
X89466450Y-19856825D01*
X88921377Y-19492619D01*
X94284613Y-19492619D01*
X94624155Y-20314372D01*
X95252321Y-20943636D01*
X96073481Y-21284611D01*
X96962619Y-21285387D01*
X97784372Y-20945845D01*
X98413636Y-20317679D01*
X98754611Y-19496519D01*
X98755387Y-18607381D01*
X98415845Y-17785628D01*
X97787679Y-17156364D01*
X96966519Y-16815389D01*
X96077381Y-16814613D01*
X95255628Y-17154155D01*
X94626364Y-17782321D01*
X94285389Y-18603481D01*
X94284613Y-19492619D01*
X88921377Y-19492619D01*
X88692700Y-19339822D01*
X87780000Y-19158275D01*
X86867300Y-19339822D01*
X86093550Y-19856825D01*
X85576547Y-20630575D01*
X85395000Y-21543275D01*
X75135081Y-21543275D01*
X76618356Y-20060000D01*
X78562560Y-20060000D01*
X78562560Y-20590000D01*
X78606838Y-20825317D01*
X78745910Y-21041441D01*
X78958110Y-21186431D01*
X79210000Y-21237440D01*
X80810000Y-21237440D01*
X81045317Y-21193162D01*
X81261441Y-21054090D01*
X81406431Y-20841890D01*
X81457440Y-20590000D01*
X81457440Y-18590000D01*
X81413162Y-18354683D01*
X81274090Y-18138559D01*
X81061890Y-17993569D01*
X80810000Y-17942560D01*
X79210000Y-17942560D01*
X78974683Y-17986838D01*
X78892067Y-18040000D01*
X76200000Y-18040000D01*
X75813490Y-18116882D01*
X75485822Y-18335822D01*
X72589750Y-21231894D01*
X72538155Y-20972509D01*
X72257163Y-20551974D01*
X72471441Y-20414090D01*
X72616431Y-20201890D01*
X72667440Y-19950000D01*
X72667440Y-18150000D01*
X72623162Y-17914683D01*
X72484090Y-17698559D01*
X72271890Y-17553569D01*
X72020000Y-17502560D01*
X70220000Y-17502560D01*
X69984683Y-17546838D01*
X69768559Y-17685910D01*
X69623569Y-17898110D01*
X69572560Y-18150000D01*
X69572560Y-18290000D01*
X68894802Y-18290000D01*
X67147440Y-16542638D01*
X67147440Y-16510000D01*
X74170000Y-16510000D01*
X74227852Y-16800839D01*
X74392599Y-17047401D01*
X74639161Y-17212148D01*
X74930000Y-17270000D01*
X75470000Y-17270000D01*
X75760839Y-17212148D01*
X76007401Y-17047401D01*
X76172148Y-16800839D01*
X76230000Y-16510000D01*
X77980000Y-16510000D01*
X78037852Y-16800839D01*
X78202599Y-17047401D01*
X78449161Y-17212148D01*
X78740000Y-17270000D01*
X79470000Y-17270000D01*
X79760839Y-17212148D01*
X80007401Y-17047401D01*
X80172148Y-16800839D01*
X80230000Y-16510000D01*
X80172148Y-16219161D01*
X80007401Y-15972599D01*
X79760839Y-15807852D01*
X79470000Y-15750000D01*
X78740000Y-15750000D01*
X78449161Y-15807852D01*
X78202599Y-15972599D01*
X78037852Y-16219161D01*
X77980000Y-16510000D01*
X76230000Y-16510000D01*
X76172148Y-16219161D01*
X76007401Y-15972599D01*
X75760839Y-15807852D01*
X75470000Y-15750000D01*
X74930000Y-15750000D01*
X74639161Y-15807852D01*
X74392599Y-15972599D01*
X74227852Y-16219161D01*
X74170000Y-16510000D01*
X67147440Y-16510000D01*
X67147440Y-15660000D01*
X67103162Y-15424683D01*
X66964090Y-15208559D01*
X66751890Y-15063569D01*
X66500000Y-15012560D01*
X64500000Y-15012560D01*
X64264683Y-15056838D01*
X64048559Y-15195910D01*
X63903569Y-15408110D01*
X63852560Y-15660000D01*
X63852560Y-17360000D01*
X63894153Y-17581045D01*
X61382638Y-20092560D01*
X60500000Y-20092560D01*
X60264683Y-20136838D01*
X60048559Y-20275910D01*
X59903569Y-20488110D01*
X59852560Y-20740000D01*
X59852560Y-22440000D01*
X59896838Y-22675317D01*
X60035910Y-22891441D01*
X60248110Y-23036431D01*
X60500000Y-23087440D01*
X62500000Y-23087440D01*
X62735317Y-23043162D01*
X62951441Y-22904090D01*
X63096431Y-22691890D01*
X63147440Y-22440000D01*
X63147440Y-20740000D01*
X63105847Y-20518955D01*
X65617362Y-18007440D01*
X66462638Y-18007440D01*
X68042599Y-19587401D01*
X68289160Y-19752148D01*
X68337414Y-19761746D01*
X68580000Y-19810000D01*
X69572560Y-19810000D01*
X69572560Y-19950000D01*
X69616838Y-20185317D01*
X69755910Y-20401441D01*
X69968110Y-20546431D01*
X69984344Y-20549719D01*
X69964111Y-20580000D01*
X67117334Y-20580000D01*
X67103162Y-20504683D01*
X66964090Y-20288559D01*
X66751890Y-20143569D01*
X66500000Y-20092560D01*
X64500000Y-20092560D01*
X64264683Y-20136838D01*
X64048559Y-20275910D01*
X63903569Y-20488110D01*
X63852560Y-20740000D01*
X63852560Y-22440000D01*
X63896838Y-22675317D01*
X64035910Y-22891441D01*
X64248110Y-23036431D01*
X64500000Y-23087440D01*
X66500000Y-23087440D01*
X66735317Y-23043162D01*
X66951441Y-22904090D01*
X67096431Y-22691890D01*
X67115039Y-22600000D01*
X69964111Y-22600000D01*
X70034591Y-22705481D01*
X70265845Y-22860000D01*
X70034591Y-23014519D01*
X69701845Y-23512509D01*
X69585000Y-24099928D01*
X69585000Y-24160072D01*
X69701845Y-24747491D01*
X70034591Y-25245481D01*
X70532581Y-25578227D01*
X71120000Y-25695072D01*
X71234033Y-25672389D01*
X71380000Y-25818356D01*
X71380000Y-26771644D01*
X70564178Y-25955822D01*
X70236510Y-25736882D01*
X69850000Y-25660000D01*
X64770000Y-25660000D01*
X64383489Y-25736882D01*
X64055822Y-25955822D01*
X62087440Y-27924204D01*
X62087440Y-27460000D01*
X62043162Y-27224683D01*
X61904090Y-27008559D01*
X61691890Y-26863569D01*
X61440000Y-26812560D01*
X57940000Y-26812560D01*
X57704683Y-26856838D01*
X57488559Y-26995910D01*
X57343569Y-27208110D01*
X57292560Y-27460000D01*
X57292560Y-30960000D01*
X57336838Y-31195317D01*
X57475910Y-31411441D01*
X57642109Y-31525000D01*
X56975750Y-31525000D01*
X56817000Y-31683750D01*
X56563000Y-31683750D01*
X56404250Y-31525000D01*
X55735304Y-31525000D01*
X55799698Y-31498327D01*
X55978327Y-31319699D01*
X56075000Y-31086310D01*
X56075000Y-29495750D01*
X55916250Y-29337000D01*
X53817000Y-29337000D01*
X53563000Y-29337000D01*
X53543000Y-29337000D01*
X53543000Y-29083000D01*
X53563000Y-29083000D01*
X53563000Y-26983750D01*
X53817000Y-26983750D01*
X53817000Y-29083000D01*
X55916250Y-29083000D01*
X56075000Y-28924250D01*
X56075000Y-27333690D01*
X55978327Y-27100301D01*
X55799698Y-26921673D01*
X55566309Y-26825000D01*
X53975750Y-26825000D01*
X53817000Y-26983750D01*
X53563000Y-26983750D01*
X53404250Y-26825000D01*
X51813691Y-26825000D01*
X51580302Y-26921673D01*
X51510000Y-26991975D01*
X51510000Y-19492619D01*
X52374613Y-19492619D01*
X52714155Y-20314372D01*
X53342321Y-20943636D01*
X54163481Y-21284611D01*
X55052619Y-21285387D01*
X55874372Y-20945845D01*
X56503636Y-20317679D01*
X56844611Y-19496519D01*
X56845387Y-18607381D01*
X56505845Y-17785628D01*
X55877679Y-17156364D01*
X55056519Y-16815389D01*
X54167381Y-16814613D01*
X53345628Y-17154155D01*
X52716364Y-17782321D01*
X52375389Y-18603481D01*
X52374613Y-19492619D01*
X51510000Y-19492619D01*
X51510000Y-16795750D01*
X59865000Y-16795750D01*
X59865000Y-17486310D01*
X59961673Y-17719699D01*
X60140302Y-17898327D01*
X60373691Y-17995000D01*
X61214250Y-17995000D01*
X61373000Y-17836250D01*
X61373000Y-16637000D01*
X61627000Y-16637000D01*
X61627000Y-17836250D01*
X61785750Y-17995000D01*
X62626309Y-17995000D01*
X62859698Y-17898327D01*
X63038327Y-17719699D01*
X63135000Y-17486310D01*
X63135000Y-16795750D01*
X62976250Y-16637000D01*
X61627000Y-16637000D01*
X61373000Y-16637000D01*
X60023750Y-16637000D01*
X59865000Y-16795750D01*
X51510000Y-16795750D01*
X51510000Y-15533690D01*
X59865000Y-15533690D01*
X59865000Y-16224250D01*
X60023750Y-16383000D01*
X61373000Y-16383000D01*
X61373000Y-15183750D01*
X61627000Y-15183750D01*
X61627000Y-16383000D01*
X62976250Y-16383000D01*
X63135000Y-16224250D01*
X63135000Y-15533690D01*
X63038327Y-15300301D01*
X62859698Y-15121673D01*
X62626309Y-15025000D01*
X61785750Y-15025000D01*
X61627000Y-15183750D01*
X61373000Y-15183750D01*
X61214250Y-15025000D01*
X60373691Y-15025000D01*
X60140302Y-15121673D01*
X59961673Y-15300301D01*
X59865000Y-15533690D01*
X51510000Y-15533690D01*
X51510000Y-14680000D01*
X99620000Y-14680000D01*
X99620000Y-58980000D01*
M02*
