G04 #@! TF.FileFunction,Legend,Bot*
%FSLAX46Y46*%
G04 Gerber Fmt 4.6, Leading zero omitted, Abs format (unit mm)*
G04 Created by KiCad (PCBNEW 4.0.7) date Tuesday, February 20, 2018 'PMt' 07:47:19 PM*
%MOMM*%
%LPD*%
G01*
G04 APERTURE LIST*
%ADD10C,0.100000*%
%ADD11C,0.120000*%
%ADD12C,0.150000*%
G04 APERTURE END LIST*
D10*
D11*
X78990000Y-22590000D02*
X78990000Y-20590000D01*
X81030000Y-20590000D02*
X81030000Y-22590000D01*
X65020000Y-31480000D02*
X65020000Y-29480000D01*
X67060000Y-29480000D02*
X67060000Y-31480000D01*
X62500000Y-22660000D02*
X64500000Y-22660000D01*
X64500000Y-20520000D02*
X62500000Y-20520000D01*
X62500000Y-17580000D02*
X64500000Y-17580000D01*
X64500000Y-15440000D02*
X62500000Y-15440000D01*
X70050000Y-42180000D02*
X70050000Y-44180000D01*
X72190000Y-44180000D02*
X72190000Y-42180000D01*
D12*
X61425000Y-46360000D02*
X61425000Y-46335000D01*
X65575000Y-46360000D02*
X65575000Y-46245000D01*
X65575000Y-37460000D02*
X65575000Y-37575000D01*
X61425000Y-37460000D02*
X61425000Y-37575000D01*
X61425000Y-46360000D02*
X65575000Y-46360000D01*
X61425000Y-37460000D02*
X65575000Y-37460000D01*
X61425000Y-46335000D02*
X60050000Y-46335000D01*
D11*
X76840000Y-27070000D02*
X76840000Y-28330000D01*
X76840000Y-33890000D02*
X76840000Y-32630000D01*
X73080000Y-27070000D02*
X76840000Y-27070000D01*
X70830000Y-33890000D02*
X76840000Y-33890000D01*
D12*
X78617143Y-21423334D02*
X78664762Y-21375715D01*
X78712381Y-21232858D01*
X78712381Y-21137620D01*
X78664762Y-20994762D01*
X78569524Y-20899524D01*
X78474286Y-20851905D01*
X78283810Y-20804286D01*
X78140952Y-20804286D01*
X77950476Y-20851905D01*
X77855238Y-20899524D01*
X77760000Y-20994762D01*
X77712381Y-21137620D01*
X77712381Y-21232858D01*
X77760000Y-21375715D01*
X77807619Y-21423334D01*
X78712381Y-22375715D02*
X78712381Y-21804286D01*
X78712381Y-22090000D02*
X77712381Y-22090000D01*
X77855238Y-21994762D01*
X77950476Y-21899524D01*
X77998095Y-21804286D01*
X64647143Y-30313334D02*
X64694762Y-30265715D01*
X64742381Y-30122858D01*
X64742381Y-30027620D01*
X64694762Y-29884762D01*
X64599524Y-29789524D01*
X64504286Y-29741905D01*
X64313810Y-29694286D01*
X64170952Y-29694286D01*
X63980476Y-29741905D01*
X63885238Y-29789524D01*
X63790000Y-29884762D01*
X63742381Y-30027620D01*
X63742381Y-30122858D01*
X63790000Y-30265715D01*
X63837619Y-30313334D01*
X63742381Y-30646667D02*
X63742381Y-31265715D01*
X64123333Y-30932381D01*
X64123333Y-31075239D01*
X64170952Y-31170477D01*
X64218571Y-31218096D01*
X64313810Y-31265715D01*
X64551905Y-31265715D01*
X64647143Y-31218096D01*
X64694762Y-31170477D01*
X64742381Y-31075239D01*
X64742381Y-30789524D01*
X64694762Y-30694286D01*
X64647143Y-30646667D01*
X63666666Y-20192381D02*
X64000000Y-19716190D01*
X64238095Y-20192381D02*
X64238095Y-19192381D01*
X63857142Y-19192381D01*
X63761904Y-19240000D01*
X63714285Y-19287619D01*
X63666666Y-19382857D01*
X63666666Y-19525714D01*
X63714285Y-19620952D01*
X63761904Y-19668571D01*
X63857142Y-19716190D01*
X64238095Y-19716190D01*
X62714285Y-20192381D02*
X63285714Y-20192381D01*
X63000000Y-20192381D02*
X63000000Y-19192381D01*
X63095238Y-19335238D01*
X63190476Y-19430476D01*
X63285714Y-19478095D01*
X63666666Y-15112381D02*
X64000000Y-14636190D01*
X64238095Y-15112381D02*
X64238095Y-14112381D01*
X63857142Y-14112381D01*
X63761904Y-14160000D01*
X63714285Y-14207619D01*
X63666666Y-14302857D01*
X63666666Y-14445714D01*
X63714285Y-14540952D01*
X63761904Y-14588571D01*
X63857142Y-14636190D01*
X64238095Y-14636190D01*
X63285714Y-14207619D02*
X63238095Y-14160000D01*
X63142857Y-14112381D01*
X62904761Y-14112381D01*
X62809523Y-14160000D01*
X62761904Y-14207619D01*
X62714285Y-14302857D01*
X62714285Y-14398095D01*
X62761904Y-14540952D01*
X63333333Y-15112381D01*
X62714285Y-15112381D01*
X73422381Y-43013334D02*
X72946190Y-42680000D01*
X73422381Y-42441905D02*
X72422381Y-42441905D01*
X72422381Y-42822858D01*
X72470000Y-42918096D01*
X72517619Y-42965715D01*
X72612857Y-43013334D01*
X72755714Y-43013334D01*
X72850952Y-42965715D01*
X72898571Y-42918096D01*
X72946190Y-42822858D01*
X72946190Y-42441905D01*
X72422381Y-43918096D02*
X72422381Y-43441905D01*
X72898571Y-43394286D01*
X72850952Y-43441905D01*
X72803333Y-43537143D01*
X72803333Y-43775239D01*
X72850952Y-43870477D01*
X72898571Y-43918096D01*
X72993810Y-43965715D01*
X73231905Y-43965715D01*
X73327143Y-43918096D01*
X73374762Y-43870477D01*
X73422381Y-43775239D01*
X73422381Y-43537143D01*
X73374762Y-43441905D01*
X73327143Y-43394286D01*
X64261905Y-46737381D02*
X64261905Y-47546905D01*
X64214286Y-47642143D01*
X64166667Y-47689762D01*
X64071429Y-47737381D01*
X63880952Y-47737381D01*
X63785714Y-47689762D01*
X63738095Y-47642143D01*
X63690476Y-47546905D01*
X63690476Y-46737381D01*
X63309524Y-46737381D02*
X62690476Y-46737381D01*
X63023810Y-47118333D01*
X62880952Y-47118333D01*
X62785714Y-47165952D01*
X62738095Y-47213571D01*
X62690476Y-47308810D01*
X62690476Y-47546905D01*
X62738095Y-47642143D01*
X62785714Y-47689762D01*
X62880952Y-47737381D01*
X63166667Y-47737381D01*
X63261905Y-47689762D01*
X63309524Y-47642143D01*
X75691905Y-34432381D02*
X75691905Y-35241905D01*
X75644286Y-35337143D01*
X75596667Y-35384762D01*
X75501429Y-35432381D01*
X75310952Y-35432381D01*
X75215714Y-35384762D01*
X75168095Y-35337143D01*
X75120476Y-35241905D01*
X75120476Y-34432381D01*
X74120476Y-35432381D02*
X74691905Y-35432381D01*
X74406191Y-35432381D02*
X74406191Y-34432381D01*
X74501429Y-34575238D01*
X74596667Y-34670476D01*
X74691905Y-34718095D01*
M02*
