G04 #@! TF.FileFunction,Legend,Top*
%FSLAX46Y46*%
G04 Gerber Fmt 4.6, Leading zero omitted, Abs format (unit mm)*
G04 Created by KiCad (PCBNEW 4.0.7) date 04/10/18 14:29:16*
%MOMM*%
%LPD*%
G01*
G04 APERTURE LIST*
%ADD10C,0.100000*%
%ADD11C,0.200000*%
%ADD12C,0.250000*%
%ADD13C,0.300000*%
%ADD14C,0.120000*%
%ADD15C,0.150000*%
%ADD16C,0.010000*%
G04 APERTURE END LIST*
D10*
D11*
X145613571Y-82142381D02*
X145613571Y-81142381D01*
X145851666Y-81142381D01*
X145994524Y-81190000D01*
X146089762Y-81285238D01*
X146137381Y-81380476D01*
X146185000Y-81570952D01*
X146185000Y-81713810D01*
X146137381Y-81904286D01*
X146089762Y-81999524D01*
X145994524Y-82094762D01*
X145851666Y-82142381D01*
X145613571Y-82142381D01*
X146565952Y-81856667D02*
X147042143Y-81856667D01*
X146470714Y-82142381D02*
X146804047Y-81142381D01*
X147137381Y-82142381D01*
X147327857Y-81142381D02*
X147899286Y-81142381D01*
X147613571Y-82142381D02*
X147613571Y-81142381D01*
X146065953Y-85542381D02*
X145494524Y-85542381D01*
X145780238Y-85542381D02*
X145780238Y-84542381D01*
X145685000Y-84685238D01*
X145589762Y-84780476D01*
X145494524Y-84828095D01*
X146446905Y-84637619D02*
X146494524Y-84590000D01*
X146589762Y-84542381D01*
X146827858Y-84542381D01*
X146923096Y-84590000D01*
X146970715Y-84637619D01*
X147018334Y-84732857D01*
X147018334Y-84828095D01*
X146970715Y-84970952D01*
X146399286Y-85542381D01*
X147018334Y-85542381D01*
X147304048Y-84542381D02*
X147637381Y-85542381D01*
X147970715Y-84542381D01*
X145923096Y-87990000D02*
X145827858Y-87942381D01*
X145685001Y-87942381D01*
X145542143Y-87990000D01*
X145446905Y-88085238D01*
X145399286Y-88180476D01*
X145351667Y-88370952D01*
X145351667Y-88513810D01*
X145399286Y-88704286D01*
X145446905Y-88799524D01*
X145542143Y-88894762D01*
X145685001Y-88942381D01*
X145780239Y-88942381D01*
X145923096Y-88894762D01*
X145970715Y-88847143D01*
X145970715Y-88513810D01*
X145780239Y-88513810D01*
X146399286Y-88942381D02*
X146399286Y-87942381D01*
X146970715Y-88942381D01*
X146970715Y-87942381D01*
X147446905Y-88942381D02*
X147446905Y-87942381D01*
X147685000Y-87942381D01*
X147827858Y-87990000D01*
X147923096Y-88085238D01*
X147970715Y-88180476D01*
X148018334Y-88370952D01*
X148018334Y-88513810D01*
X147970715Y-88704286D01*
X147923096Y-88799524D01*
X147827858Y-88894762D01*
X147685000Y-88942381D01*
X147446905Y-88942381D01*
D12*
X141322619Y-95900953D02*
X141322619Y-95329524D01*
X141322619Y-95615238D02*
X142322619Y-95615238D01*
X142179762Y-95520000D01*
X142084524Y-95424762D01*
X142036905Y-95329524D01*
X142227381Y-96281905D02*
X142275000Y-96329524D01*
X142322619Y-96424762D01*
X142322619Y-96662858D01*
X142275000Y-96758096D01*
X142227381Y-96805715D01*
X142132143Y-96853334D01*
X142036905Y-96853334D01*
X141894048Y-96805715D01*
X141322619Y-96234286D01*
X141322619Y-96853334D01*
X142322619Y-97139048D02*
X141322619Y-97472381D01*
X142322619Y-97805715D01*
X131775000Y-95758096D02*
X131822619Y-95662858D01*
X131822619Y-95520001D01*
X131775000Y-95377143D01*
X131679762Y-95281905D01*
X131584524Y-95234286D01*
X131394048Y-95186667D01*
X131251190Y-95186667D01*
X131060714Y-95234286D01*
X130965476Y-95281905D01*
X130870238Y-95377143D01*
X130822619Y-95520001D01*
X130822619Y-95615239D01*
X130870238Y-95758096D01*
X130917857Y-95805715D01*
X131251190Y-95805715D01*
X131251190Y-95615239D01*
X130822619Y-96234286D02*
X131822619Y-96234286D01*
X130822619Y-96805715D01*
X131822619Y-96805715D01*
X130822619Y-97281905D02*
X131822619Y-97281905D01*
X131822619Y-97520000D01*
X131775000Y-97662858D01*
X131679762Y-97758096D01*
X131584524Y-97805715D01*
X131394048Y-97853334D01*
X131251190Y-97853334D01*
X131060714Y-97805715D01*
X130965476Y-97758096D01*
X130870238Y-97662858D01*
X130822619Y-97520000D01*
X130822619Y-97281905D01*
X128622619Y-95900953D02*
X128622619Y-95329524D01*
X128622619Y-95615238D02*
X129622619Y-95615238D01*
X129479762Y-95520000D01*
X129384524Y-95424762D01*
X129336905Y-95329524D01*
X129527381Y-96281905D02*
X129575000Y-96329524D01*
X129622619Y-96424762D01*
X129622619Y-96662858D01*
X129575000Y-96758096D01*
X129527381Y-96805715D01*
X129432143Y-96853334D01*
X129336905Y-96853334D01*
X129194048Y-96805715D01*
X128622619Y-96234286D01*
X128622619Y-96853334D01*
X129622619Y-97139048D02*
X128622619Y-97472381D01*
X129622619Y-97805715D01*
X119075000Y-95758096D02*
X119122619Y-95662858D01*
X119122619Y-95520001D01*
X119075000Y-95377143D01*
X118979762Y-95281905D01*
X118884524Y-95234286D01*
X118694048Y-95186667D01*
X118551190Y-95186667D01*
X118360714Y-95234286D01*
X118265476Y-95281905D01*
X118170238Y-95377143D01*
X118122619Y-95520001D01*
X118122619Y-95615239D01*
X118170238Y-95758096D01*
X118217857Y-95805715D01*
X118551190Y-95805715D01*
X118551190Y-95615239D01*
X118122619Y-96234286D02*
X119122619Y-96234286D01*
X118122619Y-96805715D01*
X119122619Y-96805715D01*
X118122619Y-97281905D02*
X119122619Y-97281905D01*
X119122619Y-97520000D01*
X119075000Y-97662858D01*
X118979762Y-97758096D01*
X118884524Y-97805715D01*
X118694048Y-97853334D01*
X118551190Y-97853334D01*
X118360714Y-97805715D01*
X118265476Y-97758096D01*
X118170238Y-97662858D01*
X118122619Y-97520000D01*
X118122619Y-97281905D01*
X131092381Y-62849047D02*
X131092381Y-63420476D01*
X131092381Y-63134762D02*
X130092381Y-63134762D01*
X130235238Y-63230000D01*
X130330476Y-63325238D01*
X130378095Y-63420476D01*
X130187619Y-62468095D02*
X130140000Y-62420476D01*
X130092381Y-62325238D01*
X130092381Y-62087142D01*
X130140000Y-61991904D01*
X130187619Y-61944285D01*
X130282857Y-61896666D01*
X130378095Y-61896666D01*
X130520952Y-61944285D01*
X131092381Y-62515714D01*
X131092381Y-61896666D01*
X130092381Y-61610952D02*
X131092381Y-61277619D01*
X130092381Y-60944285D01*
X140640000Y-62991904D02*
X140592381Y-63087142D01*
X140592381Y-63229999D01*
X140640000Y-63372857D01*
X140735238Y-63468095D01*
X140830476Y-63515714D01*
X141020952Y-63563333D01*
X141163810Y-63563333D01*
X141354286Y-63515714D01*
X141449524Y-63468095D01*
X141544762Y-63372857D01*
X141592381Y-63229999D01*
X141592381Y-63134761D01*
X141544762Y-62991904D01*
X141497143Y-62944285D01*
X141163810Y-62944285D01*
X141163810Y-63134761D01*
X141592381Y-62515714D02*
X140592381Y-62515714D01*
X141592381Y-61944285D01*
X140592381Y-61944285D01*
X141592381Y-61468095D02*
X140592381Y-61468095D01*
X140592381Y-61230000D01*
X140640000Y-61087142D01*
X140735238Y-60991904D01*
X140830476Y-60944285D01*
X141020952Y-60896666D01*
X141163810Y-60896666D01*
X141354286Y-60944285D01*
X141449524Y-60991904D01*
X141544762Y-61087142D01*
X141592381Y-61230000D01*
X141592381Y-61468095D01*
D13*
X110137144Y-66488571D02*
X110637144Y-67988571D01*
X111137144Y-66488571D01*
X112208572Y-67917143D02*
X112065715Y-67988571D01*
X111780001Y-67988571D01*
X111637144Y-67917143D01*
X111565715Y-67774286D01*
X111565715Y-67202857D01*
X111637144Y-67060000D01*
X111780001Y-66988571D01*
X112065715Y-66988571D01*
X112208572Y-67060000D01*
X112280001Y-67202857D01*
X112280001Y-67345714D01*
X111565715Y-67488571D01*
X112922858Y-67988571D02*
X112922858Y-66988571D01*
X112922858Y-67274286D02*
X112994286Y-67131429D01*
X113065715Y-67060000D01*
X113208572Y-66988571D01*
X113351429Y-66988571D01*
X115637143Y-66988571D02*
X115637143Y-67988571D01*
X115280000Y-66417143D02*
X114922857Y-67488571D01*
X115851429Y-67488571D01*
D11*
X110053571Y-70712381D02*
X110053571Y-69712381D01*
X110291666Y-69712381D01*
X110434524Y-69760000D01*
X110529762Y-69855238D01*
X110577381Y-69950476D01*
X110625000Y-70140952D01*
X110625000Y-70283810D01*
X110577381Y-70474286D01*
X110529762Y-70569524D01*
X110434524Y-70664762D01*
X110291666Y-70712381D01*
X110053571Y-70712381D01*
X111005952Y-70426667D02*
X111482143Y-70426667D01*
X110910714Y-70712381D02*
X111244047Y-69712381D01*
X111577381Y-70712381D01*
X111767857Y-69712381D02*
X112339286Y-69712381D01*
X112053571Y-70712381D02*
X112053571Y-69712381D01*
X110863095Y-74112381D02*
X110863095Y-73112381D01*
X111244048Y-73112381D01*
X111339286Y-73160000D01*
X111386905Y-73207619D01*
X111434524Y-73302857D01*
X111434524Y-73445714D01*
X111386905Y-73540952D01*
X111339286Y-73588571D01*
X111244048Y-73636190D01*
X110863095Y-73636190D01*
X110363096Y-76560000D02*
X110267858Y-76512381D01*
X110125001Y-76512381D01*
X109982143Y-76560000D01*
X109886905Y-76655238D01*
X109839286Y-76750476D01*
X109791667Y-76940952D01*
X109791667Y-77083810D01*
X109839286Y-77274286D01*
X109886905Y-77369524D01*
X109982143Y-77464762D01*
X110125001Y-77512381D01*
X110220239Y-77512381D01*
X110363096Y-77464762D01*
X110410715Y-77417143D01*
X110410715Y-77083810D01*
X110220239Y-77083810D01*
X110839286Y-77512381D02*
X110839286Y-76512381D01*
X111410715Y-77512381D01*
X111410715Y-76512381D01*
X111886905Y-77512381D02*
X111886905Y-76512381D01*
X112125000Y-76512381D01*
X112267858Y-76560000D01*
X112363096Y-76655238D01*
X112410715Y-76750476D01*
X112458334Y-76940952D01*
X112458334Y-77083810D01*
X112410715Y-77274286D01*
X112363096Y-77369524D01*
X112267858Y-77464762D01*
X112125000Y-77512381D01*
X111886905Y-77512381D01*
D12*
X117757381Y-62849047D02*
X117757381Y-63420476D01*
X117757381Y-63134762D02*
X116757381Y-63134762D01*
X116900238Y-63230000D01*
X116995476Y-63325238D01*
X117043095Y-63420476D01*
X116852619Y-62468095D02*
X116805000Y-62420476D01*
X116757381Y-62325238D01*
X116757381Y-62087142D01*
X116805000Y-61991904D01*
X116852619Y-61944285D01*
X116947857Y-61896666D01*
X117043095Y-61896666D01*
X117185952Y-61944285D01*
X117757381Y-62515714D01*
X117757381Y-61896666D01*
X116757381Y-61610952D02*
X117757381Y-61277619D01*
X116757381Y-60944285D01*
X127305000Y-62991904D02*
X127257381Y-63087142D01*
X127257381Y-63229999D01*
X127305000Y-63372857D01*
X127400238Y-63468095D01*
X127495476Y-63515714D01*
X127685952Y-63563333D01*
X127828810Y-63563333D01*
X128019286Y-63515714D01*
X128114524Y-63468095D01*
X128209762Y-63372857D01*
X128257381Y-63229999D01*
X128257381Y-63134761D01*
X128209762Y-62991904D01*
X128162143Y-62944285D01*
X127828810Y-62944285D01*
X127828810Y-63134761D01*
X128257381Y-62515714D02*
X127257381Y-62515714D01*
X128257381Y-61944285D01*
X127257381Y-61944285D01*
X128257381Y-61468095D02*
X127257381Y-61468095D01*
X127257381Y-61230000D01*
X127305000Y-61087142D01*
X127400238Y-60991904D01*
X127495476Y-60944285D01*
X127685952Y-60896666D01*
X127828810Y-60896666D01*
X128019286Y-60944285D01*
X128114524Y-60991904D01*
X128209762Y-61087142D01*
X128257381Y-61230000D01*
X128257381Y-61468095D01*
D13*
X120210716Y-78553571D02*
X120567859Y-80053571D01*
X120853573Y-78982143D01*
X121139287Y-80053571D01*
X121496430Y-78553571D01*
X122710716Y-80053571D02*
X122710716Y-79267857D01*
X122639287Y-79125000D01*
X122496430Y-79053571D01*
X122210716Y-79053571D01*
X122067859Y-79125000D01*
X122710716Y-79982143D02*
X122567859Y-80053571D01*
X122210716Y-80053571D01*
X122067859Y-79982143D01*
X121996430Y-79839286D01*
X121996430Y-79696429D01*
X122067859Y-79553571D01*
X122210716Y-79482143D01*
X122567859Y-79482143D01*
X122710716Y-79410714D01*
X123639288Y-80053571D02*
X123496430Y-79982143D01*
X123425002Y-79839286D01*
X123425002Y-78553571D01*
X124853573Y-79982143D02*
X124710716Y-80053571D01*
X124425002Y-80053571D01*
X124282144Y-79982143D01*
X124210716Y-79910714D01*
X124139287Y-79767857D01*
X124139287Y-79339286D01*
X124210716Y-79196429D01*
X124282144Y-79125000D01*
X124425002Y-79053571D01*
X124710716Y-79053571D01*
X124853573Y-79125000D01*
X125496430Y-80053571D02*
X125496430Y-78553571D01*
X126139287Y-80053571D02*
X126139287Y-79267857D01*
X126067858Y-79125000D01*
X125925001Y-79053571D01*
X125710716Y-79053571D01*
X125567858Y-79125000D01*
X125496430Y-79196429D01*
X126853573Y-80053571D02*
X126853573Y-78553571D01*
X126996430Y-79482143D02*
X127425001Y-80053571D01*
X127425001Y-79053571D02*
X126853573Y-79625000D01*
X128282145Y-80053571D02*
X128139287Y-79982143D01*
X128067859Y-79910714D01*
X127996430Y-79767857D01*
X127996430Y-79339286D01*
X128067859Y-79196429D01*
X128139287Y-79125000D01*
X128282145Y-79053571D01*
X128496430Y-79053571D01*
X128639287Y-79125000D01*
X128710716Y-79196429D01*
X128782145Y-79339286D01*
X128782145Y-79767857D01*
X128710716Y-79910714D01*
X128639287Y-79982143D01*
X128496430Y-80053571D01*
X128282145Y-80053571D01*
X130996430Y-80625000D02*
X130925002Y-80553571D01*
X130782145Y-80339286D01*
X130710716Y-80196429D01*
X130639287Y-79982143D01*
X130567859Y-79625000D01*
X130567859Y-79339286D01*
X130639287Y-78982143D01*
X130710716Y-78767857D01*
X130782145Y-78625000D01*
X130925002Y-78410714D01*
X130996430Y-78339286D01*
X132210716Y-79982143D02*
X132067859Y-80053571D01*
X131782145Y-80053571D01*
X131639287Y-79982143D01*
X131567859Y-79910714D01*
X131496430Y-79767857D01*
X131496430Y-79339286D01*
X131567859Y-79196429D01*
X131639287Y-79125000D01*
X131782145Y-79053571D01*
X132067859Y-79053571D01*
X132210716Y-79125000D01*
X132710716Y-80625000D02*
X132782144Y-80553571D01*
X132925001Y-80339286D01*
X132996430Y-80196429D01*
X133067859Y-79982143D01*
X133139287Y-79625000D01*
X133139287Y-79339286D01*
X133067859Y-78982143D01*
X132996430Y-78767857D01*
X132925001Y-78625000D01*
X132782144Y-78410714D01*
X132710716Y-78339286D01*
X134925001Y-78696429D02*
X134996430Y-78625000D01*
X135139287Y-78553571D01*
X135496430Y-78553571D01*
X135639287Y-78625000D01*
X135710716Y-78696429D01*
X135782144Y-78839286D01*
X135782144Y-78982143D01*
X135710716Y-79196429D01*
X134853573Y-80053571D01*
X135782144Y-80053571D01*
X136710715Y-78553571D02*
X136853572Y-78553571D01*
X136996429Y-78625000D01*
X137067858Y-78696429D01*
X137139287Y-78839286D01*
X137210715Y-79125000D01*
X137210715Y-79482143D01*
X137139287Y-79767857D01*
X137067858Y-79910714D01*
X136996429Y-79982143D01*
X136853572Y-80053571D01*
X136710715Y-80053571D01*
X136567858Y-79982143D01*
X136496429Y-79910714D01*
X136425001Y-79767857D01*
X136353572Y-79482143D01*
X136353572Y-79125000D01*
X136425001Y-78839286D01*
X136496429Y-78696429D01*
X136567858Y-78625000D01*
X136710715Y-78553571D01*
X138639286Y-80053571D02*
X137782143Y-80053571D01*
X138210715Y-80053571D02*
X138210715Y-78553571D01*
X138067858Y-78767857D01*
X137925000Y-78910714D01*
X137782143Y-78982143D01*
X139496429Y-79196429D02*
X139353571Y-79125000D01*
X139282143Y-79053571D01*
X139210714Y-78910714D01*
X139210714Y-78839286D01*
X139282143Y-78696429D01*
X139353571Y-78625000D01*
X139496429Y-78553571D01*
X139782143Y-78553571D01*
X139925000Y-78625000D01*
X139996429Y-78696429D01*
X140067857Y-78839286D01*
X140067857Y-78910714D01*
X139996429Y-79053571D01*
X139925000Y-79125000D01*
X139782143Y-79196429D01*
X139496429Y-79196429D01*
X139353571Y-79267857D01*
X139282143Y-79339286D01*
X139210714Y-79482143D01*
X139210714Y-79767857D01*
X139282143Y-79910714D01*
X139353571Y-79982143D01*
X139496429Y-80053571D01*
X139782143Y-80053571D01*
X139925000Y-79982143D01*
X139996429Y-79910714D01*
X140067857Y-79767857D01*
X140067857Y-79482143D01*
X139996429Y-79339286D01*
X139925000Y-79267857D01*
X139782143Y-79196429D01*
D14*
X115255000Y-88190000D02*
X117155000Y-88190000D01*
X117155000Y-88190000D02*
X117155000Y-83490000D01*
X115255000Y-88190000D02*
X115255000Y-83490000D01*
X117580000Y-77570000D02*
X118580000Y-78570000D01*
X122480000Y-68670000D02*
X117580000Y-68670000D01*
X117580000Y-68670000D02*
X117580000Y-77570000D01*
X118580000Y-78570000D02*
X122480000Y-78570000D01*
X122480000Y-78570000D02*
X122480000Y-68670000D01*
X129010000Y-77570000D02*
X130010000Y-78570000D01*
X133910000Y-68670000D02*
X129010000Y-68670000D01*
X129010000Y-68670000D02*
X129010000Y-77570000D01*
X130010000Y-78570000D02*
X133910000Y-78570000D01*
X133910000Y-78570000D02*
X133910000Y-68670000D01*
X112970000Y-77530000D02*
X115630000Y-77530000D01*
X112970000Y-72390000D02*
X112970000Y-77530000D01*
X115630000Y-72390000D02*
X115630000Y-77530000D01*
X112970000Y-72390000D02*
X115630000Y-72390000D01*
X112970000Y-71120000D02*
X112970000Y-69790000D01*
X112970000Y-69790000D02*
X114300000Y-69790000D01*
X142180000Y-88960000D02*
X144840000Y-88960000D01*
X142180000Y-83820000D02*
X142180000Y-88960000D01*
X144840000Y-83820000D02*
X144840000Y-88960000D01*
X142180000Y-83820000D02*
X144840000Y-83820000D01*
X142180000Y-82550000D02*
X142180000Y-81220000D01*
X142180000Y-81220000D02*
X143510000Y-81220000D01*
X123295000Y-77570000D02*
X124295000Y-78570000D01*
X128195000Y-68670000D02*
X123295000Y-68670000D01*
X123295000Y-68670000D02*
X123295000Y-77570000D01*
X124295000Y-78570000D02*
X128195000Y-78570000D01*
X128195000Y-78570000D02*
X128195000Y-68670000D01*
X140440000Y-77570000D02*
X141440000Y-78570000D01*
X145340000Y-68670000D02*
X140440000Y-68670000D01*
X140440000Y-68670000D02*
X140440000Y-77570000D01*
X141440000Y-78570000D02*
X145340000Y-78570000D01*
X145340000Y-78570000D02*
X145340000Y-68670000D01*
X134725000Y-77570000D02*
X135725000Y-78570000D01*
X139625000Y-68670000D02*
X134725000Y-68670000D01*
X134725000Y-68670000D02*
X134725000Y-77570000D01*
X135725000Y-78570000D02*
X139625000Y-78570000D01*
X139625000Y-78570000D02*
X139625000Y-68670000D01*
X113465000Y-84090000D02*
X113465000Y-86090000D01*
X111325000Y-86090000D02*
X111325000Y-84090000D01*
X130280000Y-89000000D02*
X131280000Y-90000000D01*
X135180000Y-80100000D02*
X130280000Y-80100000D01*
X130280000Y-80100000D02*
X130280000Y-89000000D01*
X131280000Y-90000000D02*
X135180000Y-90000000D01*
X135180000Y-90000000D02*
X135180000Y-80100000D01*
X135995000Y-89000000D02*
X136995000Y-90000000D01*
X140895000Y-80100000D02*
X135995000Y-80100000D01*
X135995000Y-80100000D02*
X135995000Y-89000000D01*
X136995000Y-90000000D02*
X140895000Y-90000000D01*
X140895000Y-90000000D02*
X140895000Y-80100000D01*
X118850000Y-89000000D02*
X119850000Y-90000000D01*
X123750000Y-80100000D02*
X118850000Y-80100000D01*
X118850000Y-80100000D02*
X118850000Y-89000000D01*
X119850000Y-90000000D02*
X123750000Y-90000000D01*
X123750000Y-90000000D02*
X123750000Y-80100000D01*
X124565000Y-89000000D02*
X125565000Y-90000000D01*
X129465000Y-80100000D02*
X124565000Y-80100000D01*
X124565000Y-80100000D02*
X124565000Y-89000000D01*
X125565000Y-90000000D02*
X129465000Y-90000000D01*
X129465000Y-90000000D02*
X129465000Y-80100000D01*
D15*
X135735000Y-99985000D02*
X135735000Y-100385000D01*
X132235000Y-98885000D02*
X139235000Y-98885000D01*
X132235000Y-99985000D02*
X139235000Y-99985000D01*
X132235000Y-92785000D02*
X132235000Y-100385000D01*
X139235000Y-100385000D02*
X139235000Y-92785000D01*
X139235000Y-92785000D02*
X132235000Y-92785000D01*
X124305000Y-99985000D02*
X124305000Y-100385000D01*
X120805000Y-98885000D02*
X127805000Y-98885000D01*
X120805000Y-99985000D02*
X127805000Y-99985000D01*
X120805000Y-92785000D02*
X120805000Y-100385000D01*
X127805000Y-100385000D02*
X127805000Y-92785000D01*
X127805000Y-92785000D02*
X120805000Y-92785000D01*
X123345000Y-58765000D02*
X123345000Y-58365000D01*
X126845000Y-59865000D02*
X119845000Y-59865000D01*
X126845000Y-58765000D02*
X119845000Y-58765000D01*
X126845000Y-65965000D02*
X126845000Y-58365000D01*
X119845000Y-58365000D02*
X119845000Y-65965000D01*
X119845000Y-65965000D02*
X126845000Y-65965000D01*
X135410000Y-58765000D02*
X135410000Y-58365000D01*
X138910000Y-59865000D02*
X131910000Y-59865000D01*
X138910000Y-58765000D02*
X131910000Y-58765000D01*
X138910000Y-65965000D02*
X138910000Y-58365000D01*
X131910000Y-58365000D02*
X131910000Y-65965000D01*
X131910000Y-65965000D02*
X138910000Y-65965000D01*
D16*
G36*
X111068886Y-94659505D02*
X111143539Y-94696727D01*
X111209431Y-94765261D01*
X111227577Y-94790648D01*
X111247345Y-94823866D01*
X111260172Y-94859945D01*
X111267510Y-94908098D01*
X111270813Y-94977536D01*
X111271538Y-95069206D01*
X111268263Y-95194830D01*
X111256877Y-95289154D01*
X111235041Y-95359523D01*
X111200419Y-95413286D01*
X111150670Y-95457788D01*
X111147014Y-95460423D01*
X111097985Y-95487377D01*
X111038945Y-95500712D01*
X110963859Y-95504000D01*
X110841795Y-95504000D01*
X110841744Y-95622497D01*
X110840608Y-95688492D01*
X110833686Y-95727202D01*
X110815598Y-95750419D01*
X110780962Y-95769933D01*
X110772645Y-95773920D01*
X110733720Y-95792603D01*
X110703583Y-95804403D01*
X110681174Y-95805422D01*
X110665433Y-95791761D01*
X110655302Y-95759522D01*
X110649723Y-95704804D01*
X110647635Y-95623711D01*
X110647981Y-95512344D01*
X110649700Y-95366802D01*
X110650237Y-95323269D01*
X110652172Y-95173205D01*
X110653904Y-95075042D01*
X110841692Y-95075042D01*
X110842748Y-95158364D01*
X110847438Y-95212880D01*
X110858051Y-95248837D01*
X110876872Y-95276482D01*
X110889650Y-95289965D01*
X110941890Y-95329417D01*
X110988142Y-95332628D01*
X111035867Y-95300049D01*
X111037077Y-95298846D01*
X111056494Y-95273668D01*
X111068307Y-95239447D01*
X111074265Y-95186748D01*
X111076120Y-95106131D01*
X111076154Y-95088271D01*
X111071670Y-94977175D01*
X111057074Y-94900161D01*
X111030650Y-94853147D01*
X110990683Y-94832050D01*
X110967584Y-94829923D01*
X110912762Y-94839900D01*
X110875158Y-94872752D01*
X110852523Y-94932857D01*
X110842606Y-95024598D01*
X110841692Y-95075042D01*
X110653904Y-95075042D01*
X110654222Y-95057060D01*
X110656873Y-94969679D01*
X110660606Y-94905905D01*
X110665907Y-94860582D01*
X110673258Y-94828555D01*
X110683143Y-94804668D01*
X110696046Y-94783764D01*
X110701579Y-94775898D01*
X110774969Y-94701595D01*
X110867760Y-94659467D01*
X110975096Y-94647722D01*
X111068886Y-94659505D01*
X111068886Y-94659505D01*
G37*
X111068886Y-94659505D02*
X111143539Y-94696727D01*
X111209431Y-94765261D01*
X111227577Y-94790648D01*
X111247345Y-94823866D01*
X111260172Y-94859945D01*
X111267510Y-94908098D01*
X111270813Y-94977536D01*
X111271538Y-95069206D01*
X111268263Y-95194830D01*
X111256877Y-95289154D01*
X111235041Y-95359523D01*
X111200419Y-95413286D01*
X111150670Y-95457788D01*
X111147014Y-95460423D01*
X111097985Y-95487377D01*
X111038945Y-95500712D01*
X110963859Y-95504000D01*
X110841795Y-95504000D01*
X110841744Y-95622497D01*
X110840608Y-95688492D01*
X110833686Y-95727202D01*
X110815598Y-95750419D01*
X110780962Y-95769933D01*
X110772645Y-95773920D01*
X110733720Y-95792603D01*
X110703583Y-95804403D01*
X110681174Y-95805422D01*
X110665433Y-95791761D01*
X110655302Y-95759522D01*
X110649723Y-95704804D01*
X110647635Y-95623711D01*
X110647981Y-95512344D01*
X110649700Y-95366802D01*
X110650237Y-95323269D01*
X110652172Y-95173205D01*
X110653904Y-95075042D01*
X110841692Y-95075042D01*
X110842748Y-95158364D01*
X110847438Y-95212880D01*
X110858051Y-95248837D01*
X110876872Y-95276482D01*
X110889650Y-95289965D01*
X110941890Y-95329417D01*
X110988142Y-95332628D01*
X111035867Y-95300049D01*
X111037077Y-95298846D01*
X111056494Y-95273668D01*
X111068307Y-95239447D01*
X111074265Y-95186748D01*
X111076120Y-95106131D01*
X111076154Y-95088271D01*
X111071670Y-94977175D01*
X111057074Y-94900161D01*
X111030650Y-94853147D01*
X110990683Y-94832050D01*
X110967584Y-94829923D01*
X110912762Y-94839900D01*
X110875158Y-94872752D01*
X110852523Y-94932857D01*
X110842606Y-95024598D01*
X110841692Y-95075042D01*
X110653904Y-95075042D01*
X110654222Y-95057060D01*
X110656873Y-94969679D01*
X110660606Y-94905905D01*
X110665907Y-94860582D01*
X110673258Y-94828555D01*
X110683143Y-94804668D01*
X110696046Y-94783764D01*
X110701579Y-94775898D01*
X110774969Y-94701595D01*
X110867760Y-94659467D01*
X110975096Y-94647722D01*
X111068886Y-94659505D01*
G36*
X112571664Y-94670089D02*
X112634367Y-94706358D01*
X112677961Y-94742358D01*
X112709845Y-94780075D01*
X112731810Y-94826199D01*
X112745649Y-94887421D01*
X112753153Y-94970431D01*
X112756117Y-95081919D01*
X112756461Y-95162062D01*
X112756461Y-95457065D01*
X112590385Y-95531515D01*
X112580615Y-95208402D01*
X112576579Y-95087729D01*
X112572344Y-95000141D01*
X112567097Y-94939650D01*
X112560025Y-94900268D01*
X112550311Y-94876007D01*
X112537144Y-94860880D01*
X112532919Y-94857606D01*
X112468909Y-94832034D01*
X112404208Y-94842153D01*
X112365692Y-94869000D01*
X112350025Y-94888024D01*
X112339180Y-94912988D01*
X112332288Y-94950834D01*
X112328479Y-95008502D01*
X112326883Y-95092935D01*
X112326615Y-95180928D01*
X112326563Y-95291323D01*
X112324672Y-95369463D01*
X112318345Y-95422165D01*
X112304983Y-95456242D01*
X112281985Y-95478511D01*
X112246754Y-95495787D01*
X112199697Y-95513738D01*
X112148303Y-95533278D01*
X112154421Y-95186485D01*
X112156884Y-95061468D01*
X112159767Y-94969082D01*
X112163898Y-94902881D01*
X112170107Y-94856420D01*
X112179226Y-94823256D01*
X112192083Y-94796944D01*
X112207584Y-94773729D01*
X112282371Y-94699569D01*
X112373628Y-94656684D01*
X112472883Y-94646412D01*
X112571664Y-94670089D01*
X112571664Y-94670089D01*
G37*
X112571664Y-94670089D02*
X112634367Y-94706358D01*
X112677961Y-94742358D01*
X112709845Y-94780075D01*
X112731810Y-94826199D01*
X112745649Y-94887421D01*
X112753153Y-94970431D01*
X112756117Y-95081919D01*
X112756461Y-95162062D01*
X112756461Y-95457065D01*
X112590385Y-95531515D01*
X112580615Y-95208402D01*
X112576579Y-95087729D01*
X112572344Y-95000141D01*
X112567097Y-94939650D01*
X112560025Y-94900268D01*
X112550311Y-94876007D01*
X112537144Y-94860880D01*
X112532919Y-94857606D01*
X112468909Y-94832034D01*
X112404208Y-94842153D01*
X112365692Y-94869000D01*
X112350025Y-94888024D01*
X112339180Y-94912988D01*
X112332288Y-94950834D01*
X112328479Y-95008502D01*
X112326883Y-95092935D01*
X112326615Y-95180928D01*
X112326563Y-95291323D01*
X112324672Y-95369463D01*
X112318345Y-95422165D01*
X112304983Y-95456242D01*
X112281985Y-95478511D01*
X112246754Y-95495787D01*
X112199697Y-95513738D01*
X112148303Y-95533278D01*
X112154421Y-95186485D01*
X112156884Y-95061468D01*
X112159767Y-94969082D01*
X112163898Y-94902881D01*
X112170107Y-94856420D01*
X112179226Y-94823256D01*
X112192083Y-94796944D01*
X112207584Y-94773729D01*
X112282371Y-94699569D01*
X112373628Y-94656684D01*
X112472883Y-94646412D01*
X112571664Y-94670089D01*
G36*
X110316886Y-94662256D02*
X110408464Y-94710409D01*
X110476049Y-94787905D01*
X110500057Y-94837727D01*
X110518738Y-94912533D01*
X110528301Y-95007052D01*
X110529208Y-95110210D01*
X110521921Y-95210935D01*
X110506903Y-95298153D01*
X110484615Y-95360791D01*
X110477765Y-95371579D01*
X110396632Y-95452105D01*
X110300266Y-95500336D01*
X110195701Y-95514450D01*
X110089968Y-95492629D01*
X110060543Y-95479547D01*
X110003241Y-95439231D01*
X109952950Y-95385775D01*
X109948197Y-95378995D01*
X109928878Y-95346321D01*
X109916108Y-95311394D01*
X109908564Y-95265414D01*
X109904924Y-95199584D01*
X109903865Y-95105105D01*
X109903846Y-95083923D01*
X109903894Y-95077182D01*
X110099231Y-95077182D01*
X110100368Y-95166349D01*
X110104841Y-95225520D01*
X110114246Y-95263741D01*
X110130176Y-95290053D01*
X110138308Y-95298846D01*
X110185058Y-95332261D01*
X110230447Y-95330737D01*
X110276340Y-95301752D01*
X110303712Y-95270809D01*
X110319923Y-95225643D01*
X110329026Y-95154420D01*
X110329651Y-95146114D01*
X110331204Y-95017037D01*
X110314965Y-94921172D01*
X110281152Y-94859107D01*
X110229984Y-94831432D01*
X110211720Y-94829923D01*
X110163760Y-94837513D01*
X110130953Y-94863808D01*
X110110895Y-94914095D01*
X110101178Y-94993664D01*
X110099231Y-95077182D01*
X109903894Y-95077182D01*
X109904574Y-94983249D01*
X109907629Y-94912906D01*
X109914322Y-94864163D01*
X109925960Y-94828288D01*
X109943853Y-94796548D01*
X109947808Y-94790648D01*
X110014267Y-94711104D01*
X110086685Y-94664929D01*
X110174849Y-94646599D01*
X110204787Y-94645703D01*
X110316886Y-94662256D01*
X110316886Y-94662256D01*
G37*
X110316886Y-94662256D02*
X110408464Y-94710409D01*
X110476049Y-94787905D01*
X110500057Y-94837727D01*
X110518738Y-94912533D01*
X110528301Y-95007052D01*
X110529208Y-95110210D01*
X110521921Y-95210935D01*
X110506903Y-95298153D01*
X110484615Y-95360791D01*
X110477765Y-95371579D01*
X110396632Y-95452105D01*
X110300266Y-95500336D01*
X110195701Y-95514450D01*
X110089968Y-95492629D01*
X110060543Y-95479547D01*
X110003241Y-95439231D01*
X109952950Y-95385775D01*
X109948197Y-95378995D01*
X109928878Y-95346321D01*
X109916108Y-95311394D01*
X109908564Y-95265414D01*
X109904924Y-95199584D01*
X109903865Y-95105105D01*
X109903846Y-95083923D01*
X109903894Y-95077182D01*
X110099231Y-95077182D01*
X110100368Y-95166349D01*
X110104841Y-95225520D01*
X110114246Y-95263741D01*
X110130176Y-95290053D01*
X110138308Y-95298846D01*
X110185058Y-95332261D01*
X110230447Y-95330737D01*
X110276340Y-95301752D01*
X110303712Y-95270809D01*
X110319923Y-95225643D01*
X110329026Y-95154420D01*
X110329651Y-95146114D01*
X110331204Y-95017037D01*
X110314965Y-94921172D01*
X110281152Y-94859107D01*
X110229984Y-94831432D01*
X110211720Y-94829923D01*
X110163760Y-94837513D01*
X110130953Y-94863808D01*
X110110895Y-94914095D01*
X110101178Y-94993664D01*
X110099231Y-95077182D01*
X109903894Y-95077182D01*
X109904574Y-94983249D01*
X109907629Y-94912906D01*
X109914322Y-94864163D01*
X109925960Y-94828288D01*
X109943853Y-94796548D01*
X109947808Y-94790648D01*
X110014267Y-94711104D01*
X110086685Y-94664929D01*
X110174849Y-94646599D01*
X110204787Y-94645703D01*
X110316886Y-94662256D01*
G36*
X111834254Y-94674745D02*
X111911286Y-94726567D01*
X111970816Y-94801412D01*
X112006378Y-94896654D01*
X112013571Y-94966756D01*
X112012754Y-94996009D01*
X112005914Y-95018407D01*
X111987112Y-95038474D01*
X111950408Y-95060733D01*
X111889862Y-95089709D01*
X111799534Y-95129927D01*
X111799077Y-95130129D01*
X111715933Y-95168210D01*
X111647753Y-95202025D01*
X111601505Y-95227933D01*
X111584158Y-95242295D01*
X111584154Y-95242411D01*
X111599443Y-95273685D01*
X111635196Y-95308157D01*
X111676242Y-95332990D01*
X111697037Y-95337923D01*
X111753770Y-95320862D01*
X111802627Y-95278133D01*
X111826465Y-95231155D01*
X111849397Y-95196522D01*
X111894318Y-95157081D01*
X111947123Y-95123009D01*
X111993710Y-95104480D01*
X112003452Y-95103462D01*
X112014418Y-95120215D01*
X112015079Y-95163039D01*
X112007020Y-95220781D01*
X111991827Y-95282289D01*
X111971086Y-95336409D01*
X111970038Y-95338510D01*
X111907621Y-95425660D01*
X111826726Y-95484939D01*
X111734856Y-95514034D01*
X111639513Y-95510634D01*
X111548198Y-95472428D01*
X111544138Y-95469741D01*
X111472306Y-95404642D01*
X111425073Y-95319705D01*
X111398934Y-95208021D01*
X111395426Y-95176643D01*
X111389213Y-95028536D01*
X111396661Y-94959468D01*
X111584154Y-94959468D01*
X111586590Y-95002552D01*
X111599914Y-95015126D01*
X111633132Y-95005719D01*
X111685494Y-94983483D01*
X111744024Y-94955610D01*
X111745479Y-94954872D01*
X111795089Y-94928777D01*
X111815000Y-94911363D01*
X111810090Y-94893107D01*
X111789416Y-94869120D01*
X111736819Y-94834406D01*
X111680177Y-94831856D01*
X111629369Y-94857119D01*
X111594276Y-94905847D01*
X111584154Y-94959468D01*
X111396661Y-94959468D01*
X111401992Y-94910036D01*
X111434778Y-94816055D01*
X111480421Y-94750215D01*
X111562802Y-94683681D01*
X111653546Y-94650676D01*
X111746185Y-94648573D01*
X111834254Y-94674745D01*
X111834254Y-94674745D01*
G37*
X111834254Y-94674745D02*
X111911286Y-94726567D01*
X111970816Y-94801412D01*
X112006378Y-94896654D01*
X112013571Y-94966756D01*
X112012754Y-94996009D01*
X112005914Y-95018407D01*
X111987112Y-95038474D01*
X111950408Y-95060733D01*
X111889862Y-95089709D01*
X111799534Y-95129927D01*
X111799077Y-95130129D01*
X111715933Y-95168210D01*
X111647753Y-95202025D01*
X111601505Y-95227933D01*
X111584158Y-95242295D01*
X111584154Y-95242411D01*
X111599443Y-95273685D01*
X111635196Y-95308157D01*
X111676242Y-95332990D01*
X111697037Y-95337923D01*
X111753770Y-95320862D01*
X111802627Y-95278133D01*
X111826465Y-95231155D01*
X111849397Y-95196522D01*
X111894318Y-95157081D01*
X111947123Y-95123009D01*
X111993710Y-95104480D01*
X112003452Y-95103462D01*
X112014418Y-95120215D01*
X112015079Y-95163039D01*
X112007020Y-95220781D01*
X111991827Y-95282289D01*
X111971086Y-95336409D01*
X111970038Y-95338510D01*
X111907621Y-95425660D01*
X111826726Y-95484939D01*
X111734856Y-95514034D01*
X111639513Y-95510634D01*
X111548198Y-95472428D01*
X111544138Y-95469741D01*
X111472306Y-95404642D01*
X111425073Y-95319705D01*
X111398934Y-95208021D01*
X111395426Y-95176643D01*
X111389213Y-95028536D01*
X111396661Y-94959468D01*
X111584154Y-94959468D01*
X111586590Y-95002552D01*
X111599914Y-95015126D01*
X111633132Y-95005719D01*
X111685494Y-94983483D01*
X111744024Y-94955610D01*
X111745479Y-94954872D01*
X111795089Y-94928777D01*
X111815000Y-94911363D01*
X111810090Y-94893107D01*
X111789416Y-94869120D01*
X111736819Y-94834406D01*
X111680177Y-94831856D01*
X111629369Y-94857119D01*
X111594276Y-94905847D01*
X111584154Y-94959468D01*
X111396661Y-94959468D01*
X111401992Y-94910036D01*
X111434778Y-94816055D01*
X111480421Y-94750215D01*
X111562802Y-94683681D01*
X111653546Y-94650676D01*
X111746185Y-94648573D01*
X111834254Y-94674745D01*
G36*
X113459846Y-94567120D02*
X113465572Y-94646980D01*
X113472149Y-94694039D01*
X113481262Y-94714566D01*
X113494598Y-94714829D01*
X113498923Y-94712378D01*
X113556444Y-94694636D01*
X113631268Y-94695672D01*
X113707339Y-94713910D01*
X113754918Y-94737505D01*
X113803702Y-94775198D01*
X113839364Y-94817855D01*
X113863845Y-94872057D01*
X113879087Y-94944384D01*
X113887030Y-95041419D01*
X113889616Y-95169742D01*
X113889662Y-95194358D01*
X113889692Y-95470870D01*
X113828161Y-95492320D01*
X113784459Y-95506912D01*
X113760482Y-95513706D01*
X113759777Y-95513769D01*
X113757415Y-95495345D01*
X113755406Y-95444526D01*
X113753901Y-95367993D01*
X113753053Y-95272430D01*
X113752923Y-95214329D01*
X113752651Y-95099771D01*
X113751252Y-95017667D01*
X113747849Y-94961393D01*
X113741567Y-94924326D01*
X113731529Y-94899844D01*
X113716861Y-94881325D01*
X113707702Y-94872406D01*
X113644789Y-94836466D01*
X113576136Y-94833775D01*
X113513848Y-94864170D01*
X113502329Y-94875144D01*
X113485433Y-94895779D01*
X113473714Y-94920256D01*
X113466233Y-94955647D01*
X113462054Y-95009026D01*
X113460237Y-95087466D01*
X113459846Y-95195617D01*
X113459846Y-95470870D01*
X113398315Y-95492320D01*
X113354613Y-95506912D01*
X113330636Y-95513706D01*
X113329930Y-95513769D01*
X113328126Y-95495069D01*
X113326500Y-95442322D01*
X113325117Y-95360557D01*
X113324042Y-95254805D01*
X113323340Y-95130094D01*
X113323077Y-94991455D01*
X113323077Y-94456806D01*
X113450077Y-94403236D01*
X113459846Y-94567120D01*
X113459846Y-94567120D01*
G37*
X113459846Y-94567120D02*
X113465572Y-94646980D01*
X113472149Y-94694039D01*
X113481262Y-94714566D01*
X113494598Y-94714829D01*
X113498923Y-94712378D01*
X113556444Y-94694636D01*
X113631268Y-94695672D01*
X113707339Y-94713910D01*
X113754918Y-94737505D01*
X113803702Y-94775198D01*
X113839364Y-94817855D01*
X113863845Y-94872057D01*
X113879087Y-94944384D01*
X113887030Y-95041419D01*
X113889616Y-95169742D01*
X113889662Y-95194358D01*
X113889692Y-95470870D01*
X113828161Y-95492320D01*
X113784459Y-95506912D01*
X113760482Y-95513706D01*
X113759777Y-95513769D01*
X113757415Y-95495345D01*
X113755406Y-95444526D01*
X113753901Y-95367993D01*
X113753053Y-95272430D01*
X113752923Y-95214329D01*
X113752651Y-95099771D01*
X113751252Y-95017667D01*
X113747849Y-94961393D01*
X113741567Y-94924326D01*
X113731529Y-94899844D01*
X113716861Y-94881325D01*
X113707702Y-94872406D01*
X113644789Y-94836466D01*
X113576136Y-94833775D01*
X113513848Y-94864170D01*
X113502329Y-94875144D01*
X113485433Y-94895779D01*
X113473714Y-94920256D01*
X113466233Y-94955647D01*
X113462054Y-95009026D01*
X113460237Y-95087466D01*
X113459846Y-95195617D01*
X113459846Y-95470870D01*
X113398315Y-95492320D01*
X113354613Y-95506912D01*
X113330636Y-95513706D01*
X113329930Y-95513769D01*
X113328126Y-95495069D01*
X113326500Y-95442322D01*
X113325117Y-95360557D01*
X113324042Y-95254805D01*
X113323340Y-95130094D01*
X113323077Y-94991455D01*
X113323077Y-94456806D01*
X113450077Y-94403236D01*
X113459846Y-94567120D01*
G36*
X114353501Y-94701303D02*
X114430060Y-94729733D01*
X114430936Y-94730279D01*
X114478285Y-94765127D01*
X114513241Y-94805852D01*
X114537825Y-94858925D01*
X114554062Y-94930814D01*
X114563975Y-95027992D01*
X114569586Y-95156928D01*
X114570077Y-95175298D01*
X114577141Y-95452287D01*
X114517695Y-95483028D01*
X114474681Y-95503802D01*
X114448710Y-95513646D01*
X114447509Y-95513769D01*
X114443014Y-95495606D01*
X114439444Y-95446612D01*
X114437248Y-95375031D01*
X114436769Y-95317068D01*
X114436758Y-95223170D01*
X114432466Y-95164203D01*
X114417503Y-95136079D01*
X114385482Y-95134706D01*
X114330014Y-95155998D01*
X114246269Y-95195136D01*
X114184689Y-95227643D01*
X114153017Y-95255845D01*
X114143706Y-95286582D01*
X114143692Y-95288104D01*
X114159057Y-95341054D01*
X114204547Y-95369660D01*
X114274166Y-95373803D01*
X114324313Y-95373084D01*
X114350754Y-95387527D01*
X114367243Y-95422218D01*
X114376733Y-95466416D01*
X114363057Y-95491493D01*
X114357907Y-95495082D01*
X114309425Y-95509496D01*
X114241531Y-95511537D01*
X114171612Y-95501983D01*
X114122068Y-95484522D01*
X114053570Y-95426364D01*
X114014634Y-95345408D01*
X114006923Y-95282160D01*
X114012807Y-95225111D01*
X114034101Y-95178542D01*
X114076265Y-95137181D01*
X114144759Y-95095755D01*
X114245044Y-95048993D01*
X114251154Y-95046350D01*
X114341490Y-95004617D01*
X114397235Y-94970391D01*
X114421129Y-94939635D01*
X114415913Y-94908311D01*
X114384328Y-94872383D01*
X114374883Y-94864116D01*
X114311617Y-94832058D01*
X114246064Y-94833407D01*
X114188972Y-94864838D01*
X114151093Y-94923024D01*
X114147574Y-94934446D01*
X114113300Y-94989837D01*
X114069809Y-95016518D01*
X114006923Y-95042960D01*
X114006923Y-94974548D01*
X114026052Y-94875110D01*
X114082831Y-94783902D01*
X114112378Y-94753389D01*
X114179542Y-94714228D01*
X114264956Y-94696500D01*
X114353501Y-94701303D01*
X114353501Y-94701303D01*
G37*
X114353501Y-94701303D02*
X114430060Y-94729733D01*
X114430936Y-94730279D01*
X114478285Y-94765127D01*
X114513241Y-94805852D01*
X114537825Y-94858925D01*
X114554062Y-94930814D01*
X114563975Y-95027992D01*
X114569586Y-95156928D01*
X114570077Y-95175298D01*
X114577141Y-95452287D01*
X114517695Y-95483028D01*
X114474681Y-95503802D01*
X114448710Y-95513646D01*
X114447509Y-95513769D01*
X114443014Y-95495606D01*
X114439444Y-95446612D01*
X114437248Y-95375031D01*
X114436769Y-95317068D01*
X114436758Y-95223170D01*
X114432466Y-95164203D01*
X114417503Y-95136079D01*
X114385482Y-95134706D01*
X114330014Y-95155998D01*
X114246269Y-95195136D01*
X114184689Y-95227643D01*
X114153017Y-95255845D01*
X114143706Y-95286582D01*
X114143692Y-95288104D01*
X114159057Y-95341054D01*
X114204547Y-95369660D01*
X114274166Y-95373803D01*
X114324313Y-95373084D01*
X114350754Y-95387527D01*
X114367243Y-95422218D01*
X114376733Y-95466416D01*
X114363057Y-95491493D01*
X114357907Y-95495082D01*
X114309425Y-95509496D01*
X114241531Y-95511537D01*
X114171612Y-95501983D01*
X114122068Y-95484522D01*
X114053570Y-95426364D01*
X114014634Y-95345408D01*
X114006923Y-95282160D01*
X114012807Y-95225111D01*
X114034101Y-95178542D01*
X114076265Y-95137181D01*
X114144759Y-95095755D01*
X114245044Y-95048993D01*
X114251154Y-95046350D01*
X114341490Y-95004617D01*
X114397235Y-94970391D01*
X114421129Y-94939635D01*
X114415913Y-94908311D01*
X114384328Y-94872383D01*
X114374883Y-94864116D01*
X114311617Y-94832058D01*
X114246064Y-94833407D01*
X114188972Y-94864838D01*
X114151093Y-94923024D01*
X114147574Y-94934446D01*
X114113300Y-94989837D01*
X114069809Y-95016518D01*
X114006923Y-95042960D01*
X114006923Y-94974548D01*
X114026052Y-94875110D01*
X114082831Y-94783902D01*
X114112378Y-94753389D01*
X114179542Y-94714228D01*
X114264956Y-94696500D01*
X114353501Y-94701303D01*
G36*
X115013362Y-94699670D02*
X115102117Y-94732421D01*
X115174022Y-94790350D01*
X115202144Y-94831128D01*
X115232802Y-94905954D01*
X115232165Y-94960058D01*
X115199987Y-94996446D01*
X115188081Y-95002633D01*
X115136675Y-95021925D01*
X115110422Y-95016982D01*
X115101530Y-94984587D01*
X115101077Y-94966692D01*
X115084797Y-94900859D01*
X115042365Y-94854807D01*
X114983388Y-94832564D01*
X114917475Y-94838161D01*
X114863895Y-94867229D01*
X114845798Y-94883810D01*
X114832971Y-94903925D01*
X114824306Y-94934332D01*
X114818696Y-94981788D01*
X114815035Y-95053050D01*
X114812215Y-95154875D01*
X114811484Y-95187115D01*
X114808820Y-95297410D01*
X114805792Y-95375036D01*
X114801250Y-95426396D01*
X114794046Y-95457890D01*
X114783033Y-95475920D01*
X114767060Y-95486888D01*
X114756834Y-95491733D01*
X114713406Y-95508301D01*
X114687842Y-95513769D01*
X114679395Y-95495507D01*
X114674239Y-95440296D01*
X114672346Y-95347499D01*
X114673689Y-95216478D01*
X114674107Y-95196269D01*
X114677058Y-95076733D01*
X114680548Y-94989449D01*
X114685514Y-94927591D01*
X114692893Y-94884336D01*
X114703624Y-94852860D01*
X114718645Y-94826339D01*
X114726502Y-94814975D01*
X114771553Y-94764692D01*
X114821940Y-94725581D01*
X114828108Y-94722167D01*
X114918458Y-94695212D01*
X115013362Y-94699670D01*
X115013362Y-94699670D01*
G37*
X115013362Y-94699670D02*
X115102117Y-94732421D01*
X115174022Y-94790350D01*
X115202144Y-94831128D01*
X115232802Y-94905954D01*
X115232165Y-94960058D01*
X115199987Y-94996446D01*
X115188081Y-95002633D01*
X115136675Y-95021925D01*
X115110422Y-95016982D01*
X115101530Y-94984587D01*
X115101077Y-94966692D01*
X115084797Y-94900859D01*
X115042365Y-94854807D01*
X114983388Y-94832564D01*
X114917475Y-94838161D01*
X114863895Y-94867229D01*
X114845798Y-94883810D01*
X114832971Y-94903925D01*
X114824306Y-94934332D01*
X114818696Y-94981788D01*
X114815035Y-95053050D01*
X114812215Y-95154875D01*
X114811484Y-95187115D01*
X114808820Y-95297410D01*
X114805792Y-95375036D01*
X114801250Y-95426396D01*
X114794046Y-95457890D01*
X114783033Y-95475920D01*
X114767060Y-95486888D01*
X114756834Y-95491733D01*
X114713406Y-95508301D01*
X114687842Y-95513769D01*
X114679395Y-95495507D01*
X114674239Y-95440296D01*
X114672346Y-95347499D01*
X114673689Y-95216478D01*
X114674107Y-95196269D01*
X114677058Y-95076733D01*
X114680548Y-94989449D01*
X114685514Y-94927591D01*
X114692893Y-94884336D01*
X114703624Y-94852860D01*
X114718645Y-94826339D01*
X114726502Y-94814975D01*
X114771553Y-94764692D01*
X114821940Y-94725581D01*
X114828108Y-94722167D01*
X114918458Y-94695212D01*
X115013362Y-94699670D01*
G36*
X115902081Y-94855289D02*
X115901833Y-95001320D01*
X115900872Y-95113655D01*
X115898794Y-95197678D01*
X115895193Y-95258769D01*
X115889665Y-95302309D01*
X115881804Y-95333679D01*
X115871207Y-95358262D01*
X115863182Y-95372294D01*
X115796728Y-95448388D01*
X115712470Y-95496084D01*
X115619249Y-95513199D01*
X115525900Y-95497546D01*
X115470312Y-95469418D01*
X115411957Y-95420760D01*
X115372186Y-95361333D01*
X115348190Y-95283507D01*
X115337161Y-95179652D01*
X115335599Y-95103462D01*
X115335809Y-95097986D01*
X115472308Y-95097986D01*
X115473141Y-95185355D01*
X115476961Y-95243192D01*
X115485746Y-95281029D01*
X115501474Y-95308398D01*
X115520266Y-95329042D01*
X115583375Y-95368890D01*
X115651137Y-95372295D01*
X115715179Y-95339025D01*
X115720164Y-95334517D01*
X115741439Y-95311067D01*
X115754779Y-95283166D01*
X115762001Y-95241641D01*
X115764923Y-95177316D01*
X115765385Y-95106200D01*
X115764383Y-95016858D01*
X115760238Y-94957258D01*
X115751236Y-94918089D01*
X115735667Y-94890040D01*
X115722902Y-94875144D01*
X115663600Y-94837575D01*
X115595301Y-94833057D01*
X115530110Y-94861753D01*
X115517528Y-94872406D01*
X115496111Y-94896063D01*
X115482744Y-94924251D01*
X115475566Y-94966245D01*
X115472719Y-95031319D01*
X115472308Y-95097986D01*
X115335809Y-95097986D01*
X115340322Y-94980765D01*
X115356362Y-94888577D01*
X115386528Y-94819269D01*
X115433629Y-94765211D01*
X115470312Y-94737505D01*
X115536990Y-94707572D01*
X115614272Y-94693678D01*
X115686110Y-94697397D01*
X115726308Y-94712400D01*
X115742082Y-94716670D01*
X115752550Y-94700750D01*
X115759856Y-94658089D01*
X115765385Y-94593106D01*
X115771437Y-94520732D01*
X115779844Y-94477187D01*
X115795141Y-94452287D01*
X115821864Y-94435845D01*
X115838654Y-94428564D01*
X115902154Y-94401963D01*
X115902081Y-94855289D01*
X115902081Y-94855289D01*
G37*
X115902081Y-94855289D02*
X115901833Y-95001320D01*
X115900872Y-95113655D01*
X115898794Y-95197678D01*
X115895193Y-95258769D01*
X115889665Y-95302309D01*
X115881804Y-95333679D01*
X115871207Y-95358262D01*
X115863182Y-95372294D01*
X115796728Y-95448388D01*
X115712470Y-95496084D01*
X115619249Y-95513199D01*
X115525900Y-95497546D01*
X115470312Y-95469418D01*
X115411957Y-95420760D01*
X115372186Y-95361333D01*
X115348190Y-95283507D01*
X115337161Y-95179652D01*
X115335599Y-95103462D01*
X115335809Y-95097986D01*
X115472308Y-95097986D01*
X115473141Y-95185355D01*
X115476961Y-95243192D01*
X115485746Y-95281029D01*
X115501474Y-95308398D01*
X115520266Y-95329042D01*
X115583375Y-95368890D01*
X115651137Y-95372295D01*
X115715179Y-95339025D01*
X115720164Y-95334517D01*
X115741439Y-95311067D01*
X115754779Y-95283166D01*
X115762001Y-95241641D01*
X115764923Y-95177316D01*
X115765385Y-95106200D01*
X115764383Y-95016858D01*
X115760238Y-94957258D01*
X115751236Y-94918089D01*
X115735667Y-94890040D01*
X115722902Y-94875144D01*
X115663600Y-94837575D01*
X115595301Y-94833057D01*
X115530110Y-94861753D01*
X115517528Y-94872406D01*
X115496111Y-94896063D01*
X115482744Y-94924251D01*
X115475566Y-94966245D01*
X115472719Y-95031319D01*
X115472308Y-95097986D01*
X115335809Y-95097986D01*
X115340322Y-94980765D01*
X115356362Y-94888577D01*
X115386528Y-94819269D01*
X115433629Y-94765211D01*
X115470312Y-94737505D01*
X115536990Y-94707572D01*
X115614272Y-94693678D01*
X115686110Y-94697397D01*
X115726308Y-94712400D01*
X115742082Y-94716670D01*
X115752550Y-94700750D01*
X115759856Y-94658089D01*
X115765385Y-94593106D01*
X115771437Y-94520732D01*
X115779844Y-94477187D01*
X115795141Y-94452287D01*
X115821864Y-94435845D01*
X115838654Y-94428564D01*
X115902154Y-94401963D01*
X115902081Y-94855289D01*
G36*
X116695929Y-94711662D02*
X116698911Y-94763068D01*
X116701247Y-94841192D01*
X116702749Y-94939857D01*
X116703231Y-95043343D01*
X116703231Y-95393533D01*
X116641401Y-95455363D01*
X116598793Y-95493462D01*
X116561390Y-95508895D01*
X116510270Y-95507918D01*
X116489978Y-95505433D01*
X116426554Y-95498200D01*
X116374095Y-95494055D01*
X116361308Y-95493672D01*
X116318199Y-95496176D01*
X116256544Y-95502462D01*
X116232638Y-95505433D01*
X116173922Y-95510028D01*
X116134464Y-95500046D01*
X116095338Y-95469228D01*
X116081215Y-95455363D01*
X116019385Y-95393533D01*
X116019385Y-94738503D01*
X116069150Y-94715829D01*
X116112002Y-94699034D01*
X116137073Y-94693154D01*
X116143501Y-94711736D01*
X116149509Y-94763655D01*
X116154697Y-94843172D01*
X116158664Y-94944546D01*
X116160577Y-95030192D01*
X116165923Y-95367231D01*
X116212560Y-95373825D01*
X116254976Y-95369214D01*
X116275760Y-95354287D01*
X116281570Y-95326377D01*
X116286530Y-95266925D01*
X116290246Y-95183466D01*
X116292324Y-95083532D01*
X116292624Y-95032104D01*
X116292923Y-94736054D01*
X116354454Y-94714604D01*
X116398004Y-94700020D01*
X116421694Y-94693219D01*
X116422377Y-94693154D01*
X116424754Y-94711642D01*
X116427366Y-94762906D01*
X116429995Y-94840649D01*
X116432421Y-94938574D01*
X116434115Y-95030192D01*
X116439461Y-95367231D01*
X116556692Y-95367231D01*
X116562072Y-95059746D01*
X116567451Y-94752261D01*
X116624601Y-94722707D01*
X116666797Y-94702413D01*
X116691770Y-94693204D01*
X116692491Y-94693154D01*
X116695929Y-94711662D01*
X116695929Y-94711662D01*
G37*
X116695929Y-94711662D02*
X116698911Y-94763068D01*
X116701247Y-94841192D01*
X116702749Y-94939857D01*
X116703231Y-95043343D01*
X116703231Y-95393533D01*
X116641401Y-95455363D01*
X116598793Y-95493462D01*
X116561390Y-95508895D01*
X116510270Y-95507918D01*
X116489978Y-95505433D01*
X116426554Y-95498200D01*
X116374095Y-95494055D01*
X116361308Y-95493672D01*
X116318199Y-95496176D01*
X116256544Y-95502462D01*
X116232638Y-95505433D01*
X116173922Y-95510028D01*
X116134464Y-95500046D01*
X116095338Y-95469228D01*
X116081215Y-95455363D01*
X116019385Y-95393533D01*
X116019385Y-94738503D01*
X116069150Y-94715829D01*
X116112002Y-94699034D01*
X116137073Y-94693154D01*
X116143501Y-94711736D01*
X116149509Y-94763655D01*
X116154697Y-94843172D01*
X116158664Y-94944546D01*
X116160577Y-95030192D01*
X116165923Y-95367231D01*
X116212560Y-95373825D01*
X116254976Y-95369214D01*
X116275760Y-95354287D01*
X116281570Y-95326377D01*
X116286530Y-95266925D01*
X116290246Y-95183466D01*
X116292324Y-95083532D01*
X116292624Y-95032104D01*
X116292923Y-94736054D01*
X116354454Y-94714604D01*
X116398004Y-94700020D01*
X116421694Y-94693219D01*
X116422377Y-94693154D01*
X116424754Y-94711642D01*
X116427366Y-94762906D01*
X116429995Y-94840649D01*
X116432421Y-94938574D01*
X116434115Y-95030192D01*
X116439461Y-95367231D01*
X116556692Y-95367231D01*
X116562072Y-95059746D01*
X116567451Y-94752261D01*
X116624601Y-94722707D01*
X116666797Y-94702413D01*
X116691770Y-94693204D01*
X116692491Y-94693154D01*
X116695929Y-94711662D01*
G36*
X117187333Y-94708528D02*
X117243590Y-94734117D01*
X117287747Y-94765124D01*
X117320101Y-94799795D01*
X117342438Y-94844520D01*
X117356546Y-94905692D01*
X117364211Y-94989701D01*
X117367220Y-95102940D01*
X117367538Y-95177509D01*
X117367538Y-95468420D01*
X117317773Y-95491095D01*
X117278576Y-95507667D01*
X117259157Y-95513769D01*
X117255442Y-95495610D01*
X117252495Y-95446648D01*
X117250691Y-95375153D01*
X117250308Y-95318385D01*
X117248661Y-95236371D01*
X117244222Y-95171309D01*
X117237740Y-95131467D01*
X117232590Y-95123000D01*
X117197977Y-95131646D01*
X117143640Y-95153823D01*
X117080722Y-95183886D01*
X117020368Y-95216192D01*
X116973721Y-95245098D01*
X116951926Y-95264961D01*
X116951839Y-95265175D01*
X116953714Y-95301935D01*
X116970525Y-95337026D01*
X117000039Y-95365528D01*
X117043116Y-95375061D01*
X117079932Y-95373950D01*
X117132074Y-95373133D01*
X117159444Y-95385349D01*
X117175882Y-95417624D01*
X117177955Y-95423710D01*
X117185081Y-95469739D01*
X117166024Y-95497687D01*
X117116353Y-95511007D01*
X117062697Y-95513470D01*
X116966142Y-95495210D01*
X116916159Y-95469131D01*
X116854429Y-95407868D01*
X116821690Y-95332670D01*
X116818753Y-95253211D01*
X116846424Y-95179167D01*
X116888047Y-95132769D01*
X116929604Y-95106793D01*
X116994922Y-95073907D01*
X117071038Y-95040557D01*
X117083726Y-95035461D01*
X117167333Y-94998565D01*
X117215530Y-94966046D01*
X117231030Y-94933718D01*
X117216550Y-94897394D01*
X117191692Y-94869000D01*
X117132939Y-94834039D01*
X117068293Y-94831417D01*
X117009008Y-94858358D01*
X116966339Y-94912088D01*
X116960739Y-94925950D01*
X116928133Y-94976936D01*
X116880530Y-95014787D01*
X116820461Y-95045850D01*
X116820461Y-94957768D01*
X116823997Y-94903951D01*
X116839156Y-94861534D01*
X116872768Y-94816279D01*
X116905035Y-94781420D01*
X116955209Y-94732062D01*
X116994193Y-94705547D01*
X117036064Y-94694911D01*
X117083460Y-94693154D01*
X117187333Y-94708528D01*
X117187333Y-94708528D01*
G37*
X117187333Y-94708528D02*
X117243590Y-94734117D01*
X117287747Y-94765124D01*
X117320101Y-94799795D01*
X117342438Y-94844520D01*
X117356546Y-94905692D01*
X117364211Y-94989701D01*
X117367220Y-95102940D01*
X117367538Y-95177509D01*
X117367538Y-95468420D01*
X117317773Y-95491095D01*
X117278576Y-95507667D01*
X117259157Y-95513769D01*
X117255442Y-95495610D01*
X117252495Y-95446648D01*
X117250691Y-95375153D01*
X117250308Y-95318385D01*
X117248661Y-95236371D01*
X117244222Y-95171309D01*
X117237740Y-95131467D01*
X117232590Y-95123000D01*
X117197977Y-95131646D01*
X117143640Y-95153823D01*
X117080722Y-95183886D01*
X117020368Y-95216192D01*
X116973721Y-95245098D01*
X116951926Y-95264961D01*
X116951839Y-95265175D01*
X116953714Y-95301935D01*
X116970525Y-95337026D01*
X117000039Y-95365528D01*
X117043116Y-95375061D01*
X117079932Y-95373950D01*
X117132074Y-95373133D01*
X117159444Y-95385349D01*
X117175882Y-95417624D01*
X117177955Y-95423710D01*
X117185081Y-95469739D01*
X117166024Y-95497687D01*
X117116353Y-95511007D01*
X117062697Y-95513470D01*
X116966142Y-95495210D01*
X116916159Y-95469131D01*
X116854429Y-95407868D01*
X116821690Y-95332670D01*
X116818753Y-95253211D01*
X116846424Y-95179167D01*
X116888047Y-95132769D01*
X116929604Y-95106793D01*
X116994922Y-95073907D01*
X117071038Y-95040557D01*
X117083726Y-95035461D01*
X117167333Y-94998565D01*
X117215530Y-94966046D01*
X117231030Y-94933718D01*
X117216550Y-94897394D01*
X117191692Y-94869000D01*
X117132939Y-94834039D01*
X117068293Y-94831417D01*
X117009008Y-94858358D01*
X116966339Y-94912088D01*
X116960739Y-94925950D01*
X116928133Y-94976936D01*
X116880530Y-95014787D01*
X116820461Y-95045850D01*
X116820461Y-94957768D01*
X116823997Y-94903951D01*
X116839156Y-94861534D01*
X116872768Y-94816279D01*
X116905035Y-94781420D01*
X116955209Y-94732062D01*
X116994193Y-94705547D01*
X117036064Y-94694911D01*
X117083460Y-94693154D01*
X117187333Y-94708528D01*
G36*
X117870807Y-94711782D02*
X117894161Y-94721988D01*
X117949902Y-94766134D01*
X117997569Y-94829967D01*
X118027048Y-94898087D01*
X118031846Y-94931670D01*
X118015760Y-94978556D01*
X117980475Y-95003365D01*
X117942644Y-95018387D01*
X117925321Y-95021155D01*
X117916886Y-95001066D01*
X117900230Y-94957351D01*
X117892923Y-94937598D01*
X117851948Y-94869271D01*
X117792622Y-94835191D01*
X117716552Y-94836239D01*
X117710918Y-94837581D01*
X117670305Y-94856836D01*
X117640448Y-94894375D01*
X117620055Y-94954809D01*
X117607836Y-95042751D01*
X117602500Y-95162813D01*
X117602000Y-95226698D01*
X117601752Y-95327403D01*
X117600126Y-95396054D01*
X117595801Y-95439673D01*
X117587454Y-95465282D01*
X117573765Y-95479903D01*
X117553411Y-95490558D01*
X117552234Y-95491095D01*
X117513038Y-95507667D01*
X117493619Y-95513769D01*
X117490635Y-95495319D01*
X117488081Y-95444323D01*
X117486140Y-95367308D01*
X117484997Y-95270805D01*
X117484769Y-95200184D01*
X117485932Y-95063525D01*
X117490479Y-94959851D01*
X117499999Y-94883108D01*
X117516081Y-94827246D01*
X117540313Y-94786212D01*
X117574286Y-94753954D01*
X117607833Y-94731440D01*
X117688499Y-94701476D01*
X117782381Y-94694718D01*
X117870807Y-94711782D01*
X117870807Y-94711782D01*
G37*
X117870807Y-94711782D02*
X117894161Y-94721988D01*
X117949902Y-94766134D01*
X117997569Y-94829967D01*
X118027048Y-94898087D01*
X118031846Y-94931670D01*
X118015760Y-94978556D01*
X117980475Y-95003365D01*
X117942644Y-95018387D01*
X117925321Y-95021155D01*
X117916886Y-95001066D01*
X117900230Y-94957351D01*
X117892923Y-94937598D01*
X117851948Y-94869271D01*
X117792622Y-94835191D01*
X117716552Y-94836239D01*
X117710918Y-94837581D01*
X117670305Y-94856836D01*
X117640448Y-94894375D01*
X117620055Y-94954809D01*
X117607836Y-95042751D01*
X117602500Y-95162813D01*
X117602000Y-95226698D01*
X117601752Y-95327403D01*
X117600126Y-95396054D01*
X117595801Y-95439673D01*
X117587454Y-95465282D01*
X117573765Y-95479903D01*
X117553411Y-95490558D01*
X117552234Y-95491095D01*
X117513038Y-95507667D01*
X117493619Y-95513769D01*
X117490635Y-95495319D01*
X117488081Y-95444323D01*
X117486140Y-95367308D01*
X117484997Y-95270805D01*
X117484769Y-95200184D01*
X117485932Y-95063525D01*
X117490479Y-94959851D01*
X117499999Y-94883108D01*
X117516081Y-94827246D01*
X117540313Y-94786212D01*
X117574286Y-94753954D01*
X117607833Y-94731440D01*
X117688499Y-94701476D01*
X117782381Y-94694718D01*
X117870807Y-94711782D01*
G36*
X118545224Y-94722838D02*
X118622528Y-94773361D01*
X118659814Y-94818590D01*
X118689353Y-94900663D01*
X118691699Y-94965607D01*
X118686385Y-95052445D01*
X118486115Y-95140103D01*
X118388739Y-95184887D01*
X118325113Y-95220913D01*
X118292029Y-95252117D01*
X118286280Y-95282436D01*
X118304658Y-95315805D01*
X118324923Y-95337923D01*
X118383889Y-95373393D01*
X118448024Y-95375879D01*
X118506926Y-95348235D01*
X118550197Y-95293320D01*
X118557936Y-95273928D01*
X118595006Y-95213364D01*
X118637654Y-95187552D01*
X118696154Y-95165471D01*
X118696154Y-95249184D01*
X118690982Y-95306150D01*
X118670723Y-95354189D01*
X118628262Y-95409346D01*
X118621951Y-95416514D01*
X118574720Y-95465585D01*
X118534121Y-95491920D01*
X118483328Y-95504035D01*
X118441220Y-95508003D01*
X118365902Y-95508991D01*
X118312286Y-95496466D01*
X118278838Y-95477869D01*
X118226268Y-95436975D01*
X118189879Y-95392748D01*
X118166850Y-95337126D01*
X118154359Y-95262047D01*
X118149587Y-95159449D01*
X118149206Y-95107376D01*
X118150501Y-95044948D01*
X118268471Y-95044948D01*
X118269839Y-95078438D01*
X118273249Y-95083923D01*
X118295753Y-95076472D01*
X118344182Y-95056753D01*
X118408908Y-95028718D01*
X118422443Y-95022692D01*
X118504244Y-94981096D01*
X118549312Y-94944538D01*
X118559217Y-94910296D01*
X118535526Y-94875648D01*
X118515960Y-94860339D01*
X118445360Y-94829721D01*
X118379280Y-94834780D01*
X118323959Y-94872151D01*
X118285636Y-94938473D01*
X118273349Y-94991116D01*
X118268471Y-95044948D01*
X118150501Y-95044948D01*
X118151730Y-94985720D01*
X118161032Y-94895710D01*
X118179460Y-94830167D01*
X118209360Y-94781912D01*
X118253080Y-94743767D01*
X118272141Y-94731440D01*
X118358726Y-94699336D01*
X118453522Y-94697316D01*
X118545224Y-94722838D01*
X118545224Y-94722838D01*
G37*
X118545224Y-94722838D02*
X118622528Y-94773361D01*
X118659814Y-94818590D01*
X118689353Y-94900663D01*
X118691699Y-94965607D01*
X118686385Y-95052445D01*
X118486115Y-95140103D01*
X118388739Y-95184887D01*
X118325113Y-95220913D01*
X118292029Y-95252117D01*
X118286280Y-95282436D01*
X118304658Y-95315805D01*
X118324923Y-95337923D01*
X118383889Y-95373393D01*
X118448024Y-95375879D01*
X118506926Y-95348235D01*
X118550197Y-95293320D01*
X118557936Y-95273928D01*
X118595006Y-95213364D01*
X118637654Y-95187552D01*
X118696154Y-95165471D01*
X118696154Y-95249184D01*
X118690982Y-95306150D01*
X118670723Y-95354189D01*
X118628262Y-95409346D01*
X118621951Y-95416514D01*
X118574720Y-95465585D01*
X118534121Y-95491920D01*
X118483328Y-95504035D01*
X118441220Y-95508003D01*
X118365902Y-95508991D01*
X118312286Y-95496466D01*
X118278838Y-95477869D01*
X118226268Y-95436975D01*
X118189879Y-95392748D01*
X118166850Y-95337126D01*
X118154359Y-95262047D01*
X118149587Y-95159449D01*
X118149206Y-95107376D01*
X118150501Y-95044948D01*
X118268471Y-95044948D01*
X118269839Y-95078438D01*
X118273249Y-95083923D01*
X118295753Y-95076472D01*
X118344182Y-95056753D01*
X118408908Y-95028718D01*
X118422443Y-95022692D01*
X118504244Y-94981096D01*
X118549312Y-94944538D01*
X118559217Y-94910296D01*
X118535526Y-94875648D01*
X118515960Y-94860339D01*
X118445360Y-94829721D01*
X118379280Y-94834780D01*
X118323959Y-94872151D01*
X118285636Y-94938473D01*
X118273349Y-94991116D01*
X118268471Y-95044948D01*
X118150501Y-95044948D01*
X118151730Y-94985720D01*
X118161032Y-94895710D01*
X118179460Y-94830167D01*
X118209360Y-94781912D01*
X118253080Y-94743767D01*
X118272141Y-94731440D01*
X118358726Y-94699336D01*
X118453522Y-94697316D01*
X118545224Y-94722838D01*
G36*
X114439878Y-88362776D02*
X114545612Y-88363355D01*
X114622132Y-88364922D01*
X114674372Y-88367972D01*
X114707263Y-88372996D01*
X114725737Y-88380489D01*
X114734727Y-88390944D01*
X114739163Y-88404853D01*
X114739594Y-88406654D01*
X114746333Y-88439145D01*
X114758808Y-88503252D01*
X114775719Y-88592151D01*
X114795771Y-88699019D01*
X114817664Y-88817033D01*
X114818429Y-88821178D01*
X114840359Y-88936831D01*
X114860877Y-89039014D01*
X114878659Y-89121598D01*
X114892381Y-89178456D01*
X114900718Y-89203458D01*
X114901116Y-89203901D01*
X114925677Y-89216110D01*
X114976315Y-89236456D01*
X115042095Y-89260545D01*
X115042461Y-89260674D01*
X115125317Y-89291818D01*
X115223000Y-89331491D01*
X115315077Y-89371381D01*
X115319434Y-89373353D01*
X115469407Y-89441420D01*
X115801498Y-89214639D01*
X115903374Y-89145504D01*
X115995657Y-89083697D01*
X116073003Y-89032733D01*
X116130064Y-88996127D01*
X116161495Y-88977394D01*
X116164479Y-88976004D01*
X116187321Y-88982190D01*
X116229982Y-89012035D01*
X116294128Y-89066947D01*
X116381421Y-89148334D01*
X116470535Y-89234922D01*
X116556441Y-89320247D01*
X116633327Y-89398108D01*
X116696564Y-89463697D01*
X116741523Y-89512205D01*
X116763576Y-89538825D01*
X116764396Y-89540195D01*
X116766834Y-89558463D01*
X116757650Y-89588295D01*
X116734574Y-89633721D01*
X116695337Y-89698770D01*
X116637670Y-89787470D01*
X116560795Y-89901657D01*
X116492570Y-90002162D01*
X116431582Y-90092303D01*
X116381356Y-90166849D01*
X116345416Y-90220565D01*
X116327287Y-90248218D01*
X116326146Y-90250095D01*
X116328359Y-90276590D01*
X116345138Y-90328086D01*
X116373142Y-90394851D01*
X116383122Y-90416172D01*
X116426672Y-90511159D01*
X116473134Y-90618937D01*
X116510877Y-90712192D01*
X116538073Y-90781406D01*
X116559675Y-90834006D01*
X116572158Y-90861497D01*
X116573709Y-90863616D01*
X116596668Y-90867124D01*
X116650786Y-90876738D01*
X116728868Y-90891089D01*
X116823719Y-90908807D01*
X116928143Y-90928525D01*
X117034944Y-90948874D01*
X117136926Y-90968486D01*
X117226894Y-90985991D01*
X117297653Y-91000022D01*
X117342006Y-91009209D01*
X117352885Y-91011807D01*
X117364122Y-91018218D01*
X117372605Y-91032697D01*
X117378714Y-91060133D01*
X117382832Y-91105411D01*
X117385341Y-91173420D01*
X117386621Y-91269047D01*
X117387054Y-91397180D01*
X117387077Y-91449701D01*
X117387077Y-91876845D01*
X117284500Y-91897091D01*
X117227431Y-91908070D01*
X117142269Y-91924095D01*
X117039372Y-91943233D01*
X116929096Y-91963551D01*
X116898615Y-91969132D01*
X116796855Y-91988917D01*
X116708205Y-92008373D01*
X116640108Y-92025697D01*
X116600004Y-92039088D01*
X116593323Y-92043079D01*
X116576919Y-92071342D01*
X116553399Y-92126109D01*
X116527316Y-92196588D01*
X116522142Y-92211769D01*
X116487956Y-92305896D01*
X116445523Y-92412101D01*
X116403997Y-92507473D01*
X116403792Y-92507916D01*
X116334640Y-92657525D01*
X116789512Y-93326617D01*
X116497500Y-93619116D01*
X116409180Y-93706170D01*
X116328625Y-93782909D01*
X116260360Y-93845237D01*
X116208908Y-93889056D01*
X116178794Y-93910270D01*
X116174474Y-93911616D01*
X116149111Y-93901016D01*
X116097358Y-93871547D01*
X116024868Y-93826705D01*
X115937294Y-93769984D01*
X115842612Y-93706462D01*
X115746516Y-93641668D01*
X115660837Y-93585287D01*
X115591016Y-93540788D01*
X115542494Y-93511639D01*
X115520782Y-93501308D01*
X115494293Y-93510050D01*
X115444062Y-93533087D01*
X115380451Y-93565631D01*
X115373708Y-93569249D01*
X115288046Y-93612210D01*
X115229306Y-93633279D01*
X115192772Y-93633503D01*
X115173731Y-93613928D01*
X115173620Y-93613654D01*
X115164102Y-93590472D01*
X115141403Y-93535441D01*
X115107282Y-93452822D01*
X115063500Y-93346872D01*
X115011816Y-93221852D01*
X114953992Y-93082020D01*
X114897991Y-92946637D01*
X114836447Y-92797234D01*
X114779939Y-92658832D01*
X114730161Y-92535673D01*
X114688806Y-92432002D01*
X114657568Y-92352059D01*
X114638141Y-92300088D01*
X114632154Y-92280692D01*
X114647168Y-92258443D01*
X114686439Y-92222982D01*
X114738807Y-92183887D01*
X114887941Y-92060245D01*
X115004511Y-91918522D01*
X115087118Y-91761704D01*
X115134366Y-91592775D01*
X115144857Y-91414722D01*
X115137231Y-91332539D01*
X115095682Y-91162031D01*
X115024123Y-91011459D01*
X114926995Y-90882309D01*
X114808734Y-90776064D01*
X114673780Y-90694210D01*
X114526571Y-90638232D01*
X114371544Y-90609615D01*
X114213139Y-90609844D01*
X114055794Y-90640405D01*
X113903946Y-90702782D01*
X113762035Y-90798460D01*
X113702803Y-90852572D01*
X113589203Y-90991520D01*
X113510106Y-91143361D01*
X113464986Y-91303667D01*
X113453316Y-91468012D01*
X113474569Y-91631971D01*
X113528220Y-91791118D01*
X113613740Y-91941025D01*
X113730605Y-92077267D01*
X113861193Y-92183887D01*
X113915588Y-92224642D01*
X113954014Y-92259718D01*
X113967846Y-92280726D01*
X113960603Y-92303635D01*
X113940005Y-92358365D01*
X113907746Y-92440672D01*
X113865521Y-92546315D01*
X113815023Y-92671050D01*
X113757948Y-92810636D01*
X113701854Y-92946670D01*
X113639967Y-93096201D01*
X113582644Y-93234767D01*
X113531644Y-93358107D01*
X113488727Y-93461964D01*
X113455653Y-93542080D01*
X113434181Y-93594195D01*
X113426225Y-93613654D01*
X113407429Y-93633423D01*
X113371074Y-93633365D01*
X113312479Y-93612441D01*
X113226968Y-93569613D01*
X113226292Y-93569249D01*
X113161907Y-93536012D01*
X113109861Y-93511802D01*
X113080512Y-93501404D01*
X113079217Y-93501308D01*
X113057124Y-93511855D01*
X113008348Y-93541184D01*
X112938331Y-93585827D01*
X112852514Y-93642314D01*
X112757388Y-93706462D01*
X112660540Y-93771411D01*
X112573253Y-93827896D01*
X112501181Y-93872421D01*
X112449977Y-93901490D01*
X112425526Y-93911616D01*
X112403010Y-93898307D01*
X112357742Y-93861112D01*
X112294244Y-93804128D01*
X112217039Y-93731449D01*
X112130651Y-93647171D01*
X112102399Y-93619016D01*
X111810287Y-93326416D01*
X112032631Y-93000104D01*
X112100202Y-92899897D01*
X112159507Y-92809963D01*
X112207217Y-92735510D01*
X112240007Y-92681751D01*
X112254548Y-92653894D01*
X112254974Y-92651912D01*
X112247308Y-92625655D01*
X112226689Y-92572837D01*
X112196685Y-92502310D01*
X112175625Y-92455093D01*
X112136248Y-92364694D01*
X112099165Y-92273366D01*
X112070415Y-92196200D01*
X112062605Y-92172692D01*
X112040417Y-92109916D01*
X112018727Y-92061411D01*
X112006813Y-92043079D01*
X111980523Y-92031859D01*
X111923142Y-92015954D01*
X111842118Y-91997167D01*
X111744895Y-91977299D01*
X111701385Y-91969132D01*
X111590896Y-91948829D01*
X111484916Y-91929170D01*
X111393801Y-91912088D01*
X111327908Y-91899518D01*
X111315500Y-91897091D01*
X111212923Y-91876845D01*
X111212923Y-91449701D01*
X111213153Y-91309246D01*
X111214099Y-91202979D01*
X111216141Y-91126013D01*
X111219662Y-91073460D01*
X111225043Y-91040433D01*
X111232666Y-91022045D01*
X111242912Y-91013408D01*
X111247115Y-91011807D01*
X111272470Y-91006127D01*
X111328484Y-90994795D01*
X111407964Y-90979179D01*
X111503712Y-90960647D01*
X111608533Y-90940569D01*
X111715232Y-90920312D01*
X111816613Y-90901246D01*
X111905479Y-90884739D01*
X111974637Y-90872159D01*
X112016889Y-90864875D01*
X112026290Y-90863616D01*
X112034807Y-90846763D01*
X112053660Y-90801870D01*
X112079324Y-90737430D01*
X112089123Y-90712192D01*
X112128648Y-90614686D01*
X112175192Y-90506959D01*
X112216877Y-90416172D01*
X112247550Y-90346753D01*
X112267956Y-90289710D01*
X112274768Y-90254777D01*
X112273682Y-90250095D01*
X112259285Y-90227991D01*
X112226412Y-90178831D01*
X112178590Y-90107848D01*
X112119348Y-90020278D01*
X112052215Y-89921357D01*
X112038941Y-89901830D01*
X111961046Y-89786140D01*
X111903787Y-89698044D01*
X111864881Y-89633486D01*
X111842044Y-89588411D01*
X111832994Y-89558763D01*
X111835448Y-89540485D01*
X111835511Y-89540369D01*
X111854827Y-89516361D01*
X111897551Y-89469947D01*
X111959051Y-89405937D01*
X112034698Y-89329145D01*
X112119861Y-89244382D01*
X112129465Y-89234922D01*
X112236790Y-89130989D01*
X112319615Y-89054675D01*
X112379605Y-89004571D01*
X112418423Y-88979270D01*
X112435520Y-88976004D01*
X112460473Y-88990250D01*
X112512255Y-89023156D01*
X112585520Y-89071208D01*
X112674920Y-89130890D01*
X112775111Y-89198688D01*
X112798501Y-89214639D01*
X113130593Y-89441420D01*
X113280565Y-89373353D01*
X113371770Y-89333685D01*
X113469669Y-89293791D01*
X113553831Y-89261983D01*
X113557538Y-89260674D01*
X113623369Y-89236576D01*
X113674116Y-89216200D01*
X113698842Y-89203936D01*
X113698884Y-89203901D01*
X113706729Y-89181734D01*
X113720066Y-89127217D01*
X113737570Y-89046480D01*
X113757917Y-88945650D01*
X113779782Y-88830856D01*
X113781571Y-88821178D01*
X113803504Y-88702904D01*
X113823640Y-88595542D01*
X113840680Y-88505917D01*
X113853328Y-88440851D01*
X113860284Y-88407168D01*
X113860406Y-88406654D01*
X113864639Y-88392325D01*
X113872871Y-88381507D01*
X113890033Y-88373706D01*
X113921058Y-88368429D01*
X113970878Y-88365182D01*
X114044424Y-88363472D01*
X114146629Y-88362807D01*
X114282425Y-88362693D01*
X114300000Y-88362692D01*
X114439878Y-88362776D01*
X114439878Y-88362776D01*
G37*
X114439878Y-88362776D02*
X114545612Y-88363355D01*
X114622132Y-88364922D01*
X114674372Y-88367972D01*
X114707263Y-88372996D01*
X114725737Y-88380489D01*
X114734727Y-88390944D01*
X114739163Y-88404853D01*
X114739594Y-88406654D01*
X114746333Y-88439145D01*
X114758808Y-88503252D01*
X114775719Y-88592151D01*
X114795771Y-88699019D01*
X114817664Y-88817033D01*
X114818429Y-88821178D01*
X114840359Y-88936831D01*
X114860877Y-89039014D01*
X114878659Y-89121598D01*
X114892381Y-89178456D01*
X114900718Y-89203458D01*
X114901116Y-89203901D01*
X114925677Y-89216110D01*
X114976315Y-89236456D01*
X115042095Y-89260545D01*
X115042461Y-89260674D01*
X115125317Y-89291818D01*
X115223000Y-89331491D01*
X115315077Y-89371381D01*
X115319434Y-89373353D01*
X115469407Y-89441420D01*
X115801498Y-89214639D01*
X115903374Y-89145504D01*
X115995657Y-89083697D01*
X116073003Y-89032733D01*
X116130064Y-88996127D01*
X116161495Y-88977394D01*
X116164479Y-88976004D01*
X116187321Y-88982190D01*
X116229982Y-89012035D01*
X116294128Y-89066947D01*
X116381421Y-89148334D01*
X116470535Y-89234922D01*
X116556441Y-89320247D01*
X116633327Y-89398108D01*
X116696564Y-89463697D01*
X116741523Y-89512205D01*
X116763576Y-89538825D01*
X116764396Y-89540195D01*
X116766834Y-89558463D01*
X116757650Y-89588295D01*
X116734574Y-89633721D01*
X116695337Y-89698770D01*
X116637670Y-89787470D01*
X116560795Y-89901657D01*
X116492570Y-90002162D01*
X116431582Y-90092303D01*
X116381356Y-90166849D01*
X116345416Y-90220565D01*
X116327287Y-90248218D01*
X116326146Y-90250095D01*
X116328359Y-90276590D01*
X116345138Y-90328086D01*
X116373142Y-90394851D01*
X116383122Y-90416172D01*
X116426672Y-90511159D01*
X116473134Y-90618937D01*
X116510877Y-90712192D01*
X116538073Y-90781406D01*
X116559675Y-90834006D01*
X116572158Y-90861497D01*
X116573709Y-90863616D01*
X116596668Y-90867124D01*
X116650786Y-90876738D01*
X116728868Y-90891089D01*
X116823719Y-90908807D01*
X116928143Y-90928525D01*
X117034944Y-90948874D01*
X117136926Y-90968486D01*
X117226894Y-90985991D01*
X117297653Y-91000022D01*
X117342006Y-91009209D01*
X117352885Y-91011807D01*
X117364122Y-91018218D01*
X117372605Y-91032697D01*
X117378714Y-91060133D01*
X117382832Y-91105411D01*
X117385341Y-91173420D01*
X117386621Y-91269047D01*
X117387054Y-91397180D01*
X117387077Y-91449701D01*
X117387077Y-91876845D01*
X117284500Y-91897091D01*
X117227431Y-91908070D01*
X117142269Y-91924095D01*
X117039372Y-91943233D01*
X116929096Y-91963551D01*
X116898615Y-91969132D01*
X116796855Y-91988917D01*
X116708205Y-92008373D01*
X116640108Y-92025697D01*
X116600004Y-92039088D01*
X116593323Y-92043079D01*
X116576919Y-92071342D01*
X116553399Y-92126109D01*
X116527316Y-92196588D01*
X116522142Y-92211769D01*
X116487956Y-92305896D01*
X116445523Y-92412101D01*
X116403997Y-92507473D01*
X116403792Y-92507916D01*
X116334640Y-92657525D01*
X116789512Y-93326617D01*
X116497500Y-93619116D01*
X116409180Y-93706170D01*
X116328625Y-93782909D01*
X116260360Y-93845237D01*
X116208908Y-93889056D01*
X116178794Y-93910270D01*
X116174474Y-93911616D01*
X116149111Y-93901016D01*
X116097358Y-93871547D01*
X116024868Y-93826705D01*
X115937294Y-93769984D01*
X115842612Y-93706462D01*
X115746516Y-93641668D01*
X115660837Y-93585287D01*
X115591016Y-93540788D01*
X115542494Y-93511639D01*
X115520782Y-93501308D01*
X115494293Y-93510050D01*
X115444062Y-93533087D01*
X115380451Y-93565631D01*
X115373708Y-93569249D01*
X115288046Y-93612210D01*
X115229306Y-93633279D01*
X115192772Y-93633503D01*
X115173731Y-93613928D01*
X115173620Y-93613654D01*
X115164102Y-93590472D01*
X115141403Y-93535441D01*
X115107282Y-93452822D01*
X115063500Y-93346872D01*
X115011816Y-93221852D01*
X114953992Y-93082020D01*
X114897991Y-92946637D01*
X114836447Y-92797234D01*
X114779939Y-92658832D01*
X114730161Y-92535673D01*
X114688806Y-92432002D01*
X114657568Y-92352059D01*
X114638141Y-92300088D01*
X114632154Y-92280692D01*
X114647168Y-92258443D01*
X114686439Y-92222982D01*
X114738807Y-92183887D01*
X114887941Y-92060245D01*
X115004511Y-91918522D01*
X115087118Y-91761704D01*
X115134366Y-91592775D01*
X115144857Y-91414722D01*
X115137231Y-91332539D01*
X115095682Y-91162031D01*
X115024123Y-91011459D01*
X114926995Y-90882309D01*
X114808734Y-90776064D01*
X114673780Y-90694210D01*
X114526571Y-90638232D01*
X114371544Y-90609615D01*
X114213139Y-90609844D01*
X114055794Y-90640405D01*
X113903946Y-90702782D01*
X113762035Y-90798460D01*
X113702803Y-90852572D01*
X113589203Y-90991520D01*
X113510106Y-91143361D01*
X113464986Y-91303667D01*
X113453316Y-91468012D01*
X113474569Y-91631971D01*
X113528220Y-91791118D01*
X113613740Y-91941025D01*
X113730605Y-92077267D01*
X113861193Y-92183887D01*
X113915588Y-92224642D01*
X113954014Y-92259718D01*
X113967846Y-92280726D01*
X113960603Y-92303635D01*
X113940005Y-92358365D01*
X113907746Y-92440672D01*
X113865521Y-92546315D01*
X113815023Y-92671050D01*
X113757948Y-92810636D01*
X113701854Y-92946670D01*
X113639967Y-93096201D01*
X113582644Y-93234767D01*
X113531644Y-93358107D01*
X113488727Y-93461964D01*
X113455653Y-93542080D01*
X113434181Y-93594195D01*
X113426225Y-93613654D01*
X113407429Y-93633423D01*
X113371074Y-93633365D01*
X113312479Y-93612441D01*
X113226968Y-93569613D01*
X113226292Y-93569249D01*
X113161907Y-93536012D01*
X113109861Y-93511802D01*
X113080512Y-93501404D01*
X113079217Y-93501308D01*
X113057124Y-93511855D01*
X113008348Y-93541184D01*
X112938331Y-93585827D01*
X112852514Y-93642314D01*
X112757388Y-93706462D01*
X112660540Y-93771411D01*
X112573253Y-93827896D01*
X112501181Y-93872421D01*
X112449977Y-93901490D01*
X112425526Y-93911616D01*
X112403010Y-93898307D01*
X112357742Y-93861112D01*
X112294244Y-93804128D01*
X112217039Y-93731449D01*
X112130651Y-93647171D01*
X112102399Y-93619016D01*
X111810287Y-93326416D01*
X112032631Y-93000104D01*
X112100202Y-92899897D01*
X112159507Y-92809963D01*
X112207217Y-92735510D01*
X112240007Y-92681751D01*
X112254548Y-92653894D01*
X112254974Y-92651912D01*
X112247308Y-92625655D01*
X112226689Y-92572837D01*
X112196685Y-92502310D01*
X112175625Y-92455093D01*
X112136248Y-92364694D01*
X112099165Y-92273366D01*
X112070415Y-92196200D01*
X112062605Y-92172692D01*
X112040417Y-92109916D01*
X112018727Y-92061411D01*
X112006813Y-92043079D01*
X111980523Y-92031859D01*
X111923142Y-92015954D01*
X111842118Y-91997167D01*
X111744895Y-91977299D01*
X111701385Y-91969132D01*
X111590896Y-91948829D01*
X111484916Y-91929170D01*
X111393801Y-91912088D01*
X111327908Y-91899518D01*
X111315500Y-91897091D01*
X111212923Y-91876845D01*
X111212923Y-91449701D01*
X111213153Y-91309246D01*
X111214099Y-91202979D01*
X111216141Y-91126013D01*
X111219662Y-91073460D01*
X111225043Y-91040433D01*
X111232666Y-91022045D01*
X111242912Y-91013408D01*
X111247115Y-91011807D01*
X111272470Y-91006127D01*
X111328484Y-90994795D01*
X111407964Y-90979179D01*
X111503712Y-90960647D01*
X111608533Y-90940569D01*
X111715232Y-90920312D01*
X111816613Y-90901246D01*
X111905479Y-90884739D01*
X111974637Y-90872159D01*
X112016889Y-90864875D01*
X112026290Y-90863616D01*
X112034807Y-90846763D01*
X112053660Y-90801870D01*
X112079324Y-90737430D01*
X112089123Y-90712192D01*
X112128648Y-90614686D01*
X112175192Y-90506959D01*
X112216877Y-90416172D01*
X112247550Y-90346753D01*
X112267956Y-90289710D01*
X112274768Y-90254777D01*
X112273682Y-90250095D01*
X112259285Y-90227991D01*
X112226412Y-90178831D01*
X112178590Y-90107848D01*
X112119348Y-90020278D01*
X112052215Y-89921357D01*
X112038941Y-89901830D01*
X111961046Y-89786140D01*
X111903787Y-89698044D01*
X111864881Y-89633486D01*
X111842044Y-89588411D01*
X111832994Y-89558763D01*
X111835448Y-89540485D01*
X111835511Y-89540369D01*
X111854827Y-89516361D01*
X111897551Y-89469947D01*
X111959051Y-89405937D01*
X112034698Y-89329145D01*
X112119861Y-89244382D01*
X112129465Y-89234922D01*
X112236790Y-89130989D01*
X112319615Y-89054675D01*
X112379605Y-89004571D01*
X112418423Y-88979270D01*
X112435520Y-88976004D01*
X112460473Y-88990250D01*
X112512255Y-89023156D01*
X112585520Y-89071208D01*
X112674920Y-89130890D01*
X112775111Y-89198688D01*
X112798501Y-89214639D01*
X113130593Y-89441420D01*
X113280565Y-89373353D01*
X113371770Y-89333685D01*
X113469669Y-89293791D01*
X113553831Y-89261983D01*
X113557538Y-89260674D01*
X113623369Y-89236576D01*
X113674116Y-89216200D01*
X113698842Y-89203936D01*
X113698884Y-89203901D01*
X113706729Y-89181734D01*
X113720066Y-89127217D01*
X113737570Y-89046480D01*
X113757917Y-88945650D01*
X113779782Y-88830856D01*
X113781571Y-88821178D01*
X113803504Y-88702904D01*
X113823640Y-88595542D01*
X113840680Y-88505917D01*
X113853328Y-88440851D01*
X113860284Y-88407168D01*
X113860406Y-88406654D01*
X113864639Y-88392325D01*
X113872871Y-88381507D01*
X113890033Y-88373706D01*
X113921058Y-88368429D01*
X113970878Y-88365182D01*
X114044424Y-88363472D01*
X114146629Y-88362807D01*
X114282425Y-88362693D01*
X114300000Y-88362692D01*
X114439878Y-88362776D01*
D15*
X118562381Y-85828095D02*
X117562381Y-85828095D01*
X117562381Y-85590000D01*
X117610000Y-85447142D01*
X117705238Y-85351904D01*
X117800476Y-85304285D01*
X117990952Y-85256666D01*
X118133810Y-85256666D01*
X118324286Y-85304285D01*
X118419524Y-85351904D01*
X118514762Y-85447142D01*
X118562381Y-85590000D01*
X118562381Y-85828095D01*
X118562381Y-84304285D02*
X118562381Y-84875714D01*
X118562381Y-84590000D02*
X117562381Y-84590000D01*
X117705238Y-84685238D01*
X117800476Y-84780476D01*
X117848095Y-84875714D01*
X114871667Y-81097381D02*
X114871667Y-80097381D01*
X115252620Y-80097381D01*
X115347858Y-80145000D01*
X115395477Y-80192619D01*
X115443096Y-80287857D01*
X115443096Y-80430714D01*
X115395477Y-80525952D01*
X115347858Y-80573571D01*
X115252620Y-80621190D01*
X114871667Y-80621190D01*
X115776429Y-80097381D02*
X116014524Y-81097381D01*
X116205001Y-80383095D01*
X116395477Y-81097381D01*
X116633572Y-80097381D01*
X117585953Y-81097381D02*
X117252619Y-80621190D01*
X117014524Y-81097381D02*
X117014524Y-80097381D01*
X117395477Y-80097381D01*
X117490715Y-80145000D01*
X117538334Y-80192619D01*
X117585953Y-80287857D01*
X117585953Y-80430714D01*
X117538334Y-80525952D01*
X117490715Y-80573571D01*
X117395477Y-80621190D01*
X117014524Y-80621190D01*
X116292381Y-70183333D02*
X117006667Y-70183333D01*
X117149524Y-70230953D01*
X117244762Y-70326191D01*
X117292381Y-70469048D01*
X117292381Y-70564286D01*
X117292381Y-69183333D02*
X117292381Y-69754762D01*
X117292381Y-69469048D02*
X116292381Y-69469048D01*
X116435238Y-69564286D01*
X116530476Y-69659524D01*
X116578095Y-69754762D01*
X118570477Y-68397381D02*
X117999048Y-68397381D01*
X118284762Y-68397381D02*
X118284762Y-67397381D01*
X118189524Y-67540238D01*
X118094286Y-67635476D01*
X117999048Y-67683095D01*
X118999048Y-68016429D02*
X119760953Y-68016429D01*
X120760953Y-68397381D02*
X120189524Y-68397381D01*
X120475238Y-68397381D02*
X120475238Y-67397381D01*
X120380000Y-67540238D01*
X120284762Y-67635476D01*
X120189524Y-67683095D01*
X127722381Y-77803333D02*
X128436667Y-77803333D01*
X128579524Y-77850953D01*
X128674762Y-77946191D01*
X128722381Y-78089048D01*
X128722381Y-78184286D01*
X127722381Y-77422381D02*
X127722381Y-76755714D01*
X128722381Y-77184286D01*
X129103571Y-67873571D02*
X129436905Y-67873571D01*
X129579762Y-68397381D02*
X129103571Y-68397381D01*
X129103571Y-67397381D01*
X129579762Y-67397381D01*
X129913095Y-67397381D02*
X130579762Y-68397381D01*
X130579762Y-67397381D02*
X129913095Y-68397381D01*
X130817857Y-67397381D02*
X131389286Y-67397381D01*
X131103571Y-68397381D02*
X131103571Y-67397381D01*
X113966667Y-68242381D02*
X113966667Y-68956667D01*
X113919047Y-69099524D01*
X113823809Y-69194762D01*
X113680952Y-69242381D01*
X113585714Y-69242381D01*
X114395238Y-68337619D02*
X114442857Y-68290000D01*
X114538095Y-68242381D01*
X114776191Y-68242381D01*
X114871429Y-68290000D01*
X114919048Y-68337619D01*
X114966667Y-68432857D01*
X114966667Y-68528095D01*
X114919048Y-68670952D01*
X114347619Y-69242381D01*
X114966667Y-69242381D01*
X143176667Y-79672381D02*
X143176667Y-80386667D01*
X143129047Y-80529524D01*
X143033809Y-80624762D01*
X142890952Y-80672381D01*
X142795714Y-80672381D01*
X143557619Y-79672381D02*
X144176667Y-79672381D01*
X143843333Y-80053333D01*
X143986191Y-80053333D01*
X144081429Y-80100952D01*
X144129048Y-80148571D01*
X144176667Y-80243810D01*
X144176667Y-80481905D01*
X144129048Y-80577143D01*
X144081429Y-80624762D01*
X143986191Y-80672381D01*
X143700476Y-80672381D01*
X143605238Y-80624762D01*
X143557619Y-80577143D01*
X128357381Y-73993333D02*
X129071667Y-73993333D01*
X129214524Y-74040953D01*
X129309762Y-74136191D01*
X129357381Y-74279048D01*
X129357381Y-74374286D01*
X128785952Y-73374286D02*
X128738333Y-73469524D01*
X128690714Y-73517143D01*
X128595476Y-73564762D01*
X128547857Y-73564762D01*
X128452619Y-73517143D01*
X128405000Y-73469524D01*
X128357381Y-73374286D01*
X128357381Y-73183809D01*
X128405000Y-73088571D01*
X128452619Y-73040952D01*
X128547857Y-72993333D01*
X128595476Y-72993333D01*
X128690714Y-73040952D01*
X128738333Y-73088571D01*
X128785952Y-73183809D01*
X128785952Y-73374286D01*
X128833571Y-73469524D01*
X128881190Y-73517143D01*
X128976429Y-73564762D01*
X129166905Y-73564762D01*
X129262143Y-73517143D01*
X129309762Y-73469524D01*
X129357381Y-73374286D01*
X129357381Y-73183809D01*
X129309762Y-73088571D01*
X129262143Y-73040952D01*
X129166905Y-72993333D01*
X128976429Y-72993333D01*
X128881190Y-73040952D01*
X128833571Y-73088571D01*
X128785952Y-73183809D01*
X124285477Y-68397381D02*
X123714048Y-68397381D01*
X123999762Y-68397381D02*
X123999762Y-67397381D01*
X123904524Y-67540238D01*
X123809286Y-67635476D01*
X123714048Y-67683095D01*
X124714048Y-68016429D02*
X125475953Y-68016429D01*
X125904524Y-67492619D02*
X125952143Y-67445000D01*
X126047381Y-67397381D01*
X126285477Y-67397381D01*
X126380715Y-67445000D01*
X126428334Y-67492619D01*
X126475953Y-67587857D01*
X126475953Y-67683095D01*
X126428334Y-67825952D01*
X125856905Y-68397381D01*
X126475953Y-68397381D01*
X140859048Y-67492619D02*
X140906667Y-67445000D01*
X141001905Y-67397381D01*
X141240001Y-67397381D01*
X141335239Y-67445000D01*
X141382858Y-67492619D01*
X141430477Y-67587857D01*
X141430477Y-67683095D01*
X141382858Y-67825952D01*
X140811429Y-68397381D01*
X141430477Y-68397381D01*
X141859048Y-68016429D02*
X142620953Y-68016429D01*
X143620953Y-68397381D02*
X143049524Y-68397381D01*
X143335238Y-68397381D02*
X143335238Y-67397381D01*
X143240000Y-67540238D01*
X143144762Y-67635476D01*
X143049524Y-67683095D01*
X139787381Y-74469523D02*
X140501667Y-74469523D01*
X140644524Y-74517143D01*
X140739762Y-74612381D01*
X140787381Y-74755238D01*
X140787381Y-74850476D01*
X140787381Y-73469523D02*
X140787381Y-74040952D01*
X140787381Y-73755238D02*
X139787381Y-73755238D01*
X139930238Y-73850476D01*
X140025476Y-73945714D01*
X140073095Y-74040952D01*
X140787381Y-72517142D02*
X140787381Y-73088571D01*
X140787381Y-72802857D02*
X139787381Y-72802857D01*
X139930238Y-72898095D01*
X140025476Y-72993333D01*
X140073095Y-73088571D01*
X135144048Y-67492619D02*
X135191667Y-67445000D01*
X135286905Y-67397381D01*
X135525001Y-67397381D01*
X135620239Y-67445000D01*
X135667858Y-67492619D01*
X135715477Y-67587857D01*
X135715477Y-67683095D01*
X135667858Y-67825952D01*
X135096429Y-68397381D01*
X135715477Y-68397381D01*
X136144048Y-68016429D02*
X136905953Y-68016429D01*
X137334524Y-67492619D02*
X137382143Y-67445000D01*
X137477381Y-67397381D01*
X137715477Y-67397381D01*
X137810715Y-67445000D01*
X137858334Y-67492619D01*
X137905953Y-67587857D01*
X137905953Y-67683095D01*
X137858334Y-67825952D01*
X137286905Y-68397381D01*
X137905953Y-68397381D01*
X110942381Y-82716666D02*
X110466190Y-83050000D01*
X110942381Y-83288095D02*
X109942381Y-83288095D01*
X109942381Y-82907142D01*
X109990000Y-82811904D01*
X110037619Y-82764285D01*
X110132857Y-82716666D01*
X110275714Y-82716666D01*
X110370952Y-82764285D01*
X110418571Y-82811904D01*
X110466190Y-82907142D01*
X110466190Y-83288095D01*
X110942381Y-81764285D02*
X110942381Y-82335714D01*
X110942381Y-82050000D02*
X109942381Y-82050000D01*
X110085238Y-82145238D01*
X110180476Y-82240476D01*
X110228095Y-82335714D01*
X110037619Y-87764762D02*
X109990000Y-87717143D01*
X109942381Y-87621905D01*
X109942381Y-87383809D01*
X109990000Y-87288571D01*
X110037619Y-87240952D01*
X110132857Y-87193333D01*
X110228095Y-87193333D01*
X110370952Y-87240952D01*
X110942381Y-87812381D01*
X110942381Y-87193333D01*
X110847143Y-86764762D02*
X110894762Y-86717143D01*
X110942381Y-86764762D01*
X110894762Y-86812381D01*
X110847143Y-86764762D01*
X110942381Y-86764762D01*
X110275714Y-85860000D02*
X110942381Y-85860000D01*
X109894762Y-86098096D02*
X110609048Y-86336191D01*
X110609048Y-85717143D01*
X110942381Y-85336191D02*
X109942381Y-85336191D01*
X110561429Y-85240953D02*
X110942381Y-84955238D01*
X110275714Y-84955238D02*
X110656667Y-85336191D01*
X135342381Y-85899523D02*
X136056667Y-85899523D01*
X136199524Y-85947143D01*
X136294762Y-86042381D01*
X136342381Y-86185238D01*
X136342381Y-86280476D01*
X136342381Y-84899523D02*
X136342381Y-85470952D01*
X136342381Y-85185238D02*
X135342381Y-85185238D01*
X135485238Y-85280476D01*
X135580476Y-85375714D01*
X135628095Y-85470952D01*
X135437619Y-84518571D02*
X135390000Y-84470952D01*
X135342381Y-84375714D01*
X135342381Y-84137618D01*
X135390000Y-84042380D01*
X135437619Y-83994761D01*
X135532857Y-83947142D01*
X135628095Y-83947142D01*
X135770952Y-83994761D01*
X136342381Y-84566190D01*
X136342381Y-83947142D01*
X131175239Y-90590714D02*
X131175239Y-91257381D01*
X130937143Y-90209762D02*
X130699048Y-90924048D01*
X131318096Y-90924048D01*
X131699048Y-90876429D02*
X132460953Y-90876429D01*
X133460953Y-91257381D02*
X132889524Y-91257381D01*
X133175238Y-91257381D02*
X133175238Y-90257381D01*
X133080000Y-90400238D01*
X132984762Y-90495476D01*
X132889524Y-90543095D01*
X141057381Y-85899523D02*
X141771667Y-85899523D01*
X141914524Y-85947143D01*
X142009762Y-86042381D01*
X142057381Y-86185238D01*
X142057381Y-86280476D01*
X142057381Y-84899523D02*
X142057381Y-85470952D01*
X142057381Y-85185238D02*
X141057381Y-85185238D01*
X141200238Y-85280476D01*
X141295476Y-85375714D01*
X141343095Y-85470952D01*
X141057381Y-84566190D02*
X141057381Y-83947142D01*
X141438333Y-84280476D01*
X141438333Y-84137618D01*
X141485952Y-84042380D01*
X141533571Y-83994761D01*
X141628810Y-83947142D01*
X141866905Y-83947142D01*
X141962143Y-83994761D01*
X142009762Y-84042380D01*
X142057381Y-84137618D01*
X142057381Y-84423333D01*
X142009762Y-84518571D01*
X141962143Y-84566190D01*
X136890239Y-90590714D02*
X136890239Y-91257381D01*
X136652143Y-90209762D02*
X136414048Y-90924048D01*
X137033096Y-90924048D01*
X137414048Y-90876429D02*
X138175953Y-90876429D01*
X138604524Y-90352619D02*
X138652143Y-90305000D01*
X138747381Y-90257381D01*
X138985477Y-90257381D01*
X139080715Y-90305000D01*
X139128334Y-90352619D01*
X139175953Y-90447857D01*
X139175953Y-90543095D01*
X139128334Y-90685952D01*
X138556905Y-91257381D01*
X139175953Y-91257381D01*
X123912381Y-85899523D02*
X124626667Y-85899523D01*
X124769524Y-85947143D01*
X124864762Y-86042381D01*
X124912381Y-86185238D01*
X124912381Y-86280476D01*
X124912381Y-84899523D02*
X124912381Y-85470952D01*
X124912381Y-85185238D02*
X123912381Y-85185238D01*
X124055238Y-85280476D01*
X124150476Y-85375714D01*
X124198095Y-85470952D01*
X124245714Y-84042380D02*
X124912381Y-84042380D01*
X123864762Y-84280476D02*
X124579048Y-84518571D01*
X124579048Y-83899523D01*
X119221429Y-90257381D02*
X119840477Y-90257381D01*
X119507143Y-90638333D01*
X119650001Y-90638333D01*
X119745239Y-90685952D01*
X119792858Y-90733571D01*
X119840477Y-90828810D01*
X119840477Y-91066905D01*
X119792858Y-91162143D01*
X119745239Y-91209762D01*
X119650001Y-91257381D01*
X119364286Y-91257381D01*
X119269048Y-91209762D01*
X119221429Y-91162143D01*
X120269048Y-90876429D02*
X121030953Y-90876429D01*
X122030953Y-91257381D02*
X121459524Y-91257381D01*
X121745238Y-91257381D02*
X121745238Y-90257381D01*
X121650000Y-90400238D01*
X121554762Y-90495476D01*
X121459524Y-90543095D01*
X129627381Y-85899523D02*
X130341667Y-85899523D01*
X130484524Y-85947143D01*
X130579762Y-86042381D01*
X130627381Y-86185238D01*
X130627381Y-86280476D01*
X130627381Y-84899523D02*
X130627381Y-85470952D01*
X130627381Y-85185238D02*
X129627381Y-85185238D01*
X129770238Y-85280476D01*
X129865476Y-85375714D01*
X129913095Y-85470952D01*
X129627381Y-83994761D02*
X129627381Y-84470952D01*
X130103571Y-84518571D01*
X130055952Y-84470952D01*
X130008333Y-84375714D01*
X130008333Y-84137618D01*
X130055952Y-84042380D01*
X130103571Y-83994761D01*
X130198810Y-83947142D01*
X130436905Y-83947142D01*
X130532143Y-83994761D01*
X130579762Y-84042380D01*
X130627381Y-84137618D01*
X130627381Y-84375714D01*
X130579762Y-84470952D01*
X130532143Y-84518571D01*
X124936429Y-90257381D02*
X125555477Y-90257381D01*
X125222143Y-90638333D01*
X125365001Y-90638333D01*
X125460239Y-90685952D01*
X125507858Y-90733571D01*
X125555477Y-90828810D01*
X125555477Y-91066905D01*
X125507858Y-91162143D01*
X125460239Y-91209762D01*
X125365001Y-91257381D01*
X125079286Y-91257381D01*
X124984048Y-91209762D01*
X124936429Y-91162143D01*
X125984048Y-90876429D02*
X126745953Y-90876429D01*
X127174524Y-90352619D02*
X127222143Y-90305000D01*
X127317381Y-90257381D01*
X127555477Y-90257381D01*
X127650715Y-90305000D01*
X127698334Y-90352619D01*
X127745953Y-90447857D01*
X127745953Y-90543095D01*
X127698334Y-90685952D01*
X127126905Y-91257381D01*
X127745953Y-91257381D01*
X140787381Y-98313571D02*
X139787381Y-98313571D01*
X139787381Y-97932618D01*
X139835000Y-97837380D01*
X139882619Y-97789761D01*
X139977857Y-97742142D01*
X140120714Y-97742142D01*
X140215952Y-97789761D01*
X140263571Y-97837380D01*
X140311190Y-97932618D01*
X140311190Y-98313571D01*
X139787381Y-97408809D02*
X140787381Y-97170714D01*
X140073095Y-96980237D01*
X140787381Y-96789761D01*
X139787381Y-96551666D01*
X140787381Y-95599285D02*
X140311190Y-95932619D01*
X140787381Y-96170714D02*
X139787381Y-96170714D01*
X139787381Y-95789761D01*
X139835000Y-95694523D01*
X139882619Y-95646904D01*
X139977857Y-95599285D01*
X140120714Y-95599285D01*
X140215952Y-95646904D01*
X140263571Y-95694523D01*
X140311190Y-95789761D01*
X140311190Y-96170714D01*
X140406429Y-95170714D02*
X140406429Y-94408809D01*
X140120714Y-93504047D02*
X140787381Y-93504047D01*
X139739762Y-93742143D02*
X140454048Y-93980238D01*
X140454048Y-93361190D01*
X120467381Y-98313571D02*
X119467381Y-98313571D01*
X119467381Y-97932618D01*
X119515000Y-97837380D01*
X119562619Y-97789761D01*
X119657857Y-97742142D01*
X119800714Y-97742142D01*
X119895952Y-97789761D01*
X119943571Y-97837380D01*
X119991190Y-97932618D01*
X119991190Y-98313571D01*
X119467381Y-97408809D02*
X120467381Y-97170714D01*
X119753095Y-96980237D01*
X120467381Y-96789761D01*
X119467381Y-96551666D01*
X120467381Y-95599285D02*
X119991190Y-95932619D01*
X120467381Y-96170714D02*
X119467381Y-96170714D01*
X119467381Y-95789761D01*
X119515000Y-95694523D01*
X119562619Y-95646904D01*
X119657857Y-95599285D01*
X119800714Y-95599285D01*
X119895952Y-95646904D01*
X119943571Y-95694523D01*
X119991190Y-95789761D01*
X119991190Y-96170714D01*
X120086429Y-95170714D02*
X120086429Y-94408809D01*
X119467381Y-94027857D02*
X119467381Y-93408809D01*
X119848333Y-93742143D01*
X119848333Y-93599285D01*
X119895952Y-93504047D01*
X119943571Y-93456428D01*
X120038810Y-93408809D01*
X120276905Y-93408809D01*
X120372143Y-93456428D01*
X120419762Y-93504047D01*
X120467381Y-93599285D01*
X120467381Y-93885000D01*
X120419762Y-93980238D01*
X120372143Y-94027857D01*
X119197381Y-65293571D02*
X118197381Y-65293571D01*
X118197381Y-64912618D01*
X118245000Y-64817380D01*
X118292619Y-64769761D01*
X118387857Y-64722142D01*
X118530714Y-64722142D01*
X118625952Y-64769761D01*
X118673571Y-64817380D01*
X118721190Y-64912618D01*
X118721190Y-65293571D01*
X118197381Y-64388809D02*
X119197381Y-64150714D01*
X118483095Y-63960237D01*
X119197381Y-63769761D01*
X118197381Y-63531666D01*
X119197381Y-62579285D02*
X118721190Y-62912619D01*
X119197381Y-63150714D02*
X118197381Y-63150714D01*
X118197381Y-62769761D01*
X118245000Y-62674523D01*
X118292619Y-62626904D01*
X118387857Y-62579285D01*
X118530714Y-62579285D01*
X118625952Y-62626904D01*
X118673571Y-62674523D01*
X118721190Y-62769761D01*
X118721190Y-63150714D01*
X118816429Y-62150714D02*
X118816429Y-61388809D01*
X119197381Y-60388809D02*
X119197381Y-60960238D01*
X119197381Y-60674524D02*
X118197381Y-60674524D01*
X118340238Y-60769762D01*
X118435476Y-60865000D01*
X118483095Y-60960238D01*
X140152381Y-65293571D02*
X139152381Y-65293571D01*
X139152381Y-64912618D01*
X139200000Y-64817380D01*
X139247619Y-64769761D01*
X139342857Y-64722142D01*
X139485714Y-64722142D01*
X139580952Y-64769761D01*
X139628571Y-64817380D01*
X139676190Y-64912618D01*
X139676190Y-65293571D01*
X139152381Y-64388809D02*
X140152381Y-64150714D01*
X139438095Y-63960237D01*
X140152381Y-63769761D01*
X139152381Y-63531666D01*
X140152381Y-62579285D02*
X139676190Y-62912619D01*
X140152381Y-63150714D02*
X139152381Y-63150714D01*
X139152381Y-62769761D01*
X139200000Y-62674523D01*
X139247619Y-62626904D01*
X139342857Y-62579285D01*
X139485714Y-62579285D01*
X139580952Y-62626904D01*
X139628571Y-62674523D01*
X139676190Y-62769761D01*
X139676190Y-63150714D01*
X139771429Y-62150714D02*
X139771429Y-61388809D01*
X139247619Y-60960238D02*
X139200000Y-60912619D01*
X139152381Y-60817381D01*
X139152381Y-60579285D01*
X139200000Y-60484047D01*
X139247619Y-60436428D01*
X139342857Y-60388809D01*
X139438095Y-60388809D01*
X139580952Y-60436428D01*
X140152381Y-61007857D01*
X140152381Y-60388809D01*
M02*
