G04 #@! TF.FileFunction,Copper,L1,Top,Signal*
%FSLAX46Y46*%
G04 Gerber Fmt 4.6, Leading zero omitted, Abs format (unit mm)*
G04 Created by KiCad (PCBNEW 4.0.7) date 04/10/18 14:29:16*
%MOMM*%
%LPD*%
G01*
G04 APERTURE LIST*
%ADD10C,0.100000*%
%ADD11R,1.700000X2.000000*%
%ADD12R,2.600000X2.000000*%
%ADD13O,2.600000X2.000000*%
%ADD14R,1.700000X1.700000*%
%ADD15O,1.700000X1.700000*%
%ADD16C,2.400000*%
%ADD17R,2.400000X2.400000*%
%ADD18C,0.250000*%
%ADD19C,1.600000*%
%ADD20C,0.254000*%
G04 APERTURE END LIST*
D10*
D11*
X116205000Y-87090000D03*
X116205000Y-83090000D03*
D12*
X119380000Y-71120000D03*
D13*
X119380000Y-73660000D03*
X119380000Y-76200000D03*
D12*
X130810000Y-71120000D03*
D13*
X130810000Y-73660000D03*
X130810000Y-76200000D03*
D14*
X114300000Y-71120000D03*
D15*
X114300000Y-73660000D03*
X114300000Y-76200000D03*
D14*
X143510000Y-82550000D03*
D15*
X143510000Y-85090000D03*
X143510000Y-87630000D03*
D12*
X125095000Y-71120000D03*
D13*
X125095000Y-73660000D03*
X125095000Y-76200000D03*
D12*
X142240000Y-71120000D03*
D13*
X142240000Y-73660000D03*
X142240000Y-76200000D03*
D12*
X136525000Y-71120000D03*
D13*
X136525000Y-73660000D03*
X136525000Y-76200000D03*
D11*
X112395000Y-87090000D03*
X112395000Y-83090000D03*
D12*
X132080000Y-82550000D03*
D13*
X132080000Y-85090000D03*
X132080000Y-87630000D03*
D12*
X137795000Y-82550000D03*
D13*
X137795000Y-85090000D03*
X137795000Y-87630000D03*
D12*
X120650000Y-82550000D03*
D13*
X120650000Y-85090000D03*
X120650000Y-87630000D03*
D12*
X126365000Y-82550000D03*
D13*
X126365000Y-85090000D03*
X126365000Y-87630000D03*
D16*
X137485000Y-95885000D03*
D17*
X133985000Y-95885000D03*
D16*
X126055000Y-95885000D03*
D17*
X122555000Y-95885000D03*
D16*
X121595000Y-62865000D03*
D17*
X125095000Y-62865000D03*
D16*
X133660000Y-62865000D03*
D17*
X137160000Y-62865000D03*
D18*
X132080000Y-85090000D02*
X130810000Y-85090000D01*
X130810000Y-85090000D02*
X129540000Y-83820000D01*
X117475000Y-80010000D02*
X116205000Y-81280000D01*
X128270000Y-80010000D02*
X117475000Y-80010000D01*
X129540000Y-81280000D02*
X128270000Y-80010000D01*
X129540000Y-83820000D02*
X129540000Y-81280000D01*
X114300000Y-73660000D02*
X113030000Y-73660000D01*
X116205000Y-80645000D02*
X116205000Y-81280000D01*
X116205000Y-81280000D02*
X116205000Y-83090000D01*
X115570000Y-80010000D02*
X116205000Y-80645000D01*
X113665000Y-80010000D02*
X115570000Y-80010000D01*
X111125000Y-77470000D02*
X113665000Y-80010000D01*
X111125000Y-75565000D02*
X111125000Y-77470000D01*
X113030000Y-73660000D02*
X111125000Y-75565000D01*
D19*
X143510000Y-85090000D02*
X145415000Y-85090000D01*
X141295000Y-92075000D02*
X137485000Y-95885000D01*
X145415000Y-92075000D02*
X141295000Y-92075000D01*
X146685000Y-90805000D02*
X145415000Y-92075000D01*
X146685000Y-86360000D02*
X146685000Y-90805000D01*
X145415000Y-85090000D02*
X146685000Y-86360000D01*
X132080000Y-85090000D02*
X137795000Y-85090000D01*
X137795000Y-85090000D02*
X139700000Y-85090000D01*
X139700000Y-85090000D02*
X143510000Y-85090000D01*
D18*
X112395000Y-87090000D02*
X116205000Y-87090000D01*
D19*
X125095000Y-73660000D02*
X130810000Y-73660000D01*
X119380000Y-73660000D02*
X121920000Y-73660000D01*
X121595000Y-65080000D02*
X121595000Y-62865000D01*
X121920000Y-65405000D02*
X121595000Y-65080000D01*
X121920000Y-73660000D02*
X121920000Y-65405000D01*
X119380000Y-73660000D02*
X125095000Y-73660000D01*
X120650000Y-85090000D02*
X126365000Y-85090000D01*
X126365000Y-85090000D02*
X128270000Y-85090000D01*
X128270000Y-85090000D02*
X128905000Y-85725000D01*
X128905000Y-85725000D02*
X128905000Y-93345000D01*
X128905000Y-93345000D02*
X126365000Y-95885000D01*
X126365000Y-95885000D02*
X126055000Y-95885000D01*
X136525000Y-73660000D02*
X142240000Y-73660000D01*
X142240000Y-73660000D02*
X144780000Y-73660000D01*
X144780000Y-73660000D02*
X145415000Y-73025000D01*
X145415000Y-73025000D02*
X145415000Y-67945000D01*
X145415000Y-67945000D02*
X144780000Y-67310000D01*
X144780000Y-67310000D02*
X135255000Y-67310000D01*
X135255000Y-67310000D02*
X133660000Y-65715000D01*
X133660000Y-65715000D02*
X133660000Y-62865000D01*
D20*
G36*
X147245000Y-84890604D02*
X146429698Y-84075302D01*
X146113597Y-83864090D01*
X145964151Y-83764233D01*
X145415000Y-83655000D01*
X144954306Y-83655000D01*
X144956431Y-83651890D01*
X145007440Y-83400000D01*
X145007440Y-81700000D01*
X144963162Y-81464683D01*
X144824090Y-81248559D01*
X144611890Y-81103569D01*
X144360000Y-81052560D01*
X142660000Y-81052560D01*
X142424683Y-81096838D01*
X142208559Y-81235910D01*
X142063569Y-81448110D01*
X142012560Y-81700000D01*
X142012560Y-83400000D01*
X142056838Y-83635317D01*
X142069504Y-83655000D01*
X139721177Y-83655000D01*
X139742440Y-83550000D01*
X139742440Y-81550000D01*
X139698162Y-81314683D01*
X139559090Y-81098559D01*
X139346890Y-80953569D01*
X139095000Y-80902560D01*
X136495000Y-80902560D01*
X136259683Y-80946838D01*
X136043559Y-81085910D01*
X135898569Y-81298110D01*
X135847560Y-81550000D01*
X135847560Y-83550000D01*
X135867317Y-83655000D01*
X134006177Y-83655000D01*
X134027440Y-83550000D01*
X134027440Y-81550000D01*
X133983162Y-81314683D01*
X133844090Y-81098559D01*
X133631890Y-80953569D01*
X133380000Y-80902560D01*
X130780000Y-80902560D01*
X130544683Y-80946838D01*
X130328559Y-81085910D01*
X130276537Y-81162046D01*
X130263909Y-81098559D01*
X130242148Y-80989160D01*
X130077401Y-80742599D01*
X128807401Y-79472599D01*
X128560839Y-79307852D01*
X128270000Y-79250000D01*
X117475000Y-79250000D01*
X117184160Y-79307852D01*
X116937599Y-79472599D01*
X116522500Y-79887698D01*
X116107401Y-79472599D01*
X115860839Y-79307852D01*
X115570000Y-79250000D01*
X113979802Y-79250000D01*
X111885000Y-77155198D01*
X111885000Y-76556890D01*
X112858524Y-76556890D01*
X113028355Y-76966924D01*
X113418642Y-77395183D01*
X113943108Y-77641486D01*
X114173000Y-77520819D01*
X114173000Y-76327000D01*
X114427000Y-76327000D01*
X114427000Y-77520819D01*
X114656892Y-77641486D01*
X115181358Y-77395183D01*
X115571645Y-76966924D01*
X115731724Y-76580434D01*
X117489876Y-76580434D01*
X117520856Y-76708355D01*
X117834078Y-77266317D01*
X118336980Y-77661942D01*
X118953000Y-77835000D01*
X119253000Y-77835000D01*
X119253000Y-76327000D01*
X119507000Y-76327000D01*
X119507000Y-77835000D01*
X119807000Y-77835000D01*
X120423020Y-77661942D01*
X120925922Y-77266317D01*
X121239144Y-76708355D01*
X121270124Y-76580434D01*
X123204876Y-76580434D01*
X123235856Y-76708355D01*
X123549078Y-77266317D01*
X124051980Y-77661942D01*
X124668000Y-77835000D01*
X124968000Y-77835000D01*
X124968000Y-76327000D01*
X125222000Y-76327000D01*
X125222000Y-77835000D01*
X125522000Y-77835000D01*
X126138020Y-77661942D01*
X126640922Y-77266317D01*
X126954144Y-76708355D01*
X126985124Y-76580434D01*
X128919876Y-76580434D01*
X128950856Y-76708355D01*
X129264078Y-77266317D01*
X129766980Y-77661942D01*
X130383000Y-77835000D01*
X130683000Y-77835000D01*
X130683000Y-76327000D01*
X130937000Y-76327000D01*
X130937000Y-77835000D01*
X131237000Y-77835000D01*
X131853020Y-77661942D01*
X132355922Y-77266317D01*
X132669144Y-76708355D01*
X132700124Y-76580434D01*
X134634876Y-76580434D01*
X134665856Y-76708355D01*
X134979078Y-77266317D01*
X135481980Y-77661942D01*
X136098000Y-77835000D01*
X136398000Y-77835000D01*
X136398000Y-76327000D01*
X136652000Y-76327000D01*
X136652000Y-77835000D01*
X136952000Y-77835000D01*
X137568020Y-77661942D01*
X138070922Y-77266317D01*
X138384144Y-76708355D01*
X138415124Y-76580434D01*
X140349876Y-76580434D01*
X140380856Y-76708355D01*
X140694078Y-77266317D01*
X141196980Y-77661942D01*
X141813000Y-77835000D01*
X142113000Y-77835000D01*
X142113000Y-76327000D01*
X142367000Y-76327000D01*
X142367000Y-77835000D01*
X142667000Y-77835000D01*
X143283020Y-77661942D01*
X143785922Y-77266317D01*
X144099144Y-76708355D01*
X144130124Y-76580434D01*
X144010777Y-76327000D01*
X142367000Y-76327000D01*
X142113000Y-76327000D01*
X140469223Y-76327000D01*
X140349876Y-76580434D01*
X138415124Y-76580434D01*
X138295777Y-76327000D01*
X136652000Y-76327000D01*
X136398000Y-76327000D01*
X134754223Y-76327000D01*
X134634876Y-76580434D01*
X132700124Y-76580434D01*
X132580777Y-76327000D01*
X130937000Y-76327000D01*
X130683000Y-76327000D01*
X129039223Y-76327000D01*
X128919876Y-76580434D01*
X126985124Y-76580434D01*
X126865777Y-76327000D01*
X125222000Y-76327000D01*
X124968000Y-76327000D01*
X123324223Y-76327000D01*
X123204876Y-76580434D01*
X121270124Y-76580434D01*
X121150777Y-76327000D01*
X119507000Y-76327000D01*
X119253000Y-76327000D01*
X117609223Y-76327000D01*
X117489876Y-76580434D01*
X115731724Y-76580434D01*
X115741476Y-76556890D01*
X115620155Y-76327000D01*
X114427000Y-76327000D01*
X114173000Y-76327000D01*
X112979845Y-76327000D01*
X112858524Y-76556890D01*
X111885000Y-76556890D01*
X111885000Y-75879802D01*
X113154321Y-74610481D01*
X113220853Y-74710054D01*
X113561553Y-74937702D01*
X113418642Y-75004817D01*
X113028355Y-75433076D01*
X112858524Y-75843110D01*
X112979845Y-76073000D01*
X114173000Y-76073000D01*
X114173000Y-76053000D01*
X114427000Y-76053000D01*
X114427000Y-76073000D01*
X115620155Y-76073000D01*
X115741476Y-75843110D01*
X115571645Y-75433076D01*
X115181358Y-75004817D01*
X115038447Y-74937702D01*
X115379147Y-74710054D01*
X115701054Y-74228285D01*
X115814093Y-73660000D01*
X117407091Y-73660000D01*
X117531548Y-74285687D01*
X117885971Y-74816120D01*
X118076188Y-74943219D01*
X117834078Y-75133683D01*
X117520856Y-75691645D01*
X117489876Y-75819566D01*
X117609223Y-76073000D01*
X119253000Y-76073000D01*
X119253000Y-76053000D01*
X119507000Y-76053000D01*
X119507000Y-76073000D01*
X121150777Y-76073000D01*
X121270124Y-75819566D01*
X121239144Y-75691645D01*
X120925922Y-75133683D01*
X120876750Y-75095000D01*
X123598250Y-75095000D01*
X123549078Y-75133683D01*
X123235856Y-75691645D01*
X123204876Y-75819566D01*
X123324223Y-76073000D01*
X124968000Y-76073000D01*
X124968000Y-76053000D01*
X125222000Y-76053000D01*
X125222000Y-76073000D01*
X126865777Y-76073000D01*
X126985124Y-75819566D01*
X126954144Y-75691645D01*
X126640922Y-75133683D01*
X126591750Y-75095000D01*
X129313250Y-75095000D01*
X129264078Y-75133683D01*
X128950856Y-75691645D01*
X128919876Y-75819566D01*
X129039223Y-76073000D01*
X130683000Y-76073000D01*
X130683000Y-76053000D01*
X130937000Y-76053000D01*
X130937000Y-76073000D01*
X132580777Y-76073000D01*
X132700124Y-75819566D01*
X132669144Y-75691645D01*
X132355922Y-75133683D01*
X132113812Y-74943219D01*
X132304029Y-74816120D01*
X132658452Y-74285687D01*
X132782909Y-73660000D01*
X132658452Y-73034313D01*
X132418907Y-72675808D01*
X132561441Y-72584090D01*
X132706431Y-72371890D01*
X132757440Y-72120000D01*
X132757440Y-70120000D01*
X132713162Y-69884683D01*
X132574090Y-69668559D01*
X132361890Y-69523569D01*
X132110000Y-69472560D01*
X129510000Y-69472560D01*
X129274683Y-69516838D01*
X129058559Y-69655910D01*
X128913569Y-69868110D01*
X128862560Y-70120000D01*
X128862560Y-72120000D01*
X128882317Y-72225000D01*
X127021177Y-72225000D01*
X127042440Y-72120000D01*
X127042440Y-70120000D01*
X126998162Y-69884683D01*
X126859090Y-69668559D01*
X126646890Y-69523569D01*
X126395000Y-69472560D01*
X123795000Y-69472560D01*
X123559683Y-69516838D01*
X123355000Y-69648548D01*
X123355000Y-65405000D01*
X123245767Y-64855849D01*
X123030000Y-64532931D01*
X123030000Y-64025322D01*
X123149730Y-63905801D01*
X123260000Y-63640242D01*
X123260000Y-64191310D01*
X123356673Y-64424699D01*
X123535302Y-64603327D01*
X123768691Y-64700000D01*
X124809250Y-64700000D01*
X124968000Y-64541250D01*
X124968000Y-62992000D01*
X125222000Y-62992000D01*
X125222000Y-64541250D01*
X125380750Y-64700000D01*
X126421309Y-64700000D01*
X126654698Y-64603327D01*
X126833327Y-64424699D01*
X126930000Y-64191310D01*
X126930000Y-63228403D01*
X131824682Y-63228403D01*
X132103455Y-63903086D01*
X132225000Y-64024843D01*
X132225000Y-65715000D01*
X132334233Y-66264151D01*
X132501845Y-66515000D01*
X132645302Y-66729698D01*
X134240302Y-68324698D01*
X134705849Y-68635767D01*
X135255000Y-68745000D01*
X143980000Y-68745000D01*
X143980000Y-69652099D01*
X143791890Y-69523569D01*
X143540000Y-69472560D01*
X140940000Y-69472560D01*
X140704683Y-69516838D01*
X140488559Y-69655910D01*
X140343569Y-69868110D01*
X140292560Y-70120000D01*
X140292560Y-72120000D01*
X140312317Y-72225000D01*
X138451177Y-72225000D01*
X138472440Y-72120000D01*
X138472440Y-70120000D01*
X138428162Y-69884683D01*
X138289090Y-69668559D01*
X138076890Y-69523569D01*
X137825000Y-69472560D01*
X135225000Y-69472560D01*
X134989683Y-69516838D01*
X134773559Y-69655910D01*
X134628569Y-69868110D01*
X134577560Y-70120000D01*
X134577560Y-72120000D01*
X134621838Y-72355317D01*
X134760910Y-72571441D01*
X134915329Y-72676951D01*
X134676548Y-73034313D01*
X134552091Y-73660000D01*
X134676548Y-74285687D01*
X135030971Y-74816120D01*
X135221188Y-74943219D01*
X134979078Y-75133683D01*
X134665856Y-75691645D01*
X134634876Y-75819566D01*
X134754223Y-76073000D01*
X136398000Y-76073000D01*
X136398000Y-76053000D01*
X136652000Y-76053000D01*
X136652000Y-76073000D01*
X138295777Y-76073000D01*
X138415124Y-75819566D01*
X138384144Y-75691645D01*
X138070922Y-75133683D01*
X138021750Y-75095000D01*
X140743250Y-75095000D01*
X140694078Y-75133683D01*
X140380856Y-75691645D01*
X140349876Y-75819566D01*
X140469223Y-76073000D01*
X142113000Y-76073000D01*
X142113000Y-76053000D01*
X142367000Y-76053000D01*
X142367000Y-76073000D01*
X144010777Y-76073000D01*
X144130124Y-75819566D01*
X144099144Y-75691645D01*
X143785922Y-75133683D01*
X143736750Y-75095000D01*
X144780000Y-75095000D01*
X145329151Y-74985767D01*
X145794698Y-74674698D01*
X146429699Y-74039698D01*
X146740768Y-73574150D01*
X146850000Y-73025000D01*
X146850000Y-67945000D01*
X146832923Y-67859150D01*
X146740768Y-67395850D01*
X146429699Y-66930302D01*
X145794698Y-66295302D01*
X145494473Y-66094698D01*
X145329151Y-65984233D01*
X144780000Y-65875000D01*
X135849396Y-65875000D01*
X135095000Y-65120604D01*
X135095000Y-64025322D01*
X135214730Y-63905801D01*
X135325000Y-63640242D01*
X135325000Y-64191310D01*
X135421673Y-64424699D01*
X135600302Y-64603327D01*
X135833691Y-64700000D01*
X136874250Y-64700000D01*
X137033000Y-64541250D01*
X137033000Y-62992000D01*
X137287000Y-62992000D01*
X137287000Y-64541250D01*
X137445750Y-64700000D01*
X138486309Y-64700000D01*
X138719698Y-64603327D01*
X138898327Y-64424699D01*
X138995000Y-64191310D01*
X138995000Y-63150750D01*
X138836250Y-62992000D01*
X137287000Y-62992000D01*
X137033000Y-62992000D01*
X137013000Y-62992000D01*
X137013000Y-62738000D01*
X137033000Y-62738000D01*
X137033000Y-61188750D01*
X137287000Y-61188750D01*
X137287000Y-62738000D01*
X138836250Y-62738000D01*
X138995000Y-62579250D01*
X138995000Y-62573599D01*
X143679699Y-62573599D01*
X143943281Y-63211515D01*
X144430918Y-63700004D01*
X145068373Y-63964699D01*
X145758599Y-63965301D01*
X146396515Y-63701719D01*
X146885004Y-63214082D01*
X147149699Y-62576627D01*
X147150301Y-61886401D01*
X146886719Y-61248485D01*
X146399082Y-60759996D01*
X145761627Y-60495301D01*
X145071401Y-60494699D01*
X144433485Y-60758281D01*
X143944996Y-61245918D01*
X143680301Y-61883373D01*
X143679699Y-62573599D01*
X138995000Y-62573599D01*
X138995000Y-61538690D01*
X138898327Y-61305301D01*
X138719698Y-61126673D01*
X138486309Y-61030000D01*
X137445750Y-61030000D01*
X137287000Y-61188750D01*
X137033000Y-61188750D01*
X136874250Y-61030000D01*
X135833691Y-61030000D01*
X135600302Y-61126673D01*
X135421673Y-61305301D01*
X135325000Y-61538690D01*
X135325000Y-62089395D01*
X135216545Y-61826914D01*
X134700801Y-61310270D01*
X134026605Y-61030319D01*
X133296597Y-61029682D01*
X132621914Y-61308455D01*
X132105270Y-61824199D01*
X131825319Y-62498395D01*
X131824682Y-63228403D01*
X126930000Y-63228403D01*
X126930000Y-63150750D01*
X126771250Y-62992000D01*
X125222000Y-62992000D01*
X124968000Y-62992000D01*
X124948000Y-62992000D01*
X124948000Y-62738000D01*
X124968000Y-62738000D01*
X124968000Y-61188750D01*
X125222000Y-61188750D01*
X125222000Y-62738000D01*
X126771250Y-62738000D01*
X126930000Y-62579250D01*
X126930000Y-61538690D01*
X126833327Y-61305301D01*
X126654698Y-61126673D01*
X126421309Y-61030000D01*
X125380750Y-61030000D01*
X125222000Y-61188750D01*
X124968000Y-61188750D01*
X124809250Y-61030000D01*
X123768691Y-61030000D01*
X123535302Y-61126673D01*
X123356673Y-61305301D01*
X123260000Y-61538690D01*
X123260000Y-62089395D01*
X123151545Y-61826914D01*
X122635801Y-61310270D01*
X121961605Y-61030319D01*
X121231597Y-61029682D01*
X120556914Y-61308455D01*
X120040270Y-61824199D01*
X119760319Y-62498395D01*
X119759682Y-63228403D01*
X120038455Y-63903086D01*
X120160000Y-64024843D01*
X120160000Y-65080000D01*
X120269233Y-65629151D01*
X120485000Y-65952069D01*
X120485000Y-69472560D01*
X118080000Y-69472560D01*
X117844683Y-69516838D01*
X117628559Y-69655910D01*
X117483569Y-69868110D01*
X117432560Y-70120000D01*
X117432560Y-72120000D01*
X117476838Y-72355317D01*
X117615910Y-72571441D01*
X117770329Y-72676951D01*
X117531548Y-73034313D01*
X117407091Y-73660000D01*
X115814093Y-73660000D01*
X115701054Y-73091715D01*
X115379147Y-72609946D01*
X115337548Y-72582150D01*
X115385317Y-72573162D01*
X115601441Y-72434090D01*
X115746431Y-72221890D01*
X115797440Y-71970000D01*
X115797440Y-70270000D01*
X115753162Y-70034683D01*
X115614090Y-69818559D01*
X115401890Y-69673569D01*
X115150000Y-69622560D01*
X113450000Y-69622560D01*
X113214683Y-69666838D01*
X112998559Y-69805910D01*
X112853569Y-70018110D01*
X112802560Y-70270000D01*
X112802560Y-71970000D01*
X112846838Y-72205317D01*
X112985910Y-72421441D01*
X113198110Y-72566431D01*
X113265541Y-72580086D01*
X113220853Y-72609946D01*
X113026593Y-72900678D01*
X112739161Y-72957852D01*
X112492599Y-73122599D01*
X110587599Y-75027599D01*
X110422852Y-75274161D01*
X110365000Y-75565000D01*
X110365000Y-77470000D01*
X110422852Y-77760839D01*
X110587599Y-78007401D01*
X113127599Y-80547401D01*
X113374160Y-80712148D01*
X113422414Y-80721746D01*
X113665000Y-80770000D01*
X115255198Y-80770000D01*
X115445000Y-80959802D01*
X115445000Y-81442560D01*
X115355000Y-81442560D01*
X115119683Y-81486838D01*
X114903559Y-81625910D01*
X114758569Y-81838110D01*
X114707560Y-82090000D01*
X114707560Y-84090000D01*
X114751838Y-84325317D01*
X114890910Y-84541441D01*
X115103110Y-84686431D01*
X115355000Y-84737440D01*
X117055000Y-84737440D01*
X117290317Y-84693162D01*
X117506441Y-84554090D01*
X117651431Y-84341890D01*
X117702440Y-84090000D01*
X117702440Y-82090000D01*
X117658162Y-81854683D01*
X117519090Y-81638559D01*
X117306890Y-81493569D01*
X117106760Y-81453042D01*
X117789802Y-80770000D01*
X127955198Y-80770000D01*
X128780000Y-81594802D01*
X128780000Y-83756445D01*
X128290357Y-83659049D01*
X128312440Y-83550000D01*
X128312440Y-81550000D01*
X128268162Y-81314683D01*
X128129090Y-81098559D01*
X127916890Y-80953569D01*
X127665000Y-80902560D01*
X125065000Y-80902560D01*
X124829683Y-80946838D01*
X124613559Y-81085910D01*
X124468569Y-81298110D01*
X124417560Y-81550000D01*
X124417560Y-83550000D01*
X124437317Y-83655000D01*
X122576177Y-83655000D01*
X122597440Y-83550000D01*
X122597440Y-81550000D01*
X122553162Y-81314683D01*
X122414090Y-81098559D01*
X122201890Y-80953569D01*
X121950000Y-80902560D01*
X119350000Y-80902560D01*
X119114683Y-80946838D01*
X118898559Y-81085910D01*
X118753569Y-81298110D01*
X118702560Y-81550000D01*
X118702560Y-83550000D01*
X118746838Y-83785317D01*
X118885910Y-84001441D01*
X119040329Y-84106951D01*
X118801548Y-84464313D01*
X118677091Y-85090000D01*
X118801548Y-85715687D01*
X119155971Y-86246120D01*
X119346188Y-86373219D01*
X119104078Y-86563683D01*
X118790856Y-87121645D01*
X118759876Y-87249566D01*
X118879223Y-87503000D01*
X120523000Y-87503000D01*
X120523000Y-87483000D01*
X120777000Y-87483000D01*
X120777000Y-87503000D01*
X122420777Y-87503000D01*
X122540124Y-87249566D01*
X122509144Y-87121645D01*
X122195922Y-86563683D01*
X122146750Y-86525000D01*
X124868250Y-86525000D01*
X124819078Y-86563683D01*
X124505856Y-87121645D01*
X124474876Y-87249566D01*
X124594223Y-87503000D01*
X126238000Y-87503000D01*
X126238000Y-87483000D01*
X126492000Y-87483000D01*
X126492000Y-87503000D01*
X126512000Y-87503000D01*
X126512000Y-87757000D01*
X126492000Y-87757000D01*
X126492000Y-89265000D01*
X126792000Y-89265000D01*
X127408020Y-89091942D01*
X127470000Y-89043183D01*
X127470000Y-92750603D01*
X126170504Y-94050100D01*
X125691597Y-94049682D01*
X125016914Y-94328455D01*
X124500270Y-94844199D01*
X124390000Y-95109758D01*
X124390000Y-94558690D01*
X124293327Y-94325301D01*
X124114698Y-94146673D01*
X123881309Y-94050000D01*
X122840750Y-94050000D01*
X122682000Y-94208750D01*
X122682000Y-95758000D01*
X122702000Y-95758000D01*
X122702000Y-96012000D01*
X122682000Y-96012000D01*
X122682000Y-97561250D01*
X122840750Y-97720000D01*
X123881309Y-97720000D01*
X124114698Y-97623327D01*
X124293327Y-97444699D01*
X124390000Y-97211310D01*
X124390000Y-96660605D01*
X124498455Y-96923086D01*
X125014199Y-97439730D01*
X125688395Y-97719681D01*
X126418403Y-97720318D01*
X127093086Y-97441545D01*
X127609730Y-96925801D01*
X127791610Y-96487786D01*
X128108646Y-96170750D01*
X132150000Y-96170750D01*
X132150000Y-97211310D01*
X132246673Y-97444699D01*
X132425302Y-97623327D01*
X132658691Y-97720000D01*
X133699250Y-97720000D01*
X133858000Y-97561250D01*
X133858000Y-96012000D01*
X132308750Y-96012000D01*
X132150000Y-96170750D01*
X128108646Y-96170750D01*
X129720706Y-94558690D01*
X132150000Y-94558690D01*
X132150000Y-95599250D01*
X132308750Y-95758000D01*
X133858000Y-95758000D01*
X133858000Y-94208750D01*
X133699250Y-94050000D01*
X132658691Y-94050000D01*
X132425302Y-94146673D01*
X132246673Y-94325301D01*
X132150000Y-94558690D01*
X129720706Y-94558690D01*
X129919698Y-94359699D01*
X130230767Y-93894151D01*
X130307179Y-93510000D01*
X130340000Y-93345000D01*
X130340000Y-88350594D01*
X130534078Y-88696317D01*
X131036980Y-89091942D01*
X131653000Y-89265000D01*
X131953000Y-89265000D01*
X131953000Y-87757000D01*
X132207000Y-87757000D01*
X132207000Y-89265000D01*
X132507000Y-89265000D01*
X133123020Y-89091942D01*
X133625922Y-88696317D01*
X133939144Y-88138355D01*
X133970124Y-88010434D01*
X135904876Y-88010434D01*
X135935856Y-88138355D01*
X136249078Y-88696317D01*
X136751980Y-89091942D01*
X137368000Y-89265000D01*
X137668000Y-89265000D01*
X137668000Y-87757000D01*
X137922000Y-87757000D01*
X137922000Y-89265000D01*
X138222000Y-89265000D01*
X138838020Y-89091942D01*
X139340922Y-88696317D01*
X139654144Y-88138355D01*
X139685124Y-88010434D01*
X139674037Y-87986890D01*
X142068524Y-87986890D01*
X142238355Y-88396924D01*
X142628642Y-88825183D01*
X143153108Y-89071486D01*
X143383000Y-88950819D01*
X143383000Y-87757000D01*
X143637000Y-87757000D01*
X143637000Y-88950819D01*
X143866892Y-89071486D01*
X144391358Y-88825183D01*
X144781645Y-88396924D01*
X144951476Y-87986890D01*
X144830155Y-87757000D01*
X143637000Y-87757000D01*
X143383000Y-87757000D01*
X142189845Y-87757000D01*
X142068524Y-87986890D01*
X139674037Y-87986890D01*
X139565777Y-87757000D01*
X137922000Y-87757000D01*
X137668000Y-87757000D01*
X136024223Y-87757000D01*
X135904876Y-88010434D01*
X133970124Y-88010434D01*
X133850777Y-87757000D01*
X132207000Y-87757000D01*
X131953000Y-87757000D01*
X131933000Y-87757000D01*
X131933000Y-87503000D01*
X131953000Y-87503000D01*
X131953000Y-87483000D01*
X132207000Y-87483000D01*
X132207000Y-87503000D01*
X133850777Y-87503000D01*
X133970124Y-87249566D01*
X133939144Y-87121645D01*
X133625922Y-86563683D01*
X133576750Y-86525000D01*
X136298250Y-86525000D01*
X136249078Y-86563683D01*
X135935856Y-87121645D01*
X135904876Y-87249566D01*
X136024223Y-87503000D01*
X137668000Y-87503000D01*
X137668000Y-87483000D01*
X137922000Y-87483000D01*
X137922000Y-87503000D01*
X139565777Y-87503000D01*
X139685124Y-87249566D01*
X139654144Y-87121645D01*
X139340922Y-86563683D01*
X139291750Y-86525000D01*
X142546455Y-86525000D01*
X142238355Y-86863076D01*
X142068524Y-87273110D01*
X142189845Y-87503000D01*
X143383000Y-87503000D01*
X143383000Y-87483000D01*
X143637000Y-87483000D01*
X143637000Y-87503000D01*
X144830155Y-87503000D01*
X144951476Y-87273110D01*
X144781645Y-86863076D01*
X144473545Y-86525000D01*
X144820604Y-86525000D01*
X145250000Y-86954396D01*
X145250000Y-90210604D01*
X144820604Y-90640000D01*
X141295000Y-90640000D01*
X140745849Y-90749233D01*
X140280302Y-91060302D01*
X137290774Y-94049830D01*
X137121597Y-94049682D01*
X136446914Y-94328455D01*
X135930270Y-94844199D01*
X135820000Y-95109758D01*
X135820000Y-94558690D01*
X135723327Y-94325301D01*
X135544698Y-94146673D01*
X135311309Y-94050000D01*
X134270750Y-94050000D01*
X134112000Y-94208750D01*
X134112000Y-95758000D01*
X134132000Y-95758000D01*
X134132000Y-96012000D01*
X134112000Y-96012000D01*
X134112000Y-97561250D01*
X134270750Y-97720000D01*
X135311309Y-97720000D01*
X135544698Y-97623327D01*
X135723327Y-97444699D01*
X135820000Y-97211310D01*
X135820000Y-96660605D01*
X135928455Y-96923086D01*
X136444199Y-97439730D01*
X137118395Y-97719681D01*
X137848403Y-97720318D01*
X138523086Y-97441545D01*
X139039730Y-96925801D01*
X139065558Y-96863599D01*
X143679699Y-96863599D01*
X143943281Y-97501515D01*
X144430918Y-97990004D01*
X145068373Y-98254699D01*
X145758599Y-98255301D01*
X146396515Y-97991719D01*
X146885004Y-97504082D01*
X147149699Y-96866627D01*
X147150301Y-96176401D01*
X146886719Y-95538485D01*
X146399082Y-95049996D01*
X145761627Y-94785301D01*
X145071401Y-94784699D01*
X144433485Y-95048281D01*
X143944996Y-95535918D01*
X143680301Y-96173373D01*
X143679699Y-96863599D01*
X139065558Y-96863599D01*
X139319681Y-96251605D01*
X139319831Y-96079565D01*
X141889396Y-93510000D01*
X145415000Y-93510000D01*
X145964151Y-93400767D01*
X146429698Y-93089698D01*
X147245000Y-92274396D01*
X147245000Y-98350000D01*
X109930000Y-98350000D01*
X109930000Y-96863599D01*
X110024699Y-96863599D01*
X110288281Y-97501515D01*
X110775918Y-97990004D01*
X111413373Y-98254699D01*
X112103599Y-98255301D01*
X112741515Y-97991719D01*
X113230004Y-97504082D01*
X113494699Y-96866627D01*
X113495301Y-96176401D01*
X113492967Y-96170750D01*
X120720000Y-96170750D01*
X120720000Y-97211310D01*
X120816673Y-97444699D01*
X120995302Y-97623327D01*
X121228691Y-97720000D01*
X122269250Y-97720000D01*
X122428000Y-97561250D01*
X122428000Y-96012000D01*
X120878750Y-96012000D01*
X120720000Y-96170750D01*
X113492967Y-96170750D01*
X113231719Y-95538485D01*
X112744082Y-95049996D01*
X112106627Y-94785301D01*
X111416401Y-94784699D01*
X110778485Y-95048281D01*
X110289996Y-95535918D01*
X110025301Y-96173373D01*
X110024699Y-96863599D01*
X109930000Y-96863599D01*
X109930000Y-94558690D01*
X120720000Y-94558690D01*
X120720000Y-95599250D01*
X120878750Y-95758000D01*
X122428000Y-95758000D01*
X122428000Y-94208750D01*
X122269250Y-94050000D01*
X121228691Y-94050000D01*
X120995302Y-94146673D01*
X120816673Y-94325301D01*
X120720000Y-94558690D01*
X109930000Y-94558690D01*
X109930000Y-86090000D01*
X110897560Y-86090000D01*
X110897560Y-88090000D01*
X110941838Y-88325317D01*
X111080910Y-88541441D01*
X111293110Y-88686431D01*
X111545000Y-88737440D01*
X113245000Y-88737440D01*
X113480317Y-88693162D01*
X113696441Y-88554090D01*
X113841431Y-88341890D01*
X113892440Y-88090000D01*
X113892440Y-87850000D01*
X114707560Y-87850000D01*
X114707560Y-88090000D01*
X114751838Y-88325317D01*
X114890910Y-88541441D01*
X115103110Y-88686431D01*
X115355000Y-88737440D01*
X117055000Y-88737440D01*
X117290317Y-88693162D01*
X117506441Y-88554090D01*
X117651431Y-88341890D01*
X117702440Y-88090000D01*
X117702440Y-88010434D01*
X118759876Y-88010434D01*
X118790856Y-88138355D01*
X119104078Y-88696317D01*
X119606980Y-89091942D01*
X120223000Y-89265000D01*
X120523000Y-89265000D01*
X120523000Y-87757000D01*
X120777000Y-87757000D01*
X120777000Y-89265000D01*
X121077000Y-89265000D01*
X121693020Y-89091942D01*
X122195922Y-88696317D01*
X122509144Y-88138355D01*
X122540124Y-88010434D01*
X124474876Y-88010434D01*
X124505856Y-88138355D01*
X124819078Y-88696317D01*
X125321980Y-89091942D01*
X125938000Y-89265000D01*
X126238000Y-89265000D01*
X126238000Y-87757000D01*
X124594223Y-87757000D01*
X124474876Y-88010434D01*
X122540124Y-88010434D01*
X122420777Y-87757000D01*
X120777000Y-87757000D01*
X120523000Y-87757000D01*
X118879223Y-87757000D01*
X118759876Y-88010434D01*
X117702440Y-88010434D01*
X117702440Y-86090000D01*
X117658162Y-85854683D01*
X117519090Y-85638559D01*
X117306890Y-85493569D01*
X117055000Y-85442560D01*
X115355000Y-85442560D01*
X115119683Y-85486838D01*
X114903559Y-85625910D01*
X114758569Y-85838110D01*
X114707560Y-86090000D01*
X114707560Y-86330000D01*
X113892440Y-86330000D01*
X113892440Y-86090000D01*
X113848162Y-85854683D01*
X113709090Y-85638559D01*
X113496890Y-85493569D01*
X113245000Y-85442560D01*
X111545000Y-85442560D01*
X111309683Y-85486838D01*
X111093559Y-85625910D01*
X110948569Y-85838110D01*
X110897560Y-86090000D01*
X109930000Y-86090000D01*
X109930000Y-83375750D01*
X110910000Y-83375750D01*
X110910000Y-84216309D01*
X111006673Y-84449698D01*
X111185301Y-84628327D01*
X111418690Y-84725000D01*
X112109250Y-84725000D01*
X112268000Y-84566250D01*
X112268000Y-83217000D01*
X112522000Y-83217000D01*
X112522000Y-84566250D01*
X112680750Y-84725000D01*
X113371310Y-84725000D01*
X113604699Y-84628327D01*
X113783327Y-84449698D01*
X113880000Y-84216309D01*
X113880000Y-83375750D01*
X113721250Y-83217000D01*
X112522000Y-83217000D01*
X112268000Y-83217000D01*
X111068750Y-83217000D01*
X110910000Y-83375750D01*
X109930000Y-83375750D01*
X109930000Y-81963691D01*
X110910000Y-81963691D01*
X110910000Y-82804250D01*
X111068750Y-82963000D01*
X112268000Y-82963000D01*
X112268000Y-81613750D01*
X112522000Y-81613750D01*
X112522000Y-82963000D01*
X113721250Y-82963000D01*
X113880000Y-82804250D01*
X113880000Y-81963691D01*
X113783327Y-81730302D01*
X113604699Y-81551673D01*
X113371310Y-81455000D01*
X112680750Y-81455000D01*
X112522000Y-81613750D01*
X112268000Y-81613750D01*
X112109250Y-81455000D01*
X111418690Y-81455000D01*
X111185301Y-81551673D01*
X111006673Y-81730302D01*
X110910000Y-81963691D01*
X109930000Y-81963691D01*
X109930000Y-62573599D01*
X110024699Y-62573599D01*
X110288281Y-63211515D01*
X110775918Y-63700004D01*
X111413373Y-63964699D01*
X112103599Y-63965301D01*
X112741515Y-63701719D01*
X113230004Y-63214082D01*
X113494699Y-62576627D01*
X113495301Y-61886401D01*
X113231719Y-61248485D01*
X112744082Y-60759996D01*
X112106627Y-60495301D01*
X111416401Y-60494699D01*
X110778485Y-60758281D01*
X110289996Y-61245918D01*
X110025301Y-61883373D01*
X110024699Y-62573599D01*
X109930000Y-62573599D01*
X109930000Y-60400000D01*
X147245000Y-60400000D01*
X147245000Y-84890604D01*
X147245000Y-84890604D01*
G37*
X147245000Y-84890604D02*
X146429698Y-84075302D01*
X146113597Y-83864090D01*
X145964151Y-83764233D01*
X145415000Y-83655000D01*
X144954306Y-83655000D01*
X144956431Y-83651890D01*
X145007440Y-83400000D01*
X145007440Y-81700000D01*
X144963162Y-81464683D01*
X144824090Y-81248559D01*
X144611890Y-81103569D01*
X144360000Y-81052560D01*
X142660000Y-81052560D01*
X142424683Y-81096838D01*
X142208559Y-81235910D01*
X142063569Y-81448110D01*
X142012560Y-81700000D01*
X142012560Y-83400000D01*
X142056838Y-83635317D01*
X142069504Y-83655000D01*
X139721177Y-83655000D01*
X139742440Y-83550000D01*
X139742440Y-81550000D01*
X139698162Y-81314683D01*
X139559090Y-81098559D01*
X139346890Y-80953569D01*
X139095000Y-80902560D01*
X136495000Y-80902560D01*
X136259683Y-80946838D01*
X136043559Y-81085910D01*
X135898569Y-81298110D01*
X135847560Y-81550000D01*
X135847560Y-83550000D01*
X135867317Y-83655000D01*
X134006177Y-83655000D01*
X134027440Y-83550000D01*
X134027440Y-81550000D01*
X133983162Y-81314683D01*
X133844090Y-81098559D01*
X133631890Y-80953569D01*
X133380000Y-80902560D01*
X130780000Y-80902560D01*
X130544683Y-80946838D01*
X130328559Y-81085910D01*
X130276537Y-81162046D01*
X130263909Y-81098559D01*
X130242148Y-80989160D01*
X130077401Y-80742599D01*
X128807401Y-79472599D01*
X128560839Y-79307852D01*
X128270000Y-79250000D01*
X117475000Y-79250000D01*
X117184160Y-79307852D01*
X116937599Y-79472599D01*
X116522500Y-79887698D01*
X116107401Y-79472599D01*
X115860839Y-79307852D01*
X115570000Y-79250000D01*
X113979802Y-79250000D01*
X111885000Y-77155198D01*
X111885000Y-76556890D01*
X112858524Y-76556890D01*
X113028355Y-76966924D01*
X113418642Y-77395183D01*
X113943108Y-77641486D01*
X114173000Y-77520819D01*
X114173000Y-76327000D01*
X114427000Y-76327000D01*
X114427000Y-77520819D01*
X114656892Y-77641486D01*
X115181358Y-77395183D01*
X115571645Y-76966924D01*
X115731724Y-76580434D01*
X117489876Y-76580434D01*
X117520856Y-76708355D01*
X117834078Y-77266317D01*
X118336980Y-77661942D01*
X118953000Y-77835000D01*
X119253000Y-77835000D01*
X119253000Y-76327000D01*
X119507000Y-76327000D01*
X119507000Y-77835000D01*
X119807000Y-77835000D01*
X120423020Y-77661942D01*
X120925922Y-77266317D01*
X121239144Y-76708355D01*
X121270124Y-76580434D01*
X123204876Y-76580434D01*
X123235856Y-76708355D01*
X123549078Y-77266317D01*
X124051980Y-77661942D01*
X124668000Y-77835000D01*
X124968000Y-77835000D01*
X124968000Y-76327000D01*
X125222000Y-76327000D01*
X125222000Y-77835000D01*
X125522000Y-77835000D01*
X126138020Y-77661942D01*
X126640922Y-77266317D01*
X126954144Y-76708355D01*
X126985124Y-76580434D01*
X128919876Y-76580434D01*
X128950856Y-76708355D01*
X129264078Y-77266317D01*
X129766980Y-77661942D01*
X130383000Y-77835000D01*
X130683000Y-77835000D01*
X130683000Y-76327000D01*
X130937000Y-76327000D01*
X130937000Y-77835000D01*
X131237000Y-77835000D01*
X131853020Y-77661942D01*
X132355922Y-77266317D01*
X132669144Y-76708355D01*
X132700124Y-76580434D01*
X134634876Y-76580434D01*
X134665856Y-76708355D01*
X134979078Y-77266317D01*
X135481980Y-77661942D01*
X136098000Y-77835000D01*
X136398000Y-77835000D01*
X136398000Y-76327000D01*
X136652000Y-76327000D01*
X136652000Y-77835000D01*
X136952000Y-77835000D01*
X137568020Y-77661942D01*
X138070922Y-77266317D01*
X138384144Y-76708355D01*
X138415124Y-76580434D01*
X140349876Y-76580434D01*
X140380856Y-76708355D01*
X140694078Y-77266317D01*
X141196980Y-77661942D01*
X141813000Y-77835000D01*
X142113000Y-77835000D01*
X142113000Y-76327000D01*
X142367000Y-76327000D01*
X142367000Y-77835000D01*
X142667000Y-77835000D01*
X143283020Y-77661942D01*
X143785922Y-77266317D01*
X144099144Y-76708355D01*
X144130124Y-76580434D01*
X144010777Y-76327000D01*
X142367000Y-76327000D01*
X142113000Y-76327000D01*
X140469223Y-76327000D01*
X140349876Y-76580434D01*
X138415124Y-76580434D01*
X138295777Y-76327000D01*
X136652000Y-76327000D01*
X136398000Y-76327000D01*
X134754223Y-76327000D01*
X134634876Y-76580434D01*
X132700124Y-76580434D01*
X132580777Y-76327000D01*
X130937000Y-76327000D01*
X130683000Y-76327000D01*
X129039223Y-76327000D01*
X128919876Y-76580434D01*
X126985124Y-76580434D01*
X126865777Y-76327000D01*
X125222000Y-76327000D01*
X124968000Y-76327000D01*
X123324223Y-76327000D01*
X123204876Y-76580434D01*
X121270124Y-76580434D01*
X121150777Y-76327000D01*
X119507000Y-76327000D01*
X119253000Y-76327000D01*
X117609223Y-76327000D01*
X117489876Y-76580434D01*
X115731724Y-76580434D01*
X115741476Y-76556890D01*
X115620155Y-76327000D01*
X114427000Y-76327000D01*
X114173000Y-76327000D01*
X112979845Y-76327000D01*
X112858524Y-76556890D01*
X111885000Y-76556890D01*
X111885000Y-75879802D01*
X113154321Y-74610481D01*
X113220853Y-74710054D01*
X113561553Y-74937702D01*
X113418642Y-75004817D01*
X113028355Y-75433076D01*
X112858524Y-75843110D01*
X112979845Y-76073000D01*
X114173000Y-76073000D01*
X114173000Y-76053000D01*
X114427000Y-76053000D01*
X114427000Y-76073000D01*
X115620155Y-76073000D01*
X115741476Y-75843110D01*
X115571645Y-75433076D01*
X115181358Y-75004817D01*
X115038447Y-74937702D01*
X115379147Y-74710054D01*
X115701054Y-74228285D01*
X115814093Y-73660000D01*
X117407091Y-73660000D01*
X117531548Y-74285687D01*
X117885971Y-74816120D01*
X118076188Y-74943219D01*
X117834078Y-75133683D01*
X117520856Y-75691645D01*
X117489876Y-75819566D01*
X117609223Y-76073000D01*
X119253000Y-76073000D01*
X119253000Y-76053000D01*
X119507000Y-76053000D01*
X119507000Y-76073000D01*
X121150777Y-76073000D01*
X121270124Y-75819566D01*
X121239144Y-75691645D01*
X120925922Y-75133683D01*
X120876750Y-75095000D01*
X123598250Y-75095000D01*
X123549078Y-75133683D01*
X123235856Y-75691645D01*
X123204876Y-75819566D01*
X123324223Y-76073000D01*
X124968000Y-76073000D01*
X124968000Y-76053000D01*
X125222000Y-76053000D01*
X125222000Y-76073000D01*
X126865777Y-76073000D01*
X126985124Y-75819566D01*
X126954144Y-75691645D01*
X126640922Y-75133683D01*
X126591750Y-75095000D01*
X129313250Y-75095000D01*
X129264078Y-75133683D01*
X128950856Y-75691645D01*
X128919876Y-75819566D01*
X129039223Y-76073000D01*
X130683000Y-76073000D01*
X130683000Y-76053000D01*
X130937000Y-76053000D01*
X130937000Y-76073000D01*
X132580777Y-76073000D01*
X132700124Y-75819566D01*
X132669144Y-75691645D01*
X132355922Y-75133683D01*
X132113812Y-74943219D01*
X132304029Y-74816120D01*
X132658452Y-74285687D01*
X132782909Y-73660000D01*
X132658452Y-73034313D01*
X132418907Y-72675808D01*
X132561441Y-72584090D01*
X132706431Y-72371890D01*
X132757440Y-72120000D01*
X132757440Y-70120000D01*
X132713162Y-69884683D01*
X132574090Y-69668559D01*
X132361890Y-69523569D01*
X132110000Y-69472560D01*
X129510000Y-69472560D01*
X129274683Y-69516838D01*
X129058559Y-69655910D01*
X128913569Y-69868110D01*
X128862560Y-70120000D01*
X128862560Y-72120000D01*
X128882317Y-72225000D01*
X127021177Y-72225000D01*
X127042440Y-72120000D01*
X127042440Y-70120000D01*
X126998162Y-69884683D01*
X126859090Y-69668559D01*
X126646890Y-69523569D01*
X126395000Y-69472560D01*
X123795000Y-69472560D01*
X123559683Y-69516838D01*
X123355000Y-69648548D01*
X123355000Y-65405000D01*
X123245767Y-64855849D01*
X123030000Y-64532931D01*
X123030000Y-64025322D01*
X123149730Y-63905801D01*
X123260000Y-63640242D01*
X123260000Y-64191310D01*
X123356673Y-64424699D01*
X123535302Y-64603327D01*
X123768691Y-64700000D01*
X124809250Y-64700000D01*
X124968000Y-64541250D01*
X124968000Y-62992000D01*
X125222000Y-62992000D01*
X125222000Y-64541250D01*
X125380750Y-64700000D01*
X126421309Y-64700000D01*
X126654698Y-64603327D01*
X126833327Y-64424699D01*
X126930000Y-64191310D01*
X126930000Y-63228403D01*
X131824682Y-63228403D01*
X132103455Y-63903086D01*
X132225000Y-64024843D01*
X132225000Y-65715000D01*
X132334233Y-66264151D01*
X132501845Y-66515000D01*
X132645302Y-66729698D01*
X134240302Y-68324698D01*
X134705849Y-68635767D01*
X135255000Y-68745000D01*
X143980000Y-68745000D01*
X143980000Y-69652099D01*
X143791890Y-69523569D01*
X143540000Y-69472560D01*
X140940000Y-69472560D01*
X140704683Y-69516838D01*
X140488559Y-69655910D01*
X140343569Y-69868110D01*
X140292560Y-70120000D01*
X140292560Y-72120000D01*
X140312317Y-72225000D01*
X138451177Y-72225000D01*
X138472440Y-72120000D01*
X138472440Y-70120000D01*
X138428162Y-69884683D01*
X138289090Y-69668559D01*
X138076890Y-69523569D01*
X137825000Y-69472560D01*
X135225000Y-69472560D01*
X134989683Y-69516838D01*
X134773559Y-69655910D01*
X134628569Y-69868110D01*
X134577560Y-70120000D01*
X134577560Y-72120000D01*
X134621838Y-72355317D01*
X134760910Y-72571441D01*
X134915329Y-72676951D01*
X134676548Y-73034313D01*
X134552091Y-73660000D01*
X134676548Y-74285687D01*
X135030971Y-74816120D01*
X135221188Y-74943219D01*
X134979078Y-75133683D01*
X134665856Y-75691645D01*
X134634876Y-75819566D01*
X134754223Y-76073000D01*
X136398000Y-76073000D01*
X136398000Y-76053000D01*
X136652000Y-76053000D01*
X136652000Y-76073000D01*
X138295777Y-76073000D01*
X138415124Y-75819566D01*
X138384144Y-75691645D01*
X138070922Y-75133683D01*
X138021750Y-75095000D01*
X140743250Y-75095000D01*
X140694078Y-75133683D01*
X140380856Y-75691645D01*
X140349876Y-75819566D01*
X140469223Y-76073000D01*
X142113000Y-76073000D01*
X142113000Y-76053000D01*
X142367000Y-76053000D01*
X142367000Y-76073000D01*
X144010777Y-76073000D01*
X144130124Y-75819566D01*
X144099144Y-75691645D01*
X143785922Y-75133683D01*
X143736750Y-75095000D01*
X144780000Y-75095000D01*
X145329151Y-74985767D01*
X145794698Y-74674698D01*
X146429699Y-74039698D01*
X146740768Y-73574150D01*
X146850000Y-73025000D01*
X146850000Y-67945000D01*
X146832923Y-67859150D01*
X146740768Y-67395850D01*
X146429699Y-66930302D01*
X145794698Y-66295302D01*
X145494473Y-66094698D01*
X145329151Y-65984233D01*
X144780000Y-65875000D01*
X135849396Y-65875000D01*
X135095000Y-65120604D01*
X135095000Y-64025322D01*
X135214730Y-63905801D01*
X135325000Y-63640242D01*
X135325000Y-64191310D01*
X135421673Y-64424699D01*
X135600302Y-64603327D01*
X135833691Y-64700000D01*
X136874250Y-64700000D01*
X137033000Y-64541250D01*
X137033000Y-62992000D01*
X137287000Y-62992000D01*
X137287000Y-64541250D01*
X137445750Y-64700000D01*
X138486309Y-64700000D01*
X138719698Y-64603327D01*
X138898327Y-64424699D01*
X138995000Y-64191310D01*
X138995000Y-63150750D01*
X138836250Y-62992000D01*
X137287000Y-62992000D01*
X137033000Y-62992000D01*
X137013000Y-62992000D01*
X137013000Y-62738000D01*
X137033000Y-62738000D01*
X137033000Y-61188750D01*
X137287000Y-61188750D01*
X137287000Y-62738000D01*
X138836250Y-62738000D01*
X138995000Y-62579250D01*
X138995000Y-62573599D01*
X143679699Y-62573599D01*
X143943281Y-63211515D01*
X144430918Y-63700004D01*
X145068373Y-63964699D01*
X145758599Y-63965301D01*
X146396515Y-63701719D01*
X146885004Y-63214082D01*
X147149699Y-62576627D01*
X147150301Y-61886401D01*
X146886719Y-61248485D01*
X146399082Y-60759996D01*
X145761627Y-60495301D01*
X145071401Y-60494699D01*
X144433485Y-60758281D01*
X143944996Y-61245918D01*
X143680301Y-61883373D01*
X143679699Y-62573599D01*
X138995000Y-62573599D01*
X138995000Y-61538690D01*
X138898327Y-61305301D01*
X138719698Y-61126673D01*
X138486309Y-61030000D01*
X137445750Y-61030000D01*
X137287000Y-61188750D01*
X137033000Y-61188750D01*
X136874250Y-61030000D01*
X135833691Y-61030000D01*
X135600302Y-61126673D01*
X135421673Y-61305301D01*
X135325000Y-61538690D01*
X135325000Y-62089395D01*
X135216545Y-61826914D01*
X134700801Y-61310270D01*
X134026605Y-61030319D01*
X133296597Y-61029682D01*
X132621914Y-61308455D01*
X132105270Y-61824199D01*
X131825319Y-62498395D01*
X131824682Y-63228403D01*
X126930000Y-63228403D01*
X126930000Y-63150750D01*
X126771250Y-62992000D01*
X125222000Y-62992000D01*
X124968000Y-62992000D01*
X124948000Y-62992000D01*
X124948000Y-62738000D01*
X124968000Y-62738000D01*
X124968000Y-61188750D01*
X125222000Y-61188750D01*
X125222000Y-62738000D01*
X126771250Y-62738000D01*
X126930000Y-62579250D01*
X126930000Y-61538690D01*
X126833327Y-61305301D01*
X126654698Y-61126673D01*
X126421309Y-61030000D01*
X125380750Y-61030000D01*
X125222000Y-61188750D01*
X124968000Y-61188750D01*
X124809250Y-61030000D01*
X123768691Y-61030000D01*
X123535302Y-61126673D01*
X123356673Y-61305301D01*
X123260000Y-61538690D01*
X123260000Y-62089395D01*
X123151545Y-61826914D01*
X122635801Y-61310270D01*
X121961605Y-61030319D01*
X121231597Y-61029682D01*
X120556914Y-61308455D01*
X120040270Y-61824199D01*
X119760319Y-62498395D01*
X119759682Y-63228403D01*
X120038455Y-63903086D01*
X120160000Y-64024843D01*
X120160000Y-65080000D01*
X120269233Y-65629151D01*
X120485000Y-65952069D01*
X120485000Y-69472560D01*
X118080000Y-69472560D01*
X117844683Y-69516838D01*
X117628559Y-69655910D01*
X117483569Y-69868110D01*
X117432560Y-70120000D01*
X117432560Y-72120000D01*
X117476838Y-72355317D01*
X117615910Y-72571441D01*
X117770329Y-72676951D01*
X117531548Y-73034313D01*
X117407091Y-73660000D01*
X115814093Y-73660000D01*
X115701054Y-73091715D01*
X115379147Y-72609946D01*
X115337548Y-72582150D01*
X115385317Y-72573162D01*
X115601441Y-72434090D01*
X115746431Y-72221890D01*
X115797440Y-71970000D01*
X115797440Y-70270000D01*
X115753162Y-70034683D01*
X115614090Y-69818559D01*
X115401890Y-69673569D01*
X115150000Y-69622560D01*
X113450000Y-69622560D01*
X113214683Y-69666838D01*
X112998559Y-69805910D01*
X112853569Y-70018110D01*
X112802560Y-70270000D01*
X112802560Y-71970000D01*
X112846838Y-72205317D01*
X112985910Y-72421441D01*
X113198110Y-72566431D01*
X113265541Y-72580086D01*
X113220853Y-72609946D01*
X113026593Y-72900678D01*
X112739161Y-72957852D01*
X112492599Y-73122599D01*
X110587599Y-75027599D01*
X110422852Y-75274161D01*
X110365000Y-75565000D01*
X110365000Y-77470000D01*
X110422852Y-77760839D01*
X110587599Y-78007401D01*
X113127599Y-80547401D01*
X113374160Y-80712148D01*
X113422414Y-80721746D01*
X113665000Y-80770000D01*
X115255198Y-80770000D01*
X115445000Y-80959802D01*
X115445000Y-81442560D01*
X115355000Y-81442560D01*
X115119683Y-81486838D01*
X114903559Y-81625910D01*
X114758569Y-81838110D01*
X114707560Y-82090000D01*
X114707560Y-84090000D01*
X114751838Y-84325317D01*
X114890910Y-84541441D01*
X115103110Y-84686431D01*
X115355000Y-84737440D01*
X117055000Y-84737440D01*
X117290317Y-84693162D01*
X117506441Y-84554090D01*
X117651431Y-84341890D01*
X117702440Y-84090000D01*
X117702440Y-82090000D01*
X117658162Y-81854683D01*
X117519090Y-81638559D01*
X117306890Y-81493569D01*
X117106760Y-81453042D01*
X117789802Y-80770000D01*
X127955198Y-80770000D01*
X128780000Y-81594802D01*
X128780000Y-83756445D01*
X128290357Y-83659049D01*
X128312440Y-83550000D01*
X128312440Y-81550000D01*
X128268162Y-81314683D01*
X128129090Y-81098559D01*
X127916890Y-80953569D01*
X127665000Y-80902560D01*
X125065000Y-80902560D01*
X124829683Y-80946838D01*
X124613559Y-81085910D01*
X124468569Y-81298110D01*
X124417560Y-81550000D01*
X124417560Y-83550000D01*
X124437317Y-83655000D01*
X122576177Y-83655000D01*
X122597440Y-83550000D01*
X122597440Y-81550000D01*
X122553162Y-81314683D01*
X122414090Y-81098559D01*
X122201890Y-80953569D01*
X121950000Y-80902560D01*
X119350000Y-80902560D01*
X119114683Y-80946838D01*
X118898559Y-81085910D01*
X118753569Y-81298110D01*
X118702560Y-81550000D01*
X118702560Y-83550000D01*
X118746838Y-83785317D01*
X118885910Y-84001441D01*
X119040329Y-84106951D01*
X118801548Y-84464313D01*
X118677091Y-85090000D01*
X118801548Y-85715687D01*
X119155971Y-86246120D01*
X119346188Y-86373219D01*
X119104078Y-86563683D01*
X118790856Y-87121645D01*
X118759876Y-87249566D01*
X118879223Y-87503000D01*
X120523000Y-87503000D01*
X120523000Y-87483000D01*
X120777000Y-87483000D01*
X120777000Y-87503000D01*
X122420777Y-87503000D01*
X122540124Y-87249566D01*
X122509144Y-87121645D01*
X122195922Y-86563683D01*
X122146750Y-86525000D01*
X124868250Y-86525000D01*
X124819078Y-86563683D01*
X124505856Y-87121645D01*
X124474876Y-87249566D01*
X124594223Y-87503000D01*
X126238000Y-87503000D01*
X126238000Y-87483000D01*
X126492000Y-87483000D01*
X126492000Y-87503000D01*
X126512000Y-87503000D01*
X126512000Y-87757000D01*
X126492000Y-87757000D01*
X126492000Y-89265000D01*
X126792000Y-89265000D01*
X127408020Y-89091942D01*
X127470000Y-89043183D01*
X127470000Y-92750603D01*
X126170504Y-94050100D01*
X125691597Y-94049682D01*
X125016914Y-94328455D01*
X124500270Y-94844199D01*
X124390000Y-95109758D01*
X124390000Y-94558690D01*
X124293327Y-94325301D01*
X124114698Y-94146673D01*
X123881309Y-94050000D01*
X122840750Y-94050000D01*
X122682000Y-94208750D01*
X122682000Y-95758000D01*
X122702000Y-95758000D01*
X122702000Y-96012000D01*
X122682000Y-96012000D01*
X122682000Y-97561250D01*
X122840750Y-97720000D01*
X123881309Y-97720000D01*
X124114698Y-97623327D01*
X124293327Y-97444699D01*
X124390000Y-97211310D01*
X124390000Y-96660605D01*
X124498455Y-96923086D01*
X125014199Y-97439730D01*
X125688395Y-97719681D01*
X126418403Y-97720318D01*
X127093086Y-97441545D01*
X127609730Y-96925801D01*
X127791610Y-96487786D01*
X128108646Y-96170750D01*
X132150000Y-96170750D01*
X132150000Y-97211310D01*
X132246673Y-97444699D01*
X132425302Y-97623327D01*
X132658691Y-97720000D01*
X133699250Y-97720000D01*
X133858000Y-97561250D01*
X133858000Y-96012000D01*
X132308750Y-96012000D01*
X132150000Y-96170750D01*
X128108646Y-96170750D01*
X129720706Y-94558690D01*
X132150000Y-94558690D01*
X132150000Y-95599250D01*
X132308750Y-95758000D01*
X133858000Y-95758000D01*
X133858000Y-94208750D01*
X133699250Y-94050000D01*
X132658691Y-94050000D01*
X132425302Y-94146673D01*
X132246673Y-94325301D01*
X132150000Y-94558690D01*
X129720706Y-94558690D01*
X129919698Y-94359699D01*
X130230767Y-93894151D01*
X130307179Y-93510000D01*
X130340000Y-93345000D01*
X130340000Y-88350594D01*
X130534078Y-88696317D01*
X131036980Y-89091942D01*
X131653000Y-89265000D01*
X131953000Y-89265000D01*
X131953000Y-87757000D01*
X132207000Y-87757000D01*
X132207000Y-89265000D01*
X132507000Y-89265000D01*
X133123020Y-89091942D01*
X133625922Y-88696317D01*
X133939144Y-88138355D01*
X133970124Y-88010434D01*
X135904876Y-88010434D01*
X135935856Y-88138355D01*
X136249078Y-88696317D01*
X136751980Y-89091942D01*
X137368000Y-89265000D01*
X137668000Y-89265000D01*
X137668000Y-87757000D01*
X137922000Y-87757000D01*
X137922000Y-89265000D01*
X138222000Y-89265000D01*
X138838020Y-89091942D01*
X139340922Y-88696317D01*
X139654144Y-88138355D01*
X139685124Y-88010434D01*
X139674037Y-87986890D01*
X142068524Y-87986890D01*
X142238355Y-88396924D01*
X142628642Y-88825183D01*
X143153108Y-89071486D01*
X143383000Y-88950819D01*
X143383000Y-87757000D01*
X143637000Y-87757000D01*
X143637000Y-88950819D01*
X143866892Y-89071486D01*
X144391358Y-88825183D01*
X144781645Y-88396924D01*
X144951476Y-87986890D01*
X144830155Y-87757000D01*
X143637000Y-87757000D01*
X143383000Y-87757000D01*
X142189845Y-87757000D01*
X142068524Y-87986890D01*
X139674037Y-87986890D01*
X139565777Y-87757000D01*
X137922000Y-87757000D01*
X137668000Y-87757000D01*
X136024223Y-87757000D01*
X135904876Y-88010434D01*
X133970124Y-88010434D01*
X133850777Y-87757000D01*
X132207000Y-87757000D01*
X131953000Y-87757000D01*
X131933000Y-87757000D01*
X131933000Y-87503000D01*
X131953000Y-87503000D01*
X131953000Y-87483000D01*
X132207000Y-87483000D01*
X132207000Y-87503000D01*
X133850777Y-87503000D01*
X133970124Y-87249566D01*
X133939144Y-87121645D01*
X133625922Y-86563683D01*
X133576750Y-86525000D01*
X136298250Y-86525000D01*
X136249078Y-86563683D01*
X135935856Y-87121645D01*
X135904876Y-87249566D01*
X136024223Y-87503000D01*
X137668000Y-87503000D01*
X137668000Y-87483000D01*
X137922000Y-87483000D01*
X137922000Y-87503000D01*
X139565777Y-87503000D01*
X139685124Y-87249566D01*
X139654144Y-87121645D01*
X139340922Y-86563683D01*
X139291750Y-86525000D01*
X142546455Y-86525000D01*
X142238355Y-86863076D01*
X142068524Y-87273110D01*
X142189845Y-87503000D01*
X143383000Y-87503000D01*
X143383000Y-87483000D01*
X143637000Y-87483000D01*
X143637000Y-87503000D01*
X144830155Y-87503000D01*
X144951476Y-87273110D01*
X144781645Y-86863076D01*
X144473545Y-86525000D01*
X144820604Y-86525000D01*
X145250000Y-86954396D01*
X145250000Y-90210604D01*
X144820604Y-90640000D01*
X141295000Y-90640000D01*
X140745849Y-90749233D01*
X140280302Y-91060302D01*
X137290774Y-94049830D01*
X137121597Y-94049682D01*
X136446914Y-94328455D01*
X135930270Y-94844199D01*
X135820000Y-95109758D01*
X135820000Y-94558690D01*
X135723327Y-94325301D01*
X135544698Y-94146673D01*
X135311309Y-94050000D01*
X134270750Y-94050000D01*
X134112000Y-94208750D01*
X134112000Y-95758000D01*
X134132000Y-95758000D01*
X134132000Y-96012000D01*
X134112000Y-96012000D01*
X134112000Y-97561250D01*
X134270750Y-97720000D01*
X135311309Y-97720000D01*
X135544698Y-97623327D01*
X135723327Y-97444699D01*
X135820000Y-97211310D01*
X135820000Y-96660605D01*
X135928455Y-96923086D01*
X136444199Y-97439730D01*
X137118395Y-97719681D01*
X137848403Y-97720318D01*
X138523086Y-97441545D01*
X139039730Y-96925801D01*
X139065558Y-96863599D01*
X143679699Y-96863599D01*
X143943281Y-97501515D01*
X144430918Y-97990004D01*
X145068373Y-98254699D01*
X145758599Y-98255301D01*
X146396515Y-97991719D01*
X146885004Y-97504082D01*
X147149699Y-96866627D01*
X147150301Y-96176401D01*
X146886719Y-95538485D01*
X146399082Y-95049996D01*
X145761627Y-94785301D01*
X145071401Y-94784699D01*
X144433485Y-95048281D01*
X143944996Y-95535918D01*
X143680301Y-96173373D01*
X143679699Y-96863599D01*
X139065558Y-96863599D01*
X139319681Y-96251605D01*
X139319831Y-96079565D01*
X141889396Y-93510000D01*
X145415000Y-93510000D01*
X145964151Y-93400767D01*
X146429698Y-93089698D01*
X147245000Y-92274396D01*
X147245000Y-98350000D01*
X109930000Y-98350000D01*
X109930000Y-96863599D01*
X110024699Y-96863599D01*
X110288281Y-97501515D01*
X110775918Y-97990004D01*
X111413373Y-98254699D01*
X112103599Y-98255301D01*
X112741515Y-97991719D01*
X113230004Y-97504082D01*
X113494699Y-96866627D01*
X113495301Y-96176401D01*
X113492967Y-96170750D01*
X120720000Y-96170750D01*
X120720000Y-97211310D01*
X120816673Y-97444699D01*
X120995302Y-97623327D01*
X121228691Y-97720000D01*
X122269250Y-97720000D01*
X122428000Y-97561250D01*
X122428000Y-96012000D01*
X120878750Y-96012000D01*
X120720000Y-96170750D01*
X113492967Y-96170750D01*
X113231719Y-95538485D01*
X112744082Y-95049996D01*
X112106627Y-94785301D01*
X111416401Y-94784699D01*
X110778485Y-95048281D01*
X110289996Y-95535918D01*
X110025301Y-96173373D01*
X110024699Y-96863599D01*
X109930000Y-96863599D01*
X109930000Y-94558690D01*
X120720000Y-94558690D01*
X120720000Y-95599250D01*
X120878750Y-95758000D01*
X122428000Y-95758000D01*
X122428000Y-94208750D01*
X122269250Y-94050000D01*
X121228691Y-94050000D01*
X120995302Y-94146673D01*
X120816673Y-94325301D01*
X120720000Y-94558690D01*
X109930000Y-94558690D01*
X109930000Y-86090000D01*
X110897560Y-86090000D01*
X110897560Y-88090000D01*
X110941838Y-88325317D01*
X111080910Y-88541441D01*
X111293110Y-88686431D01*
X111545000Y-88737440D01*
X113245000Y-88737440D01*
X113480317Y-88693162D01*
X113696441Y-88554090D01*
X113841431Y-88341890D01*
X113892440Y-88090000D01*
X113892440Y-87850000D01*
X114707560Y-87850000D01*
X114707560Y-88090000D01*
X114751838Y-88325317D01*
X114890910Y-88541441D01*
X115103110Y-88686431D01*
X115355000Y-88737440D01*
X117055000Y-88737440D01*
X117290317Y-88693162D01*
X117506441Y-88554090D01*
X117651431Y-88341890D01*
X117702440Y-88090000D01*
X117702440Y-88010434D01*
X118759876Y-88010434D01*
X118790856Y-88138355D01*
X119104078Y-88696317D01*
X119606980Y-89091942D01*
X120223000Y-89265000D01*
X120523000Y-89265000D01*
X120523000Y-87757000D01*
X120777000Y-87757000D01*
X120777000Y-89265000D01*
X121077000Y-89265000D01*
X121693020Y-89091942D01*
X122195922Y-88696317D01*
X122509144Y-88138355D01*
X122540124Y-88010434D01*
X124474876Y-88010434D01*
X124505856Y-88138355D01*
X124819078Y-88696317D01*
X125321980Y-89091942D01*
X125938000Y-89265000D01*
X126238000Y-89265000D01*
X126238000Y-87757000D01*
X124594223Y-87757000D01*
X124474876Y-88010434D01*
X122540124Y-88010434D01*
X122420777Y-87757000D01*
X120777000Y-87757000D01*
X120523000Y-87757000D01*
X118879223Y-87757000D01*
X118759876Y-88010434D01*
X117702440Y-88010434D01*
X117702440Y-86090000D01*
X117658162Y-85854683D01*
X117519090Y-85638559D01*
X117306890Y-85493569D01*
X117055000Y-85442560D01*
X115355000Y-85442560D01*
X115119683Y-85486838D01*
X114903559Y-85625910D01*
X114758569Y-85838110D01*
X114707560Y-86090000D01*
X114707560Y-86330000D01*
X113892440Y-86330000D01*
X113892440Y-86090000D01*
X113848162Y-85854683D01*
X113709090Y-85638559D01*
X113496890Y-85493569D01*
X113245000Y-85442560D01*
X111545000Y-85442560D01*
X111309683Y-85486838D01*
X111093559Y-85625910D01*
X110948569Y-85838110D01*
X110897560Y-86090000D01*
X109930000Y-86090000D01*
X109930000Y-83375750D01*
X110910000Y-83375750D01*
X110910000Y-84216309D01*
X111006673Y-84449698D01*
X111185301Y-84628327D01*
X111418690Y-84725000D01*
X112109250Y-84725000D01*
X112268000Y-84566250D01*
X112268000Y-83217000D01*
X112522000Y-83217000D01*
X112522000Y-84566250D01*
X112680750Y-84725000D01*
X113371310Y-84725000D01*
X113604699Y-84628327D01*
X113783327Y-84449698D01*
X113880000Y-84216309D01*
X113880000Y-83375750D01*
X113721250Y-83217000D01*
X112522000Y-83217000D01*
X112268000Y-83217000D01*
X111068750Y-83217000D01*
X110910000Y-83375750D01*
X109930000Y-83375750D01*
X109930000Y-81963691D01*
X110910000Y-81963691D01*
X110910000Y-82804250D01*
X111068750Y-82963000D01*
X112268000Y-82963000D01*
X112268000Y-81613750D01*
X112522000Y-81613750D01*
X112522000Y-82963000D01*
X113721250Y-82963000D01*
X113880000Y-82804250D01*
X113880000Y-81963691D01*
X113783327Y-81730302D01*
X113604699Y-81551673D01*
X113371310Y-81455000D01*
X112680750Y-81455000D01*
X112522000Y-81613750D01*
X112268000Y-81613750D01*
X112109250Y-81455000D01*
X111418690Y-81455000D01*
X111185301Y-81551673D01*
X111006673Y-81730302D01*
X110910000Y-81963691D01*
X109930000Y-81963691D01*
X109930000Y-62573599D01*
X110024699Y-62573599D01*
X110288281Y-63211515D01*
X110775918Y-63700004D01*
X111413373Y-63964699D01*
X112103599Y-63965301D01*
X112741515Y-63701719D01*
X113230004Y-63214082D01*
X113494699Y-62576627D01*
X113495301Y-61886401D01*
X113231719Y-61248485D01*
X112744082Y-60759996D01*
X112106627Y-60495301D01*
X111416401Y-60494699D01*
X110778485Y-60758281D01*
X110289996Y-61245918D01*
X110025301Y-61883373D01*
X110024699Y-62573599D01*
X109930000Y-62573599D01*
X109930000Y-60400000D01*
X147245000Y-60400000D01*
X147245000Y-84890604D01*
M02*
