G04 #@! TF.FileFunction,Soldermask,Top*
%FSLAX46Y46*%
G04 Gerber Fmt 4.6, Leading zero omitted, Abs format (unit mm)*
G04 Created by KiCad (PCBNEW 4.0.7) date 03/19/18 09:27:52*
%MOMM*%
%LPD*%
G01*
G04 APERTURE LIST*
%ADD10C,0.100000*%
%ADD11R,2.400000X2.100000*%
%ADD12R,3.000000X2.400000*%
%ADD13O,3.000000X2.400000*%
%ADD14R,2.400000X3.000000*%
%ADD15O,2.400000X3.000000*%
%ADD16R,2.000000X2.000000*%
%ADD17C,2.000000*%
%ADD18C,2.600000*%
%ADD19R,2.100000X2.100000*%
%ADD20O,2.100000X2.100000*%
%ADD21C,2.800000*%
%ADD22R,2.800000X2.800000*%
%ADD23C,3.900120*%
G04 APERTURE END LIST*
D10*
D11*
X145510000Y-71755000D03*
X141510000Y-71755000D03*
X141510000Y-67945000D03*
X145510000Y-67945000D03*
D12*
X112395000Y-81280000D03*
D13*
X112395000Y-78740000D03*
X112395000Y-76200000D03*
D14*
X126365000Y-62865000D03*
D15*
X128905000Y-62865000D03*
X131445000Y-62865000D03*
D12*
X144780000Y-76835000D03*
D13*
X144780000Y-79375000D03*
X144780000Y-81915000D03*
D14*
X129540000Y-95885000D03*
D15*
X127000000Y-95885000D03*
X124460000Y-95885000D03*
D16*
X114300000Y-69215000D03*
D17*
X111800000Y-69215000D03*
D16*
X137795000Y-64770000D03*
D17*
X137795000Y-62270000D03*
D16*
X136525000Y-93980000D03*
D17*
X136525000Y-96480000D03*
D16*
X142240000Y-88900000D03*
D17*
X144740000Y-88900000D03*
D12*
X139065000Y-76835000D03*
D13*
X139065000Y-79375000D03*
X139065000Y-81915000D03*
D18*
X145415000Y-62230000D03*
X111760000Y-62230000D03*
X111760000Y-96520000D03*
X145415000Y-96520000D03*
D19*
X120650000Y-62230000D03*
D20*
X118110000Y-62230000D03*
D21*
X112395000Y-90495000D03*
D22*
X112395000Y-86995000D03*
D23*
X130810000Y-76200000D03*
X125730000Y-76200000D03*
X120650000Y-76200000D03*
X120650000Y-71120000D03*
X125730000Y-71120000D03*
X130810000Y-71120000D03*
M02*
