G04 #@! TF.FileFunction,Legend,Bot*
%FSLAX46Y46*%
G04 Gerber Fmt 4.6, Leading zero omitted, Abs format (unit mm)*
G04 Created by KiCad (PCBNEW 4.0.7) date Sunday, March 11, 2018 'PMt' 08:42:03 PM*
%MOMM*%
%LPD*%
G01*
G04 APERTURE LIST*
%ADD10C,0.100000*%
%ADD11C,0.120000*%
%ADD12C,0.010000*%
%ADD13C,0.150000*%
G04 APERTURE END LIST*
D10*
D11*
X132445000Y-83570000D02*
X130445000Y-83570000D01*
X130445000Y-81530000D02*
X132445000Y-81530000D01*
X122190000Y-87880000D02*
X124190000Y-87880000D01*
X124190000Y-89920000D02*
X122190000Y-89920000D01*
X120010000Y-85960000D02*
X120010000Y-84700000D01*
X120010000Y-79140000D02*
X120010000Y-80400000D01*
X123770000Y-85960000D02*
X120010000Y-85960000D01*
X126020000Y-79140000D02*
X120010000Y-79140000D01*
D12*
G36*
X117242603Y-65926609D02*
X117321920Y-65925803D01*
X117554331Y-65920195D01*
X117748974Y-65903538D01*
X117912484Y-65874043D01*
X118051494Y-65829926D01*
X118172639Y-65769398D01*
X118282551Y-65690673D01*
X118321809Y-65656475D01*
X118386931Y-65576458D01*
X118445652Y-65467877D01*
X118490911Y-65347520D01*
X118515645Y-65232176D01*
X118518215Y-65189554D01*
X118502110Y-65071401D01*
X118458953Y-64942341D01*
X118396476Y-64820181D01*
X118322413Y-64722731D01*
X118310383Y-64710973D01*
X118208481Y-64628329D01*
X118096892Y-64563814D01*
X117969182Y-64515740D01*
X117818918Y-64482416D01*
X117639666Y-64462151D01*
X117424993Y-64453254D01*
X117326663Y-64452500D01*
X117201640Y-64453102D01*
X117113718Y-64455619D01*
X117054647Y-64461119D01*
X117016180Y-64470668D01*
X116990068Y-64485334D01*
X116976072Y-64497857D01*
X116962851Y-64513071D01*
X116952480Y-64532698D01*
X116944615Y-64561995D01*
X116938909Y-64606220D01*
X116935019Y-64670631D01*
X116932600Y-64760486D01*
X116931306Y-64881041D01*
X116930794Y-65037556D01*
X116930715Y-65189554D01*
X116930215Y-65392283D01*
X116930323Y-65554232D01*
X116932252Y-65631786D01*
X117225536Y-65631786D01*
X117225536Y-64747321D01*
X117412634Y-64747493D01*
X117525216Y-64750722D01*
X117643128Y-64759040D01*
X117741507Y-64770675D01*
X117744500Y-64771154D01*
X117903500Y-64809596D01*
X118026826Y-64869467D01*
X118120637Y-64954665D01*
X118180243Y-65046909D01*
X118216970Y-65149234D01*
X118214122Y-65245314D01*
X118171498Y-65348304D01*
X118088126Y-65454847D01*
X117972594Y-65533796D01*
X117822423Y-65586567D01*
X117722061Y-65605242D01*
X117608137Y-65618357D01*
X117487395Y-65627850D01*
X117384699Y-65631796D01*
X117378616Y-65631815D01*
X117225536Y-65631786D01*
X116932252Y-65631786D01*
X116933451Y-65679941D01*
X116942014Y-65773952D01*
X116958422Y-65840803D01*
X116985090Y-65885037D01*
X117024429Y-65911194D01*
X117078852Y-65923814D01*
X117150773Y-65927439D01*
X117242603Y-65926609D01*
X117242603Y-65926609D01*
G37*
X117242603Y-65926609D02*
X117321920Y-65925803D01*
X117554331Y-65920195D01*
X117748974Y-65903538D01*
X117912484Y-65874043D01*
X118051494Y-65829926D01*
X118172639Y-65769398D01*
X118282551Y-65690673D01*
X118321809Y-65656475D01*
X118386931Y-65576458D01*
X118445652Y-65467877D01*
X118490911Y-65347520D01*
X118515645Y-65232176D01*
X118518215Y-65189554D01*
X118502110Y-65071401D01*
X118458953Y-64942341D01*
X118396476Y-64820181D01*
X118322413Y-64722731D01*
X118310383Y-64710973D01*
X118208481Y-64628329D01*
X118096892Y-64563814D01*
X117969182Y-64515740D01*
X117818918Y-64482416D01*
X117639666Y-64462151D01*
X117424993Y-64453254D01*
X117326663Y-64452500D01*
X117201640Y-64453102D01*
X117113718Y-64455619D01*
X117054647Y-64461119D01*
X117016180Y-64470668D01*
X116990068Y-64485334D01*
X116976072Y-64497857D01*
X116962851Y-64513071D01*
X116952480Y-64532698D01*
X116944615Y-64561995D01*
X116938909Y-64606220D01*
X116935019Y-64670631D01*
X116932600Y-64760486D01*
X116931306Y-64881041D01*
X116930794Y-65037556D01*
X116930715Y-65189554D01*
X116930215Y-65392283D01*
X116930323Y-65554232D01*
X116932252Y-65631786D01*
X117225536Y-65631786D01*
X117225536Y-64747321D01*
X117412634Y-64747493D01*
X117525216Y-64750722D01*
X117643128Y-64759040D01*
X117741507Y-64770675D01*
X117744500Y-64771154D01*
X117903500Y-64809596D01*
X118026826Y-64869467D01*
X118120637Y-64954665D01*
X118180243Y-65046909D01*
X118216970Y-65149234D01*
X118214122Y-65245314D01*
X118171498Y-65348304D01*
X118088126Y-65454847D01*
X117972594Y-65533796D01*
X117822423Y-65586567D01*
X117722061Y-65605242D01*
X117608137Y-65618357D01*
X117487395Y-65627850D01*
X117384699Y-65631796D01*
X117378616Y-65631815D01*
X117225536Y-65631786D01*
X116932252Y-65631786D01*
X116933451Y-65679941D01*
X116942014Y-65773952D01*
X116958422Y-65840803D01*
X116985090Y-65885037D01*
X117024429Y-65911194D01*
X117078852Y-65923814D01*
X117150773Y-65927439D01*
X117242603Y-65926609D01*
G36*
X120072334Y-65926448D02*
X120211770Y-65925700D01*
X120317017Y-65923960D01*
X120393656Y-65920823D01*
X120447270Y-65915887D01*
X120483443Y-65908747D01*
X120507759Y-65898999D01*
X120525799Y-65886239D01*
X120532331Y-65880367D01*
X120572058Y-65817973D01*
X120579211Y-65746282D01*
X120553077Y-65682636D01*
X120540993Y-65669773D01*
X120521448Y-65657302D01*
X120489977Y-65647680D01*
X120440744Y-65640441D01*
X120367914Y-65635117D01*
X120265651Y-65631238D01*
X120128118Y-65628336D01*
X120002377Y-65626571D01*
X119504732Y-65620446D01*
X119497931Y-65490045D01*
X119491130Y-65359643D01*
X119828925Y-65359643D01*
X119975574Y-65358378D01*
X120082936Y-65353086D01*
X120157043Y-65341522D01*
X120203931Y-65321442D01*
X120229633Y-65290602D01*
X120240184Y-65246756D01*
X120241786Y-65206063D01*
X120236807Y-65156132D01*
X120218016Y-65119340D01*
X120179633Y-65093765D01*
X120115880Y-65077484D01*
X120020976Y-65068574D01*
X119889142Y-65065113D01*
X119817186Y-65064821D01*
X119493393Y-65064821D01*
X119493393Y-64747321D01*
X119992322Y-64747321D01*
X120155867Y-64747094D01*
X120280163Y-64746071D01*
X120371314Y-64743744D01*
X120435428Y-64739605D01*
X120478610Y-64733143D01*
X120506967Y-64723852D01*
X120526605Y-64711221D01*
X120536607Y-64701964D01*
X120570918Y-64647937D01*
X120581965Y-64599911D01*
X120566191Y-64541249D01*
X120536607Y-64497857D01*
X120520824Y-64484197D01*
X120500449Y-64473590D01*
X120470002Y-64465652D01*
X120424003Y-64459997D01*
X120356970Y-64456241D01*
X120263422Y-64454000D01*
X120137880Y-64452889D01*
X119974862Y-64452524D01*
X119890268Y-64452500D01*
X119709112Y-64452660D01*
X119567832Y-64453398D01*
X119460948Y-64455096D01*
X119382978Y-64458141D01*
X119328441Y-64462917D01*
X119291858Y-64469808D01*
X119267747Y-64479199D01*
X119250627Y-64491475D01*
X119243929Y-64497857D01*
X119230672Y-64513118D01*
X119220281Y-64532807D01*
X119212409Y-64562199D01*
X119206707Y-64606570D01*
X119202828Y-64671197D01*
X119200423Y-64761356D01*
X119199144Y-64882322D01*
X119198645Y-65039372D01*
X119198572Y-65185600D01*
X119198639Y-65372866D01*
X119199110Y-65520072D01*
X119200387Y-65632518D01*
X119202871Y-65715501D01*
X119206964Y-65774320D01*
X119213069Y-65814273D01*
X119221588Y-65840659D01*
X119232922Y-65858775D01*
X119247475Y-65873920D01*
X119251060Y-65877297D01*
X119268459Y-65892245D01*
X119288675Y-65903820D01*
X119317316Y-65912455D01*
X119359991Y-65918578D01*
X119422305Y-65922621D01*
X119509868Y-65925014D01*
X119628287Y-65926189D01*
X119783169Y-65926575D01*
X119893123Y-65926607D01*
X120072334Y-65926448D01*
X120072334Y-65926448D01*
G37*
X120072334Y-65926448D02*
X120211770Y-65925700D01*
X120317017Y-65923960D01*
X120393656Y-65920823D01*
X120447270Y-65915887D01*
X120483443Y-65908747D01*
X120507759Y-65898999D01*
X120525799Y-65886239D01*
X120532331Y-65880367D01*
X120572058Y-65817973D01*
X120579211Y-65746282D01*
X120553077Y-65682636D01*
X120540993Y-65669773D01*
X120521448Y-65657302D01*
X120489977Y-65647680D01*
X120440744Y-65640441D01*
X120367914Y-65635117D01*
X120265651Y-65631238D01*
X120128118Y-65628336D01*
X120002377Y-65626571D01*
X119504732Y-65620446D01*
X119497931Y-65490045D01*
X119491130Y-65359643D01*
X119828925Y-65359643D01*
X119975574Y-65358378D01*
X120082936Y-65353086D01*
X120157043Y-65341522D01*
X120203931Y-65321442D01*
X120229633Y-65290602D01*
X120240184Y-65246756D01*
X120241786Y-65206063D01*
X120236807Y-65156132D01*
X120218016Y-65119340D01*
X120179633Y-65093765D01*
X120115880Y-65077484D01*
X120020976Y-65068574D01*
X119889142Y-65065113D01*
X119817186Y-65064821D01*
X119493393Y-65064821D01*
X119493393Y-64747321D01*
X119992322Y-64747321D01*
X120155867Y-64747094D01*
X120280163Y-64746071D01*
X120371314Y-64743744D01*
X120435428Y-64739605D01*
X120478610Y-64733143D01*
X120506967Y-64723852D01*
X120526605Y-64711221D01*
X120536607Y-64701964D01*
X120570918Y-64647937D01*
X120581965Y-64599911D01*
X120566191Y-64541249D01*
X120536607Y-64497857D01*
X120520824Y-64484197D01*
X120500449Y-64473590D01*
X120470002Y-64465652D01*
X120424003Y-64459997D01*
X120356970Y-64456241D01*
X120263422Y-64454000D01*
X120137880Y-64452889D01*
X119974862Y-64452524D01*
X119890268Y-64452500D01*
X119709112Y-64452660D01*
X119567832Y-64453398D01*
X119460948Y-64455096D01*
X119382978Y-64458141D01*
X119328441Y-64462917D01*
X119291858Y-64469808D01*
X119267747Y-64479199D01*
X119250627Y-64491475D01*
X119243929Y-64497857D01*
X119230672Y-64513118D01*
X119220281Y-64532807D01*
X119212409Y-64562199D01*
X119206707Y-64606570D01*
X119202828Y-64671197D01*
X119200423Y-64761356D01*
X119199144Y-64882322D01*
X119198645Y-65039372D01*
X119198572Y-65185600D01*
X119198639Y-65372866D01*
X119199110Y-65520072D01*
X119200387Y-65632518D01*
X119202871Y-65715501D01*
X119206964Y-65774320D01*
X119213069Y-65814273D01*
X119221588Y-65840659D01*
X119232922Y-65858775D01*
X119247475Y-65873920D01*
X119251060Y-65877297D01*
X119268459Y-65892245D01*
X119288675Y-65903820D01*
X119317316Y-65912455D01*
X119359991Y-65918578D01*
X119422305Y-65922621D01*
X119509868Y-65925014D01*
X119628287Y-65926189D01*
X119783169Y-65926575D01*
X119893123Y-65926607D01*
X120072334Y-65926448D01*
G36*
X122123634Y-65924027D02*
X122273932Y-65913520D01*
X122413717Y-65897109D01*
X122534863Y-65875413D01*
X122629246Y-65849050D01*
X122688739Y-65818636D01*
X122697871Y-65809683D01*
X122729625Y-65740212D01*
X122719996Y-65668892D01*
X122670743Y-65607873D01*
X122668393Y-65606125D01*
X122639423Y-65587324D01*
X122609181Y-65577438D01*
X122566999Y-65576237D01*
X122502208Y-65583493D01*
X122404139Y-65598976D01*
X122396250Y-65600279D01*
X122250123Y-65618231D01*
X122092466Y-65627087D01*
X121934344Y-65627173D01*
X121786820Y-65618815D01*
X121660960Y-65602341D01*
X121567828Y-65578077D01*
X121561709Y-65575638D01*
X121494145Y-65537783D01*
X121470407Y-65499473D01*
X121488990Y-65461796D01*
X121548389Y-65425840D01*
X121647099Y-65392694D01*
X121783615Y-65363446D01*
X121874643Y-65349364D01*
X122063862Y-65322277D01*
X122214355Y-65297516D01*
X122332534Y-65272937D01*
X122424809Y-65246395D01*
X122497590Y-65215747D01*
X122557290Y-65178848D01*
X122610318Y-65133555D01*
X122652931Y-65089077D01*
X122703486Y-65027105D01*
X122728365Y-64973816D01*
X122736146Y-64908161D01*
X122736429Y-64884117D01*
X122730585Y-64804329D01*
X122707229Y-64744970D01*
X122666807Y-64692284D01*
X122584656Y-64611746D01*
X122493048Y-64550326D01*
X122385176Y-64506021D01*
X122254235Y-64476828D01*
X122093416Y-64460744D01*
X121895914Y-64455767D01*
X121863304Y-64455851D01*
X121731599Y-64458581D01*
X121600985Y-64464784D01*
X121485699Y-64473570D01*
X121399980Y-64484050D01*
X121393047Y-64485253D01*
X121307821Y-64505442D01*
X121235533Y-64530945D01*
X121194610Y-64554261D01*
X121156526Y-64615771D01*
X121153875Y-64687398D01*
X121186705Y-64751229D01*
X121194050Y-64758447D01*
X121224412Y-64779893D01*
X121262382Y-64789133D01*
X121321148Y-64787560D01*
X121392488Y-64779387D01*
X121472203Y-64772086D01*
X121583951Y-64765926D01*
X121714408Y-64761456D01*
X121850254Y-64759224D01*
X121885982Y-64759077D01*
X122022334Y-64759627D01*
X122122124Y-64762274D01*
X122194132Y-64767937D01*
X122247140Y-64777534D01*
X122289927Y-64791983D01*
X122315640Y-64804018D01*
X122372143Y-64837435D01*
X122408167Y-64867699D01*
X122413432Y-64876278D01*
X122402325Y-64911704D01*
X122349523Y-64945999D01*
X122258684Y-64977606D01*
X122133468Y-65004969D01*
X122096576Y-65011064D01*
X121903882Y-65041330D01*
X121750096Y-65066627D01*
X121629283Y-65088794D01*
X121535505Y-65109670D01*
X121462829Y-65131093D01*
X121405317Y-65154901D01*
X121357035Y-65182932D01*
X121312047Y-65217025D01*
X121264417Y-65259018D01*
X121248389Y-65273741D01*
X121192194Y-65328686D01*
X121162448Y-65372219D01*
X121150811Y-65422035D01*
X121148929Y-65484811D01*
X121169649Y-65607915D01*
X121231571Y-65712509D01*
X121334341Y-65798255D01*
X121477602Y-65864816D01*
X121579822Y-65894671D01*
X121690917Y-65913953D01*
X121824001Y-65924861D01*
X121970948Y-65928013D01*
X122123634Y-65924027D01*
X122123634Y-65924027D01*
G37*
X122123634Y-65924027D02*
X122273932Y-65913520D01*
X122413717Y-65897109D01*
X122534863Y-65875413D01*
X122629246Y-65849050D01*
X122688739Y-65818636D01*
X122697871Y-65809683D01*
X122729625Y-65740212D01*
X122719996Y-65668892D01*
X122670743Y-65607873D01*
X122668393Y-65606125D01*
X122639423Y-65587324D01*
X122609181Y-65577438D01*
X122566999Y-65576237D01*
X122502208Y-65583493D01*
X122404139Y-65598976D01*
X122396250Y-65600279D01*
X122250123Y-65618231D01*
X122092466Y-65627087D01*
X121934344Y-65627173D01*
X121786820Y-65618815D01*
X121660960Y-65602341D01*
X121567828Y-65578077D01*
X121561709Y-65575638D01*
X121494145Y-65537783D01*
X121470407Y-65499473D01*
X121488990Y-65461796D01*
X121548389Y-65425840D01*
X121647099Y-65392694D01*
X121783615Y-65363446D01*
X121874643Y-65349364D01*
X122063862Y-65322277D01*
X122214355Y-65297516D01*
X122332534Y-65272937D01*
X122424809Y-65246395D01*
X122497590Y-65215747D01*
X122557290Y-65178848D01*
X122610318Y-65133555D01*
X122652931Y-65089077D01*
X122703486Y-65027105D01*
X122728365Y-64973816D01*
X122736146Y-64908161D01*
X122736429Y-64884117D01*
X122730585Y-64804329D01*
X122707229Y-64744970D01*
X122666807Y-64692284D01*
X122584656Y-64611746D01*
X122493048Y-64550326D01*
X122385176Y-64506021D01*
X122254235Y-64476828D01*
X122093416Y-64460744D01*
X121895914Y-64455767D01*
X121863304Y-64455851D01*
X121731599Y-64458581D01*
X121600985Y-64464784D01*
X121485699Y-64473570D01*
X121399980Y-64484050D01*
X121393047Y-64485253D01*
X121307821Y-64505442D01*
X121235533Y-64530945D01*
X121194610Y-64554261D01*
X121156526Y-64615771D01*
X121153875Y-64687398D01*
X121186705Y-64751229D01*
X121194050Y-64758447D01*
X121224412Y-64779893D01*
X121262382Y-64789133D01*
X121321148Y-64787560D01*
X121392488Y-64779387D01*
X121472203Y-64772086D01*
X121583951Y-64765926D01*
X121714408Y-64761456D01*
X121850254Y-64759224D01*
X121885982Y-64759077D01*
X122022334Y-64759627D01*
X122122124Y-64762274D01*
X122194132Y-64767937D01*
X122247140Y-64777534D01*
X122289927Y-64791983D01*
X122315640Y-64804018D01*
X122372143Y-64837435D01*
X122408167Y-64867699D01*
X122413432Y-64876278D01*
X122402325Y-64911704D01*
X122349523Y-64945999D01*
X122258684Y-64977606D01*
X122133468Y-65004969D01*
X122096576Y-65011064D01*
X121903882Y-65041330D01*
X121750096Y-65066627D01*
X121629283Y-65088794D01*
X121535505Y-65109670D01*
X121462829Y-65131093D01*
X121405317Y-65154901D01*
X121357035Y-65182932D01*
X121312047Y-65217025D01*
X121264417Y-65259018D01*
X121248389Y-65273741D01*
X121192194Y-65328686D01*
X121162448Y-65372219D01*
X121150811Y-65422035D01*
X121148929Y-65484811D01*
X121169649Y-65607915D01*
X121231571Y-65712509D01*
X121334341Y-65798255D01*
X121477602Y-65864816D01*
X121579822Y-65894671D01*
X121690917Y-65913953D01*
X121824001Y-65924861D01*
X121970948Y-65928013D01*
X122123634Y-65924027D01*
G36*
X123666250Y-65881250D02*
X123679471Y-65866036D01*
X123689841Y-65846409D01*
X123697707Y-65817112D01*
X123703413Y-65772887D01*
X123707303Y-65708476D01*
X123709722Y-65618622D01*
X123711016Y-65498066D01*
X123711528Y-65341552D01*
X123711607Y-65189554D01*
X123711467Y-65001022D01*
X123710818Y-64852590D01*
X123709314Y-64738999D01*
X123706611Y-64654991D01*
X123702364Y-64595310D01*
X123696228Y-64554698D01*
X123687859Y-64527896D01*
X123676911Y-64509647D01*
X123666250Y-64497857D01*
X123599949Y-64458320D01*
X123529304Y-64461869D01*
X123466096Y-64504989D01*
X123451573Y-64521823D01*
X123440223Y-64541356D01*
X123431655Y-64568985D01*
X123425478Y-64610111D01*
X123421302Y-64670132D01*
X123418735Y-64754449D01*
X123417388Y-64868460D01*
X123416868Y-65017566D01*
X123416786Y-65186377D01*
X123416786Y-65815276D01*
X123472452Y-65870942D01*
X123541066Y-65917775D01*
X123607623Y-65919462D01*
X123666250Y-65881250D01*
X123666250Y-65881250D01*
G37*
X123666250Y-65881250D02*
X123679471Y-65866036D01*
X123689841Y-65846409D01*
X123697707Y-65817112D01*
X123703413Y-65772887D01*
X123707303Y-65708476D01*
X123709722Y-65618622D01*
X123711016Y-65498066D01*
X123711528Y-65341552D01*
X123711607Y-65189554D01*
X123711467Y-65001022D01*
X123710818Y-64852590D01*
X123709314Y-64738999D01*
X123706611Y-64654991D01*
X123702364Y-64595310D01*
X123696228Y-64554698D01*
X123687859Y-64527896D01*
X123676911Y-64509647D01*
X123666250Y-64497857D01*
X123599949Y-64458320D01*
X123529304Y-64461869D01*
X123466096Y-64504989D01*
X123451573Y-64521823D01*
X123440223Y-64541356D01*
X123431655Y-64568985D01*
X123425478Y-64610111D01*
X123421302Y-64670132D01*
X123418735Y-64754449D01*
X123417388Y-64868460D01*
X123416868Y-65017566D01*
X123416786Y-65186377D01*
X123416786Y-65815276D01*
X123472452Y-65870942D01*
X123541066Y-65917775D01*
X123607623Y-65919462D01*
X123666250Y-65881250D01*
G36*
X125622427Y-65915494D02*
X125760072Y-65892398D01*
X125865786Y-65856495D01*
X125934560Y-65809222D01*
X125953301Y-65782252D01*
X125972359Y-65719525D01*
X125959534Y-65662778D01*
X125919047Y-65608965D01*
X125856138Y-65583790D01*
X125764857Y-65585835D01*
X125694256Y-65599474D01*
X125537374Y-65625460D01*
X125377046Y-65627930D01*
X125197591Y-65606837D01*
X125148022Y-65597900D01*
X124981157Y-65550854D01*
X124850614Y-65480871D01*
X124757824Y-65389144D01*
X124704219Y-65276866D01*
X124693132Y-65218818D01*
X124700389Y-65101047D01*
X124747241Y-64996850D01*
X124829418Y-64908258D01*
X124942651Y-64837302D01*
X125082671Y-64786013D01*
X125245209Y-64756421D01*
X125425995Y-64750557D01*
X125620762Y-64770452D01*
X125631759Y-64772328D01*
X125709226Y-64786757D01*
X125752178Y-64800694D01*
X125770795Y-64821374D01*
X125775256Y-64856030D01*
X125775357Y-64874382D01*
X125775357Y-64951429D01*
X125637795Y-64951429D01*
X125516318Y-64959750D01*
X125433419Y-64986268D01*
X125385186Y-65033311D01*
X125367704Y-65103210D01*
X125367490Y-65112333D01*
X125377719Y-65172078D01*
X125412792Y-65214739D01*
X125478070Y-65242971D01*
X125578910Y-65259429D01*
X125676585Y-65265480D01*
X125818549Y-65268952D01*
X125921523Y-65263654D01*
X125991753Y-65244107D01*
X126035486Y-65204827D01*
X126058970Y-65140334D01*
X126068451Y-65045146D01*
X126070179Y-64920125D01*
X126067348Y-64780577D01*
X126058833Y-64685653D01*
X126044594Y-64634976D01*
X126041831Y-64631007D01*
X125963650Y-64567684D01*
X125849025Y-64517538D01*
X125705220Y-64481638D01*
X125539504Y-64461056D01*
X125359142Y-64456863D01*
X125171402Y-64470131D01*
X125060982Y-64486428D01*
X124887792Y-64535449D01*
X124726826Y-64615590D01*
X124592056Y-64719602D01*
X124571572Y-64740391D01*
X124505019Y-64827787D01*
X124444969Y-64936102D01*
X124398436Y-65049660D01*
X124372437Y-65152783D01*
X124369304Y-65192389D01*
X124382644Y-65275006D01*
X124418100Y-65377797D01*
X124468869Y-65485994D01*
X124528148Y-65584831D01*
X124580521Y-65650848D01*
X124702974Y-65749048D01*
X124861268Y-65827208D01*
X125049731Y-65883561D01*
X125262690Y-65916337D01*
X125457857Y-65924346D01*
X125622427Y-65915494D01*
X125622427Y-65915494D01*
G37*
X125622427Y-65915494D02*
X125760072Y-65892398D01*
X125865786Y-65856495D01*
X125934560Y-65809222D01*
X125953301Y-65782252D01*
X125972359Y-65719525D01*
X125959534Y-65662778D01*
X125919047Y-65608965D01*
X125856138Y-65583790D01*
X125764857Y-65585835D01*
X125694256Y-65599474D01*
X125537374Y-65625460D01*
X125377046Y-65627930D01*
X125197591Y-65606837D01*
X125148022Y-65597900D01*
X124981157Y-65550854D01*
X124850614Y-65480871D01*
X124757824Y-65389144D01*
X124704219Y-65276866D01*
X124693132Y-65218818D01*
X124700389Y-65101047D01*
X124747241Y-64996850D01*
X124829418Y-64908258D01*
X124942651Y-64837302D01*
X125082671Y-64786013D01*
X125245209Y-64756421D01*
X125425995Y-64750557D01*
X125620762Y-64770452D01*
X125631759Y-64772328D01*
X125709226Y-64786757D01*
X125752178Y-64800694D01*
X125770795Y-64821374D01*
X125775256Y-64856030D01*
X125775357Y-64874382D01*
X125775357Y-64951429D01*
X125637795Y-64951429D01*
X125516318Y-64959750D01*
X125433419Y-64986268D01*
X125385186Y-65033311D01*
X125367704Y-65103210D01*
X125367490Y-65112333D01*
X125377719Y-65172078D01*
X125412792Y-65214739D01*
X125478070Y-65242971D01*
X125578910Y-65259429D01*
X125676585Y-65265480D01*
X125818549Y-65268952D01*
X125921523Y-65263654D01*
X125991753Y-65244107D01*
X126035486Y-65204827D01*
X126058970Y-65140334D01*
X126068451Y-65045146D01*
X126070179Y-64920125D01*
X126067348Y-64780577D01*
X126058833Y-64685653D01*
X126044594Y-64634976D01*
X126041831Y-64631007D01*
X125963650Y-64567684D01*
X125849025Y-64517538D01*
X125705220Y-64481638D01*
X125539504Y-64461056D01*
X125359142Y-64456863D01*
X125171402Y-64470131D01*
X125060982Y-64486428D01*
X124887792Y-64535449D01*
X124726826Y-64615590D01*
X124592056Y-64719602D01*
X124571572Y-64740391D01*
X124505019Y-64827787D01*
X124444969Y-64936102D01*
X124398436Y-65049660D01*
X124372437Y-65152783D01*
X124369304Y-65192389D01*
X124382644Y-65275006D01*
X124418100Y-65377797D01*
X124468869Y-65485994D01*
X124528148Y-65584831D01*
X124580521Y-65650848D01*
X124702974Y-65749048D01*
X124861268Y-65827208D01*
X125049731Y-65883561D01*
X125262690Y-65916337D01*
X125457857Y-65924346D01*
X125622427Y-65915494D01*
G36*
X126928165Y-65917805D02*
X126975507Y-65890033D01*
X127037408Y-65844615D01*
X127117077Y-65779411D01*
X127217720Y-65692283D01*
X127342548Y-65581090D01*
X127494768Y-65443693D01*
X127669018Y-65285724D01*
X128031875Y-64956673D01*
X128043215Y-65398335D01*
X128047309Y-65550366D01*
X128051258Y-65663583D01*
X128055938Y-65744520D01*
X128062221Y-65799707D01*
X128070982Y-65835678D01*
X128083094Y-65858965D01*
X128099431Y-65876101D01*
X128108093Y-65883302D01*
X128177463Y-65921377D01*
X128243473Y-65915810D01*
X128295836Y-65883283D01*
X128349375Y-65839958D01*
X128356034Y-65207241D01*
X128357877Y-65021159D01*
X128358815Y-64874979D01*
X128358523Y-64763249D01*
X128356677Y-64680518D01*
X128352950Y-64621334D01*
X128347020Y-64580247D01*
X128338560Y-64551804D01*
X128327247Y-64530555D01*
X128314700Y-64513512D01*
X128287556Y-64481905D01*
X128260547Y-64460954D01*
X128229930Y-64452912D01*
X128191957Y-64460035D01*
X128142882Y-64484574D01*
X128078960Y-64528786D01*
X127996445Y-64594924D01*
X127891590Y-64685241D01*
X127760649Y-64801992D01*
X127612322Y-64936141D01*
X127079375Y-65419571D01*
X127068036Y-64979353D01*
X127063935Y-64827599D01*
X127059975Y-64714646D01*
X127055279Y-64633948D01*
X127048967Y-64578959D01*
X127040163Y-64543135D01*
X127027988Y-64519930D01*
X127011563Y-64502799D01*
X127003157Y-64495817D01*
X126928866Y-64457466D01*
X126858668Y-64463251D01*
X126797539Y-64512255D01*
X126783555Y-64531970D01*
X126772656Y-64554994D01*
X126764459Y-64586851D01*
X126758580Y-64633065D01*
X126754636Y-64699160D01*
X126752244Y-64790661D01*
X126751021Y-64913089D01*
X126750582Y-65071971D01*
X126750536Y-65189554D01*
X126750683Y-65373467D01*
X126751381Y-65517548D01*
X126753013Y-65627320D01*
X126755961Y-65708307D01*
X126760611Y-65766032D01*
X126767343Y-65806019D01*
X126776543Y-65833793D01*
X126788594Y-65854877D01*
X126797539Y-65866852D01*
X126820214Y-65895220D01*
X126841405Y-65916638D01*
X126864322Y-65928968D01*
X126892172Y-65930070D01*
X126928165Y-65917805D01*
X126928165Y-65917805D01*
G37*
X126928165Y-65917805D02*
X126975507Y-65890033D01*
X127037408Y-65844615D01*
X127117077Y-65779411D01*
X127217720Y-65692283D01*
X127342548Y-65581090D01*
X127494768Y-65443693D01*
X127669018Y-65285724D01*
X128031875Y-64956673D01*
X128043215Y-65398335D01*
X128047309Y-65550366D01*
X128051258Y-65663583D01*
X128055938Y-65744520D01*
X128062221Y-65799707D01*
X128070982Y-65835678D01*
X128083094Y-65858965D01*
X128099431Y-65876101D01*
X128108093Y-65883302D01*
X128177463Y-65921377D01*
X128243473Y-65915810D01*
X128295836Y-65883283D01*
X128349375Y-65839958D01*
X128356034Y-65207241D01*
X128357877Y-65021159D01*
X128358815Y-64874979D01*
X128358523Y-64763249D01*
X128356677Y-64680518D01*
X128352950Y-64621334D01*
X128347020Y-64580247D01*
X128338560Y-64551804D01*
X128327247Y-64530555D01*
X128314700Y-64513512D01*
X128287556Y-64481905D01*
X128260547Y-64460954D01*
X128229930Y-64452912D01*
X128191957Y-64460035D01*
X128142882Y-64484574D01*
X128078960Y-64528786D01*
X127996445Y-64594924D01*
X127891590Y-64685241D01*
X127760649Y-64801992D01*
X127612322Y-64936141D01*
X127079375Y-65419571D01*
X127068036Y-64979353D01*
X127063935Y-64827599D01*
X127059975Y-64714646D01*
X127055279Y-64633948D01*
X127048967Y-64578959D01*
X127040163Y-64543135D01*
X127027988Y-64519930D01*
X127011563Y-64502799D01*
X127003157Y-64495817D01*
X126928866Y-64457466D01*
X126858668Y-64463251D01*
X126797539Y-64512255D01*
X126783555Y-64531970D01*
X126772656Y-64554994D01*
X126764459Y-64586851D01*
X126758580Y-64633065D01*
X126754636Y-64699160D01*
X126752244Y-64790661D01*
X126751021Y-64913089D01*
X126750582Y-65071971D01*
X126750536Y-65189554D01*
X126750683Y-65373467D01*
X126751381Y-65517548D01*
X126753013Y-65627320D01*
X126755961Y-65708307D01*
X126760611Y-65766032D01*
X126767343Y-65806019D01*
X126776543Y-65833793D01*
X126788594Y-65854877D01*
X126797539Y-65866852D01*
X126820214Y-65895220D01*
X126841405Y-65916638D01*
X126864322Y-65928968D01*
X126892172Y-65930070D01*
X126928165Y-65917805D01*
G36*
X130002743Y-65926220D02*
X130156142Y-65924383D01*
X130273695Y-65920089D01*
X130360156Y-65912328D01*
X130420280Y-65900090D01*
X130458820Y-65882365D01*
X130480532Y-65858144D01*
X130490170Y-65826418D01*
X130492488Y-65786177D01*
X130492500Y-65781425D01*
X130490488Y-65735909D01*
X130480975Y-65700731D01*
X130458751Y-65674472D01*
X130418602Y-65655711D01*
X130355316Y-65643027D01*
X130263682Y-65635001D01*
X130138487Y-65630211D01*
X129974519Y-65627239D01*
X129924263Y-65626580D01*
X129437947Y-65620446D01*
X129431145Y-65490045D01*
X129424344Y-65359643D01*
X129762139Y-65359643D01*
X129894107Y-65359156D01*
X129988337Y-65357097D01*
X130052445Y-65352568D01*
X130094044Y-65344670D01*
X130120750Y-65332505D01*
X130140178Y-65315175D01*
X130140302Y-65315037D01*
X130175537Y-65247499D01*
X130174263Y-65174502D01*
X130137284Y-65112275D01*
X130129965Y-65105879D01*
X130103990Y-65089395D01*
X130068397Y-65077927D01*
X130015253Y-65070612D01*
X129936628Y-65066585D01*
X129824590Y-65064983D01*
X129752934Y-65064821D01*
X129426607Y-65064821D01*
X129426607Y-64747321D01*
X129922021Y-64747321D01*
X130085586Y-64747035D01*
X130209797Y-64745866D01*
X130300655Y-64743346D01*
X130364160Y-64739008D01*
X130406313Y-64732386D01*
X130433116Y-64723013D01*
X130450569Y-64710421D01*
X130454967Y-64705848D01*
X130487440Y-64642474D01*
X130489816Y-64570376D01*
X130463175Y-64507865D01*
X130442097Y-64487804D01*
X130420170Y-64476760D01*
X130386195Y-64468215D01*
X130334798Y-64461871D01*
X130260605Y-64457428D01*
X130158241Y-64454587D01*
X130022333Y-64453048D01*
X129847505Y-64452513D01*
X129807980Y-64452500D01*
X129630224Y-64452616D01*
X129492242Y-64453258D01*
X129388456Y-64454866D01*
X129313283Y-64457879D01*
X129261141Y-64462737D01*
X129226451Y-64469879D01*
X129203630Y-64479746D01*
X129187097Y-64492777D01*
X129178027Y-64502134D01*
X129164374Y-64518706D01*
X129153708Y-64539236D01*
X129145660Y-64569107D01*
X129139864Y-64613702D01*
X129135953Y-64678406D01*
X129133557Y-64768603D01*
X129132310Y-64889676D01*
X129131844Y-65047010D01*
X129131786Y-65179432D01*
X129131929Y-65364988D01*
X129132606Y-65510658D01*
X129134192Y-65621912D01*
X129137061Y-65704222D01*
X129141587Y-65763057D01*
X129148144Y-65803889D01*
X129157106Y-65832188D01*
X129168847Y-65853425D01*
X129178789Y-65866852D01*
X129225792Y-65926607D01*
X129808743Y-65926607D01*
X130002743Y-65926220D01*
X130002743Y-65926220D01*
G37*
X130002743Y-65926220D02*
X130156142Y-65924383D01*
X130273695Y-65920089D01*
X130360156Y-65912328D01*
X130420280Y-65900090D01*
X130458820Y-65882365D01*
X130480532Y-65858144D01*
X130490170Y-65826418D01*
X130492488Y-65786177D01*
X130492500Y-65781425D01*
X130490488Y-65735909D01*
X130480975Y-65700731D01*
X130458751Y-65674472D01*
X130418602Y-65655711D01*
X130355316Y-65643027D01*
X130263682Y-65635001D01*
X130138487Y-65630211D01*
X129974519Y-65627239D01*
X129924263Y-65626580D01*
X129437947Y-65620446D01*
X129431145Y-65490045D01*
X129424344Y-65359643D01*
X129762139Y-65359643D01*
X129894107Y-65359156D01*
X129988337Y-65357097D01*
X130052445Y-65352568D01*
X130094044Y-65344670D01*
X130120750Y-65332505D01*
X130140178Y-65315175D01*
X130140302Y-65315037D01*
X130175537Y-65247499D01*
X130174263Y-65174502D01*
X130137284Y-65112275D01*
X130129965Y-65105879D01*
X130103990Y-65089395D01*
X130068397Y-65077927D01*
X130015253Y-65070612D01*
X129936628Y-65066585D01*
X129824590Y-65064983D01*
X129752934Y-65064821D01*
X129426607Y-65064821D01*
X129426607Y-64747321D01*
X129922021Y-64747321D01*
X130085586Y-64747035D01*
X130209797Y-64745866D01*
X130300655Y-64743346D01*
X130364160Y-64739008D01*
X130406313Y-64732386D01*
X130433116Y-64723013D01*
X130450569Y-64710421D01*
X130454967Y-64705848D01*
X130487440Y-64642474D01*
X130489816Y-64570376D01*
X130463175Y-64507865D01*
X130442097Y-64487804D01*
X130420170Y-64476760D01*
X130386195Y-64468215D01*
X130334798Y-64461871D01*
X130260605Y-64457428D01*
X130158241Y-64454587D01*
X130022333Y-64453048D01*
X129847505Y-64452513D01*
X129807980Y-64452500D01*
X129630224Y-64452616D01*
X129492242Y-64453258D01*
X129388456Y-64454866D01*
X129313283Y-64457879D01*
X129261141Y-64462737D01*
X129226451Y-64469879D01*
X129203630Y-64479746D01*
X129187097Y-64492777D01*
X129178027Y-64502134D01*
X129164374Y-64518706D01*
X129153708Y-64539236D01*
X129145660Y-64569107D01*
X129139864Y-64613702D01*
X129135953Y-64678406D01*
X129133557Y-64768603D01*
X129132310Y-64889676D01*
X129131844Y-65047010D01*
X129131786Y-65179432D01*
X129131929Y-65364988D01*
X129132606Y-65510658D01*
X129134192Y-65621912D01*
X129137061Y-65704222D01*
X129141587Y-65763057D01*
X129148144Y-65803889D01*
X129157106Y-65832188D01*
X129168847Y-65853425D01*
X129178789Y-65866852D01*
X129225792Y-65926607D01*
X129808743Y-65926607D01*
X130002743Y-65926220D01*
G36*
X131585710Y-65926189D02*
X131844821Y-65917428D01*
X132065206Y-65890860D01*
X132250499Y-65844895D01*
X132404335Y-65777940D01*
X132530346Y-65688407D01*
X132632167Y-65574704D01*
X132713431Y-65435241D01*
X132715030Y-65431840D01*
X132763529Y-65307021D01*
X132780809Y-65196477D01*
X132766805Y-65085226D01*
X132721448Y-64958290D01*
X132712846Y-64938974D01*
X132654186Y-64825917D01*
X132588260Y-64738558D01*
X132503174Y-64664296D01*
X132387034Y-64590532D01*
X132380287Y-64586681D01*
X132279184Y-64538115D01*
X132164909Y-64501844D01*
X132030121Y-64476617D01*
X131867475Y-64461184D01*
X131669629Y-64454292D01*
X131599727Y-64453693D01*
X131266864Y-64452500D01*
X131219861Y-64512255D01*
X131205918Y-64531904D01*
X131195041Y-64554850D01*
X131186851Y-64586594D01*
X131180967Y-64632641D01*
X131177011Y-64698490D01*
X131175721Y-64747321D01*
X131490357Y-64747321D01*
X131678960Y-64747321D01*
X131789325Y-64750549D01*
X131902621Y-64759042D01*
X131995605Y-64771020D01*
X132001218Y-64772029D01*
X132166370Y-64816335D01*
X132294470Y-64882901D01*
X132389570Y-64974816D01*
X132455723Y-65095168D01*
X132467227Y-65127065D01*
X132478502Y-65176743D01*
X132473620Y-65225823D01*
X132449867Y-65291116D01*
X132435549Y-65323191D01*
X132388662Y-65408426D01*
X132332171Y-65468224D01*
X132270015Y-65509866D01*
X132145512Y-65564055D01*
X131986174Y-65603308D01*
X131800553Y-65625911D01*
X131666116Y-65630886D01*
X131490357Y-65631786D01*
X131490357Y-64747321D01*
X131175721Y-64747321D01*
X131174602Y-64789645D01*
X131173361Y-64911608D01*
X131172908Y-65069882D01*
X131172857Y-65193643D01*
X131172857Y-65815276D01*
X131228523Y-65870942D01*
X131253228Y-65893505D01*
X131279941Y-65908957D01*
X131317244Y-65918625D01*
X131373723Y-65923836D01*
X131457958Y-65925918D01*
X131578535Y-65926199D01*
X131585710Y-65926189D01*
X131585710Y-65926189D01*
G37*
X131585710Y-65926189D02*
X131844821Y-65917428D01*
X132065206Y-65890860D01*
X132250499Y-65844895D01*
X132404335Y-65777940D01*
X132530346Y-65688407D01*
X132632167Y-65574704D01*
X132713431Y-65435241D01*
X132715030Y-65431840D01*
X132763529Y-65307021D01*
X132780809Y-65196477D01*
X132766805Y-65085226D01*
X132721448Y-64958290D01*
X132712846Y-64938974D01*
X132654186Y-64825917D01*
X132588260Y-64738558D01*
X132503174Y-64664296D01*
X132387034Y-64590532D01*
X132380287Y-64586681D01*
X132279184Y-64538115D01*
X132164909Y-64501844D01*
X132030121Y-64476617D01*
X131867475Y-64461184D01*
X131669629Y-64454292D01*
X131599727Y-64453693D01*
X131266864Y-64452500D01*
X131219861Y-64512255D01*
X131205918Y-64531904D01*
X131195041Y-64554850D01*
X131186851Y-64586594D01*
X131180967Y-64632641D01*
X131177011Y-64698490D01*
X131175721Y-64747321D01*
X131490357Y-64747321D01*
X131678960Y-64747321D01*
X131789325Y-64750549D01*
X131902621Y-64759042D01*
X131995605Y-64771020D01*
X132001218Y-64772029D01*
X132166370Y-64816335D01*
X132294470Y-64882901D01*
X132389570Y-64974816D01*
X132455723Y-65095168D01*
X132467227Y-65127065D01*
X132478502Y-65176743D01*
X132473620Y-65225823D01*
X132449867Y-65291116D01*
X132435549Y-65323191D01*
X132388662Y-65408426D01*
X132332171Y-65468224D01*
X132270015Y-65509866D01*
X132145512Y-65564055D01*
X131986174Y-65603308D01*
X131800553Y-65625911D01*
X131666116Y-65630886D01*
X131490357Y-65631786D01*
X131490357Y-64747321D01*
X131175721Y-64747321D01*
X131174602Y-64789645D01*
X131173361Y-64911608D01*
X131172908Y-65069882D01*
X131172857Y-65193643D01*
X131172857Y-65815276D01*
X131228523Y-65870942D01*
X131253228Y-65893505D01*
X131279941Y-65908957D01*
X131317244Y-65918625D01*
X131373723Y-65923836D01*
X131457958Y-65925918D01*
X131578535Y-65926199D01*
X131585710Y-65926189D01*
G36*
X137062765Y-65922655D02*
X137102119Y-65908591D01*
X137103638Y-65907903D01*
X137157080Y-65867119D01*
X137186525Y-65825168D01*
X137192287Y-65805499D01*
X137192002Y-65779363D01*
X137183895Y-65742132D01*
X137166188Y-65689172D01*
X137137104Y-65615855D01*
X137094867Y-65517549D01*
X137037700Y-65389624D01*
X136963826Y-65227448D01*
X136923164Y-65138807D01*
X136849739Y-64980565D01*
X136780811Y-64835043D01*
X136719012Y-64707563D01*
X136666971Y-64603444D01*
X136627321Y-64528007D01*
X136602691Y-64486572D01*
X136597817Y-64480848D01*
X136535458Y-64455598D01*
X136465020Y-64458980D01*
X136408528Y-64489690D01*
X136406226Y-64492188D01*
X136383754Y-64526208D01*
X136346058Y-64592472D01*
X136297786Y-64682451D01*
X136243588Y-64787614D01*
X136224110Y-64826367D01*
X136077082Y-65120860D01*
X135916823Y-64800951D01*
X135859621Y-64690417D01*
X135806551Y-64594556D01*
X135761949Y-64520707D01*
X135730150Y-64476207D01*
X135719373Y-64466771D01*
X135635606Y-64453991D01*
X135566484Y-64480848D01*
X135546151Y-64509551D01*
X135510966Y-64573342D01*
X135463799Y-64665944D01*
X135407520Y-64781080D01*
X135344999Y-64912474D01*
X135279107Y-65053848D01*
X135212714Y-65198926D01*
X135148690Y-65341430D01*
X135089906Y-65475083D01*
X135039232Y-65593609D01*
X134999538Y-65690731D01*
X134973695Y-65760171D01*
X134964572Y-65795653D01*
X134964665Y-65796938D01*
X134986861Y-65841586D01*
X135031226Y-65887060D01*
X135033839Y-65889038D01*
X135088366Y-65919860D01*
X135138801Y-65919562D01*
X135157704Y-65913751D01*
X135180739Y-65901193D01*
X135205200Y-65876489D01*
X135234022Y-65834516D01*
X135270140Y-65770148D01*
X135316488Y-65678260D01*
X135375999Y-65553729D01*
X135429667Y-65438777D01*
X135491412Y-65305528D01*
X135546740Y-65185700D01*
X135592777Y-65085552D01*
X135626650Y-65011345D01*
X135645482Y-64969339D01*
X135648229Y-64962768D01*
X135660582Y-64973510D01*
X135688973Y-65018487D01*
X135729625Y-65091135D01*
X135778759Y-65184889D01*
X135798311Y-65223571D01*
X135864545Y-65354188D01*
X135915624Y-65449312D01*
X135955740Y-65514471D01*
X135989084Y-65555198D01*
X136019849Y-65577022D01*
X136052225Y-65585474D01*
X136073324Y-65586429D01*
X136110542Y-65583131D01*
X136143156Y-65569491D01*
X136175562Y-65539889D01*
X136212156Y-65488707D01*
X136257334Y-65410325D01*
X136315492Y-65299123D01*
X136347580Y-65235865D01*
X136399628Y-65135048D01*
X136445024Y-65051443D01*
X136479760Y-64992103D01*
X136499833Y-64964084D01*
X136502563Y-64962917D01*
X136515526Y-64984969D01*
X136544549Y-65042230D01*
X136586725Y-65128707D01*
X136639148Y-65238407D01*
X136698911Y-65365337D01*
X136728309Y-65428384D01*
X136804788Y-65591093D01*
X136866372Y-65716294D01*
X136916258Y-65808072D01*
X136957643Y-65870513D01*
X136993724Y-65907700D01*
X137027699Y-65923719D01*
X137062765Y-65922655D01*
X137062765Y-65922655D01*
G37*
X137062765Y-65922655D02*
X137102119Y-65908591D01*
X137103638Y-65907903D01*
X137157080Y-65867119D01*
X137186525Y-65825168D01*
X137192287Y-65805499D01*
X137192002Y-65779363D01*
X137183895Y-65742132D01*
X137166188Y-65689172D01*
X137137104Y-65615855D01*
X137094867Y-65517549D01*
X137037700Y-65389624D01*
X136963826Y-65227448D01*
X136923164Y-65138807D01*
X136849739Y-64980565D01*
X136780811Y-64835043D01*
X136719012Y-64707563D01*
X136666971Y-64603444D01*
X136627321Y-64528007D01*
X136602691Y-64486572D01*
X136597817Y-64480848D01*
X136535458Y-64455598D01*
X136465020Y-64458980D01*
X136408528Y-64489690D01*
X136406226Y-64492188D01*
X136383754Y-64526208D01*
X136346058Y-64592472D01*
X136297786Y-64682451D01*
X136243588Y-64787614D01*
X136224110Y-64826367D01*
X136077082Y-65120860D01*
X135916823Y-64800951D01*
X135859621Y-64690417D01*
X135806551Y-64594556D01*
X135761949Y-64520707D01*
X135730150Y-64476207D01*
X135719373Y-64466771D01*
X135635606Y-64453991D01*
X135566484Y-64480848D01*
X135546151Y-64509551D01*
X135510966Y-64573342D01*
X135463799Y-64665944D01*
X135407520Y-64781080D01*
X135344999Y-64912474D01*
X135279107Y-65053848D01*
X135212714Y-65198926D01*
X135148690Y-65341430D01*
X135089906Y-65475083D01*
X135039232Y-65593609D01*
X134999538Y-65690731D01*
X134973695Y-65760171D01*
X134964572Y-65795653D01*
X134964665Y-65796938D01*
X134986861Y-65841586D01*
X135031226Y-65887060D01*
X135033839Y-65889038D01*
X135088366Y-65919860D01*
X135138801Y-65919562D01*
X135157704Y-65913751D01*
X135180739Y-65901193D01*
X135205200Y-65876489D01*
X135234022Y-65834516D01*
X135270140Y-65770148D01*
X135316488Y-65678260D01*
X135375999Y-65553729D01*
X135429667Y-65438777D01*
X135491412Y-65305528D01*
X135546740Y-65185700D01*
X135592777Y-65085552D01*
X135626650Y-65011345D01*
X135645482Y-64969339D01*
X135648229Y-64962768D01*
X135660582Y-64973510D01*
X135688973Y-65018487D01*
X135729625Y-65091135D01*
X135778759Y-65184889D01*
X135798311Y-65223571D01*
X135864545Y-65354188D01*
X135915624Y-65449312D01*
X135955740Y-65514471D01*
X135989084Y-65555198D01*
X136019849Y-65577022D01*
X136052225Y-65585474D01*
X136073324Y-65586429D01*
X136110542Y-65583131D01*
X136143156Y-65569491D01*
X136175562Y-65539889D01*
X136212156Y-65488707D01*
X136257334Y-65410325D01*
X136315492Y-65299123D01*
X136347580Y-65235865D01*
X136399628Y-65135048D01*
X136445024Y-65051443D01*
X136479760Y-64992103D01*
X136499833Y-64964084D01*
X136502563Y-64962917D01*
X136515526Y-64984969D01*
X136544549Y-65042230D01*
X136586725Y-65128707D01*
X136639148Y-65238407D01*
X136698911Y-65365337D01*
X136728309Y-65428384D01*
X136804788Y-65591093D01*
X136866372Y-65716294D01*
X136916258Y-65808072D01*
X136957643Y-65870513D01*
X136993724Y-65907700D01*
X137027699Y-65923719D01*
X137062765Y-65922655D01*
G36*
X137954627Y-65912926D02*
X138002265Y-65883254D01*
X138055804Y-65839900D01*
X138055804Y-65193938D01*
X138055633Y-65004985D01*
X138054903Y-64856119D01*
X138053285Y-64742068D01*
X138050451Y-64657564D01*
X138046072Y-64597337D01*
X138039821Y-64556115D01*
X138031369Y-64528630D01*
X138020388Y-64509610D01*
X138012601Y-64500238D01*
X137949443Y-64459069D01*
X137877523Y-64460748D01*
X137814522Y-64495853D01*
X137760982Y-64539207D01*
X137760982Y-65839900D01*
X137814522Y-65883254D01*
X137866195Y-65914790D01*
X137908393Y-65926607D01*
X137954627Y-65912926D01*
X137954627Y-65912926D01*
G37*
X137954627Y-65912926D02*
X138002265Y-65883254D01*
X138055804Y-65839900D01*
X138055804Y-65193938D01*
X138055633Y-65004985D01*
X138054903Y-64856119D01*
X138053285Y-64742068D01*
X138050451Y-64657564D01*
X138046072Y-64597337D01*
X138039821Y-64556115D01*
X138031369Y-64528630D01*
X138020388Y-64509610D01*
X138012601Y-64500238D01*
X137949443Y-64459069D01*
X137877523Y-64460748D01*
X137814522Y-64495853D01*
X137760982Y-64539207D01*
X137760982Y-65839900D01*
X137814522Y-65883254D01*
X137866195Y-65914790D01*
X137908393Y-65926607D01*
X137954627Y-65912926D01*
G36*
X139510443Y-65926413D02*
X139668561Y-65925653D01*
X139791288Y-65924063D01*
X139883606Y-65921378D01*
X139950499Y-65917333D01*
X139996948Y-65911663D01*
X140027937Y-65904103D01*
X140048448Y-65894388D01*
X140058374Y-65886920D01*
X140109891Y-65821558D01*
X140116123Y-65753695D01*
X140084287Y-65692046D01*
X140063468Y-65667411D01*
X140041065Y-65650613D01*
X140008597Y-65640153D01*
X139957586Y-65634528D01*
X139879550Y-65632240D01*
X139766010Y-65631788D01*
X139743711Y-65631786D01*
X139450536Y-65631786D01*
X139450536Y-65087500D01*
X139450343Y-64915941D01*
X139449466Y-64783934D01*
X139447458Y-64685678D01*
X139443874Y-64615367D01*
X139438267Y-64567200D01*
X139430191Y-64535372D01*
X139419198Y-64514081D01*
X139405179Y-64497857D01*
X139339019Y-64457989D01*
X139269954Y-64461131D01*
X139207320Y-64506618D01*
X139202718Y-64512255D01*
X139187737Y-64533565D01*
X139176323Y-64558498D01*
X139167994Y-64593114D01*
X139162267Y-64643470D01*
X139158659Y-64715625D01*
X139156686Y-64815637D01*
X139155866Y-64949565D01*
X139155715Y-65101898D01*
X139155715Y-65631786D01*
X138875747Y-65631786D01*
X138755602Y-65632599D01*
X138672425Y-65635767D01*
X138617843Y-65642384D01*
X138583486Y-65653544D01*
X138560980Y-65670339D01*
X138558247Y-65673259D01*
X138525386Y-65740033D01*
X138528292Y-65815523D01*
X138566072Y-65881250D01*
X138580682Y-65893999D01*
X138599520Y-65904108D01*
X138627608Y-65911883D01*
X138669970Y-65917628D01*
X138731630Y-65921649D01*
X138817612Y-65924251D01*
X138932938Y-65925741D01*
X139082632Y-65926424D01*
X139271718Y-65926604D01*
X139311952Y-65926607D01*
X139510443Y-65926413D01*
X139510443Y-65926413D01*
G37*
X139510443Y-65926413D02*
X139668561Y-65925653D01*
X139791288Y-65924063D01*
X139883606Y-65921378D01*
X139950499Y-65917333D01*
X139996948Y-65911663D01*
X140027937Y-65904103D01*
X140048448Y-65894388D01*
X140058374Y-65886920D01*
X140109891Y-65821558D01*
X140116123Y-65753695D01*
X140084287Y-65692046D01*
X140063468Y-65667411D01*
X140041065Y-65650613D01*
X140008597Y-65640153D01*
X139957586Y-65634528D01*
X139879550Y-65632240D01*
X139766010Y-65631788D01*
X139743711Y-65631786D01*
X139450536Y-65631786D01*
X139450536Y-65087500D01*
X139450343Y-64915941D01*
X139449466Y-64783934D01*
X139447458Y-64685678D01*
X139443874Y-64615367D01*
X139438267Y-64567200D01*
X139430191Y-64535372D01*
X139419198Y-64514081D01*
X139405179Y-64497857D01*
X139339019Y-64457989D01*
X139269954Y-64461131D01*
X139207320Y-64506618D01*
X139202718Y-64512255D01*
X139187737Y-64533565D01*
X139176323Y-64558498D01*
X139167994Y-64593114D01*
X139162267Y-64643470D01*
X139158659Y-64715625D01*
X139156686Y-64815637D01*
X139155866Y-64949565D01*
X139155715Y-65101898D01*
X139155715Y-65631786D01*
X138875747Y-65631786D01*
X138755602Y-65632599D01*
X138672425Y-65635767D01*
X138617843Y-65642384D01*
X138583486Y-65653544D01*
X138560980Y-65670339D01*
X138558247Y-65673259D01*
X138525386Y-65740033D01*
X138528292Y-65815523D01*
X138566072Y-65881250D01*
X138580682Y-65893999D01*
X138599520Y-65904108D01*
X138627608Y-65911883D01*
X138669970Y-65917628D01*
X138731630Y-65921649D01*
X138817612Y-65924251D01*
X138932938Y-65925741D01*
X139082632Y-65926424D01*
X139271718Y-65926604D01*
X139311952Y-65926607D01*
X139510443Y-65926413D01*
G36*
X142053262Y-65915626D02*
X142116299Y-65870942D01*
X142171965Y-65815276D01*
X142171965Y-65193643D01*
X142171819Y-65009064D01*
X142171130Y-64864340D01*
X142169517Y-64753968D01*
X142166600Y-64672447D01*
X142162002Y-64614274D01*
X142155341Y-64573946D01*
X142146238Y-64545963D01*
X142134314Y-64524820D01*
X142124961Y-64512255D01*
X142063225Y-64462888D01*
X141992337Y-64457530D01*
X141927546Y-64487804D01*
X141906137Y-64505677D01*
X141891826Y-64529418D01*
X141883194Y-64567648D01*
X141878822Y-64628990D01*
X141877290Y-64722063D01*
X141877143Y-64793965D01*
X141877143Y-65064821D01*
X140879286Y-65064821D01*
X140879286Y-64818416D01*
X140878254Y-64705741D01*
X140874126Y-64628305D01*
X140865351Y-64576015D01*
X140850382Y-64538779D01*
X140832283Y-64512255D01*
X140770201Y-64463027D01*
X140699992Y-64457198D01*
X140632779Y-64492188D01*
X140614428Y-64510530D01*
X140601468Y-64534846D01*
X140592919Y-64572722D01*
X140587805Y-64631745D01*
X140585149Y-64719501D01*
X140583971Y-64843577D01*
X140583834Y-64872054D01*
X140582862Y-65105831D01*
X140582361Y-65298495D01*
X140582524Y-65454288D01*
X140583545Y-65577452D01*
X140585617Y-65672230D01*
X140588933Y-65742864D01*
X140593687Y-65793597D01*
X140600071Y-65828671D01*
X140608280Y-65852330D01*
X140618507Y-65868814D01*
X140629822Y-65881250D01*
X140693829Y-65921029D01*
X140760583Y-65915626D01*
X140823620Y-65870942D01*
X140849129Y-65842113D01*
X140865389Y-65810268D01*
X140874461Y-65764915D01*
X140878406Y-65695557D01*
X140879285Y-65591701D01*
X140879286Y-65587459D01*
X140879286Y-65359643D01*
X141877143Y-65359643D01*
X141877143Y-65597768D01*
X141878161Y-65707472D01*
X141882251Y-65781547D01*
X141890965Y-65829696D01*
X141905855Y-65861622D01*
X141922500Y-65881250D01*
X141986507Y-65921029D01*
X142053262Y-65915626D01*
X142053262Y-65915626D01*
G37*
X142053262Y-65915626D02*
X142116299Y-65870942D01*
X142171965Y-65815276D01*
X142171965Y-65193643D01*
X142171819Y-65009064D01*
X142171130Y-64864340D01*
X142169517Y-64753968D01*
X142166600Y-64672447D01*
X142162002Y-64614274D01*
X142155341Y-64573946D01*
X142146238Y-64545963D01*
X142134314Y-64524820D01*
X142124961Y-64512255D01*
X142063225Y-64462888D01*
X141992337Y-64457530D01*
X141927546Y-64487804D01*
X141906137Y-64505677D01*
X141891826Y-64529418D01*
X141883194Y-64567648D01*
X141878822Y-64628990D01*
X141877290Y-64722063D01*
X141877143Y-64793965D01*
X141877143Y-65064821D01*
X140879286Y-65064821D01*
X140879286Y-64818416D01*
X140878254Y-64705741D01*
X140874126Y-64628305D01*
X140865351Y-64576015D01*
X140850382Y-64538779D01*
X140832283Y-64512255D01*
X140770201Y-64463027D01*
X140699992Y-64457198D01*
X140632779Y-64492188D01*
X140614428Y-64510530D01*
X140601468Y-64534846D01*
X140592919Y-64572722D01*
X140587805Y-64631745D01*
X140585149Y-64719501D01*
X140583971Y-64843577D01*
X140583834Y-64872054D01*
X140582862Y-65105831D01*
X140582361Y-65298495D01*
X140582524Y-65454288D01*
X140583545Y-65577452D01*
X140585617Y-65672230D01*
X140588933Y-65742864D01*
X140593687Y-65793597D01*
X140600071Y-65828671D01*
X140608280Y-65852330D01*
X140618507Y-65868814D01*
X140629822Y-65881250D01*
X140693829Y-65921029D01*
X140760583Y-65915626D01*
X140823620Y-65870942D01*
X140849129Y-65842113D01*
X140865389Y-65810268D01*
X140874461Y-65764915D01*
X140878406Y-65695557D01*
X140879285Y-65591701D01*
X140879286Y-65587459D01*
X140879286Y-65359643D01*
X141877143Y-65359643D01*
X141877143Y-65597768D01*
X141878161Y-65707472D01*
X141882251Y-65781547D01*
X141890965Y-65829696D01*
X141905855Y-65861622D01*
X141922500Y-65881250D01*
X141986507Y-65921029D01*
X142053262Y-65915626D01*
G36*
X123620893Y-75529311D02*
X123642720Y-75300415D01*
X123706237Y-75084209D01*
X123808497Y-74885327D01*
X123946554Y-74708403D01*
X124117462Y-74558071D01*
X124312302Y-74441819D01*
X124525788Y-74362223D01*
X124740771Y-74324920D01*
X124953014Y-74327209D01*
X125158276Y-74366391D01*
X125352320Y-74439766D01*
X125530907Y-74544632D01*
X125689796Y-74678292D01*
X125824750Y-74838043D01*
X125931529Y-75021186D01*
X126005895Y-75225022D01*
X126043608Y-75446849D01*
X126047500Y-75547086D01*
X126047500Y-75723750D01*
X126151822Y-75723750D01*
X126224761Y-75718035D01*
X126278796Y-75694331D01*
X126333250Y-75646643D01*
X126410357Y-75569536D01*
X126410357Y-71166827D01*
X126410339Y-70640211D01*
X126410274Y-70157061D01*
X126410146Y-69715485D01*
X126409938Y-69313591D01*
X126409634Y-68949488D01*
X126409217Y-68621285D01*
X126408672Y-68327089D01*
X126407981Y-68065010D01*
X126407128Y-67833155D01*
X126406098Y-67629634D01*
X126404873Y-67452554D01*
X126403437Y-67300024D01*
X126401774Y-67170153D01*
X126399867Y-67061049D01*
X126397701Y-66970821D01*
X126395258Y-66897576D01*
X126392522Y-66839424D01*
X126389477Y-66794472D01*
X126386107Y-66760830D01*
X126382394Y-66736605D01*
X126378324Y-66719907D01*
X126373878Y-66708843D01*
X126371704Y-66705126D01*
X126363341Y-66691040D01*
X126356240Y-66678089D01*
X126348547Y-66666228D01*
X126338407Y-66655407D01*
X126323966Y-66645580D01*
X126303369Y-66636700D01*
X126274761Y-66628718D01*
X126236289Y-66621588D01*
X126186097Y-66615262D01*
X126122331Y-66609692D01*
X126043136Y-66604832D01*
X125946658Y-66600634D01*
X125831042Y-66597050D01*
X125694435Y-66594032D01*
X125534980Y-66591535D01*
X125350825Y-66589510D01*
X125140114Y-66587909D01*
X124900992Y-66586686D01*
X124631605Y-66585792D01*
X124330100Y-66585181D01*
X123994620Y-66584806D01*
X123623312Y-66584617D01*
X123214321Y-66584569D01*
X122765792Y-66584614D01*
X122275872Y-66584705D01*
X121742705Y-66584793D01*
X121665595Y-66584802D01*
X121129255Y-66584889D01*
X120636425Y-66585031D01*
X120185258Y-66585242D01*
X119773907Y-66585538D01*
X119400524Y-66585933D01*
X119063262Y-66586441D01*
X118760275Y-66587076D01*
X118489714Y-66587854D01*
X118249733Y-66588789D01*
X118038485Y-66589895D01*
X117854122Y-66591187D01*
X117694798Y-66592680D01*
X117558665Y-66594387D01*
X117443875Y-66596324D01*
X117348583Y-66598504D01*
X117270940Y-66600943D01*
X117209100Y-66603655D01*
X117161215Y-66606654D01*
X117125438Y-66609955D01*
X117099922Y-66613573D01*
X117082819Y-66617521D01*
X117074065Y-66620873D01*
X117057065Y-66628046D01*
X117041458Y-66633341D01*
X117027184Y-66638638D01*
X117014184Y-66645812D01*
X117002400Y-66656744D01*
X116991772Y-66673309D01*
X116982241Y-66697386D01*
X116973747Y-66730853D01*
X116966231Y-66775587D01*
X116959634Y-66833467D01*
X116953896Y-66906369D01*
X116948960Y-66996172D01*
X116944764Y-67104754D01*
X116941250Y-67233993D01*
X116938359Y-67385765D01*
X116936032Y-67561950D01*
X116934209Y-67764424D01*
X116932830Y-67995065D01*
X116931838Y-68255752D01*
X116931172Y-68548362D01*
X116930773Y-68874773D01*
X116930583Y-69236862D01*
X116930541Y-69636508D01*
X116930588Y-70075588D01*
X116930666Y-70555980D01*
X116930714Y-71079562D01*
X116930715Y-71164241D01*
X116930687Y-71692382D01*
X116930637Y-72177057D01*
X116930615Y-72620159D01*
X116930674Y-73023579D01*
X116930864Y-73389209D01*
X116931237Y-73718940D01*
X116931846Y-74014666D01*
X116932740Y-74278276D01*
X116933904Y-74499107D01*
X117542284Y-74499107D01*
X117622219Y-74382902D01*
X117644660Y-74351225D01*
X117664891Y-74323177D01*
X117683027Y-74296372D01*
X117699180Y-74268429D01*
X117713466Y-74236964D01*
X117725999Y-74199594D01*
X117736893Y-74153934D01*
X117746261Y-74097601D01*
X117754218Y-74028213D01*
X117760878Y-73943386D01*
X117766356Y-73840736D01*
X117770764Y-73717880D01*
X117774218Y-73572434D01*
X117776832Y-73402016D01*
X117778719Y-73204241D01*
X117779994Y-72976726D01*
X117780770Y-72717089D01*
X117781163Y-72422945D01*
X117781286Y-72091910D01*
X117781253Y-71721603D01*
X117781178Y-71309639D01*
X117781161Y-71063304D01*
X117781209Y-70627468D01*
X117781277Y-70234604D01*
X117781253Y-69882325D01*
X117781023Y-69568244D01*
X117780475Y-69289975D01*
X117779496Y-69045133D01*
X117777972Y-68831331D01*
X117775791Y-68646183D01*
X117772840Y-68487304D01*
X117769006Y-68352306D01*
X117764175Y-68238804D01*
X117758235Y-68144412D01*
X117751074Y-68066743D01*
X117742577Y-68003412D01*
X117732632Y-67952032D01*
X117721127Y-67910217D01*
X117707947Y-67875582D01*
X117692981Y-67845739D01*
X117676115Y-67818304D01*
X117657236Y-67790889D01*
X117636232Y-67761109D01*
X117623996Y-67743248D01*
X117546103Y-67627500D01*
X118613977Y-67627500D01*
X118861575Y-67627570D01*
X119067482Y-67627872D01*
X119235363Y-67628548D01*
X119368884Y-67629739D01*
X119471710Y-67631585D01*
X119547508Y-67634228D01*
X119599943Y-67637807D01*
X119632680Y-67642465D01*
X119649386Y-67648341D01*
X119653725Y-67655577D01*
X119649364Y-67664314D01*
X119646961Y-67667188D01*
X119596437Y-67741661D01*
X119544410Y-67847735D01*
X119496981Y-67972292D01*
X119480369Y-68025354D01*
X119471094Y-68061397D01*
X119463256Y-68103707D01*
X119456690Y-68156474D01*
X119451231Y-68223887D01*
X119446712Y-68310137D01*
X119442970Y-68419412D01*
X119439839Y-68555902D01*
X119437155Y-68723797D01*
X119434751Y-68927286D01*
X119432463Y-69170559D01*
X119431705Y-69260357D01*
X119429663Y-69511777D01*
X119428139Y-69721443D01*
X119427250Y-69892954D01*
X119427114Y-70029912D01*
X119427848Y-70135918D01*
X119429570Y-70214571D01*
X119432396Y-70269473D01*
X119436445Y-70304224D01*
X119441834Y-70322425D01*
X119448679Y-70327677D01*
X119457099Y-70323580D01*
X119466087Y-70314911D01*
X119486889Y-70288925D01*
X119531202Y-70230517D01*
X119595891Y-70143967D01*
X119677821Y-70033557D01*
X119773856Y-69903570D01*
X119880861Y-69758286D01*
X119995701Y-69601987D01*
X120115240Y-69438955D01*
X120236342Y-69273471D01*
X120355873Y-69109817D01*
X120470696Y-68952275D01*
X120577678Y-68805126D01*
X120673682Y-68672651D01*
X120755572Y-68559134D01*
X120820214Y-68468854D01*
X120864472Y-68406093D01*
X120873649Y-68392769D01*
X120919697Y-68318634D01*
X120973553Y-68222226D01*
X121024577Y-68122708D01*
X121031047Y-68109287D01*
X121074596Y-68012466D01*
X121099881Y-67937008D01*
X121111392Y-67865037D01*
X121113638Y-67780580D01*
X121112365Y-67627500D01*
X123431550Y-67627500D01*
X123248409Y-67815799D01*
X123154397Y-67916033D01*
X123053373Y-68029496D01*
X122960873Y-68138520D01*
X122919840Y-68189451D01*
X122858691Y-68268895D01*
X122778225Y-68375793D01*
X122680793Y-68506874D01*
X122568748Y-68658862D01*
X122444443Y-68828484D01*
X122310231Y-69012468D01*
X122168464Y-69207538D01*
X122021495Y-69410423D01*
X121871678Y-69617847D01*
X121721364Y-69826538D01*
X121572906Y-70033221D01*
X121428658Y-70234624D01*
X121290971Y-70427473D01*
X121162199Y-70608494D01*
X121044694Y-70774414D01*
X120940810Y-70921959D01*
X120852898Y-71047855D01*
X120783312Y-71148829D01*
X120734405Y-71221607D01*
X120708528Y-71262916D01*
X120704996Y-71271157D01*
X120720986Y-71293911D01*
X120762761Y-71348514D01*
X120827584Y-71431549D01*
X120912716Y-71539600D01*
X121015419Y-71669251D01*
X121132955Y-71817086D01*
X121262584Y-71979688D01*
X121401568Y-72153640D01*
X121547170Y-72335528D01*
X121696650Y-72521934D01*
X121816642Y-72671313D01*
X123847679Y-72671313D01*
X123859551Y-72645283D01*
X123888338Y-72600586D01*
X123890442Y-72597608D01*
X123928184Y-72537033D01*
X123967653Y-72463041D01*
X123975486Y-72446696D01*
X123982590Y-72429763D01*
X123988868Y-72409435D01*
X123994382Y-72382914D01*
X123999191Y-72347402D01*
X124003356Y-72300099D01*
X124006939Y-72238206D01*
X124009999Y-72158926D01*
X124012596Y-72059459D01*
X124014792Y-71937007D01*
X124016647Y-71788772D01*
X124018221Y-71611954D01*
X124019576Y-71403754D01*
X124020770Y-71161375D01*
X124021866Y-70882017D01*
X124022923Y-70562882D01*
X124023996Y-70203572D01*
X124025077Y-69831683D01*
X124025950Y-69502342D01*
X124026479Y-69212739D01*
X124026529Y-68960065D01*
X124025964Y-68741510D01*
X124024650Y-68554265D01*
X124022450Y-68395520D01*
X124019229Y-68262465D01*
X124014851Y-68152292D01*
X124009182Y-68062191D01*
X124002086Y-67989352D01*
X123993427Y-67930966D01*
X123983070Y-67884223D01*
X123970879Y-67846314D01*
X123956720Y-67814430D01*
X123940456Y-67785760D01*
X123921953Y-67757496D01*
X123904876Y-67732450D01*
X123870451Y-67679627D01*
X123850068Y-67644302D01*
X123847679Y-67637832D01*
X123869590Y-67635668D01*
X123932255Y-67633658D01*
X124031070Y-67631850D01*
X124161431Y-67630292D01*
X124318735Y-67629033D01*
X124498379Y-67628120D01*
X124695759Y-67627602D01*
X124834197Y-67627500D01*
X125045120Y-67627943D01*
X125239669Y-67629212D01*
X125413446Y-67631218D01*
X125562056Y-67633874D01*
X125681102Y-67637090D01*
X125766188Y-67640777D01*
X125812916Y-67644847D01*
X125820715Y-67647402D01*
X125805251Y-67677341D01*
X125789182Y-67693473D01*
X125762721Y-67727879D01*
X125728088Y-67788651D01*
X125704138Y-67837991D01*
X125650625Y-67956339D01*
X125644448Y-70320580D01*
X125638270Y-72684822D01*
X124742974Y-72684821D01*
X124546468Y-72684491D01*
X124364873Y-72683550D01*
X124203021Y-72682070D01*
X124065747Y-72680125D01*
X123957880Y-72677786D01*
X123884255Y-72675128D01*
X123849703Y-72672223D01*
X123847679Y-72671313D01*
X121816642Y-72671313D01*
X121847271Y-72709442D01*
X121996293Y-72894636D01*
X122140979Y-73074099D01*
X122278589Y-73244416D01*
X122406386Y-73402169D01*
X122521631Y-73543943D01*
X122621586Y-73666321D01*
X122703512Y-73765888D01*
X122737994Y-73807411D01*
X122911349Y-74009632D01*
X123065231Y-74176891D01*
X123203472Y-74313137D01*
X123329905Y-74422321D01*
X123348750Y-74437122D01*
X123428125Y-74498604D01*
X122291313Y-74498856D01*
X121154500Y-74499107D01*
X121165126Y-74402723D01*
X121158490Y-74287524D01*
X121115236Y-74150365D01*
X121034929Y-73990154D01*
X120943911Y-73844943D01*
X120911329Y-73799450D01*
X120854972Y-73724003D01*
X120778199Y-73622905D01*
X120684369Y-73500456D01*
X120576842Y-73360960D01*
X120458978Y-73208717D01*
X120334135Y-73048031D01*
X120205673Y-72883203D01*
X120076952Y-72718535D01*
X119951331Y-72558329D01*
X119832170Y-72406888D01*
X119722828Y-72268513D01*
X119626664Y-72147506D01*
X119547038Y-72048169D01*
X119487309Y-71974805D01*
X119450838Y-71931715D01*
X119444694Y-71925089D01*
X119438949Y-71941174D01*
X119434502Y-72002032D01*
X119431360Y-72107098D01*
X119429532Y-72255808D01*
X119429023Y-72447596D01*
X119429841Y-72681897D01*
X119431667Y-72922946D01*
X119434324Y-73188349D01*
X119437387Y-73412824D01*
X119441356Y-73600799D01*
X119446731Y-73756702D01*
X119454011Y-73884964D01*
X119463696Y-73990011D01*
X119476286Y-74076273D01*
X119492280Y-74148179D01*
X119512178Y-74210157D01*
X119536480Y-74266636D01*
X119565684Y-74322044D01*
X119595180Y-74372345D01*
X119671513Y-74499107D01*
X117542284Y-74499107D01*
X116933904Y-74499107D01*
X116933971Y-74511663D01*
X116935591Y-74716719D01*
X116937651Y-74895335D01*
X116940202Y-75049404D01*
X116943296Y-75180816D01*
X116946984Y-75291465D01*
X116951317Y-75383240D01*
X116956347Y-75458035D01*
X116962125Y-75517741D01*
X116968702Y-75564250D01*
X116976131Y-75599453D01*
X116984461Y-75625243D01*
X116993745Y-75643510D01*
X117004034Y-75656148D01*
X117015379Y-75665046D01*
X117027832Y-75672098D01*
X117041444Y-75679196D01*
X117053490Y-75686364D01*
X117064002Y-75691539D01*
X117080427Y-75696217D01*
X117104962Y-75700423D01*
X117139807Y-75704182D01*
X117187161Y-75707517D01*
X117249222Y-75710456D01*
X117328189Y-75713021D01*
X117426262Y-75715238D01*
X117545639Y-75717132D01*
X117688519Y-75718727D01*
X117857102Y-75720049D01*
X118053585Y-75721122D01*
X118280168Y-75721971D01*
X118539050Y-75722620D01*
X118832430Y-75723096D01*
X119162507Y-75723422D01*
X119531479Y-75723623D01*
X119941546Y-75723724D01*
X120365720Y-75723750D01*
X123620893Y-75723750D01*
X123620893Y-75529311D01*
X123620893Y-75529311D01*
G37*
X123620893Y-75529311D02*
X123642720Y-75300415D01*
X123706237Y-75084209D01*
X123808497Y-74885327D01*
X123946554Y-74708403D01*
X124117462Y-74558071D01*
X124312302Y-74441819D01*
X124525788Y-74362223D01*
X124740771Y-74324920D01*
X124953014Y-74327209D01*
X125158276Y-74366391D01*
X125352320Y-74439766D01*
X125530907Y-74544632D01*
X125689796Y-74678292D01*
X125824750Y-74838043D01*
X125931529Y-75021186D01*
X126005895Y-75225022D01*
X126043608Y-75446849D01*
X126047500Y-75547086D01*
X126047500Y-75723750D01*
X126151822Y-75723750D01*
X126224761Y-75718035D01*
X126278796Y-75694331D01*
X126333250Y-75646643D01*
X126410357Y-75569536D01*
X126410357Y-71166827D01*
X126410339Y-70640211D01*
X126410274Y-70157061D01*
X126410146Y-69715485D01*
X126409938Y-69313591D01*
X126409634Y-68949488D01*
X126409217Y-68621285D01*
X126408672Y-68327089D01*
X126407981Y-68065010D01*
X126407128Y-67833155D01*
X126406098Y-67629634D01*
X126404873Y-67452554D01*
X126403437Y-67300024D01*
X126401774Y-67170153D01*
X126399867Y-67061049D01*
X126397701Y-66970821D01*
X126395258Y-66897576D01*
X126392522Y-66839424D01*
X126389477Y-66794472D01*
X126386107Y-66760830D01*
X126382394Y-66736605D01*
X126378324Y-66719907D01*
X126373878Y-66708843D01*
X126371704Y-66705126D01*
X126363341Y-66691040D01*
X126356240Y-66678089D01*
X126348547Y-66666228D01*
X126338407Y-66655407D01*
X126323966Y-66645580D01*
X126303369Y-66636700D01*
X126274761Y-66628718D01*
X126236289Y-66621588D01*
X126186097Y-66615262D01*
X126122331Y-66609692D01*
X126043136Y-66604832D01*
X125946658Y-66600634D01*
X125831042Y-66597050D01*
X125694435Y-66594032D01*
X125534980Y-66591535D01*
X125350825Y-66589510D01*
X125140114Y-66587909D01*
X124900992Y-66586686D01*
X124631605Y-66585792D01*
X124330100Y-66585181D01*
X123994620Y-66584806D01*
X123623312Y-66584617D01*
X123214321Y-66584569D01*
X122765792Y-66584614D01*
X122275872Y-66584705D01*
X121742705Y-66584793D01*
X121665595Y-66584802D01*
X121129255Y-66584889D01*
X120636425Y-66585031D01*
X120185258Y-66585242D01*
X119773907Y-66585538D01*
X119400524Y-66585933D01*
X119063262Y-66586441D01*
X118760275Y-66587076D01*
X118489714Y-66587854D01*
X118249733Y-66588789D01*
X118038485Y-66589895D01*
X117854122Y-66591187D01*
X117694798Y-66592680D01*
X117558665Y-66594387D01*
X117443875Y-66596324D01*
X117348583Y-66598504D01*
X117270940Y-66600943D01*
X117209100Y-66603655D01*
X117161215Y-66606654D01*
X117125438Y-66609955D01*
X117099922Y-66613573D01*
X117082819Y-66617521D01*
X117074065Y-66620873D01*
X117057065Y-66628046D01*
X117041458Y-66633341D01*
X117027184Y-66638638D01*
X117014184Y-66645812D01*
X117002400Y-66656744D01*
X116991772Y-66673309D01*
X116982241Y-66697386D01*
X116973747Y-66730853D01*
X116966231Y-66775587D01*
X116959634Y-66833467D01*
X116953896Y-66906369D01*
X116948960Y-66996172D01*
X116944764Y-67104754D01*
X116941250Y-67233993D01*
X116938359Y-67385765D01*
X116936032Y-67561950D01*
X116934209Y-67764424D01*
X116932830Y-67995065D01*
X116931838Y-68255752D01*
X116931172Y-68548362D01*
X116930773Y-68874773D01*
X116930583Y-69236862D01*
X116930541Y-69636508D01*
X116930588Y-70075588D01*
X116930666Y-70555980D01*
X116930714Y-71079562D01*
X116930715Y-71164241D01*
X116930687Y-71692382D01*
X116930637Y-72177057D01*
X116930615Y-72620159D01*
X116930674Y-73023579D01*
X116930864Y-73389209D01*
X116931237Y-73718940D01*
X116931846Y-74014666D01*
X116932740Y-74278276D01*
X116933904Y-74499107D01*
X117542284Y-74499107D01*
X117622219Y-74382902D01*
X117644660Y-74351225D01*
X117664891Y-74323177D01*
X117683027Y-74296372D01*
X117699180Y-74268429D01*
X117713466Y-74236964D01*
X117725999Y-74199594D01*
X117736893Y-74153934D01*
X117746261Y-74097601D01*
X117754218Y-74028213D01*
X117760878Y-73943386D01*
X117766356Y-73840736D01*
X117770764Y-73717880D01*
X117774218Y-73572434D01*
X117776832Y-73402016D01*
X117778719Y-73204241D01*
X117779994Y-72976726D01*
X117780770Y-72717089D01*
X117781163Y-72422945D01*
X117781286Y-72091910D01*
X117781253Y-71721603D01*
X117781178Y-71309639D01*
X117781161Y-71063304D01*
X117781209Y-70627468D01*
X117781277Y-70234604D01*
X117781253Y-69882325D01*
X117781023Y-69568244D01*
X117780475Y-69289975D01*
X117779496Y-69045133D01*
X117777972Y-68831331D01*
X117775791Y-68646183D01*
X117772840Y-68487304D01*
X117769006Y-68352306D01*
X117764175Y-68238804D01*
X117758235Y-68144412D01*
X117751074Y-68066743D01*
X117742577Y-68003412D01*
X117732632Y-67952032D01*
X117721127Y-67910217D01*
X117707947Y-67875582D01*
X117692981Y-67845739D01*
X117676115Y-67818304D01*
X117657236Y-67790889D01*
X117636232Y-67761109D01*
X117623996Y-67743248D01*
X117546103Y-67627500D01*
X118613977Y-67627500D01*
X118861575Y-67627570D01*
X119067482Y-67627872D01*
X119235363Y-67628548D01*
X119368884Y-67629739D01*
X119471710Y-67631585D01*
X119547508Y-67634228D01*
X119599943Y-67637807D01*
X119632680Y-67642465D01*
X119649386Y-67648341D01*
X119653725Y-67655577D01*
X119649364Y-67664314D01*
X119646961Y-67667188D01*
X119596437Y-67741661D01*
X119544410Y-67847735D01*
X119496981Y-67972292D01*
X119480369Y-68025354D01*
X119471094Y-68061397D01*
X119463256Y-68103707D01*
X119456690Y-68156474D01*
X119451231Y-68223887D01*
X119446712Y-68310137D01*
X119442970Y-68419412D01*
X119439839Y-68555902D01*
X119437155Y-68723797D01*
X119434751Y-68927286D01*
X119432463Y-69170559D01*
X119431705Y-69260357D01*
X119429663Y-69511777D01*
X119428139Y-69721443D01*
X119427250Y-69892954D01*
X119427114Y-70029912D01*
X119427848Y-70135918D01*
X119429570Y-70214571D01*
X119432396Y-70269473D01*
X119436445Y-70304224D01*
X119441834Y-70322425D01*
X119448679Y-70327677D01*
X119457099Y-70323580D01*
X119466087Y-70314911D01*
X119486889Y-70288925D01*
X119531202Y-70230517D01*
X119595891Y-70143967D01*
X119677821Y-70033557D01*
X119773856Y-69903570D01*
X119880861Y-69758286D01*
X119995701Y-69601987D01*
X120115240Y-69438955D01*
X120236342Y-69273471D01*
X120355873Y-69109817D01*
X120470696Y-68952275D01*
X120577678Y-68805126D01*
X120673682Y-68672651D01*
X120755572Y-68559134D01*
X120820214Y-68468854D01*
X120864472Y-68406093D01*
X120873649Y-68392769D01*
X120919697Y-68318634D01*
X120973553Y-68222226D01*
X121024577Y-68122708D01*
X121031047Y-68109287D01*
X121074596Y-68012466D01*
X121099881Y-67937008D01*
X121111392Y-67865037D01*
X121113638Y-67780580D01*
X121112365Y-67627500D01*
X123431550Y-67627500D01*
X123248409Y-67815799D01*
X123154397Y-67916033D01*
X123053373Y-68029496D01*
X122960873Y-68138520D01*
X122919840Y-68189451D01*
X122858691Y-68268895D01*
X122778225Y-68375793D01*
X122680793Y-68506874D01*
X122568748Y-68658862D01*
X122444443Y-68828484D01*
X122310231Y-69012468D01*
X122168464Y-69207538D01*
X122021495Y-69410423D01*
X121871678Y-69617847D01*
X121721364Y-69826538D01*
X121572906Y-70033221D01*
X121428658Y-70234624D01*
X121290971Y-70427473D01*
X121162199Y-70608494D01*
X121044694Y-70774414D01*
X120940810Y-70921959D01*
X120852898Y-71047855D01*
X120783312Y-71148829D01*
X120734405Y-71221607D01*
X120708528Y-71262916D01*
X120704996Y-71271157D01*
X120720986Y-71293911D01*
X120762761Y-71348514D01*
X120827584Y-71431549D01*
X120912716Y-71539600D01*
X121015419Y-71669251D01*
X121132955Y-71817086D01*
X121262584Y-71979688D01*
X121401568Y-72153640D01*
X121547170Y-72335528D01*
X121696650Y-72521934D01*
X121816642Y-72671313D01*
X123847679Y-72671313D01*
X123859551Y-72645283D01*
X123888338Y-72600586D01*
X123890442Y-72597608D01*
X123928184Y-72537033D01*
X123967653Y-72463041D01*
X123975486Y-72446696D01*
X123982590Y-72429763D01*
X123988868Y-72409435D01*
X123994382Y-72382914D01*
X123999191Y-72347402D01*
X124003356Y-72300099D01*
X124006939Y-72238206D01*
X124009999Y-72158926D01*
X124012596Y-72059459D01*
X124014792Y-71937007D01*
X124016647Y-71788772D01*
X124018221Y-71611954D01*
X124019576Y-71403754D01*
X124020770Y-71161375D01*
X124021866Y-70882017D01*
X124022923Y-70562882D01*
X124023996Y-70203572D01*
X124025077Y-69831683D01*
X124025950Y-69502342D01*
X124026479Y-69212739D01*
X124026529Y-68960065D01*
X124025964Y-68741510D01*
X124024650Y-68554265D01*
X124022450Y-68395520D01*
X124019229Y-68262465D01*
X124014851Y-68152292D01*
X124009182Y-68062191D01*
X124002086Y-67989352D01*
X123993427Y-67930966D01*
X123983070Y-67884223D01*
X123970879Y-67846314D01*
X123956720Y-67814430D01*
X123940456Y-67785760D01*
X123921953Y-67757496D01*
X123904876Y-67732450D01*
X123870451Y-67679627D01*
X123850068Y-67644302D01*
X123847679Y-67637832D01*
X123869590Y-67635668D01*
X123932255Y-67633658D01*
X124031070Y-67631850D01*
X124161431Y-67630292D01*
X124318735Y-67629033D01*
X124498379Y-67628120D01*
X124695759Y-67627602D01*
X124834197Y-67627500D01*
X125045120Y-67627943D01*
X125239669Y-67629212D01*
X125413446Y-67631218D01*
X125562056Y-67633874D01*
X125681102Y-67637090D01*
X125766188Y-67640777D01*
X125812916Y-67644847D01*
X125820715Y-67647402D01*
X125805251Y-67677341D01*
X125789182Y-67693473D01*
X125762721Y-67727879D01*
X125728088Y-67788651D01*
X125704138Y-67837991D01*
X125650625Y-67956339D01*
X125644448Y-70320580D01*
X125638270Y-72684822D01*
X124742974Y-72684821D01*
X124546468Y-72684491D01*
X124364873Y-72683550D01*
X124203021Y-72682070D01*
X124065747Y-72680125D01*
X123957880Y-72677786D01*
X123884255Y-72675128D01*
X123849703Y-72672223D01*
X123847679Y-72671313D01*
X121816642Y-72671313D01*
X121847271Y-72709442D01*
X121996293Y-72894636D01*
X122140979Y-73074099D01*
X122278589Y-73244416D01*
X122406386Y-73402169D01*
X122521631Y-73543943D01*
X122621586Y-73666321D01*
X122703512Y-73765888D01*
X122737994Y-73807411D01*
X122911349Y-74009632D01*
X123065231Y-74176891D01*
X123203472Y-74313137D01*
X123329905Y-74422321D01*
X123348750Y-74437122D01*
X123428125Y-74498604D01*
X122291313Y-74498856D01*
X121154500Y-74499107D01*
X121165126Y-74402723D01*
X121158490Y-74287524D01*
X121115236Y-74150365D01*
X121034929Y-73990154D01*
X120943911Y-73844943D01*
X120911329Y-73799450D01*
X120854972Y-73724003D01*
X120778199Y-73622905D01*
X120684369Y-73500456D01*
X120576842Y-73360960D01*
X120458978Y-73208717D01*
X120334135Y-73048031D01*
X120205673Y-72883203D01*
X120076952Y-72718535D01*
X119951331Y-72558329D01*
X119832170Y-72406888D01*
X119722828Y-72268513D01*
X119626664Y-72147506D01*
X119547038Y-72048169D01*
X119487309Y-71974805D01*
X119450838Y-71931715D01*
X119444694Y-71925089D01*
X119438949Y-71941174D01*
X119434502Y-72002032D01*
X119431360Y-72107098D01*
X119429532Y-72255808D01*
X119429023Y-72447596D01*
X119429841Y-72681897D01*
X119431667Y-72922946D01*
X119434324Y-73188349D01*
X119437387Y-73412824D01*
X119441356Y-73600799D01*
X119446731Y-73756702D01*
X119454011Y-73884964D01*
X119463696Y-73990011D01*
X119476286Y-74076273D01*
X119492280Y-74148179D01*
X119512178Y-74210157D01*
X119536480Y-74266636D01*
X119565684Y-74322044D01*
X119595180Y-74372345D01*
X119671513Y-74499107D01*
X117542284Y-74499107D01*
X116933904Y-74499107D01*
X116933971Y-74511663D01*
X116935591Y-74716719D01*
X116937651Y-74895335D01*
X116940202Y-75049404D01*
X116943296Y-75180816D01*
X116946984Y-75291465D01*
X116951317Y-75383240D01*
X116956347Y-75458035D01*
X116962125Y-75517741D01*
X116968702Y-75564250D01*
X116976131Y-75599453D01*
X116984461Y-75625243D01*
X116993745Y-75643510D01*
X117004034Y-75656148D01*
X117015379Y-75665046D01*
X117027832Y-75672098D01*
X117041444Y-75679196D01*
X117053490Y-75686364D01*
X117064002Y-75691539D01*
X117080427Y-75696217D01*
X117104962Y-75700423D01*
X117139807Y-75704182D01*
X117187161Y-75707517D01*
X117249222Y-75710456D01*
X117328189Y-75713021D01*
X117426262Y-75715238D01*
X117545639Y-75717132D01*
X117688519Y-75718727D01*
X117857102Y-75720049D01*
X118053585Y-75721122D01*
X118280168Y-75721971D01*
X118539050Y-75722620D01*
X118832430Y-75723096D01*
X119162507Y-75723422D01*
X119531479Y-75723623D01*
X119941546Y-75723724D01*
X120365720Y-75723750D01*
X123620893Y-75723750D01*
X123620893Y-75529311D01*
G36*
X130199791Y-74605170D02*
X130521503Y-74562634D01*
X130850847Y-74481995D01*
X131191969Y-74362456D01*
X131549015Y-74203217D01*
X131571651Y-74192078D01*
X131687556Y-74135777D01*
X131791111Y-74087407D01*
X131874760Y-74050348D01*
X131930951Y-74027975D01*
X131950179Y-74022857D01*
X131988784Y-74012797D01*
X131998048Y-74004348D01*
X131987796Y-73983389D01*
X131955573Y-73930578D01*
X131905088Y-73851449D01*
X131840051Y-73751537D01*
X131764172Y-73636375D01*
X131681161Y-73511499D01*
X131594729Y-73382442D01*
X131508583Y-73254739D01*
X131426436Y-73133924D01*
X131351996Y-73025531D01*
X131288974Y-72935095D01*
X131241079Y-72868149D01*
X131212021Y-72830229D01*
X131208033Y-72825831D01*
X131187706Y-72835169D01*
X131142825Y-72869676D01*
X131081411Y-72922955D01*
X131049783Y-72952037D01*
X130855943Y-73103272D01*
X130641569Y-73214649D01*
X130409529Y-73285164D01*
X130162692Y-73313812D01*
X130023272Y-73311460D01*
X129779913Y-73276985D01*
X129560502Y-73204900D01*
X129364385Y-73094680D01*
X129190905Y-72945797D01*
X129039407Y-72757725D01*
X128909234Y-72529936D01*
X128834065Y-72355982D01*
X128745968Y-72083371D01*
X128681039Y-71787087D01*
X128639110Y-71474771D01*
X128620013Y-71154062D01*
X128623582Y-70832600D01*
X128649649Y-70518025D01*
X128698047Y-70217978D01*
X128768609Y-69940099D01*
X128861167Y-69692027D01*
X128893876Y-69623214D01*
X129030978Y-69394023D01*
X129192616Y-69200176D01*
X129376415Y-69043252D01*
X129580001Y-68924832D01*
X129801001Y-68846494D01*
X130037040Y-68809819D01*
X130120346Y-68807121D01*
X130364548Y-68829060D01*
X130606498Y-68894986D01*
X130843125Y-69003537D01*
X131071362Y-69153352D01*
X131254993Y-69310704D01*
X131348469Y-69400163D01*
X131712623Y-68802983D01*
X131803221Y-68653996D01*
X131886065Y-68516961D01*
X131958218Y-68396801D01*
X132016741Y-68298442D01*
X132058695Y-68226806D01*
X132081142Y-68186818D01*
X132084059Y-68180601D01*
X132067527Y-68161236D01*
X132016141Y-68126521D01*
X131936398Y-68079744D01*
X131834794Y-68024195D01*
X131717828Y-67963161D01*
X131591996Y-67899930D01*
X131463794Y-67837791D01*
X131339720Y-67780032D01*
X131226271Y-67729940D01*
X131129944Y-67690804D01*
X131082830Y-67673870D01*
X130814105Y-67597903D01*
X130537086Y-67547674D01*
X130240357Y-67521550D01*
X129985648Y-67516873D01*
X129849130Y-67519072D01*
X129717342Y-67523286D01*
X129601969Y-67528995D01*
X129514695Y-67535680D01*
X129486359Y-67539062D01*
X129207088Y-67596990D01*
X128922771Y-67687632D01*
X128646579Y-67805592D01*
X128391686Y-67945473D01*
X128235982Y-68051303D01*
X127980030Y-68268672D01*
X127742368Y-68522937D01*
X127527399Y-68807813D01*
X127339525Y-69117018D01*
X127183147Y-69444269D01*
X127095046Y-69679911D01*
X126994102Y-70048805D01*
X126926806Y-70439636D01*
X126893135Y-70843945D01*
X126893069Y-71253278D01*
X126926588Y-71659177D01*
X126993669Y-72053186D01*
X127094292Y-72426848D01*
X127101959Y-72450128D01*
X127228287Y-72775682D01*
X127382467Y-73072837D01*
X127569728Y-73350004D01*
X127795301Y-73615592D01*
X127883423Y-73706521D01*
X128156923Y-73955511D01*
X128438085Y-74161511D01*
X128731227Y-74326763D01*
X129040665Y-74453510D01*
X129370713Y-74543995D01*
X129562679Y-74579131D01*
X129881565Y-74610403D01*
X130199791Y-74605170D01*
X130199791Y-74605170D01*
G37*
X130199791Y-74605170D02*
X130521503Y-74562634D01*
X130850847Y-74481995D01*
X131191969Y-74362456D01*
X131549015Y-74203217D01*
X131571651Y-74192078D01*
X131687556Y-74135777D01*
X131791111Y-74087407D01*
X131874760Y-74050348D01*
X131930951Y-74027975D01*
X131950179Y-74022857D01*
X131988784Y-74012797D01*
X131998048Y-74004348D01*
X131987796Y-73983389D01*
X131955573Y-73930578D01*
X131905088Y-73851449D01*
X131840051Y-73751537D01*
X131764172Y-73636375D01*
X131681161Y-73511499D01*
X131594729Y-73382442D01*
X131508583Y-73254739D01*
X131426436Y-73133924D01*
X131351996Y-73025531D01*
X131288974Y-72935095D01*
X131241079Y-72868149D01*
X131212021Y-72830229D01*
X131208033Y-72825831D01*
X131187706Y-72835169D01*
X131142825Y-72869676D01*
X131081411Y-72922955D01*
X131049783Y-72952037D01*
X130855943Y-73103272D01*
X130641569Y-73214649D01*
X130409529Y-73285164D01*
X130162692Y-73313812D01*
X130023272Y-73311460D01*
X129779913Y-73276985D01*
X129560502Y-73204900D01*
X129364385Y-73094680D01*
X129190905Y-72945797D01*
X129039407Y-72757725D01*
X128909234Y-72529936D01*
X128834065Y-72355982D01*
X128745968Y-72083371D01*
X128681039Y-71787087D01*
X128639110Y-71474771D01*
X128620013Y-71154062D01*
X128623582Y-70832600D01*
X128649649Y-70518025D01*
X128698047Y-70217978D01*
X128768609Y-69940099D01*
X128861167Y-69692027D01*
X128893876Y-69623214D01*
X129030978Y-69394023D01*
X129192616Y-69200176D01*
X129376415Y-69043252D01*
X129580001Y-68924832D01*
X129801001Y-68846494D01*
X130037040Y-68809819D01*
X130120346Y-68807121D01*
X130364548Y-68829060D01*
X130606498Y-68894986D01*
X130843125Y-69003537D01*
X131071362Y-69153352D01*
X131254993Y-69310704D01*
X131348469Y-69400163D01*
X131712623Y-68802983D01*
X131803221Y-68653996D01*
X131886065Y-68516961D01*
X131958218Y-68396801D01*
X132016741Y-68298442D01*
X132058695Y-68226806D01*
X132081142Y-68186818D01*
X132084059Y-68180601D01*
X132067527Y-68161236D01*
X132016141Y-68126521D01*
X131936398Y-68079744D01*
X131834794Y-68024195D01*
X131717828Y-67963161D01*
X131591996Y-67899930D01*
X131463794Y-67837791D01*
X131339720Y-67780032D01*
X131226271Y-67729940D01*
X131129944Y-67690804D01*
X131082830Y-67673870D01*
X130814105Y-67597903D01*
X130537086Y-67547674D01*
X130240357Y-67521550D01*
X129985648Y-67516873D01*
X129849130Y-67519072D01*
X129717342Y-67523286D01*
X129601969Y-67528995D01*
X129514695Y-67535680D01*
X129486359Y-67539062D01*
X129207088Y-67596990D01*
X128922771Y-67687632D01*
X128646579Y-67805592D01*
X128391686Y-67945473D01*
X128235982Y-68051303D01*
X127980030Y-68268672D01*
X127742368Y-68522937D01*
X127527399Y-68807813D01*
X127339525Y-69117018D01*
X127183147Y-69444269D01*
X127095046Y-69679911D01*
X126994102Y-70048805D01*
X126926806Y-70439636D01*
X126893135Y-70843945D01*
X126893069Y-71253278D01*
X126926588Y-71659177D01*
X126993669Y-72053186D01*
X127094292Y-72426848D01*
X127101959Y-72450128D01*
X127228287Y-72775682D01*
X127382467Y-73072837D01*
X127569728Y-73350004D01*
X127795301Y-73615592D01*
X127883423Y-73706521D01*
X128156923Y-73955511D01*
X128438085Y-74161511D01*
X128731227Y-74326763D01*
X129040665Y-74453510D01*
X129370713Y-74543995D01*
X129562679Y-74579131D01*
X129881565Y-74610403D01*
X130199791Y-74605170D01*
G36*
X134911019Y-72762016D02*
X135216212Y-72721808D01*
X135487948Y-72654238D01*
X135727981Y-72558767D01*
X135938066Y-72434857D01*
X136093978Y-72307169D01*
X136232274Y-72158239D01*
X136340236Y-71997983D01*
X136426427Y-71812719D01*
X136457514Y-71726195D01*
X136483347Y-71647885D01*
X136505851Y-71575268D01*
X136525286Y-71504664D01*
X136541912Y-71432390D01*
X136555989Y-71354766D01*
X136567779Y-71268110D01*
X136577540Y-71168741D01*
X136585535Y-71052978D01*
X136592022Y-70917139D01*
X136597264Y-70757543D01*
X136601519Y-70570509D01*
X136605048Y-70352356D01*
X136608112Y-70099402D01*
X136610972Y-69807967D01*
X136613487Y-69521161D01*
X136616152Y-69207385D01*
X136618574Y-68935636D01*
X136621004Y-68702587D01*
X136623695Y-68504910D01*
X136626899Y-68339278D01*
X136630866Y-68202364D01*
X136635851Y-68090840D01*
X136642103Y-68001378D01*
X136649876Y-67930652D01*
X136659420Y-67875334D01*
X136670989Y-67832097D01*
X136684834Y-67797612D01*
X136701207Y-67768554D01*
X136720359Y-67741594D01*
X136742543Y-67713406D01*
X136751183Y-67702491D01*
X136782963Y-67656610D01*
X136797098Y-67625365D01*
X136797143Y-67624442D01*
X136775292Y-67620025D01*
X136713044Y-67615955D01*
X136615361Y-67612348D01*
X136487204Y-67609317D01*
X136333532Y-67606977D01*
X136159307Y-67605442D01*
X135969490Y-67604828D01*
X135947580Y-67604821D01*
X135098016Y-67604821D01*
X135091464Y-67797812D01*
X135084911Y-67990803D01*
X134960179Y-67888373D01*
X134764650Y-67752743D01*
X134543866Y-67642871D01*
X134370165Y-67582143D01*
X134231407Y-67552635D01*
X134063958Y-67532560D01*
X133883624Y-67522542D01*
X133706207Y-67523210D01*
X133547513Y-67535188D01*
X133474732Y-67546666D01*
X133193445Y-67622728D01*
X132939465Y-67732904D01*
X132714629Y-67875554D01*
X132520774Y-68049038D01*
X132359734Y-68251716D01*
X132233346Y-68481946D01*
X132144199Y-68735255D01*
X132119420Y-68848927D01*
X132104133Y-68973881D01*
X132096843Y-69124226D01*
X132095849Y-69192321D01*
X132095980Y-69198720D01*
X133622641Y-69198720D01*
X133641312Y-69047947D01*
X133697937Y-68919723D01*
X133795307Y-68807950D01*
X133805466Y-68799086D01*
X133902486Y-68729121D01*
X134006365Y-68683756D01*
X134128371Y-68659808D01*
X134279770Y-68654096D01*
X134316147Y-68654910D01*
X134424264Y-68660239D01*
X134504681Y-68671120D01*
X134575027Y-68691538D01*
X134652931Y-68725480D01*
X134674310Y-68735883D01*
X134796154Y-68807859D01*
X134890209Y-68893504D01*
X134915797Y-68924116D01*
X135005536Y-69037644D01*
X135005536Y-69431145D01*
X135004460Y-69589140D01*
X135001065Y-69705559D01*
X134995102Y-69784135D01*
X134986321Y-69828601D01*
X134978115Y-69841592D01*
X134946122Y-69847948D01*
X134878254Y-69853216D01*
X134783987Y-69856899D01*
X134672800Y-69858501D01*
X134654945Y-69858531D01*
X134412316Y-69847977D01*
X134206059Y-69815498D01*
X134032179Y-69759855D01*
X133886681Y-69679805D01*
X133776331Y-69585486D01*
X133686839Y-69469196D01*
X133637170Y-69342537D01*
X133622641Y-69198720D01*
X132095980Y-69198720D01*
X132099733Y-69380669D01*
X132116496Y-69539172D01*
X132149133Y-69682253D01*
X132200635Y-69824335D01*
X132248842Y-69929546D01*
X132366603Y-70120991D01*
X132523494Y-70297829D01*
X132714741Y-70456840D01*
X132935569Y-70594808D01*
X133181205Y-70708512D01*
X133446874Y-70794735D01*
X133576786Y-70824747D01*
X133850365Y-70869154D01*
X134148582Y-70898451D01*
X134452846Y-70911269D01*
X134707093Y-70907990D01*
X135032312Y-70894371D01*
X135017406Y-71012855D01*
X134978648Y-71212047D01*
X134916103Y-71374208D01*
X134828041Y-71500582D01*
X134712732Y-71592410D01*
X134568446Y-71650937D01*
X134393453Y-71677406D01*
X134186022Y-71673059D01*
X134109732Y-71665021D01*
X133826091Y-71614461D01*
X133551243Y-71532026D01*
X133361340Y-71455684D01*
X133270617Y-71416762D01*
X133193409Y-71385482D01*
X133140471Y-71366107D01*
X133125026Y-71361993D01*
X133105450Y-71380231D01*
X133071864Y-71438429D01*
X133023950Y-71537243D01*
X132961393Y-71677331D01*
X132883877Y-71859351D01*
X132870623Y-71891071D01*
X132810242Y-72036351D01*
X132756042Y-72167629D01*
X132710364Y-72279163D01*
X132675548Y-72365213D01*
X132653936Y-72420039D01*
X132647695Y-72437796D01*
X132667782Y-72447348D01*
X132720570Y-72457949D01*
X132777366Y-72465341D01*
X132837950Y-72474897D01*
X132933951Y-72493872D01*
X133056856Y-72520406D01*
X133198150Y-72552639D01*
X133349320Y-72588711D01*
X133406697Y-72602818D01*
X133617757Y-72654223D01*
X133793867Y-72694527D01*
X133943709Y-72725018D01*
X134075967Y-72746984D01*
X134199324Y-72761711D01*
X134322460Y-72770489D01*
X134454061Y-72774603D01*
X134570614Y-72775402D01*
X134911019Y-72762016D01*
X134911019Y-72762016D01*
G37*
X134911019Y-72762016D02*
X135216212Y-72721808D01*
X135487948Y-72654238D01*
X135727981Y-72558767D01*
X135938066Y-72434857D01*
X136093978Y-72307169D01*
X136232274Y-72158239D01*
X136340236Y-71997983D01*
X136426427Y-71812719D01*
X136457514Y-71726195D01*
X136483347Y-71647885D01*
X136505851Y-71575268D01*
X136525286Y-71504664D01*
X136541912Y-71432390D01*
X136555989Y-71354766D01*
X136567779Y-71268110D01*
X136577540Y-71168741D01*
X136585535Y-71052978D01*
X136592022Y-70917139D01*
X136597264Y-70757543D01*
X136601519Y-70570509D01*
X136605048Y-70352356D01*
X136608112Y-70099402D01*
X136610972Y-69807967D01*
X136613487Y-69521161D01*
X136616152Y-69207385D01*
X136618574Y-68935636D01*
X136621004Y-68702587D01*
X136623695Y-68504910D01*
X136626899Y-68339278D01*
X136630866Y-68202364D01*
X136635851Y-68090840D01*
X136642103Y-68001378D01*
X136649876Y-67930652D01*
X136659420Y-67875334D01*
X136670989Y-67832097D01*
X136684834Y-67797612D01*
X136701207Y-67768554D01*
X136720359Y-67741594D01*
X136742543Y-67713406D01*
X136751183Y-67702491D01*
X136782963Y-67656610D01*
X136797098Y-67625365D01*
X136797143Y-67624442D01*
X136775292Y-67620025D01*
X136713044Y-67615955D01*
X136615361Y-67612348D01*
X136487204Y-67609317D01*
X136333532Y-67606977D01*
X136159307Y-67605442D01*
X135969490Y-67604828D01*
X135947580Y-67604821D01*
X135098016Y-67604821D01*
X135091464Y-67797812D01*
X135084911Y-67990803D01*
X134960179Y-67888373D01*
X134764650Y-67752743D01*
X134543866Y-67642871D01*
X134370165Y-67582143D01*
X134231407Y-67552635D01*
X134063958Y-67532560D01*
X133883624Y-67522542D01*
X133706207Y-67523210D01*
X133547513Y-67535188D01*
X133474732Y-67546666D01*
X133193445Y-67622728D01*
X132939465Y-67732904D01*
X132714629Y-67875554D01*
X132520774Y-68049038D01*
X132359734Y-68251716D01*
X132233346Y-68481946D01*
X132144199Y-68735255D01*
X132119420Y-68848927D01*
X132104133Y-68973881D01*
X132096843Y-69124226D01*
X132095849Y-69192321D01*
X132095980Y-69198720D01*
X133622641Y-69198720D01*
X133641312Y-69047947D01*
X133697937Y-68919723D01*
X133795307Y-68807950D01*
X133805466Y-68799086D01*
X133902486Y-68729121D01*
X134006365Y-68683756D01*
X134128371Y-68659808D01*
X134279770Y-68654096D01*
X134316147Y-68654910D01*
X134424264Y-68660239D01*
X134504681Y-68671120D01*
X134575027Y-68691538D01*
X134652931Y-68725480D01*
X134674310Y-68735883D01*
X134796154Y-68807859D01*
X134890209Y-68893504D01*
X134915797Y-68924116D01*
X135005536Y-69037644D01*
X135005536Y-69431145D01*
X135004460Y-69589140D01*
X135001065Y-69705559D01*
X134995102Y-69784135D01*
X134986321Y-69828601D01*
X134978115Y-69841592D01*
X134946122Y-69847948D01*
X134878254Y-69853216D01*
X134783987Y-69856899D01*
X134672800Y-69858501D01*
X134654945Y-69858531D01*
X134412316Y-69847977D01*
X134206059Y-69815498D01*
X134032179Y-69759855D01*
X133886681Y-69679805D01*
X133776331Y-69585486D01*
X133686839Y-69469196D01*
X133637170Y-69342537D01*
X133622641Y-69198720D01*
X132095980Y-69198720D01*
X132099733Y-69380669D01*
X132116496Y-69539172D01*
X132149133Y-69682253D01*
X132200635Y-69824335D01*
X132248842Y-69929546D01*
X132366603Y-70120991D01*
X132523494Y-70297829D01*
X132714741Y-70456840D01*
X132935569Y-70594808D01*
X133181205Y-70708512D01*
X133446874Y-70794735D01*
X133576786Y-70824747D01*
X133850365Y-70869154D01*
X134148582Y-70898451D01*
X134452846Y-70911269D01*
X134707093Y-70907990D01*
X135032312Y-70894371D01*
X135017406Y-71012855D01*
X134978648Y-71212047D01*
X134916103Y-71374208D01*
X134828041Y-71500582D01*
X134712732Y-71592410D01*
X134568446Y-71650937D01*
X134393453Y-71677406D01*
X134186022Y-71673059D01*
X134109732Y-71665021D01*
X133826091Y-71614461D01*
X133551243Y-71532026D01*
X133361340Y-71455684D01*
X133270617Y-71416762D01*
X133193409Y-71385482D01*
X133140471Y-71366107D01*
X133125026Y-71361993D01*
X133105450Y-71380231D01*
X133071864Y-71438429D01*
X133023950Y-71537243D01*
X132961393Y-71677331D01*
X132883877Y-71859351D01*
X132870623Y-71891071D01*
X132810242Y-72036351D01*
X132756042Y-72167629D01*
X132710364Y-72279163D01*
X132675548Y-72365213D01*
X132653936Y-72420039D01*
X132647695Y-72437796D01*
X132667782Y-72447348D01*
X132720570Y-72457949D01*
X132777366Y-72465341D01*
X132837950Y-72474897D01*
X132933951Y-72493872D01*
X133056856Y-72520406D01*
X133198150Y-72552639D01*
X133349320Y-72588711D01*
X133406697Y-72602818D01*
X133617757Y-72654223D01*
X133793867Y-72694527D01*
X133943709Y-72725018D01*
X134075967Y-72746984D01*
X134199324Y-72761711D01*
X134322460Y-72770489D01*
X134454061Y-72774603D01*
X134570614Y-72775402D01*
X134911019Y-72762016D01*
G36*
X141968251Y-71545223D02*
X141968290Y-71074295D01*
X141968342Y-70646512D01*
X141968488Y-70259662D01*
X141968805Y-69911534D01*
X141969371Y-69599915D01*
X141970265Y-69322594D01*
X141971565Y-69077360D01*
X141973349Y-68861999D01*
X141975697Y-68674300D01*
X141978685Y-68512052D01*
X141982393Y-68373043D01*
X141986899Y-68255060D01*
X141992282Y-68155891D01*
X141998619Y-68073326D01*
X142005988Y-68005152D01*
X142014470Y-67949157D01*
X142024141Y-67903130D01*
X142035079Y-67864857D01*
X142047365Y-67832129D01*
X142061075Y-67802732D01*
X142076288Y-67774456D01*
X142093083Y-67745087D01*
X142103516Y-67726793D01*
X142172352Y-67604821D01*
X140448393Y-67604821D01*
X140448393Y-67797589D01*
X140446923Y-67884704D01*
X140443002Y-67951329D01*
X140437359Y-67987050D01*
X140434864Y-67990357D01*
X140411918Y-67976528D01*
X140366286Y-67940683D01*
X140320684Y-67901761D01*
X140211027Y-67819928D01*
X140071450Y-67737555D01*
X139916659Y-67662209D01*
X139761360Y-67601457D01*
X139699380Y-67582074D01*
X139561773Y-67552812D01*
X139395331Y-67532801D01*
X139215746Y-67522669D01*
X139038713Y-67523044D01*
X138879925Y-67534555D01*
X138804197Y-67546223D01*
X138526770Y-67622686D01*
X138271031Y-67738649D01*
X138038355Y-67893058D01*
X137830119Y-68084856D01*
X137647701Y-68312988D01*
X137513501Y-68535574D01*
X137403276Y-68770128D01*
X137318900Y-69009892D01*
X137258639Y-69263004D01*
X137220759Y-69537602D01*
X137203526Y-69841826D01*
X137202066Y-69997411D01*
X137206274Y-70111473D01*
X138871909Y-70111473D01*
X138872327Y-69924505D01*
X138878179Y-69748342D01*
X138889554Y-69593494D01*
X138906540Y-69470473D01*
X138911730Y-69445681D01*
X138975616Y-69230157D01*
X139059306Y-69055330D01*
X139163498Y-68920763D01*
X139288891Y-68826017D01*
X139436185Y-68770650D01*
X139606077Y-68754226D01*
X139799267Y-68776305D01*
X139926786Y-68807889D01*
X140025511Y-68844431D01*
X140134252Y-68896358D01*
X140215938Y-68943974D01*
X140357679Y-69037123D01*
X140357679Y-71347775D01*
X140222262Y-71435299D01*
X140064510Y-71517510D01*
X139895387Y-71571049D01*
X139724379Y-71595004D01*
X139560971Y-71588461D01*
X139414647Y-71550507D01*
X139350454Y-71519230D01*
X139234088Y-71432852D01*
X139135736Y-71318801D01*
X139053060Y-71172908D01*
X138983721Y-70991008D01*
X138925380Y-70768931D01*
X138922806Y-70757143D01*
X138902374Y-70632079D01*
X138887021Y-70475771D01*
X138876837Y-70298732D01*
X138871909Y-70111473D01*
X137206274Y-70111473D01*
X137217839Y-70424942D01*
X137261924Y-70818363D01*
X137334214Y-71177413D01*
X137434606Y-71501830D01*
X137562995Y-71791354D01*
X137719278Y-72045724D01*
X137903350Y-72264679D01*
X138115107Y-72447958D01*
X138205839Y-72510136D01*
X138408638Y-72622932D01*
X138616141Y-72702508D01*
X138837300Y-72751043D01*
X139081066Y-72770720D01*
X139266903Y-72768620D01*
X139527369Y-72746590D01*
X139753562Y-72702764D01*
X139952027Y-72635128D01*
X140129306Y-72541669D01*
X140227473Y-72472940D01*
X140286468Y-72428915D01*
X140330043Y-72398840D01*
X140346536Y-72390000D01*
X140349780Y-72411755D01*
X140352373Y-72473335D01*
X140354340Y-72569212D01*
X140355705Y-72693859D01*
X140356495Y-72841750D01*
X140356735Y-73007356D01*
X140356450Y-73185151D01*
X140355665Y-73369607D01*
X140354406Y-73555197D01*
X140352698Y-73736394D01*
X140350567Y-73907670D01*
X140348037Y-74063499D01*
X140345135Y-74198352D01*
X140341886Y-74306703D01*
X140338315Y-74383025D01*
X140337327Y-74397054D01*
X140322105Y-74538514D01*
X140298879Y-74649304D01*
X140263243Y-74743968D01*
X140210791Y-74837048D01*
X140198201Y-74856295D01*
X140149118Y-74930000D01*
X141967857Y-74930000D01*
X141968251Y-71545223D01*
X141968251Y-71545223D01*
G37*
X141968251Y-71545223D02*
X141968290Y-71074295D01*
X141968342Y-70646512D01*
X141968488Y-70259662D01*
X141968805Y-69911534D01*
X141969371Y-69599915D01*
X141970265Y-69322594D01*
X141971565Y-69077360D01*
X141973349Y-68861999D01*
X141975697Y-68674300D01*
X141978685Y-68512052D01*
X141982393Y-68373043D01*
X141986899Y-68255060D01*
X141992282Y-68155891D01*
X141998619Y-68073326D01*
X142005988Y-68005152D01*
X142014470Y-67949157D01*
X142024141Y-67903130D01*
X142035079Y-67864857D01*
X142047365Y-67832129D01*
X142061075Y-67802732D01*
X142076288Y-67774456D01*
X142093083Y-67745087D01*
X142103516Y-67726793D01*
X142172352Y-67604821D01*
X140448393Y-67604821D01*
X140448393Y-67797589D01*
X140446923Y-67884704D01*
X140443002Y-67951329D01*
X140437359Y-67987050D01*
X140434864Y-67990357D01*
X140411918Y-67976528D01*
X140366286Y-67940683D01*
X140320684Y-67901761D01*
X140211027Y-67819928D01*
X140071450Y-67737555D01*
X139916659Y-67662209D01*
X139761360Y-67601457D01*
X139699380Y-67582074D01*
X139561773Y-67552812D01*
X139395331Y-67532801D01*
X139215746Y-67522669D01*
X139038713Y-67523044D01*
X138879925Y-67534555D01*
X138804197Y-67546223D01*
X138526770Y-67622686D01*
X138271031Y-67738649D01*
X138038355Y-67893058D01*
X137830119Y-68084856D01*
X137647701Y-68312988D01*
X137513501Y-68535574D01*
X137403276Y-68770128D01*
X137318900Y-69009892D01*
X137258639Y-69263004D01*
X137220759Y-69537602D01*
X137203526Y-69841826D01*
X137202066Y-69997411D01*
X137206274Y-70111473D01*
X138871909Y-70111473D01*
X138872327Y-69924505D01*
X138878179Y-69748342D01*
X138889554Y-69593494D01*
X138906540Y-69470473D01*
X138911730Y-69445681D01*
X138975616Y-69230157D01*
X139059306Y-69055330D01*
X139163498Y-68920763D01*
X139288891Y-68826017D01*
X139436185Y-68770650D01*
X139606077Y-68754226D01*
X139799267Y-68776305D01*
X139926786Y-68807889D01*
X140025511Y-68844431D01*
X140134252Y-68896358D01*
X140215938Y-68943974D01*
X140357679Y-69037123D01*
X140357679Y-71347775D01*
X140222262Y-71435299D01*
X140064510Y-71517510D01*
X139895387Y-71571049D01*
X139724379Y-71595004D01*
X139560971Y-71588461D01*
X139414647Y-71550507D01*
X139350454Y-71519230D01*
X139234088Y-71432852D01*
X139135736Y-71318801D01*
X139053060Y-71172908D01*
X138983721Y-70991008D01*
X138925380Y-70768931D01*
X138922806Y-70757143D01*
X138902374Y-70632079D01*
X138887021Y-70475771D01*
X138876837Y-70298732D01*
X138871909Y-70111473D01*
X137206274Y-70111473D01*
X137217839Y-70424942D01*
X137261924Y-70818363D01*
X137334214Y-71177413D01*
X137434606Y-71501830D01*
X137562995Y-71791354D01*
X137719278Y-72045724D01*
X137903350Y-72264679D01*
X138115107Y-72447958D01*
X138205839Y-72510136D01*
X138408638Y-72622932D01*
X138616141Y-72702508D01*
X138837300Y-72751043D01*
X139081066Y-72770720D01*
X139266903Y-72768620D01*
X139527369Y-72746590D01*
X139753562Y-72702764D01*
X139952027Y-72635128D01*
X140129306Y-72541669D01*
X140227473Y-72472940D01*
X140286468Y-72428915D01*
X140330043Y-72398840D01*
X140346536Y-72390000D01*
X140349780Y-72411755D01*
X140352373Y-72473335D01*
X140354340Y-72569212D01*
X140355705Y-72693859D01*
X140356495Y-72841750D01*
X140356735Y-73007356D01*
X140356450Y-73185151D01*
X140355665Y-73369607D01*
X140354406Y-73555197D01*
X140352698Y-73736394D01*
X140350567Y-73907670D01*
X140348037Y-74063499D01*
X140345135Y-74198352D01*
X140341886Y-74306703D01*
X140338315Y-74383025D01*
X140337327Y-74397054D01*
X140322105Y-74538514D01*
X140298879Y-74649304D01*
X140263243Y-74743968D01*
X140210791Y-74837048D01*
X140198201Y-74856295D01*
X140149118Y-74930000D01*
X141967857Y-74930000D01*
X141968251Y-71545223D01*
G36*
X124973620Y-76458406D02*
X125167030Y-76409714D01*
X125340971Y-76323668D01*
X125491260Y-76203579D01*
X125613716Y-76052757D01*
X125704155Y-75874514D01*
X125756914Y-75681033D01*
X125768668Y-75485636D01*
X125738827Y-75297080D01*
X125671126Y-75120581D01*
X125569297Y-74961355D01*
X125437075Y-74824615D01*
X125278192Y-74715578D01*
X125096383Y-74639460D01*
X124993394Y-74614502D01*
X124904001Y-74599392D01*
X124835091Y-74593421D01*
X124768876Y-74597087D01*
X124687566Y-74610887D01*
X124621078Y-74624900D01*
X124433412Y-74688200D01*
X124265319Y-74790904D01*
X124120584Y-74929898D01*
X124002993Y-75102065D01*
X123974971Y-75156786D01*
X123941949Y-75229845D01*
X123921240Y-75291197D01*
X123910059Y-75355748D01*
X123905620Y-75438401D01*
X123905061Y-75530982D01*
X123913271Y-75700451D01*
X123940221Y-75839627D01*
X123990826Y-75961418D01*
X124069998Y-76078728D01*
X124147438Y-76167651D01*
X124291864Y-76299875D01*
X124442721Y-76391145D01*
X124608962Y-76445792D01*
X124764922Y-76466433D01*
X124973620Y-76458406D01*
X124973620Y-76458406D01*
G37*
X124973620Y-76458406D02*
X125167030Y-76409714D01*
X125340971Y-76323668D01*
X125491260Y-76203579D01*
X125613716Y-76052757D01*
X125704155Y-75874514D01*
X125756914Y-75681033D01*
X125768668Y-75485636D01*
X125738827Y-75297080D01*
X125671126Y-75120581D01*
X125569297Y-74961355D01*
X125437075Y-74824615D01*
X125278192Y-74715578D01*
X125096383Y-74639460D01*
X124993394Y-74614502D01*
X124904001Y-74599392D01*
X124835091Y-74593421D01*
X124768876Y-74597087D01*
X124687566Y-74610887D01*
X124621078Y-74624900D01*
X124433412Y-74688200D01*
X124265319Y-74790904D01*
X124120584Y-74929898D01*
X124002993Y-75102065D01*
X123974971Y-75156786D01*
X123941949Y-75229845D01*
X123921240Y-75291197D01*
X123910059Y-75355748D01*
X123905620Y-75438401D01*
X123905061Y-75530982D01*
X123913271Y-75700451D01*
X123940221Y-75839627D01*
X123990826Y-75961418D01*
X124069998Y-76078728D01*
X124147438Y-76167651D01*
X124291864Y-76299875D01*
X124442721Y-76391145D01*
X124608962Y-76445792D01*
X124764922Y-76466433D01*
X124973620Y-76458406D01*
D13*
X131611666Y-84657143D02*
X131659285Y-84704762D01*
X131802142Y-84752381D01*
X131897380Y-84752381D01*
X132040238Y-84704762D01*
X132135476Y-84609524D01*
X132183095Y-84514286D01*
X132230714Y-84323810D01*
X132230714Y-84180952D01*
X132183095Y-83990476D01*
X132135476Y-83895238D01*
X132040238Y-83800000D01*
X131897380Y-83752381D01*
X131802142Y-83752381D01*
X131659285Y-83800000D01*
X131611666Y-83847619D01*
X130659285Y-84752381D02*
X131230714Y-84752381D01*
X130945000Y-84752381D02*
X130945000Y-83752381D01*
X131040238Y-83895238D01*
X131135476Y-83990476D01*
X131230714Y-84038095D01*
X123356666Y-87507143D02*
X123404285Y-87554762D01*
X123547142Y-87602381D01*
X123642380Y-87602381D01*
X123785238Y-87554762D01*
X123880476Y-87459524D01*
X123928095Y-87364286D01*
X123975714Y-87173810D01*
X123975714Y-87030952D01*
X123928095Y-86840476D01*
X123880476Y-86745238D01*
X123785238Y-86650000D01*
X123642380Y-86602381D01*
X123547142Y-86602381D01*
X123404285Y-86650000D01*
X123356666Y-86697619D01*
X122975714Y-86697619D02*
X122928095Y-86650000D01*
X122832857Y-86602381D01*
X122594761Y-86602381D01*
X122499523Y-86650000D01*
X122451904Y-86697619D01*
X122404285Y-86792857D01*
X122404285Y-86888095D01*
X122451904Y-87030952D01*
X123023333Y-87602381D01*
X122404285Y-87602381D01*
X122681905Y-77502381D02*
X122681905Y-78311905D01*
X122634286Y-78407143D01*
X122586667Y-78454762D01*
X122491429Y-78502381D01*
X122300952Y-78502381D01*
X122205714Y-78454762D01*
X122158095Y-78407143D01*
X122110476Y-78311905D01*
X122110476Y-77502381D01*
X121110476Y-78502381D02*
X121681905Y-78502381D01*
X121396191Y-78502381D02*
X121396191Y-77502381D01*
X121491429Y-77645238D01*
X121586667Y-77740476D01*
X121681905Y-77788095D01*
X126134286Y-87216667D02*
X125658095Y-87216667D01*
X126229524Y-87502381D02*
X125896191Y-86502381D01*
X125562857Y-87502381D01*
X125229524Y-87502381D02*
X125229524Y-86502381D01*
X124848571Y-86502381D01*
X124753333Y-86550000D01*
X124705714Y-86597619D01*
X124658095Y-86692857D01*
X124658095Y-86835714D01*
X124705714Y-86930952D01*
X124753333Y-86978571D01*
X124848571Y-87026190D01*
X125229524Y-87026190D01*
X123705714Y-87502381D02*
X124277143Y-87502381D01*
X123991429Y-87502381D02*
X123991429Y-86502381D01*
X124086667Y-86645238D01*
X124181905Y-86740476D01*
X124277143Y-86788095D01*
X122753333Y-87502381D02*
X123324762Y-87502381D01*
X123039048Y-87502381D02*
X123039048Y-86502381D01*
X123134286Y-86645238D01*
X123229524Y-86740476D01*
X123324762Y-86788095D01*
X121800952Y-87502381D02*
X122372381Y-87502381D01*
X122086667Y-87502381D02*
X122086667Y-86502381D01*
X122181905Y-86645238D01*
X122277143Y-86740476D01*
X122372381Y-86788095D01*
X121467619Y-86502381D02*
X120800952Y-86502381D01*
X121229524Y-87502381D01*
X120420000Y-87121429D02*
X119658095Y-87121429D01*
X118705714Y-86502381D02*
X119181905Y-86502381D01*
X119229524Y-86978571D01*
X119181905Y-86930952D01*
X119086667Y-86883333D01*
X118848571Y-86883333D01*
X118753333Y-86930952D01*
X118705714Y-86978571D01*
X118658095Y-87073810D01*
X118658095Y-87311905D01*
X118705714Y-87407143D01*
X118753333Y-87454762D01*
X118848571Y-87502381D01*
X119086667Y-87502381D01*
X119181905Y-87454762D01*
X119229524Y-87407143D01*
X118039048Y-86502381D02*
X117943809Y-86502381D01*
X117848571Y-86550000D01*
X117800952Y-86597619D01*
X117753333Y-86692857D01*
X117705714Y-86883333D01*
X117705714Y-87121429D01*
X117753333Y-87311905D01*
X117800952Y-87407143D01*
X117848571Y-87454762D01*
X117943809Y-87502381D01*
X118039048Y-87502381D01*
X118134286Y-87454762D01*
X118181905Y-87407143D01*
X118229524Y-87311905D01*
X118277143Y-87121429D01*
X118277143Y-86883333D01*
X118229524Y-86692857D01*
X118181905Y-86597619D01*
X118134286Y-86550000D01*
X118039048Y-86502381D01*
M02*
