G04 #@! TF.FileFunction,Legend,Top*
%FSLAX46Y46*%
G04 Gerber Fmt 4.6, Leading zero omitted, Abs format (unit mm)*
G04 Created by KiCad (PCBNEW 4.0.7) date 03/19/18 09:27:52*
%MOMM*%
%LPD*%
G01*
G04 APERTURE LIST*
%ADD10C,0.100000*%
%ADD11C,0.300000*%
%ADD12C,0.200000*%
%ADD13C,0.250000*%
%ADD14C,0.120000*%
%ADD15C,0.150000*%
%ADD16C,0.010000*%
G04 APERTURE END LIST*
D10*
D11*
X115217144Y-96333571D02*
X115717144Y-97833571D01*
X116217144Y-96333571D01*
X117288572Y-97762143D02*
X117145715Y-97833571D01*
X116860001Y-97833571D01*
X116717144Y-97762143D01*
X116645715Y-97619286D01*
X116645715Y-97047857D01*
X116717144Y-96905000D01*
X116860001Y-96833571D01*
X117145715Y-96833571D01*
X117288572Y-96905000D01*
X117360001Y-97047857D01*
X117360001Y-97190714D01*
X116645715Y-97333571D01*
X118002858Y-97833571D02*
X118002858Y-96833571D01*
X118002858Y-97119286D02*
X118074286Y-96976429D01*
X118145715Y-96905000D01*
X118288572Y-96833571D01*
X118431429Y-96833571D01*
X119931429Y-96333571D02*
X120860000Y-96333571D01*
X120360000Y-96905000D01*
X120574286Y-96905000D01*
X120717143Y-96976429D01*
X120788572Y-97047857D01*
X120860000Y-97190714D01*
X120860000Y-97547857D01*
X120788572Y-97690714D01*
X120717143Y-97762143D01*
X120574286Y-97833571D01*
X120145714Y-97833571D01*
X120002857Y-97762143D01*
X119931429Y-97690714D01*
D12*
X135239047Y-75757619D02*
X135810476Y-75757619D01*
X135524762Y-75757619D02*
X135524762Y-76757619D01*
X135620000Y-76614762D01*
X135715238Y-76519524D01*
X135810476Y-76471905D01*
X134858095Y-76662381D02*
X134810476Y-76710000D01*
X134715238Y-76757619D01*
X134477142Y-76757619D01*
X134381904Y-76710000D01*
X134334285Y-76662381D01*
X134286666Y-76567143D01*
X134286666Y-76471905D01*
X134334285Y-76329048D01*
X134905714Y-75757619D01*
X134286666Y-75757619D01*
X134000952Y-76757619D02*
X133667619Y-75757619D01*
X133334285Y-76757619D01*
X135381904Y-71610000D02*
X135477142Y-71657619D01*
X135619999Y-71657619D01*
X135762857Y-71610000D01*
X135858095Y-71514762D01*
X135905714Y-71419524D01*
X135953333Y-71229048D01*
X135953333Y-71086190D01*
X135905714Y-70895714D01*
X135858095Y-70800476D01*
X135762857Y-70705238D01*
X135619999Y-70657619D01*
X135524761Y-70657619D01*
X135381904Y-70705238D01*
X135334285Y-70752857D01*
X135334285Y-71086190D01*
X135524761Y-71086190D01*
X134905714Y-70657619D02*
X134905714Y-71657619D01*
X134334285Y-70657619D01*
X134334285Y-71657619D01*
X133858095Y-70657619D02*
X133858095Y-71657619D01*
X133620000Y-71657619D01*
X133477142Y-71610000D01*
X133381904Y-71514762D01*
X133334285Y-71419524D01*
X133286666Y-71229048D01*
X133286666Y-71086190D01*
X133334285Y-70895714D01*
X133381904Y-70800476D01*
X133477142Y-70705238D01*
X133620000Y-70657619D01*
X133858095Y-70657619D01*
D13*
X117348096Y-86650000D02*
X117252858Y-86602381D01*
X117110001Y-86602381D01*
X116967143Y-86650000D01*
X116871905Y-86745238D01*
X116824286Y-86840476D01*
X116776667Y-87030952D01*
X116776667Y-87173810D01*
X116824286Y-87364286D01*
X116871905Y-87459524D01*
X116967143Y-87554762D01*
X117110001Y-87602381D01*
X117205239Y-87602381D01*
X117348096Y-87554762D01*
X117395715Y-87507143D01*
X117395715Y-87173810D01*
X117205239Y-87173810D01*
X117824286Y-87602381D02*
X117824286Y-86602381D01*
X118395715Y-87602381D01*
X118395715Y-86602381D01*
X118871905Y-87602381D02*
X118871905Y-86602381D01*
X119110000Y-86602381D01*
X119252858Y-86650000D01*
X119348096Y-86745238D01*
X119395715Y-86840476D01*
X119443334Y-87030952D01*
X119443334Y-87173810D01*
X119395715Y-87364286D01*
X119348096Y-87459524D01*
X119252858Y-87554762D01*
X119110000Y-87602381D01*
X118871905Y-87602381D01*
X117919524Y-90102381D02*
X117443333Y-90102381D01*
X117395714Y-90578571D01*
X117443333Y-90530952D01*
X117538571Y-90483333D01*
X117776667Y-90483333D01*
X117871905Y-90530952D01*
X117919524Y-90578571D01*
X117967143Y-90673810D01*
X117967143Y-90911905D01*
X117919524Y-91007143D01*
X117871905Y-91054762D01*
X117776667Y-91102381D01*
X117538571Y-91102381D01*
X117443333Y-91054762D01*
X117395714Y-91007143D01*
X118252857Y-90102381D02*
X118586190Y-91102381D01*
X118919524Y-90102381D01*
X118082381Y-66905000D02*
X117082381Y-66905000D01*
X117082381Y-66666905D01*
X117130000Y-66524047D01*
X117225238Y-66428809D01*
X117320476Y-66381190D01*
X117510952Y-66333571D01*
X117653810Y-66333571D01*
X117844286Y-66381190D01*
X117939524Y-66428809D01*
X118034762Y-66524047D01*
X118082381Y-66666905D01*
X118082381Y-66905000D01*
X117796667Y-65952619D02*
X117796667Y-65476428D01*
X118082381Y-66047857D02*
X117082381Y-65714524D01*
X118082381Y-65381190D01*
X117082381Y-65190714D02*
X117082381Y-64619285D01*
X118082381Y-64905000D02*
X117082381Y-64905000D01*
X117796667Y-64333571D02*
X117796667Y-63857380D01*
X118082381Y-64428809D02*
X117082381Y-64095476D01*
X118082381Y-63762142D01*
X120630000Y-66166904D02*
X120582381Y-66262142D01*
X120582381Y-66404999D01*
X120630000Y-66547857D01*
X120725238Y-66643095D01*
X120820476Y-66690714D01*
X121010952Y-66738333D01*
X121153810Y-66738333D01*
X121344286Y-66690714D01*
X121439524Y-66643095D01*
X121534762Y-66547857D01*
X121582381Y-66404999D01*
X121582381Y-66309761D01*
X121534762Y-66166904D01*
X121487143Y-66119285D01*
X121153810Y-66119285D01*
X121153810Y-66309761D01*
X121582381Y-65690714D02*
X120582381Y-65690714D01*
X121582381Y-65119285D01*
X120582381Y-65119285D01*
X121582381Y-64643095D02*
X120582381Y-64643095D01*
X120582381Y-64405000D01*
X120630000Y-64262142D01*
X120725238Y-64166904D01*
X120820476Y-64119285D01*
X121010952Y-64071666D01*
X121153810Y-64071666D01*
X121344286Y-64119285D01*
X121439524Y-64166904D01*
X121534762Y-64262142D01*
X121582381Y-64405000D01*
X121582381Y-64643095D01*
D11*
X120210716Y-89983571D02*
X120567859Y-91483571D01*
X120853573Y-90412143D01*
X121139287Y-91483571D01*
X121496430Y-89983571D01*
X122710716Y-91483571D02*
X122710716Y-90697857D01*
X122639287Y-90555000D01*
X122496430Y-90483571D01*
X122210716Y-90483571D01*
X122067859Y-90555000D01*
X122710716Y-91412143D02*
X122567859Y-91483571D01*
X122210716Y-91483571D01*
X122067859Y-91412143D01*
X121996430Y-91269286D01*
X121996430Y-91126429D01*
X122067859Y-90983571D01*
X122210716Y-90912143D01*
X122567859Y-90912143D01*
X122710716Y-90840714D01*
X123639288Y-91483571D02*
X123496430Y-91412143D01*
X123425002Y-91269286D01*
X123425002Y-89983571D01*
X124853573Y-91412143D02*
X124710716Y-91483571D01*
X124425002Y-91483571D01*
X124282144Y-91412143D01*
X124210716Y-91340714D01*
X124139287Y-91197857D01*
X124139287Y-90769286D01*
X124210716Y-90626429D01*
X124282144Y-90555000D01*
X124425002Y-90483571D01*
X124710716Y-90483571D01*
X124853573Y-90555000D01*
X125496430Y-91483571D02*
X125496430Y-89983571D01*
X126139287Y-91483571D02*
X126139287Y-90697857D01*
X126067858Y-90555000D01*
X125925001Y-90483571D01*
X125710716Y-90483571D01*
X125567858Y-90555000D01*
X125496430Y-90626429D01*
X126853573Y-91483571D02*
X126853573Y-89983571D01*
X126996430Y-90912143D02*
X127425001Y-91483571D01*
X127425001Y-90483571D02*
X126853573Y-91055000D01*
X128282145Y-91483571D02*
X128139287Y-91412143D01*
X128067859Y-91340714D01*
X127996430Y-91197857D01*
X127996430Y-90769286D01*
X128067859Y-90626429D01*
X128139287Y-90555000D01*
X128282145Y-90483571D01*
X128496430Y-90483571D01*
X128639287Y-90555000D01*
X128710716Y-90626429D01*
X128782145Y-90769286D01*
X128782145Y-91197857D01*
X128710716Y-91340714D01*
X128639287Y-91412143D01*
X128496430Y-91483571D01*
X128282145Y-91483571D01*
X130996430Y-92055000D02*
X130925002Y-91983571D01*
X130782145Y-91769286D01*
X130710716Y-91626429D01*
X130639287Y-91412143D01*
X130567859Y-91055000D01*
X130567859Y-90769286D01*
X130639287Y-90412143D01*
X130710716Y-90197857D01*
X130782145Y-90055000D01*
X130925002Y-89840714D01*
X130996430Y-89769286D01*
X132210716Y-91412143D02*
X132067859Y-91483571D01*
X131782145Y-91483571D01*
X131639287Y-91412143D01*
X131567859Y-91340714D01*
X131496430Y-91197857D01*
X131496430Y-90769286D01*
X131567859Y-90626429D01*
X131639287Y-90555000D01*
X131782145Y-90483571D01*
X132067859Y-90483571D01*
X132210716Y-90555000D01*
X132710716Y-92055000D02*
X132782144Y-91983571D01*
X132925001Y-91769286D01*
X132996430Y-91626429D01*
X133067859Y-91412143D01*
X133139287Y-91055000D01*
X133139287Y-90769286D01*
X133067859Y-90412143D01*
X132996430Y-90197857D01*
X132925001Y-90055000D01*
X132782144Y-89840714D01*
X132710716Y-89769286D01*
X134925001Y-90126429D02*
X134996430Y-90055000D01*
X135139287Y-89983571D01*
X135496430Y-89983571D01*
X135639287Y-90055000D01*
X135710716Y-90126429D01*
X135782144Y-90269286D01*
X135782144Y-90412143D01*
X135710716Y-90626429D01*
X134853573Y-91483571D01*
X135782144Y-91483571D01*
X136710715Y-89983571D02*
X136853572Y-89983571D01*
X136996429Y-90055000D01*
X137067858Y-90126429D01*
X137139287Y-90269286D01*
X137210715Y-90555000D01*
X137210715Y-90912143D01*
X137139287Y-91197857D01*
X137067858Y-91340714D01*
X136996429Y-91412143D01*
X136853572Y-91483571D01*
X136710715Y-91483571D01*
X136567858Y-91412143D01*
X136496429Y-91340714D01*
X136425001Y-91197857D01*
X136353572Y-90912143D01*
X136353572Y-90555000D01*
X136425001Y-90269286D01*
X136496429Y-90126429D01*
X136567858Y-90055000D01*
X136710715Y-89983571D01*
X138639286Y-91483571D02*
X137782143Y-91483571D01*
X138210715Y-91483571D02*
X138210715Y-89983571D01*
X138067858Y-90197857D01*
X137925000Y-90340714D01*
X137782143Y-90412143D01*
X139496429Y-90626429D02*
X139353571Y-90555000D01*
X139282143Y-90483571D01*
X139210714Y-90340714D01*
X139210714Y-90269286D01*
X139282143Y-90126429D01*
X139353571Y-90055000D01*
X139496429Y-89983571D01*
X139782143Y-89983571D01*
X139925000Y-90055000D01*
X139996429Y-90126429D01*
X140067857Y-90269286D01*
X140067857Y-90340714D01*
X139996429Y-90483571D01*
X139925000Y-90555000D01*
X139782143Y-90626429D01*
X139496429Y-90626429D01*
X139353571Y-90697857D01*
X139282143Y-90769286D01*
X139210714Y-90912143D01*
X139210714Y-91197857D01*
X139282143Y-91340714D01*
X139353571Y-91412143D01*
X139496429Y-91483571D01*
X139782143Y-91483571D01*
X139925000Y-91412143D01*
X139996429Y-91340714D01*
X140067857Y-91197857D01*
X140067857Y-90912143D01*
X139996429Y-90769286D01*
X139925000Y-90697857D01*
X139782143Y-90626429D01*
D14*
X146610000Y-72705000D02*
X146610000Y-70805000D01*
X146610000Y-70805000D02*
X141910000Y-70805000D01*
X146610000Y-72705000D02*
X141910000Y-72705000D01*
X144510000Y-69015000D02*
X142510000Y-69015000D01*
X142510000Y-66875000D02*
X144510000Y-66875000D01*
X114195000Y-74830000D02*
X113195000Y-73830000D01*
X109295000Y-83730000D02*
X114195000Y-83730000D01*
X114195000Y-83730000D02*
X114195000Y-74830000D01*
X113195000Y-73830000D02*
X109295000Y-73830000D01*
X109295000Y-73830000D02*
X109295000Y-83730000D01*
X132815000Y-64665000D02*
X133815000Y-63665000D01*
X123915000Y-59765000D02*
X123915000Y-64665000D01*
X123915000Y-64665000D02*
X132815000Y-64665000D01*
X133815000Y-63665000D02*
X133815000Y-59765000D01*
X133815000Y-59765000D02*
X123915000Y-59765000D01*
X142980000Y-83285000D02*
X143980000Y-84285000D01*
X147880000Y-74385000D02*
X142980000Y-74385000D01*
X142980000Y-74385000D02*
X142980000Y-83285000D01*
X143980000Y-84285000D02*
X147880000Y-84285000D01*
X147880000Y-84285000D02*
X147880000Y-74385000D01*
X123090000Y-94085000D02*
X122090000Y-95085000D01*
X131990000Y-98985000D02*
X131990000Y-94085000D01*
X131990000Y-94085000D02*
X123090000Y-94085000D01*
X122090000Y-95085000D02*
X122090000Y-98985000D01*
X122090000Y-98985000D02*
X131990000Y-98985000D01*
X110032180Y-70394136D02*
G75*
G03X116067482Y-70395000I3017820J1179136D01*
G01*
X110032180Y-68035864D02*
G75*
G02X116067482Y-68035000I3017820J-1179136D01*
G01*
X110032180Y-68035864D02*
G75*
G03X110032518Y-70395000I3017820J-1179136D01*
G01*
X113050000Y-72415000D02*
X113050000Y-66015000D01*
X113010000Y-72415000D02*
X113010000Y-66015000D01*
X112970000Y-72415000D02*
X112970000Y-66015000D01*
X112930000Y-72413000D02*
X112930000Y-66017000D01*
X112890000Y-72412000D02*
X112890000Y-66018000D01*
X112850000Y-72409000D02*
X112850000Y-66021000D01*
X112810000Y-72407000D02*
X112810000Y-66023000D01*
X112770000Y-72403000D02*
X112770000Y-70195000D01*
X112770000Y-68235000D02*
X112770000Y-66027000D01*
X112730000Y-72400000D02*
X112730000Y-70195000D01*
X112730000Y-68235000D02*
X112730000Y-66030000D01*
X112690000Y-72395000D02*
X112690000Y-70195000D01*
X112690000Y-68235000D02*
X112690000Y-66035000D01*
X112650000Y-72391000D02*
X112650000Y-70195000D01*
X112650000Y-68235000D02*
X112650000Y-66039000D01*
X112610000Y-72385000D02*
X112610000Y-70195000D01*
X112610000Y-68235000D02*
X112610000Y-66045000D01*
X112570000Y-72380000D02*
X112570000Y-70195000D01*
X112570000Y-68235000D02*
X112570000Y-66050000D01*
X112530000Y-72373000D02*
X112530000Y-70195000D01*
X112530000Y-68235000D02*
X112530000Y-66057000D01*
X112490000Y-72367000D02*
X112490000Y-70195000D01*
X112490000Y-68235000D02*
X112490000Y-66063000D01*
X112450000Y-72359000D02*
X112450000Y-70195000D01*
X112450000Y-68235000D02*
X112450000Y-66071000D01*
X112410000Y-72352000D02*
X112410000Y-70195000D01*
X112410000Y-68235000D02*
X112410000Y-66078000D01*
X112370000Y-72343000D02*
X112370000Y-70195000D01*
X112370000Y-68235000D02*
X112370000Y-66087000D01*
X112329000Y-72334000D02*
X112329000Y-70195000D01*
X112329000Y-68235000D02*
X112329000Y-66096000D01*
X112289000Y-72325000D02*
X112289000Y-70195000D01*
X112289000Y-68235000D02*
X112289000Y-66105000D01*
X112249000Y-72315000D02*
X112249000Y-70195000D01*
X112249000Y-68235000D02*
X112249000Y-66115000D01*
X112209000Y-72305000D02*
X112209000Y-70195000D01*
X112209000Y-68235000D02*
X112209000Y-66125000D01*
X112169000Y-72294000D02*
X112169000Y-70195000D01*
X112169000Y-68235000D02*
X112169000Y-66136000D01*
X112129000Y-72282000D02*
X112129000Y-70195000D01*
X112129000Y-68235000D02*
X112129000Y-66148000D01*
X112089000Y-72270000D02*
X112089000Y-70195000D01*
X112089000Y-68235000D02*
X112089000Y-66160000D01*
X112049000Y-72257000D02*
X112049000Y-70195000D01*
X112049000Y-68235000D02*
X112049000Y-66173000D01*
X112009000Y-72244000D02*
X112009000Y-70195000D01*
X112009000Y-68235000D02*
X112009000Y-66186000D01*
X111969000Y-72230000D02*
X111969000Y-70195000D01*
X111969000Y-68235000D02*
X111969000Y-66200000D01*
X111929000Y-72216000D02*
X111929000Y-70195000D01*
X111929000Y-68235000D02*
X111929000Y-66214000D01*
X111889000Y-72201000D02*
X111889000Y-70195000D01*
X111889000Y-68235000D02*
X111889000Y-66229000D01*
X111849000Y-72185000D02*
X111849000Y-70195000D01*
X111849000Y-68235000D02*
X111849000Y-66245000D01*
X111809000Y-72169000D02*
X111809000Y-70195000D01*
X111809000Y-68235000D02*
X111809000Y-66261000D01*
X111769000Y-72152000D02*
X111769000Y-70195000D01*
X111769000Y-68235000D02*
X111769000Y-66278000D01*
X111729000Y-72134000D02*
X111729000Y-70195000D01*
X111729000Y-68235000D02*
X111729000Y-66296000D01*
X111689000Y-72116000D02*
X111689000Y-70195000D01*
X111689000Y-68235000D02*
X111689000Y-66314000D01*
X111649000Y-72097000D02*
X111649000Y-70195000D01*
X111649000Y-68235000D02*
X111649000Y-66333000D01*
X111609000Y-72078000D02*
X111609000Y-70195000D01*
X111609000Y-68235000D02*
X111609000Y-66352000D01*
X111569000Y-72058000D02*
X111569000Y-70195000D01*
X111569000Y-68235000D02*
X111569000Y-66372000D01*
X111529000Y-72037000D02*
X111529000Y-70195000D01*
X111529000Y-68235000D02*
X111529000Y-66393000D01*
X111489000Y-72015000D02*
X111489000Y-70195000D01*
X111489000Y-68235000D02*
X111489000Y-66415000D01*
X111449000Y-71993000D02*
X111449000Y-70195000D01*
X111449000Y-68235000D02*
X111449000Y-66437000D01*
X111409000Y-71970000D02*
X111409000Y-70195000D01*
X111409000Y-68235000D02*
X111409000Y-66460000D01*
X111369000Y-71946000D02*
X111369000Y-70195000D01*
X111369000Y-68235000D02*
X111369000Y-66484000D01*
X111329000Y-71921000D02*
X111329000Y-70195000D01*
X111329000Y-68235000D02*
X111329000Y-66509000D01*
X111289000Y-71896000D02*
X111289000Y-70195000D01*
X111289000Y-68235000D02*
X111289000Y-66534000D01*
X111249000Y-71869000D02*
X111249000Y-70195000D01*
X111249000Y-68235000D02*
X111249000Y-66561000D01*
X111209000Y-71842000D02*
X111209000Y-70195000D01*
X111209000Y-68235000D02*
X111209000Y-66588000D01*
X111169000Y-71814000D02*
X111169000Y-70195000D01*
X111169000Y-68235000D02*
X111169000Y-66616000D01*
X111129000Y-71785000D02*
X111129000Y-70195000D01*
X111129000Y-68235000D02*
X111129000Y-66645000D01*
X111089000Y-71755000D02*
X111089000Y-70195000D01*
X111089000Y-68235000D02*
X111089000Y-66675000D01*
X111049000Y-71725000D02*
X111049000Y-70195000D01*
X111049000Y-68235000D02*
X111049000Y-66705000D01*
X111009000Y-71693000D02*
X111009000Y-70195000D01*
X111009000Y-68235000D02*
X111009000Y-66737000D01*
X110969000Y-71660000D02*
X110969000Y-70195000D01*
X110969000Y-68235000D02*
X110969000Y-66770000D01*
X110929000Y-71626000D02*
X110929000Y-70195000D01*
X110929000Y-68235000D02*
X110929000Y-66804000D01*
X110889000Y-71590000D02*
X110889000Y-70195000D01*
X110889000Y-68235000D02*
X110889000Y-66840000D01*
X110849000Y-71554000D02*
X110849000Y-70195000D01*
X110849000Y-68235000D02*
X110849000Y-66876000D01*
X110809000Y-71516000D02*
X110809000Y-66914000D01*
X110769000Y-71477000D02*
X110769000Y-66953000D01*
X110729000Y-71437000D02*
X110729000Y-66993000D01*
X110689000Y-71395000D02*
X110689000Y-67035000D01*
X110649000Y-71352000D02*
X110649000Y-67078000D01*
X110609000Y-71307000D02*
X110609000Y-67123000D01*
X110569000Y-71260000D02*
X110569000Y-67170000D01*
X110529000Y-71212000D02*
X110529000Y-67218000D01*
X110489000Y-71161000D02*
X110489000Y-67269000D01*
X110449000Y-71109000D02*
X110449000Y-67321000D01*
X110409000Y-71054000D02*
X110409000Y-67376000D01*
X110369000Y-70996000D02*
X110369000Y-67434000D01*
X110329000Y-70936000D02*
X110329000Y-67494000D01*
X110289000Y-70873000D02*
X110289000Y-67557000D01*
X110249000Y-70806000D02*
X110249000Y-67624000D01*
X110209000Y-70735000D02*
X110209000Y-67695000D01*
X110169000Y-70660000D02*
X110169000Y-67770000D01*
X110129000Y-70579000D02*
X110129000Y-67851000D01*
X110089000Y-70493000D02*
X110089000Y-67937000D01*
X110049000Y-70399000D02*
X110049000Y-68031000D01*
X110009000Y-70296000D02*
X110009000Y-68134000D01*
X109969000Y-70181000D02*
X109969000Y-68249000D01*
X109929000Y-70049000D02*
X109929000Y-68381000D01*
X109889000Y-69891000D02*
X109889000Y-68539000D01*
X109849000Y-69683000D02*
X109849000Y-68747000D01*
X116500000Y-69215000D02*
X115300000Y-69215000D01*
X115900000Y-69865000D02*
X115900000Y-68565000D01*
X136615864Y-60502180D02*
G75*
G03X136615000Y-66537482I1179136J-3017820D01*
G01*
X138974136Y-60502180D02*
G75*
G02X138975000Y-66537482I-1179136J-3017820D01*
G01*
X138974136Y-60502180D02*
G75*
G03X136615000Y-60502518I-1179136J-3017820D01*
G01*
X134595000Y-63520000D02*
X140995000Y-63520000D01*
X134595000Y-63480000D02*
X140995000Y-63480000D01*
X134595000Y-63440000D02*
X140995000Y-63440000D01*
X134597000Y-63400000D02*
X140993000Y-63400000D01*
X134598000Y-63360000D02*
X140992000Y-63360000D01*
X134601000Y-63320000D02*
X140989000Y-63320000D01*
X134603000Y-63280000D02*
X140987000Y-63280000D01*
X134607000Y-63240000D02*
X136815000Y-63240000D01*
X138775000Y-63240000D02*
X140983000Y-63240000D01*
X134610000Y-63200000D02*
X136815000Y-63200000D01*
X138775000Y-63200000D02*
X140980000Y-63200000D01*
X134615000Y-63160000D02*
X136815000Y-63160000D01*
X138775000Y-63160000D02*
X140975000Y-63160000D01*
X134619000Y-63120000D02*
X136815000Y-63120000D01*
X138775000Y-63120000D02*
X140971000Y-63120000D01*
X134625000Y-63080000D02*
X136815000Y-63080000D01*
X138775000Y-63080000D02*
X140965000Y-63080000D01*
X134630000Y-63040000D02*
X136815000Y-63040000D01*
X138775000Y-63040000D02*
X140960000Y-63040000D01*
X134637000Y-63000000D02*
X136815000Y-63000000D01*
X138775000Y-63000000D02*
X140953000Y-63000000D01*
X134643000Y-62960000D02*
X136815000Y-62960000D01*
X138775000Y-62960000D02*
X140947000Y-62960000D01*
X134651000Y-62920000D02*
X136815000Y-62920000D01*
X138775000Y-62920000D02*
X140939000Y-62920000D01*
X134658000Y-62880000D02*
X136815000Y-62880000D01*
X138775000Y-62880000D02*
X140932000Y-62880000D01*
X134667000Y-62840000D02*
X136815000Y-62840000D01*
X138775000Y-62840000D02*
X140923000Y-62840000D01*
X134676000Y-62799000D02*
X136815000Y-62799000D01*
X138775000Y-62799000D02*
X140914000Y-62799000D01*
X134685000Y-62759000D02*
X136815000Y-62759000D01*
X138775000Y-62759000D02*
X140905000Y-62759000D01*
X134695000Y-62719000D02*
X136815000Y-62719000D01*
X138775000Y-62719000D02*
X140895000Y-62719000D01*
X134705000Y-62679000D02*
X136815000Y-62679000D01*
X138775000Y-62679000D02*
X140885000Y-62679000D01*
X134716000Y-62639000D02*
X136815000Y-62639000D01*
X138775000Y-62639000D02*
X140874000Y-62639000D01*
X134728000Y-62599000D02*
X136815000Y-62599000D01*
X138775000Y-62599000D02*
X140862000Y-62599000D01*
X134740000Y-62559000D02*
X136815000Y-62559000D01*
X138775000Y-62559000D02*
X140850000Y-62559000D01*
X134753000Y-62519000D02*
X136815000Y-62519000D01*
X138775000Y-62519000D02*
X140837000Y-62519000D01*
X134766000Y-62479000D02*
X136815000Y-62479000D01*
X138775000Y-62479000D02*
X140824000Y-62479000D01*
X134780000Y-62439000D02*
X136815000Y-62439000D01*
X138775000Y-62439000D02*
X140810000Y-62439000D01*
X134794000Y-62399000D02*
X136815000Y-62399000D01*
X138775000Y-62399000D02*
X140796000Y-62399000D01*
X134809000Y-62359000D02*
X136815000Y-62359000D01*
X138775000Y-62359000D02*
X140781000Y-62359000D01*
X134825000Y-62319000D02*
X136815000Y-62319000D01*
X138775000Y-62319000D02*
X140765000Y-62319000D01*
X134841000Y-62279000D02*
X136815000Y-62279000D01*
X138775000Y-62279000D02*
X140749000Y-62279000D01*
X134858000Y-62239000D02*
X136815000Y-62239000D01*
X138775000Y-62239000D02*
X140732000Y-62239000D01*
X134876000Y-62199000D02*
X136815000Y-62199000D01*
X138775000Y-62199000D02*
X140714000Y-62199000D01*
X134894000Y-62159000D02*
X136815000Y-62159000D01*
X138775000Y-62159000D02*
X140696000Y-62159000D01*
X134913000Y-62119000D02*
X136815000Y-62119000D01*
X138775000Y-62119000D02*
X140677000Y-62119000D01*
X134932000Y-62079000D02*
X136815000Y-62079000D01*
X138775000Y-62079000D02*
X140658000Y-62079000D01*
X134952000Y-62039000D02*
X136815000Y-62039000D01*
X138775000Y-62039000D02*
X140638000Y-62039000D01*
X134973000Y-61999000D02*
X136815000Y-61999000D01*
X138775000Y-61999000D02*
X140617000Y-61999000D01*
X134995000Y-61959000D02*
X136815000Y-61959000D01*
X138775000Y-61959000D02*
X140595000Y-61959000D01*
X135017000Y-61919000D02*
X136815000Y-61919000D01*
X138775000Y-61919000D02*
X140573000Y-61919000D01*
X135040000Y-61879000D02*
X136815000Y-61879000D01*
X138775000Y-61879000D02*
X140550000Y-61879000D01*
X135064000Y-61839000D02*
X136815000Y-61839000D01*
X138775000Y-61839000D02*
X140526000Y-61839000D01*
X135089000Y-61799000D02*
X136815000Y-61799000D01*
X138775000Y-61799000D02*
X140501000Y-61799000D01*
X135114000Y-61759000D02*
X136815000Y-61759000D01*
X138775000Y-61759000D02*
X140476000Y-61759000D01*
X135141000Y-61719000D02*
X136815000Y-61719000D01*
X138775000Y-61719000D02*
X140449000Y-61719000D01*
X135168000Y-61679000D02*
X136815000Y-61679000D01*
X138775000Y-61679000D02*
X140422000Y-61679000D01*
X135196000Y-61639000D02*
X136815000Y-61639000D01*
X138775000Y-61639000D02*
X140394000Y-61639000D01*
X135225000Y-61599000D02*
X136815000Y-61599000D01*
X138775000Y-61599000D02*
X140365000Y-61599000D01*
X135255000Y-61559000D02*
X136815000Y-61559000D01*
X138775000Y-61559000D02*
X140335000Y-61559000D01*
X135285000Y-61519000D02*
X136815000Y-61519000D01*
X138775000Y-61519000D02*
X140305000Y-61519000D01*
X135317000Y-61479000D02*
X136815000Y-61479000D01*
X138775000Y-61479000D02*
X140273000Y-61479000D01*
X135350000Y-61439000D02*
X136815000Y-61439000D01*
X138775000Y-61439000D02*
X140240000Y-61439000D01*
X135384000Y-61399000D02*
X136815000Y-61399000D01*
X138775000Y-61399000D02*
X140206000Y-61399000D01*
X135420000Y-61359000D02*
X136815000Y-61359000D01*
X138775000Y-61359000D02*
X140170000Y-61359000D01*
X135456000Y-61319000D02*
X136815000Y-61319000D01*
X138775000Y-61319000D02*
X140134000Y-61319000D01*
X135494000Y-61279000D02*
X140096000Y-61279000D01*
X135533000Y-61239000D02*
X140057000Y-61239000D01*
X135573000Y-61199000D02*
X140017000Y-61199000D01*
X135615000Y-61159000D02*
X139975000Y-61159000D01*
X135658000Y-61119000D02*
X139932000Y-61119000D01*
X135703000Y-61079000D02*
X139887000Y-61079000D01*
X135750000Y-61039000D02*
X139840000Y-61039000D01*
X135798000Y-60999000D02*
X139792000Y-60999000D01*
X135849000Y-60959000D02*
X139741000Y-60959000D01*
X135901000Y-60919000D02*
X139689000Y-60919000D01*
X135956000Y-60879000D02*
X139634000Y-60879000D01*
X136014000Y-60839000D02*
X139576000Y-60839000D01*
X136074000Y-60799000D02*
X139516000Y-60799000D01*
X136137000Y-60759000D02*
X139453000Y-60759000D01*
X136204000Y-60719000D02*
X139386000Y-60719000D01*
X136275000Y-60679000D02*
X139315000Y-60679000D01*
X136350000Y-60639000D02*
X139240000Y-60639000D01*
X136431000Y-60599000D02*
X139159000Y-60599000D01*
X136517000Y-60559000D02*
X139073000Y-60559000D01*
X136611000Y-60519000D02*
X138979000Y-60519000D01*
X136714000Y-60479000D02*
X138876000Y-60479000D01*
X136829000Y-60439000D02*
X138761000Y-60439000D01*
X136961000Y-60399000D02*
X138629000Y-60399000D01*
X137119000Y-60359000D02*
X138471000Y-60359000D01*
X137327000Y-60319000D02*
X138263000Y-60319000D01*
X137795000Y-66970000D02*
X137795000Y-65770000D01*
X137145000Y-66370000D02*
X138445000Y-66370000D01*
X137704136Y-98247820D02*
G75*
G03X137705000Y-92212518I-1179136J3017820D01*
G01*
X135345864Y-98247820D02*
G75*
G02X135345000Y-92212518I1179136J3017820D01*
G01*
X135345864Y-98247820D02*
G75*
G03X137705000Y-98247482I1179136J3017820D01*
G01*
X139725000Y-95230000D02*
X133325000Y-95230000D01*
X139725000Y-95270000D02*
X133325000Y-95270000D01*
X139725000Y-95310000D02*
X133325000Y-95310000D01*
X139723000Y-95350000D02*
X133327000Y-95350000D01*
X139722000Y-95390000D02*
X133328000Y-95390000D01*
X139719000Y-95430000D02*
X133331000Y-95430000D01*
X139717000Y-95470000D02*
X133333000Y-95470000D01*
X139713000Y-95510000D02*
X137505000Y-95510000D01*
X135545000Y-95510000D02*
X133337000Y-95510000D01*
X139710000Y-95550000D02*
X137505000Y-95550000D01*
X135545000Y-95550000D02*
X133340000Y-95550000D01*
X139705000Y-95590000D02*
X137505000Y-95590000D01*
X135545000Y-95590000D02*
X133345000Y-95590000D01*
X139701000Y-95630000D02*
X137505000Y-95630000D01*
X135545000Y-95630000D02*
X133349000Y-95630000D01*
X139695000Y-95670000D02*
X137505000Y-95670000D01*
X135545000Y-95670000D02*
X133355000Y-95670000D01*
X139690000Y-95710000D02*
X137505000Y-95710000D01*
X135545000Y-95710000D02*
X133360000Y-95710000D01*
X139683000Y-95750000D02*
X137505000Y-95750000D01*
X135545000Y-95750000D02*
X133367000Y-95750000D01*
X139677000Y-95790000D02*
X137505000Y-95790000D01*
X135545000Y-95790000D02*
X133373000Y-95790000D01*
X139669000Y-95830000D02*
X137505000Y-95830000D01*
X135545000Y-95830000D02*
X133381000Y-95830000D01*
X139662000Y-95870000D02*
X137505000Y-95870000D01*
X135545000Y-95870000D02*
X133388000Y-95870000D01*
X139653000Y-95910000D02*
X137505000Y-95910000D01*
X135545000Y-95910000D02*
X133397000Y-95910000D01*
X139644000Y-95951000D02*
X137505000Y-95951000D01*
X135545000Y-95951000D02*
X133406000Y-95951000D01*
X139635000Y-95991000D02*
X137505000Y-95991000D01*
X135545000Y-95991000D02*
X133415000Y-95991000D01*
X139625000Y-96031000D02*
X137505000Y-96031000D01*
X135545000Y-96031000D02*
X133425000Y-96031000D01*
X139615000Y-96071000D02*
X137505000Y-96071000D01*
X135545000Y-96071000D02*
X133435000Y-96071000D01*
X139604000Y-96111000D02*
X137505000Y-96111000D01*
X135545000Y-96111000D02*
X133446000Y-96111000D01*
X139592000Y-96151000D02*
X137505000Y-96151000D01*
X135545000Y-96151000D02*
X133458000Y-96151000D01*
X139580000Y-96191000D02*
X137505000Y-96191000D01*
X135545000Y-96191000D02*
X133470000Y-96191000D01*
X139567000Y-96231000D02*
X137505000Y-96231000D01*
X135545000Y-96231000D02*
X133483000Y-96231000D01*
X139554000Y-96271000D02*
X137505000Y-96271000D01*
X135545000Y-96271000D02*
X133496000Y-96271000D01*
X139540000Y-96311000D02*
X137505000Y-96311000D01*
X135545000Y-96311000D02*
X133510000Y-96311000D01*
X139526000Y-96351000D02*
X137505000Y-96351000D01*
X135545000Y-96351000D02*
X133524000Y-96351000D01*
X139511000Y-96391000D02*
X137505000Y-96391000D01*
X135545000Y-96391000D02*
X133539000Y-96391000D01*
X139495000Y-96431000D02*
X137505000Y-96431000D01*
X135545000Y-96431000D02*
X133555000Y-96431000D01*
X139479000Y-96471000D02*
X137505000Y-96471000D01*
X135545000Y-96471000D02*
X133571000Y-96471000D01*
X139462000Y-96511000D02*
X137505000Y-96511000D01*
X135545000Y-96511000D02*
X133588000Y-96511000D01*
X139444000Y-96551000D02*
X137505000Y-96551000D01*
X135545000Y-96551000D02*
X133606000Y-96551000D01*
X139426000Y-96591000D02*
X137505000Y-96591000D01*
X135545000Y-96591000D02*
X133624000Y-96591000D01*
X139407000Y-96631000D02*
X137505000Y-96631000D01*
X135545000Y-96631000D02*
X133643000Y-96631000D01*
X139388000Y-96671000D02*
X137505000Y-96671000D01*
X135545000Y-96671000D02*
X133662000Y-96671000D01*
X139368000Y-96711000D02*
X137505000Y-96711000D01*
X135545000Y-96711000D02*
X133682000Y-96711000D01*
X139347000Y-96751000D02*
X137505000Y-96751000D01*
X135545000Y-96751000D02*
X133703000Y-96751000D01*
X139325000Y-96791000D02*
X137505000Y-96791000D01*
X135545000Y-96791000D02*
X133725000Y-96791000D01*
X139303000Y-96831000D02*
X137505000Y-96831000D01*
X135545000Y-96831000D02*
X133747000Y-96831000D01*
X139280000Y-96871000D02*
X137505000Y-96871000D01*
X135545000Y-96871000D02*
X133770000Y-96871000D01*
X139256000Y-96911000D02*
X137505000Y-96911000D01*
X135545000Y-96911000D02*
X133794000Y-96911000D01*
X139231000Y-96951000D02*
X137505000Y-96951000D01*
X135545000Y-96951000D02*
X133819000Y-96951000D01*
X139206000Y-96991000D02*
X137505000Y-96991000D01*
X135545000Y-96991000D02*
X133844000Y-96991000D01*
X139179000Y-97031000D02*
X137505000Y-97031000D01*
X135545000Y-97031000D02*
X133871000Y-97031000D01*
X139152000Y-97071000D02*
X137505000Y-97071000D01*
X135545000Y-97071000D02*
X133898000Y-97071000D01*
X139124000Y-97111000D02*
X137505000Y-97111000D01*
X135545000Y-97111000D02*
X133926000Y-97111000D01*
X139095000Y-97151000D02*
X137505000Y-97151000D01*
X135545000Y-97151000D02*
X133955000Y-97151000D01*
X139065000Y-97191000D02*
X137505000Y-97191000D01*
X135545000Y-97191000D02*
X133985000Y-97191000D01*
X139035000Y-97231000D02*
X137505000Y-97231000D01*
X135545000Y-97231000D02*
X134015000Y-97231000D01*
X139003000Y-97271000D02*
X137505000Y-97271000D01*
X135545000Y-97271000D02*
X134047000Y-97271000D01*
X138970000Y-97311000D02*
X137505000Y-97311000D01*
X135545000Y-97311000D02*
X134080000Y-97311000D01*
X138936000Y-97351000D02*
X137505000Y-97351000D01*
X135545000Y-97351000D02*
X134114000Y-97351000D01*
X138900000Y-97391000D02*
X137505000Y-97391000D01*
X135545000Y-97391000D02*
X134150000Y-97391000D01*
X138864000Y-97431000D02*
X137505000Y-97431000D01*
X135545000Y-97431000D02*
X134186000Y-97431000D01*
X138826000Y-97471000D02*
X134224000Y-97471000D01*
X138787000Y-97511000D02*
X134263000Y-97511000D01*
X138747000Y-97551000D02*
X134303000Y-97551000D01*
X138705000Y-97591000D02*
X134345000Y-97591000D01*
X138662000Y-97631000D02*
X134388000Y-97631000D01*
X138617000Y-97671000D02*
X134433000Y-97671000D01*
X138570000Y-97711000D02*
X134480000Y-97711000D01*
X138522000Y-97751000D02*
X134528000Y-97751000D01*
X138471000Y-97791000D02*
X134579000Y-97791000D01*
X138419000Y-97831000D02*
X134631000Y-97831000D01*
X138364000Y-97871000D02*
X134686000Y-97871000D01*
X138306000Y-97911000D02*
X134744000Y-97911000D01*
X138246000Y-97951000D02*
X134804000Y-97951000D01*
X138183000Y-97991000D02*
X134867000Y-97991000D01*
X138116000Y-98031000D02*
X134934000Y-98031000D01*
X138045000Y-98071000D02*
X135005000Y-98071000D01*
X137970000Y-98111000D02*
X135080000Y-98111000D01*
X137889000Y-98151000D02*
X135161000Y-98151000D01*
X137803000Y-98191000D02*
X135247000Y-98191000D01*
X137709000Y-98231000D02*
X135341000Y-98231000D01*
X137606000Y-98271000D02*
X135444000Y-98271000D01*
X137491000Y-98311000D02*
X135559000Y-98311000D01*
X137359000Y-98351000D02*
X135691000Y-98351000D01*
X137201000Y-98391000D02*
X135849000Y-98391000D01*
X136993000Y-98431000D02*
X136057000Y-98431000D01*
X136525000Y-91780000D02*
X136525000Y-92980000D01*
X137175000Y-92380000D02*
X135875000Y-92380000D01*
X146507820Y-87720864D02*
G75*
G03X140472518Y-87720000I-3017820J-1179136D01*
G01*
X146507820Y-90079136D02*
G75*
G02X140472518Y-90080000I-3017820J1179136D01*
G01*
X146507820Y-90079136D02*
G75*
G03X146507482Y-87720000I-3017820J1179136D01*
G01*
X143490000Y-85700000D02*
X143490000Y-92100000D01*
X143530000Y-85700000D02*
X143530000Y-92100000D01*
X143570000Y-85700000D02*
X143570000Y-92100000D01*
X143610000Y-85702000D02*
X143610000Y-92098000D01*
X143650000Y-85703000D02*
X143650000Y-92097000D01*
X143690000Y-85706000D02*
X143690000Y-92094000D01*
X143730000Y-85708000D02*
X143730000Y-92092000D01*
X143770000Y-85712000D02*
X143770000Y-87920000D01*
X143770000Y-89880000D02*
X143770000Y-92088000D01*
X143810000Y-85715000D02*
X143810000Y-87920000D01*
X143810000Y-89880000D02*
X143810000Y-92085000D01*
X143850000Y-85720000D02*
X143850000Y-87920000D01*
X143850000Y-89880000D02*
X143850000Y-92080000D01*
X143890000Y-85724000D02*
X143890000Y-87920000D01*
X143890000Y-89880000D02*
X143890000Y-92076000D01*
X143930000Y-85730000D02*
X143930000Y-87920000D01*
X143930000Y-89880000D02*
X143930000Y-92070000D01*
X143970000Y-85735000D02*
X143970000Y-87920000D01*
X143970000Y-89880000D02*
X143970000Y-92065000D01*
X144010000Y-85742000D02*
X144010000Y-87920000D01*
X144010000Y-89880000D02*
X144010000Y-92058000D01*
X144050000Y-85748000D02*
X144050000Y-87920000D01*
X144050000Y-89880000D02*
X144050000Y-92052000D01*
X144090000Y-85756000D02*
X144090000Y-87920000D01*
X144090000Y-89880000D02*
X144090000Y-92044000D01*
X144130000Y-85763000D02*
X144130000Y-87920000D01*
X144130000Y-89880000D02*
X144130000Y-92037000D01*
X144170000Y-85772000D02*
X144170000Y-87920000D01*
X144170000Y-89880000D02*
X144170000Y-92028000D01*
X144211000Y-85781000D02*
X144211000Y-87920000D01*
X144211000Y-89880000D02*
X144211000Y-92019000D01*
X144251000Y-85790000D02*
X144251000Y-87920000D01*
X144251000Y-89880000D02*
X144251000Y-92010000D01*
X144291000Y-85800000D02*
X144291000Y-87920000D01*
X144291000Y-89880000D02*
X144291000Y-92000000D01*
X144331000Y-85810000D02*
X144331000Y-87920000D01*
X144331000Y-89880000D02*
X144331000Y-91990000D01*
X144371000Y-85821000D02*
X144371000Y-87920000D01*
X144371000Y-89880000D02*
X144371000Y-91979000D01*
X144411000Y-85833000D02*
X144411000Y-87920000D01*
X144411000Y-89880000D02*
X144411000Y-91967000D01*
X144451000Y-85845000D02*
X144451000Y-87920000D01*
X144451000Y-89880000D02*
X144451000Y-91955000D01*
X144491000Y-85858000D02*
X144491000Y-87920000D01*
X144491000Y-89880000D02*
X144491000Y-91942000D01*
X144531000Y-85871000D02*
X144531000Y-87920000D01*
X144531000Y-89880000D02*
X144531000Y-91929000D01*
X144571000Y-85885000D02*
X144571000Y-87920000D01*
X144571000Y-89880000D02*
X144571000Y-91915000D01*
X144611000Y-85899000D02*
X144611000Y-87920000D01*
X144611000Y-89880000D02*
X144611000Y-91901000D01*
X144651000Y-85914000D02*
X144651000Y-87920000D01*
X144651000Y-89880000D02*
X144651000Y-91886000D01*
X144691000Y-85930000D02*
X144691000Y-87920000D01*
X144691000Y-89880000D02*
X144691000Y-91870000D01*
X144731000Y-85946000D02*
X144731000Y-87920000D01*
X144731000Y-89880000D02*
X144731000Y-91854000D01*
X144771000Y-85963000D02*
X144771000Y-87920000D01*
X144771000Y-89880000D02*
X144771000Y-91837000D01*
X144811000Y-85981000D02*
X144811000Y-87920000D01*
X144811000Y-89880000D02*
X144811000Y-91819000D01*
X144851000Y-85999000D02*
X144851000Y-87920000D01*
X144851000Y-89880000D02*
X144851000Y-91801000D01*
X144891000Y-86018000D02*
X144891000Y-87920000D01*
X144891000Y-89880000D02*
X144891000Y-91782000D01*
X144931000Y-86037000D02*
X144931000Y-87920000D01*
X144931000Y-89880000D02*
X144931000Y-91763000D01*
X144971000Y-86057000D02*
X144971000Y-87920000D01*
X144971000Y-89880000D02*
X144971000Y-91743000D01*
X145011000Y-86078000D02*
X145011000Y-87920000D01*
X145011000Y-89880000D02*
X145011000Y-91722000D01*
X145051000Y-86100000D02*
X145051000Y-87920000D01*
X145051000Y-89880000D02*
X145051000Y-91700000D01*
X145091000Y-86122000D02*
X145091000Y-87920000D01*
X145091000Y-89880000D02*
X145091000Y-91678000D01*
X145131000Y-86145000D02*
X145131000Y-87920000D01*
X145131000Y-89880000D02*
X145131000Y-91655000D01*
X145171000Y-86169000D02*
X145171000Y-87920000D01*
X145171000Y-89880000D02*
X145171000Y-91631000D01*
X145211000Y-86194000D02*
X145211000Y-87920000D01*
X145211000Y-89880000D02*
X145211000Y-91606000D01*
X145251000Y-86219000D02*
X145251000Y-87920000D01*
X145251000Y-89880000D02*
X145251000Y-91581000D01*
X145291000Y-86246000D02*
X145291000Y-87920000D01*
X145291000Y-89880000D02*
X145291000Y-91554000D01*
X145331000Y-86273000D02*
X145331000Y-87920000D01*
X145331000Y-89880000D02*
X145331000Y-91527000D01*
X145371000Y-86301000D02*
X145371000Y-87920000D01*
X145371000Y-89880000D02*
X145371000Y-91499000D01*
X145411000Y-86330000D02*
X145411000Y-87920000D01*
X145411000Y-89880000D02*
X145411000Y-91470000D01*
X145451000Y-86360000D02*
X145451000Y-87920000D01*
X145451000Y-89880000D02*
X145451000Y-91440000D01*
X145491000Y-86390000D02*
X145491000Y-87920000D01*
X145491000Y-89880000D02*
X145491000Y-91410000D01*
X145531000Y-86422000D02*
X145531000Y-87920000D01*
X145531000Y-89880000D02*
X145531000Y-91378000D01*
X145571000Y-86455000D02*
X145571000Y-87920000D01*
X145571000Y-89880000D02*
X145571000Y-91345000D01*
X145611000Y-86489000D02*
X145611000Y-87920000D01*
X145611000Y-89880000D02*
X145611000Y-91311000D01*
X145651000Y-86525000D02*
X145651000Y-87920000D01*
X145651000Y-89880000D02*
X145651000Y-91275000D01*
X145691000Y-86561000D02*
X145691000Y-87920000D01*
X145691000Y-89880000D02*
X145691000Y-91239000D01*
X145731000Y-86599000D02*
X145731000Y-91201000D01*
X145771000Y-86638000D02*
X145771000Y-91162000D01*
X145811000Y-86678000D02*
X145811000Y-91122000D01*
X145851000Y-86720000D02*
X145851000Y-91080000D01*
X145891000Y-86763000D02*
X145891000Y-91037000D01*
X145931000Y-86808000D02*
X145931000Y-90992000D01*
X145971000Y-86855000D02*
X145971000Y-90945000D01*
X146011000Y-86903000D02*
X146011000Y-90897000D01*
X146051000Y-86954000D02*
X146051000Y-90846000D01*
X146091000Y-87006000D02*
X146091000Y-90794000D01*
X146131000Y-87061000D02*
X146131000Y-90739000D01*
X146171000Y-87119000D02*
X146171000Y-90681000D01*
X146211000Y-87179000D02*
X146211000Y-90621000D01*
X146251000Y-87242000D02*
X146251000Y-90558000D01*
X146291000Y-87309000D02*
X146291000Y-90491000D01*
X146331000Y-87380000D02*
X146331000Y-90420000D01*
X146371000Y-87455000D02*
X146371000Y-90345000D01*
X146411000Y-87536000D02*
X146411000Y-90264000D01*
X146451000Y-87622000D02*
X146451000Y-90178000D01*
X146491000Y-87716000D02*
X146491000Y-90084000D01*
X146531000Y-87819000D02*
X146531000Y-89981000D01*
X146571000Y-87934000D02*
X146571000Y-89866000D01*
X146611000Y-88066000D02*
X146611000Y-89734000D01*
X146651000Y-88224000D02*
X146651000Y-89576000D01*
X146691000Y-88432000D02*
X146691000Y-89368000D01*
X140040000Y-88900000D02*
X141240000Y-88900000D01*
X140640000Y-88250000D02*
X140640000Y-89550000D01*
X137265000Y-83285000D02*
X138265000Y-84285000D01*
X142165000Y-74385000D02*
X137265000Y-74385000D01*
X137265000Y-74385000D02*
X137265000Y-83285000D01*
X138265000Y-84285000D02*
X142165000Y-84285000D01*
X142165000Y-84285000D02*
X142165000Y-74385000D01*
X116780000Y-60900000D02*
X116780000Y-63560000D01*
X119380000Y-60900000D02*
X116780000Y-60900000D01*
X119380000Y-63560000D02*
X116780000Y-63560000D01*
X119380000Y-60900000D02*
X119380000Y-63560000D01*
X120650000Y-60900000D02*
X121980000Y-60900000D01*
X121980000Y-60900000D02*
X121980000Y-62230000D01*
D15*
X108295000Y-88745000D02*
X107895000Y-88745000D01*
X109395000Y-85245000D02*
X109395000Y-92245000D01*
X108295000Y-85245000D02*
X108295000Y-92245000D01*
X115495000Y-85245000D02*
X107895000Y-85245000D01*
X107895000Y-92245000D02*
X115495000Y-92245000D01*
X115495000Y-92245000D02*
X115495000Y-85245000D01*
D16*
G36*
X128213886Y-87039505D02*
X128288539Y-87076727D01*
X128354431Y-87145261D01*
X128372577Y-87170648D01*
X128392345Y-87203866D01*
X128405172Y-87239945D01*
X128412510Y-87288098D01*
X128415813Y-87357536D01*
X128416538Y-87449206D01*
X128413263Y-87574830D01*
X128401877Y-87669154D01*
X128380041Y-87739523D01*
X128345419Y-87793286D01*
X128295670Y-87837788D01*
X128292014Y-87840423D01*
X128242985Y-87867377D01*
X128183945Y-87880712D01*
X128108859Y-87884000D01*
X127986795Y-87884000D01*
X127986744Y-88002497D01*
X127985608Y-88068492D01*
X127978686Y-88107202D01*
X127960598Y-88130419D01*
X127925962Y-88149933D01*
X127917645Y-88153920D01*
X127878720Y-88172603D01*
X127848583Y-88184403D01*
X127826174Y-88185422D01*
X127810433Y-88171761D01*
X127800302Y-88139522D01*
X127794723Y-88084804D01*
X127792635Y-88003711D01*
X127792981Y-87892344D01*
X127794700Y-87746802D01*
X127795237Y-87703269D01*
X127797172Y-87553205D01*
X127798904Y-87455042D01*
X127986692Y-87455042D01*
X127987748Y-87538364D01*
X127992438Y-87592880D01*
X128003051Y-87628837D01*
X128021872Y-87656482D01*
X128034650Y-87669965D01*
X128086890Y-87709417D01*
X128133142Y-87712628D01*
X128180867Y-87680049D01*
X128182077Y-87678846D01*
X128201494Y-87653668D01*
X128213307Y-87619447D01*
X128219265Y-87566748D01*
X128221120Y-87486131D01*
X128221154Y-87468271D01*
X128216670Y-87357175D01*
X128202074Y-87280161D01*
X128175650Y-87233147D01*
X128135683Y-87212050D01*
X128112584Y-87209923D01*
X128057762Y-87219900D01*
X128020158Y-87252752D01*
X127997523Y-87312857D01*
X127987606Y-87404598D01*
X127986692Y-87455042D01*
X127798904Y-87455042D01*
X127799222Y-87437060D01*
X127801873Y-87349679D01*
X127805606Y-87285905D01*
X127810907Y-87240582D01*
X127818258Y-87208555D01*
X127828143Y-87184668D01*
X127841046Y-87163764D01*
X127846579Y-87155898D01*
X127919969Y-87081595D01*
X128012760Y-87039467D01*
X128120096Y-87027722D01*
X128213886Y-87039505D01*
X128213886Y-87039505D01*
G37*
X128213886Y-87039505D02*
X128288539Y-87076727D01*
X128354431Y-87145261D01*
X128372577Y-87170648D01*
X128392345Y-87203866D01*
X128405172Y-87239945D01*
X128412510Y-87288098D01*
X128415813Y-87357536D01*
X128416538Y-87449206D01*
X128413263Y-87574830D01*
X128401877Y-87669154D01*
X128380041Y-87739523D01*
X128345419Y-87793286D01*
X128295670Y-87837788D01*
X128292014Y-87840423D01*
X128242985Y-87867377D01*
X128183945Y-87880712D01*
X128108859Y-87884000D01*
X127986795Y-87884000D01*
X127986744Y-88002497D01*
X127985608Y-88068492D01*
X127978686Y-88107202D01*
X127960598Y-88130419D01*
X127925962Y-88149933D01*
X127917645Y-88153920D01*
X127878720Y-88172603D01*
X127848583Y-88184403D01*
X127826174Y-88185422D01*
X127810433Y-88171761D01*
X127800302Y-88139522D01*
X127794723Y-88084804D01*
X127792635Y-88003711D01*
X127792981Y-87892344D01*
X127794700Y-87746802D01*
X127795237Y-87703269D01*
X127797172Y-87553205D01*
X127798904Y-87455042D01*
X127986692Y-87455042D01*
X127987748Y-87538364D01*
X127992438Y-87592880D01*
X128003051Y-87628837D01*
X128021872Y-87656482D01*
X128034650Y-87669965D01*
X128086890Y-87709417D01*
X128133142Y-87712628D01*
X128180867Y-87680049D01*
X128182077Y-87678846D01*
X128201494Y-87653668D01*
X128213307Y-87619447D01*
X128219265Y-87566748D01*
X128221120Y-87486131D01*
X128221154Y-87468271D01*
X128216670Y-87357175D01*
X128202074Y-87280161D01*
X128175650Y-87233147D01*
X128135683Y-87212050D01*
X128112584Y-87209923D01*
X128057762Y-87219900D01*
X128020158Y-87252752D01*
X127997523Y-87312857D01*
X127987606Y-87404598D01*
X127986692Y-87455042D01*
X127798904Y-87455042D01*
X127799222Y-87437060D01*
X127801873Y-87349679D01*
X127805606Y-87285905D01*
X127810907Y-87240582D01*
X127818258Y-87208555D01*
X127828143Y-87184668D01*
X127841046Y-87163764D01*
X127846579Y-87155898D01*
X127919969Y-87081595D01*
X128012760Y-87039467D01*
X128120096Y-87027722D01*
X128213886Y-87039505D01*
G36*
X129716664Y-87050089D02*
X129779367Y-87086358D01*
X129822961Y-87122358D01*
X129854845Y-87160075D01*
X129876810Y-87206199D01*
X129890649Y-87267421D01*
X129898153Y-87350431D01*
X129901117Y-87461919D01*
X129901461Y-87542062D01*
X129901461Y-87837065D01*
X129735385Y-87911515D01*
X129725615Y-87588402D01*
X129721579Y-87467729D01*
X129717344Y-87380141D01*
X129712097Y-87319650D01*
X129705025Y-87280268D01*
X129695311Y-87256007D01*
X129682144Y-87240880D01*
X129677919Y-87237606D01*
X129613909Y-87212034D01*
X129549208Y-87222153D01*
X129510692Y-87249000D01*
X129495025Y-87268024D01*
X129484180Y-87292988D01*
X129477288Y-87330834D01*
X129473479Y-87388502D01*
X129471883Y-87472935D01*
X129471615Y-87560928D01*
X129471563Y-87671323D01*
X129469672Y-87749463D01*
X129463345Y-87802165D01*
X129449983Y-87836242D01*
X129426985Y-87858511D01*
X129391754Y-87875787D01*
X129344697Y-87893738D01*
X129293303Y-87913278D01*
X129299421Y-87566485D01*
X129301884Y-87441468D01*
X129304767Y-87349082D01*
X129308898Y-87282881D01*
X129315107Y-87236420D01*
X129324226Y-87203256D01*
X129337083Y-87176944D01*
X129352584Y-87153729D01*
X129427371Y-87079569D01*
X129518628Y-87036684D01*
X129617883Y-87026412D01*
X129716664Y-87050089D01*
X129716664Y-87050089D01*
G37*
X129716664Y-87050089D02*
X129779367Y-87086358D01*
X129822961Y-87122358D01*
X129854845Y-87160075D01*
X129876810Y-87206199D01*
X129890649Y-87267421D01*
X129898153Y-87350431D01*
X129901117Y-87461919D01*
X129901461Y-87542062D01*
X129901461Y-87837065D01*
X129735385Y-87911515D01*
X129725615Y-87588402D01*
X129721579Y-87467729D01*
X129717344Y-87380141D01*
X129712097Y-87319650D01*
X129705025Y-87280268D01*
X129695311Y-87256007D01*
X129682144Y-87240880D01*
X129677919Y-87237606D01*
X129613909Y-87212034D01*
X129549208Y-87222153D01*
X129510692Y-87249000D01*
X129495025Y-87268024D01*
X129484180Y-87292988D01*
X129477288Y-87330834D01*
X129473479Y-87388502D01*
X129471883Y-87472935D01*
X129471615Y-87560928D01*
X129471563Y-87671323D01*
X129469672Y-87749463D01*
X129463345Y-87802165D01*
X129449983Y-87836242D01*
X129426985Y-87858511D01*
X129391754Y-87875787D01*
X129344697Y-87893738D01*
X129293303Y-87913278D01*
X129299421Y-87566485D01*
X129301884Y-87441468D01*
X129304767Y-87349082D01*
X129308898Y-87282881D01*
X129315107Y-87236420D01*
X129324226Y-87203256D01*
X129337083Y-87176944D01*
X129352584Y-87153729D01*
X129427371Y-87079569D01*
X129518628Y-87036684D01*
X129617883Y-87026412D01*
X129716664Y-87050089D01*
G36*
X127461886Y-87042256D02*
X127553464Y-87090409D01*
X127621049Y-87167905D01*
X127645057Y-87217727D01*
X127663738Y-87292533D01*
X127673301Y-87387052D01*
X127674208Y-87490210D01*
X127666921Y-87590935D01*
X127651903Y-87678153D01*
X127629615Y-87740791D01*
X127622765Y-87751579D01*
X127541632Y-87832105D01*
X127445266Y-87880336D01*
X127340701Y-87894450D01*
X127234968Y-87872629D01*
X127205543Y-87859547D01*
X127148241Y-87819231D01*
X127097950Y-87765775D01*
X127093197Y-87758995D01*
X127073878Y-87726321D01*
X127061108Y-87691394D01*
X127053564Y-87645414D01*
X127049924Y-87579584D01*
X127048865Y-87485105D01*
X127048846Y-87463923D01*
X127048894Y-87457182D01*
X127244231Y-87457182D01*
X127245368Y-87546349D01*
X127249841Y-87605520D01*
X127259246Y-87643741D01*
X127275176Y-87670053D01*
X127283308Y-87678846D01*
X127330058Y-87712261D01*
X127375447Y-87710737D01*
X127421340Y-87681752D01*
X127448712Y-87650809D01*
X127464923Y-87605643D01*
X127474026Y-87534420D01*
X127474651Y-87526114D01*
X127476204Y-87397037D01*
X127459965Y-87301172D01*
X127426152Y-87239107D01*
X127374984Y-87211432D01*
X127356720Y-87209923D01*
X127308760Y-87217513D01*
X127275953Y-87243808D01*
X127255895Y-87294095D01*
X127246178Y-87373664D01*
X127244231Y-87457182D01*
X127048894Y-87457182D01*
X127049574Y-87363249D01*
X127052629Y-87292906D01*
X127059322Y-87244163D01*
X127070960Y-87208288D01*
X127088853Y-87176548D01*
X127092808Y-87170648D01*
X127159267Y-87091104D01*
X127231685Y-87044929D01*
X127319849Y-87026599D01*
X127349787Y-87025703D01*
X127461886Y-87042256D01*
X127461886Y-87042256D01*
G37*
X127461886Y-87042256D02*
X127553464Y-87090409D01*
X127621049Y-87167905D01*
X127645057Y-87217727D01*
X127663738Y-87292533D01*
X127673301Y-87387052D01*
X127674208Y-87490210D01*
X127666921Y-87590935D01*
X127651903Y-87678153D01*
X127629615Y-87740791D01*
X127622765Y-87751579D01*
X127541632Y-87832105D01*
X127445266Y-87880336D01*
X127340701Y-87894450D01*
X127234968Y-87872629D01*
X127205543Y-87859547D01*
X127148241Y-87819231D01*
X127097950Y-87765775D01*
X127093197Y-87758995D01*
X127073878Y-87726321D01*
X127061108Y-87691394D01*
X127053564Y-87645414D01*
X127049924Y-87579584D01*
X127048865Y-87485105D01*
X127048846Y-87463923D01*
X127048894Y-87457182D01*
X127244231Y-87457182D01*
X127245368Y-87546349D01*
X127249841Y-87605520D01*
X127259246Y-87643741D01*
X127275176Y-87670053D01*
X127283308Y-87678846D01*
X127330058Y-87712261D01*
X127375447Y-87710737D01*
X127421340Y-87681752D01*
X127448712Y-87650809D01*
X127464923Y-87605643D01*
X127474026Y-87534420D01*
X127474651Y-87526114D01*
X127476204Y-87397037D01*
X127459965Y-87301172D01*
X127426152Y-87239107D01*
X127374984Y-87211432D01*
X127356720Y-87209923D01*
X127308760Y-87217513D01*
X127275953Y-87243808D01*
X127255895Y-87294095D01*
X127246178Y-87373664D01*
X127244231Y-87457182D01*
X127048894Y-87457182D01*
X127049574Y-87363249D01*
X127052629Y-87292906D01*
X127059322Y-87244163D01*
X127070960Y-87208288D01*
X127088853Y-87176548D01*
X127092808Y-87170648D01*
X127159267Y-87091104D01*
X127231685Y-87044929D01*
X127319849Y-87026599D01*
X127349787Y-87025703D01*
X127461886Y-87042256D01*
G36*
X128979254Y-87054745D02*
X129056286Y-87106567D01*
X129115816Y-87181412D01*
X129151378Y-87276654D01*
X129158571Y-87346756D01*
X129157754Y-87376009D01*
X129150914Y-87398407D01*
X129132112Y-87418474D01*
X129095408Y-87440733D01*
X129034862Y-87469709D01*
X128944534Y-87509927D01*
X128944077Y-87510129D01*
X128860933Y-87548210D01*
X128792753Y-87582025D01*
X128746505Y-87607933D01*
X128729158Y-87622295D01*
X128729154Y-87622411D01*
X128744443Y-87653685D01*
X128780196Y-87688157D01*
X128821242Y-87712990D01*
X128842037Y-87717923D01*
X128898770Y-87700862D01*
X128947627Y-87658133D01*
X128971465Y-87611155D01*
X128994397Y-87576522D01*
X129039318Y-87537081D01*
X129092123Y-87503009D01*
X129138710Y-87484480D01*
X129148452Y-87483462D01*
X129159418Y-87500215D01*
X129160079Y-87543039D01*
X129152020Y-87600781D01*
X129136827Y-87662289D01*
X129116086Y-87716409D01*
X129115038Y-87718510D01*
X129052621Y-87805660D01*
X128971726Y-87864939D01*
X128879856Y-87894034D01*
X128784513Y-87890634D01*
X128693198Y-87852428D01*
X128689138Y-87849741D01*
X128617306Y-87784642D01*
X128570073Y-87699705D01*
X128543934Y-87588021D01*
X128540426Y-87556643D01*
X128534213Y-87408536D01*
X128541661Y-87339468D01*
X128729154Y-87339468D01*
X128731590Y-87382552D01*
X128744914Y-87395126D01*
X128778132Y-87385719D01*
X128830494Y-87363483D01*
X128889024Y-87335610D01*
X128890479Y-87334872D01*
X128940089Y-87308777D01*
X128960000Y-87291363D01*
X128955090Y-87273107D01*
X128934416Y-87249120D01*
X128881819Y-87214406D01*
X128825177Y-87211856D01*
X128774369Y-87237119D01*
X128739276Y-87285847D01*
X128729154Y-87339468D01*
X128541661Y-87339468D01*
X128546992Y-87290036D01*
X128579778Y-87196055D01*
X128625421Y-87130215D01*
X128707802Y-87063681D01*
X128798546Y-87030676D01*
X128891185Y-87028573D01*
X128979254Y-87054745D01*
X128979254Y-87054745D01*
G37*
X128979254Y-87054745D02*
X129056286Y-87106567D01*
X129115816Y-87181412D01*
X129151378Y-87276654D01*
X129158571Y-87346756D01*
X129157754Y-87376009D01*
X129150914Y-87398407D01*
X129132112Y-87418474D01*
X129095408Y-87440733D01*
X129034862Y-87469709D01*
X128944534Y-87509927D01*
X128944077Y-87510129D01*
X128860933Y-87548210D01*
X128792753Y-87582025D01*
X128746505Y-87607933D01*
X128729158Y-87622295D01*
X128729154Y-87622411D01*
X128744443Y-87653685D01*
X128780196Y-87688157D01*
X128821242Y-87712990D01*
X128842037Y-87717923D01*
X128898770Y-87700862D01*
X128947627Y-87658133D01*
X128971465Y-87611155D01*
X128994397Y-87576522D01*
X129039318Y-87537081D01*
X129092123Y-87503009D01*
X129138710Y-87484480D01*
X129148452Y-87483462D01*
X129159418Y-87500215D01*
X129160079Y-87543039D01*
X129152020Y-87600781D01*
X129136827Y-87662289D01*
X129116086Y-87716409D01*
X129115038Y-87718510D01*
X129052621Y-87805660D01*
X128971726Y-87864939D01*
X128879856Y-87894034D01*
X128784513Y-87890634D01*
X128693198Y-87852428D01*
X128689138Y-87849741D01*
X128617306Y-87784642D01*
X128570073Y-87699705D01*
X128543934Y-87588021D01*
X128540426Y-87556643D01*
X128534213Y-87408536D01*
X128541661Y-87339468D01*
X128729154Y-87339468D01*
X128731590Y-87382552D01*
X128744914Y-87395126D01*
X128778132Y-87385719D01*
X128830494Y-87363483D01*
X128889024Y-87335610D01*
X128890479Y-87334872D01*
X128940089Y-87308777D01*
X128960000Y-87291363D01*
X128955090Y-87273107D01*
X128934416Y-87249120D01*
X128881819Y-87214406D01*
X128825177Y-87211856D01*
X128774369Y-87237119D01*
X128739276Y-87285847D01*
X128729154Y-87339468D01*
X128541661Y-87339468D01*
X128546992Y-87290036D01*
X128579778Y-87196055D01*
X128625421Y-87130215D01*
X128707802Y-87063681D01*
X128798546Y-87030676D01*
X128891185Y-87028573D01*
X128979254Y-87054745D01*
G36*
X130604846Y-86947120D02*
X130610572Y-87026980D01*
X130617149Y-87074039D01*
X130626262Y-87094566D01*
X130639598Y-87094829D01*
X130643923Y-87092378D01*
X130701444Y-87074636D01*
X130776268Y-87075672D01*
X130852339Y-87093910D01*
X130899918Y-87117505D01*
X130948702Y-87155198D01*
X130984364Y-87197855D01*
X131008845Y-87252057D01*
X131024087Y-87324384D01*
X131032030Y-87421419D01*
X131034616Y-87549742D01*
X131034662Y-87574358D01*
X131034692Y-87850870D01*
X130973161Y-87872320D01*
X130929459Y-87886912D01*
X130905482Y-87893706D01*
X130904777Y-87893769D01*
X130902415Y-87875345D01*
X130900406Y-87824526D01*
X130898901Y-87747993D01*
X130898053Y-87652430D01*
X130897923Y-87594329D01*
X130897651Y-87479771D01*
X130896252Y-87397667D01*
X130892849Y-87341393D01*
X130886567Y-87304326D01*
X130876529Y-87279844D01*
X130861861Y-87261325D01*
X130852702Y-87252406D01*
X130789789Y-87216466D01*
X130721136Y-87213775D01*
X130658848Y-87244170D01*
X130647329Y-87255144D01*
X130630433Y-87275779D01*
X130618714Y-87300256D01*
X130611233Y-87335647D01*
X130607054Y-87389026D01*
X130605237Y-87467466D01*
X130604846Y-87575617D01*
X130604846Y-87850870D01*
X130543315Y-87872320D01*
X130499613Y-87886912D01*
X130475636Y-87893706D01*
X130474930Y-87893769D01*
X130473126Y-87875069D01*
X130471500Y-87822322D01*
X130470117Y-87740557D01*
X130469042Y-87634805D01*
X130468340Y-87510094D01*
X130468077Y-87371455D01*
X130468077Y-86836806D01*
X130595077Y-86783236D01*
X130604846Y-86947120D01*
X130604846Y-86947120D01*
G37*
X130604846Y-86947120D02*
X130610572Y-87026980D01*
X130617149Y-87074039D01*
X130626262Y-87094566D01*
X130639598Y-87094829D01*
X130643923Y-87092378D01*
X130701444Y-87074636D01*
X130776268Y-87075672D01*
X130852339Y-87093910D01*
X130899918Y-87117505D01*
X130948702Y-87155198D01*
X130984364Y-87197855D01*
X131008845Y-87252057D01*
X131024087Y-87324384D01*
X131032030Y-87421419D01*
X131034616Y-87549742D01*
X131034662Y-87574358D01*
X131034692Y-87850870D01*
X130973161Y-87872320D01*
X130929459Y-87886912D01*
X130905482Y-87893706D01*
X130904777Y-87893769D01*
X130902415Y-87875345D01*
X130900406Y-87824526D01*
X130898901Y-87747993D01*
X130898053Y-87652430D01*
X130897923Y-87594329D01*
X130897651Y-87479771D01*
X130896252Y-87397667D01*
X130892849Y-87341393D01*
X130886567Y-87304326D01*
X130876529Y-87279844D01*
X130861861Y-87261325D01*
X130852702Y-87252406D01*
X130789789Y-87216466D01*
X130721136Y-87213775D01*
X130658848Y-87244170D01*
X130647329Y-87255144D01*
X130630433Y-87275779D01*
X130618714Y-87300256D01*
X130611233Y-87335647D01*
X130607054Y-87389026D01*
X130605237Y-87467466D01*
X130604846Y-87575617D01*
X130604846Y-87850870D01*
X130543315Y-87872320D01*
X130499613Y-87886912D01*
X130475636Y-87893706D01*
X130474930Y-87893769D01*
X130473126Y-87875069D01*
X130471500Y-87822322D01*
X130470117Y-87740557D01*
X130469042Y-87634805D01*
X130468340Y-87510094D01*
X130468077Y-87371455D01*
X130468077Y-86836806D01*
X130595077Y-86783236D01*
X130604846Y-86947120D01*
G36*
X131498501Y-87081303D02*
X131575060Y-87109733D01*
X131575936Y-87110279D01*
X131623285Y-87145127D01*
X131658241Y-87185852D01*
X131682825Y-87238925D01*
X131699062Y-87310814D01*
X131708975Y-87407992D01*
X131714586Y-87536928D01*
X131715077Y-87555298D01*
X131722141Y-87832287D01*
X131662695Y-87863028D01*
X131619681Y-87883802D01*
X131593710Y-87893646D01*
X131592509Y-87893769D01*
X131588014Y-87875606D01*
X131584444Y-87826612D01*
X131582248Y-87755031D01*
X131581769Y-87697068D01*
X131581758Y-87603170D01*
X131577466Y-87544203D01*
X131562503Y-87516079D01*
X131530482Y-87514706D01*
X131475014Y-87535998D01*
X131391269Y-87575136D01*
X131329689Y-87607643D01*
X131298017Y-87635845D01*
X131288706Y-87666582D01*
X131288692Y-87668104D01*
X131304057Y-87721054D01*
X131349547Y-87749660D01*
X131419166Y-87753803D01*
X131469313Y-87753084D01*
X131495754Y-87767527D01*
X131512243Y-87802218D01*
X131521733Y-87846416D01*
X131508057Y-87871493D01*
X131502907Y-87875082D01*
X131454425Y-87889496D01*
X131386531Y-87891537D01*
X131316612Y-87881983D01*
X131267068Y-87864522D01*
X131198570Y-87806364D01*
X131159634Y-87725408D01*
X131151923Y-87662160D01*
X131157807Y-87605111D01*
X131179101Y-87558542D01*
X131221265Y-87517181D01*
X131289759Y-87475755D01*
X131390044Y-87428993D01*
X131396154Y-87426350D01*
X131486490Y-87384617D01*
X131542235Y-87350391D01*
X131566129Y-87319635D01*
X131560913Y-87288311D01*
X131529328Y-87252383D01*
X131519883Y-87244116D01*
X131456617Y-87212058D01*
X131391064Y-87213407D01*
X131333972Y-87244838D01*
X131296093Y-87303024D01*
X131292574Y-87314446D01*
X131258300Y-87369837D01*
X131214809Y-87396518D01*
X131151923Y-87422960D01*
X131151923Y-87354548D01*
X131171052Y-87255110D01*
X131227831Y-87163902D01*
X131257378Y-87133389D01*
X131324542Y-87094228D01*
X131409956Y-87076500D01*
X131498501Y-87081303D01*
X131498501Y-87081303D01*
G37*
X131498501Y-87081303D02*
X131575060Y-87109733D01*
X131575936Y-87110279D01*
X131623285Y-87145127D01*
X131658241Y-87185852D01*
X131682825Y-87238925D01*
X131699062Y-87310814D01*
X131708975Y-87407992D01*
X131714586Y-87536928D01*
X131715077Y-87555298D01*
X131722141Y-87832287D01*
X131662695Y-87863028D01*
X131619681Y-87883802D01*
X131593710Y-87893646D01*
X131592509Y-87893769D01*
X131588014Y-87875606D01*
X131584444Y-87826612D01*
X131582248Y-87755031D01*
X131581769Y-87697068D01*
X131581758Y-87603170D01*
X131577466Y-87544203D01*
X131562503Y-87516079D01*
X131530482Y-87514706D01*
X131475014Y-87535998D01*
X131391269Y-87575136D01*
X131329689Y-87607643D01*
X131298017Y-87635845D01*
X131288706Y-87666582D01*
X131288692Y-87668104D01*
X131304057Y-87721054D01*
X131349547Y-87749660D01*
X131419166Y-87753803D01*
X131469313Y-87753084D01*
X131495754Y-87767527D01*
X131512243Y-87802218D01*
X131521733Y-87846416D01*
X131508057Y-87871493D01*
X131502907Y-87875082D01*
X131454425Y-87889496D01*
X131386531Y-87891537D01*
X131316612Y-87881983D01*
X131267068Y-87864522D01*
X131198570Y-87806364D01*
X131159634Y-87725408D01*
X131151923Y-87662160D01*
X131157807Y-87605111D01*
X131179101Y-87558542D01*
X131221265Y-87517181D01*
X131289759Y-87475755D01*
X131390044Y-87428993D01*
X131396154Y-87426350D01*
X131486490Y-87384617D01*
X131542235Y-87350391D01*
X131566129Y-87319635D01*
X131560913Y-87288311D01*
X131529328Y-87252383D01*
X131519883Y-87244116D01*
X131456617Y-87212058D01*
X131391064Y-87213407D01*
X131333972Y-87244838D01*
X131296093Y-87303024D01*
X131292574Y-87314446D01*
X131258300Y-87369837D01*
X131214809Y-87396518D01*
X131151923Y-87422960D01*
X131151923Y-87354548D01*
X131171052Y-87255110D01*
X131227831Y-87163902D01*
X131257378Y-87133389D01*
X131324542Y-87094228D01*
X131409956Y-87076500D01*
X131498501Y-87081303D01*
G36*
X132158362Y-87079670D02*
X132247117Y-87112421D01*
X132319022Y-87170350D01*
X132347144Y-87211128D01*
X132377802Y-87285954D01*
X132377165Y-87340058D01*
X132344987Y-87376446D01*
X132333081Y-87382633D01*
X132281675Y-87401925D01*
X132255422Y-87396982D01*
X132246530Y-87364587D01*
X132246077Y-87346692D01*
X132229797Y-87280859D01*
X132187365Y-87234807D01*
X132128388Y-87212564D01*
X132062475Y-87218161D01*
X132008895Y-87247229D01*
X131990798Y-87263810D01*
X131977971Y-87283925D01*
X131969306Y-87314332D01*
X131963696Y-87361788D01*
X131960035Y-87433050D01*
X131957215Y-87534875D01*
X131956484Y-87567115D01*
X131953820Y-87677410D01*
X131950792Y-87755036D01*
X131946250Y-87806396D01*
X131939046Y-87837890D01*
X131928033Y-87855920D01*
X131912060Y-87866888D01*
X131901834Y-87871733D01*
X131858406Y-87888301D01*
X131832842Y-87893769D01*
X131824395Y-87875507D01*
X131819239Y-87820296D01*
X131817346Y-87727499D01*
X131818689Y-87596478D01*
X131819107Y-87576269D01*
X131822058Y-87456733D01*
X131825548Y-87369449D01*
X131830514Y-87307591D01*
X131837893Y-87264336D01*
X131848624Y-87232860D01*
X131863645Y-87206339D01*
X131871502Y-87194975D01*
X131916553Y-87144692D01*
X131966940Y-87105581D01*
X131973108Y-87102167D01*
X132063458Y-87075212D01*
X132158362Y-87079670D01*
X132158362Y-87079670D01*
G37*
X132158362Y-87079670D02*
X132247117Y-87112421D01*
X132319022Y-87170350D01*
X132347144Y-87211128D01*
X132377802Y-87285954D01*
X132377165Y-87340058D01*
X132344987Y-87376446D01*
X132333081Y-87382633D01*
X132281675Y-87401925D01*
X132255422Y-87396982D01*
X132246530Y-87364587D01*
X132246077Y-87346692D01*
X132229797Y-87280859D01*
X132187365Y-87234807D01*
X132128388Y-87212564D01*
X132062475Y-87218161D01*
X132008895Y-87247229D01*
X131990798Y-87263810D01*
X131977971Y-87283925D01*
X131969306Y-87314332D01*
X131963696Y-87361788D01*
X131960035Y-87433050D01*
X131957215Y-87534875D01*
X131956484Y-87567115D01*
X131953820Y-87677410D01*
X131950792Y-87755036D01*
X131946250Y-87806396D01*
X131939046Y-87837890D01*
X131928033Y-87855920D01*
X131912060Y-87866888D01*
X131901834Y-87871733D01*
X131858406Y-87888301D01*
X131832842Y-87893769D01*
X131824395Y-87875507D01*
X131819239Y-87820296D01*
X131817346Y-87727499D01*
X131818689Y-87596478D01*
X131819107Y-87576269D01*
X131822058Y-87456733D01*
X131825548Y-87369449D01*
X131830514Y-87307591D01*
X131837893Y-87264336D01*
X131848624Y-87232860D01*
X131863645Y-87206339D01*
X131871502Y-87194975D01*
X131916553Y-87144692D01*
X131966940Y-87105581D01*
X131973108Y-87102167D01*
X132063458Y-87075212D01*
X132158362Y-87079670D01*
G36*
X133047081Y-87235289D02*
X133046833Y-87381320D01*
X133045872Y-87493655D01*
X133043794Y-87577678D01*
X133040193Y-87638769D01*
X133034665Y-87682309D01*
X133026804Y-87713679D01*
X133016207Y-87738262D01*
X133008182Y-87752294D01*
X132941728Y-87828388D01*
X132857470Y-87876084D01*
X132764249Y-87893199D01*
X132670900Y-87877546D01*
X132615312Y-87849418D01*
X132556957Y-87800760D01*
X132517186Y-87741333D01*
X132493190Y-87663507D01*
X132482161Y-87559652D01*
X132480599Y-87483462D01*
X132480809Y-87477986D01*
X132617308Y-87477986D01*
X132618141Y-87565355D01*
X132621961Y-87623192D01*
X132630746Y-87661029D01*
X132646474Y-87688398D01*
X132665266Y-87709042D01*
X132728375Y-87748890D01*
X132796137Y-87752295D01*
X132860179Y-87719025D01*
X132865164Y-87714517D01*
X132886439Y-87691067D01*
X132899779Y-87663166D01*
X132907001Y-87621641D01*
X132909923Y-87557316D01*
X132910385Y-87486200D01*
X132909383Y-87396858D01*
X132905238Y-87337258D01*
X132896236Y-87298089D01*
X132880667Y-87270040D01*
X132867902Y-87255144D01*
X132808600Y-87217575D01*
X132740301Y-87213057D01*
X132675110Y-87241753D01*
X132662528Y-87252406D01*
X132641111Y-87276063D01*
X132627744Y-87304251D01*
X132620566Y-87346245D01*
X132617719Y-87411319D01*
X132617308Y-87477986D01*
X132480809Y-87477986D01*
X132485322Y-87360765D01*
X132501362Y-87268577D01*
X132531528Y-87199269D01*
X132578629Y-87145211D01*
X132615312Y-87117505D01*
X132681990Y-87087572D01*
X132759272Y-87073678D01*
X132831110Y-87077397D01*
X132871308Y-87092400D01*
X132887082Y-87096670D01*
X132897550Y-87080750D01*
X132904856Y-87038089D01*
X132910385Y-86973106D01*
X132916437Y-86900732D01*
X132924844Y-86857187D01*
X132940141Y-86832287D01*
X132966864Y-86815845D01*
X132983654Y-86808564D01*
X133047154Y-86781963D01*
X133047081Y-87235289D01*
X133047081Y-87235289D01*
G37*
X133047081Y-87235289D02*
X133046833Y-87381320D01*
X133045872Y-87493655D01*
X133043794Y-87577678D01*
X133040193Y-87638769D01*
X133034665Y-87682309D01*
X133026804Y-87713679D01*
X133016207Y-87738262D01*
X133008182Y-87752294D01*
X132941728Y-87828388D01*
X132857470Y-87876084D01*
X132764249Y-87893199D01*
X132670900Y-87877546D01*
X132615312Y-87849418D01*
X132556957Y-87800760D01*
X132517186Y-87741333D01*
X132493190Y-87663507D01*
X132482161Y-87559652D01*
X132480599Y-87483462D01*
X132480809Y-87477986D01*
X132617308Y-87477986D01*
X132618141Y-87565355D01*
X132621961Y-87623192D01*
X132630746Y-87661029D01*
X132646474Y-87688398D01*
X132665266Y-87709042D01*
X132728375Y-87748890D01*
X132796137Y-87752295D01*
X132860179Y-87719025D01*
X132865164Y-87714517D01*
X132886439Y-87691067D01*
X132899779Y-87663166D01*
X132907001Y-87621641D01*
X132909923Y-87557316D01*
X132910385Y-87486200D01*
X132909383Y-87396858D01*
X132905238Y-87337258D01*
X132896236Y-87298089D01*
X132880667Y-87270040D01*
X132867902Y-87255144D01*
X132808600Y-87217575D01*
X132740301Y-87213057D01*
X132675110Y-87241753D01*
X132662528Y-87252406D01*
X132641111Y-87276063D01*
X132627744Y-87304251D01*
X132620566Y-87346245D01*
X132617719Y-87411319D01*
X132617308Y-87477986D01*
X132480809Y-87477986D01*
X132485322Y-87360765D01*
X132501362Y-87268577D01*
X132531528Y-87199269D01*
X132578629Y-87145211D01*
X132615312Y-87117505D01*
X132681990Y-87087572D01*
X132759272Y-87073678D01*
X132831110Y-87077397D01*
X132871308Y-87092400D01*
X132887082Y-87096670D01*
X132897550Y-87080750D01*
X132904856Y-87038089D01*
X132910385Y-86973106D01*
X132916437Y-86900732D01*
X132924844Y-86857187D01*
X132940141Y-86832287D01*
X132966864Y-86815845D01*
X132983654Y-86808564D01*
X133047154Y-86781963D01*
X133047081Y-87235289D01*
G36*
X133840929Y-87091662D02*
X133843911Y-87143068D01*
X133846247Y-87221192D01*
X133847749Y-87319857D01*
X133848231Y-87423343D01*
X133848231Y-87773533D01*
X133786401Y-87835363D01*
X133743793Y-87873462D01*
X133706390Y-87888895D01*
X133655270Y-87887918D01*
X133634978Y-87885433D01*
X133571554Y-87878200D01*
X133519095Y-87874055D01*
X133506308Y-87873672D01*
X133463199Y-87876176D01*
X133401544Y-87882462D01*
X133377638Y-87885433D01*
X133318922Y-87890028D01*
X133279464Y-87880046D01*
X133240338Y-87849228D01*
X133226215Y-87835363D01*
X133164385Y-87773533D01*
X133164385Y-87118503D01*
X133214150Y-87095829D01*
X133257002Y-87079034D01*
X133282073Y-87073154D01*
X133288501Y-87091736D01*
X133294509Y-87143655D01*
X133299697Y-87223172D01*
X133303664Y-87324546D01*
X133305577Y-87410192D01*
X133310923Y-87747231D01*
X133357560Y-87753825D01*
X133399976Y-87749214D01*
X133420760Y-87734287D01*
X133426570Y-87706377D01*
X133431530Y-87646925D01*
X133435246Y-87563466D01*
X133437324Y-87463532D01*
X133437624Y-87412104D01*
X133437923Y-87116054D01*
X133499454Y-87094604D01*
X133543004Y-87080020D01*
X133566694Y-87073219D01*
X133567377Y-87073154D01*
X133569754Y-87091642D01*
X133572366Y-87142906D01*
X133574995Y-87220649D01*
X133577421Y-87318574D01*
X133579115Y-87410192D01*
X133584461Y-87747231D01*
X133701692Y-87747231D01*
X133707072Y-87439746D01*
X133712451Y-87132261D01*
X133769601Y-87102707D01*
X133811797Y-87082413D01*
X133836770Y-87073204D01*
X133837491Y-87073154D01*
X133840929Y-87091662D01*
X133840929Y-87091662D01*
G37*
X133840929Y-87091662D02*
X133843911Y-87143068D01*
X133846247Y-87221192D01*
X133847749Y-87319857D01*
X133848231Y-87423343D01*
X133848231Y-87773533D01*
X133786401Y-87835363D01*
X133743793Y-87873462D01*
X133706390Y-87888895D01*
X133655270Y-87887918D01*
X133634978Y-87885433D01*
X133571554Y-87878200D01*
X133519095Y-87874055D01*
X133506308Y-87873672D01*
X133463199Y-87876176D01*
X133401544Y-87882462D01*
X133377638Y-87885433D01*
X133318922Y-87890028D01*
X133279464Y-87880046D01*
X133240338Y-87849228D01*
X133226215Y-87835363D01*
X133164385Y-87773533D01*
X133164385Y-87118503D01*
X133214150Y-87095829D01*
X133257002Y-87079034D01*
X133282073Y-87073154D01*
X133288501Y-87091736D01*
X133294509Y-87143655D01*
X133299697Y-87223172D01*
X133303664Y-87324546D01*
X133305577Y-87410192D01*
X133310923Y-87747231D01*
X133357560Y-87753825D01*
X133399976Y-87749214D01*
X133420760Y-87734287D01*
X133426570Y-87706377D01*
X133431530Y-87646925D01*
X133435246Y-87563466D01*
X133437324Y-87463532D01*
X133437624Y-87412104D01*
X133437923Y-87116054D01*
X133499454Y-87094604D01*
X133543004Y-87080020D01*
X133566694Y-87073219D01*
X133567377Y-87073154D01*
X133569754Y-87091642D01*
X133572366Y-87142906D01*
X133574995Y-87220649D01*
X133577421Y-87318574D01*
X133579115Y-87410192D01*
X133584461Y-87747231D01*
X133701692Y-87747231D01*
X133707072Y-87439746D01*
X133712451Y-87132261D01*
X133769601Y-87102707D01*
X133811797Y-87082413D01*
X133836770Y-87073204D01*
X133837491Y-87073154D01*
X133840929Y-87091662D01*
G36*
X134332333Y-87088528D02*
X134388590Y-87114117D01*
X134432747Y-87145124D01*
X134465101Y-87179795D01*
X134487438Y-87224520D01*
X134501546Y-87285692D01*
X134509211Y-87369701D01*
X134512220Y-87482940D01*
X134512538Y-87557509D01*
X134512538Y-87848420D01*
X134462773Y-87871095D01*
X134423576Y-87887667D01*
X134404157Y-87893769D01*
X134400442Y-87875610D01*
X134397495Y-87826648D01*
X134395691Y-87755153D01*
X134395308Y-87698385D01*
X134393661Y-87616371D01*
X134389222Y-87551309D01*
X134382740Y-87511467D01*
X134377590Y-87503000D01*
X134342977Y-87511646D01*
X134288640Y-87533823D01*
X134225722Y-87563886D01*
X134165368Y-87596192D01*
X134118721Y-87625098D01*
X134096926Y-87644961D01*
X134096839Y-87645175D01*
X134098714Y-87681935D01*
X134115525Y-87717026D01*
X134145039Y-87745528D01*
X134188116Y-87755061D01*
X134224932Y-87753950D01*
X134277074Y-87753133D01*
X134304444Y-87765349D01*
X134320882Y-87797624D01*
X134322955Y-87803710D01*
X134330081Y-87849739D01*
X134311024Y-87877687D01*
X134261353Y-87891007D01*
X134207697Y-87893470D01*
X134111142Y-87875210D01*
X134061159Y-87849131D01*
X133999429Y-87787868D01*
X133966690Y-87712670D01*
X133963753Y-87633211D01*
X133991424Y-87559167D01*
X134033047Y-87512769D01*
X134074604Y-87486793D01*
X134139922Y-87453907D01*
X134216038Y-87420557D01*
X134228726Y-87415461D01*
X134312333Y-87378565D01*
X134360530Y-87346046D01*
X134376030Y-87313718D01*
X134361550Y-87277394D01*
X134336692Y-87249000D01*
X134277939Y-87214039D01*
X134213293Y-87211417D01*
X134154008Y-87238358D01*
X134111339Y-87292088D01*
X134105739Y-87305950D01*
X134073133Y-87356936D01*
X134025530Y-87394787D01*
X133965461Y-87425850D01*
X133965461Y-87337768D01*
X133968997Y-87283951D01*
X133984156Y-87241534D01*
X134017768Y-87196279D01*
X134050035Y-87161420D01*
X134100209Y-87112062D01*
X134139193Y-87085547D01*
X134181064Y-87074911D01*
X134228460Y-87073154D01*
X134332333Y-87088528D01*
X134332333Y-87088528D01*
G37*
X134332333Y-87088528D02*
X134388590Y-87114117D01*
X134432747Y-87145124D01*
X134465101Y-87179795D01*
X134487438Y-87224520D01*
X134501546Y-87285692D01*
X134509211Y-87369701D01*
X134512220Y-87482940D01*
X134512538Y-87557509D01*
X134512538Y-87848420D01*
X134462773Y-87871095D01*
X134423576Y-87887667D01*
X134404157Y-87893769D01*
X134400442Y-87875610D01*
X134397495Y-87826648D01*
X134395691Y-87755153D01*
X134395308Y-87698385D01*
X134393661Y-87616371D01*
X134389222Y-87551309D01*
X134382740Y-87511467D01*
X134377590Y-87503000D01*
X134342977Y-87511646D01*
X134288640Y-87533823D01*
X134225722Y-87563886D01*
X134165368Y-87596192D01*
X134118721Y-87625098D01*
X134096926Y-87644961D01*
X134096839Y-87645175D01*
X134098714Y-87681935D01*
X134115525Y-87717026D01*
X134145039Y-87745528D01*
X134188116Y-87755061D01*
X134224932Y-87753950D01*
X134277074Y-87753133D01*
X134304444Y-87765349D01*
X134320882Y-87797624D01*
X134322955Y-87803710D01*
X134330081Y-87849739D01*
X134311024Y-87877687D01*
X134261353Y-87891007D01*
X134207697Y-87893470D01*
X134111142Y-87875210D01*
X134061159Y-87849131D01*
X133999429Y-87787868D01*
X133966690Y-87712670D01*
X133963753Y-87633211D01*
X133991424Y-87559167D01*
X134033047Y-87512769D01*
X134074604Y-87486793D01*
X134139922Y-87453907D01*
X134216038Y-87420557D01*
X134228726Y-87415461D01*
X134312333Y-87378565D01*
X134360530Y-87346046D01*
X134376030Y-87313718D01*
X134361550Y-87277394D01*
X134336692Y-87249000D01*
X134277939Y-87214039D01*
X134213293Y-87211417D01*
X134154008Y-87238358D01*
X134111339Y-87292088D01*
X134105739Y-87305950D01*
X134073133Y-87356936D01*
X134025530Y-87394787D01*
X133965461Y-87425850D01*
X133965461Y-87337768D01*
X133968997Y-87283951D01*
X133984156Y-87241534D01*
X134017768Y-87196279D01*
X134050035Y-87161420D01*
X134100209Y-87112062D01*
X134139193Y-87085547D01*
X134181064Y-87074911D01*
X134228460Y-87073154D01*
X134332333Y-87088528D01*
G36*
X135015807Y-87091782D02*
X135039161Y-87101988D01*
X135094902Y-87146134D01*
X135142569Y-87209967D01*
X135172048Y-87278087D01*
X135176846Y-87311670D01*
X135160760Y-87358556D01*
X135125475Y-87383365D01*
X135087644Y-87398387D01*
X135070321Y-87401155D01*
X135061886Y-87381066D01*
X135045230Y-87337351D01*
X135037923Y-87317598D01*
X134996948Y-87249271D01*
X134937622Y-87215191D01*
X134861552Y-87216239D01*
X134855918Y-87217581D01*
X134815305Y-87236836D01*
X134785448Y-87274375D01*
X134765055Y-87334809D01*
X134752836Y-87422751D01*
X134747500Y-87542813D01*
X134747000Y-87606698D01*
X134746752Y-87707403D01*
X134745126Y-87776054D01*
X134740801Y-87819673D01*
X134732454Y-87845282D01*
X134718765Y-87859903D01*
X134698411Y-87870558D01*
X134697234Y-87871095D01*
X134658038Y-87887667D01*
X134638619Y-87893769D01*
X134635635Y-87875319D01*
X134633081Y-87824323D01*
X134631140Y-87747308D01*
X134629997Y-87650805D01*
X134629769Y-87580184D01*
X134630932Y-87443525D01*
X134635479Y-87339851D01*
X134644999Y-87263108D01*
X134661081Y-87207246D01*
X134685313Y-87166212D01*
X134719286Y-87133954D01*
X134752833Y-87111440D01*
X134833499Y-87081476D01*
X134927381Y-87074718D01*
X135015807Y-87091782D01*
X135015807Y-87091782D01*
G37*
X135015807Y-87091782D02*
X135039161Y-87101988D01*
X135094902Y-87146134D01*
X135142569Y-87209967D01*
X135172048Y-87278087D01*
X135176846Y-87311670D01*
X135160760Y-87358556D01*
X135125475Y-87383365D01*
X135087644Y-87398387D01*
X135070321Y-87401155D01*
X135061886Y-87381066D01*
X135045230Y-87337351D01*
X135037923Y-87317598D01*
X134996948Y-87249271D01*
X134937622Y-87215191D01*
X134861552Y-87216239D01*
X134855918Y-87217581D01*
X134815305Y-87236836D01*
X134785448Y-87274375D01*
X134765055Y-87334809D01*
X134752836Y-87422751D01*
X134747500Y-87542813D01*
X134747000Y-87606698D01*
X134746752Y-87707403D01*
X134745126Y-87776054D01*
X134740801Y-87819673D01*
X134732454Y-87845282D01*
X134718765Y-87859903D01*
X134698411Y-87870558D01*
X134697234Y-87871095D01*
X134658038Y-87887667D01*
X134638619Y-87893769D01*
X134635635Y-87875319D01*
X134633081Y-87824323D01*
X134631140Y-87747308D01*
X134629997Y-87650805D01*
X134629769Y-87580184D01*
X134630932Y-87443525D01*
X134635479Y-87339851D01*
X134644999Y-87263108D01*
X134661081Y-87207246D01*
X134685313Y-87166212D01*
X134719286Y-87133954D01*
X134752833Y-87111440D01*
X134833499Y-87081476D01*
X134927381Y-87074718D01*
X135015807Y-87091782D01*
G36*
X135690224Y-87102838D02*
X135767528Y-87153361D01*
X135804814Y-87198590D01*
X135834353Y-87280663D01*
X135836699Y-87345607D01*
X135831385Y-87432445D01*
X135631115Y-87520103D01*
X135533739Y-87564887D01*
X135470113Y-87600913D01*
X135437029Y-87632117D01*
X135431280Y-87662436D01*
X135449658Y-87695805D01*
X135469923Y-87717923D01*
X135528889Y-87753393D01*
X135593024Y-87755879D01*
X135651926Y-87728235D01*
X135695197Y-87673320D01*
X135702936Y-87653928D01*
X135740006Y-87593364D01*
X135782654Y-87567552D01*
X135841154Y-87545471D01*
X135841154Y-87629184D01*
X135835982Y-87686150D01*
X135815723Y-87734189D01*
X135773262Y-87789346D01*
X135766951Y-87796514D01*
X135719720Y-87845585D01*
X135679121Y-87871920D01*
X135628328Y-87884035D01*
X135586220Y-87888003D01*
X135510902Y-87888991D01*
X135457286Y-87876466D01*
X135423838Y-87857869D01*
X135371268Y-87816975D01*
X135334879Y-87772748D01*
X135311850Y-87717126D01*
X135299359Y-87642047D01*
X135294587Y-87539449D01*
X135294206Y-87487376D01*
X135295501Y-87424948D01*
X135413471Y-87424948D01*
X135414839Y-87458438D01*
X135418249Y-87463923D01*
X135440753Y-87456472D01*
X135489182Y-87436753D01*
X135553908Y-87408718D01*
X135567443Y-87402692D01*
X135649244Y-87361096D01*
X135694312Y-87324538D01*
X135704217Y-87290296D01*
X135680526Y-87255648D01*
X135660960Y-87240339D01*
X135590360Y-87209721D01*
X135524280Y-87214780D01*
X135468959Y-87252151D01*
X135430636Y-87318473D01*
X135418349Y-87371116D01*
X135413471Y-87424948D01*
X135295501Y-87424948D01*
X135296730Y-87365720D01*
X135306032Y-87275710D01*
X135324460Y-87210167D01*
X135354360Y-87161912D01*
X135398080Y-87123767D01*
X135417141Y-87111440D01*
X135503726Y-87079336D01*
X135598522Y-87077316D01*
X135690224Y-87102838D01*
X135690224Y-87102838D01*
G37*
X135690224Y-87102838D02*
X135767528Y-87153361D01*
X135804814Y-87198590D01*
X135834353Y-87280663D01*
X135836699Y-87345607D01*
X135831385Y-87432445D01*
X135631115Y-87520103D01*
X135533739Y-87564887D01*
X135470113Y-87600913D01*
X135437029Y-87632117D01*
X135431280Y-87662436D01*
X135449658Y-87695805D01*
X135469923Y-87717923D01*
X135528889Y-87753393D01*
X135593024Y-87755879D01*
X135651926Y-87728235D01*
X135695197Y-87673320D01*
X135702936Y-87653928D01*
X135740006Y-87593364D01*
X135782654Y-87567552D01*
X135841154Y-87545471D01*
X135841154Y-87629184D01*
X135835982Y-87686150D01*
X135815723Y-87734189D01*
X135773262Y-87789346D01*
X135766951Y-87796514D01*
X135719720Y-87845585D01*
X135679121Y-87871920D01*
X135628328Y-87884035D01*
X135586220Y-87888003D01*
X135510902Y-87888991D01*
X135457286Y-87876466D01*
X135423838Y-87857869D01*
X135371268Y-87816975D01*
X135334879Y-87772748D01*
X135311850Y-87717126D01*
X135299359Y-87642047D01*
X135294587Y-87539449D01*
X135294206Y-87487376D01*
X135295501Y-87424948D01*
X135413471Y-87424948D01*
X135414839Y-87458438D01*
X135418249Y-87463923D01*
X135440753Y-87456472D01*
X135489182Y-87436753D01*
X135553908Y-87408718D01*
X135567443Y-87402692D01*
X135649244Y-87361096D01*
X135694312Y-87324538D01*
X135704217Y-87290296D01*
X135680526Y-87255648D01*
X135660960Y-87240339D01*
X135590360Y-87209721D01*
X135524280Y-87214780D01*
X135468959Y-87252151D01*
X135430636Y-87318473D01*
X135418349Y-87371116D01*
X135413471Y-87424948D01*
X135295501Y-87424948D01*
X135296730Y-87365720D01*
X135306032Y-87275710D01*
X135324460Y-87210167D01*
X135354360Y-87161912D01*
X135398080Y-87123767D01*
X135417141Y-87111440D01*
X135503726Y-87079336D01*
X135598522Y-87077316D01*
X135690224Y-87102838D01*
G36*
X131584878Y-80742776D02*
X131690612Y-80743355D01*
X131767132Y-80744922D01*
X131819372Y-80747972D01*
X131852263Y-80752996D01*
X131870737Y-80760489D01*
X131879727Y-80770944D01*
X131884163Y-80784853D01*
X131884594Y-80786654D01*
X131891333Y-80819145D01*
X131903808Y-80883252D01*
X131920719Y-80972151D01*
X131940771Y-81079019D01*
X131962664Y-81197033D01*
X131963429Y-81201178D01*
X131985359Y-81316831D01*
X132005877Y-81419014D01*
X132023659Y-81501598D01*
X132037381Y-81558456D01*
X132045718Y-81583458D01*
X132046116Y-81583901D01*
X132070677Y-81596110D01*
X132121315Y-81616456D01*
X132187095Y-81640545D01*
X132187461Y-81640674D01*
X132270317Y-81671818D01*
X132368000Y-81711491D01*
X132460077Y-81751381D01*
X132464434Y-81753353D01*
X132614407Y-81821420D01*
X132946498Y-81594639D01*
X133048374Y-81525504D01*
X133140657Y-81463697D01*
X133218003Y-81412733D01*
X133275064Y-81376127D01*
X133306495Y-81357394D01*
X133309479Y-81356004D01*
X133332321Y-81362190D01*
X133374982Y-81392035D01*
X133439128Y-81446947D01*
X133526421Y-81528334D01*
X133615535Y-81614922D01*
X133701441Y-81700247D01*
X133778327Y-81778108D01*
X133841564Y-81843697D01*
X133886523Y-81892205D01*
X133908576Y-81918825D01*
X133909396Y-81920195D01*
X133911834Y-81938463D01*
X133902650Y-81968295D01*
X133879574Y-82013721D01*
X133840337Y-82078770D01*
X133782670Y-82167470D01*
X133705795Y-82281657D01*
X133637570Y-82382162D01*
X133576582Y-82472303D01*
X133526356Y-82546849D01*
X133490416Y-82600565D01*
X133472287Y-82628218D01*
X133471146Y-82630095D01*
X133473359Y-82656590D01*
X133490138Y-82708086D01*
X133518142Y-82774851D01*
X133528122Y-82796172D01*
X133571672Y-82891159D01*
X133618134Y-82998937D01*
X133655877Y-83092192D01*
X133683073Y-83161406D01*
X133704675Y-83214006D01*
X133717158Y-83241497D01*
X133718709Y-83243616D01*
X133741668Y-83247124D01*
X133795786Y-83256738D01*
X133873868Y-83271089D01*
X133968719Y-83288807D01*
X134073143Y-83308525D01*
X134179944Y-83328874D01*
X134281926Y-83348486D01*
X134371894Y-83365991D01*
X134442653Y-83380022D01*
X134487006Y-83389209D01*
X134497885Y-83391807D01*
X134509122Y-83398218D01*
X134517605Y-83412697D01*
X134523714Y-83440133D01*
X134527832Y-83485411D01*
X134530341Y-83553420D01*
X134531621Y-83649047D01*
X134532054Y-83777180D01*
X134532077Y-83829701D01*
X134532077Y-84256845D01*
X134429500Y-84277091D01*
X134372431Y-84288070D01*
X134287269Y-84304095D01*
X134184372Y-84323233D01*
X134074096Y-84343551D01*
X134043615Y-84349132D01*
X133941855Y-84368917D01*
X133853205Y-84388373D01*
X133785108Y-84405697D01*
X133745004Y-84419088D01*
X133738323Y-84423079D01*
X133721919Y-84451342D01*
X133698399Y-84506109D01*
X133672316Y-84576588D01*
X133667142Y-84591769D01*
X133632956Y-84685896D01*
X133590523Y-84792101D01*
X133548997Y-84887473D01*
X133548792Y-84887916D01*
X133479640Y-85037525D01*
X133934512Y-85706617D01*
X133642500Y-85999116D01*
X133554180Y-86086170D01*
X133473625Y-86162909D01*
X133405360Y-86225237D01*
X133353908Y-86269056D01*
X133323794Y-86290270D01*
X133319474Y-86291616D01*
X133294111Y-86281016D01*
X133242358Y-86251547D01*
X133169868Y-86206705D01*
X133082294Y-86149984D01*
X132987612Y-86086462D01*
X132891516Y-86021668D01*
X132805837Y-85965287D01*
X132736016Y-85920788D01*
X132687494Y-85891639D01*
X132665782Y-85881308D01*
X132639293Y-85890050D01*
X132589062Y-85913087D01*
X132525451Y-85945631D01*
X132518708Y-85949249D01*
X132433046Y-85992210D01*
X132374306Y-86013279D01*
X132337772Y-86013503D01*
X132318731Y-85993928D01*
X132318620Y-85993654D01*
X132309102Y-85970472D01*
X132286403Y-85915441D01*
X132252282Y-85832822D01*
X132208500Y-85726872D01*
X132156816Y-85601852D01*
X132098992Y-85462020D01*
X132042991Y-85326637D01*
X131981447Y-85177234D01*
X131924939Y-85038832D01*
X131875161Y-84915673D01*
X131833806Y-84812002D01*
X131802568Y-84732059D01*
X131783141Y-84680088D01*
X131777154Y-84660692D01*
X131792168Y-84638443D01*
X131831439Y-84602982D01*
X131883807Y-84563887D01*
X132032941Y-84440245D01*
X132149511Y-84298522D01*
X132232118Y-84141704D01*
X132279366Y-83972775D01*
X132289857Y-83794722D01*
X132282231Y-83712539D01*
X132240682Y-83542031D01*
X132169123Y-83391459D01*
X132071995Y-83262309D01*
X131953734Y-83156064D01*
X131818780Y-83074210D01*
X131671571Y-83018232D01*
X131516544Y-82989615D01*
X131358139Y-82989844D01*
X131200794Y-83020405D01*
X131048946Y-83082782D01*
X130907035Y-83178460D01*
X130847803Y-83232572D01*
X130734203Y-83371520D01*
X130655106Y-83523361D01*
X130609986Y-83683667D01*
X130598316Y-83848012D01*
X130619569Y-84011971D01*
X130673220Y-84171118D01*
X130758740Y-84321025D01*
X130875605Y-84457267D01*
X131006193Y-84563887D01*
X131060588Y-84604642D01*
X131099014Y-84639718D01*
X131112846Y-84660726D01*
X131105603Y-84683635D01*
X131085005Y-84738365D01*
X131052746Y-84820672D01*
X131010521Y-84926315D01*
X130960023Y-85051050D01*
X130902948Y-85190636D01*
X130846854Y-85326670D01*
X130784967Y-85476201D01*
X130727644Y-85614767D01*
X130676644Y-85738107D01*
X130633727Y-85841964D01*
X130600653Y-85922080D01*
X130579181Y-85974195D01*
X130571225Y-85993654D01*
X130552429Y-86013423D01*
X130516074Y-86013365D01*
X130457479Y-85992441D01*
X130371968Y-85949613D01*
X130371292Y-85949249D01*
X130306907Y-85916012D01*
X130254861Y-85891802D01*
X130225512Y-85881404D01*
X130224217Y-85881308D01*
X130202124Y-85891855D01*
X130153348Y-85921184D01*
X130083331Y-85965827D01*
X129997514Y-86022314D01*
X129902388Y-86086462D01*
X129805540Y-86151411D01*
X129718253Y-86207896D01*
X129646181Y-86252421D01*
X129594977Y-86281490D01*
X129570526Y-86291616D01*
X129548010Y-86278307D01*
X129502742Y-86241112D01*
X129439244Y-86184128D01*
X129362039Y-86111449D01*
X129275651Y-86027171D01*
X129247399Y-85999016D01*
X128955287Y-85706416D01*
X129177631Y-85380104D01*
X129245202Y-85279897D01*
X129304507Y-85189963D01*
X129352217Y-85115510D01*
X129385007Y-85061751D01*
X129399548Y-85033894D01*
X129399974Y-85031912D01*
X129392308Y-85005655D01*
X129371689Y-84952837D01*
X129341685Y-84882310D01*
X129320625Y-84835093D01*
X129281248Y-84744694D01*
X129244165Y-84653366D01*
X129215415Y-84576200D01*
X129207605Y-84552692D01*
X129185417Y-84489916D01*
X129163727Y-84441411D01*
X129151813Y-84423079D01*
X129125523Y-84411859D01*
X129068142Y-84395954D01*
X128987118Y-84377167D01*
X128889895Y-84357299D01*
X128846385Y-84349132D01*
X128735896Y-84328829D01*
X128629916Y-84309170D01*
X128538801Y-84292088D01*
X128472908Y-84279518D01*
X128460500Y-84277091D01*
X128357923Y-84256845D01*
X128357923Y-83829701D01*
X128358153Y-83689246D01*
X128359099Y-83582979D01*
X128361141Y-83506013D01*
X128364662Y-83453460D01*
X128370043Y-83420433D01*
X128377666Y-83402045D01*
X128387912Y-83393408D01*
X128392115Y-83391807D01*
X128417470Y-83386127D01*
X128473484Y-83374795D01*
X128552964Y-83359179D01*
X128648712Y-83340647D01*
X128753533Y-83320569D01*
X128860232Y-83300312D01*
X128961613Y-83281246D01*
X129050479Y-83264739D01*
X129119637Y-83252159D01*
X129161889Y-83244875D01*
X129171290Y-83243616D01*
X129179807Y-83226763D01*
X129198660Y-83181870D01*
X129224324Y-83117430D01*
X129234123Y-83092192D01*
X129273648Y-82994686D01*
X129320192Y-82886959D01*
X129361877Y-82796172D01*
X129392550Y-82726753D01*
X129412956Y-82669710D01*
X129419768Y-82634777D01*
X129418682Y-82630095D01*
X129404285Y-82607991D01*
X129371412Y-82558831D01*
X129323590Y-82487848D01*
X129264348Y-82400278D01*
X129197215Y-82301357D01*
X129183941Y-82281830D01*
X129106046Y-82166140D01*
X129048787Y-82078044D01*
X129009881Y-82013486D01*
X128987044Y-81968411D01*
X128977994Y-81938763D01*
X128980448Y-81920485D01*
X128980511Y-81920369D01*
X128999827Y-81896361D01*
X129042551Y-81849947D01*
X129104051Y-81785937D01*
X129179698Y-81709145D01*
X129264861Y-81624382D01*
X129274465Y-81614922D01*
X129381790Y-81510989D01*
X129464615Y-81434675D01*
X129524605Y-81384571D01*
X129563423Y-81359270D01*
X129580520Y-81356004D01*
X129605473Y-81370250D01*
X129657255Y-81403156D01*
X129730520Y-81451208D01*
X129819920Y-81510890D01*
X129920111Y-81578688D01*
X129943501Y-81594639D01*
X130275593Y-81821420D01*
X130425565Y-81753353D01*
X130516770Y-81713685D01*
X130614669Y-81673791D01*
X130698831Y-81641983D01*
X130702538Y-81640674D01*
X130768369Y-81616576D01*
X130819116Y-81596200D01*
X130843842Y-81583936D01*
X130843884Y-81583901D01*
X130851729Y-81561734D01*
X130865066Y-81507217D01*
X130882570Y-81426480D01*
X130902917Y-81325650D01*
X130924782Y-81210856D01*
X130926571Y-81201178D01*
X130948504Y-81082904D01*
X130968640Y-80975542D01*
X130985680Y-80885917D01*
X130998328Y-80820851D01*
X131005284Y-80787168D01*
X131005406Y-80786654D01*
X131009639Y-80772325D01*
X131017871Y-80761507D01*
X131035033Y-80753706D01*
X131066058Y-80748429D01*
X131115878Y-80745182D01*
X131189424Y-80743472D01*
X131291629Y-80742807D01*
X131427425Y-80742693D01*
X131445000Y-80742692D01*
X131584878Y-80742776D01*
X131584878Y-80742776D01*
G37*
X131584878Y-80742776D02*
X131690612Y-80743355D01*
X131767132Y-80744922D01*
X131819372Y-80747972D01*
X131852263Y-80752996D01*
X131870737Y-80760489D01*
X131879727Y-80770944D01*
X131884163Y-80784853D01*
X131884594Y-80786654D01*
X131891333Y-80819145D01*
X131903808Y-80883252D01*
X131920719Y-80972151D01*
X131940771Y-81079019D01*
X131962664Y-81197033D01*
X131963429Y-81201178D01*
X131985359Y-81316831D01*
X132005877Y-81419014D01*
X132023659Y-81501598D01*
X132037381Y-81558456D01*
X132045718Y-81583458D01*
X132046116Y-81583901D01*
X132070677Y-81596110D01*
X132121315Y-81616456D01*
X132187095Y-81640545D01*
X132187461Y-81640674D01*
X132270317Y-81671818D01*
X132368000Y-81711491D01*
X132460077Y-81751381D01*
X132464434Y-81753353D01*
X132614407Y-81821420D01*
X132946498Y-81594639D01*
X133048374Y-81525504D01*
X133140657Y-81463697D01*
X133218003Y-81412733D01*
X133275064Y-81376127D01*
X133306495Y-81357394D01*
X133309479Y-81356004D01*
X133332321Y-81362190D01*
X133374982Y-81392035D01*
X133439128Y-81446947D01*
X133526421Y-81528334D01*
X133615535Y-81614922D01*
X133701441Y-81700247D01*
X133778327Y-81778108D01*
X133841564Y-81843697D01*
X133886523Y-81892205D01*
X133908576Y-81918825D01*
X133909396Y-81920195D01*
X133911834Y-81938463D01*
X133902650Y-81968295D01*
X133879574Y-82013721D01*
X133840337Y-82078770D01*
X133782670Y-82167470D01*
X133705795Y-82281657D01*
X133637570Y-82382162D01*
X133576582Y-82472303D01*
X133526356Y-82546849D01*
X133490416Y-82600565D01*
X133472287Y-82628218D01*
X133471146Y-82630095D01*
X133473359Y-82656590D01*
X133490138Y-82708086D01*
X133518142Y-82774851D01*
X133528122Y-82796172D01*
X133571672Y-82891159D01*
X133618134Y-82998937D01*
X133655877Y-83092192D01*
X133683073Y-83161406D01*
X133704675Y-83214006D01*
X133717158Y-83241497D01*
X133718709Y-83243616D01*
X133741668Y-83247124D01*
X133795786Y-83256738D01*
X133873868Y-83271089D01*
X133968719Y-83288807D01*
X134073143Y-83308525D01*
X134179944Y-83328874D01*
X134281926Y-83348486D01*
X134371894Y-83365991D01*
X134442653Y-83380022D01*
X134487006Y-83389209D01*
X134497885Y-83391807D01*
X134509122Y-83398218D01*
X134517605Y-83412697D01*
X134523714Y-83440133D01*
X134527832Y-83485411D01*
X134530341Y-83553420D01*
X134531621Y-83649047D01*
X134532054Y-83777180D01*
X134532077Y-83829701D01*
X134532077Y-84256845D01*
X134429500Y-84277091D01*
X134372431Y-84288070D01*
X134287269Y-84304095D01*
X134184372Y-84323233D01*
X134074096Y-84343551D01*
X134043615Y-84349132D01*
X133941855Y-84368917D01*
X133853205Y-84388373D01*
X133785108Y-84405697D01*
X133745004Y-84419088D01*
X133738323Y-84423079D01*
X133721919Y-84451342D01*
X133698399Y-84506109D01*
X133672316Y-84576588D01*
X133667142Y-84591769D01*
X133632956Y-84685896D01*
X133590523Y-84792101D01*
X133548997Y-84887473D01*
X133548792Y-84887916D01*
X133479640Y-85037525D01*
X133934512Y-85706617D01*
X133642500Y-85999116D01*
X133554180Y-86086170D01*
X133473625Y-86162909D01*
X133405360Y-86225237D01*
X133353908Y-86269056D01*
X133323794Y-86290270D01*
X133319474Y-86291616D01*
X133294111Y-86281016D01*
X133242358Y-86251547D01*
X133169868Y-86206705D01*
X133082294Y-86149984D01*
X132987612Y-86086462D01*
X132891516Y-86021668D01*
X132805837Y-85965287D01*
X132736016Y-85920788D01*
X132687494Y-85891639D01*
X132665782Y-85881308D01*
X132639293Y-85890050D01*
X132589062Y-85913087D01*
X132525451Y-85945631D01*
X132518708Y-85949249D01*
X132433046Y-85992210D01*
X132374306Y-86013279D01*
X132337772Y-86013503D01*
X132318731Y-85993928D01*
X132318620Y-85993654D01*
X132309102Y-85970472D01*
X132286403Y-85915441D01*
X132252282Y-85832822D01*
X132208500Y-85726872D01*
X132156816Y-85601852D01*
X132098992Y-85462020D01*
X132042991Y-85326637D01*
X131981447Y-85177234D01*
X131924939Y-85038832D01*
X131875161Y-84915673D01*
X131833806Y-84812002D01*
X131802568Y-84732059D01*
X131783141Y-84680088D01*
X131777154Y-84660692D01*
X131792168Y-84638443D01*
X131831439Y-84602982D01*
X131883807Y-84563887D01*
X132032941Y-84440245D01*
X132149511Y-84298522D01*
X132232118Y-84141704D01*
X132279366Y-83972775D01*
X132289857Y-83794722D01*
X132282231Y-83712539D01*
X132240682Y-83542031D01*
X132169123Y-83391459D01*
X132071995Y-83262309D01*
X131953734Y-83156064D01*
X131818780Y-83074210D01*
X131671571Y-83018232D01*
X131516544Y-82989615D01*
X131358139Y-82989844D01*
X131200794Y-83020405D01*
X131048946Y-83082782D01*
X130907035Y-83178460D01*
X130847803Y-83232572D01*
X130734203Y-83371520D01*
X130655106Y-83523361D01*
X130609986Y-83683667D01*
X130598316Y-83848012D01*
X130619569Y-84011971D01*
X130673220Y-84171118D01*
X130758740Y-84321025D01*
X130875605Y-84457267D01*
X131006193Y-84563887D01*
X131060588Y-84604642D01*
X131099014Y-84639718D01*
X131112846Y-84660726D01*
X131105603Y-84683635D01*
X131085005Y-84738365D01*
X131052746Y-84820672D01*
X131010521Y-84926315D01*
X130960023Y-85051050D01*
X130902948Y-85190636D01*
X130846854Y-85326670D01*
X130784967Y-85476201D01*
X130727644Y-85614767D01*
X130676644Y-85738107D01*
X130633727Y-85841964D01*
X130600653Y-85922080D01*
X130579181Y-85974195D01*
X130571225Y-85993654D01*
X130552429Y-86013423D01*
X130516074Y-86013365D01*
X130457479Y-85992441D01*
X130371968Y-85949613D01*
X130371292Y-85949249D01*
X130306907Y-85916012D01*
X130254861Y-85891802D01*
X130225512Y-85881404D01*
X130224217Y-85881308D01*
X130202124Y-85891855D01*
X130153348Y-85921184D01*
X130083331Y-85965827D01*
X129997514Y-86022314D01*
X129902388Y-86086462D01*
X129805540Y-86151411D01*
X129718253Y-86207896D01*
X129646181Y-86252421D01*
X129594977Y-86281490D01*
X129570526Y-86291616D01*
X129548010Y-86278307D01*
X129502742Y-86241112D01*
X129439244Y-86184128D01*
X129362039Y-86111449D01*
X129275651Y-86027171D01*
X129247399Y-85999016D01*
X128955287Y-85706416D01*
X129177631Y-85380104D01*
X129245202Y-85279897D01*
X129304507Y-85189963D01*
X129352217Y-85115510D01*
X129385007Y-85061751D01*
X129399548Y-85033894D01*
X129399974Y-85031912D01*
X129392308Y-85005655D01*
X129371689Y-84952837D01*
X129341685Y-84882310D01*
X129320625Y-84835093D01*
X129281248Y-84744694D01*
X129244165Y-84653366D01*
X129215415Y-84576200D01*
X129207605Y-84552692D01*
X129185417Y-84489916D01*
X129163727Y-84441411D01*
X129151813Y-84423079D01*
X129125523Y-84411859D01*
X129068142Y-84395954D01*
X128987118Y-84377167D01*
X128889895Y-84357299D01*
X128846385Y-84349132D01*
X128735896Y-84328829D01*
X128629916Y-84309170D01*
X128538801Y-84292088D01*
X128472908Y-84279518D01*
X128460500Y-84277091D01*
X128357923Y-84256845D01*
X128357923Y-83829701D01*
X128358153Y-83689246D01*
X128359099Y-83582979D01*
X128361141Y-83506013D01*
X128364662Y-83453460D01*
X128370043Y-83420433D01*
X128377666Y-83402045D01*
X128387912Y-83393408D01*
X128392115Y-83391807D01*
X128417470Y-83386127D01*
X128473484Y-83374795D01*
X128552964Y-83359179D01*
X128648712Y-83340647D01*
X128753533Y-83320569D01*
X128860232Y-83300312D01*
X128961613Y-83281246D01*
X129050479Y-83264739D01*
X129119637Y-83252159D01*
X129161889Y-83244875D01*
X129171290Y-83243616D01*
X129179807Y-83226763D01*
X129198660Y-83181870D01*
X129224324Y-83117430D01*
X129234123Y-83092192D01*
X129273648Y-82994686D01*
X129320192Y-82886959D01*
X129361877Y-82796172D01*
X129392550Y-82726753D01*
X129412956Y-82669710D01*
X129419768Y-82634777D01*
X129418682Y-82630095D01*
X129404285Y-82607991D01*
X129371412Y-82558831D01*
X129323590Y-82487848D01*
X129264348Y-82400278D01*
X129197215Y-82301357D01*
X129183941Y-82281830D01*
X129106046Y-82166140D01*
X129048787Y-82078044D01*
X129009881Y-82013486D01*
X128987044Y-81968411D01*
X128977994Y-81938763D01*
X128980448Y-81920485D01*
X128980511Y-81920369D01*
X128999827Y-81896361D01*
X129042551Y-81849947D01*
X129104051Y-81785937D01*
X129179698Y-81709145D01*
X129264861Y-81624382D01*
X129274465Y-81614922D01*
X129381790Y-81510989D01*
X129464615Y-81434675D01*
X129524605Y-81384571D01*
X129563423Y-81359270D01*
X129580520Y-81356004D01*
X129605473Y-81370250D01*
X129657255Y-81403156D01*
X129730520Y-81451208D01*
X129819920Y-81510890D01*
X129920111Y-81578688D01*
X129943501Y-81594639D01*
X130275593Y-81821420D01*
X130425565Y-81753353D01*
X130516770Y-81713685D01*
X130614669Y-81673791D01*
X130698831Y-81641983D01*
X130702538Y-81640674D01*
X130768369Y-81616576D01*
X130819116Y-81596200D01*
X130843842Y-81583936D01*
X130843884Y-81583901D01*
X130851729Y-81561734D01*
X130865066Y-81507217D01*
X130882570Y-81426480D01*
X130902917Y-81325650D01*
X130924782Y-81210856D01*
X130926571Y-81201178D01*
X130948504Y-81082904D01*
X130968640Y-80975542D01*
X130985680Y-80885917D01*
X130998328Y-80820851D01*
X131005284Y-80787168D01*
X131005406Y-80786654D01*
X131009639Y-80772325D01*
X131017871Y-80761507D01*
X131035033Y-80753706D01*
X131066058Y-80748429D01*
X131115878Y-80745182D01*
X131189424Y-80743472D01*
X131291629Y-80742807D01*
X131427425Y-80742693D01*
X131445000Y-80742692D01*
X131584878Y-80742776D01*
D15*
X142771905Y-70302381D02*
X142771905Y-69302381D01*
X143010000Y-69302381D01*
X143152858Y-69350000D01*
X143248096Y-69445238D01*
X143295715Y-69540476D01*
X143343334Y-69730952D01*
X143343334Y-69873810D01*
X143295715Y-70064286D01*
X143248096Y-70159524D01*
X143152858Y-70254762D01*
X143010000Y-70302381D01*
X142771905Y-70302381D01*
X144295715Y-70302381D02*
X143724286Y-70302381D01*
X144010000Y-70302381D02*
X144010000Y-69302381D01*
X143914762Y-69445238D01*
X143819524Y-69540476D01*
X143724286Y-69588095D01*
X137096667Y-72207381D02*
X137096667Y-71207381D01*
X137477620Y-71207381D01*
X137572858Y-71255000D01*
X137620477Y-71302619D01*
X137668096Y-71397857D01*
X137668096Y-71540714D01*
X137620477Y-71635952D01*
X137572858Y-71683571D01*
X137477620Y-71731190D01*
X137096667Y-71731190D01*
X138001429Y-71207381D02*
X138239524Y-72207381D01*
X138430001Y-71493095D01*
X138620477Y-72207381D01*
X138858572Y-71207381D01*
X139810953Y-72207381D02*
X139477619Y-71731190D01*
X139239524Y-72207381D02*
X139239524Y-71207381D01*
X139620477Y-71207381D01*
X139715715Y-71255000D01*
X139763334Y-71302619D01*
X139810953Y-71397857D01*
X139810953Y-71540714D01*
X139763334Y-71635952D01*
X139715715Y-71683571D01*
X139620477Y-71731190D01*
X139239524Y-71731190D01*
X143343334Y-66547381D02*
X143010000Y-66071190D01*
X142771905Y-66547381D02*
X142771905Y-65547381D01*
X143152858Y-65547381D01*
X143248096Y-65595000D01*
X143295715Y-65642619D01*
X143343334Y-65737857D01*
X143343334Y-65880714D01*
X143295715Y-65975952D01*
X143248096Y-66023571D01*
X143152858Y-66071190D01*
X142771905Y-66071190D01*
X143819524Y-66547381D02*
X144010000Y-66547381D01*
X144105239Y-66499762D01*
X144152858Y-66452143D01*
X144248096Y-66309286D01*
X144295715Y-66118810D01*
X144295715Y-65737857D01*
X144248096Y-65642619D01*
X144200477Y-65595000D01*
X144105239Y-65547381D01*
X143914762Y-65547381D01*
X143819524Y-65595000D01*
X143771905Y-65642619D01*
X143724286Y-65737857D01*
X143724286Y-65975952D01*
X143771905Y-66071190D01*
X143819524Y-66118810D01*
X143914762Y-66166429D01*
X144105239Y-66166429D01*
X144200477Y-66118810D01*
X144248096Y-66071190D01*
X144295715Y-65975952D01*
X136977619Y-67397381D02*
X137596667Y-67397381D01*
X137263333Y-67778333D01*
X137406191Y-67778333D01*
X137501429Y-67825952D01*
X137549048Y-67873571D01*
X137596667Y-67968810D01*
X137596667Y-68206905D01*
X137549048Y-68302143D01*
X137501429Y-68349762D01*
X137406191Y-68397381D01*
X137120476Y-68397381D01*
X137025238Y-68349762D01*
X136977619Y-68302143D01*
X138025238Y-68302143D02*
X138072857Y-68349762D01*
X138025238Y-68397381D01*
X137977619Y-68349762D01*
X138025238Y-68302143D01*
X138025238Y-68397381D01*
X138406190Y-67397381D02*
X139025238Y-67397381D01*
X138691904Y-67778333D01*
X138834762Y-67778333D01*
X138930000Y-67825952D01*
X138977619Y-67873571D01*
X139025238Y-67968810D01*
X139025238Y-68206905D01*
X138977619Y-68302143D01*
X138930000Y-68349762D01*
X138834762Y-68397381D01*
X138549047Y-68397381D01*
X138453809Y-68349762D01*
X138406190Y-68302143D01*
X139453809Y-68397381D02*
X139453809Y-67397381D01*
X139549047Y-68016429D02*
X139834762Y-68397381D01*
X139834762Y-67730714D02*
X139453809Y-68111667D01*
X114387381Y-82883333D02*
X115101667Y-82883333D01*
X115244524Y-82930953D01*
X115339762Y-83026191D01*
X115387381Y-83169048D01*
X115387381Y-83264286D01*
X115387381Y-81883333D02*
X115387381Y-82454762D01*
X115387381Y-82169048D02*
X114387381Y-82169048D01*
X114530238Y-82264286D01*
X114625476Y-82359524D01*
X114673095Y-82454762D01*
X115387381Y-77319047D02*
X115387381Y-77795238D01*
X114387381Y-77795238D01*
X114863571Y-76985714D02*
X114863571Y-76652380D01*
X115387381Y-76509523D02*
X115387381Y-76985714D01*
X114387381Y-76985714D01*
X114387381Y-76509523D01*
X114435000Y-75557142D02*
X114387381Y-75652380D01*
X114387381Y-75795237D01*
X114435000Y-75938095D01*
X114530238Y-76033333D01*
X114625476Y-76080952D01*
X114815952Y-76128571D01*
X114958810Y-76128571D01*
X115149286Y-76080952D01*
X115244524Y-76033333D01*
X115339762Y-75938095D01*
X115387381Y-75795237D01*
X115387381Y-75699999D01*
X115339762Y-75557142D01*
X115292143Y-75509523D01*
X114958810Y-75509523D01*
X114958810Y-75699999D01*
X115387381Y-74557142D02*
X115387381Y-75128571D01*
X115387381Y-74842857D02*
X114387381Y-74842857D01*
X114530238Y-74938095D01*
X114625476Y-75033333D01*
X114673095Y-75128571D01*
X124761667Y-64857381D02*
X124761667Y-65571667D01*
X124714047Y-65714524D01*
X124618809Y-65809762D01*
X124475952Y-65857381D01*
X124380714Y-65857381D01*
X125190238Y-64952619D02*
X125237857Y-64905000D01*
X125333095Y-64857381D01*
X125571191Y-64857381D01*
X125666429Y-64905000D01*
X125714048Y-64952619D01*
X125761667Y-65047857D01*
X125761667Y-65143095D01*
X125714048Y-65285952D01*
X125142619Y-65857381D01*
X125761667Y-65857381D01*
X130325953Y-65857381D02*
X129849762Y-65857381D01*
X129849762Y-64857381D01*
X130659286Y-65333571D02*
X130992620Y-65333571D01*
X131135477Y-65857381D02*
X130659286Y-65857381D01*
X130659286Y-64857381D01*
X131135477Y-64857381D01*
X132087858Y-64905000D02*
X131992620Y-64857381D01*
X131849763Y-64857381D01*
X131706905Y-64905000D01*
X131611667Y-65000238D01*
X131564048Y-65095476D01*
X131516429Y-65285952D01*
X131516429Y-65428810D01*
X131564048Y-65619286D01*
X131611667Y-65714524D01*
X131706905Y-65809762D01*
X131849763Y-65857381D01*
X131945001Y-65857381D01*
X132087858Y-65809762D01*
X132135477Y-65762143D01*
X132135477Y-65428810D01*
X131945001Y-65428810D01*
X132516429Y-64952619D02*
X132564048Y-64905000D01*
X132659286Y-64857381D01*
X132897382Y-64857381D01*
X132992620Y-64905000D01*
X133040239Y-64952619D01*
X133087858Y-65047857D01*
X133087858Y-65143095D01*
X133040239Y-65285952D01*
X132468810Y-65857381D01*
X133087858Y-65857381D01*
X143176667Y-84542381D02*
X143176667Y-85256667D01*
X143129047Y-85399524D01*
X143033809Y-85494762D01*
X142890952Y-85542381D01*
X142795714Y-85542381D01*
X143557619Y-84542381D02*
X144176667Y-84542381D01*
X143843333Y-84923333D01*
X143986191Y-84923333D01*
X144081429Y-84970952D01*
X144129048Y-85018571D01*
X144176667Y-85113810D01*
X144176667Y-85351905D01*
X144129048Y-85447143D01*
X144081429Y-85494762D01*
X143986191Y-85542381D01*
X143700476Y-85542381D01*
X143605238Y-85494762D01*
X143557619Y-85447143D01*
X143660953Y-74112381D02*
X143184762Y-74112381D01*
X143184762Y-73112381D01*
X143994286Y-73588571D02*
X144327620Y-73588571D01*
X144470477Y-74112381D02*
X143994286Y-74112381D01*
X143994286Y-73112381D01*
X144470477Y-73112381D01*
X145422858Y-73160000D02*
X145327620Y-73112381D01*
X145184763Y-73112381D01*
X145041905Y-73160000D01*
X144946667Y-73255238D01*
X144899048Y-73350476D01*
X144851429Y-73540952D01*
X144851429Y-73683810D01*
X144899048Y-73874286D01*
X144946667Y-73969524D01*
X145041905Y-74064762D01*
X145184763Y-74112381D01*
X145280001Y-74112381D01*
X145422858Y-74064762D01*
X145470477Y-74017143D01*
X145470477Y-73683810D01*
X145280001Y-73683810D01*
X145803810Y-73112381D02*
X146422858Y-73112381D01*
X146089524Y-73493333D01*
X146232382Y-73493333D01*
X146327620Y-73540952D01*
X146375239Y-73588571D01*
X146422858Y-73683810D01*
X146422858Y-73921905D01*
X146375239Y-74017143D01*
X146327620Y-74064762D01*
X146232382Y-74112381D01*
X145946667Y-74112381D01*
X145851429Y-74064762D01*
X145803810Y-74017143D01*
X131111667Y-92797381D02*
X131111667Y-93511667D01*
X131064047Y-93654524D01*
X130968809Y-93749762D01*
X130825952Y-93797381D01*
X130730714Y-93797381D01*
X132016429Y-93130714D02*
X132016429Y-93797381D01*
X131778333Y-92749762D02*
X131540238Y-93464048D01*
X132159286Y-93464048D01*
X122705953Y-93797381D02*
X122229762Y-93797381D01*
X122229762Y-92797381D01*
X123039286Y-93273571D02*
X123372620Y-93273571D01*
X123515477Y-93797381D02*
X123039286Y-93797381D01*
X123039286Y-92797381D01*
X123515477Y-92797381D01*
X124467858Y-92845000D02*
X124372620Y-92797381D01*
X124229763Y-92797381D01*
X124086905Y-92845000D01*
X123991667Y-92940238D01*
X123944048Y-93035476D01*
X123896429Y-93225952D01*
X123896429Y-93368810D01*
X123944048Y-93559286D01*
X123991667Y-93654524D01*
X124086905Y-93749762D01*
X124229763Y-93797381D01*
X124325001Y-93797381D01*
X124467858Y-93749762D01*
X124515477Y-93702143D01*
X124515477Y-93368810D01*
X124325001Y-93368810D01*
X125372620Y-93130714D02*
X125372620Y-93797381D01*
X125134524Y-92749762D02*
X124896429Y-93464048D01*
X125515477Y-93464048D01*
X112883334Y-74032143D02*
X112835715Y-74079762D01*
X112692858Y-74127381D01*
X112597620Y-74127381D01*
X112454762Y-74079762D01*
X112359524Y-73984524D01*
X112311905Y-73889286D01*
X112264286Y-73698810D01*
X112264286Y-73555952D01*
X112311905Y-73365476D01*
X112359524Y-73270238D01*
X112454762Y-73175000D01*
X112597620Y-73127381D01*
X112692858Y-73127381D01*
X112835715Y-73175000D01*
X112883334Y-73222619D01*
X113216667Y-73127381D02*
X113835715Y-73127381D01*
X113502381Y-73508333D01*
X113645239Y-73508333D01*
X113740477Y-73555952D01*
X113788096Y-73603571D01*
X113835715Y-73698810D01*
X113835715Y-73936905D01*
X113788096Y-74032143D01*
X113740477Y-74079762D01*
X113645239Y-74127381D01*
X113359524Y-74127381D01*
X113264286Y-74079762D01*
X113216667Y-74032143D01*
X135088334Y-67667143D02*
X135040715Y-67714762D01*
X134897858Y-67762381D01*
X134802620Y-67762381D01*
X134659762Y-67714762D01*
X134564524Y-67619524D01*
X134516905Y-67524286D01*
X134469286Y-67333810D01*
X134469286Y-67190952D01*
X134516905Y-67000476D01*
X134564524Y-66905238D01*
X134659762Y-66810000D01*
X134802620Y-66762381D01*
X134897858Y-66762381D01*
X135040715Y-66810000D01*
X135088334Y-66857619D01*
X135945477Y-67095714D02*
X135945477Y-67762381D01*
X135707381Y-66714762D02*
X135469286Y-67429048D01*
X136088334Y-67429048D01*
X141342143Y-95396666D02*
X141389762Y-95444285D01*
X141437381Y-95587142D01*
X141437381Y-95682380D01*
X141389762Y-95825238D01*
X141294524Y-95920476D01*
X141199286Y-95968095D01*
X141008810Y-96015714D01*
X140865952Y-96015714D01*
X140675476Y-95968095D01*
X140580238Y-95920476D01*
X140485000Y-95825238D01*
X140437381Y-95682380D01*
X140437381Y-95587142D01*
X140485000Y-95444285D01*
X140532619Y-95396666D01*
X140437381Y-94491904D02*
X140437381Y-94968095D01*
X140913571Y-95015714D01*
X140865952Y-94968095D01*
X140818333Y-94872857D01*
X140818333Y-94634761D01*
X140865952Y-94539523D01*
X140913571Y-94491904D01*
X141008810Y-94444285D01*
X141246905Y-94444285D01*
X141342143Y-94491904D01*
X141389762Y-94539523D01*
X141437381Y-94634761D01*
X141437381Y-94872857D01*
X141389762Y-94968095D01*
X141342143Y-95015714D01*
X138898334Y-86717143D02*
X138850715Y-86764762D01*
X138707858Y-86812381D01*
X138612620Y-86812381D01*
X138469762Y-86764762D01*
X138374524Y-86669524D01*
X138326905Y-86574286D01*
X138279286Y-86383810D01*
X138279286Y-86240952D01*
X138326905Y-86050476D01*
X138374524Y-85955238D01*
X138469762Y-85860000D01*
X138612620Y-85812381D01*
X138707858Y-85812381D01*
X138850715Y-85860000D01*
X138898334Y-85907619D01*
X139755477Y-85812381D02*
X139565000Y-85812381D01*
X139469762Y-85860000D01*
X139422143Y-85907619D01*
X139326905Y-86050476D01*
X139279286Y-86240952D01*
X139279286Y-86621905D01*
X139326905Y-86717143D01*
X139374524Y-86764762D01*
X139469762Y-86812381D01*
X139660239Y-86812381D01*
X139755477Y-86764762D01*
X139803096Y-86717143D01*
X139850715Y-86621905D01*
X139850715Y-86383810D01*
X139803096Y-86288571D01*
X139755477Y-86240952D01*
X139660239Y-86193333D01*
X139469762Y-86193333D01*
X139374524Y-86240952D01*
X139326905Y-86288571D01*
X139279286Y-86383810D01*
X135977381Y-83518333D02*
X136691667Y-83518333D01*
X136834524Y-83565953D01*
X136929762Y-83661191D01*
X136977381Y-83804048D01*
X136977381Y-83899286D01*
X135977381Y-83137381D02*
X135977381Y-82470714D01*
X136977381Y-82899286D01*
X136453571Y-79811429D02*
X136453571Y-79478095D01*
X136977381Y-79335238D02*
X136977381Y-79811429D01*
X135977381Y-79811429D01*
X135977381Y-79335238D01*
X135977381Y-79001905D02*
X136977381Y-78335238D01*
X135977381Y-78335238D02*
X136977381Y-79001905D01*
X135977381Y-78097143D02*
X135977381Y-77525714D01*
X136977381Y-77811429D02*
X135977381Y-77811429D01*
X122432381Y-62563333D02*
X123146667Y-62563333D01*
X123289524Y-62610953D01*
X123384762Y-62706191D01*
X123432381Y-62849048D01*
X123432381Y-62944286D01*
X122432381Y-61610952D02*
X122432381Y-62087143D01*
X122908571Y-62134762D01*
X122860952Y-62087143D01*
X122813333Y-61991905D01*
X122813333Y-61753809D01*
X122860952Y-61658571D01*
X122908571Y-61610952D01*
X123003810Y-61563333D01*
X123241905Y-61563333D01*
X123337143Y-61610952D01*
X123384762Y-61658571D01*
X123432381Y-61753809D01*
X123432381Y-61991905D01*
X123384762Y-62087143D01*
X123337143Y-62134762D01*
X116022381Y-65198334D02*
X115022381Y-65198334D01*
X115022381Y-64960239D01*
X115070000Y-64817381D01*
X115165238Y-64722143D01*
X115260476Y-64674524D01*
X115450952Y-64626905D01*
X115593810Y-64626905D01*
X115784286Y-64674524D01*
X115879524Y-64722143D01*
X115974762Y-64817381D01*
X116022381Y-64960239D01*
X116022381Y-65198334D01*
X116022381Y-63769762D02*
X115498571Y-63769762D01*
X115403333Y-63817381D01*
X115355714Y-63912619D01*
X115355714Y-64103096D01*
X115403333Y-64198334D01*
X115974762Y-63769762D02*
X116022381Y-63865000D01*
X116022381Y-64103096D01*
X115974762Y-64198334D01*
X115879524Y-64245953D01*
X115784286Y-64245953D01*
X115689048Y-64198334D01*
X115641429Y-64103096D01*
X115641429Y-63865000D01*
X115593810Y-63769762D01*
X115355714Y-63436429D02*
X115355714Y-63055477D01*
X115022381Y-63293572D02*
X115879524Y-63293572D01*
X115974762Y-63245953D01*
X116022381Y-63150715D01*
X116022381Y-63055477D01*
X116022381Y-62293571D02*
X115498571Y-62293571D01*
X115403333Y-62341190D01*
X115355714Y-62436428D01*
X115355714Y-62626905D01*
X115403333Y-62722143D01*
X115974762Y-62293571D02*
X116022381Y-62388809D01*
X116022381Y-62626905D01*
X115974762Y-62722143D01*
X115879524Y-62769762D01*
X115784286Y-62769762D01*
X115689048Y-62722143D01*
X115641429Y-62626905D01*
X115641429Y-62388809D01*
X115593810Y-62293571D01*
X116022381Y-61055476D02*
X115022381Y-61055476D01*
X115022381Y-60674523D01*
X115070000Y-60579285D01*
X115117619Y-60531666D01*
X115212857Y-60484047D01*
X115355714Y-60484047D01*
X115450952Y-60531666D01*
X115498571Y-60579285D01*
X115546190Y-60674523D01*
X115546190Y-61055476D01*
X116292381Y-85423333D02*
X117006667Y-85423333D01*
X117149524Y-85470953D01*
X117244762Y-85566191D01*
X117292381Y-85709048D01*
X117292381Y-85804286D01*
X116720952Y-84804286D02*
X116673333Y-84899524D01*
X116625714Y-84947143D01*
X116530476Y-84994762D01*
X116482857Y-84994762D01*
X116387619Y-84947143D01*
X116340000Y-84899524D01*
X116292381Y-84804286D01*
X116292381Y-84613809D01*
X116340000Y-84518571D01*
X116387619Y-84470952D01*
X116482857Y-84423333D01*
X116530476Y-84423333D01*
X116625714Y-84470952D01*
X116673333Y-84518571D01*
X116720952Y-84613809D01*
X116720952Y-84804286D01*
X116768571Y-84899524D01*
X116816190Y-84947143D01*
X116911429Y-84994762D01*
X117101905Y-84994762D01*
X117197143Y-84947143D01*
X117244762Y-84899524D01*
X117292381Y-84804286D01*
X117292381Y-84613809D01*
X117244762Y-84518571D01*
X117197143Y-84470952D01*
X117101905Y-84423333D01*
X116911429Y-84423333D01*
X116816190Y-84470952D01*
X116768571Y-84518571D01*
X116720952Y-84613809D01*
X114308095Y-93432381D02*
X114308095Y-94241905D01*
X114355714Y-94337143D01*
X114403333Y-94384762D01*
X114498571Y-94432381D01*
X114689048Y-94432381D01*
X114784286Y-94384762D01*
X114831905Y-94337143D01*
X114879524Y-94241905D01*
X114879524Y-93432381D01*
X115308095Y-94384762D02*
X115450952Y-94432381D01*
X115689048Y-94432381D01*
X115784286Y-94384762D01*
X115831905Y-94337143D01*
X115879524Y-94241905D01*
X115879524Y-94146667D01*
X115831905Y-94051429D01*
X115784286Y-94003810D01*
X115689048Y-93956190D01*
X115498571Y-93908571D01*
X115403333Y-93860952D01*
X115355714Y-93813333D01*
X115308095Y-93718095D01*
X115308095Y-93622857D01*
X115355714Y-93527619D01*
X115403333Y-93480000D01*
X115498571Y-93432381D01*
X115736667Y-93432381D01*
X115879524Y-93480000D01*
X116641429Y-93908571D02*
X116784286Y-93956190D01*
X116831905Y-94003810D01*
X116879524Y-94099048D01*
X116879524Y-94241905D01*
X116831905Y-94337143D01*
X116784286Y-94384762D01*
X116689048Y-94432381D01*
X116308095Y-94432381D01*
X116308095Y-93432381D01*
X116641429Y-93432381D01*
X116736667Y-93480000D01*
X116784286Y-93527619D01*
X116831905Y-93622857D01*
X116831905Y-93718095D01*
X116784286Y-93813333D01*
X116736667Y-93860952D01*
X116641429Y-93908571D01*
X116308095Y-93908571D01*
X129476667Y-79827381D02*
X129476667Y-78827381D01*
X129857620Y-78827381D01*
X129952858Y-78875000D01*
X130000477Y-78922619D01*
X130048096Y-79017857D01*
X130048096Y-79160714D01*
X130000477Y-79255952D01*
X129952858Y-79303571D01*
X129857620Y-79351190D01*
X129476667Y-79351190D01*
X130381429Y-78827381D02*
X130619524Y-79827381D01*
X130810001Y-79113095D01*
X131000477Y-79827381D01*
X131238572Y-78827381D01*
X132190953Y-79827381D02*
X131857619Y-79351190D01*
X131619524Y-79827381D02*
X131619524Y-78827381D01*
X132000477Y-78827381D01*
X132095715Y-78875000D01*
X132143334Y-78922619D01*
X132190953Y-79017857D01*
X132190953Y-79160714D01*
X132143334Y-79255952D01*
X132095715Y-79303571D01*
X132000477Y-79351190D01*
X131619524Y-79351190D01*
X122491667Y-79827381D02*
X122491667Y-78827381D01*
X122872620Y-78827381D01*
X122967858Y-78875000D01*
X123015477Y-78922619D01*
X123063096Y-79017857D01*
X123063096Y-79160714D01*
X123015477Y-79255952D01*
X122967858Y-79303571D01*
X122872620Y-79351190D01*
X122491667Y-79351190D01*
X123396429Y-78827381D02*
X123634524Y-79827381D01*
X123825001Y-79113095D01*
X124015477Y-79827381D01*
X124253572Y-78827381D01*
X125205953Y-79827381D02*
X124872619Y-79351190D01*
X124634524Y-79827381D02*
X124634524Y-78827381D01*
X125015477Y-78827381D01*
X125110715Y-78875000D01*
X125158334Y-78922619D01*
X125205953Y-79017857D01*
X125205953Y-79160714D01*
X125158334Y-79255952D01*
X125110715Y-79303571D01*
X125015477Y-79351190D01*
X124634524Y-79351190D01*
X117411667Y-79827381D02*
X117411667Y-78827381D01*
X117792620Y-78827381D01*
X117887858Y-78875000D01*
X117935477Y-78922619D01*
X117983096Y-79017857D01*
X117983096Y-79160714D01*
X117935477Y-79255952D01*
X117887858Y-79303571D01*
X117792620Y-79351190D01*
X117411667Y-79351190D01*
X118316429Y-78827381D02*
X118554524Y-79827381D01*
X118745001Y-79113095D01*
X118935477Y-79827381D01*
X119173572Y-78827381D01*
X120125953Y-79827381D02*
X119792619Y-79351190D01*
X119554524Y-79827381D02*
X119554524Y-78827381D01*
X119935477Y-78827381D01*
X120030715Y-78875000D01*
X120078334Y-78922619D01*
X120125953Y-79017857D01*
X120125953Y-79160714D01*
X120078334Y-79255952D01*
X120030715Y-79303571D01*
X119935477Y-79351190D01*
X119554524Y-79351190D01*
X117983096Y-73795000D02*
X117887858Y-73747381D01*
X117745001Y-73747381D01*
X117602143Y-73795000D01*
X117506905Y-73890238D01*
X117459286Y-73985476D01*
X117411667Y-74175952D01*
X117411667Y-74318810D01*
X117459286Y-74509286D01*
X117506905Y-74604524D01*
X117602143Y-74699762D01*
X117745001Y-74747381D01*
X117840239Y-74747381D01*
X117983096Y-74699762D01*
X118030715Y-74652143D01*
X118030715Y-74318810D01*
X117840239Y-74318810D01*
X118459286Y-74747381D02*
X118459286Y-73747381D01*
X119030715Y-74747381D01*
X119030715Y-73747381D01*
X119506905Y-74747381D02*
X119506905Y-73747381D01*
X119745000Y-73747381D01*
X119887858Y-73795000D01*
X119983096Y-73890238D01*
X120030715Y-73985476D01*
X120078334Y-74175952D01*
X120078334Y-74318810D01*
X120030715Y-74509286D01*
X119983096Y-74604524D01*
X119887858Y-74699762D01*
X119745000Y-74747381D01*
X119506905Y-74747381D01*
X123063096Y-73795000D02*
X122967858Y-73747381D01*
X122825001Y-73747381D01*
X122682143Y-73795000D01*
X122586905Y-73890238D01*
X122539286Y-73985476D01*
X122491667Y-74175952D01*
X122491667Y-74318810D01*
X122539286Y-74509286D01*
X122586905Y-74604524D01*
X122682143Y-74699762D01*
X122825001Y-74747381D01*
X122920239Y-74747381D01*
X123063096Y-74699762D01*
X123110715Y-74652143D01*
X123110715Y-74318810D01*
X122920239Y-74318810D01*
X123539286Y-74747381D02*
X123539286Y-73747381D01*
X124110715Y-74747381D01*
X124110715Y-73747381D01*
X124586905Y-74747381D02*
X124586905Y-73747381D01*
X124825000Y-73747381D01*
X124967858Y-73795000D01*
X125063096Y-73890238D01*
X125110715Y-73985476D01*
X125158334Y-74175952D01*
X125158334Y-74318810D01*
X125110715Y-74509286D01*
X125063096Y-74604524D01*
X124967858Y-74699762D01*
X124825000Y-74747381D01*
X124586905Y-74747381D01*
X128143096Y-73795000D02*
X128047858Y-73747381D01*
X127905001Y-73747381D01*
X127762143Y-73795000D01*
X127666905Y-73890238D01*
X127619286Y-73985476D01*
X127571667Y-74175952D01*
X127571667Y-74318810D01*
X127619286Y-74509286D01*
X127666905Y-74604524D01*
X127762143Y-74699762D01*
X127905001Y-74747381D01*
X128000239Y-74747381D01*
X128143096Y-74699762D01*
X128190715Y-74652143D01*
X128190715Y-74318810D01*
X128000239Y-74318810D01*
X128619286Y-74747381D02*
X128619286Y-73747381D01*
X129190715Y-74747381D01*
X129190715Y-73747381D01*
X129666905Y-74747381D02*
X129666905Y-73747381D01*
X129905000Y-73747381D01*
X130047858Y-73795000D01*
X130143096Y-73890238D01*
X130190715Y-73985476D01*
X130238334Y-74175952D01*
X130238334Y-74318810D01*
X130190715Y-74509286D01*
X130143096Y-74604524D01*
X130047858Y-74699762D01*
X129905000Y-74747381D01*
X129666905Y-74747381D01*
M02*
