G04 #@! TF.FileFunction,Soldermask,Bot*
%FSLAX46Y46*%
G04 Gerber Fmt 4.6, Leading zero omitted, Abs format (unit mm)*
G04 Created by KiCad (PCBNEW 4.0.7) date Sunday, March 11, 2018 'PMt' 08:42:03 PM*
%MOMM*%
%LPD*%
G01*
G04 APERTURE LIST*
%ADD10C,0.100000*%
%ADD11R,2.400000X2.000000*%
%ADD12C,2.800000*%
%ADD13R,2.800000X2.800000*%
%ADD14R,3.000000X2.400000*%
%ADD15O,3.000000X2.400000*%
%ADD16R,2.400000X3.000000*%
%ADD17O,2.400000X3.000000*%
%ADD18R,2.000000X2.000000*%
%ADD19C,2.000000*%
%ADD20R,2.400000X4.200000*%
%ADD21R,2.400000X1.900000*%
%ADD22C,2.600000*%
%ADD23R,2.100000X2.100000*%
%ADD24O,2.100000X2.100000*%
G04 APERTURE END LIST*
D10*
D11*
X129445000Y-82550000D03*
X133445000Y-82550000D03*
X125190000Y-88900000D03*
X121190000Y-88900000D03*
D12*
X117785000Y-62865000D03*
D13*
X121285000Y-62865000D03*
D14*
X112395000Y-81280000D03*
D15*
X112395000Y-78740000D03*
X112395000Y-76200000D03*
D16*
X126365000Y-62865000D03*
D17*
X128905000Y-62865000D03*
X131445000Y-62865000D03*
D14*
X144780000Y-76835000D03*
D15*
X144780000Y-79375000D03*
X144780000Y-81915000D03*
D16*
X129540000Y-95885000D03*
D17*
X127000000Y-95885000D03*
X124460000Y-95885000D03*
D18*
X114300000Y-69215000D03*
D19*
X111800000Y-69215000D03*
D18*
X137795000Y-64770000D03*
D19*
X137795000Y-62270000D03*
D18*
X136525000Y-93980000D03*
D19*
X136525000Y-96480000D03*
D18*
X142240000Y-88900000D03*
D19*
X144740000Y-88900000D03*
D14*
X139065000Y-76835000D03*
D15*
X139065000Y-79375000D03*
X139065000Y-81915000D03*
D20*
X118770000Y-82550000D03*
D21*
X125070000Y-82550000D03*
X125070000Y-84850000D03*
X125070000Y-80250000D03*
D22*
X145415000Y-62230000D03*
X111760000Y-62230000D03*
X111760000Y-96520000D03*
X145415000Y-96520000D03*
D23*
X132080000Y-77470000D03*
D24*
X132080000Y-74930000D03*
D12*
X112395000Y-90495000D03*
D13*
X112395000Y-86995000D03*
M02*
