G04 #@! TF.FileFunction,Copper,L2,Bot,Signal*
%FSLAX46Y46*%
G04 Gerber Fmt 4.6, Leading zero omitted, Abs format (unit mm)*
G04 Created by KiCad (PCBNEW 4.0.7) date 08/28/18 16:08:13*
%MOMM*%
%LPD*%
G01*
G04 APERTURE LIST*
%ADD10C,0.100000*%
%ADD11R,2.000000X1.700000*%
%ADD12R,1.700000X1.700000*%
%ADD13O,1.700000X1.700000*%
%ADD14R,0.800000X0.900000*%
%ADD15R,1.560000X0.650000*%
%ADD16R,2.600000X2.000000*%
%ADD17O,2.600000X2.000000*%
%ADD18C,0.600000*%
%ADD19C,0.250000*%
%ADD20C,0.254000*%
G04 APERTURE END LIST*
D10*
D11*
X148495000Y-93980000D03*
X152495000Y-93980000D03*
X147860000Y-80645000D03*
X151860000Y-80645000D03*
D12*
X158750000Y-62230000D03*
D13*
X161290000Y-62230000D03*
X158750000Y-64770000D03*
X161290000Y-64770000D03*
X158750000Y-67310000D03*
X161290000Y-67310000D03*
X158750000Y-69850000D03*
X161290000Y-69850000D03*
X158750000Y-72390000D03*
X161290000Y-72390000D03*
X158750000Y-74930000D03*
X161290000Y-74930000D03*
X158750000Y-77470000D03*
X161290000Y-77470000D03*
X158750000Y-80010000D03*
X161290000Y-80010000D03*
X158750000Y-82550000D03*
X161290000Y-82550000D03*
X158750000Y-85090000D03*
X161290000Y-85090000D03*
X158750000Y-87630000D03*
X161290000Y-87630000D03*
X158750000Y-90170000D03*
X161290000Y-90170000D03*
X158750000Y-92710000D03*
X161290000Y-92710000D03*
X158750000Y-95250000D03*
X161290000Y-95250000D03*
X158750000Y-97790000D03*
X161290000Y-97790000D03*
X158750000Y-100330000D03*
X161290000Y-100330000D03*
X158750000Y-102870000D03*
X161290000Y-102870000D03*
X158750000Y-105410000D03*
X161290000Y-105410000D03*
X158750000Y-107950000D03*
X161290000Y-107950000D03*
X158750000Y-110490000D03*
X161290000Y-110490000D03*
D14*
X148910000Y-86630000D03*
X150810000Y-86630000D03*
X149860000Y-88630000D03*
D15*
X151210000Y-65090000D03*
X151210000Y-66040000D03*
X151210000Y-66990000D03*
X148510000Y-66990000D03*
X148510000Y-65090000D03*
X151210000Y-72710000D03*
X151210000Y-73660000D03*
X151210000Y-74610000D03*
X148510000Y-74610000D03*
X148510000Y-72710000D03*
D12*
X136525000Y-69215000D03*
D13*
X136525000Y-66675000D03*
X136525000Y-64135000D03*
X136525000Y-61595000D03*
X136525000Y-59055000D03*
X136525000Y-56515000D03*
D12*
X136525000Y-88900000D03*
D13*
X136525000Y-86360000D03*
X136525000Y-83820000D03*
X136525000Y-81280000D03*
X136525000Y-78740000D03*
X136525000Y-76200000D03*
X136525000Y-73660000D03*
D16*
X135890000Y-109855000D03*
D17*
X135890000Y-112395000D03*
X135890000Y-114935000D03*
D12*
X136525000Y-93345000D03*
D13*
X136525000Y-95885000D03*
X136525000Y-98425000D03*
X136525000Y-100965000D03*
X136525000Y-103505000D03*
D18*
X154305000Y-85090000D03*
X146050000Y-94615000D03*
X144145000Y-80645000D03*
X144145000Y-74930000D03*
X144145000Y-72390000D03*
X152400000Y-60325000D03*
X155575000Y-62230000D03*
X151765000Y-68580000D03*
X148590000Y-92075000D03*
X151765000Y-90805000D03*
X155575000Y-69215000D03*
X149860000Y-96520000D03*
X155575000Y-107315000D03*
X147320000Y-99060000D03*
X155575000Y-71120000D03*
X155575000Y-74295000D03*
X146050000Y-64770000D03*
X146050000Y-72390000D03*
X151765000Y-69850000D03*
D19*
X151210000Y-66990000D02*
X152080000Y-66990000D01*
X150175000Y-74610000D02*
X151210000Y-74610000D01*
X149860000Y-74295000D02*
X150175000Y-74610000D01*
X149860000Y-72390000D02*
X149860000Y-74295000D01*
X150495000Y-71755000D02*
X149860000Y-72390000D01*
X151130000Y-71755000D02*
X150495000Y-71755000D01*
X153035000Y-69850000D02*
X151130000Y-71755000D01*
X153035000Y-67945000D02*
X153035000Y-69850000D01*
X152080000Y-66990000D02*
X153035000Y-67945000D01*
X158750000Y-72390000D02*
X160020000Y-73660000D01*
X160020000Y-73660000D02*
X162560000Y-73660000D01*
X162560000Y-73660000D02*
X163195000Y-73025000D01*
X163195000Y-73025000D02*
X163195000Y-69215000D01*
X163195000Y-69215000D02*
X161290000Y-67310000D01*
X151210000Y-74610000D02*
X151210000Y-76915000D01*
X154305000Y-80010000D02*
X154305000Y-85090000D01*
X151210000Y-76915000D02*
X154305000Y-80010000D01*
X160020000Y-73660000D02*
X162560000Y-73660000D01*
X162560000Y-73660000D02*
X162560000Y-76200000D01*
X162560000Y-76200000D02*
X161290000Y-77470000D01*
X161290000Y-64770000D02*
X161290000Y-62230000D01*
X148495000Y-93980000D02*
X146685000Y-93980000D01*
X146685000Y-93980000D02*
X146050000Y-94615000D01*
X158750000Y-64770000D02*
X155575000Y-64770000D01*
X149860000Y-59055000D02*
X136525000Y-59055000D01*
X155575000Y-64770000D02*
X149860000Y-59055000D01*
X158750000Y-67310000D02*
X156845000Y-67310000D01*
X151130000Y-61595000D02*
X136525000Y-61595000D01*
X156845000Y-67310000D02*
X151130000Y-61595000D01*
X147860000Y-80645000D02*
X144145000Y-80645000D01*
X148910000Y-86630000D02*
X148910000Y-84775000D01*
X147860000Y-83725000D02*
X147860000Y-80645000D01*
X148910000Y-84775000D02*
X147860000Y-83725000D01*
X144145000Y-74930000D02*
X144145000Y-72390000D01*
X153670000Y-60325000D02*
X152400000Y-60325000D01*
X155575000Y-62230000D02*
X153670000Y-60325000D01*
X147955000Y-67545000D02*
X148510000Y-66990000D01*
X147955000Y-67945000D02*
X147955000Y-67545000D01*
X148590000Y-68580000D02*
X147955000Y-67945000D01*
X151765000Y-68580000D02*
X148590000Y-68580000D01*
X161290000Y-74930000D02*
X160020000Y-76200000D01*
X142875000Y-86360000D02*
X136525000Y-86360000D01*
X148590000Y-92075000D02*
X142875000Y-86360000D01*
X152400000Y-90805000D02*
X151765000Y-90805000D01*
X155575000Y-87630000D02*
X152400000Y-90805000D01*
X155575000Y-77470000D02*
X155575000Y-87630000D01*
X156845000Y-76200000D02*
X155575000Y-77470000D01*
X160020000Y-76200000D02*
X156845000Y-76200000D01*
X155575000Y-69215000D02*
X156210000Y-68580000D01*
X156210000Y-68580000D02*
X160020000Y-68580000D01*
X160020000Y-68580000D02*
X160020000Y-63500000D01*
X160020000Y-63500000D02*
X157480000Y-63500000D01*
X157480000Y-63500000D02*
X157480000Y-62230000D01*
X157480000Y-62230000D02*
X151765000Y-56515000D01*
X151765000Y-56515000D02*
X136525000Y-56515000D01*
X136525000Y-88900000D02*
X144145000Y-96520000D01*
X144145000Y-96520000D02*
X149860000Y-96520000D01*
X161290000Y-110490000D02*
X160020000Y-109220000D01*
X160020000Y-109220000D02*
X157480000Y-109220000D01*
X157480000Y-109220000D02*
X155575000Y-107315000D01*
X147320000Y-99060000D02*
X146050000Y-97790000D01*
X146050000Y-97790000D02*
X143510000Y-97790000D01*
X143510000Y-97790000D02*
X135890000Y-90170000D01*
X135890000Y-90170000D02*
X135255000Y-90170000D01*
X135255000Y-90170000D02*
X135255000Y-85090000D01*
X135255000Y-85090000D02*
X136525000Y-83820000D01*
X151210000Y-73660000D02*
X154940000Y-73660000D01*
X160020000Y-71120000D02*
X161290000Y-69850000D01*
X155575000Y-71120000D02*
X160020000Y-71120000D01*
X154940000Y-73660000D02*
X155575000Y-74295000D01*
X135890000Y-109855000D02*
X139700000Y-109855000D01*
X152495000Y-97060000D02*
X152495000Y-93440000D01*
X139700000Y-109855000D02*
X152495000Y-97060000D01*
X152495000Y-93440000D02*
X149860000Y-90805000D01*
X149860000Y-90805000D02*
X149860000Y-88630000D01*
X151130000Y-72390000D02*
X154305000Y-70485000D01*
X154305000Y-70485000D02*
X154305000Y-66040000D01*
X154305000Y-66040000D02*
X152400000Y-65405000D01*
X152400000Y-65405000D02*
X152400000Y-64770000D01*
X152400000Y-64770000D02*
X151130000Y-64770000D01*
X151210000Y-72710000D02*
X155260000Y-72710000D01*
X157480000Y-74930000D02*
X158750000Y-74930000D01*
X155260000Y-72710000D02*
X157480000Y-74930000D01*
X151210000Y-66040000D02*
X149860000Y-66040000D01*
X149860000Y-66040000D02*
X149860000Y-64135000D01*
X149860000Y-64135000D02*
X147320000Y-64135000D01*
X147320000Y-64135000D02*
X146685000Y-64770000D01*
X146685000Y-64770000D02*
X146050000Y-64770000D01*
X146050000Y-72390000D02*
X147955000Y-74295000D01*
X147955000Y-74295000D02*
X148590000Y-74295000D01*
X148590000Y-74295000D02*
X148510000Y-74610000D01*
X148510000Y-74610000D02*
X148510000Y-75485000D01*
X151860000Y-78835000D02*
X151860000Y-80645000D01*
X148510000Y-75485000D02*
X151860000Y-78835000D01*
X150810000Y-86630000D02*
X150810000Y-83505000D01*
X151860000Y-82455000D02*
X151860000Y-80645000D01*
X150810000Y-83505000D02*
X151860000Y-82455000D01*
X150495000Y-71120000D02*
X148510000Y-71120000D01*
X151765000Y-69850000D02*
X150495000Y-71120000D01*
X148510000Y-72710000D02*
X148510000Y-71120000D01*
X148510000Y-71120000D02*
X148510000Y-71040000D01*
X146685000Y-66915000D02*
X148510000Y-65090000D01*
X146685000Y-69215000D02*
X146685000Y-66915000D01*
X148510000Y-71040000D02*
X146685000Y-69215000D01*
D20*
G36*
X163120000Y-117400000D02*
X134695000Y-117400000D01*
X134695000Y-116277382D01*
X134846980Y-116396942D01*
X135463000Y-116570000D01*
X135763000Y-116570000D01*
X135763000Y-115062000D01*
X136017000Y-115062000D01*
X136017000Y-116570000D01*
X136317000Y-116570000D01*
X136933020Y-116396942D01*
X137435922Y-116001317D01*
X137749144Y-115443355D01*
X137780124Y-115315434D01*
X137660777Y-115062000D01*
X136017000Y-115062000D01*
X135763000Y-115062000D01*
X135743000Y-115062000D01*
X135743000Y-114808000D01*
X135763000Y-114808000D01*
X135763000Y-114788000D01*
X136017000Y-114788000D01*
X136017000Y-114808000D01*
X137660777Y-114808000D01*
X137780124Y-114554566D01*
X137749144Y-114426645D01*
X137435922Y-113868683D01*
X137193812Y-113678219D01*
X137384029Y-113551120D01*
X137738452Y-113020687D01*
X137862909Y-112395000D01*
X137738452Y-111769313D01*
X137498907Y-111410808D01*
X137641441Y-111319090D01*
X137786431Y-111106890D01*
X137837440Y-110855000D01*
X137837440Y-110846890D01*
X157308524Y-110846890D01*
X157478355Y-111256924D01*
X157868642Y-111685183D01*
X158393108Y-111931486D01*
X158623000Y-111810819D01*
X158623000Y-110617000D01*
X157429845Y-110617000D01*
X157308524Y-110846890D01*
X137837440Y-110846890D01*
X137837440Y-110615000D01*
X139700000Y-110615000D01*
X139990839Y-110557148D01*
X140237401Y-110392401D01*
X153032401Y-97597401D01*
X153197148Y-97350839D01*
X153255000Y-97060000D01*
X153255000Y-95477440D01*
X153495000Y-95477440D01*
X153730317Y-95433162D01*
X153946441Y-95294090D01*
X154091431Y-95081890D01*
X154142440Y-94830000D01*
X154142440Y-93130000D01*
X154098162Y-92894683D01*
X153959090Y-92678559D01*
X153746890Y-92533569D01*
X153495000Y-92482560D01*
X152612362Y-92482560D01*
X151869894Y-91740092D01*
X151950167Y-91740162D01*
X152293943Y-91598117D01*
X152327118Y-91565000D01*
X152400000Y-91565000D01*
X152690839Y-91507148D01*
X152937401Y-91342401D01*
X156112401Y-88167401D01*
X156277148Y-87920839D01*
X156335000Y-87630000D01*
X156335000Y-77784802D01*
X157159802Y-76960000D01*
X157337352Y-76960000D01*
X157235907Y-77470000D01*
X157348946Y-78038285D01*
X157670853Y-78520054D01*
X158000026Y-78740000D01*
X157670853Y-78959946D01*
X157348946Y-79441715D01*
X157235907Y-80010000D01*
X157348946Y-80578285D01*
X157670853Y-81060054D01*
X158000026Y-81280000D01*
X157670853Y-81499946D01*
X157348946Y-81981715D01*
X157235907Y-82550000D01*
X157348946Y-83118285D01*
X157670853Y-83600054D01*
X158000026Y-83820000D01*
X157670853Y-84039946D01*
X157348946Y-84521715D01*
X157235907Y-85090000D01*
X157348946Y-85658285D01*
X157670853Y-86140054D01*
X158000026Y-86360000D01*
X157670853Y-86579946D01*
X157348946Y-87061715D01*
X157235907Y-87630000D01*
X157348946Y-88198285D01*
X157670853Y-88680054D01*
X158000026Y-88900000D01*
X157670853Y-89119946D01*
X157348946Y-89601715D01*
X157235907Y-90170000D01*
X157348946Y-90738285D01*
X157670853Y-91220054D01*
X158011553Y-91447702D01*
X157868642Y-91514817D01*
X157478355Y-91943076D01*
X157308524Y-92353110D01*
X157429845Y-92583000D01*
X158623000Y-92583000D01*
X158623000Y-92563000D01*
X158877000Y-92563000D01*
X158877000Y-92583000D01*
X158897000Y-92583000D01*
X158897000Y-92837000D01*
X158877000Y-92837000D01*
X158877000Y-92857000D01*
X158623000Y-92857000D01*
X158623000Y-92837000D01*
X157429845Y-92837000D01*
X157308524Y-93066890D01*
X157478355Y-93476924D01*
X157868642Y-93905183D01*
X158011553Y-93972298D01*
X157670853Y-94199946D01*
X157348946Y-94681715D01*
X157235907Y-95250000D01*
X157348946Y-95818285D01*
X157670853Y-96300054D01*
X158000026Y-96520000D01*
X157670853Y-96739946D01*
X157348946Y-97221715D01*
X157235907Y-97790000D01*
X157348946Y-98358285D01*
X157670853Y-98840054D01*
X158000026Y-99060000D01*
X157670853Y-99279946D01*
X157348946Y-99761715D01*
X157235907Y-100330000D01*
X157348946Y-100898285D01*
X157670853Y-101380054D01*
X158000026Y-101600000D01*
X157670853Y-101819946D01*
X157348946Y-102301715D01*
X157235907Y-102870000D01*
X157348946Y-103438285D01*
X157670853Y-103920054D01*
X158000026Y-104140000D01*
X157670853Y-104359946D01*
X157348946Y-104841715D01*
X157235907Y-105410000D01*
X157348946Y-105978285D01*
X157670853Y-106460054D01*
X158000026Y-106680000D01*
X157670853Y-106899946D01*
X157348946Y-107381715D01*
X157244019Y-107909217D01*
X156510122Y-107175320D01*
X156510162Y-107129833D01*
X156368117Y-106786057D01*
X156105327Y-106522808D01*
X155761799Y-106380162D01*
X155389833Y-106379838D01*
X155046057Y-106521883D01*
X154782808Y-106784673D01*
X154640162Y-107128201D01*
X154639838Y-107500167D01*
X154781883Y-107843943D01*
X155044673Y-108107192D01*
X155388201Y-108249838D01*
X155435077Y-108249879D01*
X156942599Y-109757401D01*
X157189161Y-109922148D01*
X157380165Y-109960141D01*
X157308524Y-110133110D01*
X157429845Y-110363000D01*
X158623000Y-110363000D01*
X158623000Y-110343000D01*
X158877000Y-110343000D01*
X158877000Y-110363000D01*
X158897000Y-110363000D01*
X158897000Y-110617000D01*
X158877000Y-110617000D01*
X158877000Y-111810819D01*
X159106892Y-111931486D01*
X159631358Y-111685183D01*
X160021645Y-111256924D01*
X160021655Y-111256899D01*
X160210853Y-111540054D01*
X160692622Y-111861961D01*
X161260907Y-111975000D01*
X161319093Y-111975000D01*
X161887378Y-111861961D01*
X162369147Y-111540054D01*
X162691054Y-111058285D01*
X162804093Y-110490000D01*
X162691054Y-109921715D01*
X162369147Y-109439946D01*
X162039974Y-109220000D01*
X162369147Y-109000054D01*
X162691054Y-108518285D01*
X162804093Y-107950000D01*
X162691054Y-107381715D01*
X162369147Y-106899946D01*
X162039974Y-106680000D01*
X162369147Y-106460054D01*
X162691054Y-105978285D01*
X162804093Y-105410000D01*
X162691054Y-104841715D01*
X162369147Y-104359946D01*
X162028447Y-104132298D01*
X162171358Y-104065183D01*
X162561645Y-103636924D01*
X162731476Y-103226890D01*
X162610155Y-102997000D01*
X161417000Y-102997000D01*
X161417000Y-103017000D01*
X161163000Y-103017000D01*
X161163000Y-102997000D01*
X161143000Y-102997000D01*
X161143000Y-102743000D01*
X161163000Y-102743000D01*
X161163000Y-102723000D01*
X161417000Y-102723000D01*
X161417000Y-102743000D01*
X162610155Y-102743000D01*
X162731476Y-102513110D01*
X162561645Y-102103076D01*
X162171358Y-101674817D01*
X162028447Y-101607702D01*
X162369147Y-101380054D01*
X162691054Y-100898285D01*
X162804093Y-100330000D01*
X162691054Y-99761715D01*
X162369147Y-99279946D01*
X162028447Y-99052298D01*
X162171358Y-98985183D01*
X162561645Y-98556924D01*
X162731476Y-98146890D01*
X162610155Y-97917000D01*
X161417000Y-97917000D01*
X161417000Y-97937000D01*
X161163000Y-97937000D01*
X161163000Y-97917000D01*
X161143000Y-97917000D01*
X161143000Y-97663000D01*
X161163000Y-97663000D01*
X161163000Y-97643000D01*
X161417000Y-97643000D01*
X161417000Y-97663000D01*
X162610155Y-97663000D01*
X162731476Y-97433110D01*
X162561645Y-97023076D01*
X162171358Y-96594817D01*
X162028447Y-96527702D01*
X162369147Y-96300054D01*
X162691054Y-95818285D01*
X162804093Y-95250000D01*
X162691054Y-94681715D01*
X162369147Y-94199946D01*
X162039974Y-93980000D01*
X162369147Y-93760054D01*
X162691054Y-93278285D01*
X162804093Y-92710000D01*
X162691054Y-92141715D01*
X162369147Y-91659946D01*
X162039974Y-91440000D01*
X162369147Y-91220054D01*
X162691054Y-90738285D01*
X162804093Y-90170000D01*
X162691054Y-89601715D01*
X162369147Y-89119946D01*
X162039974Y-88900000D01*
X162369147Y-88680054D01*
X162691054Y-88198285D01*
X162804093Y-87630000D01*
X162691054Y-87061715D01*
X162369147Y-86579946D01*
X162028447Y-86352298D01*
X162171358Y-86285183D01*
X162561645Y-85856924D01*
X162731476Y-85446890D01*
X162610155Y-85217000D01*
X161417000Y-85217000D01*
X161417000Y-85237000D01*
X161163000Y-85237000D01*
X161163000Y-85217000D01*
X161143000Y-85217000D01*
X161143000Y-84963000D01*
X161163000Y-84963000D01*
X161163000Y-84943000D01*
X161417000Y-84943000D01*
X161417000Y-84963000D01*
X162610155Y-84963000D01*
X162731476Y-84733110D01*
X162561645Y-84323076D01*
X162171358Y-83894817D01*
X162028447Y-83827702D01*
X162369147Y-83600054D01*
X162691054Y-83118285D01*
X162804093Y-82550000D01*
X162691054Y-81981715D01*
X162369147Y-81499946D01*
X162039974Y-81280000D01*
X162369147Y-81060054D01*
X162691054Y-80578285D01*
X162804093Y-80010000D01*
X162691054Y-79441715D01*
X162369147Y-78959946D01*
X162028447Y-78732298D01*
X162171358Y-78665183D01*
X162561645Y-78236924D01*
X162731476Y-77826890D01*
X162610155Y-77597000D01*
X161417000Y-77597000D01*
X161417000Y-77617000D01*
X161163000Y-77617000D01*
X161163000Y-77597000D01*
X161143000Y-77597000D01*
X161143000Y-77343000D01*
X161163000Y-77343000D01*
X161163000Y-77323000D01*
X161417000Y-77323000D01*
X161417000Y-77343000D01*
X162610155Y-77343000D01*
X162731476Y-77113110D01*
X162561645Y-76703076D01*
X162171358Y-76274817D01*
X162028447Y-76207702D01*
X162369147Y-75980054D01*
X162691054Y-75498285D01*
X162804093Y-74930000D01*
X162691054Y-74361715D01*
X162369147Y-73879946D01*
X162039974Y-73660000D01*
X162369147Y-73440054D01*
X162691054Y-72958285D01*
X162804093Y-72390000D01*
X162691054Y-71821715D01*
X162369147Y-71339946D01*
X162039974Y-71120000D01*
X162369147Y-70900054D01*
X162691054Y-70418285D01*
X162804093Y-69850000D01*
X162691054Y-69281715D01*
X162369147Y-68799946D01*
X162028447Y-68572298D01*
X162171358Y-68505183D01*
X162561645Y-68076924D01*
X162731476Y-67666890D01*
X162610155Y-67437000D01*
X161417000Y-67437000D01*
X161417000Y-67457000D01*
X161163000Y-67457000D01*
X161163000Y-67437000D01*
X161143000Y-67437000D01*
X161143000Y-67183000D01*
X161163000Y-67183000D01*
X161163000Y-67163000D01*
X161417000Y-67163000D01*
X161417000Y-67183000D01*
X162610155Y-67183000D01*
X162731476Y-66953110D01*
X162561645Y-66543076D01*
X162171358Y-66114817D01*
X162028447Y-66047702D01*
X162369147Y-65820054D01*
X162691054Y-65338285D01*
X162804093Y-64770000D01*
X162691054Y-64201715D01*
X162369147Y-63719946D01*
X162050000Y-63506699D01*
X162050000Y-63493301D01*
X162369147Y-63280054D01*
X162691054Y-62798285D01*
X162804093Y-62230000D01*
X162691054Y-61661715D01*
X162369147Y-61179946D01*
X161887378Y-60858039D01*
X161319093Y-60745000D01*
X161260907Y-60745000D01*
X160692622Y-60858039D01*
X160210853Y-61179946D01*
X160210029Y-61181179D01*
X160203162Y-61144683D01*
X160064090Y-60928559D01*
X159851890Y-60783569D01*
X159600000Y-60732560D01*
X157900000Y-60732560D01*
X157664683Y-60776838D01*
X157448559Y-60915910D01*
X157364190Y-61039388D01*
X152302401Y-55977599D01*
X152055839Y-55812852D01*
X151765000Y-55755000D01*
X137797954Y-55755000D01*
X137604147Y-55464946D01*
X137387219Y-55320000D01*
X163120000Y-55320000D01*
X163120000Y-117400000D01*
X163120000Y-117400000D01*
G37*
X163120000Y-117400000D02*
X134695000Y-117400000D01*
X134695000Y-116277382D01*
X134846980Y-116396942D01*
X135463000Y-116570000D01*
X135763000Y-116570000D01*
X135763000Y-115062000D01*
X136017000Y-115062000D01*
X136017000Y-116570000D01*
X136317000Y-116570000D01*
X136933020Y-116396942D01*
X137435922Y-116001317D01*
X137749144Y-115443355D01*
X137780124Y-115315434D01*
X137660777Y-115062000D01*
X136017000Y-115062000D01*
X135763000Y-115062000D01*
X135743000Y-115062000D01*
X135743000Y-114808000D01*
X135763000Y-114808000D01*
X135763000Y-114788000D01*
X136017000Y-114788000D01*
X136017000Y-114808000D01*
X137660777Y-114808000D01*
X137780124Y-114554566D01*
X137749144Y-114426645D01*
X137435922Y-113868683D01*
X137193812Y-113678219D01*
X137384029Y-113551120D01*
X137738452Y-113020687D01*
X137862909Y-112395000D01*
X137738452Y-111769313D01*
X137498907Y-111410808D01*
X137641441Y-111319090D01*
X137786431Y-111106890D01*
X137837440Y-110855000D01*
X137837440Y-110846890D01*
X157308524Y-110846890D01*
X157478355Y-111256924D01*
X157868642Y-111685183D01*
X158393108Y-111931486D01*
X158623000Y-111810819D01*
X158623000Y-110617000D01*
X157429845Y-110617000D01*
X157308524Y-110846890D01*
X137837440Y-110846890D01*
X137837440Y-110615000D01*
X139700000Y-110615000D01*
X139990839Y-110557148D01*
X140237401Y-110392401D01*
X153032401Y-97597401D01*
X153197148Y-97350839D01*
X153255000Y-97060000D01*
X153255000Y-95477440D01*
X153495000Y-95477440D01*
X153730317Y-95433162D01*
X153946441Y-95294090D01*
X154091431Y-95081890D01*
X154142440Y-94830000D01*
X154142440Y-93130000D01*
X154098162Y-92894683D01*
X153959090Y-92678559D01*
X153746890Y-92533569D01*
X153495000Y-92482560D01*
X152612362Y-92482560D01*
X151869894Y-91740092D01*
X151950167Y-91740162D01*
X152293943Y-91598117D01*
X152327118Y-91565000D01*
X152400000Y-91565000D01*
X152690839Y-91507148D01*
X152937401Y-91342401D01*
X156112401Y-88167401D01*
X156277148Y-87920839D01*
X156335000Y-87630000D01*
X156335000Y-77784802D01*
X157159802Y-76960000D01*
X157337352Y-76960000D01*
X157235907Y-77470000D01*
X157348946Y-78038285D01*
X157670853Y-78520054D01*
X158000026Y-78740000D01*
X157670853Y-78959946D01*
X157348946Y-79441715D01*
X157235907Y-80010000D01*
X157348946Y-80578285D01*
X157670853Y-81060054D01*
X158000026Y-81280000D01*
X157670853Y-81499946D01*
X157348946Y-81981715D01*
X157235907Y-82550000D01*
X157348946Y-83118285D01*
X157670853Y-83600054D01*
X158000026Y-83820000D01*
X157670853Y-84039946D01*
X157348946Y-84521715D01*
X157235907Y-85090000D01*
X157348946Y-85658285D01*
X157670853Y-86140054D01*
X158000026Y-86360000D01*
X157670853Y-86579946D01*
X157348946Y-87061715D01*
X157235907Y-87630000D01*
X157348946Y-88198285D01*
X157670853Y-88680054D01*
X158000026Y-88900000D01*
X157670853Y-89119946D01*
X157348946Y-89601715D01*
X157235907Y-90170000D01*
X157348946Y-90738285D01*
X157670853Y-91220054D01*
X158011553Y-91447702D01*
X157868642Y-91514817D01*
X157478355Y-91943076D01*
X157308524Y-92353110D01*
X157429845Y-92583000D01*
X158623000Y-92583000D01*
X158623000Y-92563000D01*
X158877000Y-92563000D01*
X158877000Y-92583000D01*
X158897000Y-92583000D01*
X158897000Y-92837000D01*
X158877000Y-92837000D01*
X158877000Y-92857000D01*
X158623000Y-92857000D01*
X158623000Y-92837000D01*
X157429845Y-92837000D01*
X157308524Y-93066890D01*
X157478355Y-93476924D01*
X157868642Y-93905183D01*
X158011553Y-93972298D01*
X157670853Y-94199946D01*
X157348946Y-94681715D01*
X157235907Y-95250000D01*
X157348946Y-95818285D01*
X157670853Y-96300054D01*
X158000026Y-96520000D01*
X157670853Y-96739946D01*
X157348946Y-97221715D01*
X157235907Y-97790000D01*
X157348946Y-98358285D01*
X157670853Y-98840054D01*
X158000026Y-99060000D01*
X157670853Y-99279946D01*
X157348946Y-99761715D01*
X157235907Y-100330000D01*
X157348946Y-100898285D01*
X157670853Y-101380054D01*
X158000026Y-101600000D01*
X157670853Y-101819946D01*
X157348946Y-102301715D01*
X157235907Y-102870000D01*
X157348946Y-103438285D01*
X157670853Y-103920054D01*
X158000026Y-104140000D01*
X157670853Y-104359946D01*
X157348946Y-104841715D01*
X157235907Y-105410000D01*
X157348946Y-105978285D01*
X157670853Y-106460054D01*
X158000026Y-106680000D01*
X157670853Y-106899946D01*
X157348946Y-107381715D01*
X157244019Y-107909217D01*
X156510122Y-107175320D01*
X156510162Y-107129833D01*
X156368117Y-106786057D01*
X156105327Y-106522808D01*
X155761799Y-106380162D01*
X155389833Y-106379838D01*
X155046057Y-106521883D01*
X154782808Y-106784673D01*
X154640162Y-107128201D01*
X154639838Y-107500167D01*
X154781883Y-107843943D01*
X155044673Y-108107192D01*
X155388201Y-108249838D01*
X155435077Y-108249879D01*
X156942599Y-109757401D01*
X157189161Y-109922148D01*
X157380165Y-109960141D01*
X157308524Y-110133110D01*
X157429845Y-110363000D01*
X158623000Y-110363000D01*
X158623000Y-110343000D01*
X158877000Y-110343000D01*
X158877000Y-110363000D01*
X158897000Y-110363000D01*
X158897000Y-110617000D01*
X158877000Y-110617000D01*
X158877000Y-111810819D01*
X159106892Y-111931486D01*
X159631358Y-111685183D01*
X160021645Y-111256924D01*
X160021655Y-111256899D01*
X160210853Y-111540054D01*
X160692622Y-111861961D01*
X161260907Y-111975000D01*
X161319093Y-111975000D01*
X161887378Y-111861961D01*
X162369147Y-111540054D01*
X162691054Y-111058285D01*
X162804093Y-110490000D01*
X162691054Y-109921715D01*
X162369147Y-109439946D01*
X162039974Y-109220000D01*
X162369147Y-109000054D01*
X162691054Y-108518285D01*
X162804093Y-107950000D01*
X162691054Y-107381715D01*
X162369147Y-106899946D01*
X162039974Y-106680000D01*
X162369147Y-106460054D01*
X162691054Y-105978285D01*
X162804093Y-105410000D01*
X162691054Y-104841715D01*
X162369147Y-104359946D01*
X162028447Y-104132298D01*
X162171358Y-104065183D01*
X162561645Y-103636924D01*
X162731476Y-103226890D01*
X162610155Y-102997000D01*
X161417000Y-102997000D01*
X161417000Y-103017000D01*
X161163000Y-103017000D01*
X161163000Y-102997000D01*
X161143000Y-102997000D01*
X161143000Y-102743000D01*
X161163000Y-102743000D01*
X161163000Y-102723000D01*
X161417000Y-102723000D01*
X161417000Y-102743000D01*
X162610155Y-102743000D01*
X162731476Y-102513110D01*
X162561645Y-102103076D01*
X162171358Y-101674817D01*
X162028447Y-101607702D01*
X162369147Y-101380054D01*
X162691054Y-100898285D01*
X162804093Y-100330000D01*
X162691054Y-99761715D01*
X162369147Y-99279946D01*
X162028447Y-99052298D01*
X162171358Y-98985183D01*
X162561645Y-98556924D01*
X162731476Y-98146890D01*
X162610155Y-97917000D01*
X161417000Y-97917000D01*
X161417000Y-97937000D01*
X161163000Y-97937000D01*
X161163000Y-97917000D01*
X161143000Y-97917000D01*
X161143000Y-97663000D01*
X161163000Y-97663000D01*
X161163000Y-97643000D01*
X161417000Y-97643000D01*
X161417000Y-97663000D01*
X162610155Y-97663000D01*
X162731476Y-97433110D01*
X162561645Y-97023076D01*
X162171358Y-96594817D01*
X162028447Y-96527702D01*
X162369147Y-96300054D01*
X162691054Y-95818285D01*
X162804093Y-95250000D01*
X162691054Y-94681715D01*
X162369147Y-94199946D01*
X162039974Y-93980000D01*
X162369147Y-93760054D01*
X162691054Y-93278285D01*
X162804093Y-92710000D01*
X162691054Y-92141715D01*
X162369147Y-91659946D01*
X162039974Y-91440000D01*
X162369147Y-91220054D01*
X162691054Y-90738285D01*
X162804093Y-90170000D01*
X162691054Y-89601715D01*
X162369147Y-89119946D01*
X162039974Y-88900000D01*
X162369147Y-88680054D01*
X162691054Y-88198285D01*
X162804093Y-87630000D01*
X162691054Y-87061715D01*
X162369147Y-86579946D01*
X162028447Y-86352298D01*
X162171358Y-86285183D01*
X162561645Y-85856924D01*
X162731476Y-85446890D01*
X162610155Y-85217000D01*
X161417000Y-85217000D01*
X161417000Y-85237000D01*
X161163000Y-85237000D01*
X161163000Y-85217000D01*
X161143000Y-85217000D01*
X161143000Y-84963000D01*
X161163000Y-84963000D01*
X161163000Y-84943000D01*
X161417000Y-84943000D01*
X161417000Y-84963000D01*
X162610155Y-84963000D01*
X162731476Y-84733110D01*
X162561645Y-84323076D01*
X162171358Y-83894817D01*
X162028447Y-83827702D01*
X162369147Y-83600054D01*
X162691054Y-83118285D01*
X162804093Y-82550000D01*
X162691054Y-81981715D01*
X162369147Y-81499946D01*
X162039974Y-81280000D01*
X162369147Y-81060054D01*
X162691054Y-80578285D01*
X162804093Y-80010000D01*
X162691054Y-79441715D01*
X162369147Y-78959946D01*
X162028447Y-78732298D01*
X162171358Y-78665183D01*
X162561645Y-78236924D01*
X162731476Y-77826890D01*
X162610155Y-77597000D01*
X161417000Y-77597000D01*
X161417000Y-77617000D01*
X161163000Y-77617000D01*
X161163000Y-77597000D01*
X161143000Y-77597000D01*
X161143000Y-77343000D01*
X161163000Y-77343000D01*
X161163000Y-77323000D01*
X161417000Y-77323000D01*
X161417000Y-77343000D01*
X162610155Y-77343000D01*
X162731476Y-77113110D01*
X162561645Y-76703076D01*
X162171358Y-76274817D01*
X162028447Y-76207702D01*
X162369147Y-75980054D01*
X162691054Y-75498285D01*
X162804093Y-74930000D01*
X162691054Y-74361715D01*
X162369147Y-73879946D01*
X162039974Y-73660000D01*
X162369147Y-73440054D01*
X162691054Y-72958285D01*
X162804093Y-72390000D01*
X162691054Y-71821715D01*
X162369147Y-71339946D01*
X162039974Y-71120000D01*
X162369147Y-70900054D01*
X162691054Y-70418285D01*
X162804093Y-69850000D01*
X162691054Y-69281715D01*
X162369147Y-68799946D01*
X162028447Y-68572298D01*
X162171358Y-68505183D01*
X162561645Y-68076924D01*
X162731476Y-67666890D01*
X162610155Y-67437000D01*
X161417000Y-67437000D01*
X161417000Y-67457000D01*
X161163000Y-67457000D01*
X161163000Y-67437000D01*
X161143000Y-67437000D01*
X161143000Y-67183000D01*
X161163000Y-67183000D01*
X161163000Y-67163000D01*
X161417000Y-67163000D01*
X161417000Y-67183000D01*
X162610155Y-67183000D01*
X162731476Y-66953110D01*
X162561645Y-66543076D01*
X162171358Y-66114817D01*
X162028447Y-66047702D01*
X162369147Y-65820054D01*
X162691054Y-65338285D01*
X162804093Y-64770000D01*
X162691054Y-64201715D01*
X162369147Y-63719946D01*
X162050000Y-63506699D01*
X162050000Y-63493301D01*
X162369147Y-63280054D01*
X162691054Y-62798285D01*
X162804093Y-62230000D01*
X162691054Y-61661715D01*
X162369147Y-61179946D01*
X161887378Y-60858039D01*
X161319093Y-60745000D01*
X161260907Y-60745000D01*
X160692622Y-60858039D01*
X160210853Y-61179946D01*
X160210029Y-61181179D01*
X160203162Y-61144683D01*
X160064090Y-60928559D01*
X159851890Y-60783569D01*
X159600000Y-60732560D01*
X157900000Y-60732560D01*
X157664683Y-60776838D01*
X157448559Y-60915910D01*
X157364190Y-61039388D01*
X152302401Y-55977599D01*
X152055839Y-55812852D01*
X151765000Y-55755000D01*
X137797954Y-55755000D01*
X137604147Y-55464946D01*
X137387219Y-55320000D01*
X163120000Y-55320000D01*
X163120000Y-117400000D01*
G36*
X135445853Y-55464946D02*
X135123946Y-55946715D01*
X135010907Y-56515000D01*
X135123946Y-57083285D01*
X135445853Y-57565054D01*
X135775026Y-57785000D01*
X135445853Y-58004946D01*
X135123946Y-58486715D01*
X135010907Y-59055000D01*
X135123946Y-59623285D01*
X135445853Y-60105054D01*
X135775026Y-60325000D01*
X135445853Y-60544946D01*
X135123946Y-61026715D01*
X135010907Y-61595000D01*
X135123946Y-62163285D01*
X135445853Y-62645054D01*
X135786553Y-62872702D01*
X135643642Y-62939817D01*
X135253355Y-63368076D01*
X135083524Y-63778110D01*
X135204845Y-64008000D01*
X136398000Y-64008000D01*
X136398000Y-63988000D01*
X136652000Y-63988000D01*
X136652000Y-64008000D01*
X137845155Y-64008000D01*
X137966476Y-63778110D01*
X137796645Y-63368076D01*
X137406358Y-62939817D01*
X137263447Y-62872702D01*
X137604147Y-62645054D01*
X137797954Y-62355000D01*
X150815198Y-62355000D01*
X152487628Y-64027430D01*
X152400000Y-64010000D01*
X151130000Y-64010000D01*
X150839161Y-64067852D01*
X150764768Y-64117560D01*
X150616531Y-64117560D01*
X150562148Y-63844161D01*
X150397401Y-63597599D01*
X150150839Y-63432852D01*
X149860000Y-63375000D01*
X147320000Y-63375000D01*
X147029161Y-63432852D01*
X146782599Y-63597599D01*
X146454598Y-63925600D01*
X146236799Y-63835162D01*
X145864833Y-63834838D01*
X145521057Y-63976883D01*
X145257808Y-64239673D01*
X145115162Y-64583201D01*
X145114838Y-64955167D01*
X145256883Y-65298943D01*
X145519673Y-65562192D01*
X145863201Y-65704838D01*
X146235167Y-65705162D01*
X146578943Y-65563117D01*
X146612118Y-65530000D01*
X146685000Y-65530000D01*
X146975839Y-65472148D01*
X147082560Y-65400840D01*
X147082560Y-65415000D01*
X147086937Y-65438261D01*
X146147599Y-66377599D01*
X145982852Y-66624161D01*
X145925000Y-66915000D01*
X145925000Y-69215000D01*
X145982852Y-69505839D01*
X146147599Y-69752401D01*
X147750000Y-71354802D01*
X147750000Y-71737560D01*
X147730000Y-71737560D01*
X147494683Y-71781838D01*
X147278559Y-71920910D01*
X147133569Y-72133110D01*
X147088832Y-72354030D01*
X146985122Y-72250320D01*
X146985162Y-72204833D01*
X146843117Y-71861057D01*
X146580327Y-71597808D01*
X146236799Y-71455162D01*
X145864833Y-71454838D01*
X145521057Y-71596883D01*
X145257808Y-71859673D01*
X145115162Y-72203201D01*
X145114838Y-72575167D01*
X145256883Y-72918943D01*
X145519673Y-73182192D01*
X145863201Y-73324838D01*
X145910077Y-73324879D01*
X147082560Y-74497362D01*
X147082560Y-74935000D01*
X147126838Y-75170317D01*
X147265910Y-75386441D01*
X147478110Y-75531431D01*
X147730000Y-75582440D01*
X147769382Y-75582440D01*
X147807852Y-75775839D01*
X147972599Y-76022401D01*
X151097758Y-79147560D01*
X150860000Y-79147560D01*
X150624683Y-79191838D01*
X150408559Y-79330910D01*
X150263569Y-79543110D01*
X150212560Y-79795000D01*
X150212560Y-81495000D01*
X150256838Y-81730317D01*
X150395910Y-81946441D01*
X150608110Y-82091431D01*
X150860000Y-82142440D01*
X151097758Y-82142440D01*
X150272599Y-82967599D01*
X150107852Y-83214161D01*
X150050000Y-83505000D01*
X150050000Y-85657069D01*
X149958559Y-85715910D01*
X149859367Y-85861083D01*
X149774090Y-85728559D01*
X149670000Y-85657437D01*
X149670000Y-84775000D01*
X149612148Y-84484160D01*
X149447401Y-84237599D01*
X148620000Y-83410198D01*
X148620000Y-82142440D01*
X148860000Y-82142440D01*
X149095317Y-82098162D01*
X149311441Y-81959090D01*
X149456431Y-81746890D01*
X149507440Y-81495000D01*
X149507440Y-79795000D01*
X149463162Y-79559683D01*
X149324090Y-79343559D01*
X149111890Y-79198569D01*
X148860000Y-79147560D01*
X146860000Y-79147560D01*
X146624683Y-79191838D01*
X146408559Y-79330910D01*
X146263569Y-79543110D01*
X146212560Y-79795000D01*
X146212560Y-79885000D01*
X144707463Y-79885000D01*
X144675327Y-79852808D01*
X144331799Y-79710162D01*
X143959833Y-79709838D01*
X143616057Y-79851883D01*
X143352808Y-80114673D01*
X143210162Y-80458201D01*
X143209838Y-80830167D01*
X143351883Y-81173943D01*
X143614673Y-81437192D01*
X143958201Y-81579838D01*
X144330167Y-81580162D01*
X144673943Y-81438117D01*
X144707118Y-81405000D01*
X146212560Y-81405000D01*
X146212560Y-81495000D01*
X146256838Y-81730317D01*
X146395910Y-81946441D01*
X146608110Y-82091431D01*
X146860000Y-82142440D01*
X147100000Y-82142440D01*
X147100000Y-83725000D01*
X147157852Y-84015839D01*
X147322599Y-84262401D01*
X148150000Y-85089802D01*
X148150000Y-85657069D01*
X148058559Y-85715910D01*
X147913569Y-85928110D01*
X147862560Y-86180000D01*
X147862560Y-87080000D01*
X147906838Y-87315317D01*
X148045910Y-87531441D01*
X148258110Y-87676431D01*
X148510000Y-87727440D01*
X149000681Y-87727440D01*
X148863569Y-87928110D01*
X148812560Y-88180000D01*
X148812560Y-89080000D01*
X148856838Y-89315317D01*
X148995910Y-89531441D01*
X149100000Y-89602563D01*
X149100000Y-90805000D01*
X149157852Y-91095839D01*
X149322599Y-91342401D01*
X150891789Y-92911591D01*
X150847560Y-93130000D01*
X150847560Y-94830000D01*
X150891838Y-95065317D01*
X151030910Y-95281441D01*
X151243110Y-95426431D01*
X151495000Y-95477440D01*
X151735000Y-95477440D01*
X151735000Y-96745198D01*
X139385198Y-109095000D01*
X137837440Y-109095000D01*
X137837440Y-108855000D01*
X137793162Y-108619683D01*
X137654090Y-108403559D01*
X137441890Y-108258569D01*
X137190000Y-108207560D01*
X134695000Y-108207560D01*
X134695000Y-100965000D01*
X135010907Y-100965000D01*
X135123946Y-101533285D01*
X135445853Y-102015054D01*
X135775026Y-102235000D01*
X135445853Y-102454946D01*
X135123946Y-102936715D01*
X135010907Y-103505000D01*
X135123946Y-104073285D01*
X135445853Y-104555054D01*
X135927622Y-104876961D01*
X136495907Y-104990000D01*
X136554093Y-104990000D01*
X137122378Y-104876961D01*
X137604147Y-104555054D01*
X137926054Y-104073285D01*
X138039093Y-103505000D01*
X137926054Y-102936715D01*
X137604147Y-102454946D01*
X137274974Y-102235000D01*
X137604147Y-102015054D01*
X137926054Y-101533285D01*
X138039093Y-100965000D01*
X137926054Y-100396715D01*
X137604147Y-99914946D01*
X137263447Y-99687298D01*
X137406358Y-99620183D01*
X137796645Y-99191924D01*
X137966476Y-98781890D01*
X137845155Y-98552000D01*
X136652000Y-98552000D01*
X136652000Y-98572000D01*
X136398000Y-98572000D01*
X136398000Y-98552000D01*
X135204845Y-98552000D01*
X135083524Y-98781890D01*
X135253355Y-99191924D01*
X135643642Y-99620183D01*
X135786553Y-99687298D01*
X135445853Y-99914946D01*
X135123946Y-100396715D01*
X135010907Y-100965000D01*
X134695000Y-100965000D01*
X134695000Y-96241890D01*
X135083524Y-96241890D01*
X135253355Y-96651924D01*
X135643642Y-97080183D01*
X135802954Y-97155000D01*
X135643642Y-97229817D01*
X135253355Y-97658076D01*
X135083524Y-98068110D01*
X135204845Y-98298000D01*
X136398000Y-98298000D01*
X136398000Y-96012000D01*
X136652000Y-96012000D01*
X136652000Y-98298000D01*
X137845155Y-98298000D01*
X137966476Y-98068110D01*
X137796645Y-97658076D01*
X137406358Y-97229817D01*
X137247046Y-97155000D01*
X137406358Y-97080183D01*
X137796645Y-96651924D01*
X137966476Y-96241890D01*
X137845155Y-96012000D01*
X136652000Y-96012000D01*
X136398000Y-96012000D01*
X135204845Y-96012000D01*
X135083524Y-96241890D01*
X134695000Y-96241890D01*
X134695000Y-90673579D01*
X134717599Y-90707401D01*
X134964161Y-90872148D01*
X135255000Y-90930000D01*
X135575198Y-90930000D01*
X136492758Y-91847560D01*
X135675000Y-91847560D01*
X135439683Y-91891838D01*
X135223559Y-92030910D01*
X135078569Y-92243110D01*
X135027560Y-92495000D01*
X135027560Y-94195000D01*
X135071838Y-94430317D01*
X135210910Y-94646441D01*
X135423110Y-94791431D01*
X135531107Y-94813301D01*
X135253355Y-95118076D01*
X135083524Y-95528110D01*
X135204845Y-95758000D01*
X136398000Y-95758000D01*
X136398000Y-95738000D01*
X136652000Y-95738000D01*
X136652000Y-95758000D01*
X137845155Y-95758000D01*
X137966476Y-95528110D01*
X137796645Y-95118076D01*
X137520499Y-94815063D01*
X137610317Y-94798162D01*
X137826441Y-94659090D01*
X137971431Y-94446890D01*
X138022440Y-94195000D01*
X138022440Y-93377242D01*
X142972599Y-98327401D01*
X143219160Y-98492148D01*
X143510000Y-98550000D01*
X145735198Y-98550000D01*
X146384878Y-99199680D01*
X146384838Y-99245167D01*
X146526883Y-99588943D01*
X146789673Y-99852192D01*
X147133201Y-99994838D01*
X147505167Y-99995162D01*
X147848943Y-99853117D01*
X148112192Y-99590327D01*
X148254838Y-99246799D01*
X148255162Y-98874833D01*
X148113117Y-98531057D01*
X147850327Y-98267808D01*
X147506799Y-98125162D01*
X147459923Y-98125121D01*
X146614802Y-97280000D01*
X149297537Y-97280000D01*
X149329673Y-97312192D01*
X149673201Y-97454838D01*
X150045167Y-97455162D01*
X150388943Y-97313117D01*
X150652192Y-97050327D01*
X150794838Y-96706799D01*
X150795162Y-96334833D01*
X150653117Y-95991057D01*
X150390327Y-95727808D01*
X150046799Y-95585162D01*
X149674833Y-95584838D01*
X149331057Y-95726883D01*
X149297882Y-95760000D01*
X144459802Y-95760000D01*
X138022440Y-89322638D01*
X138022440Y-88050000D01*
X137978162Y-87814683D01*
X137839090Y-87598559D01*
X137626890Y-87453569D01*
X137559459Y-87439914D01*
X137604147Y-87410054D01*
X137797954Y-87120000D01*
X142560198Y-87120000D01*
X147654878Y-92214681D01*
X147654838Y-92260167D01*
X147746729Y-92482560D01*
X147495000Y-92482560D01*
X147259683Y-92526838D01*
X147043559Y-92665910D01*
X146898569Y-92878110D01*
X146847560Y-93130000D01*
X146847560Y-93220000D01*
X146685000Y-93220000D01*
X146394161Y-93277852D01*
X146147599Y-93442599D01*
X145910320Y-93679878D01*
X145864833Y-93679838D01*
X145521057Y-93821883D01*
X145257808Y-94084673D01*
X145115162Y-94428201D01*
X145114838Y-94800167D01*
X145256883Y-95143943D01*
X145519673Y-95407192D01*
X145863201Y-95549838D01*
X146235167Y-95550162D01*
X146578943Y-95408117D01*
X146842192Y-95145327D01*
X146886717Y-95038100D01*
X146891838Y-95065317D01*
X147030910Y-95281441D01*
X147243110Y-95426431D01*
X147495000Y-95477440D01*
X149495000Y-95477440D01*
X149730317Y-95433162D01*
X149946441Y-95294090D01*
X150091431Y-95081890D01*
X150142440Y-94830000D01*
X150142440Y-93130000D01*
X150098162Y-92894683D01*
X149959090Y-92678559D01*
X149746890Y-92533569D01*
X149495000Y-92482560D01*
X149433170Y-92482560D01*
X149524838Y-92261799D01*
X149525162Y-91889833D01*
X149383117Y-91546057D01*
X149120327Y-91282808D01*
X148776799Y-91140162D01*
X148729924Y-91140121D01*
X143412401Y-85822599D01*
X143165839Y-85657852D01*
X142875000Y-85600000D01*
X137797954Y-85600000D01*
X137604147Y-85309946D01*
X137274974Y-85090000D01*
X137604147Y-84870054D01*
X137926054Y-84388285D01*
X138039093Y-83820000D01*
X137926054Y-83251715D01*
X137604147Y-82769946D01*
X137274974Y-82550000D01*
X137604147Y-82330054D01*
X137926054Y-81848285D01*
X138039093Y-81280000D01*
X137926054Y-80711715D01*
X137604147Y-80229946D01*
X137274974Y-80010000D01*
X137604147Y-79790054D01*
X137926054Y-79308285D01*
X138039093Y-78740000D01*
X137926054Y-78171715D01*
X137604147Y-77689946D01*
X137263447Y-77462298D01*
X137406358Y-77395183D01*
X137796645Y-76966924D01*
X137966476Y-76556890D01*
X137845155Y-76327000D01*
X136652000Y-76327000D01*
X136652000Y-76347000D01*
X136398000Y-76347000D01*
X136398000Y-76327000D01*
X135204845Y-76327000D01*
X135083524Y-76556890D01*
X135253355Y-76966924D01*
X135643642Y-77395183D01*
X135786553Y-77462298D01*
X135445853Y-77689946D01*
X135123946Y-78171715D01*
X135010907Y-78740000D01*
X135123946Y-79308285D01*
X135445853Y-79790054D01*
X135775026Y-80010000D01*
X135445853Y-80229946D01*
X135123946Y-80711715D01*
X135010907Y-81280000D01*
X135123946Y-81848285D01*
X135445853Y-82330054D01*
X135775026Y-82550000D01*
X135445853Y-82769946D01*
X135123946Y-83251715D01*
X135010907Y-83820000D01*
X135083790Y-84186408D01*
X134717599Y-84552599D01*
X134695000Y-84586421D01*
X134695000Y-73660000D01*
X135010907Y-73660000D01*
X135123946Y-74228285D01*
X135445853Y-74710054D01*
X135786553Y-74937702D01*
X135643642Y-75004817D01*
X135253355Y-75433076D01*
X135083524Y-75843110D01*
X135204845Y-76073000D01*
X136398000Y-76073000D01*
X136398000Y-76053000D01*
X136652000Y-76053000D01*
X136652000Y-76073000D01*
X137845155Y-76073000D01*
X137966476Y-75843110D01*
X137796645Y-75433076D01*
X137406358Y-75004817D01*
X137263447Y-74937702D01*
X137604147Y-74710054D01*
X137926054Y-74228285D01*
X138039093Y-73660000D01*
X137926054Y-73091715D01*
X137604147Y-72609946D01*
X137552097Y-72575167D01*
X143209838Y-72575167D01*
X143351883Y-72918943D01*
X143385000Y-72952118D01*
X143385000Y-74367537D01*
X143352808Y-74399673D01*
X143210162Y-74743201D01*
X143209838Y-75115167D01*
X143351883Y-75458943D01*
X143614673Y-75722192D01*
X143958201Y-75864838D01*
X144330167Y-75865162D01*
X144673943Y-75723117D01*
X144937192Y-75460327D01*
X145079838Y-75116799D01*
X145080162Y-74744833D01*
X144938117Y-74401057D01*
X144905000Y-74367882D01*
X144905000Y-72952463D01*
X144937192Y-72920327D01*
X145079838Y-72576799D01*
X145080162Y-72204833D01*
X144938117Y-71861057D01*
X144675327Y-71597808D01*
X144331799Y-71455162D01*
X143959833Y-71454838D01*
X143616057Y-71596883D01*
X143352808Y-71859673D01*
X143210162Y-72203201D01*
X143209838Y-72575167D01*
X137552097Y-72575167D01*
X137122378Y-72288039D01*
X136554093Y-72175000D01*
X136495907Y-72175000D01*
X135927622Y-72288039D01*
X135445853Y-72609946D01*
X135123946Y-73091715D01*
X135010907Y-73660000D01*
X134695000Y-73660000D01*
X134695000Y-66675000D01*
X135010907Y-66675000D01*
X135123946Y-67243285D01*
X135445853Y-67725054D01*
X135487452Y-67752850D01*
X135439683Y-67761838D01*
X135223559Y-67900910D01*
X135078569Y-68113110D01*
X135027560Y-68365000D01*
X135027560Y-70065000D01*
X135071838Y-70300317D01*
X135210910Y-70516441D01*
X135423110Y-70661431D01*
X135675000Y-70712440D01*
X137375000Y-70712440D01*
X137610317Y-70668162D01*
X137826441Y-70529090D01*
X137971431Y-70316890D01*
X138022440Y-70065000D01*
X138022440Y-68365000D01*
X137978162Y-68129683D01*
X137839090Y-67913559D01*
X137626890Y-67768569D01*
X137559459Y-67754914D01*
X137604147Y-67725054D01*
X137926054Y-67243285D01*
X138039093Y-66675000D01*
X137926054Y-66106715D01*
X137604147Y-65624946D01*
X137263447Y-65397298D01*
X137406358Y-65330183D01*
X137796645Y-64901924D01*
X137966476Y-64491890D01*
X137845155Y-64262000D01*
X136652000Y-64262000D01*
X136652000Y-64282000D01*
X136398000Y-64282000D01*
X136398000Y-64262000D01*
X135204845Y-64262000D01*
X135083524Y-64491890D01*
X135253355Y-64901924D01*
X135643642Y-65330183D01*
X135786553Y-65397298D01*
X135445853Y-65624946D01*
X135123946Y-66106715D01*
X135010907Y-66675000D01*
X134695000Y-66675000D01*
X134695000Y-55320000D01*
X135662781Y-55320000D01*
X135445853Y-55464946D01*
X135445853Y-55464946D01*
G37*
X135445853Y-55464946D02*
X135123946Y-55946715D01*
X135010907Y-56515000D01*
X135123946Y-57083285D01*
X135445853Y-57565054D01*
X135775026Y-57785000D01*
X135445853Y-58004946D01*
X135123946Y-58486715D01*
X135010907Y-59055000D01*
X135123946Y-59623285D01*
X135445853Y-60105054D01*
X135775026Y-60325000D01*
X135445853Y-60544946D01*
X135123946Y-61026715D01*
X135010907Y-61595000D01*
X135123946Y-62163285D01*
X135445853Y-62645054D01*
X135786553Y-62872702D01*
X135643642Y-62939817D01*
X135253355Y-63368076D01*
X135083524Y-63778110D01*
X135204845Y-64008000D01*
X136398000Y-64008000D01*
X136398000Y-63988000D01*
X136652000Y-63988000D01*
X136652000Y-64008000D01*
X137845155Y-64008000D01*
X137966476Y-63778110D01*
X137796645Y-63368076D01*
X137406358Y-62939817D01*
X137263447Y-62872702D01*
X137604147Y-62645054D01*
X137797954Y-62355000D01*
X150815198Y-62355000D01*
X152487628Y-64027430D01*
X152400000Y-64010000D01*
X151130000Y-64010000D01*
X150839161Y-64067852D01*
X150764768Y-64117560D01*
X150616531Y-64117560D01*
X150562148Y-63844161D01*
X150397401Y-63597599D01*
X150150839Y-63432852D01*
X149860000Y-63375000D01*
X147320000Y-63375000D01*
X147029161Y-63432852D01*
X146782599Y-63597599D01*
X146454598Y-63925600D01*
X146236799Y-63835162D01*
X145864833Y-63834838D01*
X145521057Y-63976883D01*
X145257808Y-64239673D01*
X145115162Y-64583201D01*
X145114838Y-64955167D01*
X145256883Y-65298943D01*
X145519673Y-65562192D01*
X145863201Y-65704838D01*
X146235167Y-65705162D01*
X146578943Y-65563117D01*
X146612118Y-65530000D01*
X146685000Y-65530000D01*
X146975839Y-65472148D01*
X147082560Y-65400840D01*
X147082560Y-65415000D01*
X147086937Y-65438261D01*
X146147599Y-66377599D01*
X145982852Y-66624161D01*
X145925000Y-66915000D01*
X145925000Y-69215000D01*
X145982852Y-69505839D01*
X146147599Y-69752401D01*
X147750000Y-71354802D01*
X147750000Y-71737560D01*
X147730000Y-71737560D01*
X147494683Y-71781838D01*
X147278559Y-71920910D01*
X147133569Y-72133110D01*
X147088832Y-72354030D01*
X146985122Y-72250320D01*
X146985162Y-72204833D01*
X146843117Y-71861057D01*
X146580327Y-71597808D01*
X146236799Y-71455162D01*
X145864833Y-71454838D01*
X145521057Y-71596883D01*
X145257808Y-71859673D01*
X145115162Y-72203201D01*
X145114838Y-72575167D01*
X145256883Y-72918943D01*
X145519673Y-73182192D01*
X145863201Y-73324838D01*
X145910077Y-73324879D01*
X147082560Y-74497362D01*
X147082560Y-74935000D01*
X147126838Y-75170317D01*
X147265910Y-75386441D01*
X147478110Y-75531431D01*
X147730000Y-75582440D01*
X147769382Y-75582440D01*
X147807852Y-75775839D01*
X147972599Y-76022401D01*
X151097758Y-79147560D01*
X150860000Y-79147560D01*
X150624683Y-79191838D01*
X150408559Y-79330910D01*
X150263569Y-79543110D01*
X150212560Y-79795000D01*
X150212560Y-81495000D01*
X150256838Y-81730317D01*
X150395910Y-81946441D01*
X150608110Y-82091431D01*
X150860000Y-82142440D01*
X151097758Y-82142440D01*
X150272599Y-82967599D01*
X150107852Y-83214161D01*
X150050000Y-83505000D01*
X150050000Y-85657069D01*
X149958559Y-85715910D01*
X149859367Y-85861083D01*
X149774090Y-85728559D01*
X149670000Y-85657437D01*
X149670000Y-84775000D01*
X149612148Y-84484160D01*
X149447401Y-84237599D01*
X148620000Y-83410198D01*
X148620000Y-82142440D01*
X148860000Y-82142440D01*
X149095317Y-82098162D01*
X149311441Y-81959090D01*
X149456431Y-81746890D01*
X149507440Y-81495000D01*
X149507440Y-79795000D01*
X149463162Y-79559683D01*
X149324090Y-79343559D01*
X149111890Y-79198569D01*
X148860000Y-79147560D01*
X146860000Y-79147560D01*
X146624683Y-79191838D01*
X146408559Y-79330910D01*
X146263569Y-79543110D01*
X146212560Y-79795000D01*
X146212560Y-79885000D01*
X144707463Y-79885000D01*
X144675327Y-79852808D01*
X144331799Y-79710162D01*
X143959833Y-79709838D01*
X143616057Y-79851883D01*
X143352808Y-80114673D01*
X143210162Y-80458201D01*
X143209838Y-80830167D01*
X143351883Y-81173943D01*
X143614673Y-81437192D01*
X143958201Y-81579838D01*
X144330167Y-81580162D01*
X144673943Y-81438117D01*
X144707118Y-81405000D01*
X146212560Y-81405000D01*
X146212560Y-81495000D01*
X146256838Y-81730317D01*
X146395910Y-81946441D01*
X146608110Y-82091431D01*
X146860000Y-82142440D01*
X147100000Y-82142440D01*
X147100000Y-83725000D01*
X147157852Y-84015839D01*
X147322599Y-84262401D01*
X148150000Y-85089802D01*
X148150000Y-85657069D01*
X148058559Y-85715910D01*
X147913569Y-85928110D01*
X147862560Y-86180000D01*
X147862560Y-87080000D01*
X147906838Y-87315317D01*
X148045910Y-87531441D01*
X148258110Y-87676431D01*
X148510000Y-87727440D01*
X149000681Y-87727440D01*
X148863569Y-87928110D01*
X148812560Y-88180000D01*
X148812560Y-89080000D01*
X148856838Y-89315317D01*
X148995910Y-89531441D01*
X149100000Y-89602563D01*
X149100000Y-90805000D01*
X149157852Y-91095839D01*
X149322599Y-91342401D01*
X150891789Y-92911591D01*
X150847560Y-93130000D01*
X150847560Y-94830000D01*
X150891838Y-95065317D01*
X151030910Y-95281441D01*
X151243110Y-95426431D01*
X151495000Y-95477440D01*
X151735000Y-95477440D01*
X151735000Y-96745198D01*
X139385198Y-109095000D01*
X137837440Y-109095000D01*
X137837440Y-108855000D01*
X137793162Y-108619683D01*
X137654090Y-108403559D01*
X137441890Y-108258569D01*
X137190000Y-108207560D01*
X134695000Y-108207560D01*
X134695000Y-100965000D01*
X135010907Y-100965000D01*
X135123946Y-101533285D01*
X135445853Y-102015054D01*
X135775026Y-102235000D01*
X135445853Y-102454946D01*
X135123946Y-102936715D01*
X135010907Y-103505000D01*
X135123946Y-104073285D01*
X135445853Y-104555054D01*
X135927622Y-104876961D01*
X136495907Y-104990000D01*
X136554093Y-104990000D01*
X137122378Y-104876961D01*
X137604147Y-104555054D01*
X137926054Y-104073285D01*
X138039093Y-103505000D01*
X137926054Y-102936715D01*
X137604147Y-102454946D01*
X137274974Y-102235000D01*
X137604147Y-102015054D01*
X137926054Y-101533285D01*
X138039093Y-100965000D01*
X137926054Y-100396715D01*
X137604147Y-99914946D01*
X137263447Y-99687298D01*
X137406358Y-99620183D01*
X137796645Y-99191924D01*
X137966476Y-98781890D01*
X137845155Y-98552000D01*
X136652000Y-98552000D01*
X136652000Y-98572000D01*
X136398000Y-98572000D01*
X136398000Y-98552000D01*
X135204845Y-98552000D01*
X135083524Y-98781890D01*
X135253355Y-99191924D01*
X135643642Y-99620183D01*
X135786553Y-99687298D01*
X135445853Y-99914946D01*
X135123946Y-100396715D01*
X135010907Y-100965000D01*
X134695000Y-100965000D01*
X134695000Y-96241890D01*
X135083524Y-96241890D01*
X135253355Y-96651924D01*
X135643642Y-97080183D01*
X135802954Y-97155000D01*
X135643642Y-97229817D01*
X135253355Y-97658076D01*
X135083524Y-98068110D01*
X135204845Y-98298000D01*
X136398000Y-98298000D01*
X136398000Y-96012000D01*
X136652000Y-96012000D01*
X136652000Y-98298000D01*
X137845155Y-98298000D01*
X137966476Y-98068110D01*
X137796645Y-97658076D01*
X137406358Y-97229817D01*
X137247046Y-97155000D01*
X137406358Y-97080183D01*
X137796645Y-96651924D01*
X137966476Y-96241890D01*
X137845155Y-96012000D01*
X136652000Y-96012000D01*
X136398000Y-96012000D01*
X135204845Y-96012000D01*
X135083524Y-96241890D01*
X134695000Y-96241890D01*
X134695000Y-90673579D01*
X134717599Y-90707401D01*
X134964161Y-90872148D01*
X135255000Y-90930000D01*
X135575198Y-90930000D01*
X136492758Y-91847560D01*
X135675000Y-91847560D01*
X135439683Y-91891838D01*
X135223559Y-92030910D01*
X135078569Y-92243110D01*
X135027560Y-92495000D01*
X135027560Y-94195000D01*
X135071838Y-94430317D01*
X135210910Y-94646441D01*
X135423110Y-94791431D01*
X135531107Y-94813301D01*
X135253355Y-95118076D01*
X135083524Y-95528110D01*
X135204845Y-95758000D01*
X136398000Y-95758000D01*
X136398000Y-95738000D01*
X136652000Y-95738000D01*
X136652000Y-95758000D01*
X137845155Y-95758000D01*
X137966476Y-95528110D01*
X137796645Y-95118076D01*
X137520499Y-94815063D01*
X137610317Y-94798162D01*
X137826441Y-94659090D01*
X137971431Y-94446890D01*
X138022440Y-94195000D01*
X138022440Y-93377242D01*
X142972599Y-98327401D01*
X143219160Y-98492148D01*
X143510000Y-98550000D01*
X145735198Y-98550000D01*
X146384878Y-99199680D01*
X146384838Y-99245167D01*
X146526883Y-99588943D01*
X146789673Y-99852192D01*
X147133201Y-99994838D01*
X147505167Y-99995162D01*
X147848943Y-99853117D01*
X148112192Y-99590327D01*
X148254838Y-99246799D01*
X148255162Y-98874833D01*
X148113117Y-98531057D01*
X147850327Y-98267808D01*
X147506799Y-98125162D01*
X147459923Y-98125121D01*
X146614802Y-97280000D01*
X149297537Y-97280000D01*
X149329673Y-97312192D01*
X149673201Y-97454838D01*
X150045167Y-97455162D01*
X150388943Y-97313117D01*
X150652192Y-97050327D01*
X150794838Y-96706799D01*
X150795162Y-96334833D01*
X150653117Y-95991057D01*
X150390327Y-95727808D01*
X150046799Y-95585162D01*
X149674833Y-95584838D01*
X149331057Y-95726883D01*
X149297882Y-95760000D01*
X144459802Y-95760000D01*
X138022440Y-89322638D01*
X138022440Y-88050000D01*
X137978162Y-87814683D01*
X137839090Y-87598559D01*
X137626890Y-87453569D01*
X137559459Y-87439914D01*
X137604147Y-87410054D01*
X137797954Y-87120000D01*
X142560198Y-87120000D01*
X147654878Y-92214681D01*
X147654838Y-92260167D01*
X147746729Y-92482560D01*
X147495000Y-92482560D01*
X147259683Y-92526838D01*
X147043559Y-92665910D01*
X146898569Y-92878110D01*
X146847560Y-93130000D01*
X146847560Y-93220000D01*
X146685000Y-93220000D01*
X146394161Y-93277852D01*
X146147599Y-93442599D01*
X145910320Y-93679878D01*
X145864833Y-93679838D01*
X145521057Y-93821883D01*
X145257808Y-94084673D01*
X145115162Y-94428201D01*
X145114838Y-94800167D01*
X145256883Y-95143943D01*
X145519673Y-95407192D01*
X145863201Y-95549838D01*
X146235167Y-95550162D01*
X146578943Y-95408117D01*
X146842192Y-95145327D01*
X146886717Y-95038100D01*
X146891838Y-95065317D01*
X147030910Y-95281441D01*
X147243110Y-95426431D01*
X147495000Y-95477440D01*
X149495000Y-95477440D01*
X149730317Y-95433162D01*
X149946441Y-95294090D01*
X150091431Y-95081890D01*
X150142440Y-94830000D01*
X150142440Y-93130000D01*
X150098162Y-92894683D01*
X149959090Y-92678559D01*
X149746890Y-92533569D01*
X149495000Y-92482560D01*
X149433170Y-92482560D01*
X149524838Y-92261799D01*
X149525162Y-91889833D01*
X149383117Y-91546057D01*
X149120327Y-91282808D01*
X148776799Y-91140162D01*
X148729924Y-91140121D01*
X143412401Y-85822599D01*
X143165839Y-85657852D01*
X142875000Y-85600000D01*
X137797954Y-85600000D01*
X137604147Y-85309946D01*
X137274974Y-85090000D01*
X137604147Y-84870054D01*
X137926054Y-84388285D01*
X138039093Y-83820000D01*
X137926054Y-83251715D01*
X137604147Y-82769946D01*
X137274974Y-82550000D01*
X137604147Y-82330054D01*
X137926054Y-81848285D01*
X138039093Y-81280000D01*
X137926054Y-80711715D01*
X137604147Y-80229946D01*
X137274974Y-80010000D01*
X137604147Y-79790054D01*
X137926054Y-79308285D01*
X138039093Y-78740000D01*
X137926054Y-78171715D01*
X137604147Y-77689946D01*
X137263447Y-77462298D01*
X137406358Y-77395183D01*
X137796645Y-76966924D01*
X137966476Y-76556890D01*
X137845155Y-76327000D01*
X136652000Y-76327000D01*
X136652000Y-76347000D01*
X136398000Y-76347000D01*
X136398000Y-76327000D01*
X135204845Y-76327000D01*
X135083524Y-76556890D01*
X135253355Y-76966924D01*
X135643642Y-77395183D01*
X135786553Y-77462298D01*
X135445853Y-77689946D01*
X135123946Y-78171715D01*
X135010907Y-78740000D01*
X135123946Y-79308285D01*
X135445853Y-79790054D01*
X135775026Y-80010000D01*
X135445853Y-80229946D01*
X135123946Y-80711715D01*
X135010907Y-81280000D01*
X135123946Y-81848285D01*
X135445853Y-82330054D01*
X135775026Y-82550000D01*
X135445853Y-82769946D01*
X135123946Y-83251715D01*
X135010907Y-83820000D01*
X135083790Y-84186408D01*
X134717599Y-84552599D01*
X134695000Y-84586421D01*
X134695000Y-73660000D01*
X135010907Y-73660000D01*
X135123946Y-74228285D01*
X135445853Y-74710054D01*
X135786553Y-74937702D01*
X135643642Y-75004817D01*
X135253355Y-75433076D01*
X135083524Y-75843110D01*
X135204845Y-76073000D01*
X136398000Y-76073000D01*
X136398000Y-76053000D01*
X136652000Y-76053000D01*
X136652000Y-76073000D01*
X137845155Y-76073000D01*
X137966476Y-75843110D01*
X137796645Y-75433076D01*
X137406358Y-75004817D01*
X137263447Y-74937702D01*
X137604147Y-74710054D01*
X137926054Y-74228285D01*
X138039093Y-73660000D01*
X137926054Y-73091715D01*
X137604147Y-72609946D01*
X137552097Y-72575167D01*
X143209838Y-72575167D01*
X143351883Y-72918943D01*
X143385000Y-72952118D01*
X143385000Y-74367537D01*
X143352808Y-74399673D01*
X143210162Y-74743201D01*
X143209838Y-75115167D01*
X143351883Y-75458943D01*
X143614673Y-75722192D01*
X143958201Y-75864838D01*
X144330167Y-75865162D01*
X144673943Y-75723117D01*
X144937192Y-75460327D01*
X145079838Y-75116799D01*
X145080162Y-74744833D01*
X144938117Y-74401057D01*
X144905000Y-74367882D01*
X144905000Y-72952463D01*
X144937192Y-72920327D01*
X145079838Y-72576799D01*
X145080162Y-72204833D01*
X144938117Y-71861057D01*
X144675327Y-71597808D01*
X144331799Y-71455162D01*
X143959833Y-71454838D01*
X143616057Y-71596883D01*
X143352808Y-71859673D01*
X143210162Y-72203201D01*
X143209838Y-72575167D01*
X137552097Y-72575167D01*
X137122378Y-72288039D01*
X136554093Y-72175000D01*
X136495907Y-72175000D01*
X135927622Y-72288039D01*
X135445853Y-72609946D01*
X135123946Y-73091715D01*
X135010907Y-73660000D01*
X134695000Y-73660000D01*
X134695000Y-66675000D01*
X135010907Y-66675000D01*
X135123946Y-67243285D01*
X135445853Y-67725054D01*
X135487452Y-67752850D01*
X135439683Y-67761838D01*
X135223559Y-67900910D01*
X135078569Y-68113110D01*
X135027560Y-68365000D01*
X135027560Y-70065000D01*
X135071838Y-70300317D01*
X135210910Y-70516441D01*
X135423110Y-70661431D01*
X135675000Y-70712440D01*
X137375000Y-70712440D01*
X137610317Y-70668162D01*
X137826441Y-70529090D01*
X137971431Y-70316890D01*
X138022440Y-70065000D01*
X138022440Y-68365000D01*
X137978162Y-68129683D01*
X137839090Y-67913559D01*
X137626890Y-67768569D01*
X137559459Y-67754914D01*
X137604147Y-67725054D01*
X137926054Y-67243285D01*
X138039093Y-66675000D01*
X137926054Y-66106715D01*
X137604147Y-65624946D01*
X137263447Y-65397298D01*
X137406358Y-65330183D01*
X137796645Y-64901924D01*
X137966476Y-64491890D01*
X137845155Y-64262000D01*
X136652000Y-64262000D01*
X136652000Y-64282000D01*
X136398000Y-64282000D01*
X136398000Y-64262000D01*
X135204845Y-64262000D01*
X135083524Y-64491890D01*
X135253355Y-64901924D01*
X135643642Y-65330183D01*
X135786553Y-65397298D01*
X135445853Y-65624946D01*
X135123946Y-66106715D01*
X135010907Y-66675000D01*
X134695000Y-66675000D01*
X134695000Y-55320000D01*
X135662781Y-55320000D01*
X135445853Y-55464946D01*
G36*
X154639878Y-74434680D02*
X154639838Y-74480167D01*
X154781883Y-74823943D01*
X155044673Y-75087192D01*
X155388201Y-75229838D01*
X155760167Y-75230162D01*
X156103943Y-75088117D01*
X156333829Y-74858631D01*
X156915198Y-75440000D01*
X156845000Y-75440000D01*
X156554160Y-75497852D01*
X156307599Y-75662599D01*
X155037599Y-76932599D01*
X154872852Y-77179161D01*
X154815000Y-77470000D01*
X154815000Y-87315198D01*
X152169598Y-89960600D01*
X151951799Y-89870162D01*
X151579833Y-89869838D01*
X151236057Y-90011883D01*
X150972808Y-90274673D01*
X150830162Y-90618201D01*
X150830090Y-90700288D01*
X150620000Y-90490198D01*
X150620000Y-89602931D01*
X150711441Y-89544090D01*
X150856431Y-89331890D01*
X150907440Y-89080000D01*
X150907440Y-88180000D01*
X150863162Y-87944683D01*
X150724090Y-87728559D01*
X150722452Y-87727440D01*
X151210000Y-87727440D01*
X151445317Y-87683162D01*
X151661441Y-87544090D01*
X151806431Y-87331890D01*
X151857440Y-87080000D01*
X151857440Y-86180000D01*
X151813162Y-85944683D01*
X151674090Y-85728559D01*
X151570000Y-85657437D01*
X151570000Y-83819802D01*
X152397401Y-82992401D01*
X152562148Y-82745840D01*
X152620000Y-82455000D01*
X152620000Y-82142440D01*
X152860000Y-82142440D01*
X153095317Y-82098162D01*
X153311441Y-81959090D01*
X153456431Y-81746890D01*
X153507440Y-81495000D01*
X153507440Y-79795000D01*
X153463162Y-79559683D01*
X153324090Y-79343559D01*
X153111890Y-79198569D01*
X152860000Y-79147560D01*
X152620000Y-79147560D01*
X152620000Y-78835000D01*
X152562148Y-78544161D01*
X152562148Y-78544160D01*
X152397401Y-78297599D01*
X149593859Y-75494057D01*
X149741441Y-75399090D01*
X149861893Y-75222803D01*
X149891673Y-75294699D01*
X150070302Y-75473327D01*
X150303691Y-75570000D01*
X150924250Y-75570000D01*
X151083000Y-75411250D01*
X151083000Y-74737000D01*
X151337000Y-74737000D01*
X151337000Y-75411250D01*
X151495750Y-75570000D01*
X152116309Y-75570000D01*
X152349698Y-75473327D01*
X152528327Y-75294699D01*
X152625000Y-75061310D01*
X152625000Y-74895750D01*
X152466250Y-74737000D01*
X151337000Y-74737000D01*
X151083000Y-74737000D01*
X151063000Y-74737000D01*
X151063000Y-74632440D01*
X151990000Y-74632440D01*
X152225317Y-74588162D01*
X152388743Y-74483000D01*
X152466250Y-74483000D01*
X152529250Y-74420000D01*
X154625198Y-74420000D01*
X154639878Y-74434680D01*
X154639878Y-74434680D01*
G37*
X154639878Y-74434680D02*
X154639838Y-74480167D01*
X154781883Y-74823943D01*
X155044673Y-75087192D01*
X155388201Y-75229838D01*
X155760167Y-75230162D01*
X156103943Y-75088117D01*
X156333829Y-74858631D01*
X156915198Y-75440000D01*
X156845000Y-75440000D01*
X156554160Y-75497852D01*
X156307599Y-75662599D01*
X155037599Y-76932599D01*
X154872852Y-77179161D01*
X154815000Y-77470000D01*
X154815000Y-87315198D01*
X152169598Y-89960600D01*
X151951799Y-89870162D01*
X151579833Y-89869838D01*
X151236057Y-90011883D01*
X150972808Y-90274673D01*
X150830162Y-90618201D01*
X150830090Y-90700288D01*
X150620000Y-90490198D01*
X150620000Y-89602931D01*
X150711441Y-89544090D01*
X150856431Y-89331890D01*
X150907440Y-89080000D01*
X150907440Y-88180000D01*
X150863162Y-87944683D01*
X150724090Y-87728559D01*
X150722452Y-87727440D01*
X151210000Y-87727440D01*
X151445317Y-87683162D01*
X151661441Y-87544090D01*
X151806431Y-87331890D01*
X151857440Y-87080000D01*
X151857440Y-86180000D01*
X151813162Y-85944683D01*
X151674090Y-85728559D01*
X151570000Y-85657437D01*
X151570000Y-83819802D01*
X152397401Y-82992401D01*
X152562148Y-82745840D01*
X152620000Y-82455000D01*
X152620000Y-82142440D01*
X152860000Y-82142440D01*
X153095317Y-82098162D01*
X153311441Y-81959090D01*
X153456431Y-81746890D01*
X153507440Y-81495000D01*
X153507440Y-79795000D01*
X153463162Y-79559683D01*
X153324090Y-79343559D01*
X153111890Y-79198569D01*
X152860000Y-79147560D01*
X152620000Y-79147560D01*
X152620000Y-78835000D01*
X152562148Y-78544161D01*
X152562148Y-78544160D01*
X152397401Y-78297599D01*
X149593859Y-75494057D01*
X149741441Y-75399090D01*
X149861893Y-75222803D01*
X149891673Y-75294699D01*
X150070302Y-75473327D01*
X150303691Y-75570000D01*
X150924250Y-75570000D01*
X151083000Y-75411250D01*
X151083000Y-74737000D01*
X151337000Y-74737000D01*
X151337000Y-75411250D01*
X151495750Y-75570000D01*
X152116309Y-75570000D01*
X152349698Y-75473327D01*
X152528327Y-75294699D01*
X152625000Y-75061310D01*
X152625000Y-74895750D01*
X152466250Y-74737000D01*
X151337000Y-74737000D01*
X151083000Y-74737000D01*
X151063000Y-74737000D01*
X151063000Y-74632440D01*
X151990000Y-74632440D01*
X152225317Y-74588162D01*
X152388743Y-74483000D01*
X152466250Y-74483000D01*
X152529250Y-74420000D01*
X154625198Y-74420000D01*
X154639878Y-74434680D01*
G36*
X160210853Y-73440054D02*
X160540026Y-73660000D01*
X160210853Y-73879946D01*
X160020000Y-74165578D01*
X159829147Y-73879946D01*
X159488447Y-73652298D01*
X159631358Y-73585183D01*
X160021645Y-73156924D01*
X160021655Y-73156899D01*
X160210853Y-73440054D01*
X160210853Y-73440054D01*
G37*
X160210853Y-73440054D02*
X160540026Y-73660000D01*
X160210853Y-73879946D01*
X160020000Y-74165578D01*
X159829147Y-73879946D01*
X159488447Y-73652298D01*
X159631358Y-73585183D01*
X160021645Y-73156924D01*
X160021655Y-73156899D01*
X160210853Y-73440054D01*
G36*
X157308524Y-72033110D02*
X157429845Y-72263000D01*
X158623000Y-72263000D01*
X158623000Y-72243000D01*
X158877000Y-72243000D01*
X158877000Y-72263000D01*
X158897000Y-72263000D01*
X158897000Y-72517000D01*
X158877000Y-72517000D01*
X158877000Y-72537000D01*
X158623000Y-72537000D01*
X158623000Y-72517000D01*
X157429845Y-72517000D01*
X157308524Y-72746890D01*
X157478355Y-73156924D01*
X157868642Y-73585183D01*
X158011553Y-73652298D01*
X157670853Y-73879946D01*
X157604321Y-73979519D01*
X155797401Y-72172599D01*
X155621463Y-72055041D01*
X155760167Y-72055162D01*
X156103943Y-71913117D01*
X156137118Y-71880000D01*
X157371940Y-71880000D01*
X157308524Y-72033110D01*
X157308524Y-72033110D01*
G37*
X157308524Y-72033110D02*
X157429845Y-72263000D01*
X158623000Y-72263000D01*
X158623000Y-72243000D01*
X158877000Y-72243000D01*
X158877000Y-72263000D01*
X158897000Y-72263000D01*
X158897000Y-72517000D01*
X158877000Y-72517000D01*
X158877000Y-72537000D01*
X158623000Y-72537000D01*
X158623000Y-72517000D01*
X157429845Y-72517000D01*
X157308524Y-72746890D01*
X157478355Y-73156924D01*
X157868642Y-73585183D01*
X158011553Y-73652298D01*
X157670853Y-73879946D01*
X157604321Y-73979519D01*
X155797401Y-72172599D01*
X155621463Y-72055041D01*
X155760167Y-72055162D01*
X156103943Y-71913117D01*
X156137118Y-71880000D01*
X157371940Y-71880000D01*
X157308524Y-72033110D01*
G36*
X153545000Y-66587777D02*
X153545000Y-70054696D01*
X151270268Y-71419534D01*
X151904680Y-70785122D01*
X151950167Y-70785162D01*
X152293943Y-70643117D01*
X152557192Y-70380327D01*
X152699838Y-70036799D01*
X152700162Y-69664833D01*
X152558117Y-69321057D01*
X152452290Y-69215046D01*
X152557192Y-69110327D01*
X152699838Y-68766799D01*
X152700162Y-68394833D01*
X152558117Y-68051057D01*
X152355220Y-67847805D01*
X152528327Y-67674699D01*
X152625000Y-67441310D01*
X152625000Y-67275750D01*
X152466250Y-67117000D01*
X151337000Y-67117000D01*
X151337000Y-67137000D01*
X151083000Y-67137000D01*
X151083000Y-67117000D01*
X151063000Y-67117000D01*
X151063000Y-67012440D01*
X151990000Y-67012440D01*
X152225317Y-66968162D01*
X152388743Y-66863000D01*
X152466250Y-66863000D01*
X152625000Y-66704250D01*
X152625000Y-66538690D01*
X152609732Y-66501829D01*
X152637440Y-66365000D01*
X152637440Y-66285257D01*
X153545000Y-66587777D01*
X153545000Y-66587777D01*
G37*
X153545000Y-66587777D02*
X153545000Y-70054696D01*
X151270268Y-71419534D01*
X151904680Y-70785122D01*
X151950167Y-70785162D01*
X152293943Y-70643117D01*
X152557192Y-70380327D01*
X152699838Y-70036799D01*
X152700162Y-69664833D01*
X152558117Y-69321057D01*
X152452290Y-69215046D01*
X152557192Y-69110327D01*
X152699838Y-68766799D01*
X152700162Y-68394833D01*
X152558117Y-68051057D01*
X152355220Y-67847805D01*
X152528327Y-67674699D01*
X152625000Y-67441310D01*
X152625000Y-67275750D01*
X152466250Y-67117000D01*
X151337000Y-67117000D01*
X151337000Y-67137000D01*
X151083000Y-67137000D01*
X151083000Y-67117000D01*
X151063000Y-67117000D01*
X151063000Y-67012440D01*
X151990000Y-67012440D01*
X152225317Y-66968162D01*
X152388743Y-66863000D01*
X152466250Y-66863000D01*
X152625000Y-66704250D01*
X152625000Y-66538690D01*
X152609732Y-66501829D01*
X152637440Y-66365000D01*
X152637440Y-66285257D01*
X153545000Y-66587777D01*
M02*
