G04 #@! TF.FileFunction,Legend,Bot*
%FSLAX46Y46*%
G04 Gerber Fmt 4.6, Leading zero omitted, Abs format (unit mm)*
G04 Created by KiCad (PCBNEW 4.0.7) date 08/28/18 16:08:13*
%MOMM*%
%LPD*%
G01*
G04 APERTURE LIST*
%ADD10C,0.100000*%
%ADD11C,0.120000*%
%ADD12C,0.150000*%
G04 APERTURE END LIST*
D10*
D11*
X151495000Y-92910000D02*
X149495000Y-92910000D01*
X149495000Y-95050000D02*
X151495000Y-95050000D01*
X150860000Y-79575000D02*
X148860000Y-79575000D01*
X148860000Y-81715000D02*
X150860000Y-81715000D01*
X151440000Y-88390000D02*
X150510000Y-88390000D01*
X148280000Y-88390000D02*
X149210000Y-88390000D01*
X148280000Y-88390000D02*
X148280000Y-86230000D01*
X151440000Y-88390000D02*
X151440000Y-86930000D01*
X150760000Y-67650000D02*
X148960000Y-67650000D01*
X148960000Y-64430000D02*
X151410000Y-64430000D01*
X150760000Y-75270000D02*
X148960000Y-75270000D01*
X148960000Y-72050000D02*
X151410000Y-72050000D01*
D12*
X150661666Y-96282381D02*
X150995000Y-95806190D01*
X151233095Y-96282381D02*
X151233095Y-95282381D01*
X150852142Y-95282381D01*
X150756904Y-95330000D01*
X150709285Y-95377619D01*
X150661666Y-95472857D01*
X150661666Y-95615714D01*
X150709285Y-95710952D01*
X150756904Y-95758571D01*
X150852142Y-95806190D01*
X151233095Y-95806190D01*
X150280714Y-95377619D02*
X150233095Y-95330000D01*
X150137857Y-95282381D01*
X149899761Y-95282381D01*
X149804523Y-95330000D01*
X149756904Y-95377619D01*
X149709285Y-95472857D01*
X149709285Y-95568095D01*
X149756904Y-95710952D01*
X150328333Y-96282381D01*
X149709285Y-96282381D01*
X151090238Y-92532381D02*
X151661667Y-92532381D01*
X151375953Y-92532381D02*
X151375953Y-91532381D01*
X151471191Y-91675238D01*
X151566429Y-91770476D01*
X151661667Y-91818095D01*
X150471191Y-91532381D02*
X150375952Y-91532381D01*
X150280714Y-91580000D01*
X150233095Y-91627619D01*
X150185476Y-91722857D01*
X150137857Y-91913333D01*
X150137857Y-92151429D01*
X150185476Y-92341905D01*
X150233095Y-92437143D01*
X150280714Y-92484762D01*
X150375952Y-92532381D01*
X150471191Y-92532381D01*
X150566429Y-92484762D01*
X150614048Y-92437143D01*
X150661667Y-92341905D01*
X150709286Y-92151429D01*
X150709286Y-91913333D01*
X150661667Y-91722857D01*
X150614048Y-91627619D01*
X150566429Y-91580000D01*
X150471191Y-91532381D01*
X149709286Y-92532381D02*
X149709286Y-91532381D01*
X149614048Y-92151429D02*
X149328333Y-92532381D01*
X149328333Y-91865714D02*
X149709286Y-92246667D01*
X150026666Y-82947381D02*
X150360000Y-82471190D01*
X150598095Y-82947381D02*
X150598095Y-81947381D01*
X150217142Y-81947381D01*
X150121904Y-81995000D01*
X150074285Y-82042619D01*
X150026666Y-82137857D01*
X150026666Y-82280714D01*
X150074285Y-82375952D01*
X150121904Y-82423571D01*
X150217142Y-82471190D01*
X150598095Y-82471190D01*
X149693333Y-81947381D02*
X149074285Y-81947381D01*
X149407619Y-82328333D01*
X149264761Y-82328333D01*
X149169523Y-82375952D01*
X149121904Y-82423571D01*
X149074285Y-82518810D01*
X149074285Y-82756905D01*
X149121904Y-82852143D01*
X149169523Y-82899762D01*
X149264761Y-82947381D01*
X149550476Y-82947381D01*
X149645714Y-82899762D01*
X149693333Y-82852143D01*
X150455238Y-79197381D02*
X151026667Y-79197381D01*
X150740953Y-79197381D02*
X150740953Y-78197381D01*
X150836191Y-78340238D01*
X150931429Y-78435476D01*
X151026667Y-78483095D01*
X149836191Y-78197381D02*
X149740952Y-78197381D01*
X149645714Y-78245000D01*
X149598095Y-78292619D01*
X149550476Y-78387857D01*
X149502857Y-78578333D01*
X149502857Y-78816429D01*
X149550476Y-79006905D01*
X149598095Y-79102143D01*
X149645714Y-79149762D01*
X149740952Y-79197381D01*
X149836191Y-79197381D01*
X149931429Y-79149762D01*
X149979048Y-79102143D01*
X150026667Y-79006905D01*
X150074286Y-78816429D01*
X150074286Y-78578333D01*
X150026667Y-78387857D01*
X149979048Y-78292619D01*
X149931429Y-78245000D01*
X149836191Y-78197381D01*
X149074286Y-79197381D02*
X149074286Y-78197381D01*
X148979048Y-78816429D02*
X148693333Y-79197381D01*
X148693333Y-78530714D02*
X149074286Y-78911667D01*
X147907619Y-87534762D02*
X147860000Y-87439524D01*
X147764762Y-87344286D01*
X147621905Y-87201429D01*
X147574286Y-87106190D01*
X147574286Y-87010952D01*
X147812381Y-87058571D02*
X147764762Y-86963333D01*
X147669524Y-86868095D01*
X147479048Y-86820476D01*
X147145714Y-86820476D01*
X146955238Y-86868095D01*
X146860000Y-86963333D01*
X146812381Y-87058571D01*
X146812381Y-87249048D01*
X146860000Y-87344286D01*
X146955238Y-87439524D01*
X147145714Y-87487143D01*
X147479048Y-87487143D01*
X147669524Y-87439524D01*
X147764762Y-87344286D01*
X147812381Y-87249048D01*
X147812381Y-87058571D01*
X147812381Y-88439524D02*
X147812381Y-87868095D01*
X147812381Y-88153809D02*
X146812381Y-88153809D01*
X146955238Y-88058571D01*
X147050476Y-87963333D01*
X147098095Y-87868095D01*
X152288571Y-85320477D02*
X152336190Y-85463334D01*
X152383810Y-85510953D01*
X152479048Y-85558572D01*
X152621905Y-85558572D01*
X152717143Y-85510953D01*
X152764762Y-85463334D01*
X152812381Y-85368096D01*
X152812381Y-84987143D01*
X151812381Y-84987143D01*
X151812381Y-85320477D01*
X151860000Y-85415715D01*
X151907619Y-85463334D01*
X152002857Y-85510953D01*
X152098095Y-85510953D01*
X152193333Y-85463334D01*
X152240952Y-85415715D01*
X152288571Y-85320477D01*
X152288571Y-84987143D01*
X152764762Y-85939524D02*
X152812381Y-86082381D01*
X152812381Y-86320477D01*
X152764762Y-86415715D01*
X152717143Y-86463334D01*
X152621905Y-86510953D01*
X152526667Y-86510953D01*
X152431429Y-86463334D01*
X152383810Y-86415715D01*
X152336190Y-86320477D01*
X152288571Y-86130000D01*
X152240952Y-86034762D01*
X152193333Y-85987143D01*
X152098095Y-85939524D01*
X152002857Y-85939524D01*
X151907619Y-85987143D01*
X151860000Y-86034762D01*
X151812381Y-86130000D01*
X151812381Y-86368096D01*
X151860000Y-86510953D01*
X152764762Y-86891905D02*
X152812381Y-87034762D01*
X152812381Y-87272858D01*
X152764762Y-87368096D01*
X152717143Y-87415715D01*
X152621905Y-87463334D01*
X152526667Y-87463334D01*
X152431429Y-87415715D01*
X152383810Y-87368096D01*
X152336190Y-87272858D01*
X152288571Y-87082381D01*
X152240952Y-86987143D01*
X152193333Y-86939524D01*
X152098095Y-86891905D01*
X152002857Y-86891905D01*
X151907619Y-86939524D01*
X151860000Y-86987143D01*
X151812381Y-87082381D01*
X151812381Y-87320477D01*
X151860000Y-87463334D01*
X152812381Y-88415715D02*
X152812381Y-87844286D01*
X152812381Y-88130000D02*
X151812381Y-88130000D01*
X151955238Y-88034762D01*
X152050476Y-87939524D01*
X152098095Y-87844286D01*
X151812381Y-88749048D02*
X151812381Y-89368096D01*
X152193333Y-89034762D01*
X152193333Y-89177620D01*
X152240952Y-89272858D01*
X152288571Y-89320477D01*
X152383810Y-89368096D01*
X152621905Y-89368096D01*
X152717143Y-89320477D01*
X152764762Y-89272858D01*
X152812381Y-89177620D01*
X152812381Y-88891905D01*
X152764762Y-88796667D01*
X152717143Y-88749048D01*
X152240952Y-89939524D02*
X152193333Y-89844286D01*
X152145714Y-89796667D01*
X152050476Y-89749048D01*
X152002857Y-89749048D01*
X151907619Y-89796667D01*
X151860000Y-89844286D01*
X151812381Y-89939524D01*
X151812381Y-90130001D01*
X151860000Y-90225239D01*
X151907619Y-90272858D01*
X152002857Y-90320477D01*
X152050476Y-90320477D01*
X152145714Y-90272858D01*
X152193333Y-90225239D01*
X152240952Y-90130001D01*
X152240952Y-89939524D01*
X152288571Y-89844286D01*
X152336190Y-89796667D01*
X152431429Y-89749048D01*
X152621905Y-89749048D01*
X152717143Y-89796667D01*
X152764762Y-89844286D01*
X152812381Y-89939524D01*
X152812381Y-90130001D01*
X152764762Y-90225239D01*
X152717143Y-90272858D01*
X152621905Y-90320477D01*
X152431429Y-90320477D01*
X152336190Y-90272858D01*
X152288571Y-90225239D01*
X152240952Y-90130001D01*
X150621905Y-62592381D02*
X150621905Y-63401905D01*
X150574286Y-63497143D01*
X150526667Y-63544762D01*
X150431429Y-63592381D01*
X150240952Y-63592381D01*
X150145714Y-63544762D01*
X150098095Y-63497143D01*
X150050476Y-63401905D01*
X150050476Y-62592381D01*
X149621905Y-62687619D02*
X149574286Y-62640000D01*
X149479048Y-62592381D01*
X149240952Y-62592381D01*
X149145714Y-62640000D01*
X149098095Y-62687619D01*
X149050476Y-62782857D01*
X149050476Y-62878095D01*
X149098095Y-63020952D01*
X149669524Y-63592381D01*
X149050476Y-63592381D01*
X154407619Y-68392381D02*
X153740952Y-68392381D01*
X154169524Y-69392381D01*
X152931428Y-68725714D02*
X152931428Y-69392381D01*
X153169524Y-68344762D02*
X153407619Y-69059048D01*
X152788571Y-69059048D01*
X151931428Y-69392381D02*
X152407619Y-69392381D01*
X152407619Y-68392381D01*
X151740952Y-68392381D02*
X151407619Y-69392381D01*
X151074285Y-68392381D01*
X150169523Y-69297143D02*
X150217142Y-69344762D01*
X150359999Y-69392381D01*
X150455237Y-69392381D01*
X150598095Y-69344762D01*
X150693333Y-69249524D01*
X150740952Y-69154286D01*
X150788571Y-68963810D01*
X150788571Y-68820952D01*
X150740952Y-68630476D01*
X150693333Y-68535238D01*
X150598095Y-68440000D01*
X150455237Y-68392381D01*
X150359999Y-68392381D01*
X150217142Y-68440000D01*
X150169523Y-68487619D01*
X149217142Y-69392381D02*
X149788571Y-69392381D01*
X149502857Y-69392381D02*
X149502857Y-68392381D01*
X149598095Y-68535238D01*
X149693333Y-68630476D01*
X149788571Y-68678095D01*
X148264761Y-68440000D02*
X148359999Y-68392381D01*
X148502856Y-68392381D01*
X148645714Y-68440000D01*
X148740952Y-68535238D01*
X148788571Y-68630476D01*
X148836190Y-68820952D01*
X148836190Y-68963810D01*
X148788571Y-69154286D01*
X148740952Y-69249524D01*
X148645714Y-69344762D01*
X148502856Y-69392381D01*
X148407618Y-69392381D01*
X148264761Y-69344762D01*
X148217142Y-69297143D01*
X148217142Y-68963810D01*
X148407618Y-68963810D01*
X147264761Y-69392381D02*
X147836190Y-69392381D01*
X147550476Y-69392381D02*
X147550476Y-68392381D01*
X147645714Y-68535238D01*
X147740952Y-68630476D01*
X147836190Y-68678095D01*
X146883809Y-68487619D02*
X146836190Y-68440000D01*
X146740952Y-68392381D01*
X146502856Y-68392381D01*
X146407618Y-68440000D01*
X146359999Y-68487619D01*
X146312380Y-68582857D01*
X146312380Y-68678095D01*
X146359999Y-68820952D01*
X146931428Y-69392381D01*
X146312380Y-69392381D01*
X145407618Y-68392381D02*
X145883809Y-68392381D01*
X145931428Y-68868571D01*
X145883809Y-68820952D01*
X145788571Y-68773333D01*
X145550475Y-68773333D01*
X145455237Y-68820952D01*
X145407618Y-68868571D01*
X145359999Y-68963810D01*
X145359999Y-69201905D01*
X145407618Y-69297143D01*
X145455237Y-69344762D01*
X145550475Y-69392381D01*
X145788571Y-69392381D01*
X145883809Y-69344762D01*
X145931428Y-69297143D01*
X150621905Y-70212381D02*
X150621905Y-71021905D01*
X150574286Y-71117143D01*
X150526667Y-71164762D01*
X150431429Y-71212381D01*
X150240952Y-71212381D01*
X150145714Y-71164762D01*
X150098095Y-71117143D01*
X150050476Y-71021905D01*
X150050476Y-70212381D01*
X149669524Y-70212381D02*
X149050476Y-70212381D01*
X149383810Y-70593333D01*
X149240952Y-70593333D01*
X149145714Y-70640952D01*
X149098095Y-70688571D01*
X149050476Y-70783810D01*
X149050476Y-71021905D01*
X149098095Y-71117143D01*
X149145714Y-71164762D01*
X149240952Y-71212381D01*
X149526667Y-71212381D01*
X149621905Y-71164762D01*
X149669524Y-71117143D01*
X154407619Y-76012381D02*
X153740952Y-76012381D01*
X154169524Y-77012381D01*
X152931428Y-76345714D02*
X152931428Y-77012381D01*
X153169524Y-75964762D02*
X153407619Y-76679048D01*
X152788571Y-76679048D01*
X151931428Y-77012381D02*
X152407619Y-77012381D01*
X152407619Y-76012381D01*
X151740952Y-76012381D02*
X151407619Y-77012381D01*
X151074285Y-76012381D01*
X150169523Y-76917143D02*
X150217142Y-76964762D01*
X150359999Y-77012381D01*
X150455237Y-77012381D01*
X150598095Y-76964762D01*
X150693333Y-76869524D01*
X150740952Y-76774286D01*
X150788571Y-76583810D01*
X150788571Y-76440952D01*
X150740952Y-76250476D01*
X150693333Y-76155238D01*
X150598095Y-76060000D01*
X150455237Y-76012381D01*
X150359999Y-76012381D01*
X150217142Y-76060000D01*
X150169523Y-76107619D01*
X149217142Y-77012381D02*
X149788571Y-77012381D01*
X149502857Y-77012381D02*
X149502857Y-76012381D01*
X149598095Y-76155238D01*
X149693333Y-76250476D01*
X149788571Y-76298095D01*
X148264761Y-76060000D02*
X148359999Y-76012381D01*
X148502856Y-76012381D01*
X148645714Y-76060000D01*
X148740952Y-76155238D01*
X148788571Y-76250476D01*
X148836190Y-76440952D01*
X148836190Y-76583810D01*
X148788571Y-76774286D01*
X148740952Y-76869524D01*
X148645714Y-76964762D01*
X148502856Y-77012381D01*
X148407618Y-77012381D01*
X148264761Y-76964762D01*
X148217142Y-76917143D01*
X148217142Y-76583810D01*
X148407618Y-76583810D01*
X147264761Y-77012381D02*
X147836190Y-77012381D01*
X147550476Y-77012381D02*
X147550476Y-76012381D01*
X147645714Y-76155238D01*
X147740952Y-76250476D01*
X147836190Y-76298095D01*
X146883809Y-76107619D02*
X146836190Y-76060000D01*
X146740952Y-76012381D01*
X146502856Y-76012381D01*
X146407618Y-76060000D01*
X146359999Y-76107619D01*
X146312380Y-76202857D01*
X146312380Y-76298095D01*
X146359999Y-76440952D01*
X146931428Y-77012381D01*
X146312380Y-77012381D01*
X145455237Y-76012381D02*
X145645714Y-76012381D01*
X145740952Y-76060000D01*
X145788571Y-76107619D01*
X145883809Y-76250476D01*
X145931428Y-76440952D01*
X145931428Y-76821905D01*
X145883809Y-76917143D01*
X145836190Y-76964762D01*
X145740952Y-77012381D01*
X145550475Y-77012381D01*
X145455237Y-76964762D01*
X145407618Y-76917143D01*
X145359999Y-76821905D01*
X145359999Y-76583810D01*
X145407618Y-76488571D01*
X145455237Y-76440952D01*
X145550475Y-76393333D01*
X145740952Y-76393333D01*
X145836190Y-76440952D01*
X145883809Y-76488571D01*
X145931428Y-76583810D01*
M02*
