M48
;DRILL file {KiCad 4.0.7} date 08/28/18 16:08:22
;FORMAT={-:-/ absolute / inch / decimal}
FMAT,2
INCH,TZ
T1C0.016
T2C0.039
T3C0.047
%
G90
G05
M72
T1
X5.675Y-2.85
X5.675Y-2.95
X5.675Y-3.175
X5.75Y-2.55
X5.75Y-2.85
X5.75Y-3.725
X5.8Y-3.9
X5.85Y-3.625
X5.9Y-3.8
X5.975Y-2.7
X5.975Y-2.75
X5.975Y-3.575
X6.Y-2.375
X6.075Y-3.35
X6.125Y-2.45
X6.125Y-2.725
X6.125Y-2.8
X6.125Y-2.925
X6.125Y-4.225
T2
X5.375Y-2.225
X5.375Y-2.325
X5.375Y-2.425
X5.375Y-2.525
X5.375Y-2.625
X5.375Y-2.725
X5.375Y-2.9
X5.375Y-3.
X5.375Y-3.1
X5.375Y-3.2
X5.375Y-3.3
X5.375Y-3.4
X5.375Y-3.5
X5.375Y-3.675
X5.375Y-3.775
X5.375Y-3.875
X5.375Y-3.975
X5.375Y-4.075
X6.25Y-2.45
X6.25Y-2.55
X6.25Y-2.65
X6.25Y-2.75
X6.25Y-2.85
X6.25Y-2.95
X6.25Y-3.05
X6.25Y-3.15
X6.25Y-3.25
X6.25Y-3.35
X6.25Y-3.45
X6.25Y-3.55
X6.25Y-3.65
X6.25Y-3.75
X6.25Y-3.85
X6.25Y-3.95
X6.25Y-4.05
X6.25Y-4.15
X6.25Y-4.25
X6.25Y-4.35
X6.35Y-2.45
X6.35Y-2.55
X6.35Y-2.65
X6.35Y-2.75
X6.35Y-2.85
X6.35Y-2.95
X6.35Y-3.05
X6.35Y-3.15
X6.35Y-3.25
X6.35Y-3.35
X6.35Y-3.45
X6.35Y-3.55
X6.35Y-3.65
X6.35Y-3.75
X6.35Y-3.85
X6.35Y-3.95
X6.35Y-4.05
X6.35Y-4.15
X6.35Y-4.25
X6.35Y-4.35
T3
X5.35Y-4.325
X5.35Y-4.425
X5.35Y-4.525
T0
M30
