M48
;DRILL file {KiCad (5.0.1-3-g963ef8bb5)} date Saturday, November 24, 2018 at 03:45:21 PM
;FORMAT={-:-/ absolute / inch / decimal}
FMAT,2
INCH,TZ
T1C0.0157
T2C0.0394
T3C0.0472
%
G90
G05
M72
T1
X5.675Y-2.575
X5.825Y-2.575
X5.952Y-2.724
X6.175Y-2.55
X6.275Y-2.55
X6.475Y-2.45
X6.475Y-2.75
X6.5451Y-2.4701
X6.6Y-2.575
X6.6Y-2.675
T2
X5.275Y-2.35
X5.275Y-2.45
X5.275Y-2.55
X5.275Y-2.65
X6.7Y-2.35
X6.7Y-2.45
X6.7Y-2.55
X6.7Y-2.65
X6.7Y-2.75
X6.8Y-2.35
X6.8Y-2.45
X6.8Y-2.55
X6.8Y-2.65
X6.8Y-2.75
X5.425Y-2.35
X5.425Y-2.45
X5.425Y-2.55
X5.425Y-2.65
T3
X6.275Y-2.325
X6.375Y-2.325
X6.475Y-2.325
T0
M30
