G04 #@! TF.GenerationSoftware,KiCad,Pcbnew,(5.0.1-3-g963ef8bb5)*
G04 #@! TF.CreationDate,2018-11-24T15:45:27-07:00*
G04 #@! TF.ProjectId,robot,726F626F742E6B696361645F70636200,rev?*
G04 #@! TF.SameCoordinates,Original*
G04 #@! TF.FileFunction,Soldermask,Top*
G04 #@! TF.FilePolarity,Negative*
%FSLAX46Y46*%
G04 Gerber Fmt 4.6, Leading zero omitted, Abs format (unit mm)*
G04 Created by KiCad (PCBNEW (5.0.1-3-g963ef8bb5)) date Saturday, November 24, 2018 at 03:45:27 PM*
%MOMM*%
%LPD*%
G01*
G04 APERTURE LIST*
%ADD10C,0.100000*%
G04 APERTURE END LIST*
D10*
G36*
X172848707Y-68807596D02*
X172925836Y-68815193D01*
X173057787Y-68855220D01*
X173123763Y-68875233D01*
X173306172Y-68972733D01*
X173466054Y-69103946D01*
X173597267Y-69263828D01*
X173694767Y-69446237D01*
X173694767Y-69446238D01*
X173754807Y-69644164D01*
X173775080Y-69850000D01*
X173754807Y-70055836D01*
X173714780Y-70187787D01*
X173694767Y-70253763D01*
X173597267Y-70436172D01*
X173466054Y-70596054D01*
X173306172Y-70727267D01*
X173123763Y-70824767D01*
X173057787Y-70844780D01*
X172925836Y-70884807D01*
X172848707Y-70892404D01*
X172771580Y-70900000D01*
X172668420Y-70900000D01*
X172591293Y-70892404D01*
X172514164Y-70884807D01*
X172382213Y-70844780D01*
X172316237Y-70824767D01*
X172133828Y-70727267D01*
X171973946Y-70596054D01*
X171842733Y-70436172D01*
X171745233Y-70253763D01*
X171725220Y-70187787D01*
X171685193Y-70055836D01*
X171664920Y-69850000D01*
X171685193Y-69644164D01*
X171745233Y-69446238D01*
X171745233Y-69446237D01*
X171842733Y-69263828D01*
X171973946Y-69103946D01*
X172133828Y-68972733D01*
X172316237Y-68875233D01*
X172382213Y-68855220D01*
X172514164Y-68815193D01*
X172591293Y-68807596D01*
X172668420Y-68800000D01*
X172771580Y-68800000D01*
X172848707Y-68807596D01*
X172848707Y-68807596D01*
G37*
G36*
X170308707Y-68807596D02*
X170385836Y-68815193D01*
X170517787Y-68855220D01*
X170583763Y-68875233D01*
X170766172Y-68972733D01*
X170926054Y-69103946D01*
X171057267Y-69263828D01*
X171154767Y-69446237D01*
X171154767Y-69446238D01*
X171214807Y-69644164D01*
X171235080Y-69850000D01*
X171214807Y-70055836D01*
X171174780Y-70187787D01*
X171154767Y-70253763D01*
X171057267Y-70436172D01*
X170926054Y-70596054D01*
X170766172Y-70727267D01*
X170583763Y-70824767D01*
X170517787Y-70844780D01*
X170385836Y-70884807D01*
X170308707Y-70892404D01*
X170231580Y-70900000D01*
X170128420Y-70900000D01*
X170051293Y-70892404D01*
X169974164Y-70884807D01*
X169842213Y-70844780D01*
X169776237Y-70824767D01*
X169593828Y-70727267D01*
X169433946Y-70596054D01*
X169302733Y-70436172D01*
X169205233Y-70253763D01*
X169185220Y-70187787D01*
X169145193Y-70055836D01*
X169124920Y-69850000D01*
X169145193Y-69644164D01*
X169205233Y-69446238D01*
X169205233Y-69446237D01*
X169302733Y-69263828D01*
X169433946Y-69103946D01*
X169593828Y-68972733D01*
X169776237Y-68875233D01*
X169842213Y-68855220D01*
X169974164Y-68815193D01*
X170051293Y-68807596D01*
X170128420Y-68800000D01*
X170231580Y-68800000D01*
X170308707Y-68807596D01*
X170308707Y-68807596D01*
G37*
G36*
X172848707Y-66267596D02*
X172925836Y-66275193D01*
X173057787Y-66315220D01*
X173123763Y-66335233D01*
X173306172Y-66432733D01*
X173466054Y-66563946D01*
X173597267Y-66723828D01*
X173694767Y-66906237D01*
X173694767Y-66906238D01*
X173754807Y-67104164D01*
X173775080Y-67310000D01*
X173754807Y-67515836D01*
X173714780Y-67647787D01*
X173694767Y-67713763D01*
X173597267Y-67896172D01*
X173466054Y-68056054D01*
X173306172Y-68187267D01*
X173123763Y-68284767D01*
X173057787Y-68304780D01*
X172925836Y-68344807D01*
X172848707Y-68352404D01*
X172771580Y-68360000D01*
X172668420Y-68360000D01*
X172591293Y-68352404D01*
X172514164Y-68344807D01*
X172382213Y-68304780D01*
X172316237Y-68284767D01*
X172133828Y-68187267D01*
X171973946Y-68056054D01*
X171842733Y-67896172D01*
X171745233Y-67713763D01*
X171725220Y-67647787D01*
X171685193Y-67515836D01*
X171664920Y-67310000D01*
X171685193Y-67104164D01*
X171745233Y-66906238D01*
X171745233Y-66906237D01*
X171842733Y-66723828D01*
X171973946Y-66563946D01*
X172133828Y-66432733D01*
X172316237Y-66335233D01*
X172382213Y-66315220D01*
X172514164Y-66275193D01*
X172591293Y-66267596D01*
X172668420Y-66260000D01*
X172771580Y-66260000D01*
X172848707Y-66267596D01*
X172848707Y-66267596D01*
G37*
G36*
X170308707Y-66267596D02*
X170385836Y-66275193D01*
X170517787Y-66315220D01*
X170583763Y-66335233D01*
X170766172Y-66432733D01*
X170926054Y-66563946D01*
X171057267Y-66723828D01*
X171154767Y-66906237D01*
X171154767Y-66906238D01*
X171214807Y-67104164D01*
X171235080Y-67310000D01*
X171214807Y-67515836D01*
X171174780Y-67647787D01*
X171154767Y-67713763D01*
X171057267Y-67896172D01*
X170926054Y-68056054D01*
X170766172Y-68187267D01*
X170583763Y-68284767D01*
X170517787Y-68304780D01*
X170385836Y-68344807D01*
X170308707Y-68352404D01*
X170231580Y-68360000D01*
X170128420Y-68360000D01*
X170051293Y-68352404D01*
X169974164Y-68344807D01*
X169842213Y-68304780D01*
X169776237Y-68284767D01*
X169593828Y-68187267D01*
X169433946Y-68056054D01*
X169302733Y-67896172D01*
X169205233Y-67713763D01*
X169185220Y-67647787D01*
X169145193Y-67515836D01*
X169124920Y-67310000D01*
X169145193Y-67104164D01*
X169205233Y-66906238D01*
X169205233Y-66906237D01*
X169302733Y-66723828D01*
X169433946Y-66563946D01*
X169593828Y-66432733D01*
X169776237Y-66335233D01*
X169842213Y-66315220D01*
X169974164Y-66275193D01*
X170051293Y-66267596D01*
X170128420Y-66260000D01*
X170231580Y-66260000D01*
X170308707Y-66267596D01*
X170308707Y-66267596D01*
G37*
G36*
X137923707Y-66267596D02*
X138000836Y-66275193D01*
X138132787Y-66315220D01*
X138198763Y-66335233D01*
X138381172Y-66432733D01*
X138541054Y-66563946D01*
X138672267Y-66723828D01*
X138769767Y-66906237D01*
X138769767Y-66906238D01*
X138829807Y-67104164D01*
X138850080Y-67310000D01*
X138829807Y-67515836D01*
X138789780Y-67647787D01*
X138769767Y-67713763D01*
X138672267Y-67896172D01*
X138541054Y-68056054D01*
X138381172Y-68187267D01*
X138198763Y-68284767D01*
X138132787Y-68304780D01*
X138000836Y-68344807D01*
X137923707Y-68352404D01*
X137846580Y-68360000D01*
X137743420Y-68360000D01*
X137666293Y-68352404D01*
X137589164Y-68344807D01*
X137457213Y-68304780D01*
X137391237Y-68284767D01*
X137208828Y-68187267D01*
X137048946Y-68056054D01*
X136917733Y-67896172D01*
X136820233Y-67713763D01*
X136800220Y-67647787D01*
X136760193Y-67515836D01*
X136739920Y-67310000D01*
X136760193Y-67104164D01*
X136820233Y-66906238D01*
X136820233Y-66906237D01*
X136917733Y-66723828D01*
X137048946Y-66563946D01*
X137208828Y-66432733D01*
X137391237Y-66335233D01*
X137457213Y-66315220D01*
X137589164Y-66275193D01*
X137666293Y-66267596D01*
X137743420Y-66260000D01*
X137846580Y-66260000D01*
X137923707Y-66267596D01*
X137923707Y-66267596D01*
G37*
G36*
X134113707Y-66267596D02*
X134190836Y-66275193D01*
X134322787Y-66315220D01*
X134388763Y-66335233D01*
X134571172Y-66432733D01*
X134731054Y-66563946D01*
X134862267Y-66723828D01*
X134959767Y-66906237D01*
X134959767Y-66906238D01*
X135019807Y-67104164D01*
X135040080Y-67310000D01*
X135019807Y-67515836D01*
X134979780Y-67647787D01*
X134959767Y-67713763D01*
X134862267Y-67896172D01*
X134731054Y-68056054D01*
X134571172Y-68187267D01*
X134388763Y-68284767D01*
X134322787Y-68304780D01*
X134190836Y-68344807D01*
X134113707Y-68352404D01*
X134036580Y-68360000D01*
X133933420Y-68360000D01*
X133856293Y-68352404D01*
X133779164Y-68344807D01*
X133647213Y-68304780D01*
X133581237Y-68284767D01*
X133398828Y-68187267D01*
X133238946Y-68056054D01*
X133107733Y-67896172D01*
X133010233Y-67713763D01*
X132990220Y-67647787D01*
X132950193Y-67515836D01*
X132929920Y-67310000D01*
X132950193Y-67104164D01*
X133010233Y-66906238D01*
X133010233Y-66906237D01*
X133107733Y-66723828D01*
X133238946Y-66563946D01*
X133398828Y-66432733D01*
X133581237Y-66335233D01*
X133647213Y-66315220D01*
X133779164Y-66275193D01*
X133856293Y-66267596D01*
X133933420Y-66260000D01*
X134036580Y-66260000D01*
X134113707Y-66267596D01*
X134113707Y-66267596D01*
G37*
G36*
X172848707Y-63727597D02*
X172925836Y-63735193D01*
X173057787Y-63775220D01*
X173123763Y-63795233D01*
X173306172Y-63892733D01*
X173466054Y-64023946D01*
X173597267Y-64183828D01*
X173694767Y-64366237D01*
X173694767Y-64366238D01*
X173754807Y-64564164D01*
X173775080Y-64770000D01*
X173754807Y-64975836D01*
X173714780Y-65107787D01*
X173694767Y-65173763D01*
X173597267Y-65356172D01*
X173466054Y-65516054D01*
X173306172Y-65647267D01*
X173123763Y-65744767D01*
X173057787Y-65764780D01*
X172925836Y-65804807D01*
X172848707Y-65812403D01*
X172771580Y-65820000D01*
X172668420Y-65820000D01*
X172591293Y-65812403D01*
X172514164Y-65804807D01*
X172382213Y-65764780D01*
X172316237Y-65744767D01*
X172133828Y-65647267D01*
X171973946Y-65516054D01*
X171842733Y-65356172D01*
X171745233Y-65173763D01*
X171725220Y-65107787D01*
X171685193Y-64975836D01*
X171664920Y-64770000D01*
X171685193Y-64564164D01*
X171745233Y-64366238D01*
X171745233Y-64366237D01*
X171842733Y-64183828D01*
X171973946Y-64023946D01*
X172133828Y-63892733D01*
X172316237Y-63795233D01*
X172382213Y-63775220D01*
X172514164Y-63735193D01*
X172591293Y-63727597D01*
X172668420Y-63720000D01*
X172771580Y-63720000D01*
X172848707Y-63727597D01*
X172848707Y-63727597D01*
G37*
G36*
X170308707Y-63727597D02*
X170385836Y-63735193D01*
X170517787Y-63775220D01*
X170583763Y-63795233D01*
X170766172Y-63892733D01*
X170926054Y-64023946D01*
X171057267Y-64183828D01*
X171154767Y-64366237D01*
X171154767Y-64366238D01*
X171214807Y-64564164D01*
X171235080Y-64770000D01*
X171214807Y-64975836D01*
X171174780Y-65107787D01*
X171154767Y-65173763D01*
X171057267Y-65356172D01*
X170926054Y-65516054D01*
X170766172Y-65647267D01*
X170583763Y-65744767D01*
X170517787Y-65764780D01*
X170385836Y-65804807D01*
X170308707Y-65812403D01*
X170231580Y-65820000D01*
X170128420Y-65820000D01*
X170051293Y-65812403D01*
X169974164Y-65804807D01*
X169842213Y-65764780D01*
X169776237Y-65744767D01*
X169593828Y-65647267D01*
X169433946Y-65516054D01*
X169302733Y-65356172D01*
X169205233Y-65173763D01*
X169185220Y-65107787D01*
X169145193Y-64975836D01*
X169124920Y-64770000D01*
X169145193Y-64564164D01*
X169205233Y-64366238D01*
X169205233Y-64366237D01*
X169302733Y-64183828D01*
X169433946Y-64023946D01*
X169593828Y-63892733D01*
X169776237Y-63795233D01*
X169842213Y-63775220D01*
X169974164Y-63735193D01*
X170051293Y-63727597D01*
X170128420Y-63720000D01*
X170231580Y-63720000D01*
X170308707Y-63727597D01*
X170308707Y-63727597D01*
G37*
G36*
X137923707Y-63727597D02*
X138000836Y-63735193D01*
X138132787Y-63775220D01*
X138198763Y-63795233D01*
X138381172Y-63892733D01*
X138541054Y-64023946D01*
X138672267Y-64183828D01*
X138769767Y-64366237D01*
X138769767Y-64366238D01*
X138829807Y-64564164D01*
X138850080Y-64770000D01*
X138829807Y-64975836D01*
X138789780Y-65107787D01*
X138769767Y-65173763D01*
X138672267Y-65356172D01*
X138541054Y-65516054D01*
X138381172Y-65647267D01*
X138198763Y-65744767D01*
X138132787Y-65764780D01*
X138000836Y-65804807D01*
X137923707Y-65812403D01*
X137846580Y-65820000D01*
X137743420Y-65820000D01*
X137666293Y-65812403D01*
X137589164Y-65804807D01*
X137457213Y-65764780D01*
X137391237Y-65744767D01*
X137208828Y-65647267D01*
X137048946Y-65516054D01*
X136917733Y-65356172D01*
X136820233Y-65173763D01*
X136800220Y-65107787D01*
X136760193Y-64975836D01*
X136739920Y-64770000D01*
X136760193Y-64564164D01*
X136820233Y-64366238D01*
X136820233Y-64366237D01*
X136917733Y-64183828D01*
X137048946Y-64023946D01*
X137208828Y-63892733D01*
X137391237Y-63795233D01*
X137457213Y-63775220D01*
X137589164Y-63735193D01*
X137666293Y-63727597D01*
X137743420Y-63720000D01*
X137846580Y-63720000D01*
X137923707Y-63727597D01*
X137923707Y-63727597D01*
G37*
G36*
X134113707Y-63727597D02*
X134190836Y-63735193D01*
X134322787Y-63775220D01*
X134388763Y-63795233D01*
X134571172Y-63892733D01*
X134731054Y-64023946D01*
X134862267Y-64183828D01*
X134959767Y-64366237D01*
X134959767Y-64366238D01*
X135019807Y-64564164D01*
X135040080Y-64770000D01*
X135019807Y-64975836D01*
X134979780Y-65107787D01*
X134959767Y-65173763D01*
X134862267Y-65356172D01*
X134731054Y-65516054D01*
X134571172Y-65647267D01*
X134388763Y-65744767D01*
X134322787Y-65764780D01*
X134190836Y-65804807D01*
X134113707Y-65812403D01*
X134036580Y-65820000D01*
X133933420Y-65820000D01*
X133856293Y-65812403D01*
X133779164Y-65804807D01*
X133647213Y-65764780D01*
X133581237Y-65744767D01*
X133398828Y-65647267D01*
X133238946Y-65516054D01*
X133107733Y-65356172D01*
X133010233Y-65173763D01*
X132990220Y-65107787D01*
X132950193Y-64975836D01*
X132929920Y-64770000D01*
X132950193Y-64564164D01*
X133010233Y-64366238D01*
X133010233Y-64366237D01*
X133107733Y-64183828D01*
X133238946Y-64023946D01*
X133398828Y-63892733D01*
X133581237Y-63795233D01*
X133647213Y-63775220D01*
X133779164Y-63735193D01*
X133856293Y-63727597D01*
X133933420Y-63720000D01*
X134036580Y-63720000D01*
X134113707Y-63727597D01*
X134113707Y-63727597D01*
G37*
G36*
X172848707Y-61187596D02*
X172925836Y-61195193D01*
X173057787Y-61235220D01*
X173123763Y-61255233D01*
X173306172Y-61352733D01*
X173466054Y-61483946D01*
X173597267Y-61643828D01*
X173694767Y-61826237D01*
X173694767Y-61826238D01*
X173754807Y-62024164D01*
X173775080Y-62230000D01*
X173754807Y-62435836D01*
X173714780Y-62567787D01*
X173694767Y-62633763D01*
X173597267Y-62816172D01*
X173466054Y-62976054D01*
X173306172Y-63107267D01*
X173123763Y-63204767D01*
X173057787Y-63224780D01*
X172925836Y-63264807D01*
X172848707Y-63272403D01*
X172771580Y-63280000D01*
X172668420Y-63280000D01*
X172591293Y-63272403D01*
X172514164Y-63264807D01*
X172382213Y-63224780D01*
X172316237Y-63204767D01*
X172133828Y-63107267D01*
X171973946Y-62976054D01*
X171842733Y-62816172D01*
X171745233Y-62633763D01*
X171725220Y-62567787D01*
X171685193Y-62435836D01*
X171664920Y-62230000D01*
X171685193Y-62024164D01*
X171745233Y-61826238D01*
X171745233Y-61826237D01*
X171842733Y-61643828D01*
X171973946Y-61483946D01*
X172133828Y-61352733D01*
X172316237Y-61255233D01*
X172382213Y-61235220D01*
X172514164Y-61195193D01*
X172591293Y-61187596D01*
X172668420Y-61180000D01*
X172771580Y-61180000D01*
X172848707Y-61187596D01*
X172848707Y-61187596D01*
G37*
G36*
X170308707Y-61187596D02*
X170385836Y-61195193D01*
X170517787Y-61235220D01*
X170583763Y-61255233D01*
X170766172Y-61352733D01*
X170926054Y-61483946D01*
X171057267Y-61643828D01*
X171154767Y-61826237D01*
X171154767Y-61826238D01*
X171214807Y-62024164D01*
X171235080Y-62230000D01*
X171214807Y-62435836D01*
X171174780Y-62567787D01*
X171154767Y-62633763D01*
X171057267Y-62816172D01*
X170926054Y-62976054D01*
X170766172Y-63107267D01*
X170583763Y-63204767D01*
X170517787Y-63224780D01*
X170385836Y-63264807D01*
X170308707Y-63272403D01*
X170231580Y-63280000D01*
X170128420Y-63280000D01*
X170051293Y-63272403D01*
X169974164Y-63264807D01*
X169842213Y-63224780D01*
X169776237Y-63204767D01*
X169593828Y-63107267D01*
X169433946Y-62976054D01*
X169302733Y-62816172D01*
X169205233Y-62633763D01*
X169185220Y-62567787D01*
X169145193Y-62435836D01*
X169124920Y-62230000D01*
X169145193Y-62024164D01*
X169205233Y-61826238D01*
X169205233Y-61826237D01*
X169302733Y-61643828D01*
X169433946Y-61483946D01*
X169593828Y-61352733D01*
X169776237Y-61255233D01*
X169842213Y-61235220D01*
X169974164Y-61195193D01*
X170051293Y-61187596D01*
X170128420Y-61180000D01*
X170231580Y-61180000D01*
X170308707Y-61187596D01*
X170308707Y-61187596D01*
G37*
G36*
X137923707Y-61187596D02*
X138000836Y-61195193D01*
X138132787Y-61235220D01*
X138198763Y-61255233D01*
X138381172Y-61352733D01*
X138541054Y-61483946D01*
X138672267Y-61643828D01*
X138769767Y-61826237D01*
X138769767Y-61826238D01*
X138829807Y-62024164D01*
X138850080Y-62230000D01*
X138829807Y-62435836D01*
X138789780Y-62567787D01*
X138769767Y-62633763D01*
X138672267Y-62816172D01*
X138541054Y-62976054D01*
X138381172Y-63107267D01*
X138198763Y-63204767D01*
X138132787Y-63224780D01*
X138000836Y-63264807D01*
X137923707Y-63272403D01*
X137846580Y-63280000D01*
X137743420Y-63280000D01*
X137666293Y-63272403D01*
X137589164Y-63264807D01*
X137457213Y-63224780D01*
X137391237Y-63204767D01*
X137208828Y-63107267D01*
X137048946Y-62976054D01*
X136917733Y-62816172D01*
X136820233Y-62633763D01*
X136800220Y-62567787D01*
X136760193Y-62435836D01*
X136739920Y-62230000D01*
X136760193Y-62024164D01*
X136820233Y-61826238D01*
X136820233Y-61826237D01*
X136917733Y-61643828D01*
X137048946Y-61483946D01*
X137208828Y-61352733D01*
X137391237Y-61255233D01*
X137457213Y-61235220D01*
X137589164Y-61195193D01*
X137666293Y-61187596D01*
X137743420Y-61180000D01*
X137846580Y-61180000D01*
X137923707Y-61187596D01*
X137923707Y-61187596D01*
G37*
G36*
X134113707Y-61187596D02*
X134190836Y-61195193D01*
X134322787Y-61235220D01*
X134388763Y-61255233D01*
X134571172Y-61352733D01*
X134731054Y-61483946D01*
X134862267Y-61643828D01*
X134959767Y-61826237D01*
X134959767Y-61826238D01*
X135019807Y-62024164D01*
X135040080Y-62230000D01*
X135019807Y-62435836D01*
X134979780Y-62567787D01*
X134959767Y-62633763D01*
X134862267Y-62816172D01*
X134731054Y-62976054D01*
X134571172Y-63107267D01*
X134388763Y-63204767D01*
X134322787Y-63224780D01*
X134190836Y-63264807D01*
X134113707Y-63272403D01*
X134036580Y-63280000D01*
X133933420Y-63280000D01*
X133856293Y-63272403D01*
X133779164Y-63264807D01*
X133647213Y-63224780D01*
X133581237Y-63204767D01*
X133398828Y-63107267D01*
X133238946Y-62976054D01*
X133107733Y-62816172D01*
X133010233Y-62633763D01*
X132990220Y-62567787D01*
X132950193Y-62435836D01*
X132929920Y-62230000D01*
X132950193Y-62024164D01*
X133010233Y-61826238D01*
X133010233Y-61826237D01*
X133107733Y-61643828D01*
X133238946Y-61483946D01*
X133398828Y-61352733D01*
X133581237Y-61255233D01*
X133647213Y-61235220D01*
X133779164Y-61195193D01*
X133856293Y-61187596D01*
X133933420Y-61180000D01*
X134036580Y-61180000D01*
X134113707Y-61187596D01*
X134113707Y-61187596D01*
G37*
G36*
X138845000Y-60740000D02*
X136745000Y-60740000D01*
X136745000Y-58640000D01*
X138845000Y-58640000D01*
X138845000Y-60740000D01*
X138845000Y-60740000D01*
G37*
G36*
X172848707Y-58647597D02*
X172925836Y-58655193D01*
X173057787Y-58695220D01*
X173123763Y-58715233D01*
X173306172Y-58812733D01*
X173466054Y-58943946D01*
X173597267Y-59103828D01*
X173694767Y-59286237D01*
X173694767Y-59286238D01*
X173754807Y-59484164D01*
X173775080Y-59690000D01*
X173754807Y-59895836D01*
X173715653Y-60024910D01*
X173694767Y-60093763D01*
X173597267Y-60276172D01*
X173466054Y-60436054D01*
X173306172Y-60567267D01*
X173123763Y-60664767D01*
X173057787Y-60684780D01*
X172925836Y-60724807D01*
X172848707Y-60732403D01*
X172771580Y-60740000D01*
X172668420Y-60740000D01*
X172591293Y-60732403D01*
X172514164Y-60724807D01*
X172382213Y-60684780D01*
X172316237Y-60664767D01*
X172133828Y-60567267D01*
X171973946Y-60436054D01*
X171842733Y-60276172D01*
X171745233Y-60093763D01*
X171724347Y-60024910D01*
X171685193Y-59895836D01*
X171664920Y-59690000D01*
X171685193Y-59484164D01*
X171745233Y-59286238D01*
X171745233Y-59286237D01*
X171842733Y-59103828D01*
X171973946Y-58943946D01*
X172133828Y-58812733D01*
X172316237Y-58715233D01*
X172382213Y-58695220D01*
X172514164Y-58655193D01*
X172591293Y-58647597D01*
X172668420Y-58640000D01*
X172771580Y-58640000D01*
X172848707Y-58647597D01*
X172848707Y-58647597D01*
G37*
G36*
X171230000Y-60740000D02*
X169130000Y-60740000D01*
X169130000Y-58640000D01*
X171230000Y-58640000D01*
X171230000Y-60740000D01*
X171230000Y-60740000D01*
G37*
G36*
X135035000Y-60740000D02*
X132935000Y-60740000D01*
X132935000Y-58640000D01*
X135035000Y-58640000D01*
X135035000Y-60740000D01*
X135035000Y-60740000D01*
G37*
G36*
X164700240Y-57572363D02*
X164926441Y-57640981D01*
X164926443Y-57640982D01*
X164926446Y-57640983D01*
X165134905Y-57752406D01*
X165134908Y-57752408D01*
X165134909Y-57752409D01*
X165317634Y-57902366D01*
X165317635Y-57902368D01*
X165317637Y-57902369D01*
X165467592Y-58085090D01*
X165579017Y-58293553D01*
X165579017Y-58293554D01*
X165579019Y-58293558D01*
X165647637Y-58519759D01*
X165665000Y-58696050D01*
X165665000Y-59413949D01*
X165647637Y-59590240D01*
X165622250Y-59673929D01*
X165579018Y-59816446D01*
X165467592Y-60024910D01*
X165317634Y-60207634D01*
X165134910Y-60357592D01*
X164926447Y-60469017D01*
X164926444Y-60469018D01*
X164926442Y-60469019D01*
X164700241Y-60537637D01*
X164465000Y-60560806D01*
X164229760Y-60537637D01*
X164003559Y-60469019D01*
X164003557Y-60469018D01*
X164003554Y-60469017D01*
X163795091Y-60357592D01*
X163612367Y-60207634D01*
X163462408Y-60024910D01*
X163350982Y-59816446D01*
X163314618Y-59696569D01*
X163305240Y-59673929D01*
X163291626Y-59653555D01*
X163274299Y-59636228D01*
X163253925Y-59622614D01*
X163231286Y-59613236D01*
X163207252Y-59608456D01*
X163182748Y-59608456D01*
X163158715Y-59613236D01*
X163136075Y-59622614D01*
X163115701Y-59636228D01*
X163098374Y-59653555D01*
X163084760Y-59673929D01*
X163075382Y-59696569D01*
X163039018Y-59816446D01*
X162927592Y-60024910D01*
X162777634Y-60207634D01*
X162594910Y-60357592D01*
X162386447Y-60469017D01*
X162386444Y-60469018D01*
X162386442Y-60469019D01*
X162160241Y-60537637D01*
X161925000Y-60560806D01*
X161689760Y-60537637D01*
X161463559Y-60469019D01*
X161463557Y-60469018D01*
X161463554Y-60469017D01*
X161255091Y-60357592D01*
X161072367Y-60207634D01*
X160922408Y-60024910D01*
X160820240Y-59833766D01*
X160806626Y-59813391D01*
X160789299Y-59796064D01*
X160768925Y-59782450D01*
X160746286Y-59773073D01*
X160722252Y-59768292D01*
X160697748Y-59768292D01*
X160673715Y-59773072D01*
X160651076Y-59782450D01*
X160630701Y-59796064D01*
X160613374Y-59813391D01*
X160599760Y-59833765D01*
X160590383Y-59856404D01*
X160585602Y-59880438D01*
X160585000Y-59892690D01*
X160585000Y-60555000D01*
X158185000Y-60555000D01*
X158185000Y-57555000D01*
X160585000Y-57555000D01*
X160585000Y-58217311D01*
X160587402Y-58241697D01*
X160594515Y-58265146D01*
X160606066Y-58286757D01*
X160621612Y-58305699D01*
X160640554Y-58321245D01*
X160662165Y-58332796D01*
X160685614Y-58339909D01*
X160710000Y-58342311D01*
X160734386Y-58339909D01*
X160757835Y-58332796D01*
X160779446Y-58321245D01*
X160798388Y-58305699D01*
X160813934Y-58286757D01*
X160820240Y-58276235D01*
X160922406Y-58085095D01*
X161072364Y-57902369D01*
X161072366Y-57902366D01*
X161072368Y-57902365D01*
X161072369Y-57902363D01*
X161255090Y-57752408D01*
X161463553Y-57640983D01*
X161463556Y-57640982D01*
X161463558Y-57640981D01*
X161689759Y-57572363D01*
X161925000Y-57549194D01*
X162160240Y-57572363D01*
X162386441Y-57640981D01*
X162386443Y-57640982D01*
X162386446Y-57640983D01*
X162594905Y-57752406D01*
X162594908Y-57752408D01*
X162594909Y-57752409D01*
X162777634Y-57902366D01*
X162777635Y-57902368D01*
X162777637Y-57902369D01*
X162927592Y-58085090D01*
X163039018Y-58293554D01*
X163042702Y-58305699D01*
X163075384Y-58413435D01*
X163084760Y-58436071D01*
X163098374Y-58456445D01*
X163115701Y-58473772D01*
X163136075Y-58487386D01*
X163158714Y-58496764D01*
X163182748Y-58501544D01*
X163207252Y-58501544D01*
X163231285Y-58496764D01*
X163253925Y-58487386D01*
X163274299Y-58473772D01*
X163291626Y-58456445D01*
X163305240Y-58436071D01*
X163314617Y-58413432D01*
X163350980Y-58293559D01*
X163462406Y-58085095D01*
X163612364Y-57902369D01*
X163612366Y-57902366D01*
X163612368Y-57902365D01*
X163612369Y-57902363D01*
X163795090Y-57752408D01*
X164003553Y-57640983D01*
X164003556Y-57640982D01*
X164003558Y-57640981D01*
X164229759Y-57572363D01*
X164465000Y-57549194D01*
X164700240Y-57572363D01*
X164700240Y-57572363D01*
G37*
M02*
