G04 #@! TF.FileFunction,Copper,L1,Top,Signal*
%FSLAX46Y46*%
G04 Gerber Fmt 4.6, Leading zero omitted, Abs format (unit mm)*
G04 Created by KiCad (PCBNEW 4.0.7) date 08/31/18 14:22:03*
%MOMM*%
%LPD*%
G01*
G04 APERTURE LIST*
%ADD10C,0.100000*%
%ADD11R,1.700000X1.700000*%
%ADD12O,1.700000X1.700000*%
%ADD13R,2.600000X2.000000*%
%ADD14O,2.600000X2.000000*%
%ADD15C,0.600000*%
%ADD16C,0.250000*%
%ADD17C,1.600000*%
%ADD18C,0.254000*%
G04 APERTURE END LIST*
D10*
D11*
X158750000Y-62230000D03*
D12*
X161290000Y-62230000D03*
X158750000Y-64770000D03*
X161290000Y-64770000D03*
X158750000Y-67310000D03*
X161290000Y-67310000D03*
X158750000Y-69850000D03*
X161290000Y-69850000D03*
X158750000Y-72390000D03*
X161290000Y-72390000D03*
X158750000Y-74930000D03*
X161290000Y-74930000D03*
X158750000Y-77470000D03*
X161290000Y-77470000D03*
X158750000Y-80010000D03*
X161290000Y-80010000D03*
X158750000Y-82550000D03*
X161290000Y-82550000D03*
X158750000Y-85090000D03*
X161290000Y-85090000D03*
X158750000Y-87630000D03*
X161290000Y-87630000D03*
X158750000Y-90170000D03*
X161290000Y-90170000D03*
X158750000Y-92710000D03*
X161290000Y-92710000D03*
X158750000Y-95250000D03*
X161290000Y-95250000D03*
X158750000Y-97790000D03*
X161290000Y-97790000D03*
X158750000Y-100330000D03*
X161290000Y-100330000D03*
X158750000Y-102870000D03*
X161290000Y-102870000D03*
X158750000Y-105410000D03*
X161290000Y-105410000D03*
X158750000Y-107950000D03*
X161290000Y-107950000D03*
X158750000Y-110490000D03*
X161290000Y-110490000D03*
D11*
X136525000Y-69215000D03*
D12*
X136525000Y-66675000D03*
X136525000Y-64135000D03*
X136525000Y-61595000D03*
X136525000Y-59055000D03*
X136525000Y-56515000D03*
D11*
X136525000Y-88900000D03*
D12*
X136525000Y-86360000D03*
X136525000Y-83820000D03*
X136525000Y-81280000D03*
X136525000Y-78740000D03*
X136525000Y-76200000D03*
X136525000Y-73660000D03*
D13*
X135890000Y-109855000D03*
D14*
X135890000Y-112395000D03*
X135890000Y-114935000D03*
D11*
X136525000Y-93345000D03*
D12*
X136525000Y-95885000D03*
X136525000Y-98425000D03*
X136525000Y-100965000D03*
X136525000Y-103505000D03*
D11*
X151765000Y-56515000D03*
D12*
X149225000Y-56515000D03*
X146685000Y-56515000D03*
X144145000Y-56515000D03*
D15*
X154305000Y-85090000D03*
X146050000Y-94615000D03*
X144145000Y-80645000D03*
X144145000Y-74930000D03*
X144145000Y-72390000D03*
X152400000Y-60325000D03*
X155575000Y-62230000D03*
X151765000Y-68580000D03*
X148590000Y-92075000D03*
X151765000Y-90805000D03*
X155575000Y-69850000D03*
X155575000Y-67310000D03*
X155575000Y-64770000D03*
X146050000Y-60325000D03*
X142240000Y-60325000D03*
X140335000Y-57785000D03*
X149860000Y-96520000D03*
X155575000Y-107315000D03*
X147320000Y-99060000D03*
X155575000Y-71120000D03*
X155575000Y-74295000D03*
X146050000Y-64770000D03*
X146050000Y-72390000D03*
X151765000Y-69850000D03*
D16*
X160020000Y-86360000D02*
X161290000Y-85090000D01*
X155575000Y-86360000D02*
X160020000Y-86360000D01*
X154305000Y-85090000D02*
X155575000Y-86360000D01*
X135255000Y-114300000D02*
X135890000Y-114935000D01*
X146050000Y-94615000D02*
X144780000Y-93345000D01*
X136525000Y-73660000D02*
X147955000Y-73660000D01*
X147955000Y-73660000D02*
X149860000Y-71755000D01*
D17*
X136525000Y-93345000D02*
X144780000Y-93345000D01*
X161290000Y-60960000D02*
X161290000Y-64770000D01*
X159385000Y-59055000D02*
X161290000Y-60960000D01*
X156210000Y-59055000D02*
X159385000Y-59055000D01*
X149860000Y-65405000D02*
X156210000Y-59055000D01*
X149860000Y-88265000D02*
X149860000Y-71755000D01*
X149860000Y-71755000D02*
X149860000Y-65405000D01*
X144780000Y-93345000D02*
X149860000Y-88265000D01*
D16*
X136525000Y-59055000D02*
X144145000Y-59055000D01*
X144145000Y-59055000D02*
X146685000Y-56515000D01*
X140970000Y-69215000D02*
X139065000Y-69215000D01*
X144145000Y-80645000D02*
X144145000Y-74930000D01*
X144145000Y-72390000D02*
X140970000Y-69215000D01*
X136525000Y-69215000D02*
X139065000Y-69215000D01*
X139065000Y-69215000D02*
X147955000Y-60325000D01*
X158750000Y-62230000D02*
X155575000Y-62230000D01*
X152400000Y-60325000D02*
X147955000Y-60325000D01*
X161290000Y-72390000D02*
X162560000Y-71120000D01*
X161925000Y-68580000D02*
X151765000Y-68580000D01*
X162560000Y-69215000D02*
X161925000Y-68580000D01*
X162560000Y-71120000D02*
X162560000Y-69215000D01*
X150495000Y-92075000D02*
X148590000Y-92075000D01*
X151765000Y-90805000D02*
X150495000Y-92075000D01*
X136525000Y-56515000D02*
X139065000Y-56515000D01*
X156845000Y-75565000D02*
X158750000Y-77470000D01*
X156845000Y-71120000D02*
X156845000Y-75565000D01*
X155575000Y-69850000D02*
X156845000Y-71120000D01*
X155575000Y-64770000D02*
X155575000Y-67310000D01*
X142240000Y-60325000D02*
X146050000Y-60325000D01*
X139065000Y-56515000D02*
X140335000Y-57785000D01*
X149860000Y-96520000D02*
X158750000Y-105410000D01*
X155575000Y-107315000D02*
X147320000Y-99060000D01*
X155575000Y-74295000D02*
X155575000Y-71120000D01*
X146050000Y-64770000D02*
X146050000Y-72390000D01*
X158750000Y-82550000D02*
X154305000Y-78105000D01*
X154305000Y-72390000D02*
X151765000Y-69850000D01*
X154305000Y-78105000D02*
X154305000Y-72390000D01*
D17*
X135890000Y-112395000D02*
X140335000Y-112395000D01*
X139700000Y-100965000D02*
X136525000Y-100965000D01*
X141605000Y-102870000D02*
X139700000Y-100965000D01*
X141605000Y-111125000D02*
X141605000Y-102870000D01*
X140335000Y-112395000D02*
X141605000Y-111125000D01*
D18*
G36*
X135445853Y-55464946D02*
X135123946Y-55946715D01*
X135010907Y-56515000D01*
X135123946Y-57083285D01*
X135445853Y-57565054D01*
X135775026Y-57785000D01*
X135445853Y-58004946D01*
X135123946Y-58486715D01*
X135010907Y-59055000D01*
X135123946Y-59623285D01*
X135445853Y-60105054D01*
X135775026Y-60325000D01*
X135445853Y-60544946D01*
X135123946Y-61026715D01*
X135010907Y-61595000D01*
X135123946Y-62163285D01*
X135445853Y-62645054D01*
X135786553Y-62872702D01*
X135643642Y-62939817D01*
X135253355Y-63368076D01*
X135083524Y-63778110D01*
X135204845Y-64008000D01*
X136398000Y-64008000D01*
X136398000Y-63988000D01*
X136652000Y-63988000D01*
X136652000Y-64008000D01*
X137845155Y-64008000D01*
X137966476Y-63778110D01*
X137796645Y-63368076D01*
X137406358Y-62939817D01*
X137263447Y-62872702D01*
X137604147Y-62645054D01*
X137926054Y-62163285D01*
X138039093Y-61595000D01*
X137926054Y-61026715D01*
X137604147Y-60544946D01*
X137274974Y-60325000D01*
X137604147Y-60105054D01*
X137797954Y-59815000D01*
X141439367Y-59815000D01*
X141305162Y-60138201D01*
X141304838Y-60510167D01*
X141446883Y-60853943D01*
X141709673Y-61117192D01*
X142053201Y-61259838D01*
X142425167Y-61260162D01*
X142768943Y-61118117D01*
X142802118Y-61085000D01*
X145487537Y-61085000D01*
X145519673Y-61117192D01*
X145863201Y-61259838D01*
X145945288Y-61259910D01*
X138750198Y-68455000D01*
X138022440Y-68455000D01*
X138022440Y-68365000D01*
X137978162Y-68129683D01*
X137839090Y-67913559D01*
X137626890Y-67768569D01*
X137559459Y-67754914D01*
X137604147Y-67725054D01*
X137926054Y-67243285D01*
X138039093Y-66675000D01*
X137926054Y-66106715D01*
X137604147Y-65624946D01*
X137263447Y-65397298D01*
X137406358Y-65330183D01*
X137796645Y-64901924D01*
X137966476Y-64491890D01*
X137845155Y-64262000D01*
X136652000Y-64262000D01*
X136652000Y-64282000D01*
X136398000Y-64282000D01*
X136398000Y-64262000D01*
X135204845Y-64262000D01*
X135083524Y-64491890D01*
X135253355Y-64901924D01*
X135643642Y-65330183D01*
X135786553Y-65397298D01*
X135445853Y-65624946D01*
X135123946Y-66106715D01*
X135010907Y-66675000D01*
X135123946Y-67243285D01*
X135445853Y-67725054D01*
X135487452Y-67752850D01*
X135439683Y-67761838D01*
X135223559Y-67900910D01*
X135078569Y-68113110D01*
X135027560Y-68365000D01*
X135027560Y-70065000D01*
X135071838Y-70300317D01*
X135210910Y-70516441D01*
X135423110Y-70661431D01*
X135675000Y-70712440D01*
X137375000Y-70712440D01*
X137610317Y-70668162D01*
X137826441Y-70529090D01*
X137971431Y-70316890D01*
X138022440Y-70065000D01*
X138022440Y-69975000D01*
X140655198Y-69975000D01*
X143209878Y-72529680D01*
X143209838Y-72575167D01*
X143344056Y-72900000D01*
X137797954Y-72900000D01*
X137604147Y-72609946D01*
X137122378Y-72288039D01*
X136554093Y-72175000D01*
X136495907Y-72175000D01*
X135927622Y-72288039D01*
X135445853Y-72609946D01*
X135123946Y-73091715D01*
X135010907Y-73660000D01*
X135123946Y-74228285D01*
X135445853Y-74710054D01*
X135786553Y-74937702D01*
X135643642Y-75004817D01*
X135253355Y-75433076D01*
X135083524Y-75843110D01*
X135204845Y-76073000D01*
X136398000Y-76073000D01*
X136398000Y-76053000D01*
X136652000Y-76053000D01*
X136652000Y-76073000D01*
X137845155Y-76073000D01*
X137966476Y-75843110D01*
X137796645Y-75433076D01*
X137406358Y-75004817D01*
X137263447Y-74937702D01*
X137604147Y-74710054D01*
X137797954Y-74420000D01*
X143344367Y-74420000D01*
X143210162Y-74743201D01*
X143209838Y-75115167D01*
X143351883Y-75458943D01*
X143385000Y-75492118D01*
X143385000Y-80082537D01*
X143352808Y-80114673D01*
X143210162Y-80458201D01*
X143209838Y-80830167D01*
X143351883Y-81173943D01*
X143614673Y-81437192D01*
X143958201Y-81579838D01*
X144330167Y-81580162D01*
X144673943Y-81438117D01*
X144937192Y-81175327D01*
X145079838Y-80831799D01*
X145080162Y-80459833D01*
X144938117Y-80116057D01*
X144905000Y-80082882D01*
X144905000Y-75492463D01*
X144937192Y-75460327D01*
X145079838Y-75116799D01*
X145080162Y-74744833D01*
X144945944Y-74420000D01*
X147955000Y-74420000D01*
X148245839Y-74362148D01*
X148425000Y-74242437D01*
X148425000Y-87670604D01*
X144185604Y-91910000D01*
X137643620Y-91910000D01*
X137626890Y-91898569D01*
X137375000Y-91847560D01*
X135675000Y-91847560D01*
X135439683Y-91891838D01*
X135223559Y-92030910D01*
X135078569Y-92243110D01*
X135027560Y-92495000D01*
X135027560Y-94195000D01*
X135071838Y-94430317D01*
X135210910Y-94646441D01*
X135423110Y-94791431D01*
X135531107Y-94813301D01*
X135253355Y-95118076D01*
X135083524Y-95528110D01*
X135204845Y-95758000D01*
X136398000Y-95758000D01*
X136398000Y-95738000D01*
X136652000Y-95738000D01*
X136652000Y-95758000D01*
X137845155Y-95758000D01*
X137966476Y-95528110D01*
X137796645Y-95118076D01*
X137520499Y-94815063D01*
X137610317Y-94798162D01*
X137638542Y-94780000D01*
X144780000Y-94780000D01*
X145080437Y-94720239D01*
X145114878Y-94754680D01*
X145114838Y-94800167D01*
X145256883Y-95143943D01*
X145519673Y-95407192D01*
X145863201Y-95549838D01*
X146235167Y-95550162D01*
X146578943Y-95408117D01*
X146842192Y-95145327D01*
X146984838Y-94801799D01*
X146985162Y-94429833D01*
X146843117Y-94086057D01*
X146580327Y-93822808D01*
X146404569Y-93749827D01*
X147724831Y-92429565D01*
X147796883Y-92603943D01*
X148059673Y-92867192D01*
X148403201Y-93009838D01*
X148775167Y-93010162D01*
X149118943Y-92868117D01*
X149152118Y-92835000D01*
X150495000Y-92835000D01*
X150785839Y-92777148D01*
X151032401Y-92612401D01*
X151904680Y-91740122D01*
X151950167Y-91740162D01*
X152293943Y-91598117D01*
X152557192Y-91335327D01*
X152699838Y-90991799D01*
X152700162Y-90619833D01*
X152558117Y-90276057D01*
X152295327Y-90012808D01*
X151951799Y-89870162D01*
X151579833Y-89869838D01*
X151236057Y-90011883D01*
X150972808Y-90274673D01*
X150830162Y-90618201D01*
X150830121Y-90665077D01*
X150180198Y-91315000D01*
X149152463Y-91315000D01*
X149120327Y-91282808D01*
X148944569Y-91209827D01*
X150874698Y-89279698D01*
X151060276Y-89001961D01*
X151185767Y-88814151D01*
X151295000Y-88265000D01*
X151295000Y-70667242D01*
X151578201Y-70784838D01*
X151625077Y-70784879D01*
X153545000Y-72704802D01*
X153545000Y-78105000D01*
X153602852Y-78395839D01*
X153767599Y-78642401D01*
X157308790Y-82183592D01*
X157235907Y-82550000D01*
X157348946Y-83118285D01*
X157670853Y-83600054D01*
X158000026Y-83820000D01*
X157670853Y-84039946D01*
X157348946Y-84521715D01*
X157235907Y-85090000D01*
X157348946Y-85658285D01*
X157670853Y-86140054D01*
X158000026Y-86360000D01*
X157670853Y-86579946D01*
X157348946Y-87061715D01*
X157235907Y-87630000D01*
X157348946Y-88198285D01*
X157670853Y-88680054D01*
X158000026Y-88900000D01*
X157670853Y-89119946D01*
X157348946Y-89601715D01*
X157235907Y-90170000D01*
X157348946Y-90738285D01*
X157670853Y-91220054D01*
X158011553Y-91447702D01*
X157868642Y-91514817D01*
X157478355Y-91943076D01*
X157308524Y-92353110D01*
X157429845Y-92583000D01*
X158623000Y-92583000D01*
X158623000Y-92563000D01*
X158877000Y-92563000D01*
X158877000Y-92583000D01*
X158897000Y-92583000D01*
X158897000Y-92837000D01*
X158877000Y-92837000D01*
X158877000Y-92857000D01*
X158623000Y-92857000D01*
X158623000Y-92837000D01*
X157429845Y-92837000D01*
X157308524Y-93066890D01*
X157478355Y-93476924D01*
X157868642Y-93905183D01*
X158011553Y-93972298D01*
X157670853Y-94199946D01*
X157348946Y-94681715D01*
X157235907Y-95250000D01*
X157348946Y-95818285D01*
X157670853Y-96300054D01*
X158000026Y-96520000D01*
X157670853Y-96739946D01*
X157348946Y-97221715D01*
X157235907Y-97790000D01*
X157348946Y-98358285D01*
X157670853Y-98840054D01*
X158000026Y-99060000D01*
X157670853Y-99279946D01*
X157348946Y-99761715D01*
X157235907Y-100330000D01*
X157348946Y-100898285D01*
X157670853Y-101380054D01*
X158000026Y-101600000D01*
X157670853Y-101819946D01*
X157348946Y-102301715D01*
X157244019Y-102829217D01*
X150795122Y-96380320D01*
X150795162Y-96334833D01*
X150653117Y-95991057D01*
X150390327Y-95727808D01*
X150046799Y-95585162D01*
X149674833Y-95584838D01*
X149331057Y-95726883D01*
X149067808Y-95989673D01*
X148925162Y-96333201D01*
X148924838Y-96705167D01*
X149066883Y-97048943D01*
X149329673Y-97312192D01*
X149673201Y-97454838D01*
X149720077Y-97454879D01*
X157308790Y-105043592D01*
X157235907Y-105410000D01*
X157348946Y-105978285D01*
X157670853Y-106460054D01*
X158000026Y-106680000D01*
X157670853Y-106899946D01*
X157348946Y-107381715D01*
X157235907Y-107950000D01*
X157348946Y-108518285D01*
X157670853Y-109000054D01*
X158011553Y-109227702D01*
X157868642Y-109294817D01*
X157478355Y-109723076D01*
X157308524Y-110133110D01*
X157429845Y-110363000D01*
X158623000Y-110363000D01*
X158623000Y-110343000D01*
X158877000Y-110343000D01*
X158877000Y-110363000D01*
X158897000Y-110363000D01*
X158897000Y-110617000D01*
X158877000Y-110617000D01*
X158877000Y-111810819D01*
X159106892Y-111931486D01*
X159631358Y-111685183D01*
X160021645Y-111256924D01*
X160021655Y-111256899D01*
X160210853Y-111540054D01*
X160692622Y-111861961D01*
X161260907Y-111975000D01*
X161319093Y-111975000D01*
X161887378Y-111861961D01*
X162369147Y-111540054D01*
X162691054Y-111058285D01*
X162804093Y-110490000D01*
X162691054Y-109921715D01*
X162369147Y-109439946D01*
X162039974Y-109220000D01*
X162369147Y-109000054D01*
X162691054Y-108518285D01*
X162804093Y-107950000D01*
X162691054Y-107381715D01*
X162369147Y-106899946D01*
X162039974Y-106680000D01*
X162369147Y-106460054D01*
X162691054Y-105978285D01*
X162804093Y-105410000D01*
X162691054Y-104841715D01*
X162369147Y-104359946D01*
X162028447Y-104132298D01*
X162171358Y-104065183D01*
X162561645Y-103636924D01*
X162731476Y-103226890D01*
X162610155Y-102997000D01*
X161417000Y-102997000D01*
X161417000Y-103017000D01*
X161163000Y-103017000D01*
X161163000Y-102997000D01*
X161143000Y-102997000D01*
X161143000Y-102743000D01*
X161163000Y-102743000D01*
X161163000Y-102723000D01*
X161417000Y-102723000D01*
X161417000Y-102743000D01*
X162610155Y-102743000D01*
X162731476Y-102513110D01*
X162561645Y-102103076D01*
X162171358Y-101674817D01*
X162028447Y-101607702D01*
X162369147Y-101380054D01*
X162691054Y-100898285D01*
X162804093Y-100330000D01*
X162691054Y-99761715D01*
X162369147Y-99279946D01*
X162028447Y-99052298D01*
X162171358Y-98985183D01*
X162561645Y-98556924D01*
X162731476Y-98146890D01*
X162610155Y-97917000D01*
X161417000Y-97917000D01*
X161417000Y-97937000D01*
X161163000Y-97937000D01*
X161163000Y-97917000D01*
X161143000Y-97917000D01*
X161143000Y-97663000D01*
X161163000Y-97663000D01*
X161163000Y-97643000D01*
X161417000Y-97643000D01*
X161417000Y-97663000D01*
X162610155Y-97663000D01*
X162731476Y-97433110D01*
X162561645Y-97023076D01*
X162171358Y-96594817D01*
X162028447Y-96527702D01*
X162369147Y-96300054D01*
X162691054Y-95818285D01*
X162804093Y-95250000D01*
X162691054Y-94681715D01*
X162369147Y-94199946D01*
X162039974Y-93980000D01*
X162369147Y-93760054D01*
X162691054Y-93278285D01*
X162804093Y-92710000D01*
X162691054Y-92141715D01*
X162369147Y-91659946D01*
X162039974Y-91440000D01*
X162369147Y-91220054D01*
X162691054Y-90738285D01*
X162804093Y-90170000D01*
X162691054Y-89601715D01*
X162369147Y-89119946D01*
X162039974Y-88900000D01*
X162369147Y-88680054D01*
X162691054Y-88198285D01*
X162804093Y-87630000D01*
X162691054Y-87061715D01*
X162369147Y-86579946D01*
X162028447Y-86352298D01*
X162171358Y-86285183D01*
X162561645Y-85856924D01*
X162731476Y-85446890D01*
X162610155Y-85217000D01*
X161417000Y-85217000D01*
X161417000Y-85237000D01*
X161163000Y-85237000D01*
X161163000Y-85217000D01*
X161143000Y-85217000D01*
X161143000Y-84963000D01*
X161163000Y-84963000D01*
X161163000Y-84943000D01*
X161417000Y-84943000D01*
X161417000Y-84963000D01*
X162610155Y-84963000D01*
X162731476Y-84733110D01*
X162561645Y-84323076D01*
X162171358Y-83894817D01*
X162028447Y-83827702D01*
X162369147Y-83600054D01*
X162691054Y-83118285D01*
X162804093Y-82550000D01*
X162691054Y-81981715D01*
X162369147Y-81499946D01*
X162039974Y-81280000D01*
X162369147Y-81060054D01*
X162691054Y-80578285D01*
X162804093Y-80010000D01*
X162691054Y-79441715D01*
X162369147Y-78959946D01*
X162028447Y-78732298D01*
X162171358Y-78665183D01*
X162561645Y-78236924D01*
X162731476Y-77826890D01*
X162610155Y-77597000D01*
X161417000Y-77597000D01*
X161417000Y-77617000D01*
X161163000Y-77617000D01*
X161163000Y-77597000D01*
X161143000Y-77597000D01*
X161143000Y-77343000D01*
X161163000Y-77343000D01*
X161163000Y-77323000D01*
X161417000Y-77323000D01*
X161417000Y-77343000D01*
X162610155Y-77343000D01*
X162731476Y-77113110D01*
X162561645Y-76703076D01*
X162171358Y-76274817D01*
X162028447Y-76207702D01*
X162369147Y-75980054D01*
X162691054Y-75498285D01*
X162804093Y-74930000D01*
X162691054Y-74361715D01*
X162369147Y-73879946D01*
X162039974Y-73660000D01*
X162369147Y-73440054D01*
X162691054Y-72958285D01*
X162804093Y-72390000D01*
X162731210Y-72023592D01*
X163097401Y-71657401D01*
X163120000Y-71623579D01*
X163120000Y-117400000D01*
X134695000Y-117400000D01*
X134695000Y-116277382D01*
X134846980Y-116396942D01*
X135463000Y-116570000D01*
X135763000Y-116570000D01*
X135763000Y-115062000D01*
X136017000Y-115062000D01*
X136017000Y-116570000D01*
X136317000Y-116570000D01*
X136933020Y-116396942D01*
X137435922Y-116001317D01*
X137749144Y-115443355D01*
X137780124Y-115315434D01*
X137660777Y-115062000D01*
X136017000Y-115062000D01*
X135763000Y-115062000D01*
X135743000Y-115062000D01*
X135743000Y-114808000D01*
X135763000Y-114808000D01*
X135763000Y-114788000D01*
X136017000Y-114788000D01*
X136017000Y-114808000D01*
X137660777Y-114808000D01*
X137780124Y-114554566D01*
X137749144Y-114426645D01*
X137435922Y-113868683D01*
X137386750Y-113830000D01*
X140335000Y-113830000D01*
X140884151Y-113720767D01*
X141349698Y-113409698D01*
X142619698Y-112139698D01*
X142930767Y-111674151D01*
X143040000Y-111125000D01*
X143040000Y-110846890D01*
X157308524Y-110846890D01*
X157478355Y-111256924D01*
X157868642Y-111685183D01*
X158393108Y-111931486D01*
X158623000Y-111810819D01*
X158623000Y-110617000D01*
X157429845Y-110617000D01*
X157308524Y-110846890D01*
X143040000Y-110846890D01*
X143040000Y-102870000D01*
X142930767Y-102320849D01*
X142619698Y-101855302D01*
X140714698Y-99950302D01*
X140661784Y-99914946D01*
X140249151Y-99639233D01*
X139700000Y-99530000D01*
X137488545Y-99530000D01*
X137748122Y-99245167D01*
X146384838Y-99245167D01*
X146526883Y-99588943D01*
X146789673Y-99852192D01*
X147133201Y-99994838D01*
X147180077Y-99994879D01*
X154639878Y-107454680D01*
X154639838Y-107500167D01*
X154781883Y-107843943D01*
X155044673Y-108107192D01*
X155388201Y-108249838D01*
X155760167Y-108250162D01*
X156103943Y-108108117D01*
X156367192Y-107845327D01*
X156509838Y-107501799D01*
X156510162Y-107129833D01*
X156368117Y-106786057D01*
X156105327Y-106522808D01*
X155761799Y-106380162D01*
X155714923Y-106380121D01*
X148255122Y-98920320D01*
X148255162Y-98874833D01*
X148113117Y-98531057D01*
X147850327Y-98267808D01*
X147506799Y-98125162D01*
X147134833Y-98124838D01*
X146791057Y-98266883D01*
X146527808Y-98529673D01*
X146385162Y-98873201D01*
X146384838Y-99245167D01*
X137748122Y-99245167D01*
X137796645Y-99191924D01*
X137966476Y-98781890D01*
X137845155Y-98552000D01*
X136652000Y-98552000D01*
X136652000Y-98572000D01*
X136398000Y-98572000D01*
X136398000Y-98552000D01*
X135204845Y-98552000D01*
X135083524Y-98781890D01*
X135253355Y-99191924D01*
X135643642Y-99620183D01*
X135786553Y-99687298D01*
X135445853Y-99914946D01*
X135123946Y-100396715D01*
X135010907Y-100965000D01*
X135123946Y-101533285D01*
X135445853Y-102015054D01*
X135775026Y-102235000D01*
X135445853Y-102454946D01*
X135123946Y-102936715D01*
X135010907Y-103505000D01*
X135123946Y-104073285D01*
X135445853Y-104555054D01*
X135927622Y-104876961D01*
X136495907Y-104990000D01*
X136554093Y-104990000D01*
X137122378Y-104876961D01*
X137604147Y-104555054D01*
X137926054Y-104073285D01*
X138039093Y-103505000D01*
X137926054Y-102936715D01*
X137604147Y-102454946D01*
X137521914Y-102400000D01*
X139105604Y-102400000D01*
X140170000Y-103464396D01*
X140170000Y-110530604D01*
X139740604Y-110960000D01*
X137816177Y-110960000D01*
X137837440Y-110855000D01*
X137837440Y-108855000D01*
X137793162Y-108619683D01*
X137654090Y-108403559D01*
X137441890Y-108258569D01*
X137190000Y-108207560D01*
X134695000Y-108207560D01*
X134695000Y-96241890D01*
X135083524Y-96241890D01*
X135253355Y-96651924D01*
X135643642Y-97080183D01*
X135802954Y-97155000D01*
X135643642Y-97229817D01*
X135253355Y-97658076D01*
X135083524Y-98068110D01*
X135204845Y-98298000D01*
X136398000Y-98298000D01*
X136398000Y-96012000D01*
X136652000Y-96012000D01*
X136652000Y-98298000D01*
X137845155Y-98298000D01*
X137966476Y-98068110D01*
X137796645Y-97658076D01*
X137406358Y-97229817D01*
X137247046Y-97155000D01*
X137406358Y-97080183D01*
X137796645Y-96651924D01*
X137966476Y-96241890D01*
X137845155Y-96012000D01*
X136652000Y-96012000D01*
X136398000Y-96012000D01*
X135204845Y-96012000D01*
X135083524Y-96241890D01*
X134695000Y-96241890D01*
X134695000Y-78740000D01*
X135010907Y-78740000D01*
X135123946Y-79308285D01*
X135445853Y-79790054D01*
X135775026Y-80010000D01*
X135445853Y-80229946D01*
X135123946Y-80711715D01*
X135010907Y-81280000D01*
X135123946Y-81848285D01*
X135445853Y-82330054D01*
X135775026Y-82550000D01*
X135445853Y-82769946D01*
X135123946Y-83251715D01*
X135010907Y-83820000D01*
X135123946Y-84388285D01*
X135445853Y-84870054D01*
X135775026Y-85090000D01*
X135445853Y-85309946D01*
X135123946Y-85791715D01*
X135010907Y-86360000D01*
X135123946Y-86928285D01*
X135445853Y-87410054D01*
X135487452Y-87437850D01*
X135439683Y-87446838D01*
X135223559Y-87585910D01*
X135078569Y-87798110D01*
X135027560Y-88050000D01*
X135027560Y-89750000D01*
X135071838Y-89985317D01*
X135210910Y-90201441D01*
X135423110Y-90346431D01*
X135675000Y-90397440D01*
X137375000Y-90397440D01*
X137610317Y-90353162D01*
X137826441Y-90214090D01*
X137971431Y-90001890D01*
X138022440Y-89750000D01*
X138022440Y-88050000D01*
X137978162Y-87814683D01*
X137839090Y-87598559D01*
X137626890Y-87453569D01*
X137559459Y-87439914D01*
X137604147Y-87410054D01*
X137926054Y-86928285D01*
X138039093Y-86360000D01*
X137926054Y-85791715D01*
X137604147Y-85309946D01*
X137274974Y-85090000D01*
X137604147Y-84870054D01*
X137926054Y-84388285D01*
X138039093Y-83820000D01*
X137926054Y-83251715D01*
X137604147Y-82769946D01*
X137274974Y-82550000D01*
X137604147Y-82330054D01*
X137926054Y-81848285D01*
X138039093Y-81280000D01*
X137926054Y-80711715D01*
X137604147Y-80229946D01*
X137274974Y-80010000D01*
X137604147Y-79790054D01*
X137926054Y-79308285D01*
X138039093Y-78740000D01*
X137926054Y-78171715D01*
X137604147Y-77689946D01*
X137263447Y-77462298D01*
X137406358Y-77395183D01*
X137796645Y-76966924D01*
X137966476Y-76556890D01*
X137845155Y-76327000D01*
X136652000Y-76327000D01*
X136652000Y-76347000D01*
X136398000Y-76347000D01*
X136398000Y-76327000D01*
X135204845Y-76327000D01*
X135083524Y-76556890D01*
X135253355Y-76966924D01*
X135643642Y-77395183D01*
X135786553Y-77462298D01*
X135445853Y-77689946D01*
X135123946Y-78171715D01*
X135010907Y-78740000D01*
X134695000Y-78740000D01*
X134695000Y-55320000D01*
X135662781Y-55320000D01*
X135445853Y-55464946D01*
X135445853Y-55464946D01*
G37*
X135445853Y-55464946D02*
X135123946Y-55946715D01*
X135010907Y-56515000D01*
X135123946Y-57083285D01*
X135445853Y-57565054D01*
X135775026Y-57785000D01*
X135445853Y-58004946D01*
X135123946Y-58486715D01*
X135010907Y-59055000D01*
X135123946Y-59623285D01*
X135445853Y-60105054D01*
X135775026Y-60325000D01*
X135445853Y-60544946D01*
X135123946Y-61026715D01*
X135010907Y-61595000D01*
X135123946Y-62163285D01*
X135445853Y-62645054D01*
X135786553Y-62872702D01*
X135643642Y-62939817D01*
X135253355Y-63368076D01*
X135083524Y-63778110D01*
X135204845Y-64008000D01*
X136398000Y-64008000D01*
X136398000Y-63988000D01*
X136652000Y-63988000D01*
X136652000Y-64008000D01*
X137845155Y-64008000D01*
X137966476Y-63778110D01*
X137796645Y-63368076D01*
X137406358Y-62939817D01*
X137263447Y-62872702D01*
X137604147Y-62645054D01*
X137926054Y-62163285D01*
X138039093Y-61595000D01*
X137926054Y-61026715D01*
X137604147Y-60544946D01*
X137274974Y-60325000D01*
X137604147Y-60105054D01*
X137797954Y-59815000D01*
X141439367Y-59815000D01*
X141305162Y-60138201D01*
X141304838Y-60510167D01*
X141446883Y-60853943D01*
X141709673Y-61117192D01*
X142053201Y-61259838D01*
X142425167Y-61260162D01*
X142768943Y-61118117D01*
X142802118Y-61085000D01*
X145487537Y-61085000D01*
X145519673Y-61117192D01*
X145863201Y-61259838D01*
X145945288Y-61259910D01*
X138750198Y-68455000D01*
X138022440Y-68455000D01*
X138022440Y-68365000D01*
X137978162Y-68129683D01*
X137839090Y-67913559D01*
X137626890Y-67768569D01*
X137559459Y-67754914D01*
X137604147Y-67725054D01*
X137926054Y-67243285D01*
X138039093Y-66675000D01*
X137926054Y-66106715D01*
X137604147Y-65624946D01*
X137263447Y-65397298D01*
X137406358Y-65330183D01*
X137796645Y-64901924D01*
X137966476Y-64491890D01*
X137845155Y-64262000D01*
X136652000Y-64262000D01*
X136652000Y-64282000D01*
X136398000Y-64282000D01*
X136398000Y-64262000D01*
X135204845Y-64262000D01*
X135083524Y-64491890D01*
X135253355Y-64901924D01*
X135643642Y-65330183D01*
X135786553Y-65397298D01*
X135445853Y-65624946D01*
X135123946Y-66106715D01*
X135010907Y-66675000D01*
X135123946Y-67243285D01*
X135445853Y-67725054D01*
X135487452Y-67752850D01*
X135439683Y-67761838D01*
X135223559Y-67900910D01*
X135078569Y-68113110D01*
X135027560Y-68365000D01*
X135027560Y-70065000D01*
X135071838Y-70300317D01*
X135210910Y-70516441D01*
X135423110Y-70661431D01*
X135675000Y-70712440D01*
X137375000Y-70712440D01*
X137610317Y-70668162D01*
X137826441Y-70529090D01*
X137971431Y-70316890D01*
X138022440Y-70065000D01*
X138022440Y-69975000D01*
X140655198Y-69975000D01*
X143209878Y-72529680D01*
X143209838Y-72575167D01*
X143344056Y-72900000D01*
X137797954Y-72900000D01*
X137604147Y-72609946D01*
X137122378Y-72288039D01*
X136554093Y-72175000D01*
X136495907Y-72175000D01*
X135927622Y-72288039D01*
X135445853Y-72609946D01*
X135123946Y-73091715D01*
X135010907Y-73660000D01*
X135123946Y-74228285D01*
X135445853Y-74710054D01*
X135786553Y-74937702D01*
X135643642Y-75004817D01*
X135253355Y-75433076D01*
X135083524Y-75843110D01*
X135204845Y-76073000D01*
X136398000Y-76073000D01*
X136398000Y-76053000D01*
X136652000Y-76053000D01*
X136652000Y-76073000D01*
X137845155Y-76073000D01*
X137966476Y-75843110D01*
X137796645Y-75433076D01*
X137406358Y-75004817D01*
X137263447Y-74937702D01*
X137604147Y-74710054D01*
X137797954Y-74420000D01*
X143344367Y-74420000D01*
X143210162Y-74743201D01*
X143209838Y-75115167D01*
X143351883Y-75458943D01*
X143385000Y-75492118D01*
X143385000Y-80082537D01*
X143352808Y-80114673D01*
X143210162Y-80458201D01*
X143209838Y-80830167D01*
X143351883Y-81173943D01*
X143614673Y-81437192D01*
X143958201Y-81579838D01*
X144330167Y-81580162D01*
X144673943Y-81438117D01*
X144937192Y-81175327D01*
X145079838Y-80831799D01*
X145080162Y-80459833D01*
X144938117Y-80116057D01*
X144905000Y-80082882D01*
X144905000Y-75492463D01*
X144937192Y-75460327D01*
X145079838Y-75116799D01*
X145080162Y-74744833D01*
X144945944Y-74420000D01*
X147955000Y-74420000D01*
X148245839Y-74362148D01*
X148425000Y-74242437D01*
X148425000Y-87670604D01*
X144185604Y-91910000D01*
X137643620Y-91910000D01*
X137626890Y-91898569D01*
X137375000Y-91847560D01*
X135675000Y-91847560D01*
X135439683Y-91891838D01*
X135223559Y-92030910D01*
X135078569Y-92243110D01*
X135027560Y-92495000D01*
X135027560Y-94195000D01*
X135071838Y-94430317D01*
X135210910Y-94646441D01*
X135423110Y-94791431D01*
X135531107Y-94813301D01*
X135253355Y-95118076D01*
X135083524Y-95528110D01*
X135204845Y-95758000D01*
X136398000Y-95758000D01*
X136398000Y-95738000D01*
X136652000Y-95738000D01*
X136652000Y-95758000D01*
X137845155Y-95758000D01*
X137966476Y-95528110D01*
X137796645Y-95118076D01*
X137520499Y-94815063D01*
X137610317Y-94798162D01*
X137638542Y-94780000D01*
X144780000Y-94780000D01*
X145080437Y-94720239D01*
X145114878Y-94754680D01*
X145114838Y-94800167D01*
X145256883Y-95143943D01*
X145519673Y-95407192D01*
X145863201Y-95549838D01*
X146235167Y-95550162D01*
X146578943Y-95408117D01*
X146842192Y-95145327D01*
X146984838Y-94801799D01*
X146985162Y-94429833D01*
X146843117Y-94086057D01*
X146580327Y-93822808D01*
X146404569Y-93749827D01*
X147724831Y-92429565D01*
X147796883Y-92603943D01*
X148059673Y-92867192D01*
X148403201Y-93009838D01*
X148775167Y-93010162D01*
X149118943Y-92868117D01*
X149152118Y-92835000D01*
X150495000Y-92835000D01*
X150785839Y-92777148D01*
X151032401Y-92612401D01*
X151904680Y-91740122D01*
X151950167Y-91740162D01*
X152293943Y-91598117D01*
X152557192Y-91335327D01*
X152699838Y-90991799D01*
X152700162Y-90619833D01*
X152558117Y-90276057D01*
X152295327Y-90012808D01*
X151951799Y-89870162D01*
X151579833Y-89869838D01*
X151236057Y-90011883D01*
X150972808Y-90274673D01*
X150830162Y-90618201D01*
X150830121Y-90665077D01*
X150180198Y-91315000D01*
X149152463Y-91315000D01*
X149120327Y-91282808D01*
X148944569Y-91209827D01*
X150874698Y-89279698D01*
X151060276Y-89001961D01*
X151185767Y-88814151D01*
X151295000Y-88265000D01*
X151295000Y-70667242D01*
X151578201Y-70784838D01*
X151625077Y-70784879D01*
X153545000Y-72704802D01*
X153545000Y-78105000D01*
X153602852Y-78395839D01*
X153767599Y-78642401D01*
X157308790Y-82183592D01*
X157235907Y-82550000D01*
X157348946Y-83118285D01*
X157670853Y-83600054D01*
X158000026Y-83820000D01*
X157670853Y-84039946D01*
X157348946Y-84521715D01*
X157235907Y-85090000D01*
X157348946Y-85658285D01*
X157670853Y-86140054D01*
X158000026Y-86360000D01*
X157670853Y-86579946D01*
X157348946Y-87061715D01*
X157235907Y-87630000D01*
X157348946Y-88198285D01*
X157670853Y-88680054D01*
X158000026Y-88900000D01*
X157670853Y-89119946D01*
X157348946Y-89601715D01*
X157235907Y-90170000D01*
X157348946Y-90738285D01*
X157670853Y-91220054D01*
X158011553Y-91447702D01*
X157868642Y-91514817D01*
X157478355Y-91943076D01*
X157308524Y-92353110D01*
X157429845Y-92583000D01*
X158623000Y-92583000D01*
X158623000Y-92563000D01*
X158877000Y-92563000D01*
X158877000Y-92583000D01*
X158897000Y-92583000D01*
X158897000Y-92837000D01*
X158877000Y-92837000D01*
X158877000Y-92857000D01*
X158623000Y-92857000D01*
X158623000Y-92837000D01*
X157429845Y-92837000D01*
X157308524Y-93066890D01*
X157478355Y-93476924D01*
X157868642Y-93905183D01*
X158011553Y-93972298D01*
X157670853Y-94199946D01*
X157348946Y-94681715D01*
X157235907Y-95250000D01*
X157348946Y-95818285D01*
X157670853Y-96300054D01*
X158000026Y-96520000D01*
X157670853Y-96739946D01*
X157348946Y-97221715D01*
X157235907Y-97790000D01*
X157348946Y-98358285D01*
X157670853Y-98840054D01*
X158000026Y-99060000D01*
X157670853Y-99279946D01*
X157348946Y-99761715D01*
X157235907Y-100330000D01*
X157348946Y-100898285D01*
X157670853Y-101380054D01*
X158000026Y-101600000D01*
X157670853Y-101819946D01*
X157348946Y-102301715D01*
X157244019Y-102829217D01*
X150795122Y-96380320D01*
X150795162Y-96334833D01*
X150653117Y-95991057D01*
X150390327Y-95727808D01*
X150046799Y-95585162D01*
X149674833Y-95584838D01*
X149331057Y-95726883D01*
X149067808Y-95989673D01*
X148925162Y-96333201D01*
X148924838Y-96705167D01*
X149066883Y-97048943D01*
X149329673Y-97312192D01*
X149673201Y-97454838D01*
X149720077Y-97454879D01*
X157308790Y-105043592D01*
X157235907Y-105410000D01*
X157348946Y-105978285D01*
X157670853Y-106460054D01*
X158000026Y-106680000D01*
X157670853Y-106899946D01*
X157348946Y-107381715D01*
X157235907Y-107950000D01*
X157348946Y-108518285D01*
X157670853Y-109000054D01*
X158011553Y-109227702D01*
X157868642Y-109294817D01*
X157478355Y-109723076D01*
X157308524Y-110133110D01*
X157429845Y-110363000D01*
X158623000Y-110363000D01*
X158623000Y-110343000D01*
X158877000Y-110343000D01*
X158877000Y-110363000D01*
X158897000Y-110363000D01*
X158897000Y-110617000D01*
X158877000Y-110617000D01*
X158877000Y-111810819D01*
X159106892Y-111931486D01*
X159631358Y-111685183D01*
X160021645Y-111256924D01*
X160021655Y-111256899D01*
X160210853Y-111540054D01*
X160692622Y-111861961D01*
X161260907Y-111975000D01*
X161319093Y-111975000D01*
X161887378Y-111861961D01*
X162369147Y-111540054D01*
X162691054Y-111058285D01*
X162804093Y-110490000D01*
X162691054Y-109921715D01*
X162369147Y-109439946D01*
X162039974Y-109220000D01*
X162369147Y-109000054D01*
X162691054Y-108518285D01*
X162804093Y-107950000D01*
X162691054Y-107381715D01*
X162369147Y-106899946D01*
X162039974Y-106680000D01*
X162369147Y-106460054D01*
X162691054Y-105978285D01*
X162804093Y-105410000D01*
X162691054Y-104841715D01*
X162369147Y-104359946D01*
X162028447Y-104132298D01*
X162171358Y-104065183D01*
X162561645Y-103636924D01*
X162731476Y-103226890D01*
X162610155Y-102997000D01*
X161417000Y-102997000D01*
X161417000Y-103017000D01*
X161163000Y-103017000D01*
X161163000Y-102997000D01*
X161143000Y-102997000D01*
X161143000Y-102743000D01*
X161163000Y-102743000D01*
X161163000Y-102723000D01*
X161417000Y-102723000D01*
X161417000Y-102743000D01*
X162610155Y-102743000D01*
X162731476Y-102513110D01*
X162561645Y-102103076D01*
X162171358Y-101674817D01*
X162028447Y-101607702D01*
X162369147Y-101380054D01*
X162691054Y-100898285D01*
X162804093Y-100330000D01*
X162691054Y-99761715D01*
X162369147Y-99279946D01*
X162028447Y-99052298D01*
X162171358Y-98985183D01*
X162561645Y-98556924D01*
X162731476Y-98146890D01*
X162610155Y-97917000D01*
X161417000Y-97917000D01*
X161417000Y-97937000D01*
X161163000Y-97937000D01*
X161163000Y-97917000D01*
X161143000Y-97917000D01*
X161143000Y-97663000D01*
X161163000Y-97663000D01*
X161163000Y-97643000D01*
X161417000Y-97643000D01*
X161417000Y-97663000D01*
X162610155Y-97663000D01*
X162731476Y-97433110D01*
X162561645Y-97023076D01*
X162171358Y-96594817D01*
X162028447Y-96527702D01*
X162369147Y-96300054D01*
X162691054Y-95818285D01*
X162804093Y-95250000D01*
X162691054Y-94681715D01*
X162369147Y-94199946D01*
X162039974Y-93980000D01*
X162369147Y-93760054D01*
X162691054Y-93278285D01*
X162804093Y-92710000D01*
X162691054Y-92141715D01*
X162369147Y-91659946D01*
X162039974Y-91440000D01*
X162369147Y-91220054D01*
X162691054Y-90738285D01*
X162804093Y-90170000D01*
X162691054Y-89601715D01*
X162369147Y-89119946D01*
X162039974Y-88900000D01*
X162369147Y-88680054D01*
X162691054Y-88198285D01*
X162804093Y-87630000D01*
X162691054Y-87061715D01*
X162369147Y-86579946D01*
X162028447Y-86352298D01*
X162171358Y-86285183D01*
X162561645Y-85856924D01*
X162731476Y-85446890D01*
X162610155Y-85217000D01*
X161417000Y-85217000D01*
X161417000Y-85237000D01*
X161163000Y-85237000D01*
X161163000Y-85217000D01*
X161143000Y-85217000D01*
X161143000Y-84963000D01*
X161163000Y-84963000D01*
X161163000Y-84943000D01*
X161417000Y-84943000D01*
X161417000Y-84963000D01*
X162610155Y-84963000D01*
X162731476Y-84733110D01*
X162561645Y-84323076D01*
X162171358Y-83894817D01*
X162028447Y-83827702D01*
X162369147Y-83600054D01*
X162691054Y-83118285D01*
X162804093Y-82550000D01*
X162691054Y-81981715D01*
X162369147Y-81499946D01*
X162039974Y-81280000D01*
X162369147Y-81060054D01*
X162691054Y-80578285D01*
X162804093Y-80010000D01*
X162691054Y-79441715D01*
X162369147Y-78959946D01*
X162028447Y-78732298D01*
X162171358Y-78665183D01*
X162561645Y-78236924D01*
X162731476Y-77826890D01*
X162610155Y-77597000D01*
X161417000Y-77597000D01*
X161417000Y-77617000D01*
X161163000Y-77617000D01*
X161163000Y-77597000D01*
X161143000Y-77597000D01*
X161143000Y-77343000D01*
X161163000Y-77343000D01*
X161163000Y-77323000D01*
X161417000Y-77323000D01*
X161417000Y-77343000D01*
X162610155Y-77343000D01*
X162731476Y-77113110D01*
X162561645Y-76703076D01*
X162171358Y-76274817D01*
X162028447Y-76207702D01*
X162369147Y-75980054D01*
X162691054Y-75498285D01*
X162804093Y-74930000D01*
X162691054Y-74361715D01*
X162369147Y-73879946D01*
X162039974Y-73660000D01*
X162369147Y-73440054D01*
X162691054Y-72958285D01*
X162804093Y-72390000D01*
X162731210Y-72023592D01*
X163097401Y-71657401D01*
X163120000Y-71623579D01*
X163120000Y-117400000D01*
X134695000Y-117400000D01*
X134695000Y-116277382D01*
X134846980Y-116396942D01*
X135463000Y-116570000D01*
X135763000Y-116570000D01*
X135763000Y-115062000D01*
X136017000Y-115062000D01*
X136017000Y-116570000D01*
X136317000Y-116570000D01*
X136933020Y-116396942D01*
X137435922Y-116001317D01*
X137749144Y-115443355D01*
X137780124Y-115315434D01*
X137660777Y-115062000D01*
X136017000Y-115062000D01*
X135763000Y-115062000D01*
X135743000Y-115062000D01*
X135743000Y-114808000D01*
X135763000Y-114808000D01*
X135763000Y-114788000D01*
X136017000Y-114788000D01*
X136017000Y-114808000D01*
X137660777Y-114808000D01*
X137780124Y-114554566D01*
X137749144Y-114426645D01*
X137435922Y-113868683D01*
X137386750Y-113830000D01*
X140335000Y-113830000D01*
X140884151Y-113720767D01*
X141349698Y-113409698D01*
X142619698Y-112139698D01*
X142930767Y-111674151D01*
X143040000Y-111125000D01*
X143040000Y-110846890D01*
X157308524Y-110846890D01*
X157478355Y-111256924D01*
X157868642Y-111685183D01*
X158393108Y-111931486D01*
X158623000Y-111810819D01*
X158623000Y-110617000D01*
X157429845Y-110617000D01*
X157308524Y-110846890D01*
X143040000Y-110846890D01*
X143040000Y-102870000D01*
X142930767Y-102320849D01*
X142619698Y-101855302D01*
X140714698Y-99950302D01*
X140661784Y-99914946D01*
X140249151Y-99639233D01*
X139700000Y-99530000D01*
X137488545Y-99530000D01*
X137748122Y-99245167D01*
X146384838Y-99245167D01*
X146526883Y-99588943D01*
X146789673Y-99852192D01*
X147133201Y-99994838D01*
X147180077Y-99994879D01*
X154639878Y-107454680D01*
X154639838Y-107500167D01*
X154781883Y-107843943D01*
X155044673Y-108107192D01*
X155388201Y-108249838D01*
X155760167Y-108250162D01*
X156103943Y-108108117D01*
X156367192Y-107845327D01*
X156509838Y-107501799D01*
X156510162Y-107129833D01*
X156368117Y-106786057D01*
X156105327Y-106522808D01*
X155761799Y-106380162D01*
X155714923Y-106380121D01*
X148255122Y-98920320D01*
X148255162Y-98874833D01*
X148113117Y-98531057D01*
X147850327Y-98267808D01*
X147506799Y-98125162D01*
X147134833Y-98124838D01*
X146791057Y-98266883D01*
X146527808Y-98529673D01*
X146385162Y-98873201D01*
X146384838Y-99245167D01*
X137748122Y-99245167D01*
X137796645Y-99191924D01*
X137966476Y-98781890D01*
X137845155Y-98552000D01*
X136652000Y-98552000D01*
X136652000Y-98572000D01*
X136398000Y-98572000D01*
X136398000Y-98552000D01*
X135204845Y-98552000D01*
X135083524Y-98781890D01*
X135253355Y-99191924D01*
X135643642Y-99620183D01*
X135786553Y-99687298D01*
X135445853Y-99914946D01*
X135123946Y-100396715D01*
X135010907Y-100965000D01*
X135123946Y-101533285D01*
X135445853Y-102015054D01*
X135775026Y-102235000D01*
X135445853Y-102454946D01*
X135123946Y-102936715D01*
X135010907Y-103505000D01*
X135123946Y-104073285D01*
X135445853Y-104555054D01*
X135927622Y-104876961D01*
X136495907Y-104990000D01*
X136554093Y-104990000D01*
X137122378Y-104876961D01*
X137604147Y-104555054D01*
X137926054Y-104073285D01*
X138039093Y-103505000D01*
X137926054Y-102936715D01*
X137604147Y-102454946D01*
X137521914Y-102400000D01*
X139105604Y-102400000D01*
X140170000Y-103464396D01*
X140170000Y-110530604D01*
X139740604Y-110960000D01*
X137816177Y-110960000D01*
X137837440Y-110855000D01*
X137837440Y-108855000D01*
X137793162Y-108619683D01*
X137654090Y-108403559D01*
X137441890Y-108258569D01*
X137190000Y-108207560D01*
X134695000Y-108207560D01*
X134695000Y-96241890D01*
X135083524Y-96241890D01*
X135253355Y-96651924D01*
X135643642Y-97080183D01*
X135802954Y-97155000D01*
X135643642Y-97229817D01*
X135253355Y-97658076D01*
X135083524Y-98068110D01*
X135204845Y-98298000D01*
X136398000Y-98298000D01*
X136398000Y-96012000D01*
X136652000Y-96012000D01*
X136652000Y-98298000D01*
X137845155Y-98298000D01*
X137966476Y-98068110D01*
X137796645Y-97658076D01*
X137406358Y-97229817D01*
X137247046Y-97155000D01*
X137406358Y-97080183D01*
X137796645Y-96651924D01*
X137966476Y-96241890D01*
X137845155Y-96012000D01*
X136652000Y-96012000D01*
X136398000Y-96012000D01*
X135204845Y-96012000D01*
X135083524Y-96241890D01*
X134695000Y-96241890D01*
X134695000Y-78740000D01*
X135010907Y-78740000D01*
X135123946Y-79308285D01*
X135445853Y-79790054D01*
X135775026Y-80010000D01*
X135445853Y-80229946D01*
X135123946Y-80711715D01*
X135010907Y-81280000D01*
X135123946Y-81848285D01*
X135445853Y-82330054D01*
X135775026Y-82550000D01*
X135445853Y-82769946D01*
X135123946Y-83251715D01*
X135010907Y-83820000D01*
X135123946Y-84388285D01*
X135445853Y-84870054D01*
X135775026Y-85090000D01*
X135445853Y-85309946D01*
X135123946Y-85791715D01*
X135010907Y-86360000D01*
X135123946Y-86928285D01*
X135445853Y-87410054D01*
X135487452Y-87437850D01*
X135439683Y-87446838D01*
X135223559Y-87585910D01*
X135078569Y-87798110D01*
X135027560Y-88050000D01*
X135027560Y-89750000D01*
X135071838Y-89985317D01*
X135210910Y-90201441D01*
X135423110Y-90346431D01*
X135675000Y-90397440D01*
X137375000Y-90397440D01*
X137610317Y-90353162D01*
X137826441Y-90214090D01*
X137971431Y-90001890D01*
X138022440Y-89750000D01*
X138022440Y-88050000D01*
X137978162Y-87814683D01*
X137839090Y-87598559D01*
X137626890Y-87453569D01*
X137559459Y-87439914D01*
X137604147Y-87410054D01*
X137926054Y-86928285D01*
X138039093Y-86360000D01*
X137926054Y-85791715D01*
X137604147Y-85309946D01*
X137274974Y-85090000D01*
X137604147Y-84870054D01*
X137926054Y-84388285D01*
X138039093Y-83820000D01*
X137926054Y-83251715D01*
X137604147Y-82769946D01*
X137274974Y-82550000D01*
X137604147Y-82330054D01*
X137926054Y-81848285D01*
X138039093Y-81280000D01*
X137926054Y-80711715D01*
X137604147Y-80229946D01*
X137274974Y-80010000D01*
X137604147Y-79790054D01*
X137926054Y-79308285D01*
X138039093Y-78740000D01*
X137926054Y-78171715D01*
X137604147Y-77689946D01*
X137263447Y-77462298D01*
X137406358Y-77395183D01*
X137796645Y-76966924D01*
X137966476Y-76556890D01*
X137845155Y-76327000D01*
X136652000Y-76327000D01*
X136652000Y-76347000D01*
X136398000Y-76347000D01*
X136398000Y-76327000D01*
X135204845Y-76327000D01*
X135083524Y-76556890D01*
X135253355Y-76966924D01*
X135643642Y-77395183D01*
X135786553Y-77462298D01*
X135445853Y-77689946D01*
X135123946Y-78171715D01*
X135010907Y-78740000D01*
X134695000Y-78740000D01*
X134695000Y-55320000D01*
X135662781Y-55320000D01*
X135445853Y-55464946D01*
G36*
X160018355Y-85856924D02*
X160408642Y-86285183D01*
X160551553Y-86352298D01*
X160210853Y-86579946D01*
X160020000Y-86865578D01*
X159829147Y-86579946D01*
X159499974Y-86360000D01*
X159829147Y-86140054D01*
X160018345Y-85856899D01*
X160018355Y-85856924D01*
X160018355Y-85856924D01*
G37*
X160018355Y-85856924D02*
X160408642Y-86285183D01*
X160551553Y-86352298D01*
X160210853Y-86579946D01*
X160020000Y-86865578D01*
X159829147Y-86579946D01*
X159499974Y-86360000D01*
X159829147Y-86140054D01*
X160018345Y-85856899D01*
X160018355Y-85856924D01*
G36*
X158877000Y-72263000D02*
X158897000Y-72263000D01*
X158897000Y-72517000D01*
X158877000Y-72517000D01*
X158877000Y-72537000D01*
X158623000Y-72537000D01*
X158623000Y-72517000D01*
X158603000Y-72517000D01*
X158603000Y-72263000D01*
X158623000Y-72263000D01*
X158623000Y-72243000D01*
X158877000Y-72243000D01*
X158877000Y-72263000D01*
X158877000Y-72263000D01*
G37*
X158877000Y-72263000D02*
X158897000Y-72263000D01*
X158897000Y-72517000D01*
X158877000Y-72517000D01*
X158877000Y-72537000D01*
X158623000Y-72537000D01*
X158623000Y-72517000D01*
X158603000Y-72517000D01*
X158603000Y-72263000D01*
X158623000Y-72263000D01*
X158623000Y-72243000D01*
X158877000Y-72243000D01*
X158877000Y-72263000D01*
G36*
X163120000Y-68711421D02*
X163097401Y-68677599D01*
X162530691Y-68110889D01*
X162561645Y-68076924D01*
X162731476Y-67666890D01*
X162610155Y-67437000D01*
X161417000Y-67437000D01*
X161417000Y-67457000D01*
X161163000Y-67457000D01*
X161163000Y-67437000D01*
X161143000Y-67437000D01*
X161143000Y-67183000D01*
X161163000Y-67183000D01*
X161163000Y-67163000D01*
X161417000Y-67163000D01*
X161417000Y-67183000D01*
X162610155Y-67183000D01*
X162731476Y-66953110D01*
X162561645Y-66543076D01*
X162171358Y-66114817D01*
X162028447Y-66047702D01*
X162369147Y-65820054D01*
X162691054Y-65338285D01*
X162804093Y-64770000D01*
X162725000Y-64372373D01*
X162725000Y-62627627D01*
X162804093Y-62230000D01*
X162725000Y-61832373D01*
X162725000Y-60960000D01*
X162615767Y-60410849D01*
X162304698Y-59945302D01*
X160399698Y-58040302D01*
X160297176Y-57971799D01*
X159934151Y-57729233D01*
X159385000Y-57620000D01*
X156210000Y-57620000D01*
X155660849Y-57729233D01*
X155195302Y-58040302D01*
X153265169Y-59970435D01*
X153193117Y-59796057D01*
X152930327Y-59532808D01*
X152586799Y-59390162D01*
X152214833Y-59389838D01*
X151871057Y-59531883D01*
X151837882Y-59565000D01*
X147955000Y-59565000D01*
X147664161Y-59622852D01*
X147417599Y-59787599D01*
X146985092Y-60220106D01*
X146985162Y-60139833D01*
X146843117Y-59796057D01*
X146580327Y-59532808D01*
X146236799Y-59390162D01*
X145864833Y-59389838D01*
X145521057Y-59531883D01*
X145487882Y-59565000D01*
X144709802Y-59565000D01*
X146318592Y-57956210D01*
X146685000Y-58029093D01*
X147253285Y-57916054D01*
X147735054Y-57594147D01*
X147962702Y-57253447D01*
X148029817Y-57396358D01*
X148458076Y-57786645D01*
X148868110Y-57956476D01*
X149098000Y-57835155D01*
X149098000Y-56642000D01*
X149078000Y-56642000D01*
X149078000Y-56388000D01*
X149098000Y-56388000D01*
X149098000Y-56368000D01*
X149352000Y-56368000D01*
X149352000Y-56388000D01*
X149372000Y-56388000D01*
X149372000Y-56642000D01*
X149352000Y-56642000D01*
X149352000Y-57835155D01*
X149581890Y-57956476D01*
X149991924Y-57786645D01*
X150294937Y-57510499D01*
X150311838Y-57600317D01*
X150450910Y-57816441D01*
X150663110Y-57961431D01*
X150915000Y-58012440D01*
X152615000Y-58012440D01*
X152850317Y-57968162D01*
X153066441Y-57829090D01*
X153211431Y-57616890D01*
X153262440Y-57365000D01*
X153262440Y-55665000D01*
X153218162Y-55429683D01*
X153147583Y-55320000D01*
X163120000Y-55320000D01*
X163120000Y-68711421D01*
X163120000Y-68711421D01*
G37*
X163120000Y-68711421D02*
X163097401Y-68677599D01*
X162530691Y-68110889D01*
X162561645Y-68076924D01*
X162731476Y-67666890D01*
X162610155Y-67437000D01*
X161417000Y-67437000D01*
X161417000Y-67457000D01*
X161163000Y-67457000D01*
X161163000Y-67437000D01*
X161143000Y-67437000D01*
X161143000Y-67183000D01*
X161163000Y-67183000D01*
X161163000Y-67163000D01*
X161417000Y-67163000D01*
X161417000Y-67183000D01*
X162610155Y-67183000D01*
X162731476Y-66953110D01*
X162561645Y-66543076D01*
X162171358Y-66114817D01*
X162028447Y-66047702D01*
X162369147Y-65820054D01*
X162691054Y-65338285D01*
X162804093Y-64770000D01*
X162725000Y-64372373D01*
X162725000Y-62627627D01*
X162804093Y-62230000D01*
X162725000Y-61832373D01*
X162725000Y-60960000D01*
X162615767Y-60410849D01*
X162304698Y-59945302D01*
X160399698Y-58040302D01*
X160297176Y-57971799D01*
X159934151Y-57729233D01*
X159385000Y-57620000D01*
X156210000Y-57620000D01*
X155660849Y-57729233D01*
X155195302Y-58040302D01*
X153265169Y-59970435D01*
X153193117Y-59796057D01*
X152930327Y-59532808D01*
X152586799Y-59390162D01*
X152214833Y-59389838D01*
X151871057Y-59531883D01*
X151837882Y-59565000D01*
X147955000Y-59565000D01*
X147664161Y-59622852D01*
X147417599Y-59787599D01*
X146985092Y-60220106D01*
X146985162Y-60139833D01*
X146843117Y-59796057D01*
X146580327Y-59532808D01*
X146236799Y-59390162D01*
X145864833Y-59389838D01*
X145521057Y-59531883D01*
X145487882Y-59565000D01*
X144709802Y-59565000D01*
X146318592Y-57956210D01*
X146685000Y-58029093D01*
X147253285Y-57916054D01*
X147735054Y-57594147D01*
X147962702Y-57253447D01*
X148029817Y-57396358D01*
X148458076Y-57786645D01*
X148868110Y-57956476D01*
X149098000Y-57835155D01*
X149098000Y-56642000D01*
X149078000Y-56642000D01*
X149078000Y-56388000D01*
X149098000Y-56388000D01*
X149098000Y-56368000D01*
X149352000Y-56368000D01*
X149352000Y-56388000D01*
X149372000Y-56388000D01*
X149372000Y-56642000D01*
X149352000Y-56642000D01*
X149352000Y-57835155D01*
X149581890Y-57956476D01*
X149991924Y-57786645D01*
X150294937Y-57510499D01*
X150311838Y-57600317D01*
X150450910Y-57816441D01*
X150663110Y-57961431D01*
X150915000Y-58012440D01*
X152615000Y-58012440D01*
X152850317Y-57968162D01*
X153066441Y-57829090D01*
X153211431Y-57616890D01*
X153262440Y-57365000D01*
X153262440Y-55665000D01*
X153218162Y-55429683D01*
X153147583Y-55320000D01*
X163120000Y-55320000D01*
X163120000Y-68711421D01*
M02*
