G04 #@! TF.GenerationSoftware,KiCad,Pcbnew,(5.0.1-3-g963ef8bb5)*
G04 #@! TF.CreationDate,2018-11-24T15:45:27-07:00*
G04 #@! TF.ProjectId,robot,726F626F742E6B696361645F70636200,rev?*
G04 #@! TF.SameCoordinates,Original*
G04 #@! TF.FileFunction,Copper,L1,Top,Signal*
G04 #@! TF.FilePolarity,Positive*
%FSLAX46Y46*%
G04 Gerber Fmt 4.6, Leading zero omitted, Abs format (unit mm)*
G04 Created by KiCad (PCBNEW (5.0.1-3-g963ef8bb5)) date Saturday, November 24, 2018 at 03:45:27 PM*
%MOMM*%
%LPD*%
G01*
G04 APERTURE LIST*
G04 #@! TA.AperFunction,ComponentPad*
%ADD10O,1.700000X1.700000*%
G04 #@! TD*
G04 #@! TA.AperFunction,ComponentPad*
%ADD11R,1.700000X1.700000*%
G04 #@! TD*
G04 #@! TA.AperFunction,ComponentPad*
%ADD12R,2.000000X2.600000*%
G04 #@! TD*
G04 #@! TA.AperFunction,ComponentPad*
%ADD13O,2.000000X2.600000*%
G04 #@! TD*
G04 #@! TA.AperFunction,ViaPad*
%ADD14C,0.600000*%
G04 #@! TD*
G04 #@! TA.AperFunction,Conductor*
%ADD15C,0.250000*%
G04 #@! TD*
G04 #@! TA.AperFunction,Conductor*
%ADD16C,1.600000*%
G04 #@! TD*
G04 #@! TA.AperFunction,Conductor*
%ADD17C,1.000000*%
G04 #@! TD*
G04 #@! TA.AperFunction,Conductor*
%ADD18C,0.254000*%
G04 #@! TD*
G04 APERTURE END LIST*
D10*
G04 #@! TO.P,J2,10*
G04 #@! TO.N,RXI*
X172720000Y-69850000D03*
G04 #@! TO.P,J2,9*
G04 #@! TO.N,GND*
X170180000Y-69850000D03*
G04 #@! TO.P,J2,8*
G04 #@! TO.N,TXO*
X172720000Y-67310000D03*
G04 #@! TO.P,J2,7*
G04 #@! TO.N,DTR*
X170180000Y-67310000D03*
G04 #@! TO.P,J2,6*
G04 #@! TO.N,GND*
X172720000Y-64770000D03*
G04 #@! TO.P,J2,5*
G04 #@! TO.N,SCL*
X170180000Y-64770000D03*
G04 #@! TO.P,J2,4*
G04 #@! TO.N,+5V*
X172720000Y-62230000D03*
G04 #@! TO.P,J2,3*
G04 #@! TO.N,SDA*
X170180000Y-62230000D03*
G04 #@! TO.P,J2,2*
G04 #@! TO.N,+5V*
X172720000Y-59690000D03*
D11*
G04 #@! TO.P,J2,1*
G04 #@! TO.N,+3V3*
X170180000Y-59690000D03*
G04 #@! TD*
D12*
G04 #@! TO.P,J6,1*
G04 #@! TO.N,DATA*
X159385000Y-59055000D03*
D13*
G04 #@! TO.P,J6,2*
G04 #@! TO.N,+5V*
X161925000Y-59055000D03*
G04 #@! TO.P,J6,3*
G04 #@! TO.N,GND*
X164465000Y-59055000D03*
G04 #@! TD*
D11*
G04 #@! TO.P,J4,1*
G04 #@! TO.N,SCL*
X133985000Y-59690000D03*
D10*
G04 #@! TO.P,J4,2*
G04 #@! TO.N,SDA*
X133985000Y-62230000D03*
G04 #@! TO.P,J4,3*
G04 #@! TO.N,GND*
X133985000Y-64770000D03*
G04 #@! TO.P,J4,4*
G04 #@! TO.N,+3V3*
X133985000Y-67310000D03*
G04 #@! TD*
G04 #@! TO.P,J1,4*
G04 #@! TO.N,+3V3*
X137795000Y-67310000D03*
G04 #@! TO.P,J1,3*
G04 #@! TO.N,GND*
X137795000Y-64770000D03*
G04 #@! TO.P,J1,2*
G04 #@! TO.N,SDA*
X137795000Y-62230000D03*
D11*
G04 #@! TO.P,J1,1*
G04 #@! TO.N,SCL*
X137795000Y-59690000D03*
G04 #@! TD*
D14*
G04 #@! TO.N,GND*
X164465000Y-69850000D03*
X151181018Y-69189491D03*
G04 #@! TO.N,+3V3*
X159385000Y-64770000D03*
X156845000Y-64770000D03*
G04 #@! TO.N,DTR*
X167640000Y-67945000D03*
X167640000Y-65405000D03*
G04 #@! TO.N,Net-(Q1-Pad2)*
X147955000Y-65405000D03*
X144145000Y-65405000D03*
G04 #@! TO.N,SDA*
X166245558Y-62740558D03*
G04 #@! TO.N,SCL*
X164465000Y-62230000D03*
G04 #@! TD*
D15*
G04 #@! TO.N,GND*
X171450000Y-68580000D02*
X170180000Y-69850000D01*
X171450000Y-66040000D02*
X171450000Y-68580000D01*
X172720000Y-64770000D02*
X171450000Y-66040000D01*
D16*
X170180000Y-69850000D02*
X166370000Y-69850000D01*
D15*
X164465000Y-69850000D02*
X166370000Y-69850000D01*
X151841527Y-69850000D02*
X166370000Y-69850000D01*
X151181018Y-69189491D02*
X151841527Y-69850000D01*
D17*
G04 #@! TO.N,+5V*
X172720000Y-62230000D02*
X172720000Y-59690000D01*
X163689990Y-56655010D02*
X161925000Y-58420000D01*
X170955010Y-56655010D02*
X163689990Y-56655010D01*
X172720000Y-58420000D02*
X170955010Y-56655010D01*
X161925000Y-58420000D02*
X161925000Y-59055000D01*
X172720000Y-59690000D02*
X172720000Y-58420000D01*
D15*
G04 #@! TO.N,+3V3*
X169080000Y-59690000D02*
X167005000Y-61765000D01*
X170180000Y-59690000D02*
X169080000Y-59690000D01*
X167005000Y-61765000D02*
X167005000Y-62865000D01*
X165100000Y-64770000D02*
X159385000Y-64770000D01*
X167005000Y-62865000D02*
X165100000Y-64770000D01*
X159385000Y-64770000D02*
X156845000Y-64770000D01*
G04 #@! TO.N,DTR*
X167640000Y-67945000D02*
X167640000Y-65405000D01*
G04 #@! TO.N,Net-(Q1-Pad2)*
X147955000Y-65405000D02*
X144145000Y-65405000D01*
G04 #@! TO.N,SDA*
X137795000Y-62230000D02*
X154305000Y-62230000D01*
X166131115Y-62855001D02*
X166245558Y-62740558D01*
X154930001Y-62855001D02*
X166131115Y-62855001D01*
X154305000Y-62230000D02*
X154930001Y-62855001D01*
G04 #@! TO.N,SCL*
X137795000Y-59690000D02*
X153670000Y-59690000D01*
X156210000Y-62230000D02*
X164465000Y-62230000D01*
X153670000Y-59690000D02*
X156210000Y-62230000D01*
G04 #@! TD*
D18*
G04 #@! TO.N,GND*
G36*
X161584088Y-57155780D02*
X161287055Y-57214864D01*
X160941900Y-57445489D01*
X160842809Y-57297191D01*
X160632765Y-57156843D01*
X160385000Y-57107560D01*
X158385000Y-57107560D01*
X158137235Y-57156843D01*
X157927191Y-57297191D01*
X157786843Y-57507235D01*
X157737560Y-57755000D01*
X157737560Y-60355000D01*
X157786843Y-60602765D01*
X157927191Y-60812809D01*
X158137235Y-60953157D01*
X158385000Y-61002440D01*
X160385000Y-61002440D01*
X160632765Y-60953157D01*
X160842809Y-60812809D01*
X160941900Y-60664510D01*
X161287056Y-60895136D01*
X161925000Y-61022031D01*
X162562945Y-60895136D01*
X163103769Y-60533769D01*
X163214952Y-60367371D01*
X163398683Y-60600922D01*
X163956645Y-60914144D01*
X164084566Y-60945124D01*
X164338000Y-60825777D01*
X164338000Y-59182000D01*
X164592000Y-59182000D01*
X164592000Y-60825777D01*
X164845434Y-60945124D01*
X164973355Y-60914144D01*
X165531317Y-60600922D01*
X165926942Y-60098020D01*
X166100000Y-59482000D01*
X166100000Y-59182000D01*
X164592000Y-59182000D01*
X164338000Y-59182000D01*
X164318000Y-59182000D01*
X164318000Y-58928000D01*
X164338000Y-58928000D01*
X164338000Y-58908000D01*
X164592000Y-58908000D01*
X164592000Y-58928000D01*
X166100000Y-58928000D01*
X166100000Y-58628000D01*
X165926942Y-58011980D01*
X165752322Y-57790010D01*
X170484879Y-57790010D01*
X170887429Y-58192560D01*
X169330000Y-58192560D01*
X169082235Y-58241843D01*
X168872191Y-58382191D01*
X168731843Y-58592235D01*
X168682560Y-58840000D01*
X168682560Y-59041517D01*
X168532071Y-59142071D01*
X168489671Y-59205527D01*
X166520530Y-61174669D01*
X166457071Y-61217071D01*
X166289096Y-61468464D01*
X166245000Y-61690149D01*
X166245000Y-61690153D01*
X166230112Y-61765000D01*
X166238180Y-61805558D01*
X166059575Y-61805558D01*
X165715923Y-61947903D01*
X165568825Y-62095001D01*
X165400000Y-62095001D01*
X165400000Y-62044017D01*
X165257655Y-61700365D01*
X164994635Y-61437345D01*
X164650983Y-61295000D01*
X164279017Y-61295000D01*
X163935365Y-61437345D01*
X163902710Y-61470000D01*
X156524803Y-61470000D01*
X154260331Y-59205530D01*
X154217929Y-59142071D01*
X153966537Y-58974096D01*
X153744852Y-58930000D01*
X153744847Y-58930000D01*
X153670000Y-58915112D01*
X153595153Y-58930000D01*
X139292440Y-58930000D01*
X139292440Y-58840000D01*
X139243157Y-58592235D01*
X139102809Y-58382191D01*
X138892765Y-58241843D01*
X138645000Y-58192560D01*
X136945000Y-58192560D01*
X136697235Y-58241843D01*
X136487191Y-58382191D01*
X136346843Y-58592235D01*
X136297560Y-58840000D01*
X136297560Y-60540000D01*
X136346843Y-60787765D01*
X136487191Y-60997809D01*
X136697235Y-61138157D01*
X136742619Y-61147184D01*
X136724375Y-61159375D01*
X136396161Y-61650582D01*
X136280908Y-62230000D01*
X136396161Y-62809418D01*
X136724375Y-63300625D01*
X137043478Y-63513843D01*
X136913642Y-63574817D01*
X136523355Y-64003076D01*
X136353524Y-64413110D01*
X136474845Y-64643000D01*
X137668000Y-64643000D01*
X137668000Y-64623000D01*
X137922000Y-64623000D01*
X137922000Y-64643000D01*
X139115155Y-64643000D01*
X139236476Y-64413110D01*
X139066645Y-64003076D01*
X138676358Y-63574817D01*
X138546522Y-63513843D01*
X138865625Y-63300625D01*
X139073178Y-62990000D01*
X153990199Y-62990000D01*
X154339672Y-63339474D01*
X154382072Y-63402930D01*
X154633464Y-63570905D01*
X154855149Y-63615001D01*
X154855154Y-63615001D01*
X154930001Y-63629889D01*
X155004848Y-63615001D01*
X165180198Y-63615001D01*
X164785199Y-64010000D01*
X159947290Y-64010000D01*
X159914635Y-63977345D01*
X159570983Y-63835000D01*
X159199017Y-63835000D01*
X158855365Y-63977345D01*
X158822710Y-64010000D01*
X157407290Y-64010000D01*
X157374635Y-63977345D01*
X157030983Y-63835000D01*
X156659017Y-63835000D01*
X156315365Y-63977345D01*
X156052345Y-64240365D01*
X155910000Y-64584017D01*
X155910000Y-64955983D01*
X156052345Y-65299635D01*
X156315365Y-65562655D01*
X156659017Y-65705000D01*
X157030983Y-65705000D01*
X157374635Y-65562655D01*
X157407290Y-65530000D01*
X158822710Y-65530000D01*
X158855365Y-65562655D01*
X159199017Y-65705000D01*
X159570983Y-65705000D01*
X159914635Y-65562655D01*
X159947290Y-65530000D01*
X165025153Y-65530000D01*
X165100000Y-65544888D01*
X165174847Y-65530000D01*
X165174852Y-65530000D01*
X165396537Y-65485904D01*
X165647929Y-65317929D01*
X165690331Y-65254470D01*
X165725784Y-65219017D01*
X166705000Y-65219017D01*
X166705000Y-65590983D01*
X166847345Y-65934635D01*
X166880001Y-65967291D01*
X166880000Y-67382710D01*
X166847345Y-67415365D01*
X166705000Y-67759017D01*
X166705000Y-68130983D01*
X166847345Y-68474635D01*
X167110365Y-68737655D01*
X167454017Y-68880000D01*
X167825983Y-68880000D01*
X168169635Y-68737655D01*
X168432655Y-68474635D01*
X168575000Y-68130983D01*
X168575000Y-67759017D01*
X168432655Y-67415365D01*
X168400000Y-67382710D01*
X168400000Y-65967290D01*
X168432655Y-65934635D01*
X168575000Y-65590983D01*
X168575000Y-65219017D01*
X168432655Y-64875365D01*
X168169635Y-64612345D01*
X167825983Y-64470000D01*
X167454017Y-64470000D01*
X167110365Y-64612345D01*
X166847345Y-64875365D01*
X166705000Y-65219017D01*
X165725784Y-65219017D01*
X167489473Y-63455329D01*
X167552929Y-63412929D01*
X167627968Y-63300625D01*
X167720904Y-63161538D01*
X167748529Y-63022655D01*
X167765000Y-62939852D01*
X167765000Y-62939848D01*
X167779888Y-62865000D01*
X167765000Y-62790152D01*
X167765000Y-62079801D01*
X168862098Y-60982704D01*
X168872191Y-60997809D01*
X169082235Y-61138157D01*
X169127619Y-61147184D01*
X169109375Y-61159375D01*
X168781161Y-61650582D01*
X168665908Y-62230000D01*
X168781161Y-62809418D01*
X169109375Y-63300625D01*
X169407761Y-63500000D01*
X169109375Y-63699375D01*
X168781161Y-64190582D01*
X168665908Y-64770000D01*
X168781161Y-65349418D01*
X169109375Y-65840625D01*
X169407761Y-66040000D01*
X169109375Y-66239375D01*
X168781161Y-66730582D01*
X168665908Y-67310000D01*
X168781161Y-67889418D01*
X169109375Y-68380625D01*
X169428478Y-68593843D01*
X169298642Y-68654817D01*
X168908355Y-69083076D01*
X168738524Y-69493110D01*
X168859845Y-69723000D01*
X170053000Y-69723000D01*
X170053000Y-69703000D01*
X170307000Y-69703000D01*
X170307000Y-69723000D01*
X170327000Y-69723000D01*
X170327000Y-69977000D01*
X170307000Y-69977000D01*
X170307000Y-69997000D01*
X170053000Y-69997000D01*
X170053000Y-69977000D01*
X168859845Y-69977000D01*
X168738524Y-70206890D01*
X168822650Y-70410000D01*
X132790000Y-70410000D01*
X132790000Y-68194485D01*
X132914375Y-68380625D01*
X133405582Y-68708839D01*
X133838744Y-68795000D01*
X134131256Y-68795000D01*
X134564418Y-68708839D01*
X135055625Y-68380625D01*
X135383839Y-67889418D01*
X135499092Y-67310000D01*
X136280908Y-67310000D01*
X136396161Y-67889418D01*
X136724375Y-68380625D01*
X137215582Y-68708839D01*
X137648744Y-68795000D01*
X137941256Y-68795000D01*
X138374418Y-68708839D01*
X138865625Y-68380625D01*
X139193839Y-67889418D01*
X139309092Y-67310000D01*
X139193839Y-66730582D01*
X138865625Y-66239375D01*
X138546522Y-66026157D01*
X138676358Y-65965183D01*
X139066645Y-65536924D01*
X139198318Y-65219017D01*
X143210000Y-65219017D01*
X143210000Y-65590983D01*
X143352345Y-65934635D01*
X143615365Y-66197655D01*
X143959017Y-66340000D01*
X144330983Y-66340000D01*
X144674635Y-66197655D01*
X144707290Y-66165000D01*
X147392710Y-66165000D01*
X147425365Y-66197655D01*
X147769017Y-66340000D01*
X148140983Y-66340000D01*
X148484635Y-66197655D01*
X148747655Y-65934635D01*
X148890000Y-65590983D01*
X148890000Y-65219017D01*
X148747655Y-64875365D01*
X148484635Y-64612345D01*
X148140983Y-64470000D01*
X147769017Y-64470000D01*
X147425365Y-64612345D01*
X147392710Y-64645000D01*
X144707290Y-64645000D01*
X144674635Y-64612345D01*
X144330983Y-64470000D01*
X143959017Y-64470000D01*
X143615365Y-64612345D01*
X143352345Y-64875365D01*
X143210000Y-65219017D01*
X139198318Y-65219017D01*
X139236476Y-65126890D01*
X139115155Y-64897000D01*
X137922000Y-64897000D01*
X137922000Y-64917000D01*
X137668000Y-64917000D01*
X137668000Y-64897000D01*
X136474845Y-64897000D01*
X136353524Y-65126890D01*
X136523355Y-65536924D01*
X136913642Y-65965183D01*
X137043478Y-66026157D01*
X136724375Y-66239375D01*
X136396161Y-66730582D01*
X136280908Y-67310000D01*
X135499092Y-67310000D01*
X135383839Y-66730582D01*
X135055625Y-66239375D01*
X134736522Y-66026157D01*
X134866358Y-65965183D01*
X135256645Y-65536924D01*
X135426476Y-65126890D01*
X135305155Y-64897000D01*
X134112000Y-64897000D01*
X134112000Y-64917000D01*
X133858000Y-64917000D01*
X133858000Y-64897000D01*
X133838000Y-64897000D01*
X133838000Y-64643000D01*
X133858000Y-64643000D01*
X133858000Y-64623000D01*
X134112000Y-64623000D01*
X134112000Y-64643000D01*
X135305155Y-64643000D01*
X135426476Y-64413110D01*
X135256645Y-64003076D01*
X134866358Y-63574817D01*
X134736522Y-63513843D01*
X135055625Y-63300625D01*
X135383839Y-62809418D01*
X135499092Y-62230000D01*
X135383839Y-61650582D01*
X135055625Y-61159375D01*
X135037381Y-61147184D01*
X135082765Y-61138157D01*
X135292809Y-60997809D01*
X135433157Y-60787765D01*
X135482440Y-60540000D01*
X135482440Y-58840000D01*
X135433157Y-58592235D01*
X135292809Y-58382191D01*
X135082765Y-58241843D01*
X134835000Y-58192560D01*
X133135000Y-58192560D01*
X132887235Y-58241843D01*
X132790000Y-58306814D01*
X132790000Y-57983071D01*
X132815000Y-57857388D01*
X132815000Y-56590000D01*
X162149868Y-56590000D01*
X161584088Y-57155780D01*
X161584088Y-57155780D01*
G37*
X161584088Y-57155780D02*
X161287055Y-57214864D01*
X160941900Y-57445489D01*
X160842809Y-57297191D01*
X160632765Y-57156843D01*
X160385000Y-57107560D01*
X158385000Y-57107560D01*
X158137235Y-57156843D01*
X157927191Y-57297191D01*
X157786843Y-57507235D01*
X157737560Y-57755000D01*
X157737560Y-60355000D01*
X157786843Y-60602765D01*
X157927191Y-60812809D01*
X158137235Y-60953157D01*
X158385000Y-61002440D01*
X160385000Y-61002440D01*
X160632765Y-60953157D01*
X160842809Y-60812809D01*
X160941900Y-60664510D01*
X161287056Y-60895136D01*
X161925000Y-61022031D01*
X162562945Y-60895136D01*
X163103769Y-60533769D01*
X163214952Y-60367371D01*
X163398683Y-60600922D01*
X163956645Y-60914144D01*
X164084566Y-60945124D01*
X164338000Y-60825777D01*
X164338000Y-59182000D01*
X164592000Y-59182000D01*
X164592000Y-60825777D01*
X164845434Y-60945124D01*
X164973355Y-60914144D01*
X165531317Y-60600922D01*
X165926942Y-60098020D01*
X166100000Y-59482000D01*
X166100000Y-59182000D01*
X164592000Y-59182000D01*
X164338000Y-59182000D01*
X164318000Y-59182000D01*
X164318000Y-58928000D01*
X164338000Y-58928000D01*
X164338000Y-58908000D01*
X164592000Y-58908000D01*
X164592000Y-58928000D01*
X166100000Y-58928000D01*
X166100000Y-58628000D01*
X165926942Y-58011980D01*
X165752322Y-57790010D01*
X170484879Y-57790010D01*
X170887429Y-58192560D01*
X169330000Y-58192560D01*
X169082235Y-58241843D01*
X168872191Y-58382191D01*
X168731843Y-58592235D01*
X168682560Y-58840000D01*
X168682560Y-59041517D01*
X168532071Y-59142071D01*
X168489671Y-59205527D01*
X166520530Y-61174669D01*
X166457071Y-61217071D01*
X166289096Y-61468464D01*
X166245000Y-61690149D01*
X166245000Y-61690153D01*
X166230112Y-61765000D01*
X166238180Y-61805558D01*
X166059575Y-61805558D01*
X165715923Y-61947903D01*
X165568825Y-62095001D01*
X165400000Y-62095001D01*
X165400000Y-62044017D01*
X165257655Y-61700365D01*
X164994635Y-61437345D01*
X164650983Y-61295000D01*
X164279017Y-61295000D01*
X163935365Y-61437345D01*
X163902710Y-61470000D01*
X156524803Y-61470000D01*
X154260331Y-59205530D01*
X154217929Y-59142071D01*
X153966537Y-58974096D01*
X153744852Y-58930000D01*
X153744847Y-58930000D01*
X153670000Y-58915112D01*
X153595153Y-58930000D01*
X139292440Y-58930000D01*
X139292440Y-58840000D01*
X139243157Y-58592235D01*
X139102809Y-58382191D01*
X138892765Y-58241843D01*
X138645000Y-58192560D01*
X136945000Y-58192560D01*
X136697235Y-58241843D01*
X136487191Y-58382191D01*
X136346843Y-58592235D01*
X136297560Y-58840000D01*
X136297560Y-60540000D01*
X136346843Y-60787765D01*
X136487191Y-60997809D01*
X136697235Y-61138157D01*
X136742619Y-61147184D01*
X136724375Y-61159375D01*
X136396161Y-61650582D01*
X136280908Y-62230000D01*
X136396161Y-62809418D01*
X136724375Y-63300625D01*
X137043478Y-63513843D01*
X136913642Y-63574817D01*
X136523355Y-64003076D01*
X136353524Y-64413110D01*
X136474845Y-64643000D01*
X137668000Y-64643000D01*
X137668000Y-64623000D01*
X137922000Y-64623000D01*
X137922000Y-64643000D01*
X139115155Y-64643000D01*
X139236476Y-64413110D01*
X139066645Y-64003076D01*
X138676358Y-63574817D01*
X138546522Y-63513843D01*
X138865625Y-63300625D01*
X139073178Y-62990000D01*
X153990199Y-62990000D01*
X154339672Y-63339474D01*
X154382072Y-63402930D01*
X154633464Y-63570905D01*
X154855149Y-63615001D01*
X154855154Y-63615001D01*
X154930001Y-63629889D01*
X155004848Y-63615001D01*
X165180198Y-63615001D01*
X164785199Y-64010000D01*
X159947290Y-64010000D01*
X159914635Y-63977345D01*
X159570983Y-63835000D01*
X159199017Y-63835000D01*
X158855365Y-63977345D01*
X158822710Y-64010000D01*
X157407290Y-64010000D01*
X157374635Y-63977345D01*
X157030983Y-63835000D01*
X156659017Y-63835000D01*
X156315365Y-63977345D01*
X156052345Y-64240365D01*
X155910000Y-64584017D01*
X155910000Y-64955983D01*
X156052345Y-65299635D01*
X156315365Y-65562655D01*
X156659017Y-65705000D01*
X157030983Y-65705000D01*
X157374635Y-65562655D01*
X157407290Y-65530000D01*
X158822710Y-65530000D01*
X158855365Y-65562655D01*
X159199017Y-65705000D01*
X159570983Y-65705000D01*
X159914635Y-65562655D01*
X159947290Y-65530000D01*
X165025153Y-65530000D01*
X165100000Y-65544888D01*
X165174847Y-65530000D01*
X165174852Y-65530000D01*
X165396537Y-65485904D01*
X165647929Y-65317929D01*
X165690331Y-65254470D01*
X165725784Y-65219017D01*
X166705000Y-65219017D01*
X166705000Y-65590983D01*
X166847345Y-65934635D01*
X166880001Y-65967291D01*
X166880000Y-67382710D01*
X166847345Y-67415365D01*
X166705000Y-67759017D01*
X166705000Y-68130983D01*
X166847345Y-68474635D01*
X167110365Y-68737655D01*
X167454017Y-68880000D01*
X167825983Y-68880000D01*
X168169635Y-68737655D01*
X168432655Y-68474635D01*
X168575000Y-68130983D01*
X168575000Y-67759017D01*
X168432655Y-67415365D01*
X168400000Y-67382710D01*
X168400000Y-65967290D01*
X168432655Y-65934635D01*
X168575000Y-65590983D01*
X168575000Y-65219017D01*
X168432655Y-64875365D01*
X168169635Y-64612345D01*
X167825983Y-64470000D01*
X167454017Y-64470000D01*
X167110365Y-64612345D01*
X166847345Y-64875365D01*
X166705000Y-65219017D01*
X165725784Y-65219017D01*
X167489473Y-63455329D01*
X167552929Y-63412929D01*
X167627968Y-63300625D01*
X167720904Y-63161538D01*
X167748529Y-63022655D01*
X167765000Y-62939852D01*
X167765000Y-62939848D01*
X167779888Y-62865000D01*
X167765000Y-62790152D01*
X167765000Y-62079801D01*
X168862098Y-60982704D01*
X168872191Y-60997809D01*
X169082235Y-61138157D01*
X169127619Y-61147184D01*
X169109375Y-61159375D01*
X168781161Y-61650582D01*
X168665908Y-62230000D01*
X168781161Y-62809418D01*
X169109375Y-63300625D01*
X169407761Y-63500000D01*
X169109375Y-63699375D01*
X168781161Y-64190582D01*
X168665908Y-64770000D01*
X168781161Y-65349418D01*
X169109375Y-65840625D01*
X169407761Y-66040000D01*
X169109375Y-66239375D01*
X168781161Y-66730582D01*
X168665908Y-67310000D01*
X168781161Y-67889418D01*
X169109375Y-68380625D01*
X169428478Y-68593843D01*
X169298642Y-68654817D01*
X168908355Y-69083076D01*
X168738524Y-69493110D01*
X168859845Y-69723000D01*
X170053000Y-69723000D01*
X170053000Y-69703000D01*
X170307000Y-69703000D01*
X170307000Y-69723000D01*
X170327000Y-69723000D01*
X170327000Y-69977000D01*
X170307000Y-69977000D01*
X170307000Y-69997000D01*
X170053000Y-69997000D01*
X170053000Y-69977000D01*
X168859845Y-69977000D01*
X168738524Y-70206890D01*
X168822650Y-70410000D01*
X132790000Y-70410000D01*
X132790000Y-68194485D01*
X132914375Y-68380625D01*
X133405582Y-68708839D01*
X133838744Y-68795000D01*
X134131256Y-68795000D01*
X134564418Y-68708839D01*
X135055625Y-68380625D01*
X135383839Y-67889418D01*
X135499092Y-67310000D01*
X136280908Y-67310000D01*
X136396161Y-67889418D01*
X136724375Y-68380625D01*
X137215582Y-68708839D01*
X137648744Y-68795000D01*
X137941256Y-68795000D01*
X138374418Y-68708839D01*
X138865625Y-68380625D01*
X139193839Y-67889418D01*
X139309092Y-67310000D01*
X139193839Y-66730582D01*
X138865625Y-66239375D01*
X138546522Y-66026157D01*
X138676358Y-65965183D01*
X139066645Y-65536924D01*
X139198318Y-65219017D01*
X143210000Y-65219017D01*
X143210000Y-65590983D01*
X143352345Y-65934635D01*
X143615365Y-66197655D01*
X143959017Y-66340000D01*
X144330983Y-66340000D01*
X144674635Y-66197655D01*
X144707290Y-66165000D01*
X147392710Y-66165000D01*
X147425365Y-66197655D01*
X147769017Y-66340000D01*
X148140983Y-66340000D01*
X148484635Y-66197655D01*
X148747655Y-65934635D01*
X148890000Y-65590983D01*
X148890000Y-65219017D01*
X148747655Y-64875365D01*
X148484635Y-64612345D01*
X148140983Y-64470000D01*
X147769017Y-64470000D01*
X147425365Y-64612345D01*
X147392710Y-64645000D01*
X144707290Y-64645000D01*
X144674635Y-64612345D01*
X144330983Y-64470000D01*
X143959017Y-64470000D01*
X143615365Y-64612345D01*
X143352345Y-64875365D01*
X143210000Y-65219017D01*
X139198318Y-65219017D01*
X139236476Y-65126890D01*
X139115155Y-64897000D01*
X137922000Y-64897000D01*
X137922000Y-64917000D01*
X137668000Y-64917000D01*
X137668000Y-64897000D01*
X136474845Y-64897000D01*
X136353524Y-65126890D01*
X136523355Y-65536924D01*
X136913642Y-65965183D01*
X137043478Y-66026157D01*
X136724375Y-66239375D01*
X136396161Y-66730582D01*
X136280908Y-67310000D01*
X135499092Y-67310000D01*
X135383839Y-66730582D01*
X135055625Y-66239375D01*
X134736522Y-66026157D01*
X134866358Y-65965183D01*
X135256645Y-65536924D01*
X135426476Y-65126890D01*
X135305155Y-64897000D01*
X134112000Y-64897000D01*
X134112000Y-64917000D01*
X133858000Y-64917000D01*
X133858000Y-64897000D01*
X133838000Y-64897000D01*
X133838000Y-64643000D01*
X133858000Y-64643000D01*
X133858000Y-64623000D01*
X134112000Y-64623000D01*
X134112000Y-64643000D01*
X135305155Y-64643000D01*
X135426476Y-64413110D01*
X135256645Y-64003076D01*
X134866358Y-63574817D01*
X134736522Y-63513843D01*
X135055625Y-63300625D01*
X135383839Y-62809418D01*
X135499092Y-62230000D01*
X135383839Y-61650582D01*
X135055625Y-61159375D01*
X135037381Y-61147184D01*
X135082765Y-61138157D01*
X135292809Y-60997809D01*
X135433157Y-60787765D01*
X135482440Y-60540000D01*
X135482440Y-58840000D01*
X135433157Y-58592235D01*
X135292809Y-58382191D01*
X135082765Y-58241843D01*
X134835000Y-58192560D01*
X133135000Y-58192560D01*
X132887235Y-58241843D01*
X132790000Y-58306814D01*
X132790000Y-57983071D01*
X132815000Y-57857388D01*
X132815000Y-56590000D01*
X162149868Y-56590000D01*
X161584088Y-57155780D01*
G36*
X171649375Y-68380625D02*
X171947761Y-68580000D01*
X171649375Y-68779375D01*
X171448647Y-69079786D01*
X171061358Y-68654817D01*
X170931522Y-68593843D01*
X171250625Y-68380625D01*
X171450000Y-68082239D01*
X171649375Y-68380625D01*
X171649375Y-68380625D01*
G37*
X171649375Y-68380625D02*
X171947761Y-68580000D01*
X171649375Y-68779375D01*
X171448647Y-69079786D01*
X171061358Y-68654817D01*
X170931522Y-68593843D01*
X171250625Y-68380625D01*
X171450000Y-68082239D01*
X171649375Y-68380625D01*
G36*
X171838642Y-65965183D02*
X171968478Y-66026157D01*
X171649375Y-66239375D01*
X171450000Y-66537761D01*
X171250625Y-66239375D01*
X170952239Y-66040000D01*
X171250625Y-65840625D01*
X171451353Y-65540214D01*
X171838642Y-65965183D01*
X171838642Y-65965183D01*
G37*
X171838642Y-65965183D02*
X171968478Y-66026157D01*
X171649375Y-66239375D01*
X171450000Y-66537761D01*
X171250625Y-66239375D01*
X170952239Y-66040000D01*
X171250625Y-65840625D01*
X171451353Y-65540214D01*
X171838642Y-65965183D01*
G36*
X172847000Y-64643000D02*
X172867000Y-64643000D01*
X172867000Y-64897000D01*
X172847000Y-64897000D01*
X172847000Y-64917000D01*
X172593000Y-64917000D01*
X172593000Y-64897000D01*
X172573000Y-64897000D01*
X172573000Y-64643000D01*
X172593000Y-64643000D01*
X172593000Y-64623000D01*
X172847000Y-64623000D01*
X172847000Y-64643000D01*
X172847000Y-64643000D01*
G37*
X172847000Y-64643000D02*
X172867000Y-64643000D01*
X172867000Y-64897000D01*
X172847000Y-64897000D01*
X172847000Y-64917000D01*
X172593000Y-64917000D01*
X172593000Y-64897000D01*
X172573000Y-64897000D01*
X172573000Y-64643000D01*
X172593000Y-64643000D01*
X172593000Y-64623000D01*
X172847000Y-64623000D01*
X172847000Y-64643000D01*
G04 #@! TD*
M02*
