G04 #@! TF.FileFunction,Soldermask,Bot*
%FSLAX46Y46*%
G04 Gerber Fmt 4.6, Leading zero omitted, Abs format (unit mm)*
G04 Created by KiCad (PCBNEW 4.0.7) date Tuesday, March 06, 2018 'PMt' 10:16:58 PM*
%MOMM*%
%LPD*%
G01*
G04 APERTURE LIST*
%ADD10C,0.100000*%
%ADD11R,2.400000X2.100000*%
%ADD12R,2.400000X2.000000*%
%ADD13O,3.900000X3.900000*%
%ADD14R,2.200000X2.200000*%
%ADD15O,2.200000X2.200000*%
%ADD16R,2.100000X2.100000*%
%ADD17O,2.100000X2.100000*%
%ADD18C,2.800000*%
%ADD19R,2.800000X2.800000*%
%ADD20C,3.100000*%
%ADD21R,3.000000X2.400000*%
%ADD22O,3.000000X2.400000*%
G04 APERTURE END LIST*
D10*
D11*
X130905000Y-67945000D03*
X126905000Y-67945000D03*
X122650000Y-67945000D03*
X118650000Y-67945000D03*
D12*
X126905000Y-74295000D03*
X130905000Y-74295000D03*
X140430000Y-73660000D03*
X136430000Y-73660000D03*
D11*
X149320000Y-67945000D03*
X145320000Y-67945000D03*
X140430000Y-67945000D03*
X136430000Y-67945000D03*
D13*
X124460000Y-62715000D03*
D14*
X121920000Y-79375000D03*
D15*
X124460000Y-79375000D03*
X127000000Y-79375000D03*
D13*
X142240000Y-106195000D03*
D14*
X144780000Y-89535000D03*
D15*
X142240000Y-89535000D03*
X139700000Y-89535000D03*
D11*
X139795000Y-99695000D03*
X135795000Y-99695000D03*
D12*
X126905000Y-94615000D03*
X130905000Y-94615000D03*
X139795000Y-94615000D03*
X135795000Y-94615000D03*
D16*
X111760000Y-86995000D03*
D17*
X111760000Y-84455000D03*
X111760000Y-81915000D03*
D18*
X154940000Y-82860000D03*
D19*
X154940000Y-86360000D03*
D11*
X118650000Y-100965000D03*
X122650000Y-100965000D03*
X126905000Y-100965000D03*
X130905000Y-100965000D03*
X148685000Y-99695000D03*
X144685000Y-99695000D03*
D13*
X142240000Y-62715000D03*
D14*
X139700000Y-79375000D03*
D15*
X142240000Y-79375000D03*
X144780000Y-79375000D03*
D13*
X124460000Y-106195000D03*
D14*
X127000000Y-89535000D03*
D15*
X124460000Y-89535000D03*
X121920000Y-89535000D03*
D20*
X154940000Y-63500000D03*
X113030000Y-63500000D03*
X113030000Y-105410000D03*
X154940000Y-105410000D03*
D21*
X113030000Y-76835000D03*
D22*
X113030000Y-74295000D03*
X113030000Y-71755000D03*
D21*
X154940000Y-71755000D03*
D22*
X154940000Y-74295000D03*
X154940000Y-76835000D03*
D21*
X113030000Y-97155000D03*
D22*
X113030000Y-94615000D03*
X113030000Y-92075000D03*
D21*
X154940000Y-92710000D03*
D22*
X154940000Y-95250000D03*
X154940000Y-97790000D03*
D12*
X122650000Y-74295000D03*
X118650000Y-74295000D03*
X148685000Y-73660000D03*
X144685000Y-73660000D03*
X118650000Y-94615000D03*
X122650000Y-94615000D03*
X148685000Y-94615000D03*
X144685000Y-94615000D03*
M02*
