G04 #@! TF.FileFunction,Copper,L1,Top,Signal*
%FSLAX46Y46*%
G04 Gerber Fmt 4.6, Leading zero omitted, Abs format (unit mm)*
G04 Created by KiCad (PCBNEW 4.0.7) date Saturday, February 10, 2018 'PMt' 05:25:13 PM*
%MOMM*%
%LPD*%
G01*
G04 APERTURE LIST*
%ADD10C,0.100000*%
%ADD11C,2.400000*%
%ADD12R,2.400000X2.400000*%
%ADD13R,2.000000X1.700000*%
%ADD14R,1.500000X0.600000*%
%ADD15R,1.800000X1.800000*%
%ADD16O,1.800000X1.800000*%
%ADD17R,1.500000X1.500000*%
%ADD18C,1.500000*%
%ADD19C,1.800000*%
%ADD20R,1.700000X2.000000*%
%ADD21R,1.700000X1.700000*%
%ADD22O,1.700000X1.700000*%
%ADD23R,1.600000X1.600000*%
%ADD24C,1.600000*%
%ADD25C,0.600000*%
%ADD26C,0.250000*%
%ADD27C,0.600000*%
G04 APERTURE END LIST*
D10*
D11*
X148590000Y-79050000D03*
D12*
X148590000Y-82550000D03*
D13*
X74200000Y-88900000D03*
X78200000Y-88900000D03*
D14*
X78900000Y-83820000D03*
X78900000Y-82550000D03*
X78900000Y-81280000D03*
X78900000Y-80010000D03*
X78900000Y-78740000D03*
X78900000Y-77470000D03*
X78900000Y-76200000D03*
X73500000Y-76200000D03*
X73500000Y-77470000D03*
X73500000Y-78740000D03*
X73500000Y-80010000D03*
X73500000Y-81280000D03*
X73500000Y-82550000D03*
X73500000Y-83820000D03*
D15*
X133350000Y-90170000D03*
D16*
X135890000Y-90170000D03*
X138430000Y-90170000D03*
D15*
X120650000Y-90170000D03*
D16*
X123190000Y-90170000D03*
X125730000Y-90170000D03*
D17*
X142240000Y-101600000D03*
D18*
X142240000Y-99600000D03*
X142240000Y-97600000D03*
D17*
X135890000Y-101600000D03*
D18*
X135890000Y-99600000D03*
X135890000Y-97600000D03*
D17*
X129540000Y-101600000D03*
D18*
X129540000Y-99600000D03*
X129540000Y-97600000D03*
D17*
X123190000Y-101600000D03*
D18*
X123190000Y-99600000D03*
X123190000Y-97600000D03*
D15*
X83820000Y-78740000D03*
D19*
X86360000Y-78740000D03*
D15*
X83820000Y-87630000D03*
D19*
X86360000Y-87630000D03*
D20*
X91440000Y-76740000D03*
X91440000Y-80740000D03*
X91440000Y-89630000D03*
X91440000Y-85630000D03*
D21*
X144780000Y-66040000D03*
D22*
X144780000Y-63500000D03*
D21*
X62230000Y-78740000D03*
D22*
X62230000Y-76200000D03*
X62230000Y-73660000D03*
X62230000Y-71120000D03*
D21*
X113030000Y-74930000D03*
D22*
X113030000Y-72390000D03*
X113030000Y-69850000D03*
D21*
X62230000Y-90170000D03*
D22*
X62230000Y-87630000D03*
X62230000Y-85090000D03*
D23*
X151130000Y-93980000D03*
D24*
X151130000Y-96480000D03*
D23*
X115570000Y-93980000D03*
D24*
X115570000Y-96480000D03*
D25*
X76200000Y-76200000D03*
X74930000Y-81280000D03*
X69850000Y-78740000D03*
X133350000Y-69850000D03*
X135890000Y-78740000D03*
X138430000Y-64770000D03*
X132080000Y-64770000D03*
X71120000Y-82550000D03*
X81280000Y-78740000D03*
X114300000Y-88900000D03*
X143510000Y-74930000D03*
X69850000Y-85090000D03*
X77470000Y-81280000D03*
D26*
X73500000Y-81280000D02*
X74930000Y-81280000D01*
X76200000Y-76200000D02*
X78900000Y-76200000D01*
D27*
X73500000Y-81280000D02*
X72390000Y-81280000D01*
X72390000Y-81280000D02*
X69850000Y-78740000D01*
X78900000Y-76200000D02*
X81280000Y-76200000D01*
X81280000Y-76200000D02*
X83820000Y-78740000D01*
X62230000Y-78740000D02*
X60960000Y-80010000D01*
X60960000Y-80010000D02*
X60960000Y-88900000D01*
X60960000Y-88900000D02*
X62230000Y-90170000D01*
X83820000Y-78740000D02*
X83820000Y-87630000D01*
X133350000Y-76200000D02*
X133350000Y-69850000D01*
X135890000Y-78740000D02*
X133350000Y-76200000D01*
X132080000Y-64770000D02*
X138430000Y-64770000D01*
X125730000Y-90170000D02*
X121920000Y-93980000D01*
X121920000Y-93980000D02*
X121920000Y-99060000D01*
X121920000Y-99060000D02*
X123190000Y-99060000D01*
X123190000Y-99060000D02*
X123190000Y-99600000D01*
D26*
X73500000Y-82550000D02*
X71120000Y-82550000D01*
D27*
X78900000Y-83820000D02*
X76200000Y-83820000D01*
X76200000Y-83820000D02*
X74930000Y-82550000D01*
X74930000Y-82550000D02*
X73500000Y-82550000D01*
D26*
X78900000Y-81280000D02*
X81280000Y-81280000D01*
X81280000Y-81280000D02*
X81280000Y-78740000D01*
D27*
X91440000Y-85630000D02*
X91440000Y-85090000D01*
X91440000Y-85090000D02*
X87630000Y-85090000D01*
X87630000Y-85090000D02*
X86360000Y-86360000D01*
X86360000Y-86360000D02*
X85090000Y-86360000D01*
X85090000Y-86360000D02*
X85090000Y-88900000D01*
X85090000Y-88900000D02*
X82550000Y-88900000D01*
X82550000Y-88900000D02*
X80010000Y-86360000D01*
X80010000Y-86360000D02*
X80010000Y-81280000D01*
X80010000Y-81280000D02*
X78900000Y-81280000D01*
D26*
X73500000Y-77470000D02*
X72390000Y-77470000D01*
X72390000Y-77470000D02*
X66040000Y-71120000D01*
X66040000Y-71120000D02*
X62230000Y-71120000D01*
D27*
X72390000Y-77470000D02*
X72390000Y-74930000D01*
X72390000Y-74930000D02*
X82550000Y-74930000D01*
X82550000Y-74930000D02*
X85090000Y-77470000D01*
X85090000Y-77470000D02*
X85090000Y-80010000D01*
X85090000Y-80010000D02*
X90170000Y-80010000D01*
X90170000Y-80010000D02*
X91440000Y-81280000D01*
X91440000Y-81280000D02*
X91440000Y-80740000D01*
X73500000Y-80010000D02*
X72390000Y-80010000D01*
X72390000Y-80010000D02*
X72390000Y-78740000D01*
X72390000Y-78740000D02*
X71120000Y-77470000D01*
X71120000Y-77470000D02*
X68580000Y-77470000D01*
X68580000Y-77470000D02*
X68580000Y-86360000D01*
X68580000Y-86360000D02*
X72390000Y-90170000D01*
X72390000Y-90170000D02*
X77470000Y-90170000D01*
X77470000Y-90170000D02*
X78740000Y-88900000D01*
X78740000Y-88900000D02*
X78200000Y-88900000D01*
X73500000Y-78740000D02*
X73660000Y-78740000D01*
X73660000Y-78740000D02*
X73660000Y-80010000D01*
X73660000Y-80010000D02*
X73500000Y-80010000D01*
D26*
X114300000Y-88900000D02*
X114300000Y-73660000D01*
X114300000Y-73660000D02*
X113030000Y-72390000D01*
X135890000Y-97600000D02*
X142240000Y-97600000D01*
X129540000Y-97600000D02*
X135890000Y-97600000D01*
X123190000Y-97600000D02*
X129540000Y-97600000D01*
D27*
X148590000Y-82550000D02*
X143510000Y-77470000D01*
X143510000Y-77470000D02*
X143510000Y-74930000D01*
X148590000Y-82550000D02*
X149860000Y-83820000D01*
X149860000Y-83820000D02*
X149860000Y-95250000D01*
X149860000Y-95250000D02*
X151130000Y-96520000D01*
X151130000Y-96520000D02*
X151130000Y-96480000D01*
X73500000Y-83820000D02*
X71120000Y-83820000D01*
X71120000Y-83820000D02*
X69850000Y-85090000D01*
X74200000Y-88900000D02*
X73660000Y-88900000D01*
X73660000Y-88900000D02*
X73660000Y-83820000D01*
X73660000Y-83820000D02*
X73500000Y-83820000D01*
D26*
X77470000Y-81280000D02*
X76200000Y-81280000D01*
D27*
X78900000Y-82550000D02*
X77470000Y-82550000D01*
X77470000Y-82550000D02*
X76200000Y-81280000D01*
X76200000Y-81280000D02*
X74930000Y-80010000D01*
X74930000Y-80010000D02*
X74930000Y-76200000D01*
X74930000Y-76200000D02*
X73500000Y-76200000D01*
X91440000Y-76740000D02*
X91440000Y-76200000D01*
X91440000Y-76200000D02*
X88900000Y-76200000D01*
X88900000Y-76200000D02*
X86360000Y-78740000D01*
X91440000Y-89630000D02*
X91440000Y-90170000D01*
X91440000Y-90170000D02*
X88900000Y-90170000D01*
X88900000Y-90170000D02*
X86360000Y-87630000D01*
M02*
