M48
;DRILL file {KiCad 4.0.7} date Sunday, March 11, 2018 'PMt' 08:42:09 PM
;FORMAT={-:-/ absolute / metric / decimal}
FMAT,2
METRIC,TZ
T1C0.800
T2C1.000
T3C1.200
%
G90
G05
M71
T1
X111.8Y-69.215
X114.3Y-69.215
X136.525Y-93.98
X136.525Y-96.48
X137.795Y-62.27
X137.795Y-64.77
X142.24Y-88.9
X144.74Y-88.9
T2
X132.08Y-74.93
X132.08Y-77.47
T3
X112.395Y-76.2
X112.395Y-78.74
X112.395Y-81.28
X112.395Y-86.995
X112.395Y-90.495
X117.785Y-62.865
X121.285Y-62.865
X124.46Y-95.885
X126.365Y-62.865
X127.Y-95.885
X128.905Y-62.865
X129.54Y-95.885
X131.445Y-62.865
X139.065Y-76.835
X139.065Y-79.375
X139.065Y-81.915
X144.78Y-76.835
X144.78Y-79.375
X144.78Y-81.915
T0
M30
