M48
;DRILL file {KiCad 4.0.7} date Tuesday, March 06, 2018 'PMt' 10:17:04 PM
;FORMAT={-:-/ absolute / metric / decimal}
FMAT,2
METRIC,TZ
T1C0.400
T2C1.000
T3C1.200
%
G90
G05
M71
T1
X121.92Y-70.485
X125.095Y-71.755
X135.255Y-77.47
X139.7Y-70.485
X144.78Y-97.155
T2
X111.76Y-81.915
X111.76Y-84.455
X111.76Y-86.995
X121.92Y-79.375
X121.92Y-89.535
X124.46Y-79.375
X124.46Y-89.535
X127.Y-79.375
X127.Y-89.535
X139.7Y-79.375
X139.7Y-89.535
X142.24Y-79.375
X142.24Y-89.535
X144.78Y-79.375
X144.78Y-89.535
T3
X113.03Y-71.755
X113.03Y-74.295
X113.03Y-76.835
X113.03Y-92.075
X113.03Y-94.615
X113.03Y-97.155
X154.94Y-71.755
X154.94Y-74.295
X154.94Y-76.835
X154.94Y-82.86
X154.94Y-86.36
X154.94Y-92.71
X154.94Y-95.25
X154.94Y-97.79
T0
M30
