G04 #@! TF.FileFunction,Copper,L1,Top,Signal*
%FSLAX46Y46*%
G04 Gerber Fmt 4.6, Leading zero omitted, Abs format (unit mm)*
G04 Created by KiCad (PCBNEW 4.0.7) date Sunday, March 11, 2018 'PMt' 08:42:03 PM*
%MOMM*%
%LPD*%
G01*
G04 APERTURE LIST*
%ADD10C,0.100000*%
%ADD11R,2.000000X1.700000*%
%ADD12C,2.400000*%
%ADD13R,2.400000X2.400000*%
%ADD14R,2.600000X2.000000*%
%ADD15O,2.600000X2.000000*%
%ADD16R,2.000000X2.600000*%
%ADD17O,2.000000X2.600000*%
%ADD18R,1.600000X1.600000*%
%ADD19C,1.600000*%
%ADD20R,1.700000X1.700000*%
%ADD21O,1.700000X1.700000*%
%ADD22C,0.250000*%
%ADD23C,1.600000*%
%ADD24C,0.254000*%
G04 APERTURE END LIST*
D10*
D11*
X145510000Y-71755000D03*
X141510000Y-71755000D03*
D12*
X117785000Y-62865000D03*
D13*
X121285000Y-62865000D03*
D11*
X141510000Y-67945000D03*
X145510000Y-67945000D03*
D14*
X112395000Y-81280000D03*
D15*
X112395000Y-78740000D03*
X112395000Y-76200000D03*
D16*
X126365000Y-62865000D03*
D17*
X128905000Y-62865000D03*
X131445000Y-62865000D03*
D14*
X144780000Y-76835000D03*
D15*
X144780000Y-79375000D03*
X144780000Y-81915000D03*
D16*
X129540000Y-95885000D03*
D17*
X127000000Y-95885000D03*
X124460000Y-95885000D03*
D18*
X114300000Y-69215000D03*
D19*
X111800000Y-69215000D03*
D18*
X137795000Y-64770000D03*
D19*
X137795000Y-62270000D03*
D18*
X136525000Y-93980000D03*
D19*
X136525000Y-96480000D03*
D18*
X142240000Y-88900000D03*
D19*
X144740000Y-88900000D03*
D14*
X139065000Y-76835000D03*
D15*
X139065000Y-79375000D03*
X139065000Y-81915000D03*
D20*
X132080000Y-77470000D03*
D21*
X132080000Y-74930000D03*
D12*
X112395000Y-90495000D03*
D13*
X112395000Y-86995000D03*
D22*
X141510000Y-71755000D02*
X141510000Y-70580000D01*
X145510000Y-69120000D02*
X145510000Y-67945000D01*
X144780000Y-69850000D02*
X145510000Y-69120000D01*
X142240000Y-69850000D02*
X144780000Y-69850000D01*
X141510000Y-70580000D02*
X142240000Y-69850000D01*
D23*
X139065000Y-79375000D02*
X137160000Y-79375000D01*
X137160000Y-79375000D02*
X135890000Y-78105000D01*
X135890000Y-73565000D02*
X141510000Y-67945000D01*
X135890000Y-78105000D02*
X135890000Y-73565000D01*
X137795000Y-64770000D02*
X138335000Y-64770000D01*
X138335000Y-64770000D02*
X141510000Y-67945000D01*
X128905000Y-62865000D02*
X128905000Y-66040000D01*
X133985000Y-68580000D02*
X137795000Y-64770000D01*
X131445000Y-68580000D02*
X133985000Y-68580000D01*
X128905000Y-66040000D02*
X131445000Y-68580000D01*
X135890000Y-80645000D02*
X135890000Y-91440000D01*
X137160000Y-79375000D02*
X135890000Y-80645000D01*
X127000000Y-95885000D02*
X127000000Y-92710000D01*
X127000000Y-92710000D02*
X128270000Y-91440000D01*
X128270000Y-91440000D02*
X135890000Y-91440000D01*
X135890000Y-91440000D02*
X136525000Y-91440000D01*
X142240000Y-88900000D02*
X139065000Y-88900000D01*
X136525000Y-91440000D02*
X136525000Y-93980000D01*
X139065000Y-88900000D02*
X136525000Y-91440000D01*
X144780000Y-79375000D02*
X139065000Y-79375000D01*
X128905000Y-62865000D02*
X128905000Y-65405000D01*
X119380000Y-67945000D02*
X117785000Y-66350000D01*
X126365000Y-67945000D02*
X119380000Y-67945000D01*
X128905000Y-65405000D02*
X126365000Y-67945000D01*
X114300000Y-69215000D02*
X116205000Y-69215000D01*
X117785000Y-67635000D02*
X117785000Y-66350000D01*
X117785000Y-66350000D02*
X117785000Y-62865000D01*
X116205000Y-69215000D02*
X117785000Y-67635000D01*
X112395000Y-78740000D02*
X114935000Y-78740000D01*
X116840000Y-71755000D02*
X114300000Y-69215000D01*
X116840000Y-76835000D02*
X116840000Y-71755000D01*
X114935000Y-78740000D02*
X116840000Y-76835000D01*
D24*
G36*
X147245000Y-98350000D02*
X109930000Y-98350000D01*
X109930000Y-96863599D01*
X110024699Y-96863599D01*
X110288281Y-97501515D01*
X110775918Y-97990004D01*
X111413373Y-98254699D01*
X112103599Y-98255301D01*
X112741515Y-97991719D01*
X113230004Y-97504082D01*
X113494699Y-96866627D01*
X113495301Y-96176401D01*
X113427372Y-96012000D01*
X122825000Y-96012000D01*
X122825000Y-96312000D01*
X122998058Y-96928020D01*
X123393683Y-97430922D01*
X123951645Y-97744144D01*
X124079566Y-97775124D01*
X124333000Y-97655777D01*
X124333000Y-96012000D01*
X122825000Y-96012000D01*
X113427372Y-96012000D01*
X113231719Y-95538485D01*
X113151375Y-95458000D01*
X122825000Y-95458000D01*
X122825000Y-95758000D01*
X124333000Y-95758000D01*
X124333000Y-94114223D01*
X124079566Y-93994876D01*
X123951645Y-94025856D01*
X123393683Y-94339078D01*
X122998058Y-94841980D01*
X122825000Y-95458000D01*
X113151375Y-95458000D01*
X112744082Y-95049996D01*
X112106627Y-94785301D01*
X111416401Y-94784699D01*
X110778485Y-95048281D01*
X110289996Y-95535918D01*
X110025301Y-96173373D01*
X110024699Y-96863599D01*
X109930000Y-96863599D01*
X109930000Y-90858403D01*
X110559682Y-90858403D01*
X110838455Y-91533086D01*
X111354199Y-92049730D01*
X112028395Y-92329681D01*
X112758403Y-92330318D01*
X113433086Y-92051545D01*
X113949730Y-91535801D01*
X114229681Y-90861605D01*
X114230318Y-90131597D01*
X113951545Y-89456914D01*
X113435801Y-88940270D01*
X113170242Y-88830000D01*
X113721310Y-88830000D01*
X113954699Y-88733327D01*
X114133327Y-88554698D01*
X114230000Y-88321309D01*
X114230000Y-87280750D01*
X114071250Y-87122000D01*
X112522000Y-87122000D01*
X112522000Y-87142000D01*
X112268000Y-87142000D01*
X112268000Y-87122000D01*
X110718750Y-87122000D01*
X110560000Y-87280750D01*
X110560000Y-88321309D01*
X110656673Y-88554698D01*
X110835301Y-88733327D01*
X111068690Y-88830000D01*
X111619395Y-88830000D01*
X111356914Y-88938455D01*
X110840270Y-89454199D01*
X110560319Y-90128395D01*
X110559682Y-90858403D01*
X109930000Y-90858403D01*
X109930000Y-85668691D01*
X110560000Y-85668691D01*
X110560000Y-86709250D01*
X110718750Y-86868000D01*
X112268000Y-86868000D01*
X112268000Y-85318750D01*
X112522000Y-85318750D01*
X112522000Y-86868000D01*
X114071250Y-86868000D01*
X114230000Y-86709250D01*
X114230000Y-85668691D01*
X114133327Y-85435302D01*
X113954699Y-85256673D01*
X113721310Y-85160000D01*
X112680750Y-85160000D01*
X112522000Y-85318750D01*
X112268000Y-85318750D01*
X112109250Y-85160000D01*
X111068690Y-85160000D01*
X110835301Y-85256673D01*
X110656673Y-85435302D01*
X110560000Y-85668691D01*
X109930000Y-85668691D01*
X109930000Y-78740000D01*
X110422091Y-78740000D01*
X110546548Y-79365687D01*
X110786093Y-79724192D01*
X110643559Y-79815910D01*
X110498569Y-80028110D01*
X110447560Y-80280000D01*
X110447560Y-82280000D01*
X110491838Y-82515317D01*
X110630910Y-82731441D01*
X110843110Y-82876431D01*
X111095000Y-82927440D01*
X113695000Y-82927440D01*
X113930317Y-82883162D01*
X114146441Y-82744090D01*
X114291431Y-82531890D01*
X114342440Y-82280000D01*
X114342440Y-80280000D01*
X114322683Y-80175000D01*
X114935000Y-80175000D01*
X115484151Y-80065767D01*
X115949698Y-79754698D01*
X117854698Y-77849698D01*
X117917472Y-77755750D01*
X130595000Y-77755750D01*
X130595000Y-78446310D01*
X130691673Y-78679699D01*
X130870302Y-78858327D01*
X131103691Y-78955000D01*
X131794250Y-78955000D01*
X131953000Y-78796250D01*
X131953000Y-77597000D01*
X132207000Y-77597000D01*
X132207000Y-78796250D01*
X132365750Y-78955000D01*
X133056309Y-78955000D01*
X133289698Y-78858327D01*
X133468327Y-78679699D01*
X133565000Y-78446310D01*
X133565000Y-77755750D01*
X133406250Y-77597000D01*
X132207000Y-77597000D01*
X131953000Y-77597000D01*
X130753750Y-77597000D01*
X130595000Y-77755750D01*
X117917472Y-77755750D01*
X117937817Y-77725302D01*
X118165767Y-77384151D01*
X118275000Y-76835000D01*
X118275000Y-74930000D01*
X130565907Y-74930000D01*
X130678946Y-75498285D01*
X131000853Y-75980054D01*
X131044777Y-76009403D01*
X130870302Y-76081673D01*
X130691673Y-76260301D01*
X130595000Y-76493690D01*
X130595000Y-77184250D01*
X130753750Y-77343000D01*
X131953000Y-77343000D01*
X131953000Y-77323000D01*
X132207000Y-77323000D01*
X132207000Y-77343000D01*
X133406250Y-77343000D01*
X133565000Y-77184250D01*
X133565000Y-76493690D01*
X133468327Y-76260301D01*
X133289698Y-76081673D01*
X133115223Y-76009403D01*
X133159147Y-75980054D01*
X133481054Y-75498285D01*
X133594093Y-74930000D01*
X133481054Y-74361715D01*
X133159147Y-73879946D01*
X132677378Y-73558039D01*
X132109093Y-73445000D01*
X132050907Y-73445000D01*
X131482622Y-73558039D01*
X131000853Y-73879946D01*
X130678946Y-74361715D01*
X130565907Y-74930000D01*
X118275000Y-74930000D01*
X118275000Y-71755000D01*
X118165767Y-71205849D01*
X117964746Y-70905000D01*
X117854698Y-70740301D01*
X117281896Y-70167500D01*
X118439872Y-69009524D01*
X118830849Y-69270767D01*
X119380000Y-69380000D01*
X126365000Y-69380000D01*
X126914151Y-69270767D01*
X127379698Y-68959698D01*
X128587500Y-67751896D01*
X130430301Y-69594698D01*
X130683904Y-69764150D01*
X130895849Y-69905767D01*
X131445000Y-70015000D01*
X133985000Y-70015000D01*
X134534151Y-69905767D01*
X134999698Y-69594698D01*
X138065000Y-66529396D01*
X139480604Y-67945000D01*
X134875302Y-72550302D01*
X134564233Y-73015849D01*
X134455000Y-73565000D01*
X134455000Y-78105000D01*
X134564233Y-78654151D01*
X134765254Y-78955000D01*
X134875302Y-79119698D01*
X135130604Y-79375000D01*
X134875302Y-79630302D01*
X134564233Y-80095849D01*
X134455000Y-80645000D01*
X134455000Y-90005000D01*
X128270000Y-90005000D01*
X127720849Y-90114233D01*
X127255302Y-90425302D01*
X125985302Y-91695302D01*
X125674233Y-92160849D01*
X125565000Y-92710000D01*
X125565000Y-94388250D01*
X125526317Y-94339078D01*
X124968355Y-94025856D01*
X124840434Y-93994876D01*
X124587000Y-94114223D01*
X124587000Y-95758000D01*
X124607000Y-95758000D01*
X124607000Y-96012000D01*
X124587000Y-96012000D01*
X124587000Y-97655777D01*
X124840434Y-97775124D01*
X124968355Y-97744144D01*
X125526317Y-97430922D01*
X125716781Y-97188812D01*
X125843880Y-97379029D01*
X126374313Y-97733452D01*
X127000000Y-97857909D01*
X127625687Y-97733452D01*
X127984192Y-97493907D01*
X128075910Y-97636441D01*
X128288110Y-97781431D01*
X128540000Y-97832440D01*
X130540000Y-97832440D01*
X130775317Y-97788162D01*
X130991441Y-97649090D01*
X131101683Y-97487745D01*
X135696861Y-97487745D01*
X135770995Y-97733864D01*
X136308223Y-97926965D01*
X136878454Y-97899778D01*
X137279005Y-97733864D01*
X137353139Y-97487745D01*
X136525000Y-96659605D01*
X135696861Y-97487745D01*
X131101683Y-97487745D01*
X131136431Y-97436890D01*
X131187440Y-97185000D01*
X131187440Y-96263223D01*
X135078035Y-96263223D01*
X135105222Y-96833454D01*
X135271136Y-97234005D01*
X135517255Y-97308139D01*
X136345395Y-96480000D01*
X136704605Y-96480000D01*
X137532745Y-97308139D01*
X137778864Y-97234005D01*
X137912002Y-96863599D01*
X143679699Y-96863599D01*
X143943281Y-97501515D01*
X144430918Y-97990004D01*
X145068373Y-98254699D01*
X145758599Y-98255301D01*
X146396515Y-97991719D01*
X146885004Y-97504082D01*
X147149699Y-96866627D01*
X147150301Y-96176401D01*
X146886719Y-95538485D01*
X146399082Y-95049996D01*
X145761627Y-94785301D01*
X145071401Y-94784699D01*
X144433485Y-95048281D01*
X143944996Y-95535918D01*
X143680301Y-96173373D01*
X143679699Y-96863599D01*
X137912002Y-96863599D01*
X137971965Y-96696777D01*
X137944778Y-96126546D01*
X137778864Y-95725995D01*
X137532745Y-95651861D01*
X136704605Y-96480000D01*
X136345395Y-96480000D01*
X135517255Y-95651861D01*
X135271136Y-95725995D01*
X135078035Y-96263223D01*
X131187440Y-96263223D01*
X131187440Y-94585000D01*
X131143162Y-94349683D01*
X131004090Y-94133559D01*
X130791890Y-93988569D01*
X130540000Y-93937560D01*
X128540000Y-93937560D01*
X128435000Y-93957317D01*
X128435000Y-93304396D01*
X128864396Y-92875000D01*
X135090000Y-92875000D01*
X135090000Y-93118569D01*
X135077560Y-93180000D01*
X135077560Y-94780000D01*
X135121838Y-95015317D01*
X135260910Y-95231441D01*
X135473110Y-95376431D01*
X135711201Y-95424646D01*
X135696861Y-95472255D01*
X136525000Y-96300395D01*
X137353139Y-95472255D01*
X137338855Y-95424833D01*
X137560317Y-95383162D01*
X137776441Y-95244090D01*
X137921431Y-95031890D01*
X137972440Y-94780000D01*
X137972440Y-93180000D01*
X137960000Y-93113887D01*
X137960000Y-92034396D01*
X139659397Y-90335000D01*
X141378569Y-90335000D01*
X141440000Y-90347440D01*
X143040000Y-90347440D01*
X143275317Y-90303162D01*
X143491441Y-90164090D01*
X143636431Y-89951890D01*
X143645370Y-89907745D01*
X143911861Y-89907745D01*
X143985995Y-90153864D01*
X144523223Y-90346965D01*
X145093454Y-90319778D01*
X145494005Y-90153864D01*
X145568139Y-89907745D01*
X144740000Y-89079605D01*
X143911861Y-89907745D01*
X143645370Y-89907745D01*
X143684646Y-89713799D01*
X143732255Y-89728139D01*
X144560395Y-88900000D01*
X144919605Y-88900000D01*
X145747745Y-89728139D01*
X145993864Y-89654005D01*
X146186965Y-89116777D01*
X146159778Y-88546546D01*
X145993864Y-88145995D01*
X145747745Y-88071861D01*
X144919605Y-88900000D01*
X144560395Y-88900000D01*
X143732255Y-88071861D01*
X143684833Y-88086145D01*
X143648351Y-87892255D01*
X143911861Y-87892255D01*
X144740000Y-88720395D01*
X145568139Y-87892255D01*
X145494005Y-87646136D01*
X144956777Y-87453035D01*
X144386546Y-87480222D01*
X143985995Y-87646136D01*
X143911861Y-87892255D01*
X143648351Y-87892255D01*
X143643162Y-87864683D01*
X143504090Y-87648559D01*
X143291890Y-87503569D01*
X143040000Y-87452560D01*
X141440000Y-87452560D01*
X141373887Y-87465000D01*
X139065000Y-87465000D01*
X138515849Y-87574233D01*
X138050301Y-87885302D01*
X137325000Y-88610603D01*
X137325000Y-82635594D01*
X137519078Y-82981317D01*
X138021980Y-83376942D01*
X138638000Y-83550000D01*
X138938000Y-83550000D01*
X138938000Y-82042000D01*
X139192000Y-82042000D01*
X139192000Y-83550000D01*
X139492000Y-83550000D01*
X140108020Y-83376942D01*
X140610922Y-82981317D01*
X140924144Y-82423355D01*
X140955124Y-82295434D01*
X142889876Y-82295434D01*
X142920856Y-82423355D01*
X143234078Y-82981317D01*
X143736980Y-83376942D01*
X144353000Y-83550000D01*
X144653000Y-83550000D01*
X144653000Y-82042000D01*
X144907000Y-82042000D01*
X144907000Y-83550000D01*
X145207000Y-83550000D01*
X145823020Y-83376942D01*
X146325922Y-82981317D01*
X146639144Y-82423355D01*
X146670124Y-82295434D01*
X146550777Y-82042000D01*
X144907000Y-82042000D01*
X144653000Y-82042000D01*
X143009223Y-82042000D01*
X142889876Y-82295434D01*
X140955124Y-82295434D01*
X140835777Y-82042000D01*
X139192000Y-82042000D01*
X138938000Y-82042000D01*
X138918000Y-82042000D01*
X138918000Y-81788000D01*
X138938000Y-81788000D01*
X138938000Y-81768000D01*
X139192000Y-81768000D01*
X139192000Y-81788000D01*
X140835777Y-81788000D01*
X140955124Y-81534566D01*
X140924144Y-81406645D01*
X140610922Y-80848683D01*
X140561750Y-80810000D01*
X143283250Y-80810000D01*
X143234078Y-80848683D01*
X142920856Y-81406645D01*
X142889876Y-81534566D01*
X143009223Y-81788000D01*
X144653000Y-81788000D01*
X144653000Y-81768000D01*
X144907000Y-81768000D01*
X144907000Y-81788000D01*
X146550777Y-81788000D01*
X146670124Y-81534566D01*
X146639144Y-81406645D01*
X146325922Y-80848683D01*
X146083812Y-80658219D01*
X146274029Y-80531120D01*
X146628452Y-80000687D01*
X146752909Y-79375000D01*
X146628452Y-78749313D01*
X146388907Y-78390808D01*
X146531441Y-78299090D01*
X146676431Y-78086890D01*
X146727440Y-77835000D01*
X146727440Y-75835000D01*
X146683162Y-75599683D01*
X146544090Y-75383559D01*
X146331890Y-75238569D01*
X146080000Y-75187560D01*
X143480000Y-75187560D01*
X143244683Y-75231838D01*
X143028559Y-75370910D01*
X142883569Y-75583110D01*
X142832560Y-75835000D01*
X142832560Y-77835000D01*
X142852317Y-77940000D01*
X140991177Y-77940000D01*
X141012440Y-77835000D01*
X141012440Y-75835000D01*
X140968162Y-75599683D01*
X140829090Y-75383559D01*
X140616890Y-75238569D01*
X140365000Y-75187560D01*
X137765000Y-75187560D01*
X137529683Y-75231838D01*
X137325000Y-75363548D01*
X137325000Y-74159396D01*
X139862560Y-71621836D01*
X139862560Y-72605000D01*
X139906838Y-72840317D01*
X140045910Y-73056441D01*
X140258110Y-73201431D01*
X140510000Y-73252440D01*
X142510000Y-73252440D01*
X142745317Y-73208162D01*
X142961441Y-73069090D01*
X143106431Y-72856890D01*
X143157440Y-72605000D01*
X143157440Y-72040750D01*
X143875000Y-72040750D01*
X143875000Y-72731310D01*
X143971673Y-72964699D01*
X144150302Y-73143327D01*
X144383691Y-73240000D01*
X145224250Y-73240000D01*
X145383000Y-73081250D01*
X145383000Y-71882000D01*
X145637000Y-71882000D01*
X145637000Y-73081250D01*
X145795750Y-73240000D01*
X146636309Y-73240000D01*
X146869698Y-73143327D01*
X147048327Y-72964699D01*
X147145000Y-72731310D01*
X147145000Y-72040750D01*
X146986250Y-71882000D01*
X145637000Y-71882000D01*
X145383000Y-71882000D01*
X144033750Y-71882000D01*
X143875000Y-72040750D01*
X143157440Y-72040750D01*
X143157440Y-70905000D01*
X143113162Y-70669683D01*
X143074757Y-70610000D01*
X143944874Y-70610000D01*
X143875000Y-70778690D01*
X143875000Y-71469250D01*
X144033750Y-71628000D01*
X145383000Y-71628000D01*
X145383000Y-70428750D01*
X145637000Y-70428750D01*
X145637000Y-71628000D01*
X146986250Y-71628000D01*
X147145000Y-71469250D01*
X147145000Y-70778690D01*
X147048327Y-70545301D01*
X146869698Y-70366673D01*
X146636309Y-70270000D01*
X145795750Y-70270000D01*
X145637000Y-70428750D01*
X145383000Y-70428750D01*
X145329526Y-70375276D01*
X146047401Y-69657401D01*
X146191033Y-69442440D01*
X146510000Y-69442440D01*
X146745317Y-69398162D01*
X146961441Y-69259090D01*
X147106431Y-69046890D01*
X147157440Y-68795000D01*
X147157440Y-67095000D01*
X147113162Y-66859683D01*
X146974090Y-66643559D01*
X146761890Y-66498569D01*
X146510000Y-66447560D01*
X144510000Y-66447560D01*
X144274683Y-66491838D01*
X144058559Y-66630910D01*
X143913569Y-66843110D01*
X143862560Y-67095000D01*
X143862560Y-68795000D01*
X143906838Y-69030317D01*
X143945243Y-69090000D01*
X143076975Y-69090000D01*
X143106431Y-69046890D01*
X143157440Y-68795000D01*
X143157440Y-67095000D01*
X143113162Y-66859683D01*
X142974090Y-66643559D01*
X142761890Y-66498569D01*
X142510000Y-66447560D01*
X142041956Y-66447560D01*
X139349698Y-63755302D01*
X139107139Y-63593229D01*
X139059090Y-63518559D01*
X138846890Y-63373569D01*
X138608799Y-63325354D01*
X138623139Y-63277745D01*
X137795000Y-62449605D01*
X136966861Y-63277745D01*
X136981145Y-63325167D01*
X136759683Y-63366838D01*
X136543559Y-63505910D01*
X136398569Y-63718110D01*
X136347560Y-63970000D01*
X136347560Y-64188044D01*
X133390604Y-67145000D01*
X132039397Y-67145000D01*
X130340000Y-65445604D01*
X130340000Y-64361750D01*
X130378683Y-64410922D01*
X130936645Y-64724144D01*
X131064566Y-64755124D01*
X131318000Y-64635777D01*
X131318000Y-62992000D01*
X131572000Y-62992000D01*
X131572000Y-64635777D01*
X131825434Y-64755124D01*
X131953355Y-64724144D01*
X132511317Y-64410922D01*
X132906942Y-63908020D01*
X133080000Y-63292000D01*
X133080000Y-62992000D01*
X131572000Y-62992000D01*
X131318000Y-62992000D01*
X131298000Y-62992000D01*
X131298000Y-62738000D01*
X131318000Y-62738000D01*
X131318000Y-61094223D01*
X131572000Y-61094223D01*
X131572000Y-62738000D01*
X133080000Y-62738000D01*
X133080000Y-62438000D01*
X132971905Y-62053223D01*
X136348035Y-62053223D01*
X136375222Y-62623454D01*
X136541136Y-63024005D01*
X136787255Y-63098139D01*
X137615395Y-62270000D01*
X137974605Y-62270000D01*
X138802745Y-63098139D01*
X139048864Y-63024005D01*
X139210757Y-62573599D01*
X143679699Y-62573599D01*
X143943281Y-63211515D01*
X144430918Y-63700004D01*
X145068373Y-63964699D01*
X145758599Y-63965301D01*
X146396515Y-63701719D01*
X146885004Y-63214082D01*
X147149699Y-62576627D01*
X147150301Y-61886401D01*
X146886719Y-61248485D01*
X146399082Y-60759996D01*
X145761627Y-60495301D01*
X145071401Y-60494699D01*
X144433485Y-60758281D01*
X143944996Y-61245918D01*
X143680301Y-61883373D01*
X143679699Y-62573599D01*
X139210757Y-62573599D01*
X139241965Y-62486777D01*
X139214778Y-61916546D01*
X139048864Y-61515995D01*
X138802745Y-61441861D01*
X137974605Y-62270000D01*
X137615395Y-62270000D01*
X136787255Y-61441861D01*
X136541136Y-61515995D01*
X136348035Y-62053223D01*
X132971905Y-62053223D01*
X132906942Y-61821980D01*
X132511317Y-61319078D01*
X132410095Y-61262255D01*
X136966861Y-61262255D01*
X137795000Y-62090395D01*
X138623139Y-61262255D01*
X138549005Y-61016136D01*
X138011777Y-60823035D01*
X137441546Y-60850222D01*
X137040995Y-61016136D01*
X136966861Y-61262255D01*
X132410095Y-61262255D01*
X131953355Y-61005856D01*
X131825434Y-60974876D01*
X131572000Y-61094223D01*
X131318000Y-61094223D01*
X131064566Y-60974876D01*
X130936645Y-61005856D01*
X130378683Y-61319078D01*
X130188219Y-61561188D01*
X130061120Y-61370971D01*
X129530687Y-61016548D01*
X128905000Y-60892091D01*
X128279313Y-61016548D01*
X127920808Y-61256093D01*
X127829090Y-61113559D01*
X127616890Y-60968569D01*
X127365000Y-60917560D01*
X125365000Y-60917560D01*
X125129683Y-60961838D01*
X124913559Y-61100910D01*
X124768569Y-61313110D01*
X124717560Y-61565000D01*
X124717560Y-64165000D01*
X124761838Y-64400317D01*
X124900910Y-64616441D01*
X125113110Y-64761431D01*
X125365000Y-64812440D01*
X127365000Y-64812440D01*
X127470000Y-64792683D01*
X127470000Y-64810603D01*
X125770604Y-66510000D01*
X119974396Y-66510000D01*
X119220000Y-65755604D01*
X119220000Y-64025322D01*
X119339730Y-63905801D01*
X119450000Y-63640242D01*
X119450000Y-64191310D01*
X119546673Y-64424699D01*
X119725302Y-64603327D01*
X119958691Y-64700000D01*
X120999250Y-64700000D01*
X121158000Y-64541250D01*
X121158000Y-62992000D01*
X121412000Y-62992000D01*
X121412000Y-64541250D01*
X121570750Y-64700000D01*
X122611309Y-64700000D01*
X122844698Y-64603327D01*
X123023327Y-64424699D01*
X123120000Y-64191310D01*
X123120000Y-63150750D01*
X122961250Y-62992000D01*
X121412000Y-62992000D01*
X121158000Y-62992000D01*
X121138000Y-62992000D01*
X121138000Y-62738000D01*
X121158000Y-62738000D01*
X121158000Y-61188750D01*
X121412000Y-61188750D01*
X121412000Y-62738000D01*
X122961250Y-62738000D01*
X123120000Y-62579250D01*
X123120000Y-61538690D01*
X123023327Y-61305301D01*
X122844698Y-61126673D01*
X122611309Y-61030000D01*
X121570750Y-61030000D01*
X121412000Y-61188750D01*
X121158000Y-61188750D01*
X120999250Y-61030000D01*
X119958691Y-61030000D01*
X119725302Y-61126673D01*
X119546673Y-61305301D01*
X119450000Y-61538690D01*
X119450000Y-62089395D01*
X119341545Y-61826914D01*
X118825801Y-61310270D01*
X118151605Y-61030319D01*
X117421597Y-61029682D01*
X116746914Y-61308455D01*
X116230270Y-61824199D01*
X115950319Y-62498395D01*
X115949682Y-63228403D01*
X116228455Y-63903086D01*
X116350000Y-64024843D01*
X116350000Y-67040603D01*
X115610604Y-67780000D01*
X115161431Y-67780000D01*
X115100000Y-67767560D01*
X113500000Y-67767560D01*
X113264683Y-67811838D01*
X113048559Y-67950910D01*
X112903569Y-68163110D01*
X112855354Y-68401201D01*
X112807745Y-68386861D01*
X111979605Y-69215000D01*
X112807745Y-70043139D01*
X112855167Y-70028855D01*
X112896838Y-70250317D01*
X113035910Y-70466441D01*
X113248110Y-70611431D01*
X113500000Y-70662440D01*
X113718044Y-70662440D01*
X115405000Y-72349397D01*
X115405000Y-76240604D01*
X114340604Y-77305000D01*
X113891750Y-77305000D01*
X113940922Y-77266317D01*
X114254144Y-76708355D01*
X114285124Y-76580434D01*
X114165777Y-76327000D01*
X112522000Y-76327000D01*
X112522000Y-76347000D01*
X112268000Y-76347000D01*
X112268000Y-76327000D01*
X110624223Y-76327000D01*
X110504876Y-76580434D01*
X110535856Y-76708355D01*
X110849078Y-77266317D01*
X111091188Y-77456781D01*
X110900971Y-77583880D01*
X110546548Y-78114313D01*
X110422091Y-78740000D01*
X109930000Y-78740000D01*
X109930000Y-75819566D01*
X110504876Y-75819566D01*
X110624223Y-76073000D01*
X112268000Y-76073000D01*
X112268000Y-74565000D01*
X112522000Y-74565000D01*
X112522000Y-76073000D01*
X114165777Y-76073000D01*
X114285124Y-75819566D01*
X114254144Y-75691645D01*
X113940922Y-75133683D01*
X113438020Y-74738058D01*
X112822000Y-74565000D01*
X112522000Y-74565000D01*
X112268000Y-74565000D01*
X111968000Y-74565000D01*
X111351980Y-74738058D01*
X110849078Y-75133683D01*
X110535856Y-75691645D01*
X110504876Y-75819566D01*
X109930000Y-75819566D01*
X109930000Y-70222745D01*
X110971861Y-70222745D01*
X111045995Y-70468864D01*
X111583223Y-70661965D01*
X112153454Y-70634778D01*
X112554005Y-70468864D01*
X112628139Y-70222745D01*
X111800000Y-69394605D01*
X110971861Y-70222745D01*
X109930000Y-70222745D01*
X109930000Y-68998223D01*
X110353035Y-68998223D01*
X110380222Y-69568454D01*
X110546136Y-69969005D01*
X110792255Y-70043139D01*
X111620395Y-69215000D01*
X110792255Y-68386861D01*
X110546136Y-68460995D01*
X110353035Y-68998223D01*
X109930000Y-68998223D01*
X109930000Y-68207255D01*
X110971861Y-68207255D01*
X111800000Y-69035395D01*
X112628139Y-68207255D01*
X112554005Y-67961136D01*
X112016777Y-67768035D01*
X111446546Y-67795222D01*
X111045995Y-67961136D01*
X110971861Y-68207255D01*
X109930000Y-68207255D01*
X109930000Y-62573599D01*
X110024699Y-62573599D01*
X110288281Y-63211515D01*
X110775918Y-63700004D01*
X111413373Y-63964699D01*
X112103599Y-63965301D01*
X112741515Y-63701719D01*
X113230004Y-63214082D01*
X113494699Y-62576627D01*
X113495301Y-61886401D01*
X113231719Y-61248485D01*
X112744082Y-60759996D01*
X112106627Y-60495301D01*
X111416401Y-60494699D01*
X110778485Y-60758281D01*
X110289996Y-61245918D01*
X110025301Y-61883373D01*
X110024699Y-62573599D01*
X109930000Y-62573599D01*
X109930000Y-60400000D01*
X147245000Y-60400000D01*
X147245000Y-98350000D01*
X147245000Y-98350000D01*
G37*
X147245000Y-98350000D02*
X109930000Y-98350000D01*
X109930000Y-96863599D01*
X110024699Y-96863599D01*
X110288281Y-97501515D01*
X110775918Y-97990004D01*
X111413373Y-98254699D01*
X112103599Y-98255301D01*
X112741515Y-97991719D01*
X113230004Y-97504082D01*
X113494699Y-96866627D01*
X113495301Y-96176401D01*
X113427372Y-96012000D01*
X122825000Y-96012000D01*
X122825000Y-96312000D01*
X122998058Y-96928020D01*
X123393683Y-97430922D01*
X123951645Y-97744144D01*
X124079566Y-97775124D01*
X124333000Y-97655777D01*
X124333000Y-96012000D01*
X122825000Y-96012000D01*
X113427372Y-96012000D01*
X113231719Y-95538485D01*
X113151375Y-95458000D01*
X122825000Y-95458000D01*
X122825000Y-95758000D01*
X124333000Y-95758000D01*
X124333000Y-94114223D01*
X124079566Y-93994876D01*
X123951645Y-94025856D01*
X123393683Y-94339078D01*
X122998058Y-94841980D01*
X122825000Y-95458000D01*
X113151375Y-95458000D01*
X112744082Y-95049996D01*
X112106627Y-94785301D01*
X111416401Y-94784699D01*
X110778485Y-95048281D01*
X110289996Y-95535918D01*
X110025301Y-96173373D01*
X110024699Y-96863599D01*
X109930000Y-96863599D01*
X109930000Y-90858403D01*
X110559682Y-90858403D01*
X110838455Y-91533086D01*
X111354199Y-92049730D01*
X112028395Y-92329681D01*
X112758403Y-92330318D01*
X113433086Y-92051545D01*
X113949730Y-91535801D01*
X114229681Y-90861605D01*
X114230318Y-90131597D01*
X113951545Y-89456914D01*
X113435801Y-88940270D01*
X113170242Y-88830000D01*
X113721310Y-88830000D01*
X113954699Y-88733327D01*
X114133327Y-88554698D01*
X114230000Y-88321309D01*
X114230000Y-87280750D01*
X114071250Y-87122000D01*
X112522000Y-87122000D01*
X112522000Y-87142000D01*
X112268000Y-87142000D01*
X112268000Y-87122000D01*
X110718750Y-87122000D01*
X110560000Y-87280750D01*
X110560000Y-88321309D01*
X110656673Y-88554698D01*
X110835301Y-88733327D01*
X111068690Y-88830000D01*
X111619395Y-88830000D01*
X111356914Y-88938455D01*
X110840270Y-89454199D01*
X110560319Y-90128395D01*
X110559682Y-90858403D01*
X109930000Y-90858403D01*
X109930000Y-85668691D01*
X110560000Y-85668691D01*
X110560000Y-86709250D01*
X110718750Y-86868000D01*
X112268000Y-86868000D01*
X112268000Y-85318750D01*
X112522000Y-85318750D01*
X112522000Y-86868000D01*
X114071250Y-86868000D01*
X114230000Y-86709250D01*
X114230000Y-85668691D01*
X114133327Y-85435302D01*
X113954699Y-85256673D01*
X113721310Y-85160000D01*
X112680750Y-85160000D01*
X112522000Y-85318750D01*
X112268000Y-85318750D01*
X112109250Y-85160000D01*
X111068690Y-85160000D01*
X110835301Y-85256673D01*
X110656673Y-85435302D01*
X110560000Y-85668691D01*
X109930000Y-85668691D01*
X109930000Y-78740000D01*
X110422091Y-78740000D01*
X110546548Y-79365687D01*
X110786093Y-79724192D01*
X110643559Y-79815910D01*
X110498569Y-80028110D01*
X110447560Y-80280000D01*
X110447560Y-82280000D01*
X110491838Y-82515317D01*
X110630910Y-82731441D01*
X110843110Y-82876431D01*
X111095000Y-82927440D01*
X113695000Y-82927440D01*
X113930317Y-82883162D01*
X114146441Y-82744090D01*
X114291431Y-82531890D01*
X114342440Y-82280000D01*
X114342440Y-80280000D01*
X114322683Y-80175000D01*
X114935000Y-80175000D01*
X115484151Y-80065767D01*
X115949698Y-79754698D01*
X117854698Y-77849698D01*
X117917472Y-77755750D01*
X130595000Y-77755750D01*
X130595000Y-78446310D01*
X130691673Y-78679699D01*
X130870302Y-78858327D01*
X131103691Y-78955000D01*
X131794250Y-78955000D01*
X131953000Y-78796250D01*
X131953000Y-77597000D01*
X132207000Y-77597000D01*
X132207000Y-78796250D01*
X132365750Y-78955000D01*
X133056309Y-78955000D01*
X133289698Y-78858327D01*
X133468327Y-78679699D01*
X133565000Y-78446310D01*
X133565000Y-77755750D01*
X133406250Y-77597000D01*
X132207000Y-77597000D01*
X131953000Y-77597000D01*
X130753750Y-77597000D01*
X130595000Y-77755750D01*
X117917472Y-77755750D01*
X117937817Y-77725302D01*
X118165767Y-77384151D01*
X118275000Y-76835000D01*
X118275000Y-74930000D01*
X130565907Y-74930000D01*
X130678946Y-75498285D01*
X131000853Y-75980054D01*
X131044777Y-76009403D01*
X130870302Y-76081673D01*
X130691673Y-76260301D01*
X130595000Y-76493690D01*
X130595000Y-77184250D01*
X130753750Y-77343000D01*
X131953000Y-77343000D01*
X131953000Y-77323000D01*
X132207000Y-77323000D01*
X132207000Y-77343000D01*
X133406250Y-77343000D01*
X133565000Y-77184250D01*
X133565000Y-76493690D01*
X133468327Y-76260301D01*
X133289698Y-76081673D01*
X133115223Y-76009403D01*
X133159147Y-75980054D01*
X133481054Y-75498285D01*
X133594093Y-74930000D01*
X133481054Y-74361715D01*
X133159147Y-73879946D01*
X132677378Y-73558039D01*
X132109093Y-73445000D01*
X132050907Y-73445000D01*
X131482622Y-73558039D01*
X131000853Y-73879946D01*
X130678946Y-74361715D01*
X130565907Y-74930000D01*
X118275000Y-74930000D01*
X118275000Y-71755000D01*
X118165767Y-71205849D01*
X117964746Y-70905000D01*
X117854698Y-70740301D01*
X117281896Y-70167500D01*
X118439872Y-69009524D01*
X118830849Y-69270767D01*
X119380000Y-69380000D01*
X126365000Y-69380000D01*
X126914151Y-69270767D01*
X127379698Y-68959698D01*
X128587500Y-67751896D01*
X130430301Y-69594698D01*
X130683904Y-69764150D01*
X130895849Y-69905767D01*
X131445000Y-70015000D01*
X133985000Y-70015000D01*
X134534151Y-69905767D01*
X134999698Y-69594698D01*
X138065000Y-66529396D01*
X139480604Y-67945000D01*
X134875302Y-72550302D01*
X134564233Y-73015849D01*
X134455000Y-73565000D01*
X134455000Y-78105000D01*
X134564233Y-78654151D01*
X134765254Y-78955000D01*
X134875302Y-79119698D01*
X135130604Y-79375000D01*
X134875302Y-79630302D01*
X134564233Y-80095849D01*
X134455000Y-80645000D01*
X134455000Y-90005000D01*
X128270000Y-90005000D01*
X127720849Y-90114233D01*
X127255302Y-90425302D01*
X125985302Y-91695302D01*
X125674233Y-92160849D01*
X125565000Y-92710000D01*
X125565000Y-94388250D01*
X125526317Y-94339078D01*
X124968355Y-94025856D01*
X124840434Y-93994876D01*
X124587000Y-94114223D01*
X124587000Y-95758000D01*
X124607000Y-95758000D01*
X124607000Y-96012000D01*
X124587000Y-96012000D01*
X124587000Y-97655777D01*
X124840434Y-97775124D01*
X124968355Y-97744144D01*
X125526317Y-97430922D01*
X125716781Y-97188812D01*
X125843880Y-97379029D01*
X126374313Y-97733452D01*
X127000000Y-97857909D01*
X127625687Y-97733452D01*
X127984192Y-97493907D01*
X128075910Y-97636441D01*
X128288110Y-97781431D01*
X128540000Y-97832440D01*
X130540000Y-97832440D01*
X130775317Y-97788162D01*
X130991441Y-97649090D01*
X131101683Y-97487745D01*
X135696861Y-97487745D01*
X135770995Y-97733864D01*
X136308223Y-97926965D01*
X136878454Y-97899778D01*
X137279005Y-97733864D01*
X137353139Y-97487745D01*
X136525000Y-96659605D01*
X135696861Y-97487745D01*
X131101683Y-97487745D01*
X131136431Y-97436890D01*
X131187440Y-97185000D01*
X131187440Y-96263223D01*
X135078035Y-96263223D01*
X135105222Y-96833454D01*
X135271136Y-97234005D01*
X135517255Y-97308139D01*
X136345395Y-96480000D01*
X136704605Y-96480000D01*
X137532745Y-97308139D01*
X137778864Y-97234005D01*
X137912002Y-96863599D01*
X143679699Y-96863599D01*
X143943281Y-97501515D01*
X144430918Y-97990004D01*
X145068373Y-98254699D01*
X145758599Y-98255301D01*
X146396515Y-97991719D01*
X146885004Y-97504082D01*
X147149699Y-96866627D01*
X147150301Y-96176401D01*
X146886719Y-95538485D01*
X146399082Y-95049996D01*
X145761627Y-94785301D01*
X145071401Y-94784699D01*
X144433485Y-95048281D01*
X143944996Y-95535918D01*
X143680301Y-96173373D01*
X143679699Y-96863599D01*
X137912002Y-96863599D01*
X137971965Y-96696777D01*
X137944778Y-96126546D01*
X137778864Y-95725995D01*
X137532745Y-95651861D01*
X136704605Y-96480000D01*
X136345395Y-96480000D01*
X135517255Y-95651861D01*
X135271136Y-95725995D01*
X135078035Y-96263223D01*
X131187440Y-96263223D01*
X131187440Y-94585000D01*
X131143162Y-94349683D01*
X131004090Y-94133559D01*
X130791890Y-93988569D01*
X130540000Y-93937560D01*
X128540000Y-93937560D01*
X128435000Y-93957317D01*
X128435000Y-93304396D01*
X128864396Y-92875000D01*
X135090000Y-92875000D01*
X135090000Y-93118569D01*
X135077560Y-93180000D01*
X135077560Y-94780000D01*
X135121838Y-95015317D01*
X135260910Y-95231441D01*
X135473110Y-95376431D01*
X135711201Y-95424646D01*
X135696861Y-95472255D01*
X136525000Y-96300395D01*
X137353139Y-95472255D01*
X137338855Y-95424833D01*
X137560317Y-95383162D01*
X137776441Y-95244090D01*
X137921431Y-95031890D01*
X137972440Y-94780000D01*
X137972440Y-93180000D01*
X137960000Y-93113887D01*
X137960000Y-92034396D01*
X139659397Y-90335000D01*
X141378569Y-90335000D01*
X141440000Y-90347440D01*
X143040000Y-90347440D01*
X143275317Y-90303162D01*
X143491441Y-90164090D01*
X143636431Y-89951890D01*
X143645370Y-89907745D01*
X143911861Y-89907745D01*
X143985995Y-90153864D01*
X144523223Y-90346965D01*
X145093454Y-90319778D01*
X145494005Y-90153864D01*
X145568139Y-89907745D01*
X144740000Y-89079605D01*
X143911861Y-89907745D01*
X143645370Y-89907745D01*
X143684646Y-89713799D01*
X143732255Y-89728139D01*
X144560395Y-88900000D01*
X144919605Y-88900000D01*
X145747745Y-89728139D01*
X145993864Y-89654005D01*
X146186965Y-89116777D01*
X146159778Y-88546546D01*
X145993864Y-88145995D01*
X145747745Y-88071861D01*
X144919605Y-88900000D01*
X144560395Y-88900000D01*
X143732255Y-88071861D01*
X143684833Y-88086145D01*
X143648351Y-87892255D01*
X143911861Y-87892255D01*
X144740000Y-88720395D01*
X145568139Y-87892255D01*
X145494005Y-87646136D01*
X144956777Y-87453035D01*
X144386546Y-87480222D01*
X143985995Y-87646136D01*
X143911861Y-87892255D01*
X143648351Y-87892255D01*
X143643162Y-87864683D01*
X143504090Y-87648559D01*
X143291890Y-87503569D01*
X143040000Y-87452560D01*
X141440000Y-87452560D01*
X141373887Y-87465000D01*
X139065000Y-87465000D01*
X138515849Y-87574233D01*
X138050301Y-87885302D01*
X137325000Y-88610603D01*
X137325000Y-82635594D01*
X137519078Y-82981317D01*
X138021980Y-83376942D01*
X138638000Y-83550000D01*
X138938000Y-83550000D01*
X138938000Y-82042000D01*
X139192000Y-82042000D01*
X139192000Y-83550000D01*
X139492000Y-83550000D01*
X140108020Y-83376942D01*
X140610922Y-82981317D01*
X140924144Y-82423355D01*
X140955124Y-82295434D01*
X142889876Y-82295434D01*
X142920856Y-82423355D01*
X143234078Y-82981317D01*
X143736980Y-83376942D01*
X144353000Y-83550000D01*
X144653000Y-83550000D01*
X144653000Y-82042000D01*
X144907000Y-82042000D01*
X144907000Y-83550000D01*
X145207000Y-83550000D01*
X145823020Y-83376942D01*
X146325922Y-82981317D01*
X146639144Y-82423355D01*
X146670124Y-82295434D01*
X146550777Y-82042000D01*
X144907000Y-82042000D01*
X144653000Y-82042000D01*
X143009223Y-82042000D01*
X142889876Y-82295434D01*
X140955124Y-82295434D01*
X140835777Y-82042000D01*
X139192000Y-82042000D01*
X138938000Y-82042000D01*
X138918000Y-82042000D01*
X138918000Y-81788000D01*
X138938000Y-81788000D01*
X138938000Y-81768000D01*
X139192000Y-81768000D01*
X139192000Y-81788000D01*
X140835777Y-81788000D01*
X140955124Y-81534566D01*
X140924144Y-81406645D01*
X140610922Y-80848683D01*
X140561750Y-80810000D01*
X143283250Y-80810000D01*
X143234078Y-80848683D01*
X142920856Y-81406645D01*
X142889876Y-81534566D01*
X143009223Y-81788000D01*
X144653000Y-81788000D01*
X144653000Y-81768000D01*
X144907000Y-81768000D01*
X144907000Y-81788000D01*
X146550777Y-81788000D01*
X146670124Y-81534566D01*
X146639144Y-81406645D01*
X146325922Y-80848683D01*
X146083812Y-80658219D01*
X146274029Y-80531120D01*
X146628452Y-80000687D01*
X146752909Y-79375000D01*
X146628452Y-78749313D01*
X146388907Y-78390808D01*
X146531441Y-78299090D01*
X146676431Y-78086890D01*
X146727440Y-77835000D01*
X146727440Y-75835000D01*
X146683162Y-75599683D01*
X146544090Y-75383559D01*
X146331890Y-75238569D01*
X146080000Y-75187560D01*
X143480000Y-75187560D01*
X143244683Y-75231838D01*
X143028559Y-75370910D01*
X142883569Y-75583110D01*
X142832560Y-75835000D01*
X142832560Y-77835000D01*
X142852317Y-77940000D01*
X140991177Y-77940000D01*
X141012440Y-77835000D01*
X141012440Y-75835000D01*
X140968162Y-75599683D01*
X140829090Y-75383559D01*
X140616890Y-75238569D01*
X140365000Y-75187560D01*
X137765000Y-75187560D01*
X137529683Y-75231838D01*
X137325000Y-75363548D01*
X137325000Y-74159396D01*
X139862560Y-71621836D01*
X139862560Y-72605000D01*
X139906838Y-72840317D01*
X140045910Y-73056441D01*
X140258110Y-73201431D01*
X140510000Y-73252440D01*
X142510000Y-73252440D01*
X142745317Y-73208162D01*
X142961441Y-73069090D01*
X143106431Y-72856890D01*
X143157440Y-72605000D01*
X143157440Y-72040750D01*
X143875000Y-72040750D01*
X143875000Y-72731310D01*
X143971673Y-72964699D01*
X144150302Y-73143327D01*
X144383691Y-73240000D01*
X145224250Y-73240000D01*
X145383000Y-73081250D01*
X145383000Y-71882000D01*
X145637000Y-71882000D01*
X145637000Y-73081250D01*
X145795750Y-73240000D01*
X146636309Y-73240000D01*
X146869698Y-73143327D01*
X147048327Y-72964699D01*
X147145000Y-72731310D01*
X147145000Y-72040750D01*
X146986250Y-71882000D01*
X145637000Y-71882000D01*
X145383000Y-71882000D01*
X144033750Y-71882000D01*
X143875000Y-72040750D01*
X143157440Y-72040750D01*
X143157440Y-70905000D01*
X143113162Y-70669683D01*
X143074757Y-70610000D01*
X143944874Y-70610000D01*
X143875000Y-70778690D01*
X143875000Y-71469250D01*
X144033750Y-71628000D01*
X145383000Y-71628000D01*
X145383000Y-70428750D01*
X145637000Y-70428750D01*
X145637000Y-71628000D01*
X146986250Y-71628000D01*
X147145000Y-71469250D01*
X147145000Y-70778690D01*
X147048327Y-70545301D01*
X146869698Y-70366673D01*
X146636309Y-70270000D01*
X145795750Y-70270000D01*
X145637000Y-70428750D01*
X145383000Y-70428750D01*
X145329526Y-70375276D01*
X146047401Y-69657401D01*
X146191033Y-69442440D01*
X146510000Y-69442440D01*
X146745317Y-69398162D01*
X146961441Y-69259090D01*
X147106431Y-69046890D01*
X147157440Y-68795000D01*
X147157440Y-67095000D01*
X147113162Y-66859683D01*
X146974090Y-66643559D01*
X146761890Y-66498569D01*
X146510000Y-66447560D01*
X144510000Y-66447560D01*
X144274683Y-66491838D01*
X144058559Y-66630910D01*
X143913569Y-66843110D01*
X143862560Y-67095000D01*
X143862560Y-68795000D01*
X143906838Y-69030317D01*
X143945243Y-69090000D01*
X143076975Y-69090000D01*
X143106431Y-69046890D01*
X143157440Y-68795000D01*
X143157440Y-67095000D01*
X143113162Y-66859683D01*
X142974090Y-66643559D01*
X142761890Y-66498569D01*
X142510000Y-66447560D01*
X142041956Y-66447560D01*
X139349698Y-63755302D01*
X139107139Y-63593229D01*
X139059090Y-63518559D01*
X138846890Y-63373569D01*
X138608799Y-63325354D01*
X138623139Y-63277745D01*
X137795000Y-62449605D01*
X136966861Y-63277745D01*
X136981145Y-63325167D01*
X136759683Y-63366838D01*
X136543559Y-63505910D01*
X136398569Y-63718110D01*
X136347560Y-63970000D01*
X136347560Y-64188044D01*
X133390604Y-67145000D01*
X132039397Y-67145000D01*
X130340000Y-65445604D01*
X130340000Y-64361750D01*
X130378683Y-64410922D01*
X130936645Y-64724144D01*
X131064566Y-64755124D01*
X131318000Y-64635777D01*
X131318000Y-62992000D01*
X131572000Y-62992000D01*
X131572000Y-64635777D01*
X131825434Y-64755124D01*
X131953355Y-64724144D01*
X132511317Y-64410922D01*
X132906942Y-63908020D01*
X133080000Y-63292000D01*
X133080000Y-62992000D01*
X131572000Y-62992000D01*
X131318000Y-62992000D01*
X131298000Y-62992000D01*
X131298000Y-62738000D01*
X131318000Y-62738000D01*
X131318000Y-61094223D01*
X131572000Y-61094223D01*
X131572000Y-62738000D01*
X133080000Y-62738000D01*
X133080000Y-62438000D01*
X132971905Y-62053223D01*
X136348035Y-62053223D01*
X136375222Y-62623454D01*
X136541136Y-63024005D01*
X136787255Y-63098139D01*
X137615395Y-62270000D01*
X137974605Y-62270000D01*
X138802745Y-63098139D01*
X139048864Y-63024005D01*
X139210757Y-62573599D01*
X143679699Y-62573599D01*
X143943281Y-63211515D01*
X144430918Y-63700004D01*
X145068373Y-63964699D01*
X145758599Y-63965301D01*
X146396515Y-63701719D01*
X146885004Y-63214082D01*
X147149699Y-62576627D01*
X147150301Y-61886401D01*
X146886719Y-61248485D01*
X146399082Y-60759996D01*
X145761627Y-60495301D01*
X145071401Y-60494699D01*
X144433485Y-60758281D01*
X143944996Y-61245918D01*
X143680301Y-61883373D01*
X143679699Y-62573599D01*
X139210757Y-62573599D01*
X139241965Y-62486777D01*
X139214778Y-61916546D01*
X139048864Y-61515995D01*
X138802745Y-61441861D01*
X137974605Y-62270000D01*
X137615395Y-62270000D01*
X136787255Y-61441861D01*
X136541136Y-61515995D01*
X136348035Y-62053223D01*
X132971905Y-62053223D01*
X132906942Y-61821980D01*
X132511317Y-61319078D01*
X132410095Y-61262255D01*
X136966861Y-61262255D01*
X137795000Y-62090395D01*
X138623139Y-61262255D01*
X138549005Y-61016136D01*
X138011777Y-60823035D01*
X137441546Y-60850222D01*
X137040995Y-61016136D01*
X136966861Y-61262255D01*
X132410095Y-61262255D01*
X131953355Y-61005856D01*
X131825434Y-60974876D01*
X131572000Y-61094223D01*
X131318000Y-61094223D01*
X131064566Y-60974876D01*
X130936645Y-61005856D01*
X130378683Y-61319078D01*
X130188219Y-61561188D01*
X130061120Y-61370971D01*
X129530687Y-61016548D01*
X128905000Y-60892091D01*
X128279313Y-61016548D01*
X127920808Y-61256093D01*
X127829090Y-61113559D01*
X127616890Y-60968569D01*
X127365000Y-60917560D01*
X125365000Y-60917560D01*
X125129683Y-60961838D01*
X124913559Y-61100910D01*
X124768569Y-61313110D01*
X124717560Y-61565000D01*
X124717560Y-64165000D01*
X124761838Y-64400317D01*
X124900910Y-64616441D01*
X125113110Y-64761431D01*
X125365000Y-64812440D01*
X127365000Y-64812440D01*
X127470000Y-64792683D01*
X127470000Y-64810603D01*
X125770604Y-66510000D01*
X119974396Y-66510000D01*
X119220000Y-65755604D01*
X119220000Y-64025322D01*
X119339730Y-63905801D01*
X119450000Y-63640242D01*
X119450000Y-64191310D01*
X119546673Y-64424699D01*
X119725302Y-64603327D01*
X119958691Y-64700000D01*
X120999250Y-64700000D01*
X121158000Y-64541250D01*
X121158000Y-62992000D01*
X121412000Y-62992000D01*
X121412000Y-64541250D01*
X121570750Y-64700000D01*
X122611309Y-64700000D01*
X122844698Y-64603327D01*
X123023327Y-64424699D01*
X123120000Y-64191310D01*
X123120000Y-63150750D01*
X122961250Y-62992000D01*
X121412000Y-62992000D01*
X121158000Y-62992000D01*
X121138000Y-62992000D01*
X121138000Y-62738000D01*
X121158000Y-62738000D01*
X121158000Y-61188750D01*
X121412000Y-61188750D01*
X121412000Y-62738000D01*
X122961250Y-62738000D01*
X123120000Y-62579250D01*
X123120000Y-61538690D01*
X123023327Y-61305301D01*
X122844698Y-61126673D01*
X122611309Y-61030000D01*
X121570750Y-61030000D01*
X121412000Y-61188750D01*
X121158000Y-61188750D01*
X120999250Y-61030000D01*
X119958691Y-61030000D01*
X119725302Y-61126673D01*
X119546673Y-61305301D01*
X119450000Y-61538690D01*
X119450000Y-62089395D01*
X119341545Y-61826914D01*
X118825801Y-61310270D01*
X118151605Y-61030319D01*
X117421597Y-61029682D01*
X116746914Y-61308455D01*
X116230270Y-61824199D01*
X115950319Y-62498395D01*
X115949682Y-63228403D01*
X116228455Y-63903086D01*
X116350000Y-64024843D01*
X116350000Y-67040603D01*
X115610604Y-67780000D01*
X115161431Y-67780000D01*
X115100000Y-67767560D01*
X113500000Y-67767560D01*
X113264683Y-67811838D01*
X113048559Y-67950910D01*
X112903569Y-68163110D01*
X112855354Y-68401201D01*
X112807745Y-68386861D01*
X111979605Y-69215000D01*
X112807745Y-70043139D01*
X112855167Y-70028855D01*
X112896838Y-70250317D01*
X113035910Y-70466441D01*
X113248110Y-70611431D01*
X113500000Y-70662440D01*
X113718044Y-70662440D01*
X115405000Y-72349397D01*
X115405000Y-76240604D01*
X114340604Y-77305000D01*
X113891750Y-77305000D01*
X113940922Y-77266317D01*
X114254144Y-76708355D01*
X114285124Y-76580434D01*
X114165777Y-76327000D01*
X112522000Y-76327000D01*
X112522000Y-76347000D01*
X112268000Y-76347000D01*
X112268000Y-76327000D01*
X110624223Y-76327000D01*
X110504876Y-76580434D01*
X110535856Y-76708355D01*
X110849078Y-77266317D01*
X111091188Y-77456781D01*
X110900971Y-77583880D01*
X110546548Y-78114313D01*
X110422091Y-78740000D01*
X109930000Y-78740000D01*
X109930000Y-75819566D01*
X110504876Y-75819566D01*
X110624223Y-76073000D01*
X112268000Y-76073000D01*
X112268000Y-74565000D01*
X112522000Y-74565000D01*
X112522000Y-76073000D01*
X114165777Y-76073000D01*
X114285124Y-75819566D01*
X114254144Y-75691645D01*
X113940922Y-75133683D01*
X113438020Y-74738058D01*
X112822000Y-74565000D01*
X112522000Y-74565000D01*
X112268000Y-74565000D01*
X111968000Y-74565000D01*
X111351980Y-74738058D01*
X110849078Y-75133683D01*
X110535856Y-75691645D01*
X110504876Y-75819566D01*
X109930000Y-75819566D01*
X109930000Y-70222745D01*
X110971861Y-70222745D01*
X111045995Y-70468864D01*
X111583223Y-70661965D01*
X112153454Y-70634778D01*
X112554005Y-70468864D01*
X112628139Y-70222745D01*
X111800000Y-69394605D01*
X110971861Y-70222745D01*
X109930000Y-70222745D01*
X109930000Y-68998223D01*
X110353035Y-68998223D01*
X110380222Y-69568454D01*
X110546136Y-69969005D01*
X110792255Y-70043139D01*
X111620395Y-69215000D01*
X110792255Y-68386861D01*
X110546136Y-68460995D01*
X110353035Y-68998223D01*
X109930000Y-68998223D01*
X109930000Y-68207255D01*
X110971861Y-68207255D01*
X111800000Y-69035395D01*
X112628139Y-68207255D01*
X112554005Y-67961136D01*
X112016777Y-67768035D01*
X111446546Y-67795222D01*
X111045995Y-67961136D01*
X110971861Y-68207255D01*
X109930000Y-68207255D01*
X109930000Y-62573599D01*
X110024699Y-62573599D01*
X110288281Y-63211515D01*
X110775918Y-63700004D01*
X111413373Y-63964699D01*
X112103599Y-63965301D01*
X112741515Y-63701719D01*
X113230004Y-63214082D01*
X113494699Y-62576627D01*
X113495301Y-61886401D01*
X113231719Y-61248485D01*
X112744082Y-60759996D01*
X112106627Y-60495301D01*
X111416401Y-60494699D01*
X110778485Y-60758281D01*
X110289996Y-61245918D01*
X110025301Y-61883373D01*
X110024699Y-62573599D01*
X109930000Y-62573599D01*
X109930000Y-60400000D01*
X147245000Y-60400000D01*
X147245000Y-98350000D01*
M02*
