G04 #@! TF.FileFunction,Soldermask,Bot*
%FSLAX46Y46*%
G04 Gerber Fmt 4.6, Leading zero omitted, Abs format (unit mm)*
G04 Created by KiCad (PCBNEW 4.0.7) date Tuesday, February 20, 2018 'PMt' 07:47:19 PM*
%MOMM*%
%LPD*%
G01*
G04 APERTURE LIST*
%ADD10C,0.100000*%
%ADD11C,3.600000*%
%ADD12R,2.000000X2.400000*%
%ADD13R,2.000000X2.000000*%
%ADD14C,2.000000*%
%ADD15R,3.900000X3.900000*%
%ADD16R,2.100000X2.100000*%
%ADD17O,2.100000X2.100000*%
%ADD18R,2.400000X2.100000*%
%ADD19R,2.100000X2.400000*%
%ADD20O,3.900000X3.900000*%
%ADD21R,2.200000X2.200000*%
%ADD22O,2.200000X2.200000*%
%ADD23R,1.900000X1.000000*%
%ADD24R,1.900000X1.900000*%
%ADD25C,1.900000*%
%ADD26R,2.400000X3.000000*%
%ADD27O,2.400000X3.000000*%
%ADD28R,2.400000X4.200000*%
%ADD29R,2.400000X1.900000*%
G04 APERTURE END LIST*
D10*
D11*
X96520000Y-19050000D03*
X54610000Y-19050000D03*
D12*
X80010000Y-19590000D03*
X80010000Y-23590000D03*
D13*
X90170000Y-31750000D03*
D14*
X87670000Y-31750000D03*
D12*
X66040000Y-28480000D03*
X66040000Y-32480000D03*
D15*
X59690000Y-29210000D03*
X53690000Y-29210000D03*
X56690000Y-33910000D03*
D16*
X54610000Y-40640000D03*
D17*
X54610000Y-43180000D03*
X54610000Y-45720000D03*
X54610000Y-48260000D03*
D18*
X65500000Y-21590000D03*
X61500000Y-21590000D03*
X65500000Y-16510000D03*
X61500000Y-16510000D03*
D19*
X71120000Y-45180000D03*
X71120000Y-41180000D03*
D20*
X87780000Y-21590000D03*
D21*
X71120000Y-19050000D03*
D22*
X71120000Y-21590000D03*
X71120000Y-24130000D03*
D23*
X60800000Y-45720000D03*
X60800000Y-44450000D03*
X60800000Y-43180000D03*
X60800000Y-41910000D03*
X60800000Y-40640000D03*
X60800000Y-39370000D03*
X60800000Y-38100000D03*
X66200000Y-38100000D03*
X66200000Y-39370000D03*
X66200000Y-40640000D03*
X66200000Y-41910000D03*
X66200000Y-43180000D03*
X66200000Y-44450000D03*
X66200000Y-45720000D03*
D11*
X96520000Y-55880000D03*
X54610000Y-55880000D03*
D24*
X87630000Y-39370000D03*
D25*
X89630000Y-39370000D03*
X91630000Y-39370000D03*
D26*
X92710000Y-46990000D03*
D27*
X90170000Y-46990000D03*
X87630000Y-46990000D03*
D28*
X78080000Y-30480000D03*
D29*
X71780000Y-30480000D03*
X71780000Y-28180000D03*
X71780000Y-32780000D03*
M02*
