G04 #@! TF.FileFunction,Copper,L1,Top,Signal*
%FSLAX46Y46*%
G04 Gerber Fmt 4.6, Leading zero omitted, Abs format (unit mm)*
G04 Created by KiCad (PCBNEW 4.0.7) date Saturday, June 09, 2018 'PMt' 12:28:08 PM*
%MOMM*%
%LPD*%
G01*
G04 APERTURE LIST*
%ADD10C,0.100000*%
%ADD11R,2.000000X1.700000*%
%ADD12R,2.000000X2.600000*%
%ADD13O,2.000000X2.600000*%
%ADD14R,1.700000X1.700000*%
%ADD15O,1.700000X1.700000*%
%ADD16R,2.600000X2.000000*%
%ADD17O,2.600000X2.000000*%
%ADD18R,2.500000X2.500000*%
%ADD19C,2.500000*%
%ADD20C,0.600000*%
%ADD21C,0.250000*%
%ADD22C,2.000000*%
%ADD23C,0.254000*%
G04 APERTURE END LIST*
D10*
D11*
X123920000Y-106045000D03*
X119920000Y-106045000D03*
D12*
X113665000Y-81280000D03*
D13*
X116205000Y-81280000D03*
X118745000Y-81280000D03*
D14*
X136525000Y-103505000D03*
D15*
X139065000Y-103505000D03*
X141605000Y-103505000D03*
D12*
X113665000Y-74930000D03*
D13*
X116205000Y-74930000D03*
X118745000Y-74930000D03*
D12*
X113665000Y-87630000D03*
D13*
X116205000Y-87630000D03*
X118745000Y-87630000D03*
D12*
X113665000Y-95885000D03*
D13*
X116205000Y-95885000D03*
X118745000Y-95885000D03*
D11*
X123920000Y-102235000D03*
X119920000Y-102235000D03*
D12*
X149225000Y-87630000D03*
D13*
X151765000Y-87630000D03*
X154305000Y-87630000D03*
D12*
X149225000Y-95885000D03*
D13*
X151765000Y-95885000D03*
X154305000Y-95885000D03*
D12*
X149225000Y-81280000D03*
D13*
X151765000Y-81280000D03*
X154305000Y-81280000D03*
D12*
X149225000Y-74930000D03*
D13*
X151765000Y-74930000D03*
X154305000Y-74930000D03*
D16*
X132715000Y-94615000D03*
D17*
X132715000Y-92075000D03*
X132715000Y-89535000D03*
D18*
X129540000Y-64770000D03*
D19*
X124540000Y-64770000D03*
D18*
X142875000Y-64770000D03*
D19*
X137875000Y-64770000D03*
D20*
X116205000Y-102870000D03*
D21*
X149225000Y-87630000D02*
X149225000Y-81280000D01*
X149225000Y-95885000D02*
X149225000Y-87630000D01*
X149225000Y-95885000D02*
X136525000Y-95885000D01*
X113665000Y-74930000D02*
X113665000Y-81280000D01*
X113665000Y-81280000D02*
X113665000Y-87630000D01*
X113665000Y-87630000D02*
X113665000Y-95885000D01*
X113665000Y-95885000D02*
X113665000Y-98425000D01*
X113665000Y-98425000D02*
X114300000Y-99060000D01*
X114300000Y-99060000D02*
X128270000Y-99060000D01*
X128270000Y-99060000D02*
X132715000Y-94615000D01*
X132715000Y-94615000D02*
X135255000Y-94615000D01*
X135255000Y-94615000D02*
X136525000Y-95885000D01*
X136525000Y-95885000D02*
X136525000Y-103505000D01*
X123920000Y-102235000D02*
X123920000Y-106045000D01*
X151765000Y-95885000D02*
X151765000Y-98425000D01*
X139065000Y-100965000D02*
X139065000Y-103505000D01*
X140335000Y-99695000D02*
X139065000Y-100965000D01*
X150495000Y-99695000D02*
X140335000Y-99695000D01*
X151765000Y-98425000D02*
X150495000Y-99695000D01*
D22*
X137875000Y-64770000D02*
X137875000Y-71835000D01*
X151765000Y-79375000D02*
X151765000Y-81280000D01*
X150495000Y-78105000D02*
X151765000Y-79375000D01*
X144145000Y-78105000D02*
X150495000Y-78105000D01*
X137875000Y-71835000D02*
X144145000Y-78105000D01*
X137875000Y-64770000D02*
X137875000Y-65485000D01*
X137875000Y-65485000D02*
X140970000Y-68580000D01*
X140970000Y-68580000D02*
X148590000Y-68580000D01*
X148590000Y-68580000D02*
X151765000Y-71755000D01*
X151765000Y-71755000D02*
X151765000Y-74930000D01*
D21*
X116205000Y-102870000D02*
X119380000Y-106045000D01*
X119380000Y-106045000D02*
X119920000Y-106045000D01*
D22*
X116205000Y-79375000D02*
X116205000Y-81280000D01*
X117475000Y-78105000D02*
X116205000Y-79375000D01*
X120650000Y-78105000D02*
X117475000Y-78105000D01*
X124540000Y-74215000D02*
X120650000Y-78105000D01*
X124540000Y-64770000D02*
X124540000Y-74215000D01*
X124540000Y-64770000D02*
X119380000Y-64770000D01*
X116205000Y-67945000D02*
X116205000Y-74930000D01*
X119380000Y-64770000D02*
X116205000Y-67945000D01*
D23*
G36*
X158040000Y-108510000D02*
X109930000Y-108510000D01*
X109930000Y-107023599D01*
X110024699Y-107023599D01*
X110288281Y-107661515D01*
X110775918Y-108150004D01*
X111413373Y-108414699D01*
X112103599Y-108415301D01*
X112741515Y-108151719D01*
X113230004Y-107664082D01*
X113494699Y-107026627D01*
X113495301Y-106336401D01*
X113231719Y-105698485D01*
X112744082Y-105209996D01*
X112106627Y-104945301D01*
X111416401Y-104944699D01*
X110778485Y-105208281D01*
X110289996Y-105695918D01*
X110025301Y-106333373D01*
X110024699Y-107023599D01*
X109930000Y-107023599D01*
X109930000Y-103055167D01*
X115269838Y-103055167D01*
X115411883Y-103398943D01*
X115674673Y-103662192D01*
X116018201Y-103804838D01*
X116065077Y-103804879D01*
X118272560Y-106012362D01*
X118272560Y-106895000D01*
X118316838Y-107130317D01*
X118455910Y-107346441D01*
X118668110Y-107491431D01*
X118920000Y-107542440D01*
X120920000Y-107542440D01*
X121155317Y-107498162D01*
X121371441Y-107359090D01*
X121516431Y-107146890D01*
X121567440Y-106895000D01*
X121567440Y-105195000D01*
X121523162Y-104959683D01*
X121384090Y-104743559D01*
X121171890Y-104598569D01*
X120920000Y-104547560D01*
X118957362Y-104547560D01*
X117140122Y-102730320D01*
X117140162Y-102684833D01*
X117072365Y-102520750D01*
X118285000Y-102520750D01*
X118285000Y-103211310D01*
X118381673Y-103444699D01*
X118560302Y-103623327D01*
X118793691Y-103720000D01*
X119634250Y-103720000D01*
X119793000Y-103561250D01*
X119793000Y-102362000D01*
X120047000Y-102362000D01*
X120047000Y-103561250D01*
X120205750Y-103720000D01*
X121046309Y-103720000D01*
X121279698Y-103623327D01*
X121458327Y-103444699D01*
X121555000Y-103211310D01*
X121555000Y-102520750D01*
X121396250Y-102362000D01*
X120047000Y-102362000D01*
X119793000Y-102362000D01*
X118443750Y-102362000D01*
X118285000Y-102520750D01*
X117072365Y-102520750D01*
X116998117Y-102341057D01*
X116735327Y-102077808D01*
X116391799Y-101935162D01*
X116019833Y-101934838D01*
X115676057Y-102076883D01*
X115412808Y-102339673D01*
X115270162Y-102683201D01*
X115269838Y-103055167D01*
X109930000Y-103055167D01*
X109930000Y-101258690D01*
X118285000Y-101258690D01*
X118285000Y-101949250D01*
X118443750Y-102108000D01*
X119793000Y-102108000D01*
X119793000Y-100908750D01*
X120047000Y-100908750D01*
X120047000Y-102108000D01*
X121396250Y-102108000D01*
X121555000Y-101949250D01*
X121555000Y-101385000D01*
X122272560Y-101385000D01*
X122272560Y-103085000D01*
X122316838Y-103320317D01*
X122455910Y-103536441D01*
X122668110Y-103681431D01*
X122920000Y-103732440D01*
X123160000Y-103732440D01*
X123160000Y-104547560D01*
X122920000Y-104547560D01*
X122684683Y-104591838D01*
X122468559Y-104730910D01*
X122323569Y-104943110D01*
X122272560Y-105195000D01*
X122272560Y-106895000D01*
X122316838Y-107130317D01*
X122455910Y-107346441D01*
X122668110Y-107491431D01*
X122920000Y-107542440D01*
X124920000Y-107542440D01*
X125155317Y-107498162D01*
X125371441Y-107359090D01*
X125516431Y-107146890D01*
X125541398Y-107023599D01*
X154474699Y-107023599D01*
X154738281Y-107661515D01*
X155225918Y-108150004D01*
X155863373Y-108414699D01*
X156553599Y-108415301D01*
X157191515Y-108151719D01*
X157680004Y-107664082D01*
X157944699Y-107026627D01*
X157945301Y-106336401D01*
X157681719Y-105698485D01*
X157194082Y-105209996D01*
X156556627Y-104945301D01*
X155866401Y-104944699D01*
X155228485Y-105208281D01*
X154739996Y-105695918D01*
X154475301Y-106333373D01*
X154474699Y-107023599D01*
X125541398Y-107023599D01*
X125567440Y-106895000D01*
X125567440Y-105195000D01*
X125523162Y-104959683D01*
X125384090Y-104743559D01*
X125171890Y-104598569D01*
X124920000Y-104547560D01*
X124680000Y-104547560D01*
X124680000Y-103732440D01*
X124920000Y-103732440D01*
X125155317Y-103688162D01*
X125371441Y-103549090D01*
X125516431Y-103336890D01*
X125567440Y-103085000D01*
X125567440Y-101385000D01*
X125523162Y-101149683D01*
X125384090Y-100933559D01*
X125171890Y-100788569D01*
X124920000Y-100737560D01*
X122920000Y-100737560D01*
X122684683Y-100781838D01*
X122468559Y-100920910D01*
X122323569Y-101133110D01*
X122272560Y-101385000D01*
X121555000Y-101385000D01*
X121555000Y-101258690D01*
X121458327Y-101025301D01*
X121279698Y-100846673D01*
X121046309Y-100750000D01*
X120205750Y-100750000D01*
X120047000Y-100908750D01*
X119793000Y-100908750D01*
X119634250Y-100750000D01*
X118793691Y-100750000D01*
X118560302Y-100846673D01*
X118381673Y-101025301D01*
X118285000Y-101258690D01*
X109930000Y-101258690D01*
X109930000Y-73630000D01*
X112017560Y-73630000D01*
X112017560Y-76230000D01*
X112061838Y-76465317D01*
X112200910Y-76681441D01*
X112413110Y-76826431D01*
X112665000Y-76877440D01*
X112905000Y-76877440D01*
X112905000Y-79332560D01*
X112665000Y-79332560D01*
X112429683Y-79376838D01*
X112213559Y-79515910D01*
X112068569Y-79728110D01*
X112017560Y-79980000D01*
X112017560Y-82580000D01*
X112061838Y-82815317D01*
X112200910Y-83031441D01*
X112413110Y-83176431D01*
X112665000Y-83227440D01*
X112905000Y-83227440D01*
X112905000Y-85682560D01*
X112665000Y-85682560D01*
X112429683Y-85726838D01*
X112213559Y-85865910D01*
X112068569Y-86078110D01*
X112017560Y-86330000D01*
X112017560Y-88930000D01*
X112061838Y-89165317D01*
X112200910Y-89381441D01*
X112413110Y-89526431D01*
X112665000Y-89577440D01*
X112905000Y-89577440D01*
X112905000Y-93937560D01*
X112665000Y-93937560D01*
X112429683Y-93981838D01*
X112213559Y-94120910D01*
X112068569Y-94333110D01*
X112017560Y-94585000D01*
X112017560Y-97185000D01*
X112061838Y-97420317D01*
X112200910Y-97636441D01*
X112413110Y-97781431D01*
X112665000Y-97832440D01*
X112905000Y-97832440D01*
X112905000Y-98425000D01*
X112962852Y-98715839D01*
X113127599Y-98962401D01*
X113762599Y-99597401D01*
X114009161Y-99762148D01*
X114300000Y-99820000D01*
X128270000Y-99820000D01*
X128560839Y-99762148D01*
X128807401Y-99597401D01*
X132142362Y-96262440D01*
X134015000Y-96262440D01*
X134250317Y-96218162D01*
X134466441Y-96079090D01*
X134611431Y-95866890D01*
X134662440Y-95615000D01*
X134662440Y-95375000D01*
X134940198Y-95375000D01*
X135765000Y-96199802D01*
X135765000Y-102007560D01*
X135675000Y-102007560D01*
X135439683Y-102051838D01*
X135223559Y-102190910D01*
X135078569Y-102403110D01*
X135027560Y-102655000D01*
X135027560Y-104355000D01*
X135071838Y-104590317D01*
X135210910Y-104806441D01*
X135423110Y-104951431D01*
X135675000Y-105002440D01*
X137375000Y-105002440D01*
X137610317Y-104958162D01*
X137826441Y-104819090D01*
X137971431Y-104606890D01*
X137985086Y-104539459D01*
X138014946Y-104584147D01*
X138496715Y-104906054D01*
X139065000Y-105019093D01*
X139633285Y-104906054D01*
X140115054Y-104584147D01*
X140342702Y-104243447D01*
X140409817Y-104386358D01*
X140838076Y-104776645D01*
X141248110Y-104946476D01*
X141478000Y-104825155D01*
X141478000Y-103632000D01*
X141732000Y-103632000D01*
X141732000Y-104825155D01*
X141961890Y-104946476D01*
X142371924Y-104776645D01*
X142800183Y-104386358D01*
X143046486Y-103861892D01*
X142925819Y-103632000D01*
X141732000Y-103632000D01*
X141478000Y-103632000D01*
X141458000Y-103632000D01*
X141458000Y-103378000D01*
X141478000Y-103378000D01*
X141478000Y-102184845D01*
X141732000Y-102184845D01*
X141732000Y-103378000D01*
X142925819Y-103378000D01*
X143046486Y-103148108D01*
X142800183Y-102623642D01*
X142371924Y-102233355D01*
X141961890Y-102063524D01*
X141732000Y-102184845D01*
X141478000Y-102184845D01*
X141248110Y-102063524D01*
X140838076Y-102233355D01*
X140409817Y-102623642D01*
X140342702Y-102766553D01*
X140115054Y-102425853D01*
X139825000Y-102232046D01*
X139825000Y-101279802D01*
X140649802Y-100455000D01*
X150495000Y-100455000D01*
X150785839Y-100397148D01*
X151032401Y-100232401D01*
X152302401Y-98962401D01*
X152467148Y-98715840D01*
X152525000Y-98425000D01*
X152525000Y-97643707D01*
X152921120Y-97379029D01*
X153048219Y-97188812D01*
X153238683Y-97430922D01*
X153796645Y-97744144D01*
X153924566Y-97775124D01*
X154178000Y-97655777D01*
X154178000Y-96012000D01*
X154432000Y-96012000D01*
X154432000Y-97655777D01*
X154685434Y-97775124D01*
X154813355Y-97744144D01*
X155371317Y-97430922D01*
X155766942Y-96928020D01*
X155940000Y-96312000D01*
X155940000Y-96012000D01*
X154432000Y-96012000D01*
X154178000Y-96012000D01*
X154158000Y-96012000D01*
X154158000Y-95758000D01*
X154178000Y-95758000D01*
X154178000Y-94114223D01*
X154432000Y-94114223D01*
X154432000Y-95758000D01*
X155940000Y-95758000D01*
X155940000Y-95458000D01*
X155766942Y-94841980D01*
X155371317Y-94339078D01*
X154813355Y-94025856D01*
X154685434Y-93994876D01*
X154432000Y-94114223D01*
X154178000Y-94114223D01*
X153924566Y-93994876D01*
X153796645Y-94025856D01*
X153238683Y-94339078D01*
X153048219Y-94581188D01*
X152921120Y-94390971D01*
X152390687Y-94036548D01*
X151765000Y-93912091D01*
X151139313Y-94036548D01*
X150780808Y-94276093D01*
X150689090Y-94133559D01*
X150476890Y-93988569D01*
X150225000Y-93937560D01*
X149985000Y-93937560D01*
X149985000Y-89577440D01*
X150225000Y-89577440D01*
X150460317Y-89533162D01*
X150676441Y-89394090D01*
X150781951Y-89239671D01*
X151139313Y-89478452D01*
X151765000Y-89602909D01*
X152390687Y-89478452D01*
X152921120Y-89124029D01*
X153048219Y-88933812D01*
X153238683Y-89175922D01*
X153796645Y-89489144D01*
X153924566Y-89520124D01*
X154178000Y-89400777D01*
X154178000Y-87757000D01*
X154432000Y-87757000D01*
X154432000Y-89400777D01*
X154685434Y-89520124D01*
X154813355Y-89489144D01*
X155371317Y-89175922D01*
X155766942Y-88673020D01*
X155940000Y-88057000D01*
X155940000Y-87757000D01*
X154432000Y-87757000D01*
X154178000Y-87757000D01*
X154158000Y-87757000D01*
X154158000Y-87503000D01*
X154178000Y-87503000D01*
X154178000Y-85859223D01*
X154432000Y-85859223D01*
X154432000Y-87503000D01*
X155940000Y-87503000D01*
X155940000Y-87203000D01*
X155766942Y-86586980D01*
X155371317Y-86084078D01*
X154813355Y-85770856D01*
X154685434Y-85739876D01*
X154432000Y-85859223D01*
X154178000Y-85859223D01*
X153924566Y-85739876D01*
X153796645Y-85770856D01*
X153238683Y-86084078D01*
X153048219Y-86326188D01*
X152921120Y-86135971D01*
X152390687Y-85781548D01*
X151765000Y-85657091D01*
X151139313Y-85781548D01*
X150780808Y-86021093D01*
X150689090Y-85878559D01*
X150476890Y-85733569D01*
X150225000Y-85682560D01*
X149985000Y-85682560D01*
X149985000Y-83227440D01*
X150225000Y-83227440D01*
X150460317Y-83183162D01*
X150676441Y-83044090D01*
X150781951Y-82889671D01*
X151139313Y-83128452D01*
X151765000Y-83252909D01*
X152390687Y-83128452D01*
X152921120Y-82774029D01*
X153048219Y-82583812D01*
X153238683Y-82825922D01*
X153796645Y-83139144D01*
X153924566Y-83170124D01*
X154178000Y-83050777D01*
X154178000Y-81407000D01*
X154432000Y-81407000D01*
X154432000Y-83050777D01*
X154685434Y-83170124D01*
X154813355Y-83139144D01*
X155371317Y-82825922D01*
X155766942Y-82323020D01*
X155940000Y-81707000D01*
X155940000Y-81407000D01*
X154432000Y-81407000D01*
X154178000Y-81407000D01*
X154158000Y-81407000D01*
X154158000Y-81153000D01*
X154178000Y-81153000D01*
X154178000Y-79509223D01*
X154432000Y-79509223D01*
X154432000Y-81153000D01*
X155940000Y-81153000D01*
X155940000Y-80853000D01*
X155766942Y-80236980D01*
X155371317Y-79734078D01*
X154813355Y-79420856D01*
X154685434Y-79389876D01*
X154432000Y-79509223D01*
X154178000Y-79509223D01*
X153924566Y-79389876D01*
X153796645Y-79420856D01*
X153400000Y-79643520D01*
X153400000Y-79375000D01*
X153275543Y-78749313D01*
X153275543Y-78749312D01*
X153133581Y-78536851D01*
X152921120Y-78218880D01*
X152921117Y-78218878D01*
X151651120Y-76948880D01*
X151504885Y-76851169D01*
X151765000Y-76902909D01*
X152390687Y-76778452D01*
X152921120Y-76424029D01*
X153048219Y-76233812D01*
X153238683Y-76475922D01*
X153796645Y-76789144D01*
X153924566Y-76820124D01*
X154178000Y-76700777D01*
X154178000Y-75057000D01*
X154432000Y-75057000D01*
X154432000Y-76700777D01*
X154685434Y-76820124D01*
X154813355Y-76789144D01*
X155371317Y-76475922D01*
X155766942Y-75973020D01*
X155940000Y-75357000D01*
X155940000Y-75057000D01*
X154432000Y-75057000D01*
X154178000Y-75057000D01*
X154158000Y-75057000D01*
X154158000Y-74803000D01*
X154178000Y-74803000D01*
X154178000Y-73159223D01*
X154432000Y-73159223D01*
X154432000Y-74803000D01*
X155940000Y-74803000D01*
X155940000Y-74503000D01*
X155766942Y-73886980D01*
X155371317Y-73384078D01*
X154813355Y-73070856D01*
X154685434Y-73039876D01*
X154432000Y-73159223D01*
X154178000Y-73159223D01*
X153924566Y-73039876D01*
X153796645Y-73070856D01*
X153400000Y-73293520D01*
X153400000Y-71755005D01*
X153400001Y-71755000D01*
X153275543Y-71129312D01*
X152921120Y-70598880D01*
X149746120Y-67423880D01*
X149215688Y-67069457D01*
X148590000Y-66944999D01*
X148589995Y-66945000D01*
X141647240Y-66945000D01*
X139759750Y-65057510D01*
X139759751Y-65055750D01*
X140990000Y-65055750D01*
X140990000Y-66146310D01*
X141086673Y-66379699D01*
X141265302Y-66558327D01*
X141498691Y-66655000D01*
X142589250Y-66655000D01*
X142748000Y-66496250D01*
X142748000Y-64897000D01*
X143002000Y-64897000D01*
X143002000Y-66496250D01*
X143160750Y-66655000D01*
X144251309Y-66655000D01*
X144484698Y-66558327D01*
X144663327Y-66379699D01*
X144760000Y-66146310D01*
X144760000Y-65055750D01*
X144601250Y-64897000D01*
X143002000Y-64897000D01*
X142748000Y-64897000D01*
X141148750Y-64897000D01*
X140990000Y-65055750D01*
X139759751Y-65055750D01*
X139760326Y-64396695D01*
X139473957Y-63703628D01*
X139164560Y-63393690D01*
X140990000Y-63393690D01*
X140990000Y-64484250D01*
X141148750Y-64643000D01*
X142748000Y-64643000D01*
X142748000Y-63043750D01*
X143002000Y-63043750D01*
X143002000Y-64643000D01*
X144601250Y-64643000D01*
X144760000Y-64484250D01*
X144760000Y-63393690D01*
X144663327Y-63160301D01*
X144484698Y-62981673D01*
X144251309Y-62885000D01*
X143160750Y-62885000D01*
X143002000Y-63043750D01*
X142748000Y-63043750D01*
X142589250Y-62885000D01*
X141498691Y-62885000D01*
X141265302Y-62981673D01*
X141086673Y-63160301D01*
X140990000Y-63393690D01*
X139164560Y-63393690D01*
X138944161Y-63172907D01*
X138251595Y-62885328D01*
X137501695Y-62884674D01*
X136808628Y-63171043D01*
X136277907Y-63700839D01*
X135990328Y-64393405D01*
X135989674Y-65143305D01*
X136240000Y-65749141D01*
X136240000Y-71834995D01*
X136239999Y-71835000D01*
X136364457Y-72460688D01*
X136718880Y-72991120D01*
X142988880Y-79261120D01*
X143519312Y-79615543D01*
X144145000Y-79740001D01*
X144145005Y-79740000D01*
X147626161Y-79740000D01*
X147577560Y-79980000D01*
X147577560Y-82580000D01*
X147621838Y-82815317D01*
X147760910Y-83031441D01*
X147973110Y-83176431D01*
X148225000Y-83227440D01*
X148465000Y-83227440D01*
X148465000Y-85682560D01*
X148225000Y-85682560D01*
X147989683Y-85726838D01*
X147773559Y-85865910D01*
X147628569Y-86078110D01*
X147577560Y-86330000D01*
X147577560Y-88930000D01*
X147621838Y-89165317D01*
X147760910Y-89381441D01*
X147973110Y-89526431D01*
X148225000Y-89577440D01*
X148465000Y-89577440D01*
X148465000Y-93937560D01*
X148225000Y-93937560D01*
X147989683Y-93981838D01*
X147773559Y-94120910D01*
X147628569Y-94333110D01*
X147577560Y-94585000D01*
X147577560Y-95125000D01*
X136839802Y-95125000D01*
X135792401Y-94077599D01*
X135545839Y-93912852D01*
X135255000Y-93855000D01*
X134662440Y-93855000D01*
X134662440Y-93615000D01*
X134618162Y-93379683D01*
X134479090Y-93163559D01*
X134324671Y-93058049D01*
X134563452Y-92700687D01*
X134687909Y-92075000D01*
X134563452Y-91449313D01*
X134209029Y-90918880D01*
X134018812Y-90791781D01*
X134260922Y-90601317D01*
X134574144Y-90043355D01*
X134605124Y-89915434D01*
X134485777Y-89662000D01*
X132842000Y-89662000D01*
X132842000Y-89682000D01*
X132588000Y-89682000D01*
X132588000Y-89662000D01*
X130944223Y-89662000D01*
X130824876Y-89915434D01*
X130855856Y-90043355D01*
X131169078Y-90601317D01*
X131411188Y-90791781D01*
X131220971Y-90918880D01*
X130866548Y-91449313D01*
X130742091Y-92075000D01*
X130866548Y-92700687D01*
X131106093Y-93059192D01*
X130963559Y-93150910D01*
X130818569Y-93363110D01*
X130767560Y-93615000D01*
X130767560Y-95487638D01*
X127955198Y-98300000D01*
X114614802Y-98300000D01*
X114425000Y-98110198D01*
X114425000Y-97832440D01*
X114665000Y-97832440D01*
X114900317Y-97788162D01*
X115116441Y-97649090D01*
X115221951Y-97494671D01*
X115579313Y-97733452D01*
X116205000Y-97857909D01*
X116830687Y-97733452D01*
X117361120Y-97379029D01*
X117488219Y-97188812D01*
X117678683Y-97430922D01*
X118236645Y-97744144D01*
X118364566Y-97775124D01*
X118618000Y-97655777D01*
X118618000Y-96012000D01*
X118872000Y-96012000D01*
X118872000Y-97655777D01*
X119125434Y-97775124D01*
X119253355Y-97744144D01*
X119811317Y-97430922D01*
X120206942Y-96928020D01*
X120380000Y-96312000D01*
X120380000Y-96012000D01*
X118872000Y-96012000D01*
X118618000Y-96012000D01*
X118598000Y-96012000D01*
X118598000Y-95758000D01*
X118618000Y-95758000D01*
X118618000Y-94114223D01*
X118872000Y-94114223D01*
X118872000Y-95758000D01*
X120380000Y-95758000D01*
X120380000Y-95458000D01*
X120206942Y-94841980D01*
X119811317Y-94339078D01*
X119253355Y-94025856D01*
X119125434Y-93994876D01*
X118872000Y-94114223D01*
X118618000Y-94114223D01*
X118364566Y-93994876D01*
X118236645Y-94025856D01*
X117678683Y-94339078D01*
X117488219Y-94581188D01*
X117361120Y-94390971D01*
X116830687Y-94036548D01*
X116205000Y-93912091D01*
X115579313Y-94036548D01*
X115220808Y-94276093D01*
X115129090Y-94133559D01*
X114916890Y-93988569D01*
X114665000Y-93937560D01*
X114425000Y-93937560D01*
X114425000Y-89577440D01*
X114665000Y-89577440D01*
X114900317Y-89533162D01*
X115116441Y-89394090D01*
X115221951Y-89239671D01*
X115579313Y-89478452D01*
X116205000Y-89602909D01*
X116830687Y-89478452D01*
X117361120Y-89124029D01*
X117488219Y-88933812D01*
X117678683Y-89175922D01*
X118236645Y-89489144D01*
X118364566Y-89520124D01*
X118618000Y-89400777D01*
X118618000Y-87757000D01*
X118872000Y-87757000D01*
X118872000Y-89400777D01*
X119125434Y-89520124D01*
X119253355Y-89489144D01*
X119811317Y-89175922D01*
X119828117Y-89154566D01*
X130824876Y-89154566D01*
X130944223Y-89408000D01*
X132588000Y-89408000D01*
X132588000Y-87900000D01*
X132842000Y-87900000D01*
X132842000Y-89408000D01*
X134485777Y-89408000D01*
X134605124Y-89154566D01*
X134574144Y-89026645D01*
X134260922Y-88468683D01*
X133758020Y-88073058D01*
X133142000Y-87900000D01*
X132842000Y-87900000D01*
X132588000Y-87900000D01*
X132288000Y-87900000D01*
X131671980Y-88073058D01*
X131169078Y-88468683D01*
X130855856Y-89026645D01*
X130824876Y-89154566D01*
X119828117Y-89154566D01*
X120206942Y-88673020D01*
X120380000Y-88057000D01*
X120380000Y-87757000D01*
X118872000Y-87757000D01*
X118618000Y-87757000D01*
X118598000Y-87757000D01*
X118598000Y-87503000D01*
X118618000Y-87503000D01*
X118618000Y-85859223D01*
X118872000Y-85859223D01*
X118872000Y-87503000D01*
X120380000Y-87503000D01*
X120380000Y-87203000D01*
X120206942Y-86586980D01*
X119811317Y-86084078D01*
X119253355Y-85770856D01*
X119125434Y-85739876D01*
X118872000Y-85859223D01*
X118618000Y-85859223D01*
X118364566Y-85739876D01*
X118236645Y-85770856D01*
X117678683Y-86084078D01*
X117488219Y-86326188D01*
X117361120Y-86135971D01*
X116830687Y-85781548D01*
X116205000Y-85657091D01*
X115579313Y-85781548D01*
X115220808Y-86021093D01*
X115129090Y-85878559D01*
X114916890Y-85733569D01*
X114665000Y-85682560D01*
X114425000Y-85682560D01*
X114425000Y-84163599D01*
X130344699Y-84163599D01*
X130608281Y-84801515D01*
X131095918Y-85290004D01*
X131733373Y-85554699D01*
X132423599Y-85555301D01*
X133061515Y-85291719D01*
X133550004Y-84804082D01*
X133814699Y-84166627D01*
X133815301Y-83476401D01*
X133551719Y-82838485D01*
X133064082Y-82349996D01*
X132426627Y-82085301D01*
X131736401Y-82084699D01*
X131098485Y-82348281D01*
X130609996Y-82835918D01*
X130345301Y-83473373D01*
X130344699Y-84163599D01*
X114425000Y-84163599D01*
X114425000Y-83227440D01*
X114665000Y-83227440D01*
X114900317Y-83183162D01*
X115116441Y-83044090D01*
X115221951Y-82889671D01*
X115579313Y-83128452D01*
X116205000Y-83252909D01*
X116830687Y-83128452D01*
X117361120Y-82774029D01*
X117488219Y-82583812D01*
X117678683Y-82825922D01*
X118236645Y-83139144D01*
X118364566Y-83170124D01*
X118618000Y-83050777D01*
X118618000Y-81407000D01*
X118872000Y-81407000D01*
X118872000Y-83050777D01*
X119125434Y-83170124D01*
X119253355Y-83139144D01*
X119811317Y-82825922D01*
X120206942Y-82323020D01*
X120380000Y-81707000D01*
X120380000Y-81407000D01*
X118872000Y-81407000D01*
X118618000Y-81407000D01*
X118598000Y-81407000D01*
X118598000Y-81153000D01*
X118618000Y-81153000D01*
X118618000Y-81133000D01*
X118872000Y-81133000D01*
X118872000Y-81153000D01*
X120380000Y-81153000D01*
X120380000Y-80853000D01*
X120206942Y-80236980D01*
X119815976Y-79740000D01*
X120649995Y-79740000D01*
X120650000Y-79740001D01*
X121275688Y-79615543D01*
X121806120Y-79261120D01*
X125696117Y-75371122D01*
X125696120Y-75371120D01*
X125906008Y-75057000D01*
X126050543Y-74840688D01*
X126175001Y-74215000D01*
X126175000Y-74214995D01*
X126175000Y-65747871D01*
X126424672Y-65146595D01*
X126424751Y-65055750D01*
X127655000Y-65055750D01*
X127655000Y-66146310D01*
X127751673Y-66379699D01*
X127930302Y-66558327D01*
X128163691Y-66655000D01*
X129254250Y-66655000D01*
X129413000Y-66496250D01*
X129413000Y-64897000D01*
X129667000Y-64897000D01*
X129667000Y-66496250D01*
X129825750Y-66655000D01*
X130916309Y-66655000D01*
X131149698Y-66558327D01*
X131328327Y-66379699D01*
X131425000Y-66146310D01*
X131425000Y-65055750D01*
X131266250Y-64897000D01*
X129667000Y-64897000D01*
X129413000Y-64897000D01*
X127813750Y-64897000D01*
X127655000Y-65055750D01*
X126424751Y-65055750D01*
X126425326Y-64396695D01*
X126138957Y-63703628D01*
X125829560Y-63393690D01*
X127655000Y-63393690D01*
X127655000Y-64484250D01*
X127813750Y-64643000D01*
X129413000Y-64643000D01*
X129413000Y-63043750D01*
X129667000Y-63043750D01*
X129667000Y-64643000D01*
X131266250Y-64643000D01*
X131425000Y-64484250D01*
X131425000Y-63393690D01*
X131328327Y-63160301D01*
X131149698Y-62981673D01*
X130916309Y-62885000D01*
X129825750Y-62885000D01*
X129667000Y-63043750D01*
X129413000Y-63043750D01*
X129254250Y-62885000D01*
X128163691Y-62885000D01*
X127930302Y-62981673D01*
X127751673Y-63160301D01*
X127655000Y-63393690D01*
X125829560Y-63393690D01*
X125609161Y-63172907D01*
X124916595Y-62885328D01*
X124166695Y-62884674D01*
X123560859Y-63135000D01*
X119380005Y-63135000D01*
X119380000Y-63134999D01*
X118754312Y-63259457D01*
X118223880Y-63613880D01*
X115048880Y-66788880D01*
X114694457Y-67319312D01*
X114569999Y-67945000D01*
X114570000Y-67945005D01*
X114570000Y-72982560D01*
X112665000Y-72982560D01*
X112429683Y-73026838D01*
X112213559Y-73165910D01*
X112068569Y-73378110D01*
X112017560Y-73630000D01*
X109930000Y-73630000D01*
X109930000Y-62573599D01*
X110024699Y-62573599D01*
X110288281Y-63211515D01*
X110775918Y-63700004D01*
X111413373Y-63964699D01*
X112103599Y-63965301D01*
X112741515Y-63701719D01*
X113230004Y-63214082D01*
X113494699Y-62576627D01*
X113494701Y-62573599D01*
X154474699Y-62573599D01*
X154738281Y-63211515D01*
X155225918Y-63700004D01*
X155863373Y-63964699D01*
X156553599Y-63965301D01*
X157191515Y-63701719D01*
X157680004Y-63214082D01*
X157944699Y-62576627D01*
X157945301Y-61886401D01*
X157681719Y-61248485D01*
X157194082Y-60759996D01*
X156556627Y-60495301D01*
X155866401Y-60494699D01*
X155228485Y-60758281D01*
X154739996Y-61245918D01*
X154475301Y-61883373D01*
X154474699Y-62573599D01*
X113494701Y-62573599D01*
X113495301Y-61886401D01*
X113231719Y-61248485D01*
X112744082Y-60759996D01*
X112106627Y-60495301D01*
X111416401Y-60494699D01*
X110778485Y-60758281D01*
X110289996Y-61245918D01*
X110025301Y-61883373D01*
X110024699Y-62573599D01*
X109930000Y-62573599D01*
X109930000Y-60400000D01*
X158040000Y-60400000D01*
X158040000Y-108510000D01*
X158040000Y-108510000D01*
G37*
X158040000Y-108510000D02*
X109930000Y-108510000D01*
X109930000Y-107023599D01*
X110024699Y-107023599D01*
X110288281Y-107661515D01*
X110775918Y-108150004D01*
X111413373Y-108414699D01*
X112103599Y-108415301D01*
X112741515Y-108151719D01*
X113230004Y-107664082D01*
X113494699Y-107026627D01*
X113495301Y-106336401D01*
X113231719Y-105698485D01*
X112744082Y-105209996D01*
X112106627Y-104945301D01*
X111416401Y-104944699D01*
X110778485Y-105208281D01*
X110289996Y-105695918D01*
X110025301Y-106333373D01*
X110024699Y-107023599D01*
X109930000Y-107023599D01*
X109930000Y-103055167D01*
X115269838Y-103055167D01*
X115411883Y-103398943D01*
X115674673Y-103662192D01*
X116018201Y-103804838D01*
X116065077Y-103804879D01*
X118272560Y-106012362D01*
X118272560Y-106895000D01*
X118316838Y-107130317D01*
X118455910Y-107346441D01*
X118668110Y-107491431D01*
X118920000Y-107542440D01*
X120920000Y-107542440D01*
X121155317Y-107498162D01*
X121371441Y-107359090D01*
X121516431Y-107146890D01*
X121567440Y-106895000D01*
X121567440Y-105195000D01*
X121523162Y-104959683D01*
X121384090Y-104743559D01*
X121171890Y-104598569D01*
X120920000Y-104547560D01*
X118957362Y-104547560D01*
X117140122Y-102730320D01*
X117140162Y-102684833D01*
X117072365Y-102520750D01*
X118285000Y-102520750D01*
X118285000Y-103211310D01*
X118381673Y-103444699D01*
X118560302Y-103623327D01*
X118793691Y-103720000D01*
X119634250Y-103720000D01*
X119793000Y-103561250D01*
X119793000Y-102362000D01*
X120047000Y-102362000D01*
X120047000Y-103561250D01*
X120205750Y-103720000D01*
X121046309Y-103720000D01*
X121279698Y-103623327D01*
X121458327Y-103444699D01*
X121555000Y-103211310D01*
X121555000Y-102520750D01*
X121396250Y-102362000D01*
X120047000Y-102362000D01*
X119793000Y-102362000D01*
X118443750Y-102362000D01*
X118285000Y-102520750D01*
X117072365Y-102520750D01*
X116998117Y-102341057D01*
X116735327Y-102077808D01*
X116391799Y-101935162D01*
X116019833Y-101934838D01*
X115676057Y-102076883D01*
X115412808Y-102339673D01*
X115270162Y-102683201D01*
X115269838Y-103055167D01*
X109930000Y-103055167D01*
X109930000Y-101258690D01*
X118285000Y-101258690D01*
X118285000Y-101949250D01*
X118443750Y-102108000D01*
X119793000Y-102108000D01*
X119793000Y-100908750D01*
X120047000Y-100908750D01*
X120047000Y-102108000D01*
X121396250Y-102108000D01*
X121555000Y-101949250D01*
X121555000Y-101385000D01*
X122272560Y-101385000D01*
X122272560Y-103085000D01*
X122316838Y-103320317D01*
X122455910Y-103536441D01*
X122668110Y-103681431D01*
X122920000Y-103732440D01*
X123160000Y-103732440D01*
X123160000Y-104547560D01*
X122920000Y-104547560D01*
X122684683Y-104591838D01*
X122468559Y-104730910D01*
X122323569Y-104943110D01*
X122272560Y-105195000D01*
X122272560Y-106895000D01*
X122316838Y-107130317D01*
X122455910Y-107346441D01*
X122668110Y-107491431D01*
X122920000Y-107542440D01*
X124920000Y-107542440D01*
X125155317Y-107498162D01*
X125371441Y-107359090D01*
X125516431Y-107146890D01*
X125541398Y-107023599D01*
X154474699Y-107023599D01*
X154738281Y-107661515D01*
X155225918Y-108150004D01*
X155863373Y-108414699D01*
X156553599Y-108415301D01*
X157191515Y-108151719D01*
X157680004Y-107664082D01*
X157944699Y-107026627D01*
X157945301Y-106336401D01*
X157681719Y-105698485D01*
X157194082Y-105209996D01*
X156556627Y-104945301D01*
X155866401Y-104944699D01*
X155228485Y-105208281D01*
X154739996Y-105695918D01*
X154475301Y-106333373D01*
X154474699Y-107023599D01*
X125541398Y-107023599D01*
X125567440Y-106895000D01*
X125567440Y-105195000D01*
X125523162Y-104959683D01*
X125384090Y-104743559D01*
X125171890Y-104598569D01*
X124920000Y-104547560D01*
X124680000Y-104547560D01*
X124680000Y-103732440D01*
X124920000Y-103732440D01*
X125155317Y-103688162D01*
X125371441Y-103549090D01*
X125516431Y-103336890D01*
X125567440Y-103085000D01*
X125567440Y-101385000D01*
X125523162Y-101149683D01*
X125384090Y-100933559D01*
X125171890Y-100788569D01*
X124920000Y-100737560D01*
X122920000Y-100737560D01*
X122684683Y-100781838D01*
X122468559Y-100920910D01*
X122323569Y-101133110D01*
X122272560Y-101385000D01*
X121555000Y-101385000D01*
X121555000Y-101258690D01*
X121458327Y-101025301D01*
X121279698Y-100846673D01*
X121046309Y-100750000D01*
X120205750Y-100750000D01*
X120047000Y-100908750D01*
X119793000Y-100908750D01*
X119634250Y-100750000D01*
X118793691Y-100750000D01*
X118560302Y-100846673D01*
X118381673Y-101025301D01*
X118285000Y-101258690D01*
X109930000Y-101258690D01*
X109930000Y-73630000D01*
X112017560Y-73630000D01*
X112017560Y-76230000D01*
X112061838Y-76465317D01*
X112200910Y-76681441D01*
X112413110Y-76826431D01*
X112665000Y-76877440D01*
X112905000Y-76877440D01*
X112905000Y-79332560D01*
X112665000Y-79332560D01*
X112429683Y-79376838D01*
X112213559Y-79515910D01*
X112068569Y-79728110D01*
X112017560Y-79980000D01*
X112017560Y-82580000D01*
X112061838Y-82815317D01*
X112200910Y-83031441D01*
X112413110Y-83176431D01*
X112665000Y-83227440D01*
X112905000Y-83227440D01*
X112905000Y-85682560D01*
X112665000Y-85682560D01*
X112429683Y-85726838D01*
X112213559Y-85865910D01*
X112068569Y-86078110D01*
X112017560Y-86330000D01*
X112017560Y-88930000D01*
X112061838Y-89165317D01*
X112200910Y-89381441D01*
X112413110Y-89526431D01*
X112665000Y-89577440D01*
X112905000Y-89577440D01*
X112905000Y-93937560D01*
X112665000Y-93937560D01*
X112429683Y-93981838D01*
X112213559Y-94120910D01*
X112068569Y-94333110D01*
X112017560Y-94585000D01*
X112017560Y-97185000D01*
X112061838Y-97420317D01*
X112200910Y-97636441D01*
X112413110Y-97781431D01*
X112665000Y-97832440D01*
X112905000Y-97832440D01*
X112905000Y-98425000D01*
X112962852Y-98715839D01*
X113127599Y-98962401D01*
X113762599Y-99597401D01*
X114009161Y-99762148D01*
X114300000Y-99820000D01*
X128270000Y-99820000D01*
X128560839Y-99762148D01*
X128807401Y-99597401D01*
X132142362Y-96262440D01*
X134015000Y-96262440D01*
X134250317Y-96218162D01*
X134466441Y-96079090D01*
X134611431Y-95866890D01*
X134662440Y-95615000D01*
X134662440Y-95375000D01*
X134940198Y-95375000D01*
X135765000Y-96199802D01*
X135765000Y-102007560D01*
X135675000Y-102007560D01*
X135439683Y-102051838D01*
X135223559Y-102190910D01*
X135078569Y-102403110D01*
X135027560Y-102655000D01*
X135027560Y-104355000D01*
X135071838Y-104590317D01*
X135210910Y-104806441D01*
X135423110Y-104951431D01*
X135675000Y-105002440D01*
X137375000Y-105002440D01*
X137610317Y-104958162D01*
X137826441Y-104819090D01*
X137971431Y-104606890D01*
X137985086Y-104539459D01*
X138014946Y-104584147D01*
X138496715Y-104906054D01*
X139065000Y-105019093D01*
X139633285Y-104906054D01*
X140115054Y-104584147D01*
X140342702Y-104243447D01*
X140409817Y-104386358D01*
X140838076Y-104776645D01*
X141248110Y-104946476D01*
X141478000Y-104825155D01*
X141478000Y-103632000D01*
X141732000Y-103632000D01*
X141732000Y-104825155D01*
X141961890Y-104946476D01*
X142371924Y-104776645D01*
X142800183Y-104386358D01*
X143046486Y-103861892D01*
X142925819Y-103632000D01*
X141732000Y-103632000D01*
X141478000Y-103632000D01*
X141458000Y-103632000D01*
X141458000Y-103378000D01*
X141478000Y-103378000D01*
X141478000Y-102184845D01*
X141732000Y-102184845D01*
X141732000Y-103378000D01*
X142925819Y-103378000D01*
X143046486Y-103148108D01*
X142800183Y-102623642D01*
X142371924Y-102233355D01*
X141961890Y-102063524D01*
X141732000Y-102184845D01*
X141478000Y-102184845D01*
X141248110Y-102063524D01*
X140838076Y-102233355D01*
X140409817Y-102623642D01*
X140342702Y-102766553D01*
X140115054Y-102425853D01*
X139825000Y-102232046D01*
X139825000Y-101279802D01*
X140649802Y-100455000D01*
X150495000Y-100455000D01*
X150785839Y-100397148D01*
X151032401Y-100232401D01*
X152302401Y-98962401D01*
X152467148Y-98715840D01*
X152525000Y-98425000D01*
X152525000Y-97643707D01*
X152921120Y-97379029D01*
X153048219Y-97188812D01*
X153238683Y-97430922D01*
X153796645Y-97744144D01*
X153924566Y-97775124D01*
X154178000Y-97655777D01*
X154178000Y-96012000D01*
X154432000Y-96012000D01*
X154432000Y-97655777D01*
X154685434Y-97775124D01*
X154813355Y-97744144D01*
X155371317Y-97430922D01*
X155766942Y-96928020D01*
X155940000Y-96312000D01*
X155940000Y-96012000D01*
X154432000Y-96012000D01*
X154178000Y-96012000D01*
X154158000Y-96012000D01*
X154158000Y-95758000D01*
X154178000Y-95758000D01*
X154178000Y-94114223D01*
X154432000Y-94114223D01*
X154432000Y-95758000D01*
X155940000Y-95758000D01*
X155940000Y-95458000D01*
X155766942Y-94841980D01*
X155371317Y-94339078D01*
X154813355Y-94025856D01*
X154685434Y-93994876D01*
X154432000Y-94114223D01*
X154178000Y-94114223D01*
X153924566Y-93994876D01*
X153796645Y-94025856D01*
X153238683Y-94339078D01*
X153048219Y-94581188D01*
X152921120Y-94390971D01*
X152390687Y-94036548D01*
X151765000Y-93912091D01*
X151139313Y-94036548D01*
X150780808Y-94276093D01*
X150689090Y-94133559D01*
X150476890Y-93988569D01*
X150225000Y-93937560D01*
X149985000Y-93937560D01*
X149985000Y-89577440D01*
X150225000Y-89577440D01*
X150460317Y-89533162D01*
X150676441Y-89394090D01*
X150781951Y-89239671D01*
X151139313Y-89478452D01*
X151765000Y-89602909D01*
X152390687Y-89478452D01*
X152921120Y-89124029D01*
X153048219Y-88933812D01*
X153238683Y-89175922D01*
X153796645Y-89489144D01*
X153924566Y-89520124D01*
X154178000Y-89400777D01*
X154178000Y-87757000D01*
X154432000Y-87757000D01*
X154432000Y-89400777D01*
X154685434Y-89520124D01*
X154813355Y-89489144D01*
X155371317Y-89175922D01*
X155766942Y-88673020D01*
X155940000Y-88057000D01*
X155940000Y-87757000D01*
X154432000Y-87757000D01*
X154178000Y-87757000D01*
X154158000Y-87757000D01*
X154158000Y-87503000D01*
X154178000Y-87503000D01*
X154178000Y-85859223D01*
X154432000Y-85859223D01*
X154432000Y-87503000D01*
X155940000Y-87503000D01*
X155940000Y-87203000D01*
X155766942Y-86586980D01*
X155371317Y-86084078D01*
X154813355Y-85770856D01*
X154685434Y-85739876D01*
X154432000Y-85859223D01*
X154178000Y-85859223D01*
X153924566Y-85739876D01*
X153796645Y-85770856D01*
X153238683Y-86084078D01*
X153048219Y-86326188D01*
X152921120Y-86135971D01*
X152390687Y-85781548D01*
X151765000Y-85657091D01*
X151139313Y-85781548D01*
X150780808Y-86021093D01*
X150689090Y-85878559D01*
X150476890Y-85733569D01*
X150225000Y-85682560D01*
X149985000Y-85682560D01*
X149985000Y-83227440D01*
X150225000Y-83227440D01*
X150460317Y-83183162D01*
X150676441Y-83044090D01*
X150781951Y-82889671D01*
X151139313Y-83128452D01*
X151765000Y-83252909D01*
X152390687Y-83128452D01*
X152921120Y-82774029D01*
X153048219Y-82583812D01*
X153238683Y-82825922D01*
X153796645Y-83139144D01*
X153924566Y-83170124D01*
X154178000Y-83050777D01*
X154178000Y-81407000D01*
X154432000Y-81407000D01*
X154432000Y-83050777D01*
X154685434Y-83170124D01*
X154813355Y-83139144D01*
X155371317Y-82825922D01*
X155766942Y-82323020D01*
X155940000Y-81707000D01*
X155940000Y-81407000D01*
X154432000Y-81407000D01*
X154178000Y-81407000D01*
X154158000Y-81407000D01*
X154158000Y-81153000D01*
X154178000Y-81153000D01*
X154178000Y-79509223D01*
X154432000Y-79509223D01*
X154432000Y-81153000D01*
X155940000Y-81153000D01*
X155940000Y-80853000D01*
X155766942Y-80236980D01*
X155371317Y-79734078D01*
X154813355Y-79420856D01*
X154685434Y-79389876D01*
X154432000Y-79509223D01*
X154178000Y-79509223D01*
X153924566Y-79389876D01*
X153796645Y-79420856D01*
X153400000Y-79643520D01*
X153400000Y-79375000D01*
X153275543Y-78749313D01*
X153275543Y-78749312D01*
X153133581Y-78536851D01*
X152921120Y-78218880D01*
X152921117Y-78218878D01*
X151651120Y-76948880D01*
X151504885Y-76851169D01*
X151765000Y-76902909D01*
X152390687Y-76778452D01*
X152921120Y-76424029D01*
X153048219Y-76233812D01*
X153238683Y-76475922D01*
X153796645Y-76789144D01*
X153924566Y-76820124D01*
X154178000Y-76700777D01*
X154178000Y-75057000D01*
X154432000Y-75057000D01*
X154432000Y-76700777D01*
X154685434Y-76820124D01*
X154813355Y-76789144D01*
X155371317Y-76475922D01*
X155766942Y-75973020D01*
X155940000Y-75357000D01*
X155940000Y-75057000D01*
X154432000Y-75057000D01*
X154178000Y-75057000D01*
X154158000Y-75057000D01*
X154158000Y-74803000D01*
X154178000Y-74803000D01*
X154178000Y-73159223D01*
X154432000Y-73159223D01*
X154432000Y-74803000D01*
X155940000Y-74803000D01*
X155940000Y-74503000D01*
X155766942Y-73886980D01*
X155371317Y-73384078D01*
X154813355Y-73070856D01*
X154685434Y-73039876D01*
X154432000Y-73159223D01*
X154178000Y-73159223D01*
X153924566Y-73039876D01*
X153796645Y-73070856D01*
X153400000Y-73293520D01*
X153400000Y-71755005D01*
X153400001Y-71755000D01*
X153275543Y-71129312D01*
X152921120Y-70598880D01*
X149746120Y-67423880D01*
X149215688Y-67069457D01*
X148590000Y-66944999D01*
X148589995Y-66945000D01*
X141647240Y-66945000D01*
X139759750Y-65057510D01*
X139759751Y-65055750D01*
X140990000Y-65055750D01*
X140990000Y-66146310D01*
X141086673Y-66379699D01*
X141265302Y-66558327D01*
X141498691Y-66655000D01*
X142589250Y-66655000D01*
X142748000Y-66496250D01*
X142748000Y-64897000D01*
X143002000Y-64897000D01*
X143002000Y-66496250D01*
X143160750Y-66655000D01*
X144251309Y-66655000D01*
X144484698Y-66558327D01*
X144663327Y-66379699D01*
X144760000Y-66146310D01*
X144760000Y-65055750D01*
X144601250Y-64897000D01*
X143002000Y-64897000D01*
X142748000Y-64897000D01*
X141148750Y-64897000D01*
X140990000Y-65055750D01*
X139759751Y-65055750D01*
X139760326Y-64396695D01*
X139473957Y-63703628D01*
X139164560Y-63393690D01*
X140990000Y-63393690D01*
X140990000Y-64484250D01*
X141148750Y-64643000D01*
X142748000Y-64643000D01*
X142748000Y-63043750D01*
X143002000Y-63043750D01*
X143002000Y-64643000D01*
X144601250Y-64643000D01*
X144760000Y-64484250D01*
X144760000Y-63393690D01*
X144663327Y-63160301D01*
X144484698Y-62981673D01*
X144251309Y-62885000D01*
X143160750Y-62885000D01*
X143002000Y-63043750D01*
X142748000Y-63043750D01*
X142589250Y-62885000D01*
X141498691Y-62885000D01*
X141265302Y-62981673D01*
X141086673Y-63160301D01*
X140990000Y-63393690D01*
X139164560Y-63393690D01*
X138944161Y-63172907D01*
X138251595Y-62885328D01*
X137501695Y-62884674D01*
X136808628Y-63171043D01*
X136277907Y-63700839D01*
X135990328Y-64393405D01*
X135989674Y-65143305D01*
X136240000Y-65749141D01*
X136240000Y-71834995D01*
X136239999Y-71835000D01*
X136364457Y-72460688D01*
X136718880Y-72991120D01*
X142988880Y-79261120D01*
X143519312Y-79615543D01*
X144145000Y-79740001D01*
X144145005Y-79740000D01*
X147626161Y-79740000D01*
X147577560Y-79980000D01*
X147577560Y-82580000D01*
X147621838Y-82815317D01*
X147760910Y-83031441D01*
X147973110Y-83176431D01*
X148225000Y-83227440D01*
X148465000Y-83227440D01*
X148465000Y-85682560D01*
X148225000Y-85682560D01*
X147989683Y-85726838D01*
X147773559Y-85865910D01*
X147628569Y-86078110D01*
X147577560Y-86330000D01*
X147577560Y-88930000D01*
X147621838Y-89165317D01*
X147760910Y-89381441D01*
X147973110Y-89526431D01*
X148225000Y-89577440D01*
X148465000Y-89577440D01*
X148465000Y-93937560D01*
X148225000Y-93937560D01*
X147989683Y-93981838D01*
X147773559Y-94120910D01*
X147628569Y-94333110D01*
X147577560Y-94585000D01*
X147577560Y-95125000D01*
X136839802Y-95125000D01*
X135792401Y-94077599D01*
X135545839Y-93912852D01*
X135255000Y-93855000D01*
X134662440Y-93855000D01*
X134662440Y-93615000D01*
X134618162Y-93379683D01*
X134479090Y-93163559D01*
X134324671Y-93058049D01*
X134563452Y-92700687D01*
X134687909Y-92075000D01*
X134563452Y-91449313D01*
X134209029Y-90918880D01*
X134018812Y-90791781D01*
X134260922Y-90601317D01*
X134574144Y-90043355D01*
X134605124Y-89915434D01*
X134485777Y-89662000D01*
X132842000Y-89662000D01*
X132842000Y-89682000D01*
X132588000Y-89682000D01*
X132588000Y-89662000D01*
X130944223Y-89662000D01*
X130824876Y-89915434D01*
X130855856Y-90043355D01*
X131169078Y-90601317D01*
X131411188Y-90791781D01*
X131220971Y-90918880D01*
X130866548Y-91449313D01*
X130742091Y-92075000D01*
X130866548Y-92700687D01*
X131106093Y-93059192D01*
X130963559Y-93150910D01*
X130818569Y-93363110D01*
X130767560Y-93615000D01*
X130767560Y-95487638D01*
X127955198Y-98300000D01*
X114614802Y-98300000D01*
X114425000Y-98110198D01*
X114425000Y-97832440D01*
X114665000Y-97832440D01*
X114900317Y-97788162D01*
X115116441Y-97649090D01*
X115221951Y-97494671D01*
X115579313Y-97733452D01*
X116205000Y-97857909D01*
X116830687Y-97733452D01*
X117361120Y-97379029D01*
X117488219Y-97188812D01*
X117678683Y-97430922D01*
X118236645Y-97744144D01*
X118364566Y-97775124D01*
X118618000Y-97655777D01*
X118618000Y-96012000D01*
X118872000Y-96012000D01*
X118872000Y-97655777D01*
X119125434Y-97775124D01*
X119253355Y-97744144D01*
X119811317Y-97430922D01*
X120206942Y-96928020D01*
X120380000Y-96312000D01*
X120380000Y-96012000D01*
X118872000Y-96012000D01*
X118618000Y-96012000D01*
X118598000Y-96012000D01*
X118598000Y-95758000D01*
X118618000Y-95758000D01*
X118618000Y-94114223D01*
X118872000Y-94114223D01*
X118872000Y-95758000D01*
X120380000Y-95758000D01*
X120380000Y-95458000D01*
X120206942Y-94841980D01*
X119811317Y-94339078D01*
X119253355Y-94025856D01*
X119125434Y-93994876D01*
X118872000Y-94114223D01*
X118618000Y-94114223D01*
X118364566Y-93994876D01*
X118236645Y-94025856D01*
X117678683Y-94339078D01*
X117488219Y-94581188D01*
X117361120Y-94390971D01*
X116830687Y-94036548D01*
X116205000Y-93912091D01*
X115579313Y-94036548D01*
X115220808Y-94276093D01*
X115129090Y-94133559D01*
X114916890Y-93988569D01*
X114665000Y-93937560D01*
X114425000Y-93937560D01*
X114425000Y-89577440D01*
X114665000Y-89577440D01*
X114900317Y-89533162D01*
X115116441Y-89394090D01*
X115221951Y-89239671D01*
X115579313Y-89478452D01*
X116205000Y-89602909D01*
X116830687Y-89478452D01*
X117361120Y-89124029D01*
X117488219Y-88933812D01*
X117678683Y-89175922D01*
X118236645Y-89489144D01*
X118364566Y-89520124D01*
X118618000Y-89400777D01*
X118618000Y-87757000D01*
X118872000Y-87757000D01*
X118872000Y-89400777D01*
X119125434Y-89520124D01*
X119253355Y-89489144D01*
X119811317Y-89175922D01*
X119828117Y-89154566D01*
X130824876Y-89154566D01*
X130944223Y-89408000D01*
X132588000Y-89408000D01*
X132588000Y-87900000D01*
X132842000Y-87900000D01*
X132842000Y-89408000D01*
X134485777Y-89408000D01*
X134605124Y-89154566D01*
X134574144Y-89026645D01*
X134260922Y-88468683D01*
X133758020Y-88073058D01*
X133142000Y-87900000D01*
X132842000Y-87900000D01*
X132588000Y-87900000D01*
X132288000Y-87900000D01*
X131671980Y-88073058D01*
X131169078Y-88468683D01*
X130855856Y-89026645D01*
X130824876Y-89154566D01*
X119828117Y-89154566D01*
X120206942Y-88673020D01*
X120380000Y-88057000D01*
X120380000Y-87757000D01*
X118872000Y-87757000D01*
X118618000Y-87757000D01*
X118598000Y-87757000D01*
X118598000Y-87503000D01*
X118618000Y-87503000D01*
X118618000Y-85859223D01*
X118872000Y-85859223D01*
X118872000Y-87503000D01*
X120380000Y-87503000D01*
X120380000Y-87203000D01*
X120206942Y-86586980D01*
X119811317Y-86084078D01*
X119253355Y-85770856D01*
X119125434Y-85739876D01*
X118872000Y-85859223D01*
X118618000Y-85859223D01*
X118364566Y-85739876D01*
X118236645Y-85770856D01*
X117678683Y-86084078D01*
X117488219Y-86326188D01*
X117361120Y-86135971D01*
X116830687Y-85781548D01*
X116205000Y-85657091D01*
X115579313Y-85781548D01*
X115220808Y-86021093D01*
X115129090Y-85878559D01*
X114916890Y-85733569D01*
X114665000Y-85682560D01*
X114425000Y-85682560D01*
X114425000Y-84163599D01*
X130344699Y-84163599D01*
X130608281Y-84801515D01*
X131095918Y-85290004D01*
X131733373Y-85554699D01*
X132423599Y-85555301D01*
X133061515Y-85291719D01*
X133550004Y-84804082D01*
X133814699Y-84166627D01*
X133815301Y-83476401D01*
X133551719Y-82838485D01*
X133064082Y-82349996D01*
X132426627Y-82085301D01*
X131736401Y-82084699D01*
X131098485Y-82348281D01*
X130609996Y-82835918D01*
X130345301Y-83473373D01*
X130344699Y-84163599D01*
X114425000Y-84163599D01*
X114425000Y-83227440D01*
X114665000Y-83227440D01*
X114900317Y-83183162D01*
X115116441Y-83044090D01*
X115221951Y-82889671D01*
X115579313Y-83128452D01*
X116205000Y-83252909D01*
X116830687Y-83128452D01*
X117361120Y-82774029D01*
X117488219Y-82583812D01*
X117678683Y-82825922D01*
X118236645Y-83139144D01*
X118364566Y-83170124D01*
X118618000Y-83050777D01*
X118618000Y-81407000D01*
X118872000Y-81407000D01*
X118872000Y-83050777D01*
X119125434Y-83170124D01*
X119253355Y-83139144D01*
X119811317Y-82825922D01*
X120206942Y-82323020D01*
X120380000Y-81707000D01*
X120380000Y-81407000D01*
X118872000Y-81407000D01*
X118618000Y-81407000D01*
X118598000Y-81407000D01*
X118598000Y-81153000D01*
X118618000Y-81153000D01*
X118618000Y-81133000D01*
X118872000Y-81133000D01*
X118872000Y-81153000D01*
X120380000Y-81153000D01*
X120380000Y-80853000D01*
X120206942Y-80236980D01*
X119815976Y-79740000D01*
X120649995Y-79740000D01*
X120650000Y-79740001D01*
X121275688Y-79615543D01*
X121806120Y-79261120D01*
X125696117Y-75371122D01*
X125696120Y-75371120D01*
X125906008Y-75057000D01*
X126050543Y-74840688D01*
X126175001Y-74215000D01*
X126175000Y-74214995D01*
X126175000Y-65747871D01*
X126424672Y-65146595D01*
X126424751Y-65055750D01*
X127655000Y-65055750D01*
X127655000Y-66146310D01*
X127751673Y-66379699D01*
X127930302Y-66558327D01*
X128163691Y-66655000D01*
X129254250Y-66655000D01*
X129413000Y-66496250D01*
X129413000Y-64897000D01*
X129667000Y-64897000D01*
X129667000Y-66496250D01*
X129825750Y-66655000D01*
X130916309Y-66655000D01*
X131149698Y-66558327D01*
X131328327Y-66379699D01*
X131425000Y-66146310D01*
X131425000Y-65055750D01*
X131266250Y-64897000D01*
X129667000Y-64897000D01*
X129413000Y-64897000D01*
X127813750Y-64897000D01*
X127655000Y-65055750D01*
X126424751Y-65055750D01*
X126425326Y-64396695D01*
X126138957Y-63703628D01*
X125829560Y-63393690D01*
X127655000Y-63393690D01*
X127655000Y-64484250D01*
X127813750Y-64643000D01*
X129413000Y-64643000D01*
X129413000Y-63043750D01*
X129667000Y-63043750D01*
X129667000Y-64643000D01*
X131266250Y-64643000D01*
X131425000Y-64484250D01*
X131425000Y-63393690D01*
X131328327Y-63160301D01*
X131149698Y-62981673D01*
X130916309Y-62885000D01*
X129825750Y-62885000D01*
X129667000Y-63043750D01*
X129413000Y-63043750D01*
X129254250Y-62885000D01*
X128163691Y-62885000D01*
X127930302Y-62981673D01*
X127751673Y-63160301D01*
X127655000Y-63393690D01*
X125829560Y-63393690D01*
X125609161Y-63172907D01*
X124916595Y-62885328D01*
X124166695Y-62884674D01*
X123560859Y-63135000D01*
X119380005Y-63135000D01*
X119380000Y-63134999D01*
X118754312Y-63259457D01*
X118223880Y-63613880D01*
X115048880Y-66788880D01*
X114694457Y-67319312D01*
X114569999Y-67945000D01*
X114570000Y-67945005D01*
X114570000Y-72982560D01*
X112665000Y-72982560D01*
X112429683Y-73026838D01*
X112213559Y-73165910D01*
X112068569Y-73378110D01*
X112017560Y-73630000D01*
X109930000Y-73630000D01*
X109930000Y-62573599D01*
X110024699Y-62573599D01*
X110288281Y-63211515D01*
X110775918Y-63700004D01*
X111413373Y-63964699D01*
X112103599Y-63965301D01*
X112741515Y-63701719D01*
X113230004Y-63214082D01*
X113494699Y-62576627D01*
X113494701Y-62573599D01*
X154474699Y-62573599D01*
X154738281Y-63211515D01*
X155225918Y-63700004D01*
X155863373Y-63964699D01*
X156553599Y-63965301D01*
X157191515Y-63701719D01*
X157680004Y-63214082D01*
X157944699Y-62576627D01*
X157945301Y-61886401D01*
X157681719Y-61248485D01*
X157194082Y-60759996D01*
X156556627Y-60495301D01*
X155866401Y-60494699D01*
X155228485Y-60758281D01*
X154739996Y-61245918D01*
X154475301Y-61883373D01*
X154474699Y-62573599D01*
X113494701Y-62573599D01*
X113495301Y-61886401D01*
X113231719Y-61248485D01*
X112744082Y-60759996D01*
X112106627Y-60495301D01*
X111416401Y-60494699D01*
X110778485Y-60758281D01*
X110289996Y-61245918D01*
X110025301Y-61883373D01*
X110024699Y-62573599D01*
X109930000Y-62573599D01*
X109930000Y-60400000D01*
X158040000Y-60400000D01*
X158040000Y-108510000D01*
G36*
X122905000Y-73537761D02*
X119972760Y-76470000D01*
X119815976Y-76470000D01*
X120206942Y-75973020D01*
X120380000Y-75357000D01*
X120380000Y-75057000D01*
X118872000Y-75057000D01*
X118872000Y-75077000D01*
X118618000Y-75077000D01*
X118618000Y-75057000D01*
X118598000Y-75057000D01*
X118598000Y-74803000D01*
X118618000Y-74803000D01*
X118618000Y-73159223D01*
X118872000Y-73159223D01*
X118872000Y-74803000D01*
X120380000Y-74803000D01*
X120380000Y-74503000D01*
X120206942Y-73886980D01*
X119811317Y-73384078D01*
X119253355Y-73070856D01*
X119125434Y-73039876D01*
X118872000Y-73159223D01*
X118618000Y-73159223D01*
X118364566Y-73039876D01*
X118236645Y-73070856D01*
X117840000Y-73293520D01*
X117840000Y-68622240D01*
X120057240Y-66405000D01*
X122905000Y-66405000D01*
X122905000Y-73537761D01*
X122905000Y-73537761D01*
G37*
X122905000Y-73537761D02*
X119972760Y-76470000D01*
X119815976Y-76470000D01*
X120206942Y-75973020D01*
X120380000Y-75357000D01*
X120380000Y-75057000D01*
X118872000Y-75057000D01*
X118872000Y-75077000D01*
X118618000Y-75077000D01*
X118618000Y-75057000D01*
X118598000Y-75057000D01*
X118598000Y-74803000D01*
X118618000Y-74803000D01*
X118618000Y-73159223D01*
X118872000Y-73159223D01*
X118872000Y-74803000D01*
X120380000Y-74803000D01*
X120380000Y-74503000D01*
X120206942Y-73886980D01*
X119811317Y-73384078D01*
X119253355Y-73070856D01*
X119125434Y-73039876D01*
X118872000Y-73159223D01*
X118618000Y-73159223D01*
X118364566Y-73039876D01*
X118236645Y-73070856D01*
X117840000Y-73293520D01*
X117840000Y-68622240D01*
X120057240Y-66405000D01*
X122905000Y-66405000D01*
X122905000Y-73537761D01*
M02*
