M48
;DRILL file {KiCad 4.0.7} date Saturday, June 09, 2018 'PMt' 12:28:15 PM
;FORMAT={-:-/ absolute / inch / decimal}
FMAT,2
INCH,TZ
T1C0.016
T2C0.039
T3C0.047
T4C0.051
%
G90
G05
M72
T1
X4.575Y-4.05
T2
X5.375Y-4.075
X5.475Y-4.075
X5.575Y-4.075
T3
X4.475Y-2.95
X4.475Y-3.2
X4.475Y-3.45
X4.475Y-3.775
X4.575Y-2.95
X4.575Y-3.2
X4.575Y-3.45
X4.575Y-3.775
X4.675Y-2.95
X4.675Y-3.2
X4.675Y-3.45
X4.675Y-3.775
X5.225Y-3.525
X5.225Y-3.625
X5.225Y-3.725
X5.875Y-2.95
X5.875Y-3.2
X5.875Y-3.45
X5.875Y-3.775
X5.975Y-2.95
X5.975Y-3.2
X5.975Y-3.45
X5.975Y-3.775
X6.075Y-2.95
X6.075Y-3.2
X6.075Y-3.45
X6.075Y-3.775
T4
X4.9031Y-2.55
X5.1Y-2.55
X5.4281Y-2.55
X5.625Y-2.55
T0
M30
