G04 #@! TF.FileFunction,Legend,Bot*
%FSLAX46Y46*%
G04 Gerber Fmt 4.6, Leading zero omitted, Abs format (unit mm)*
G04 Created by KiCad (PCBNEW 4.0.7) date Tuesday, March 06, 2018 'PMt' 10:16:58 PM*
%MOMM*%
%LPD*%
G01*
G04 APERTURE LIST*
%ADD10C,0.100000*%
%ADD11C,0.120000*%
%ADD12C,0.150000*%
G04 APERTURE END LIST*
D10*
D11*
X127905000Y-69015000D02*
X129905000Y-69015000D01*
X129905000Y-66875000D02*
X127905000Y-66875000D01*
X119650000Y-69015000D02*
X121650000Y-69015000D01*
X121650000Y-66875000D02*
X119650000Y-66875000D01*
X129905000Y-75315000D02*
X127905000Y-75315000D01*
X127905000Y-73275000D02*
X129905000Y-73275000D01*
X137430000Y-72640000D02*
X139430000Y-72640000D01*
X139430000Y-74680000D02*
X137430000Y-74680000D01*
X146320000Y-69015000D02*
X148320000Y-69015000D01*
X148320000Y-66875000D02*
X146320000Y-66875000D01*
X137430000Y-69015000D02*
X139430000Y-69015000D01*
X139430000Y-66875000D02*
X137430000Y-66875000D01*
X136795000Y-100765000D02*
X138795000Y-100765000D01*
X138795000Y-98625000D02*
X136795000Y-98625000D01*
X129905000Y-95635000D02*
X127905000Y-95635000D01*
X127905000Y-93595000D02*
X129905000Y-93595000D01*
X136795000Y-93595000D02*
X138795000Y-93595000D01*
X138795000Y-95635000D02*
X136795000Y-95635000D01*
X121650000Y-99895000D02*
X119650000Y-99895000D01*
X119650000Y-102035000D02*
X121650000Y-102035000D01*
X129905000Y-99895000D02*
X127905000Y-99895000D01*
X127905000Y-102035000D02*
X129905000Y-102035000D01*
X145685000Y-100765000D02*
X147685000Y-100765000D01*
X147685000Y-98625000D02*
X145685000Y-98625000D01*
X119650000Y-73275000D02*
X121650000Y-73275000D01*
X121650000Y-75315000D02*
X119650000Y-75315000D01*
X145685000Y-72640000D02*
X147685000Y-72640000D01*
X147685000Y-74680000D02*
X145685000Y-74680000D01*
X121650000Y-95635000D02*
X119650000Y-95635000D01*
X119650000Y-93595000D02*
X121650000Y-93595000D01*
X145685000Y-93595000D02*
X147685000Y-93595000D01*
X147685000Y-95635000D02*
X145685000Y-95635000D01*
D12*
X129071666Y-66547381D02*
X129405000Y-66071190D01*
X129643095Y-66547381D02*
X129643095Y-65547381D01*
X129262142Y-65547381D01*
X129166904Y-65595000D01*
X129119285Y-65642619D01*
X129071666Y-65737857D01*
X129071666Y-65880714D01*
X129119285Y-65975952D01*
X129166904Y-66023571D01*
X129262142Y-66071190D01*
X129643095Y-66071190D01*
X128119285Y-66547381D02*
X128690714Y-66547381D01*
X128405000Y-66547381D02*
X128405000Y-65547381D01*
X128500238Y-65690238D01*
X128595476Y-65785476D01*
X128690714Y-65833095D01*
X120816666Y-66547381D02*
X121150000Y-66071190D01*
X121388095Y-66547381D02*
X121388095Y-65547381D01*
X121007142Y-65547381D01*
X120911904Y-65595000D01*
X120864285Y-65642619D01*
X120816666Y-65737857D01*
X120816666Y-65880714D01*
X120864285Y-65975952D01*
X120911904Y-66023571D01*
X121007142Y-66071190D01*
X121388095Y-66071190D01*
X120435714Y-65642619D02*
X120388095Y-65595000D01*
X120292857Y-65547381D01*
X120054761Y-65547381D01*
X119959523Y-65595000D01*
X119911904Y-65642619D01*
X119864285Y-65737857D01*
X119864285Y-65833095D01*
X119911904Y-65975952D01*
X120483333Y-66547381D01*
X119864285Y-66547381D01*
X129071666Y-76402143D02*
X129119285Y-76449762D01*
X129262142Y-76497381D01*
X129357380Y-76497381D01*
X129500238Y-76449762D01*
X129595476Y-76354524D01*
X129643095Y-76259286D01*
X129690714Y-76068810D01*
X129690714Y-75925952D01*
X129643095Y-75735476D01*
X129595476Y-75640238D01*
X129500238Y-75545000D01*
X129357380Y-75497381D01*
X129262142Y-75497381D01*
X129119285Y-75545000D01*
X129071666Y-75592619D01*
X128119285Y-76497381D02*
X128690714Y-76497381D01*
X128405000Y-76497381D02*
X128405000Y-75497381D01*
X128500238Y-75640238D01*
X128595476Y-75735476D01*
X128690714Y-75783095D01*
X138596666Y-72267143D02*
X138644285Y-72314762D01*
X138787142Y-72362381D01*
X138882380Y-72362381D01*
X139025238Y-72314762D01*
X139120476Y-72219524D01*
X139168095Y-72124286D01*
X139215714Y-71933810D01*
X139215714Y-71790952D01*
X139168095Y-71600476D01*
X139120476Y-71505238D01*
X139025238Y-71410000D01*
X138882380Y-71362381D01*
X138787142Y-71362381D01*
X138644285Y-71410000D01*
X138596666Y-71457619D01*
X138215714Y-71457619D02*
X138168095Y-71410000D01*
X138072857Y-71362381D01*
X137834761Y-71362381D01*
X137739523Y-71410000D01*
X137691904Y-71457619D01*
X137644285Y-71552857D01*
X137644285Y-71648095D01*
X137691904Y-71790952D01*
X138263333Y-72362381D01*
X137644285Y-72362381D01*
X147486666Y-66547381D02*
X147820000Y-66071190D01*
X148058095Y-66547381D02*
X148058095Y-65547381D01*
X147677142Y-65547381D01*
X147581904Y-65595000D01*
X147534285Y-65642619D01*
X147486666Y-65737857D01*
X147486666Y-65880714D01*
X147534285Y-65975952D01*
X147581904Y-66023571D01*
X147677142Y-66071190D01*
X148058095Y-66071190D01*
X147153333Y-65547381D02*
X146534285Y-65547381D01*
X146867619Y-65928333D01*
X146724761Y-65928333D01*
X146629523Y-65975952D01*
X146581904Y-66023571D01*
X146534285Y-66118810D01*
X146534285Y-66356905D01*
X146581904Y-66452143D01*
X146629523Y-66499762D01*
X146724761Y-66547381D01*
X147010476Y-66547381D01*
X147105714Y-66499762D01*
X147153333Y-66452143D01*
X138596666Y-66547381D02*
X138930000Y-66071190D01*
X139168095Y-66547381D02*
X139168095Y-65547381D01*
X138787142Y-65547381D01*
X138691904Y-65595000D01*
X138644285Y-65642619D01*
X138596666Y-65737857D01*
X138596666Y-65880714D01*
X138644285Y-65975952D01*
X138691904Y-66023571D01*
X138787142Y-66071190D01*
X139168095Y-66071190D01*
X137739523Y-65880714D02*
X137739523Y-66547381D01*
X137977619Y-65499762D02*
X138215714Y-66214048D01*
X137596666Y-66214048D01*
X137961666Y-98297381D02*
X138295000Y-97821190D01*
X138533095Y-98297381D02*
X138533095Y-97297381D01*
X138152142Y-97297381D01*
X138056904Y-97345000D01*
X138009285Y-97392619D01*
X137961666Y-97487857D01*
X137961666Y-97630714D01*
X138009285Y-97725952D01*
X138056904Y-97773571D01*
X138152142Y-97821190D01*
X138533095Y-97821190D01*
X137390238Y-97725952D02*
X137485476Y-97678333D01*
X137533095Y-97630714D01*
X137580714Y-97535476D01*
X137580714Y-97487857D01*
X137533095Y-97392619D01*
X137485476Y-97345000D01*
X137390238Y-97297381D01*
X137199761Y-97297381D01*
X137104523Y-97345000D01*
X137056904Y-97392619D01*
X137009285Y-97487857D01*
X137009285Y-97535476D01*
X137056904Y-97630714D01*
X137104523Y-97678333D01*
X137199761Y-97725952D01*
X137390238Y-97725952D01*
X137485476Y-97773571D01*
X137533095Y-97821190D01*
X137580714Y-97916429D01*
X137580714Y-98106905D01*
X137533095Y-98202143D01*
X137485476Y-98249762D01*
X137390238Y-98297381D01*
X137199761Y-98297381D01*
X137104523Y-98249762D01*
X137056904Y-98202143D01*
X137009285Y-98106905D01*
X137009285Y-97916429D01*
X137056904Y-97821190D01*
X137104523Y-97773571D01*
X137199761Y-97725952D01*
X129071666Y-96722143D02*
X129119285Y-96769762D01*
X129262142Y-96817381D01*
X129357380Y-96817381D01*
X129500238Y-96769762D01*
X129595476Y-96674524D01*
X129643095Y-96579286D01*
X129690714Y-96388810D01*
X129690714Y-96245952D01*
X129643095Y-96055476D01*
X129595476Y-95960238D01*
X129500238Y-95865000D01*
X129357380Y-95817381D01*
X129262142Y-95817381D01*
X129119285Y-95865000D01*
X129071666Y-95912619D01*
X128738333Y-95817381D02*
X128071666Y-95817381D01*
X128500238Y-96817381D01*
X137961666Y-93222143D02*
X138009285Y-93269762D01*
X138152142Y-93317381D01*
X138247380Y-93317381D01*
X138390238Y-93269762D01*
X138485476Y-93174524D01*
X138533095Y-93079286D01*
X138580714Y-92888810D01*
X138580714Y-92745952D01*
X138533095Y-92555476D01*
X138485476Y-92460238D01*
X138390238Y-92365000D01*
X138247380Y-92317381D01*
X138152142Y-92317381D01*
X138009285Y-92365000D01*
X137961666Y-92412619D01*
X137390238Y-92745952D02*
X137485476Y-92698333D01*
X137533095Y-92650714D01*
X137580714Y-92555476D01*
X137580714Y-92507857D01*
X137533095Y-92412619D01*
X137485476Y-92365000D01*
X137390238Y-92317381D01*
X137199761Y-92317381D01*
X137104523Y-92365000D01*
X137056904Y-92412619D01*
X137009285Y-92507857D01*
X137009285Y-92555476D01*
X137056904Y-92650714D01*
X137104523Y-92698333D01*
X137199761Y-92745952D01*
X137390238Y-92745952D01*
X137485476Y-92793571D01*
X137533095Y-92841190D01*
X137580714Y-92936429D01*
X137580714Y-93126905D01*
X137533095Y-93222143D01*
X137485476Y-93269762D01*
X137390238Y-93317381D01*
X137199761Y-93317381D01*
X137104523Y-93269762D01*
X137056904Y-93222143D01*
X137009285Y-93126905D01*
X137009285Y-92936429D01*
X137056904Y-92841190D01*
X137104523Y-92793571D01*
X137199761Y-92745952D01*
X120816666Y-103267381D02*
X121150000Y-102791190D01*
X121388095Y-103267381D02*
X121388095Y-102267381D01*
X121007142Y-102267381D01*
X120911904Y-102315000D01*
X120864285Y-102362619D01*
X120816666Y-102457857D01*
X120816666Y-102600714D01*
X120864285Y-102695952D01*
X120911904Y-102743571D01*
X121007142Y-102791190D01*
X121388095Y-102791190D01*
X119911904Y-102267381D02*
X120388095Y-102267381D01*
X120435714Y-102743571D01*
X120388095Y-102695952D01*
X120292857Y-102648333D01*
X120054761Y-102648333D01*
X119959523Y-102695952D01*
X119911904Y-102743571D01*
X119864285Y-102838810D01*
X119864285Y-103076905D01*
X119911904Y-103172143D01*
X119959523Y-103219762D01*
X120054761Y-103267381D01*
X120292857Y-103267381D01*
X120388095Y-103219762D01*
X120435714Y-103172143D01*
X129071666Y-103267381D02*
X129405000Y-102791190D01*
X129643095Y-103267381D02*
X129643095Y-102267381D01*
X129262142Y-102267381D01*
X129166904Y-102315000D01*
X129119285Y-102362619D01*
X129071666Y-102457857D01*
X129071666Y-102600714D01*
X129119285Y-102695952D01*
X129166904Y-102743571D01*
X129262142Y-102791190D01*
X129643095Y-102791190D01*
X128214523Y-102267381D02*
X128405000Y-102267381D01*
X128500238Y-102315000D01*
X128547857Y-102362619D01*
X128643095Y-102505476D01*
X128690714Y-102695952D01*
X128690714Y-103076905D01*
X128643095Y-103172143D01*
X128595476Y-103219762D01*
X128500238Y-103267381D01*
X128309761Y-103267381D01*
X128214523Y-103219762D01*
X128166904Y-103172143D01*
X128119285Y-103076905D01*
X128119285Y-102838810D01*
X128166904Y-102743571D01*
X128214523Y-102695952D01*
X128309761Y-102648333D01*
X128500238Y-102648333D01*
X128595476Y-102695952D01*
X128643095Y-102743571D01*
X128690714Y-102838810D01*
X146851666Y-98297381D02*
X147185000Y-97821190D01*
X147423095Y-98297381D02*
X147423095Y-97297381D01*
X147042142Y-97297381D01*
X146946904Y-97345000D01*
X146899285Y-97392619D01*
X146851666Y-97487857D01*
X146851666Y-97630714D01*
X146899285Y-97725952D01*
X146946904Y-97773571D01*
X147042142Y-97821190D01*
X147423095Y-97821190D01*
X146518333Y-97297381D02*
X145851666Y-97297381D01*
X146280238Y-98297381D01*
X120816666Y-72902143D02*
X120864285Y-72949762D01*
X121007142Y-72997381D01*
X121102380Y-72997381D01*
X121245238Y-72949762D01*
X121340476Y-72854524D01*
X121388095Y-72759286D01*
X121435714Y-72568810D01*
X121435714Y-72425952D01*
X121388095Y-72235476D01*
X121340476Y-72140238D01*
X121245238Y-72045000D01*
X121102380Y-71997381D01*
X121007142Y-71997381D01*
X120864285Y-72045000D01*
X120816666Y-72092619D01*
X120483333Y-71997381D02*
X119864285Y-71997381D01*
X120197619Y-72378333D01*
X120054761Y-72378333D01*
X119959523Y-72425952D01*
X119911904Y-72473571D01*
X119864285Y-72568810D01*
X119864285Y-72806905D01*
X119911904Y-72902143D01*
X119959523Y-72949762D01*
X120054761Y-72997381D01*
X120340476Y-72997381D01*
X120435714Y-72949762D01*
X120483333Y-72902143D01*
X146851666Y-72267143D02*
X146899285Y-72314762D01*
X147042142Y-72362381D01*
X147137380Y-72362381D01*
X147280238Y-72314762D01*
X147375476Y-72219524D01*
X147423095Y-72124286D01*
X147470714Y-71933810D01*
X147470714Y-71790952D01*
X147423095Y-71600476D01*
X147375476Y-71505238D01*
X147280238Y-71410000D01*
X147137380Y-71362381D01*
X147042142Y-71362381D01*
X146899285Y-71410000D01*
X146851666Y-71457619D01*
X145994523Y-71695714D02*
X145994523Y-72362381D01*
X146232619Y-71314762D02*
X146470714Y-72029048D01*
X145851666Y-72029048D01*
X120816666Y-96722143D02*
X120864285Y-96769762D01*
X121007142Y-96817381D01*
X121102380Y-96817381D01*
X121245238Y-96769762D01*
X121340476Y-96674524D01*
X121388095Y-96579286D01*
X121435714Y-96388810D01*
X121435714Y-96245952D01*
X121388095Y-96055476D01*
X121340476Y-95960238D01*
X121245238Y-95865000D01*
X121102380Y-95817381D01*
X121007142Y-95817381D01*
X120864285Y-95865000D01*
X120816666Y-95912619D01*
X119911904Y-95817381D02*
X120388095Y-95817381D01*
X120435714Y-96293571D01*
X120388095Y-96245952D01*
X120292857Y-96198333D01*
X120054761Y-96198333D01*
X119959523Y-96245952D01*
X119911904Y-96293571D01*
X119864285Y-96388810D01*
X119864285Y-96626905D01*
X119911904Y-96722143D01*
X119959523Y-96769762D01*
X120054761Y-96817381D01*
X120292857Y-96817381D01*
X120388095Y-96769762D01*
X120435714Y-96722143D01*
X146851666Y-93222143D02*
X146899285Y-93269762D01*
X147042142Y-93317381D01*
X147137380Y-93317381D01*
X147280238Y-93269762D01*
X147375476Y-93174524D01*
X147423095Y-93079286D01*
X147470714Y-92888810D01*
X147470714Y-92745952D01*
X147423095Y-92555476D01*
X147375476Y-92460238D01*
X147280238Y-92365000D01*
X147137380Y-92317381D01*
X147042142Y-92317381D01*
X146899285Y-92365000D01*
X146851666Y-92412619D01*
X145994523Y-92317381D02*
X146185000Y-92317381D01*
X146280238Y-92365000D01*
X146327857Y-92412619D01*
X146423095Y-92555476D01*
X146470714Y-92745952D01*
X146470714Y-93126905D01*
X146423095Y-93222143D01*
X146375476Y-93269762D01*
X146280238Y-93317381D01*
X146089761Y-93317381D01*
X145994523Y-93269762D01*
X145946904Y-93222143D01*
X145899285Y-93126905D01*
X145899285Y-92888810D01*
X145946904Y-92793571D01*
X145994523Y-92745952D01*
X146089761Y-92698333D01*
X146280238Y-92698333D01*
X146375476Y-92745952D01*
X146423095Y-92793571D01*
X146470714Y-92888810D01*
M02*
