G04 #@! TF.FileFunction,Legend,Top*
%FSLAX46Y46*%
G04 Gerber Fmt 4.6, Leading zero omitted, Abs format (unit mm)*
G04 Created by KiCad (PCBNEW 4.0.7) date Tuesday, March 06, 2018 'PMt' 10:16:58 PM*
%MOMM*%
%LPD*%
G01*
G04 APERTURE LIST*
%ADD10C,0.100000*%
%ADD11C,0.300000*%
%ADD12C,0.120000*%
%ADD13C,0.150000*%
%ADD14C,0.010000*%
G04 APERTURE END LIST*
D10*
D11*
X114113571Y-87597857D02*
X115613571Y-87097857D01*
X114113571Y-86597857D01*
X115613571Y-84955000D02*
X114113571Y-84955000D01*
X114113571Y-84597857D01*
X114185000Y-84383572D01*
X114327857Y-84240714D01*
X114470714Y-84169286D01*
X114756429Y-84097857D01*
X114970714Y-84097857D01*
X115256429Y-84169286D01*
X115399286Y-84240714D01*
X115542143Y-84383572D01*
X115613571Y-84597857D01*
X115613571Y-84955000D01*
X114185000Y-81526429D02*
X114113571Y-81669286D01*
X114113571Y-81883572D01*
X114185000Y-82097857D01*
X114327857Y-82240715D01*
X114470714Y-82312143D01*
X114756429Y-82383572D01*
X114970714Y-82383572D01*
X115256429Y-82312143D01*
X115399286Y-82240715D01*
X115542143Y-82097857D01*
X115613571Y-81883572D01*
X115613571Y-81740715D01*
X115542143Y-81526429D01*
X115470714Y-81455000D01*
X114970714Y-81455000D01*
X114970714Y-81740715D01*
X122750716Y-85538571D02*
X123107859Y-87038571D01*
X123393573Y-85967143D01*
X123679287Y-87038571D01*
X124036430Y-85538571D01*
X125250716Y-87038571D02*
X125250716Y-86252857D01*
X125179287Y-86110000D01*
X125036430Y-86038571D01*
X124750716Y-86038571D01*
X124607859Y-86110000D01*
X125250716Y-86967143D02*
X125107859Y-87038571D01*
X124750716Y-87038571D01*
X124607859Y-86967143D01*
X124536430Y-86824286D01*
X124536430Y-86681429D01*
X124607859Y-86538571D01*
X124750716Y-86467143D01*
X125107859Y-86467143D01*
X125250716Y-86395714D01*
X126179288Y-87038571D02*
X126036430Y-86967143D01*
X125965002Y-86824286D01*
X125965002Y-85538571D01*
X127393573Y-86967143D02*
X127250716Y-87038571D01*
X126965002Y-87038571D01*
X126822144Y-86967143D01*
X126750716Y-86895714D01*
X126679287Y-86752857D01*
X126679287Y-86324286D01*
X126750716Y-86181429D01*
X126822144Y-86110000D01*
X126965002Y-86038571D01*
X127250716Y-86038571D01*
X127393573Y-86110000D01*
X128036430Y-87038571D02*
X128036430Y-85538571D01*
X128679287Y-87038571D02*
X128679287Y-86252857D01*
X128607858Y-86110000D01*
X128465001Y-86038571D01*
X128250716Y-86038571D01*
X128107858Y-86110000D01*
X128036430Y-86181429D01*
X129393573Y-87038571D02*
X129393573Y-85538571D01*
X129536430Y-86467143D02*
X129965001Y-87038571D01*
X129965001Y-86038571D02*
X129393573Y-86610000D01*
X130822145Y-87038571D02*
X130679287Y-86967143D01*
X130607859Y-86895714D01*
X130536430Y-86752857D01*
X130536430Y-86324286D01*
X130607859Y-86181429D01*
X130679287Y-86110000D01*
X130822145Y-86038571D01*
X131036430Y-86038571D01*
X131179287Y-86110000D01*
X131250716Y-86181429D01*
X131322145Y-86324286D01*
X131322145Y-86752857D01*
X131250716Y-86895714D01*
X131179287Y-86967143D01*
X131036430Y-87038571D01*
X130822145Y-87038571D01*
X133536430Y-87610000D02*
X133465002Y-87538571D01*
X133322145Y-87324286D01*
X133250716Y-87181429D01*
X133179287Y-86967143D01*
X133107859Y-86610000D01*
X133107859Y-86324286D01*
X133179287Y-85967143D01*
X133250716Y-85752857D01*
X133322145Y-85610000D01*
X133465002Y-85395714D01*
X133536430Y-85324286D01*
X134750716Y-86967143D02*
X134607859Y-87038571D01*
X134322145Y-87038571D01*
X134179287Y-86967143D01*
X134107859Y-86895714D01*
X134036430Y-86752857D01*
X134036430Y-86324286D01*
X134107859Y-86181429D01*
X134179287Y-86110000D01*
X134322145Y-86038571D01*
X134607859Y-86038571D01*
X134750716Y-86110000D01*
X135250716Y-87610000D02*
X135322144Y-87538571D01*
X135465001Y-87324286D01*
X135536430Y-87181429D01*
X135607859Y-86967143D01*
X135679287Y-86610000D01*
X135679287Y-86324286D01*
X135607859Y-85967143D01*
X135536430Y-85752857D01*
X135465001Y-85610000D01*
X135322144Y-85395714D01*
X135250716Y-85324286D01*
X137465001Y-85681429D02*
X137536430Y-85610000D01*
X137679287Y-85538571D01*
X138036430Y-85538571D01*
X138179287Y-85610000D01*
X138250716Y-85681429D01*
X138322144Y-85824286D01*
X138322144Y-85967143D01*
X138250716Y-86181429D01*
X137393573Y-87038571D01*
X138322144Y-87038571D01*
X139250715Y-85538571D02*
X139393572Y-85538571D01*
X139536429Y-85610000D01*
X139607858Y-85681429D01*
X139679287Y-85824286D01*
X139750715Y-86110000D01*
X139750715Y-86467143D01*
X139679287Y-86752857D01*
X139607858Y-86895714D01*
X139536429Y-86967143D01*
X139393572Y-87038571D01*
X139250715Y-87038571D01*
X139107858Y-86967143D01*
X139036429Y-86895714D01*
X138965001Y-86752857D01*
X138893572Y-86467143D01*
X138893572Y-86110000D01*
X138965001Y-85824286D01*
X139036429Y-85681429D01*
X139107858Y-85610000D01*
X139250715Y-85538571D01*
X141179286Y-87038571D02*
X140322143Y-87038571D01*
X140750715Y-87038571D02*
X140750715Y-85538571D01*
X140607858Y-85752857D01*
X140465000Y-85895714D01*
X140322143Y-85967143D01*
X142036429Y-86181429D02*
X141893571Y-86110000D01*
X141822143Y-86038571D01*
X141750714Y-85895714D01*
X141750714Y-85824286D01*
X141822143Y-85681429D01*
X141893571Y-85610000D01*
X142036429Y-85538571D01*
X142322143Y-85538571D01*
X142465000Y-85610000D01*
X142536429Y-85681429D01*
X142607857Y-85824286D01*
X142607857Y-85895714D01*
X142536429Y-86038571D01*
X142465000Y-86110000D01*
X142322143Y-86181429D01*
X142036429Y-86181429D01*
X141893571Y-86252857D01*
X141822143Y-86324286D01*
X141750714Y-86467143D01*
X141750714Y-86752857D01*
X141822143Y-86895714D01*
X141893571Y-86967143D01*
X142036429Y-87038571D01*
X142322143Y-87038571D01*
X142465000Y-86967143D01*
X142536429Y-86895714D01*
X142607857Y-86752857D01*
X142607857Y-86467143D01*
X142536429Y-86324286D01*
X142465000Y-86252857D01*
X142322143Y-86181429D01*
D12*
X119340000Y-75685000D02*
X129580000Y-75685000D01*
X119340000Y-59795000D02*
X129580000Y-59795000D01*
X119340000Y-59795000D02*
X119340000Y-75685000D01*
X129580000Y-59795000D02*
X129580000Y-75685000D01*
X121920000Y-75685000D02*
X121920000Y-78325000D01*
X124460000Y-75685000D02*
X124460000Y-78309000D01*
X127000000Y-75685000D02*
X127000000Y-78309000D01*
X147360000Y-93225000D02*
X137120000Y-93225000D01*
X147360000Y-109115000D02*
X137120000Y-109115000D01*
X147360000Y-109115000D02*
X147360000Y-93225000D01*
X137120000Y-109115000D02*
X137120000Y-93225000D01*
X144780000Y-93225000D02*
X144780000Y-90585000D01*
X142240000Y-93225000D02*
X142240000Y-90601000D01*
X139700000Y-93225000D02*
X139700000Y-90601000D01*
X134300000Y-61035000D02*
X132400000Y-61035000D01*
X132400000Y-61035000D02*
X132400000Y-65735000D01*
X134300000Y-61035000D02*
X134300000Y-65735000D01*
X113090000Y-80585000D02*
X110430000Y-80585000D01*
X113090000Y-85725000D02*
X113090000Y-80585000D01*
X110430000Y-85725000D02*
X110430000Y-80585000D01*
X113090000Y-85725000D02*
X110430000Y-85725000D01*
X113090000Y-86995000D02*
X113090000Y-88325000D01*
X113090000Y-88325000D02*
X111760000Y-88325000D01*
D13*
X159040000Y-84610000D02*
X159440000Y-84610000D01*
X157940000Y-88110000D02*
X157940000Y-81110000D01*
X159040000Y-88110000D02*
X159040000Y-81110000D01*
X151840000Y-88110000D02*
X159440000Y-88110000D01*
X159440000Y-81110000D02*
X151840000Y-81110000D01*
X151840000Y-81110000D02*
X151840000Y-88110000D01*
D12*
X132280000Y-74025000D02*
X132280000Y-72025000D01*
X134420000Y-72025000D02*
X134420000Y-74025000D01*
X137120000Y-75685000D02*
X147360000Y-75685000D01*
X137120000Y-59795000D02*
X147360000Y-59795000D01*
X137120000Y-59795000D02*
X137120000Y-75685000D01*
X147360000Y-59795000D02*
X147360000Y-75685000D01*
X139700000Y-75685000D02*
X139700000Y-78325000D01*
X142240000Y-75685000D02*
X142240000Y-78309000D01*
X144780000Y-75685000D02*
X144780000Y-78309000D01*
X129580000Y-93225000D02*
X119340000Y-93225000D01*
X129580000Y-109115000D02*
X119340000Y-109115000D01*
X129580000Y-109115000D02*
X129580000Y-93225000D01*
X119340000Y-109115000D02*
X119340000Y-93225000D01*
X127000000Y-93225000D02*
X127000000Y-90585000D01*
X124460000Y-93225000D02*
X124460000Y-90601000D01*
X121920000Y-93225000D02*
X121920000Y-90601000D01*
X114830000Y-70385000D02*
X113830000Y-69385000D01*
X109930000Y-79285000D02*
X114830000Y-79285000D01*
X114830000Y-79285000D02*
X114830000Y-70385000D01*
X113830000Y-69385000D02*
X109930000Y-69385000D01*
X109930000Y-69385000D02*
X109930000Y-79285000D01*
X153140000Y-78205000D02*
X154140000Y-79205000D01*
X158040000Y-69305000D02*
X153140000Y-69305000D01*
X153140000Y-69305000D02*
X153140000Y-78205000D01*
X154140000Y-79205000D02*
X158040000Y-79205000D01*
X158040000Y-79205000D02*
X158040000Y-69305000D01*
X114830000Y-90705000D02*
X113830000Y-89705000D01*
X109930000Y-99605000D02*
X114830000Y-99605000D01*
X114830000Y-99605000D02*
X114830000Y-90705000D01*
X113830000Y-89705000D02*
X109930000Y-89705000D01*
X109930000Y-89705000D02*
X109930000Y-99605000D01*
X153140000Y-99160000D02*
X154140000Y-100160000D01*
X158040000Y-90260000D02*
X153140000Y-90260000D01*
X153140000Y-90260000D02*
X153140000Y-99160000D01*
X154140000Y-100160000D02*
X158040000Y-100160000D01*
X158040000Y-100160000D02*
X158040000Y-90260000D01*
D14*
G36*
X130813360Y-82597468D02*
X130848592Y-82614874D01*
X130892040Y-82645206D01*
X130923706Y-82678283D01*
X130945394Y-82719817D01*
X130958903Y-82775522D01*
X130966038Y-82851111D01*
X130968600Y-82952296D01*
X130968750Y-82995797D01*
X130968312Y-83091135D01*
X130966496Y-83159271D01*
X130962545Y-83206418D01*
X130955702Y-83238790D01*
X130945211Y-83262600D01*
X130934296Y-83278843D01*
X130864619Y-83347952D01*
X130782566Y-83389521D01*
X130694050Y-83402023D01*
X130604981Y-83383934D01*
X130576763Y-83371142D01*
X130509210Y-83335931D01*
X130509210Y-83887700D01*
X130558512Y-83862205D01*
X130623473Y-83842480D01*
X130703320Y-83837427D01*
X130783052Y-83846756D01*
X130843265Y-83867714D01*
X130893208Y-83907627D01*
X130935881Y-83964741D01*
X130939090Y-83970605D01*
X130952622Y-83998227D01*
X130962505Y-84026068D01*
X130969309Y-84059794D01*
X130973601Y-84105071D01*
X130975951Y-84167562D01*
X130976928Y-84252935D01*
X130977105Y-84349010D01*
X130977105Y-84655526D01*
X130793289Y-84655526D01*
X130793289Y-84090339D01*
X130741875Y-84047077D01*
X130688466Y-84012472D01*
X130637888Y-84006180D01*
X130587030Y-84022372D01*
X130559925Y-84038227D01*
X130539751Y-84060810D01*
X130525403Y-84094940D01*
X130515776Y-84145434D01*
X130509763Y-84217111D01*
X130506260Y-84314788D01*
X130505026Y-84379802D01*
X130500855Y-84647171D01*
X130413125Y-84652222D01*
X130325394Y-84657273D01*
X130325394Y-82998101D01*
X130509210Y-82998101D01*
X130513896Y-83090600D01*
X130529688Y-83154809D01*
X130559183Y-83194759D01*
X130604980Y-83214480D01*
X130651250Y-83218421D01*
X130703628Y-83213892D01*
X130738390Y-83196069D01*
X130760128Y-83172519D01*
X130777240Y-83147189D01*
X130787427Y-83118969D01*
X130791960Y-83079431D01*
X130792109Y-83020142D01*
X130790584Y-82970498D01*
X130787081Y-82895710D01*
X130781867Y-82846611D01*
X130773087Y-82815467D01*
X130758886Y-82794545D01*
X130745484Y-82782452D01*
X130689487Y-82756081D01*
X130623211Y-82751822D01*
X130585156Y-82760906D01*
X130547477Y-82793196D01*
X130522519Y-82856006D01*
X130510422Y-82948894D01*
X130509210Y-82998101D01*
X130325394Y-82998101D01*
X130325394Y-82583421D01*
X130417302Y-82583421D01*
X130472483Y-82585603D01*
X130500952Y-82593351D01*
X130509206Y-82608468D01*
X130509210Y-82608916D01*
X130513040Y-82623720D01*
X130529933Y-82622039D01*
X130563519Y-82605772D01*
X130641778Y-82580887D01*
X130729827Y-82578271D01*
X130813360Y-82597468D01*
X130813360Y-82597468D01*
G37*
X130813360Y-82597468D02*
X130848592Y-82614874D01*
X130892040Y-82645206D01*
X130923706Y-82678283D01*
X130945394Y-82719817D01*
X130958903Y-82775522D01*
X130966038Y-82851111D01*
X130968600Y-82952296D01*
X130968750Y-82995797D01*
X130968312Y-83091135D01*
X130966496Y-83159271D01*
X130962545Y-83206418D01*
X130955702Y-83238790D01*
X130945211Y-83262600D01*
X130934296Y-83278843D01*
X130864619Y-83347952D01*
X130782566Y-83389521D01*
X130694050Y-83402023D01*
X130604981Y-83383934D01*
X130576763Y-83371142D01*
X130509210Y-83335931D01*
X130509210Y-83887700D01*
X130558512Y-83862205D01*
X130623473Y-83842480D01*
X130703320Y-83837427D01*
X130783052Y-83846756D01*
X130843265Y-83867714D01*
X130893208Y-83907627D01*
X130935881Y-83964741D01*
X130939090Y-83970605D01*
X130952622Y-83998227D01*
X130962505Y-84026068D01*
X130969309Y-84059794D01*
X130973601Y-84105071D01*
X130975951Y-84167562D01*
X130976928Y-84252935D01*
X130977105Y-84349010D01*
X130977105Y-84655526D01*
X130793289Y-84655526D01*
X130793289Y-84090339D01*
X130741875Y-84047077D01*
X130688466Y-84012472D01*
X130637888Y-84006180D01*
X130587030Y-84022372D01*
X130559925Y-84038227D01*
X130539751Y-84060810D01*
X130525403Y-84094940D01*
X130515776Y-84145434D01*
X130509763Y-84217111D01*
X130506260Y-84314788D01*
X130505026Y-84379802D01*
X130500855Y-84647171D01*
X130413125Y-84652222D01*
X130325394Y-84657273D01*
X130325394Y-82998101D01*
X130509210Y-82998101D01*
X130513896Y-83090600D01*
X130529688Y-83154809D01*
X130559183Y-83194759D01*
X130604980Y-83214480D01*
X130651250Y-83218421D01*
X130703628Y-83213892D01*
X130738390Y-83196069D01*
X130760128Y-83172519D01*
X130777240Y-83147189D01*
X130787427Y-83118969D01*
X130791960Y-83079431D01*
X130792109Y-83020142D01*
X130790584Y-82970498D01*
X130787081Y-82895710D01*
X130781867Y-82846611D01*
X130773087Y-82815467D01*
X130758886Y-82794545D01*
X130745484Y-82782452D01*
X130689487Y-82756081D01*
X130623211Y-82751822D01*
X130585156Y-82760906D01*
X130547477Y-82793196D01*
X130522519Y-82856006D01*
X130510422Y-82948894D01*
X130509210Y-82998101D01*
X130325394Y-82998101D01*
X130325394Y-82583421D01*
X130417302Y-82583421D01*
X130472483Y-82585603D01*
X130500952Y-82593351D01*
X130509206Y-82608468D01*
X130509210Y-82608916D01*
X130513040Y-82623720D01*
X130529933Y-82622039D01*
X130563519Y-82605772D01*
X130641778Y-82580887D01*
X130729827Y-82578271D01*
X130813360Y-82597468D01*
G36*
X131510457Y-83843184D02*
X131589070Y-83864160D01*
X131648916Y-83902180D01*
X131691147Y-83951978D01*
X131704275Y-83973230D01*
X131713968Y-83995492D01*
X131720744Y-84023970D01*
X131725123Y-84063871D01*
X131727624Y-84120401D01*
X131728768Y-84198767D01*
X131729072Y-84304176D01*
X131729078Y-84332142D01*
X131729078Y-84655526D01*
X131648868Y-84655526D01*
X131597706Y-84651943D01*
X131559877Y-84642866D01*
X131550399Y-84637268D01*
X131524488Y-84627606D01*
X131498024Y-84637268D01*
X131454452Y-84649330D01*
X131391160Y-84654185D01*
X131321010Y-84652078D01*
X131256860Y-84643256D01*
X131219407Y-84631937D01*
X131146933Y-84585412D01*
X131101640Y-84520846D01*
X131081278Y-84435000D01*
X131081088Y-84432796D01*
X131082875Y-84394713D01*
X131244473Y-84394713D01*
X131258601Y-84438030D01*
X131281612Y-84462408D01*
X131327804Y-84480845D01*
X131388775Y-84488205D01*
X131450949Y-84484583D01*
X131500751Y-84470074D01*
X131514703Y-84460765D01*
X131539085Y-84417753D01*
X131545263Y-84368857D01*
X131545263Y-84304605D01*
X131452818Y-84304605D01*
X131364995Y-84311366D01*
X131298418Y-84330520D01*
X131257002Y-84360376D01*
X131244473Y-84394713D01*
X131082875Y-84394713D01*
X131085490Y-84339004D01*
X131116424Y-84264847D01*
X131174581Y-84208767D01*
X131182620Y-84203665D01*
X131217163Y-84187055D01*
X131259918Y-84176996D01*
X131319686Y-84172107D01*
X131390690Y-84170983D01*
X131545263Y-84170921D01*
X131545263Y-84106125D01*
X131538706Y-84055850D01*
X131521975Y-84022169D01*
X131520016Y-84020376D01*
X131482783Y-84005642D01*
X131426580Y-83999931D01*
X131364467Y-84002737D01*
X131309510Y-84013556D01*
X131276899Y-84029782D01*
X131259228Y-84042780D01*
X131240569Y-84045262D01*
X131214819Y-84034613D01*
X131175873Y-84008218D01*
X131117630Y-83963465D01*
X131112284Y-83959273D01*
X131115023Y-83943760D01*
X131137876Y-83917960D01*
X131172609Y-83889289D01*
X131210990Y-83865166D01*
X131223048Y-83859470D01*
X131267034Y-83848103D01*
X131331487Y-83839995D01*
X131403497Y-83836743D01*
X131406864Y-83836736D01*
X131510457Y-83843184D01*
X131510457Y-83843184D01*
G37*
X131510457Y-83843184D02*
X131589070Y-83864160D01*
X131648916Y-83902180D01*
X131691147Y-83951978D01*
X131704275Y-83973230D01*
X131713968Y-83995492D01*
X131720744Y-84023970D01*
X131725123Y-84063871D01*
X131727624Y-84120401D01*
X131728768Y-84198767D01*
X131729072Y-84304176D01*
X131729078Y-84332142D01*
X131729078Y-84655526D01*
X131648868Y-84655526D01*
X131597706Y-84651943D01*
X131559877Y-84642866D01*
X131550399Y-84637268D01*
X131524488Y-84627606D01*
X131498024Y-84637268D01*
X131454452Y-84649330D01*
X131391160Y-84654185D01*
X131321010Y-84652078D01*
X131256860Y-84643256D01*
X131219407Y-84631937D01*
X131146933Y-84585412D01*
X131101640Y-84520846D01*
X131081278Y-84435000D01*
X131081088Y-84432796D01*
X131082875Y-84394713D01*
X131244473Y-84394713D01*
X131258601Y-84438030D01*
X131281612Y-84462408D01*
X131327804Y-84480845D01*
X131388775Y-84488205D01*
X131450949Y-84484583D01*
X131500751Y-84470074D01*
X131514703Y-84460765D01*
X131539085Y-84417753D01*
X131545263Y-84368857D01*
X131545263Y-84304605D01*
X131452818Y-84304605D01*
X131364995Y-84311366D01*
X131298418Y-84330520D01*
X131257002Y-84360376D01*
X131244473Y-84394713D01*
X131082875Y-84394713D01*
X131085490Y-84339004D01*
X131116424Y-84264847D01*
X131174581Y-84208767D01*
X131182620Y-84203665D01*
X131217163Y-84187055D01*
X131259918Y-84176996D01*
X131319686Y-84172107D01*
X131390690Y-84170983D01*
X131545263Y-84170921D01*
X131545263Y-84106125D01*
X131538706Y-84055850D01*
X131521975Y-84022169D01*
X131520016Y-84020376D01*
X131482783Y-84005642D01*
X131426580Y-83999931D01*
X131364467Y-84002737D01*
X131309510Y-84013556D01*
X131276899Y-84029782D01*
X131259228Y-84042780D01*
X131240569Y-84045262D01*
X131214819Y-84034613D01*
X131175873Y-84008218D01*
X131117630Y-83963465D01*
X131112284Y-83959273D01*
X131115023Y-83943760D01*
X131137876Y-83917960D01*
X131172609Y-83889289D01*
X131210990Y-83865166D01*
X131223048Y-83859470D01*
X131267034Y-83848103D01*
X131331487Y-83839995D01*
X131403497Y-83836743D01*
X131406864Y-83836736D01*
X131510457Y-83843184D01*
G36*
X132029881Y-83838486D02*
X132054888Y-83845982D01*
X132062950Y-83862451D01*
X132063289Y-83869886D01*
X132064736Y-83890594D01*
X132074698Y-83893845D01*
X132101612Y-83879648D01*
X132117598Y-83869948D01*
X132168033Y-83849175D01*
X132228272Y-83838904D01*
X132291434Y-83838114D01*
X132350637Y-83845786D01*
X132399002Y-83860898D01*
X132429646Y-83882432D01*
X132435689Y-83909366D01*
X132432639Y-83916660D01*
X132410406Y-83946937D01*
X132375930Y-83984175D01*
X132369694Y-83990195D01*
X132336833Y-84017875D01*
X132308480Y-84026818D01*
X132268827Y-84020576D01*
X132252942Y-84016429D01*
X132203509Y-84006467D01*
X132168752Y-84010947D01*
X132139400Y-84026746D01*
X132112513Y-84047949D01*
X132092710Y-84074614D01*
X132078948Y-84111827D01*
X132070184Y-84164673D01*
X132065374Y-84238237D01*
X132063474Y-84337605D01*
X132063289Y-84397601D01*
X132063289Y-84655526D01*
X131896184Y-84655526D01*
X131896184Y-83836710D01*
X131979736Y-83836710D01*
X132029881Y-83838486D01*
X132029881Y-83838486D01*
G37*
X132029881Y-83838486D02*
X132054888Y-83845982D01*
X132062950Y-83862451D01*
X132063289Y-83869886D01*
X132064736Y-83890594D01*
X132074698Y-83893845D01*
X132101612Y-83879648D01*
X132117598Y-83869948D01*
X132168033Y-83849175D01*
X132228272Y-83838904D01*
X132291434Y-83838114D01*
X132350637Y-83845786D01*
X132399002Y-83860898D01*
X132429646Y-83882432D01*
X132435689Y-83909366D01*
X132432639Y-83916660D01*
X132410406Y-83946937D01*
X132375930Y-83984175D01*
X132369694Y-83990195D01*
X132336833Y-84017875D01*
X132308480Y-84026818D01*
X132268827Y-84020576D01*
X132252942Y-84016429D01*
X132203509Y-84006467D01*
X132168752Y-84010947D01*
X132139400Y-84026746D01*
X132112513Y-84047949D01*
X132092710Y-84074614D01*
X132078948Y-84111827D01*
X132070184Y-84164673D01*
X132065374Y-84238237D01*
X132063474Y-84337605D01*
X132063289Y-84397601D01*
X132063289Y-84655526D01*
X131896184Y-84655526D01*
X131896184Y-83836710D01*
X131979736Y-83836710D01*
X132029881Y-83838486D01*
G36*
X133082631Y-84655526D02*
X132990723Y-84655526D01*
X132937377Y-84653962D01*
X132909593Y-84647485D01*
X132899590Y-84633418D01*
X132898815Y-84623906D01*
X132897128Y-84604832D01*
X132886490Y-84601174D01*
X132858535Y-84612932D01*
X132836795Y-84623906D01*
X132753332Y-84649911D01*
X132662604Y-84651416D01*
X132588842Y-84632021D01*
X132520154Y-84585165D01*
X132467794Y-84516004D01*
X132439122Y-84434427D01*
X132438392Y-84429866D01*
X132434132Y-84380101D01*
X132432014Y-84308659D01*
X132432184Y-84254626D01*
X132614720Y-84254626D01*
X132618949Y-84326441D01*
X132628568Y-84385634D01*
X132641590Y-84419060D01*
X132690856Y-84464740D01*
X132749350Y-84481115D01*
X132809671Y-84467873D01*
X132861217Y-84428373D01*
X132880738Y-84401807D01*
X132892152Y-84370106D01*
X132897498Y-84323832D01*
X132898815Y-84254328D01*
X132896458Y-84185499D01*
X132890233Y-84125026D01*
X132881408Y-84084556D01*
X132879937Y-84080929D01*
X132844347Y-84037802D01*
X132792400Y-84014124D01*
X132734278Y-84010301D01*
X132680160Y-84026738D01*
X132640226Y-84063840D01*
X132636083Y-84071222D01*
X132623116Y-84116239D01*
X132616052Y-84180967D01*
X132614720Y-84254626D01*
X132432184Y-84254626D01*
X132432271Y-84227230D01*
X132433472Y-84183405D01*
X132441645Y-84074988D01*
X132458630Y-83993588D01*
X132486887Y-83933412D01*
X132528872Y-83888666D01*
X132569632Y-83862400D01*
X132626581Y-83843935D01*
X132697411Y-83837602D01*
X132769941Y-83842760D01*
X132831986Y-83858769D01*
X132864768Y-83877920D01*
X132898815Y-83908732D01*
X132898815Y-83519210D01*
X133082631Y-83519210D01*
X133082631Y-84655526D01*
X133082631Y-84655526D01*
G37*
X133082631Y-84655526D02*
X132990723Y-84655526D01*
X132937377Y-84653962D01*
X132909593Y-84647485D01*
X132899590Y-84633418D01*
X132898815Y-84623906D01*
X132897128Y-84604832D01*
X132886490Y-84601174D01*
X132858535Y-84612932D01*
X132836795Y-84623906D01*
X132753332Y-84649911D01*
X132662604Y-84651416D01*
X132588842Y-84632021D01*
X132520154Y-84585165D01*
X132467794Y-84516004D01*
X132439122Y-84434427D01*
X132438392Y-84429866D01*
X132434132Y-84380101D01*
X132432014Y-84308659D01*
X132432184Y-84254626D01*
X132614720Y-84254626D01*
X132618949Y-84326441D01*
X132628568Y-84385634D01*
X132641590Y-84419060D01*
X132690856Y-84464740D01*
X132749350Y-84481115D01*
X132809671Y-84467873D01*
X132861217Y-84428373D01*
X132880738Y-84401807D01*
X132892152Y-84370106D01*
X132897498Y-84323832D01*
X132898815Y-84254328D01*
X132896458Y-84185499D01*
X132890233Y-84125026D01*
X132881408Y-84084556D01*
X132879937Y-84080929D01*
X132844347Y-84037802D01*
X132792400Y-84014124D01*
X132734278Y-84010301D01*
X132680160Y-84026738D01*
X132640226Y-84063840D01*
X132636083Y-84071222D01*
X132623116Y-84116239D01*
X132616052Y-84180967D01*
X132614720Y-84254626D01*
X132432184Y-84254626D01*
X132432271Y-84227230D01*
X132433472Y-84183405D01*
X132441645Y-84074988D01*
X132458630Y-83993588D01*
X132486887Y-83933412D01*
X132528872Y-83888666D01*
X132569632Y-83862400D01*
X132626581Y-83843935D01*
X132697411Y-83837602D01*
X132769941Y-83842760D01*
X132831986Y-83858769D01*
X132864768Y-83877920D01*
X132898815Y-83908732D01*
X132898815Y-83519210D01*
X133082631Y-83519210D01*
X133082631Y-84655526D01*
G36*
X133724130Y-83840104D02*
X133790220Y-83845066D01*
X133876626Y-84104079D01*
X133963031Y-84363092D01*
X133990124Y-84271184D01*
X134006428Y-84214384D01*
X134027875Y-84137625D01*
X134051035Y-84053251D01*
X134063280Y-84007993D01*
X134109344Y-83836710D01*
X134299387Y-83836710D01*
X134242582Y-84016349D01*
X134214607Y-84104704D01*
X134180813Y-84211281D01*
X134145520Y-84322454D01*
X134114013Y-84421579D01*
X134042250Y-84647171D01*
X133887286Y-84657253D01*
X133845270Y-84518528D01*
X133819359Y-84432351D01*
X133791083Y-84337347D01*
X133766369Y-84253441D01*
X133765394Y-84250102D01*
X133746935Y-84193248D01*
X133730649Y-84154456D01*
X133719242Y-84139787D01*
X133716898Y-84141483D01*
X133708671Y-84164225D01*
X133693038Y-84212940D01*
X133671904Y-84281502D01*
X133647170Y-84363785D01*
X133633787Y-84409046D01*
X133561311Y-84655526D01*
X133407495Y-84655526D01*
X133284531Y-84267006D01*
X133249988Y-84158022D01*
X133218521Y-84059048D01*
X133191616Y-83974736D01*
X133170759Y-83909734D01*
X133157438Y-83868692D01*
X133153388Y-83856701D01*
X133156594Y-83844423D01*
X133181765Y-83839046D01*
X133234146Y-83839584D01*
X133242345Y-83839990D01*
X133339482Y-83845066D01*
X133403100Y-84079013D01*
X133426484Y-84164333D01*
X133447381Y-84239335D01*
X133463951Y-84297507D01*
X133474354Y-84332337D01*
X133476276Y-84338016D01*
X133484241Y-84331486D01*
X133500304Y-84297654D01*
X133522621Y-84241127D01*
X133549345Y-84166510D01*
X133571937Y-84099107D01*
X133658041Y-83835143D01*
X133724130Y-83840104D01*
X133724130Y-83840104D01*
G37*
X133724130Y-83840104D02*
X133790220Y-83845066D01*
X133876626Y-84104079D01*
X133963031Y-84363092D01*
X133990124Y-84271184D01*
X134006428Y-84214384D01*
X134027875Y-84137625D01*
X134051035Y-84053251D01*
X134063280Y-84007993D01*
X134109344Y-83836710D01*
X134299387Y-83836710D01*
X134242582Y-84016349D01*
X134214607Y-84104704D01*
X134180813Y-84211281D01*
X134145520Y-84322454D01*
X134114013Y-84421579D01*
X134042250Y-84647171D01*
X133887286Y-84657253D01*
X133845270Y-84518528D01*
X133819359Y-84432351D01*
X133791083Y-84337347D01*
X133766369Y-84253441D01*
X133765394Y-84250102D01*
X133746935Y-84193248D01*
X133730649Y-84154456D01*
X133719242Y-84139787D01*
X133716898Y-84141483D01*
X133708671Y-84164225D01*
X133693038Y-84212940D01*
X133671904Y-84281502D01*
X133647170Y-84363785D01*
X133633787Y-84409046D01*
X133561311Y-84655526D01*
X133407495Y-84655526D01*
X133284531Y-84267006D01*
X133249988Y-84158022D01*
X133218521Y-84059048D01*
X133191616Y-83974736D01*
X133170759Y-83909734D01*
X133157438Y-83868692D01*
X133153388Y-83856701D01*
X133156594Y-83844423D01*
X133181765Y-83839046D01*
X133234146Y-83839584D01*
X133242345Y-83839990D01*
X133339482Y-83845066D01*
X133403100Y-84079013D01*
X133426484Y-84164333D01*
X133447381Y-84239335D01*
X133463951Y-84297507D01*
X133474354Y-84332337D01*
X133476276Y-84338016D01*
X133484241Y-84331486D01*
X133500304Y-84297654D01*
X133522621Y-84241127D01*
X133549345Y-84166510D01*
X133571937Y-84099107D01*
X133658041Y-83835143D01*
X133724130Y-83840104D01*
G36*
X134729992Y-83841673D02*
X134800427Y-83858780D01*
X134820787Y-83867844D01*
X134860253Y-83891583D01*
X134890541Y-83918321D01*
X134912952Y-83952699D01*
X134928786Y-83999360D01*
X134939343Y-84062946D01*
X134945924Y-84148099D01*
X134949828Y-84259462D01*
X134951310Y-84333849D01*
X134956765Y-84655526D01*
X134863580Y-84655526D01*
X134807047Y-84653156D01*
X134777922Y-84645055D01*
X134770394Y-84631451D01*
X134766420Y-84616741D01*
X134748652Y-84619554D01*
X134724440Y-84631348D01*
X134663828Y-84649427D01*
X134585929Y-84654299D01*
X134503995Y-84646330D01*
X134431281Y-84625889D01*
X134424759Y-84623051D01*
X134358302Y-84576365D01*
X134314491Y-84511464D01*
X134294332Y-84435600D01*
X134295872Y-84408344D01*
X134460345Y-84408344D01*
X134474837Y-84445024D01*
X134517805Y-84471309D01*
X134587129Y-84485417D01*
X134624177Y-84487290D01*
X134685919Y-84482494D01*
X134726960Y-84463858D01*
X134736973Y-84455000D01*
X134764100Y-84406806D01*
X134770394Y-84363092D01*
X134770394Y-84304605D01*
X134688930Y-84304605D01*
X134594234Y-84309432D01*
X134527813Y-84324613D01*
X134485846Y-84351200D01*
X134476449Y-84363052D01*
X134460345Y-84408344D01*
X134295872Y-84408344D01*
X134298829Y-84356026D01*
X134328985Y-84279995D01*
X134370131Y-84228612D01*
X134395052Y-84206397D01*
X134419448Y-84191798D01*
X134451191Y-84182897D01*
X134498152Y-84177775D01*
X134568204Y-84174515D01*
X134595990Y-84173577D01*
X134770394Y-84167879D01*
X134770138Y-84115091D01*
X134763384Y-84059603D01*
X134738964Y-84026052D01*
X134689630Y-84004618D01*
X134688306Y-84004236D01*
X134618360Y-83995808D01*
X134549914Y-84006816D01*
X134499047Y-84033585D01*
X134478637Y-84046803D01*
X134456654Y-84044974D01*
X134422826Y-84025824D01*
X134402961Y-84012308D01*
X134364106Y-83983432D01*
X134340038Y-83961786D01*
X134336176Y-83955589D01*
X134352079Y-83923519D01*
X134399065Y-83885219D01*
X134419473Y-83872297D01*
X134478143Y-83850041D01*
X134557212Y-83837432D01*
X134645041Y-83834600D01*
X134729992Y-83841673D01*
X134729992Y-83841673D01*
G37*
X134729992Y-83841673D02*
X134800427Y-83858780D01*
X134820787Y-83867844D01*
X134860253Y-83891583D01*
X134890541Y-83918321D01*
X134912952Y-83952699D01*
X134928786Y-83999360D01*
X134939343Y-84062946D01*
X134945924Y-84148099D01*
X134949828Y-84259462D01*
X134951310Y-84333849D01*
X134956765Y-84655526D01*
X134863580Y-84655526D01*
X134807047Y-84653156D01*
X134777922Y-84645055D01*
X134770394Y-84631451D01*
X134766420Y-84616741D01*
X134748652Y-84619554D01*
X134724440Y-84631348D01*
X134663828Y-84649427D01*
X134585929Y-84654299D01*
X134503995Y-84646330D01*
X134431281Y-84625889D01*
X134424759Y-84623051D01*
X134358302Y-84576365D01*
X134314491Y-84511464D01*
X134294332Y-84435600D01*
X134295872Y-84408344D01*
X134460345Y-84408344D01*
X134474837Y-84445024D01*
X134517805Y-84471309D01*
X134587129Y-84485417D01*
X134624177Y-84487290D01*
X134685919Y-84482494D01*
X134726960Y-84463858D01*
X134736973Y-84455000D01*
X134764100Y-84406806D01*
X134770394Y-84363092D01*
X134770394Y-84304605D01*
X134688930Y-84304605D01*
X134594234Y-84309432D01*
X134527813Y-84324613D01*
X134485846Y-84351200D01*
X134476449Y-84363052D01*
X134460345Y-84408344D01*
X134295872Y-84408344D01*
X134298829Y-84356026D01*
X134328985Y-84279995D01*
X134370131Y-84228612D01*
X134395052Y-84206397D01*
X134419448Y-84191798D01*
X134451191Y-84182897D01*
X134498152Y-84177775D01*
X134568204Y-84174515D01*
X134595990Y-84173577D01*
X134770394Y-84167879D01*
X134770138Y-84115091D01*
X134763384Y-84059603D01*
X134738964Y-84026052D01*
X134689630Y-84004618D01*
X134688306Y-84004236D01*
X134618360Y-83995808D01*
X134549914Y-84006816D01*
X134499047Y-84033585D01*
X134478637Y-84046803D01*
X134456654Y-84044974D01*
X134422826Y-84025824D01*
X134402961Y-84012308D01*
X134364106Y-83983432D01*
X134340038Y-83961786D01*
X134336176Y-83955589D01*
X134352079Y-83923519D01*
X134399065Y-83885219D01*
X134419473Y-83872297D01*
X134478143Y-83850041D01*
X134557212Y-83837432D01*
X134645041Y-83834600D01*
X134729992Y-83841673D01*
G36*
X135523167Y-83836447D02*
X135587408Y-83849112D01*
X135623980Y-83867864D01*
X135662453Y-83899017D01*
X135607717Y-83968127D01*
X135573969Y-84009979D01*
X135551053Y-84030398D01*
X135528279Y-84033517D01*
X135494956Y-84023472D01*
X135479314Y-84017789D01*
X135415542Y-84009404D01*
X135357140Y-84027378D01*
X135314264Y-84067982D01*
X135307299Y-84080929D01*
X135299713Y-84115224D01*
X135293859Y-84178427D01*
X135290011Y-84266060D01*
X135288443Y-84373640D01*
X135288421Y-84388944D01*
X135288421Y-84655526D01*
X135104605Y-84655526D01*
X135104605Y-83836710D01*
X135196513Y-83836710D01*
X135249507Y-83838094D01*
X135277115Y-83844252D01*
X135287324Y-83858194D01*
X135288421Y-83871344D01*
X135288421Y-83905978D01*
X135332450Y-83871344D01*
X135382937Y-83847716D01*
X135450760Y-83836033D01*
X135523167Y-83836447D01*
X135523167Y-83836447D01*
G37*
X135523167Y-83836447D02*
X135587408Y-83849112D01*
X135623980Y-83867864D01*
X135662453Y-83899017D01*
X135607717Y-83968127D01*
X135573969Y-84009979D01*
X135551053Y-84030398D01*
X135528279Y-84033517D01*
X135494956Y-84023472D01*
X135479314Y-84017789D01*
X135415542Y-84009404D01*
X135357140Y-84027378D01*
X135314264Y-84067982D01*
X135307299Y-84080929D01*
X135299713Y-84115224D01*
X135293859Y-84178427D01*
X135290011Y-84266060D01*
X135288443Y-84373640D01*
X135288421Y-84388944D01*
X135288421Y-84655526D01*
X135104605Y-84655526D01*
X135104605Y-83836710D01*
X135196513Y-83836710D01*
X135249507Y-83838094D01*
X135277115Y-83844252D01*
X135287324Y-83858194D01*
X135288421Y-83871344D01*
X135288421Y-83905978D01*
X135332450Y-83871344D01*
X135382937Y-83847716D01*
X135450760Y-83836033D01*
X135523167Y-83836447D01*
G36*
X136051193Y-83841078D02*
X136131068Y-83861845D01*
X136197962Y-83904705D01*
X136230351Y-83936723D01*
X136283445Y-84012413D01*
X136313873Y-84100216D01*
X136324327Y-84208150D01*
X136324380Y-84216875D01*
X136324473Y-84304605D01*
X135819534Y-84304605D01*
X135830298Y-84350559D01*
X135849732Y-84392178D01*
X135883745Y-84435544D01*
X135890860Y-84442467D01*
X135952003Y-84479935D01*
X136021729Y-84486289D01*
X136101987Y-84461638D01*
X136115592Y-84455000D01*
X136157319Y-84434819D01*
X136185268Y-84423321D01*
X136190145Y-84422258D01*
X136207168Y-84432583D01*
X136239633Y-84457845D01*
X136256114Y-84471650D01*
X136290264Y-84503361D01*
X136301478Y-84524299D01*
X136293695Y-84543560D01*
X136289535Y-84548827D01*
X136261357Y-84571878D01*
X136214862Y-84599892D01*
X136182434Y-84616246D01*
X136090385Y-84645059D01*
X135988476Y-84654395D01*
X135891963Y-84643332D01*
X135864934Y-84635412D01*
X135781276Y-84590581D01*
X135719266Y-84521598D01*
X135678545Y-84427794D01*
X135658755Y-84308498D01*
X135656582Y-84246118D01*
X135662926Y-84155298D01*
X135823157Y-84155298D01*
X135838655Y-84162012D01*
X135880312Y-84167280D01*
X135940876Y-84170389D01*
X135981907Y-84170921D01*
X136055711Y-84170408D01*
X136102293Y-84168006D01*
X136127848Y-84162422D01*
X136138569Y-84152361D01*
X136140657Y-84137763D01*
X136126331Y-84092796D01*
X136090262Y-84048353D01*
X136042815Y-84014242D01*
X135995349Y-84000288D01*
X135930879Y-84012666D01*
X135875070Y-84048452D01*
X135836374Y-84100033D01*
X135823157Y-84155298D01*
X135662926Y-84155298D01*
X135665821Y-84113866D01*
X135694336Y-84008498D01*
X135742729Y-83929178D01*
X135811604Y-83875071D01*
X135901565Y-83845343D01*
X135950300Y-83839618D01*
X136051193Y-83841078D01*
X136051193Y-83841078D01*
G37*
X136051193Y-83841078D02*
X136131068Y-83861845D01*
X136197962Y-83904705D01*
X136230351Y-83936723D01*
X136283445Y-84012413D01*
X136313873Y-84100216D01*
X136324327Y-84208150D01*
X136324380Y-84216875D01*
X136324473Y-84304605D01*
X135819534Y-84304605D01*
X135830298Y-84350559D01*
X135849732Y-84392178D01*
X135883745Y-84435544D01*
X135890860Y-84442467D01*
X135952003Y-84479935D01*
X136021729Y-84486289D01*
X136101987Y-84461638D01*
X136115592Y-84455000D01*
X136157319Y-84434819D01*
X136185268Y-84423321D01*
X136190145Y-84422258D01*
X136207168Y-84432583D01*
X136239633Y-84457845D01*
X136256114Y-84471650D01*
X136290264Y-84503361D01*
X136301478Y-84524299D01*
X136293695Y-84543560D01*
X136289535Y-84548827D01*
X136261357Y-84571878D01*
X136214862Y-84599892D01*
X136182434Y-84616246D01*
X136090385Y-84645059D01*
X135988476Y-84654395D01*
X135891963Y-84643332D01*
X135864934Y-84635412D01*
X135781276Y-84590581D01*
X135719266Y-84521598D01*
X135678545Y-84427794D01*
X135658755Y-84308498D01*
X135656582Y-84246118D01*
X135662926Y-84155298D01*
X135823157Y-84155298D01*
X135838655Y-84162012D01*
X135880312Y-84167280D01*
X135940876Y-84170389D01*
X135981907Y-84170921D01*
X136055711Y-84170408D01*
X136102293Y-84168006D01*
X136127848Y-84162422D01*
X136138569Y-84152361D01*
X136140657Y-84137763D01*
X136126331Y-84092796D01*
X136090262Y-84048353D01*
X136042815Y-84014242D01*
X135995349Y-84000288D01*
X135930879Y-84012666D01*
X135875070Y-84048452D01*
X135836374Y-84100033D01*
X135823157Y-84155298D01*
X135662926Y-84155298D01*
X135665821Y-84113866D01*
X135694336Y-84008498D01*
X135742729Y-83929178D01*
X135811604Y-83875071D01*
X135901565Y-83845343D01*
X135950300Y-83839618D01*
X136051193Y-83841078D01*
G36*
X129976784Y-82592104D02*
X130064205Y-82630754D01*
X130130570Y-82695290D01*
X130175976Y-82785812D01*
X130200518Y-82902418D01*
X130202277Y-82920624D01*
X130203656Y-83048984D01*
X130185784Y-83161496D01*
X130149750Y-83252688D01*
X130130455Y-83282022D01*
X130063245Y-83344106D01*
X129977650Y-83384316D01*
X129881890Y-83401003D01*
X129784187Y-83392517D01*
X129709917Y-83366380D01*
X129646047Y-83322335D01*
X129593846Y-83264587D01*
X129592943Y-83263236D01*
X129571744Y-83227593D01*
X129557967Y-83191752D01*
X129549624Y-83146519D01*
X129544727Y-83082701D01*
X129542569Y-83030368D01*
X129541671Y-82982910D01*
X129708743Y-82982910D01*
X129710376Y-83030154D01*
X129716304Y-83093046D01*
X129726761Y-83133407D01*
X129745619Y-83162122D01*
X129763281Y-83178896D01*
X129825894Y-83214016D01*
X129891408Y-83218710D01*
X129952421Y-83193440D01*
X129982928Y-83165124D01*
X130004911Y-83136589D01*
X130017769Y-83109284D01*
X130023412Y-83073750D01*
X130023751Y-83020524D01*
X130022012Y-82971506D01*
X130018271Y-82901482D01*
X130012341Y-82856064D01*
X130001653Y-82826440D01*
X129983639Y-82803797D01*
X129969363Y-82790855D01*
X129909651Y-82756860D01*
X129845234Y-82755165D01*
X129791219Y-82775301D01*
X129745140Y-82817352D01*
X129717689Y-82886428D01*
X129708743Y-82982910D01*
X129541671Y-82982910D01*
X129540599Y-82926299D01*
X129543964Y-82848468D01*
X129554045Y-82789930D01*
X129572226Y-82743737D01*
X129599890Y-82702942D01*
X129610146Y-82690828D01*
X129674278Y-82630474D01*
X129743066Y-82595220D01*
X129827189Y-82580450D01*
X129868209Y-82579243D01*
X129976784Y-82592104D01*
X129976784Y-82592104D01*
G37*
X129976784Y-82592104D02*
X130064205Y-82630754D01*
X130130570Y-82695290D01*
X130175976Y-82785812D01*
X130200518Y-82902418D01*
X130202277Y-82920624D01*
X130203656Y-83048984D01*
X130185784Y-83161496D01*
X130149750Y-83252688D01*
X130130455Y-83282022D01*
X130063245Y-83344106D01*
X129977650Y-83384316D01*
X129881890Y-83401003D01*
X129784187Y-83392517D01*
X129709917Y-83366380D01*
X129646047Y-83322335D01*
X129593846Y-83264587D01*
X129592943Y-83263236D01*
X129571744Y-83227593D01*
X129557967Y-83191752D01*
X129549624Y-83146519D01*
X129544727Y-83082701D01*
X129542569Y-83030368D01*
X129541671Y-82982910D01*
X129708743Y-82982910D01*
X129710376Y-83030154D01*
X129716304Y-83093046D01*
X129726761Y-83133407D01*
X129745619Y-83162122D01*
X129763281Y-83178896D01*
X129825894Y-83214016D01*
X129891408Y-83218710D01*
X129952421Y-83193440D01*
X129982928Y-83165124D01*
X130004911Y-83136589D01*
X130017769Y-83109284D01*
X130023412Y-83073750D01*
X130023751Y-83020524D01*
X130022012Y-82971506D01*
X130018271Y-82901482D01*
X130012341Y-82856064D01*
X130001653Y-82826440D01*
X129983639Y-82803797D01*
X129969363Y-82790855D01*
X129909651Y-82756860D01*
X129845234Y-82755165D01*
X129791219Y-82775301D01*
X129745140Y-82817352D01*
X129717689Y-82886428D01*
X129708743Y-82982910D01*
X129541671Y-82982910D01*
X129540599Y-82926299D01*
X129543964Y-82848468D01*
X129554045Y-82789930D01*
X129572226Y-82743737D01*
X129599890Y-82702942D01*
X129610146Y-82690828D01*
X129674278Y-82630474D01*
X129743066Y-82595220D01*
X129827189Y-82580450D01*
X129868209Y-82579243D01*
X129976784Y-82592104D01*
G36*
X131547018Y-82602027D02*
X131563670Y-82609866D01*
X131621305Y-82652086D01*
X131675805Y-82713700D01*
X131716499Y-82781543D01*
X131728074Y-82812734D01*
X131738634Y-82868449D01*
X131744931Y-82935781D01*
X131745696Y-82963585D01*
X131745789Y-83051316D01*
X131240850Y-83051316D01*
X131251613Y-83097270D01*
X131278033Y-83151620D01*
X131324222Y-83198591D01*
X131379172Y-83228848D01*
X131414189Y-83235131D01*
X131461677Y-83227506D01*
X131518335Y-83208383D01*
X131537582Y-83199584D01*
X131608759Y-83164036D01*
X131669502Y-83210367D01*
X131704552Y-83241703D01*
X131723202Y-83267567D01*
X131724147Y-83275158D01*
X131707485Y-83293556D01*
X131670970Y-83321515D01*
X131637828Y-83343327D01*
X131548393Y-83382537D01*
X131448129Y-83400285D01*
X131348754Y-83395670D01*
X131269539Y-83371551D01*
X131187880Y-83319884D01*
X131129849Y-83251856D01*
X131093546Y-83163843D01*
X131077072Y-83052216D01*
X131075611Y-83001138D01*
X131081457Y-82884091D01*
X131082175Y-82880686D01*
X131249489Y-82880686D01*
X131254097Y-82891662D01*
X131273036Y-82897715D01*
X131312098Y-82900310D01*
X131377077Y-82900910D01*
X131402097Y-82900921D01*
X131478221Y-82900014D01*
X131526496Y-82896720D01*
X131552460Y-82890181D01*
X131561648Y-82879537D01*
X131561973Y-82876119D01*
X131551487Y-82848956D01*
X131525242Y-82810903D01*
X131513959Y-82797579D01*
X131472072Y-82759896D01*
X131428409Y-82745080D01*
X131404885Y-82743842D01*
X131341243Y-82759329D01*
X131287873Y-82800930D01*
X131254019Y-82861353D01*
X131253419Y-82863322D01*
X131249489Y-82880686D01*
X131082175Y-82880686D01*
X131100899Y-82791928D01*
X131135922Y-82718190D01*
X131178756Y-82665848D01*
X131257948Y-82609092D01*
X131351040Y-82578762D01*
X131450055Y-82576021D01*
X131547018Y-82602027D01*
X131547018Y-82602027D01*
G37*
X131547018Y-82602027D02*
X131563670Y-82609866D01*
X131621305Y-82652086D01*
X131675805Y-82713700D01*
X131716499Y-82781543D01*
X131728074Y-82812734D01*
X131738634Y-82868449D01*
X131744931Y-82935781D01*
X131745696Y-82963585D01*
X131745789Y-83051316D01*
X131240850Y-83051316D01*
X131251613Y-83097270D01*
X131278033Y-83151620D01*
X131324222Y-83198591D01*
X131379172Y-83228848D01*
X131414189Y-83235131D01*
X131461677Y-83227506D01*
X131518335Y-83208383D01*
X131537582Y-83199584D01*
X131608759Y-83164036D01*
X131669502Y-83210367D01*
X131704552Y-83241703D01*
X131723202Y-83267567D01*
X131724147Y-83275158D01*
X131707485Y-83293556D01*
X131670970Y-83321515D01*
X131637828Y-83343327D01*
X131548393Y-83382537D01*
X131448129Y-83400285D01*
X131348754Y-83395670D01*
X131269539Y-83371551D01*
X131187880Y-83319884D01*
X131129849Y-83251856D01*
X131093546Y-83163843D01*
X131077072Y-83052216D01*
X131075611Y-83001138D01*
X131081457Y-82884091D01*
X131082175Y-82880686D01*
X131249489Y-82880686D01*
X131254097Y-82891662D01*
X131273036Y-82897715D01*
X131312098Y-82900310D01*
X131377077Y-82900910D01*
X131402097Y-82900921D01*
X131478221Y-82900014D01*
X131526496Y-82896720D01*
X131552460Y-82890181D01*
X131561648Y-82879537D01*
X131561973Y-82876119D01*
X131551487Y-82848956D01*
X131525242Y-82810903D01*
X131513959Y-82797579D01*
X131472072Y-82759896D01*
X131428409Y-82745080D01*
X131404885Y-82743842D01*
X131341243Y-82759329D01*
X131287873Y-82800930D01*
X131254019Y-82861353D01*
X131253419Y-82863322D01*
X131249489Y-82880686D01*
X131082175Y-82880686D01*
X131100899Y-82791928D01*
X131135922Y-82718190D01*
X131178756Y-82665848D01*
X131257948Y-82609092D01*
X131351040Y-82578762D01*
X131450055Y-82576021D01*
X131547018Y-82602027D01*
G36*
X133368628Y-82580547D02*
X133431908Y-82592548D01*
X133497557Y-82617648D01*
X133504572Y-82620848D01*
X133554356Y-82647026D01*
X133588834Y-82671353D01*
X133599978Y-82686937D01*
X133589366Y-82712353D01*
X133563588Y-82749853D01*
X133552146Y-82763852D01*
X133504992Y-82818954D01*
X133444201Y-82783086D01*
X133386347Y-82759192D01*
X133319500Y-82746420D01*
X133255394Y-82745613D01*
X133205764Y-82757615D01*
X133193854Y-82765105D01*
X133171172Y-82799450D01*
X133168416Y-82839013D01*
X133185388Y-82869920D01*
X133195427Y-82875913D01*
X133225510Y-82883357D01*
X133278389Y-82892106D01*
X133343575Y-82900467D01*
X133355600Y-82901778D01*
X133460297Y-82919888D01*
X133536232Y-82950651D01*
X133586592Y-82996907D01*
X133614564Y-83061497D01*
X133623278Y-83140387D01*
X133611240Y-83230065D01*
X133572151Y-83300486D01*
X133505855Y-83351777D01*
X133412194Y-83384067D01*
X133308223Y-83396807D01*
X133223438Y-83396654D01*
X133154665Y-83385083D01*
X133107697Y-83369109D01*
X133048350Y-83341275D01*
X132993506Y-83308973D01*
X132974013Y-83294755D01*
X132923881Y-83253835D01*
X133044803Y-83131477D01*
X133113543Y-83176967D01*
X133182488Y-83211133D01*
X133256111Y-83229004D01*
X133326883Y-83230889D01*
X133387274Y-83217101D01*
X133429757Y-83187949D01*
X133443474Y-83163352D01*
X133441417Y-83123904D01*
X133407330Y-83093737D01*
X133341308Y-83072906D01*
X133268974Y-83063279D01*
X133157652Y-83044910D01*
X133074952Y-83010254D01*
X133019765Y-82958297D01*
X132990988Y-82888023D01*
X132987001Y-82804707D01*
X133006693Y-82717681D01*
X133051589Y-82651902D01*
X133122091Y-82607068D01*
X133218601Y-82582879D01*
X133290100Y-82578137D01*
X133368628Y-82580547D01*
X133368628Y-82580547D01*
G37*
X133368628Y-82580547D02*
X133431908Y-82592548D01*
X133497557Y-82617648D01*
X133504572Y-82620848D01*
X133554356Y-82647026D01*
X133588834Y-82671353D01*
X133599978Y-82686937D01*
X133589366Y-82712353D01*
X133563588Y-82749853D01*
X133552146Y-82763852D01*
X133504992Y-82818954D01*
X133444201Y-82783086D01*
X133386347Y-82759192D01*
X133319500Y-82746420D01*
X133255394Y-82745613D01*
X133205764Y-82757615D01*
X133193854Y-82765105D01*
X133171172Y-82799450D01*
X133168416Y-82839013D01*
X133185388Y-82869920D01*
X133195427Y-82875913D01*
X133225510Y-82883357D01*
X133278389Y-82892106D01*
X133343575Y-82900467D01*
X133355600Y-82901778D01*
X133460297Y-82919888D01*
X133536232Y-82950651D01*
X133586592Y-82996907D01*
X133614564Y-83061497D01*
X133623278Y-83140387D01*
X133611240Y-83230065D01*
X133572151Y-83300486D01*
X133505855Y-83351777D01*
X133412194Y-83384067D01*
X133308223Y-83396807D01*
X133223438Y-83396654D01*
X133154665Y-83385083D01*
X133107697Y-83369109D01*
X133048350Y-83341275D01*
X132993506Y-83308973D01*
X132974013Y-83294755D01*
X132923881Y-83253835D01*
X133044803Y-83131477D01*
X133113543Y-83176967D01*
X133182488Y-83211133D01*
X133256111Y-83229004D01*
X133326883Y-83230889D01*
X133387274Y-83217101D01*
X133429757Y-83187949D01*
X133443474Y-83163352D01*
X133441417Y-83123904D01*
X133407330Y-83093737D01*
X133341308Y-83072906D01*
X133268974Y-83063279D01*
X133157652Y-83044910D01*
X133074952Y-83010254D01*
X133019765Y-82958297D01*
X132990988Y-82888023D01*
X132987001Y-82804707D01*
X133006693Y-82717681D01*
X133051589Y-82651902D01*
X133122091Y-82607068D01*
X133218601Y-82582879D01*
X133290100Y-82578137D01*
X133368628Y-82580547D01*
G36*
X134161669Y-82593310D02*
X134246192Y-82639340D01*
X134312321Y-82712006D01*
X134343478Y-82771106D01*
X134356855Y-82823305D01*
X134365522Y-82897719D01*
X134369237Y-82983442D01*
X134367754Y-83069569D01*
X134360831Y-83145193D01*
X134352745Y-83185584D01*
X134325465Y-83240840D01*
X134278220Y-83299530D01*
X134221282Y-83350852D01*
X134164924Y-83384005D01*
X134163550Y-83384531D01*
X134093616Y-83399018D01*
X134010737Y-83399377D01*
X133931977Y-83386188D01*
X133901566Y-83375617D01*
X133823239Y-83331201D01*
X133767143Y-83273007D01*
X133730286Y-83195965D01*
X133709680Y-83095001D01*
X133705018Y-83042116D01*
X133705613Y-82975663D01*
X133884736Y-82975663D01*
X133890770Y-83072630D01*
X133908138Y-83146523D01*
X133935740Y-83193736D01*
X133955404Y-83207237D01*
X134005787Y-83216651D01*
X134065673Y-83213864D01*
X134117449Y-83200316D01*
X134131027Y-83192862D01*
X134166849Y-83149451D01*
X134190493Y-83083014D01*
X134200558Y-83002161D01*
X134195642Y-82915502D01*
X134184655Y-82863349D01*
X134153109Y-82802951D01*
X134103311Y-82765197D01*
X134043337Y-82752143D01*
X133981264Y-82765849D01*
X133933582Y-82799372D01*
X133908525Y-82827031D01*
X133893900Y-82854294D01*
X133886929Y-82891190D01*
X133884833Y-82947750D01*
X133884736Y-82975663D01*
X133705613Y-82975663D01*
X133706282Y-82900994D01*
X133729265Y-82785271D01*
X133773972Y-82694941D01*
X133840405Y-82630000D01*
X133928565Y-82590445D01*
X133947495Y-82585858D01*
X134061266Y-82575090D01*
X134161669Y-82593310D01*
X134161669Y-82593310D01*
G37*
X134161669Y-82593310D02*
X134246192Y-82639340D01*
X134312321Y-82712006D01*
X134343478Y-82771106D01*
X134356855Y-82823305D01*
X134365522Y-82897719D01*
X134369237Y-82983442D01*
X134367754Y-83069569D01*
X134360831Y-83145193D01*
X134352745Y-83185584D01*
X134325465Y-83240840D01*
X134278220Y-83299530D01*
X134221282Y-83350852D01*
X134164924Y-83384005D01*
X134163550Y-83384531D01*
X134093616Y-83399018D01*
X134010737Y-83399377D01*
X133931977Y-83386188D01*
X133901566Y-83375617D01*
X133823239Y-83331201D01*
X133767143Y-83273007D01*
X133730286Y-83195965D01*
X133709680Y-83095001D01*
X133705018Y-83042116D01*
X133705613Y-82975663D01*
X133884736Y-82975663D01*
X133890770Y-83072630D01*
X133908138Y-83146523D01*
X133935740Y-83193736D01*
X133955404Y-83207237D01*
X134005787Y-83216651D01*
X134065673Y-83213864D01*
X134117449Y-83200316D01*
X134131027Y-83192862D01*
X134166849Y-83149451D01*
X134190493Y-83083014D01*
X134200558Y-83002161D01*
X134195642Y-82915502D01*
X134184655Y-82863349D01*
X134153109Y-82802951D01*
X134103311Y-82765197D01*
X134043337Y-82752143D01*
X133981264Y-82765849D01*
X133933582Y-82799372D01*
X133908525Y-82827031D01*
X133893900Y-82854294D01*
X133886929Y-82891190D01*
X133884833Y-82947750D01*
X133884736Y-82975663D01*
X133705613Y-82975663D01*
X133706282Y-82900994D01*
X133729265Y-82785271D01*
X133773972Y-82694941D01*
X133840405Y-82630000D01*
X133928565Y-82590445D01*
X133947495Y-82585858D01*
X134061266Y-82575090D01*
X134161669Y-82593310D01*
G36*
X134670131Y-82843533D02*
X134671710Y-82966089D01*
X134677481Y-83059179D01*
X134688991Y-83126651D01*
X134707790Y-83172355D01*
X134735426Y-83200139D01*
X134773448Y-83213854D01*
X134820526Y-83217358D01*
X134869832Y-83213432D01*
X134907283Y-83199089D01*
X134934428Y-83170478D01*
X134952815Y-83123751D01*
X134963993Y-83055058D01*
X134969511Y-82960550D01*
X134970921Y-82843533D01*
X134970921Y-82583421D01*
X135154736Y-82583421D01*
X135154736Y-83385526D01*
X135062828Y-83385526D01*
X135007422Y-83383281D01*
X134978891Y-83375396D01*
X134970921Y-83360428D01*
X134966120Y-83347097D01*
X134947014Y-83349917D01*
X134908504Y-83368783D01*
X134820239Y-83397887D01*
X134726623Y-83395825D01*
X134636921Y-83364221D01*
X134594204Y-83339257D01*
X134561621Y-83312226D01*
X134537817Y-83278405D01*
X134521439Y-83233068D01*
X134511131Y-83171489D01*
X134505541Y-83088943D01*
X134503312Y-82980705D01*
X134503026Y-82897004D01*
X134503026Y-82583421D01*
X134670131Y-82583421D01*
X134670131Y-82843533D01*
X134670131Y-82843533D01*
G37*
X134670131Y-82843533D02*
X134671710Y-82966089D01*
X134677481Y-83059179D01*
X134688991Y-83126651D01*
X134707790Y-83172355D01*
X134735426Y-83200139D01*
X134773448Y-83213854D01*
X134820526Y-83217358D01*
X134869832Y-83213432D01*
X134907283Y-83199089D01*
X134934428Y-83170478D01*
X134952815Y-83123751D01*
X134963993Y-83055058D01*
X134969511Y-82960550D01*
X134970921Y-82843533D01*
X134970921Y-82583421D01*
X135154736Y-82583421D01*
X135154736Y-83385526D01*
X135062828Y-83385526D01*
X135007422Y-83383281D01*
X134978891Y-83375396D01*
X134970921Y-83360428D01*
X134966120Y-83347097D01*
X134947014Y-83349917D01*
X134908504Y-83368783D01*
X134820239Y-83397887D01*
X134726623Y-83395825D01*
X134636921Y-83364221D01*
X134594204Y-83339257D01*
X134561621Y-83312226D01*
X134537817Y-83278405D01*
X134521439Y-83233068D01*
X134511131Y-83171489D01*
X134505541Y-83088943D01*
X134503312Y-82980705D01*
X134503026Y-82897004D01*
X134503026Y-82583421D01*
X134670131Y-82583421D01*
X134670131Y-82843533D01*
G36*
X136296576Y-82590419D02*
X136393395Y-82631549D01*
X136423890Y-82651571D01*
X136462865Y-82682340D01*
X136487331Y-82706533D01*
X136491578Y-82714413D01*
X136479584Y-82731899D01*
X136448887Y-82761570D01*
X136424312Y-82782279D01*
X136357046Y-82836336D01*
X136303930Y-82791642D01*
X136262884Y-82762789D01*
X136222863Y-82752829D01*
X136177059Y-82755261D01*
X136104324Y-82773345D01*
X136054256Y-82810881D01*
X136023829Y-82871562D01*
X136010017Y-82959081D01*
X136010013Y-82959136D01*
X136011208Y-83056958D01*
X136029772Y-83128730D01*
X136066804Y-83177595D01*
X136092050Y-83194143D01*
X136159097Y-83214749D01*
X136230709Y-83214762D01*
X136293015Y-83194768D01*
X136307763Y-83185000D01*
X136344750Y-83160047D01*
X136373668Y-83155958D01*
X136404856Y-83174530D01*
X136439336Y-83207887D01*
X136493912Y-83264196D01*
X136433318Y-83314142D01*
X136339698Y-83370513D01*
X136234125Y-83398293D01*
X136123798Y-83396282D01*
X136051343Y-83377862D01*
X135966656Y-83332310D01*
X135898927Y-83260650D01*
X135868157Y-83210066D01*
X135843236Y-83137488D01*
X135830766Y-83045569D01*
X135830670Y-82945948D01*
X135842870Y-82850267D01*
X135867290Y-82770169D01*
X135871136Y-82761956D01*
X135928093Y-82681413D01*
X136005209Y-82622771D01*
X136096390Y-82587247D01*
X136195543Y-82576057D01*
X136296576Y-82590419D01*
X136296576Y-82590419D01*
G37*
X136296576Y-82590419D02*
X136393395Y-82631549D01*
X136423890Y-82651571D01*
X136462865Y-82682340D01*
X136487331Y-82706533D01*
X136491578Y-82714413D01*
X136479584Y-82731899D01*
X136448887Y-82761570D01*
X136424312Y-82782279D01*
X136357046Y-82836336D01*
X136303930Y-82791642D01*
X136262884Y-82762789D01*
X136222863Y-82752829D01*
X136177059Y-82755261D01*
X136104324Y-82773345D01*
X136054256Y-82810881D01*
X136023829Y-82871562D01*
X136010017Y-82959081D01*
X136010013Y-82959136D01*
X136011208Y-83056958D01*
X136029772Y-83128730D01*
X136066804Y-83177595D01*
X136092050Y-83194143D01*
X136159097Y-83214749D01*
X136230709Y-83214762D01*
X136293015Y-83194768D01*
X136307763Y-83185000D01*
X136344750Y-83160047D01*
X136373668Y-83155958D01*
X136404856Y-83174530D01*
X136439336Y-83207887D01*
X136493912Y-83264196D01*
X136433318Y-83314142D01*
X136339698Y-83370513D01*
X136234125Y-83398293D01*
X136123798Y-83396282D01*
X136051343Y-83377862D01*
X135966656Y-83332310D01*
X135898927Y-83260650D01*
X135868157Y-83210066D01*
X135843236Y-83137488D01*
X135830766Y-83045569D01*
X135830670Y-82945948D01*
X135842870Y-82850267D01*
X135867290Y-82770169D01*
X135871136Y-82761956D01*
X135928093Y-82681413D01*
X136005209Y-82622771D01*
X136096390Y-82587247D01*
X136195543Y-82576057D01*
X136296576Y-82590419D01*
G36*
X136908784Y-82580554D02*
X136951574Y-82590949D01*
X137033609Y-82629013D01*
X137103757Y-82687149D01*
X137152305Y-82756852D01*
X137158975Y-82772502D01*
X137168124Y-82813496D01*
X137174529Y-82874138D01*
X137176710Y-82935430D01*
X137176710Y-83051316D01*
X136934407Y-83051316D01*
X136834471Y-83051693D01*
X136764069Y-83053987D01*
X136719313Y-83059938D01*
X136696315Y-83071285D01*
X136691189Y-83089771D01*
X136700048Y-83117136D01*
X136715917Y-83149155D01*
X136760184Y-83202592D01*
X136821699Y-83229215D01*
X136896885Y-83228347D01*
X136982053Y-83199371D01*
X137055659Y-83163611D01*
X137116734Y-83211904D01*
X137177810Y-83260197D01*
X137120351Y-83313285D01*
X137043641Y-83363445D01*
X136949302Y-83393688D01*
X136847827Y-83402151D01*
X136749711Y-83386974D01*
X136733881Y-83381824D01*
X136647647Y-83336791D01*
X136583501Y-83269652D01*
X136540091Y-83178405D01*
X136516064Y-83061044D01*
X136515784Y-83058529D01*
X136513633Y-82930627D01*
X136522329Y-82884997D01*
X136692105Y-82884997D01*
X136707697Y-82892013D01*
X136750029Y-82897388D01*
X136812434Y-82900457D01*
X136851981Y-82900921D01*
X136925728Y-82900630D01*
X136971840Y-82898783D01*
X136996100Y-82893912D01*
X137004294Y-82884555D01*
X137002206Y-82869245D01*
X137000455Y-82863322D01*
X136970560Y-82807668D01*
X136923542Y-82762815D01*
X136882049Y-82743105D01*
X136826926Y-82744295D01*
X136771068Y-82768875D01*
X136724212Y-82809570D01*
X136696094Y-82859108D01*
X136692105Y-82884997D01*
X136522329Y-82884997D01*
X136535074Y-82818133D01*
X136577611Y-82723727D01*
X136638747Y-82650088D01*
X136715985Y-82599893D01*
X136806830Y-82575822D01*
X136908784Y-82580554D01*
X136908784Y-82580554D01*
G37*
X136908784Y-82580554D02*
X136951574Y-82590949D01*
X137033609Y-82629013D01*
X137103757Y-82687149D01*
X137152305Y-82756852D01*
X137158975Y-82772502D01*
X137168124Y-82813496D01*
X137174529Y-82874138D01*
X137176710Y-82935430D01*
X137176710Y-83051316D01*
X136934407Y-83051316D01*
X136834471Y-83051693D01*
X136764069Y-83053987D01*
X136719313Y-83059938D01*
X136696315Y-83071285D01*
X136691189Y-83089771D01*
X136700048Y-83117136D01*
X136715917Y-83149155D01*
X136760184Y-83202592D01*
X136821699Y-83229215D01*
X136896885Y-83228347D01*
X136982053Y-83199371D01*
X137055659Y-83163611D01*
X137116734Y-83211904D01*
X137177810Y-83260197D01*
X137120351Y-83313285D01*
X137043641Y-83363445D01*
X136949302Y-83393688D01*
X136847827Y-83402151D01*
X136749711Y-83386974D01*
X136733881Y-83381824D01*
X136647647Y-83336791D01*
X136583501Y-83269652D01*
X136540091Y-83178405D01*
X136516064Y-83061044D01*
X136515784Y-83058529D01*
X136513633Y-82930627D01*
X136522329Y-82884997D01*
X136692105Y-82884997D01*
X136707697Y-82892013D01*
X136750029Y-82897388D01*
X136812434Y-82900457D01*
X136851981Y-82900921D01*
X136925728Y-82900630D01*
X136971840Y-82898783D01*
X136996100Y-82893912D01*
X137004294Y-82884555D01*
X137002206Y-82869245D01*
X137000455Y-82863322D01*
X136970560Y-82807668D01*
X136923542Y-82762815D01*
X136882049Y-82743105D01*
X136826926Y-82744295D01*
X136771068Y-82768875D01*
X136724212Y-82809570D01*
X136696094Y-82859108D01*
X136692105Y-82884997D01*
X136522329Y-82884997D01*
X136535074Y-82818133D01*
X136577611Y-82723727D01*
X136638747Y-82650088D01*
X136715985Y-82599893D01*
X136806830Y-82575822D01*
X136908784Y-82580554D01*
G36*
X132347957Y-82597226D02*
X132389546Y-82617090D01*
X132429825Y-82645784D01*
X132460510Y-82678809D01*
X132482861Y-82720931D01*
X132498136Y-82776915D01*
X132507592Y-82851528D01*
X132512487Y-82949535D01*
X132514081Y-83075702D01*
X132514106Y-83088914D01*
X132514473Y-83385526D01*
X132330657Y-83385526D01*
X132330657Y-83112081D01*
X132330527Y-83010777D01*
X132329621Y-82937353D01*
X132327173Y-82886271D01*
X132322414Y-82851990D01*
X132314574Y-82828971D01*
X132302885Y-82811673D01*
X132286602Y-82794581D01*
X132229634Y-82757857D01*
X132167445Y-82751042D01*
X132108199Y-82774261D01*
X132087595Y-82791543D01*
X132072470Y-82807791D01*
X132061610Y-82825191D01*
X132054310Y-82849212D01*
X132049863Y-82885322D01*
X132047564Y-82938988D01*
X132046704Y-83015680D01*
X132046578Y-83109043D01*
X132046578Y-83385526D01*
X131862763Y-83385526D01*
X131862763Y-82583421D01*
X131954671Y-82583421D01*
X132009851Y-82585603D01*
X132038320Y-82593351D01*
X132046575Y-82608468D01*
X132046578Y-82608916D01*
X132050408Y-82623720D01*
X132067301Y-82622040D01*
X132100888Y-82605773D01*
X132177063Y-82581840D01*
X132264200Y-82579178D01*
X132347957Y-82597226D01*
X132347957Y-82597226D01*
G37*
X132347957Y-82597226D02*
X132389546Y-82617090D01*
X132429825Y-82645784D01*
X132460510Y-82678809D01*
X132482861Y-82720931D01*
X132498136Y-82776915D01*
X132507592Y-82851528D01*
X132512487Y-82949535D01*
X132514081Y-83075702D01*
X132514106Y-83088914D01*
X132514473Y-83385526D01*
X132330657Y-83385526D01*
X132330657Y-83112081D01*
X132330527Y-83010777D01*
X132329621Y-82937353D01*
X132327173Y-82886271D01*
X132322414Y-82851990D01*
X132314574Y-82828971D01*
X132302885Y-82811673D01*
X132286602Y-82794581D01*
X132229634Y-82757857D01*
X132167445Y-82751042D01*
X132108199Y-82774261D01*
X132087595Y-82791543D01*
X132072470Y-82807791D01*
X132061610Y-82825191D01*
X132054310Y-82849212D01*
X132049863Y-82885322D01*
X132047564Y-82938988D01*
X132046704Y-83015680D01*
X132046578Y-83109043D01*
X132046578Y-83385526D01*
X131862763Y-83385526D01*
X131862763Y-82583421D01*
X131954671Y-82583421D01*
X132009851Y-82585603D01*
X132038320Y-82593351D01*
X132046575Y-82608468D01*
X132046578Y-82608916D01*
X132050408Y-82623720D01*
X132067301Y-82622040D01*
X132100888Y-82605773D01*
X132177063Y-82581840D01*
X132264200Y-82579178D01*
X132347957Y-82597226D01*
G36*
X135741388Y-82582645D02*
X135798865Y-82600206D01*
X135835872Y-82622395D01*
X135847927Y-82639942D01*
X135844609Y-82660742D01*
X135823079Y-82693419D01*
X135804874Y-82716562D01*
X135767344Y-82758402D01*
X135739148Y-82776005D01*
X135715111Y-82774856D01*
X135643808Y-82756710D01*
X135591442Y-82757534D01*
X135548918Y-82778098D01*
X135534642Y-82790134D01*
X135488947Y-82832483D01*
X135488947Y-83385526D01*
X135305131Y-83385526D01*
X135305131Y-82583421D01*
X135397039Y-82583421D01*
X135452219Y-82585603D01*
X135480688Y-82593351D01*
X135488943Y-82608468D01*
X135488947Y-82608916D01*
X135492845Y-82624749D01*
X135510474Y-82622684D01*
X135534901Y-82611261D01*
X135585350Y-82590005D01*
X135626316Y-82577216D01*
X135679028Y-82573938D01*
X135741388Y-82582645D01*
X135741388Y-82582645D01*
G37*
X135741388Y-82582645D02*
X135798865Y-82600206D01*
X135835872Y-82622395D01*
X135847927Y-82639942D01*
X135844609Y-82660742D01*
X135823079Y-82693419D01*
X135804874Y-82716562D01*
X135767344Y-82758402D01*
X135739148Y-82776005D01*
X135715111Y-82774856D01*
X135643808Y-82756710D01*
X135591442Y-82757534D01*
X135548918Y-82778098D01*
X135534642Y-82790134D01*
X135488947Y-82832483D01*
X135488947Y-83385526D01*
X135305131Y-83385526D01*
X135305131Y-82583421D01*
X135397039Y-82583421D01*
X135452219Y-82585603D01*
X135480688Y-82593351D01*
X135488943Y-82608468D01*
X135488947Y-82608916D01*
X135492845Y-82624749D01*
X135510474Y-82622684D01*
X135534901Y-82611261D01*
X135585350Y-82590005D01*
X135626316Y-82577216D01*
X135679028Y-82573938D01*
X135741388Y-82582645D01*
G36*
X133850964Y-77043576D02*
X133926513Y-77444322D01*
X134484041Y-77674154D01*
X134818465Y-77446748D01*
X134912122Y-77383431D01*
X134996782Y-77326896D01*
X135068495Y-77279727D01*
X135123311Y-77244502D01*
X135157280Y-77223805D01*
X135166530Y-77219342D01*
X135183195Y-77230820D01*
X135218806Y-77262551D01*
X135269371Y-77310483D01*
X135330900Y-77370562D01*
X135399399Y-77438733D01*
X135470879Y-77510945D01*
X135541347Y-77583142D01*
X135606811Y-77651273D01*
X135663280Y-77711283D01*
X135706763Y-77759119D01*
X135733268Y-77790727D01*
X135739605Y-77801305D01*
X135730486Y-77820806D01*
X135704920Y-77863531D01*
X135665597Y-77925298D01*
X135615203Y-78001931D01*
X135556427Y-78089248D01*
X135522368Y-78139052D01*
X135460289Y-78229993D01*
X135405126Y-78312059D01*
X135359554Y-78381163D01*
X135326250Y-78433222D01*
X135307890Y-78464150D01*
X135305131Y-78470650D01*
X135311385Y-78489121D01*
X135328434Y-78532172D01*
X135353703Y-78593749D01*
X135384622Y-78667799D01*
X135418618Y-78748270D01*
X135453118Y-78829107D01*
X135485551Y-78904258D01*
X135513343Y-78967671D01*
X135533923Y-79013293D01*
X135544719Y-79035069D01*
X135545356Y-79035926D01*
X135562307Y-79040084D01*
X135607451Y-79049361D01*
X135676110Y-79062844D01*
X135763602Y-79079621D01*
X135865250Y-79098781D01*
X135924556Y-79109830D01*
X136033172Y-79130510D01*
X136131277Y-79150189D01*
X136213909Y-79167789D01*
X136276104Y-79182233D01*
X136312899Y-79192446D01*
X136320296Y-79195686D01*
X136327540Y-79217617D01*
X136333385Y-79267147D01*
X136337835Y-79338485D01*
X136340893Y-79425839D01*
X136342565Y-79523417D01*
X136342853Y-79625426D01*
X136341761Y-79726075D01*
X136339294Y-79819572D01*
X136335456Y-79900125D01*
X136330250Y-79961942D01*
X136323681Y-79999230D01*
X136319741Y-80006993D01*
X136296188Y-80016298D01*
X136246282Y-80029600D01*
X136176623Y-80045337D01*
X136093813Y-80061946D01*
X136064905Y-80067319D01*
X135925531Y-80092848D01*
X135815436Y-80113408D01*
X135730982Y-80129815D01*
X135668530Y-80142887D01*
X135624444Y-80153441D01*
X135595085Y-80162294D01*
X135576815Y-80170263D01*
X135565998Y-80178165D01*
X135564485Y-80179727D01*
X135549377Y-80204886D01*
X135526329Y-80253850D01*
X135497644Y-80320621D01*
X135465622Y-80399205D01*
X135432565Y-80483607D01*
X135400773Y-80567830D01*
X135372549Y-80645879D01*
X135350193Y-80711759D01*
X135336007Y-80759473D01*
X135332293Y-80783027D01*
X135332602Y-80783852D01*
X135345189Y-80803104D01*
X135373744Y-80845463D01*
X135415267Y-80906521D01*
X135466756Y-80981868D01*
X135525211Y-81067096D01*
X135541858Y-81091315D01*
X135601215Y-81179123D01*
X135653447Y-81259238D01*
X135695708Y-81327062D01*
X135725153Y-81377993D01*
X135738937Y-81407431D01*
X135739605Y-81411048D01*
X135728024Y-81430057D01*
X135696024Y-81467714D01*
X135647718Y-81519973D01*
X135587220Y-81582786D01*
X135518644Y-81652106D01*
X135446104Y-81723885D01*
X135373712Y-81794077D01*
X135305584Y-81858635D01*
X135245832Y-81913510D01*
X135198571Y-81954656D01*
X135167913Y-81978026D01*
X135159432Y-81981842D01*
X135139691Y-81972855D01*
X135099274Y-81948616D01*
X135044763Y-81913209D01*
X135002823Y-81884711D01*
X134926829Y-81832418D01*
X134836834Y-81770845D01*
X134746564Y-81709370D01*
X134698032Y-81676469D01*
X134533762Y-81565359D01*
X134395869Y-81639916D01*
X134333049Y-81672578D01*
X134279629Y-81697966D01*
X134243484Y-81712446D01*
X134234284Y-81714460D01*
X134223221Y-81699584D01*
X134201394Y-81657547D01*
X134170434Y-81592227D01*
X134131970Y-81507500D01*
X134087632Y-81407245D01*
X134039047Y-81295339D01*
X133987846Y-81175659D01*
X133935659Y-81052084D01*
X133884113Y-80928491D01*
X133834840Y-80808757D01*
X133789467Y-80696759D01*
X133749625Y-80596377D01*
X133716942Y-80511486D01*
X133693049Y-80445965D01*
X133679574Y-80403690D01*
X133677406Y-80389172D01*
X133694583Y-80370653D01*
X133732190Y-80340590D01*
X133782366Y-80305232D01*
X133786578Y-80302434D01*
X133916264Y-80198625D01*
X134020834Y-80077515D01*
X134099381Y-79942976D01*
X134150999Y-79798882D01*
X134174782Y-79649105D01*
X134169823Y-79497517D01*
X134135217Y-79347992D01*
X134070057Y-79204400D01*
X134050886Y-79172984D01*
X133951174Y-79046125D01*
X133833377Y-78944255D01*
X133701571Y-78867904D01*
X133559833Y-78817602D01*
X133412242Y-78793879D01*
X133262873Y-78797265D01*
X133115803Y-78828288D01*
X132975111Y-78887480D01*
X132844873Y-78975369D01*
X132804586Y-79011042D01*
X132702055Y-79122706D01*
X132627341Y-79240257D01*
X132576090Y-79372020D01*
X132547546Y-79502507D01*
X132540500Y-79649216D01*
X132563996Y-79796653D01*
X132615649Y-79939834D01*
X132693071Y-80073777D01*
X132793875Y-80193498D01*
X132915676Y-80294014D01*
X132931684Y-80304609D01*
X132982398Y-80339306D01*
X133020950Y-80369370D01*
X133039381Y-80388565D01*
X133039649Y-80389172D01*
X133035692Y-80409936D01*
X133020007Y-80457062D01*
X132994222Y-80526673D01*
X132959969Y-80614893D01*
X132918877Y-80717844D01*
X132872576Y-80831650D01*
X132822696Y-80952435D01*
X132770867Y-81076321D01*
X132718719Y-81199432D01*
X132667882Y-81317891D01*
X132619987Y-81427823D01*
X132576662Y-81525349D01*
X132539538Y-81606593D01*
X132510244Y-81667679D01*
X132490412Y-81704730D01*
X132482426Y-81714460D01*
X132458021Y-81706883D01*
X132412358Y-81686560D01*
X132353310Y-81657125D01*
X132320840Y-81639916D01*
X132182947Y-81565359D01*
X132018677Y-81676469D01*
X131934821Y-81733390D01*
X131843013Y-81796030D01*
X131756980Y-81855011D01*
X131713887Y-81884711D01*
X131653277Y-81925410D01*
X131601955Y-81957663D01*
X131566615Y-81977384D01*
X131555137Y-81981554D01*
X131538430Y-81970307D01*
X131501454Y-81938911D01*
X131447795Y-81890624D01*
X131381038Y-81828708D01*
X131304766Y-81756421D01*
X131256527Y-81710008D01*
X131172133Y-81627087D01*
X131099197Y-81552920D01*
X131040669Y-81490680D01*
X130999497Y-81443541D01*
X130978628Y-81414673D01*
X130976626Y-81408815D01*
X130985917Y-81386532D01*
X131011591Y-81341477D01*
X131050800Y-81278211D01*
X131100697Y-81201295D01*
X131158433Y-81115292D01*
X131174851Y-81091315D01*
X131234677Y-81004170D01*
X131288350Y-80925710D01*
X131332870Y-80860345D01*
X131365235Y-80812484D01*
X131382445Y-80786535D01*
X131384107Y-80783852D01*
X131381621Y-80763172D01*
X131368423Y-80717704D01*
X131346814Y-80653444D01*
X131319096Y-80576387D01*
X131287570Y-80492529D01*
X131254537Y-80407866D01*
X131222299Y-80328392D01*
X131193157Y-80260104D01*
X131169412Y-80208997D01*
X131153365Y-80181067D01*
X131152225Y-80179727D01*
X131142412Y-80171745D01*
X131125839Y-80163851D01*
X131098868Y-80155229D01*
X131057861Y-80145062D01*
X130999180Y-80132531D01*
X130919187Y-80116821D01*
X130814245Y-80097113D01*
X130680715Y-80072592D01*
X130651804Y-80067319D01*
X130566118Y-80050764D01*
X130491418Y-80034569D01*
X130434306Y-80020296D01*
X130401383Y-80009508D01*
X130396969Y-80006993D01*
X130389694Y-79984696D01*
X130383781Y-79934869D01*
X130379234Y-79863304D01*
X130376055Y-79775793D01*
X130374251Y-79678128D01*
X130373823Y-79576101D01*
X130374777Y-79475503D01*
X130377116Y-79382127D01*
X130380844Y-79301765D01*
X130385966Y-79240209D01*
X130392484Y-79203250D01*
X130396414Y-79195686D01*
X130418292Y-79188056D01*
X130468109Y-79175642D01*
X130540903Y-79159522D01*
X130631711Y-79140773D01*
X130735569Y-79120471D01*
X130792154Y-79109830D01*
X130899514Y-79089760D01*
X130995254Y-79071580D01*
X131074694Y-79056199D01*
X131133154Y-79044531D01*
X131165955Y-79037488D01*
X131171354Y-79035926D01*
X131180478Y-79018322D01*
X131199765Y-78975918D01*
X131226645Y-78914772D01*
X131258546Y-78840943D01*
X131292898Y-78760489D01*
X131327129Y-78679468D01*
X131358669Y-78603937D01*
X131384946Y-78539955D01*
X131403389Y-78493580D01*
X131411429Y-78470869D01*
X131411578Y-78469876D01*
X131402465Y-78451961D01*
X131376914Y-78410733D01*
X131337612Y-78350291D01*
X131287243Y-78274731D01*
X131228494Y-78188152D01*
X131194342Y-78138421D01*
X131132110Y-78047236D01*
X131076836Y-77964449D01*
X131031218Y-77894249D01*
X130997952Y-77840824D01*
X130979736Y-77808361D01*
X130977105Y-77801083D01*
X130988414Y-77784145D01*
X131019681Y-77747978D01*
X131066910Y-77696635D01*
X131126108Y-77634167D01*
X131193281Y-77564626D01*
X131264434Y-77492065D01*
X131335574Y-77420535D01*
X131402707Y-77354087D01*
X131461839Y-77296774D01*
X131508975Y-77252647D01*
X131540123Y-77225759D01*
X131550543Y-77219342D01*
X131567509Y-77228365D01*
X131608089Y-77253715D01*
X131668337Y-77292810D01*
X131744307Y-77343071D01*
X131832054Y-77401917D01*
X131898244Y-77446748D01*
X132232668Y-77674154D01*
X132511433Y-77559238D01*
X132790197Y-77444322D01*
X132865746Y-77043576D01*
X132941294Y-76642829D01*
X133775415Y-76642829D01*
X133850964Y-77043576D01*
X133850964Y-77043576D01*
G37*
X133850964Y-77043576D02*
X133926513Y-77444322D01*
X134484041Y-77674154D01*
X134818465Y-77446748D01*
X134912122Y-77383431D01*
X134996782Y-77326896D01*
X135068495Y-77279727D01*
X135123311Y-77244502D01*
X135157280Y-77223805D01*
X135166530Y-77219342D01*
X135183195Y-77230820D01*
X135218806Y-77262551D01*
X135269371Y-77310483D01*
X135330900Y-77370562D01*
X135399399Y-77438733D01*
X135470879Y-77510945D01*
X135541347Y-77583142D01*
X135606811Y-77651273D01*
X135663280Y-77711283D01*
X135706763Y-77759119D01*
X135733268Y-77790727D01*
X135739605Y-77801305D01*
X135730486Y-77820806D01*
X135704920Y-77863531D01*
X135665597Y-77925298D01*
X135615203Y-78001931D01*
X135556427Y-78089248D01*
X135522368Y-78139052D01*
X135460289Y-78229993D01*
X135405126Y-78312059D01*
X135359554Y-78381163D01*
X135326250Y-78433222D01*
X135307890Y-78464150D01*
X135305131Y-78470650D01*
X135311385Y-78489121D01*
X135328434Y-78532172D01*
X135353703Y-78593749D01*
X135384622Y-78667799D01*
X135418618Y-78748270D01*
X135453118Y-78829107D01*
X135485551Y-78904258D01*
X135513343Y-78967671D01*
X135533923Y-79013293D01*
X135544719Y-79035069D01*
X135545356Y-79035926D01*
X135562307Y-79040084D01*
X135607451Y-79049361D01*
X135676110Y-79062844D01*
X135763602Y-79079621D01*
X135865250Y-79098781D01*
X135924556Y-79109830D01*
X136033172Y-79130510D01*
X136131277Y-79150189D01*
X136213909Y-79167789D01*
X136276104Y-79182233D01*
X136312899Y-79192446D01*
X136320296Y-79195686D01*
X136327540Y-79217617D01*
X136333385Y-79267147D01*
X136337835Y-79338485D01*
X136340893Y-79425839D01*
X136342565Y-79523417D01*
X136342853Y-79625426D01*
X136341761Y-79726075D01*
X136339294Y-79819572D01*
X136335456Y-79900125D01*
X136330250Y-79961942D01*
X136323681Y-79999230D01*
X136319741Y-80006993D01*
X136296188Y-80016298D01*
X136246282Y-80029600D01*
X136176623Y-80045337D01*
X136093813Y-80061946D01*
X136064905Y-80067319D01*
X135925531Y-80092848D01*
X135815436Y-80113408D01*
X135730982Y-80129815D01*
X135668530Y-80142887D01*
X135624444Y-80153441D01*
X135595085Y-80162294D01*
X135576815Y-80170263D01*
X135565998Y-80178165D01*
X135564485Y-80179727D01*
X135549377Y-80204886D01*
X135526329Y-80253850D01*
X135497644Y-80320621D01*
X135465622Y-80399205D01*
X135432565Y-80483607D01*
X135400773Y-80567830D01*
X135372549Y-80645879D01*
X135350193Y-80711759D01*
X135336007Y-80759473D01*
X135332293Y-80783027D01*
X135332602Y-80783852D01*
X135345189Y-80803104D01*
X135373744Y-80845463D01*
X135415267Y-80906521D01*
X135466756Y-80981868D01*
X135525211Y-81067096D01*
X135541858Y-81091315D01*
X135601215Y-81179123D01*
X135653447Y-81259238D01*
X135695708Y-81327062D01*
X135725153Y-81377993D01*
X135738937Y-81407431D01*
X135739605Y-81411048D01*
X135728024Y-81430057D01*
X135696024Y-81467714D01*
X135647718Y-81519973D01*
X135587220Y-81582786D01*
X135518644Y-81652106D01*
X135446104Y-81723885D01*
X135373712Y-81794077D01*
X135305584Y-81858635D01*
X135245832Y-81913510D01*
X135198571Y-81954656D01*
X135167913Y-81978026D01*
X135159432Y-81981842D01*
X135139691Y-81972855D01*
X135099274Y-81948616D01*
X135044763Y-81913209D01*
X135002823Y-81884711D01*
X134926829Y-81832418D01*
X134836834Y-81770845D01*
X134746564Y-81709370D01*
X134698032Y-81676469D01*
X134533762Y-81565359D01*
X134395869Y-81639916D01*
X134333049Y-81672578D01*
X134279629Y-81697966D01*
X134243484Y-81712446D01*
X134234284Y-81714460D01*
X134223221Y-81699584D01*
X134201394Y-81657547D01*
X134170434Y-81592227D01*
X134131970Y-81507500D01*
X134087632Y-81407245D01*
X134039047Y-81295339D01*
X133987846Y-81175659D01*
X133935659Y-81052084D01*
X133884113Y-80928491D01*
X133834840Y-80808757D01*
X133789467Y-80696759D01*
X133749625Y-80596377D01*
X133716942Y-80511486D01*
X133693049Y-80445965D01*
X133679574Y-80403690D01*
X133677406Y-80389172D01*
X133694583Y-80370653D01*
X133732190Y-80340590D01*
X133782366Y-80305232D01*
X133786578Y-80302434D01*
X133916264Y-80198625D01*
X134020834Y-80077515D01*
X134099381Y-79942976D01*
X134150999Y-79798882D01*
X134174782Y-79649105D01*
X134169823Y-79497517D01*
X134135217Y-79347992D01*
X134070057Y-79204400D01*
X134050886Y-79172984D01*
X133951174Y-79046125D01*
X133833377Y-78944255D01*
X133701571Y-78867904D01*
X133559833Y-78817602D01*
X133412242Y-78793879D01*
X133262873Y-78797265D01*
X133115803Y-78828288D01*
X132975111Y-78887480D01*
X132844873Y-78975369D01*
X132804586Y-79011042D01*
X132702055Y-79122706D01*
X132627341Y-79240257D01*
X132576090Y-79372020D01*
X132547546Y-79502507D01*
X132540500Y-79649216D01*
X132563996Y-79796653D01*
X132615649Y-79939834D01*
X132693071Y-80073777D01*
X132793875Y-80193498D01*
X132915676Y-80294014D01*
X132931684Y-80304609D01*
X132982398Y-80339306D01*
X133020950Y-80369370D01*
X133039381Y-80388565D01*
X133039649Y-80389172D01*
X133035692Y-80409936D01*
X133020007Y-80457062D01*
X132994222Y-80526673D01*
X132959969Y-80614893D01*
X132918877Y-80717844D01*
X132872576Y-80831650D01*
X132822696Y-80952435D01*
X132770867Y-81076321D01*
X132718719Y-81199432D01*
X132667882Y-81317891D01*
X132619987Y-81427823D01*
X132576662Y-81525349D01*
X132539538Y-81606593D01*
X132510244Y-81667679D01*
X132490412Y-81704730D01*
X132482426Y-81714460D01*
X132458021Y-81706883D01*
X132412358Y-81686560D01*
X132353310Y-81657125D01*
X132320840Y-81639916D01*
X132182947Y-81565359D01*
X132018677Y-81676469D01*
X131934821Y-81733390D01*
X131843013Y-81796030D01*
X131756980Y-81855011D01*
X131713887Y-81884711D01*
X131653277Y-81925410D01*
X131601955Y-81957663D01*
X131566615Y-81977384D01*
X131555137Y-81981554D01*
X131538430Y-81970307D01*
X131501454Y-81938911D01*
X131447795Y-81890624D01*
X131381038Y-81828708D01*
X131304766Y-81756421D01*
X131256527Y-81710008D01*
X131172133Y-81627087D01*
X131099197Y-81552920D01*
X131040669Y-81490680D01*
X130999497Y-81443541D01*
X130978628Y-81414673D01*
X130976626Y-81408815D01*
X130985917Y-81386532D01*
X131011591Y-81341477D01*
X131050800Y-81278211D01*
X131100697Y-81201295D01*
X131158433Y-81115292D01*
X131174851Y-81091315D01*
X131234677Y-81004170D01*
X131288350Y-80925710D01*
X131332870Y-80860345D01*
X131365235Y-80812484D01*
X131382445Y-80786535D01*
X131384107Y-80783852D01*
X131381621Y-80763172D01*
X131368423Y-80717704D01*
X131346814Y-80653444D01*
X131319096Y-80576387D01*
X131287570Y-80492529D01*
X131254537Y-80407866D01*
X131222299Y-80328392D01*
X131193157Y-80260104D01*
X131169412Y-80208997D01*
X131153365Y-80181067D01*
X131152225Y-80179727D01*
X131142412Y-80171745D01*
X131125839Y-80163851D01*
X131098868Y-80155229D01*
X131057861Y-80145062D01*
X130999180Y-80132531D01*
X130919187Y-80116821D01*
X130814245Y-80097113D01*
X130680715Y-80072592D01*
X130651804Y-80067319D01*
X130566118Y-80050764D01*
X130491418Y-80034569D01*
X130434306Y-80020296D01*
X130401383Y-80009508D01*
X130396969Y-80006993D01*
X130389694Y-79984696D01*
X130383781Y-79934869D01*
X130379234Y-79863304D01*
X130376055Y-79775793D01*
X130374251Y-79678128D01*
X130373823Y-79576101D01*
X130374777Y-79475503D01*
X130377116Y-79382127D01*
X130380844Y-79301765D01*
X130385966Y-79240209D01*
X130392484Y-79203250D01*
X130396414Y-79195686D01*
X130418292Y-79188056D01*
X130468109Y-79175642D01*
X130540903Y-79159522D01*
X130631711Y-79140773D01*
X130735569Y-79120471D01*
X130792154Y-79109830D01*
X130899514Y-79089760D01*
X130995254Y-79071580D01*
X131074694Y-79056199D01*
X131133154Y-79044531D01*
X131165955Y-79037488D01*
X131171354Y-79035926D01*
X131180478Y-79018322D01*
X131199765Y-78975918D01*
X131226645Y-78914772D01*
X131258546Y-78840943D01*
X131292898Y-78760489D01*
X131327129Y-78679468D01*
X131358669Y-78603937D01*
X131384946Y-78539955D01*
X131403389Y-78493580D01*
X131411429Y-78470869D01*
X131411578Y-78469876D01*
X131402465Y-78451961D01*
X131376914Y-78410733D01*
X131337612Y-78350291D01*
X131287243Y-78274731D01*
X131228494Y-78188152D01*
X131194342Y-78138421D01*
X131132110Y-78047236D01*
X131076836Y-77964449D01*
X131031218Y-77894249D01*
X130997952Y-77840824D01*
X130979736Y-77808361D01*
X130977105Y-77801083D01*
X130988414Y-77784145D01*
X131019681Y-77747978D01*
X131066910Y-77696635D01*
X131126108Y-77634167D01*
X131193281Y-77564626D01*
X131264434Y-77492065D01*
X131335574Y-77420535D01*
X131402707Y-77354087D01*
X131461839Y-77296774D01*
X131508975Y-77252647D01*
X131540123Y-77225759D01*
X131550543Y-77219342D01*
X131567509Y-77228365D01*
X131608089Y-77253715D01*
X131668337Y-77292810D01*
X131744307Y-77343071D01*
X131832054Y-77401917D01*
X131898244Y-77446748D01*
X132232668Y-77674154D01*
X132511433Y-77559238D01*
X132790197Y-77444322D01*
X132865746Y-77043576D01*
X132941294Y-76642829D01*
X133775415Y-76642829D01*
X133850964Y-77043576D01*
D13*
X119888095Y-60412381D02*
X119888095Y-61221905D01*
X119935714Y-61317143D01*
X119983333Y-61364762D01*
X120078571Y-61412381D01*
X120269048Y-61412381D01*
X120364286Y-61364762D01*
X120411905Y-61317143D01*
X120459524Y-61221905D01*
X120459524Y-60412381D01*
X121459524Y-61412381D02*
X120888095Y-61412381D01*
X121173809Y-61412381D02*
X121173809Y-60412381D01*
X121078571Y-60555238D01*
X120983333Y-60650476D01*
X120888095Y-60698095D01*
X137668095Y-106767381D02*
X137668095Y-107576905D01*
X137715714Y-107672143D01*
X137763333Y-107719762D01*
X137858571Y-107767381D01*
X138049048Y-107767381D01*
X138144286Y-107719762D01*
X138191905Y-107672143D01*
X138239524Y-107576905D01*
X138239524Y-106767381D01*
X139144286Y-107100714D02*
X139144286Y-107767381D01*
X138906190Y-106719762D02*
X138668095Y-107434048D01*
X139287143Y-107434048D01*
X135652381Y-64873095D02*
X134652381Y-64873095D01*
X134652381Y-64635000D01*
X134700000Y-64492142D01*
X134795238Y-64396904D01*
X134890476Y-64349285D01*
X135080952Y-64301666D01*
X135223810Y-64301666D01*
X135414286Y-64349285D01*
X135509524Y-64396904D01*
X135604762Y-64492142D01*
X135652381Y-64635000D01*
X135652381Y-64873095D01*
X135652381Y-63349285D02*
X135652381Y-63920714D01*
X135652381Y-63635000D02*
X134652381Y-63635000D01*
X134795238Y-63730238D01*
X134890476Y-63825476D01*
X134938095Y-63920714D01*
X113752381Y-88598333D02*
X114466667Y-88598333D01*
X114609524Y-88645953D01*
X114704762Y-88741191D01*
X114752381Y-88884048D01*
X114752381Y-88979286D01*
X113752381Y-87645952D02*
X113752381Y-88122143D01*
X114228571Y-88169762D01*
X114180952Y-88122143D01*
X114133333Y-88026905D01*
X114133333Y-87788809D01*
X114180952Y-87693571D01*
X114228571Y-87645952D01*
X114323810Y-87598333D01*
X114561905Y-87598333D01*
X114657143Y-87645952D01*
X114704762Y-87693571D01*
X114752381Y-87788809D01*
X114752381Y-88026905D01*
X114704762Y-88122143D01*
X114657143Y-88169762D01*
X150582381Y-82883333D02*
X151296667Y-82883333D01*
X151439524Y-82930953D01*
X151534762Y-83026191D01*
X151582381Y-83169048D01*
X151582381Y-83264286D01*
X150582381Y-81978571D02*
X150582381Y-82169048D01*
X150630000Y-82264286D01*
X150677619Y-82311905D01*
X150820476Y-82407143D01*
X151010952Y-82454762D01*
X151391905Y-82454762D01*
X151487143Y-82407143D01*
X151534762Y-82359524D01*
X151582381Y-82264286D01*
X151582381Y-82073809D01*
X151534762Y-81978571D01*
X151487143Y-81930952D01*
X151391905Y-81883333D01*
X151153810Y-81883333D01*
X151058571Y-81930952D01*
X151010952Y-81978571D01*
X150963333Y-82073809D01*
X150963333Y-82264286D01*
X151010952Y-82359524D01*
X151058571Y-82407143D01*
X151153810Y-82454762D01*
X135652381Y-73191666D02*
X135176190Y-73525000D01*
X135652381Y-73763095D02*
X134652381Y-73763095D01*
X134652381Y-73382142D01*
X134700000Y-73286904D01*
X134747619Y-73239285D01*
X134842857Y-73191666D01*
X134985714Y-73191666D01*
X135080952Y-73239285D01*
X135128571Y-73286904D01*
X135176190Y-73382142D01*
X135176190Y-73763095D01*
X135652381Y-72715476D02*
X135652381Y-72525000D01*
X135604762Y-72429761D01*
X135557143Y-72382142D01*
X135414286Y-72286904D01*
X135223810Y-72239285D01*
X134842857Y-72239285D01*
X134747619Y-72286904D01*
X134700000Y-72334523D01*
X134652381Y-72429761D01*
X134652381Y-72620238D01*
X134700000Y-72715476D01*
X134747619Y-72763095D01*
X134842857Y-72810714D01*
X135080952Y-72810714D01*
X135176190Y-72763095D01*
X135223810Y-72715476D01*
X135271429Y-72620238D01*
X135271429Y-72429761D01*
X135223810Y-72334523D01*
X135176190Y-72286904D01*
X135080952Y-72239285D01*
X137668095Y-60412381D02*
X137668095Y-61221905D01*
X137715714Y-61317143D01*
X137763333Y-61364762D01*
X137858571Y-61412381D01*
X138049048Y-61412381D01*
X138144286Y-61364762D01*
X138191905Y-61317143D01*
X138239524Y-61221905D01*
X138239524Y-60412381D01*
X138668095Y-60507619D02*
X138715714Y-60460000D01*
X138810952Y-60412381D01*
X139049048Y-60412381D01*
X139144286Y-60460000D01*
X139191905Y-60507619D01*
X139239524Y-60602857D01*
X139239524Y-60698095D01*
X139191905Y-60840952D01*
X138620476Y-61412381D01*
X139239524Y-61412381D01*
X119888095Y-106767381D02*
X119888095Y-107576905D01*
X119935714Y-107672143D01*
X119983333Y-107719762D01*
X120078571Y-107767381D01*
X120269048Y-107767381D01*
X120364286Y-107719762D01*
X120411905Y-107672143D01*
X120459524Y-107576905D01*
X120459524Y-106767381D01*
X120840476Y-106767381D02*
X121459524Y-106767381D01*
X121126190Y-107148333D01*
X121269048Y-107148333D01*
X121364286Y-107195952D01*
X121411905Y-107243571D01*
X121459524Y-107338810D01*
X121459524Y-107576905D01*
X121411905Y-107672143D01*
X121364286Y-107719762D01*
X121269048Y-107767381D01*
X120983333Y-107767381D01*
X120888095Y-107719762D01*
X120840476Y-107672143D01*
X115022381Y-78438333D02*
X115736667Y-78438333D01*
X115879524Y-78485953D01*
X115974762Y-78581191D01*
X116022381Y-78724048D01*
X116022381Y-78819286D01*
X116022381Y-77438333D02*
X116022381Y-78009762D01*
X116022381Y-77724048D02*
X115022381Y-77724048D01*
X115165238Y-77819286D01*
X115260476Y-77914524D01*
X115308095Y-78009762D01*
X151852381Y-70818333D02*
X152566667Y-70818333D01*
X152709524Y-70865953D01*
X152804762Y-70961191D01*
X152852381Y-71104048D01*
X152852381Y-71199286D01*
X151947619Y-70389762D02*
X151900000Y-70342143D01*
X151852381Y-70246905D01*
X151852381Y-70008809D01*
X151900000Y-69913571D01*
X151947619Y-69865952D01*
X152042857Y-69818333D01*
X152138095Y-69818333D01*
X152280952Y-69865952D01*
X152852381Y-70437381D01*
X152852381Y-69818333D01*
X115022381Y-90503333D02*
X115736667Y-90503333D01*
X115879524Y-90550953D01*
X115974762Y-90646191D01*
X116022381Y-90789048D01*
X116022381Y-90884286D01*
X115022381Y-90122381D02*
X115022381Y-89503333D01*
X115403333Y-89836667D01*
X115403333Y-89693809D01*
X115450952Y-89598571D01*
X115498571Y-89550952D01*
X115593810Y-89503333D01*
X115831905Y-89503333D01*
X115927143Y-89550952D01*
X115974762Y-89598571D01*
X116022381Y-89693809D01*
X116022381Y-89979524D01*
X115974762Y-90074762D01*
X115927143Y-90122381D01*
X151852381Y-91138333D02*
X152566667Y-91138333D01*
X152709524Y-91185953D01*
X152804762Y-91281191D01*
X152852381Y-91424048D01*
X152852381Y-91519286D01*
X152185714Y-90233571D02*
X152852381Y-90233571D01*
X151804762Y-90471667D02*
X152519048Y-90709762D01*
X152519048Y-90090714D01*
M02*
