M48
;DRILL file {KiCad 4.0.7} date 03/20/18 07:49:54
;FORMAT={-:-/ absolute / inch / decimal}
FMAT,2
INCH,TZ
T1C0.031
T2C0.039
T3C0.047
T4C0.047
%
G90
G05
M72
T1
X4.4016Y-2.725
X4.5Y-2.725
X5.375Y-3.7
X5.375Y-3.7984
X5.425Y-2.4516
X5.425Y-2.55
X5.6Y-3.5
X5.6984Y-3.5
T2
X4.65Y-2.45
X4.75Y-2.45
T3
X4.75Y-2.8
X4.75Y-3.
X4.95Y-2.8
X4.95Y-3.
X5.15Y-2.8
X5.15Y-3.
T4
X4.425Y-3.
X4.425Y-3.1
X4.425Y-3.2
X4.425Y-3.425
X4.425Y-3.5628
X4.9Y-3.775
X4.975Y-2.475
X5.Y-3.775
X5.075Y-2.475
X5.1Y-3.775
X5.175Y-2.475
X5.475Y-3.025
X5.475Y-3.125
X5.475Y-3.225
X5.7Y-3.025
X5.7Y-3.125
X5.7Y-3.225
T0
M30
