G04 #@! TF.FileFunction,Legend,Bot*
%FSLAX46Y46*%
G04 Gerber Fmt 4.6, Leading zero omitted, Abs format (unit mm)*
G04 Created by KiCad (PCBNEW 4.0.7) date 03/20/18 07:49:49*
%MOMM*%
%LPD*%
G01*
G04 APERTURE LIST*
%ADD10C,0.100000*%
%ADD11C,0.120000*%
%ADD12C,0.150000*%
G04 APERTURE END LIST*
D10*
D11*
X133080000Y-84840000D02*
X131080000Y-84840000D01*
X131080000Y-82800000D02*
X133080000Y-82800000D01*
X122190000Y-89150000D02*
X124190000Y-89150000D01*
X124190000Y-91190000D02*
X122190000Y-91190000D01*
X121280000Y-87230000D02*
X121280000Y-85970000D01*
X121280000Y-80410000D02*
X121280000Y-81670000D01*
X125040000Y-87230000D02*
X121280000Y-87230000D01*
X127290000Y-80410000D02*
X121280000Y-80410000D01*
D12*
X132246666Y-85927143D02*
X132294285Y-85974762D01*
X132437142Y-86022381D01*
X132532380Y-86022381D01*
X132675238Y-85974762D01*
X132770476Y-85879524D01*
X132818095Y-85784286D01*
X132865714Y-85593810D01*
X132865714Y-85450952D01*
X132818095Y-85260476D01*
X132770476Y-85165238D01*
X132675238Y-85070000D01*
X132532380Y-85022381D01*
X132437142Y-85022381D01*
X132294285Y-85070000D01*
X132246666Y-85117619D01*
X131294285Y-86022381D02*
X131865714Y-86022381D01*
X131580000Y-86022381D02*
X131580000Y-85022381D01*
X131675238Y-85165238D01*
X131770476Y-85260476D01*
X131865714Y-85308095D01*
X123356666Y-88777143D02*
X123404285Y-88824762D01*
X123547142Y-88872381D01*
X123642380Y-88872381D01*
X123785238Y-88824762D01*
X123880476Y-88729524D01*
X123928095Y-88634286D01*
X123975714Y-88443810D01*
X123975714Y-88300952D01*
X123928095Y-88110476D01*
X123880476Y-88015238D01*
X123785238Y-87920000D01*
X123642380Y-87872381D01*
X123547142Y-87872381D01*
X123404285Y-87920000D01*
X123356666Y-87967619D01*
X122975714Y-87967619D02*
X122928095Y-87920000D01*
X122832857Y-87872381D01*
X122594761Y-87872381D01*
X122499523Y-87920000D01*
X122451904Y-87967619D01*
X122404285Y-88062857D01*
X122404285Y-88158095D01*
X122451904Y-88300952D01*
X123023333Y-88872381D01*
X122404285Y-88872381D01*
X123951905Y-78772381D02*
X123951905Y-79581905D01*
X123904286Y-79677143D01*
X123856667Y-79724762D01*
X123761429Y-79772381D01*
X123570952Y-79772381D01*
X123475714Y-79724762D01*
X123428095Y-79677143D01*
X123380476Y-79581905D01*
X123380476Y-78772381D01*
X122380476Y-79772381D02*
X122951905Y-79772381D01*
X122666191Y-79772381D02*
X122666191Y-78772381D01*
X122761429Y-78915238D01*
X122856667Y-79010476D01*
X122951905Y-79058095D01*
X127404286Y-88486667D02*
X126928095Y-88486667D01*
X127499524Y-88772381D02*
X127166191Y-87772381D01*
X126832857Y-88772381D01*
X126499524Y-88772381D02*
X126499524Y-87772381D01*
X126118571Y-87772381D01*
X126023333Y-87820000D01*
X125975714Y-87867619D01*
X125928095Y-87962857D01*
X125928095Y-88105714D01*
X125975714Y-88200952D01*
X126023333Y-88248571D01*
X126118571Y-88296190D01*
X126499524Y-88296190D01*
X124975714Y-88772381D02*
X125547143Y-88772381D01*
X125261429Y-88772381D02*
X125261429Y-87772381D01*
X125356667Y-87915238D01*
X125451905Y-88010476D01*
X125547143Y-88058095D01*
X124023333Y-88772381D02*
X124594762Y-88772381D01*
X124309048Y-88772381D02*
X124309048Y-87772381D01*
X124404286Y-87915238D01*
X124499524Y-88010476D01*
X124594762Y-88058095D01*
X123070952Y-88772381D02*
X123642381Y-88772381D01*
X123356667Y-88772381D02*
X123356667Y-87772381D01*
X123451905Y-87915238D01*
X123547143Y-88010476D01*
X123642381Y-88058095D01*
X122737619Y-87772381D02*
X122070952Y-87772381D01*
X122499524Y-88772381D01*
X121690000Y-88391429D02*
X120928095Y-88391429D01*
X119975714Y-87772381D02*
X120451905Y-87772381D01*
X120499524Y-88248571D01*
X120451905Y-88200952D01*
X120356667Y-88153333D01*
X120118571Y-88153333D01*
X120023333Y-88200952D01*
X119975714Y-88248571D01*
X119928095Y-88343810D01*
X119928095Y-88581905D01*
X119975714Y-88677143D01*
X120023333Y-88724762D01*
X120118571Y-88772381D01*
X120356667Y-88772381D01*
X120451905Y-88724762D01*
X120499524Y-88677143D01*
X119309048Y-87772381D02*
X119213809Y-87772381D01*
X119118571Y-87820000D01*
X119070952Y-87867619D01*
X119023333Y-87962857D01*
X118975714Y-88153333D01*
X118975714Y-88391429D01*
X119023333Y-88581905D01*
X119070952Y-88677143D01*
X119118571Y-88724762D01*
X119213809Y-88772381D01*
X119309048Y-88772381D01*
X119404286Y-88724762D01*
X119451905Y-88677143D01*
X119499524Y-88581905D01*
X119547143Y-88391429D01*
X119547143Y-88153333D01*
X119499524Y-87962857D01*
X119451905Y-87867619D01*
X119404286Y-87820000D01*
X119309048Y-87772381D01*
M02*
