M48
;DRILL file {KiCad 4.0.7} date 04/10/18 14:29:21
;FORMAT={-:-/ absolute / inch / decimal}
FMAT,2
INCH,TZ
T1C0.039
T2C0.047
%
G90
G05
M72
T1
X4.5Y-2.8
X4.5Y-2.9
X4.5Y-3.
X5.65Y-3.25
X5.65Y-3.35
X5.65Y-3.45
T2
X4.7Y-2.8
X4.7Y-2.9
X4.7Y-3.
X4.75Y-3.25
X4.75Y-3.35
X4.75Y-3.45
X4.7872Y-2.475
X4.825Y-3.775
X4.925Y-2.475
X4.925Y-2.8
X4.925Y-2.9
X4.925Y-3.
X4.9628Y-3.775
X4.975Y-3.25
X4.975Y-3.35
X4.975Y-3.45
X5.15Y-2.8
X5.15Y-2.9
X5.15Y-3.
X5.2Y-3.25
X5.2Y-3.35
X5.2Y-3.45
X5.2622Y-2.475
X5.275Y-3.775
X5.375Y-2.8
X5.375Y-2.9
X5.375Y-3.
X5.4Y-2.475
X5.4128Y-3.775
X5.425Y-3.25
X5.425Y-3.35
X5.425Y-3.45
X5.6Y-2.8
X5.6Y-2.9
X5.6Y-3.
T0
M30
